<svg width="24" height="24" fill="none" xmlns="http://www.w3.org/2000/svg"><path fill-rule="evenodd" clip-rule="evenodd" d="M18 6.5a2.5 2.5 0 0 1 5 0v12a2.5 2.5 0 0 1-5 0v-12zm2.5-.5a.5.5 0 0 0-.5.5v12a.5.5 0 0 0 1 0v-12a.5.5 0 0 0-.5-.5zM12 10.5a2.5 2.5 0 0 1 5 0v8a2.5 2.5 0 0 1-5 0v-8zm2.5-.5a.5.5 0 0 0-.5.5v8a.5.5 0 0 0 1 0v-8a.5.5 0 0 0-.5-.5zm-6 2A2.5 2.5 0 0 0 6 14.5v4a2.5 2.5 0 0 0 5 0v-4A2.5 2.5 0 0 0 8.5 12zM8 14.5a.5.5 0 0 1 1 0v4a.5.5 0 0 1-1 0v-4zm-8 4a2.5 2.5 0 1 1 5 0 2.5 2.5 0 0 1-5 0z" fill="#000"/></svg>