<svg width="24" height="24" fill="none" xmlns="http://www.w3.org/2000/svg"><path fill-rule="evenodd" clip-rule="evenodd" d="M13 2a1 1 0 1 0-2 0v2a1 1 0 1 0 2 0V2zm-5.134.84a1 1 0 0 0-1.732 1l1 1.73a1 1 0 0 0 1.731-1l-.999-1.73zm10 1a1 1 0 1 0-1.732-1l-1 1.73a1 1 0 1 0 1.733 1l.999-1.73zm3.294 4.026a1 1 0 1 0-1-1.732l-1.73 1a1 1 0 1 0 1 1.731l1.73-.999zM3.84 6.134a1 1 0 0 0-1 1.732l1.73 1a1 1 0 1 0 1-1.733l-1.73-.999zM2 11a1 1 0 1 0 0 2h2a1 1 0 1 0 0-2H2zm18 0a1 1 0 1 0 0 2h2a1 1 0 1 0 0-2h-2zM5.57 16.867a1 1 0 0 0-1-1.732l-1.73.999a1 1 0 1 0 1 1.732l1.73-1zm13.86-1.732a1 1 0 1 0-1 1.732l1.73.999a1 1 0 1 0 1-1.732l-1.73-1zm-2.563 3.294a1 1 0 0 0-1.732 1l.999 1.731a1 1 0 1 0 1.732-1l-1-1.73zm-8.002 1a1 1 0 0 0-1.732-1l-.999 1.731a1 1 0 1 0 1.732 1l1-1.73zM13 20a1 1 0 1 0-2 0v2a1 1 0 1 0 2 0v-2zm-5-8a4 4 0 1 1 8 0 4 4 0 0 1-8 0zm4-6a6 6 0 1 0 0 12 6 6 0 0 0 0-12z" fill="#000"/></svg>