<svg width="24" height="24" fill="none" xmlns="http://www.w3.org/2000/svg"><path fill-rule="evenodd" clip-rule="evenodd" d="M2.807 10.808c5.077-5.077 13.308-5.077 18.385 0a1 1 0 0 0 1.414-1.415c-5.858-5.857-15.355-5.857-21.213 0a1 1 0 1 0 1.414 1.415zm2.829 2.828a9 9 0 0 1 12.728 0 1 1 0 1 0 1.414-1.414c-4.296-4.296-11.26-4.296-15.557 0a1 1 0 1 0 1.415 1.414zm2.828 2.829a5 5 0 0 1 7.071 0 1 1 0 0 0 1.414-1.415 7 7 0 0 0-9.9 0 1 1 0 1 0 1.415 1.415zm1.414 1.414a3 3 0 0 1 4.243 0 1 1 0 0 1 0 1.414l-1.415 1.414a1 1 0 0 1-1.414 0l-1.414-1.414a1 1 0 0 1 0-1.414z" fill="#000"/></svg>