<svg width="24" height="24" fill="none" xmlns="http://www.w3.org/2000/svg"><path fill-rule="evenodd" clip-rule="evenodd" d="M3 12a9 9 0 0118 0 8.97 8.97 0 01-2.636 6.364 1 1 0 101.414 1.414A10.969 10.969 0 0023 12c0-6.075-4.925-11-11-11S1 5.925 1 12c0 3.037 1.232 5.789 3.222 7.778a1 1 0 001.414-1.414A8.969 8.969 0 013 12zm4 0a5 5 0 118.536 3.536 1 1 0 001.414 1.414 7 7 0 10-9.9 0 1 1 0 101.414-1.414A4.981 4.981 0 017 12zm7.5 0a2.5 2.5 0 11-5 0 2.5 2.5 0 015 0zm-4.827 5.494a2.332 2.332 0 114.654 0l-.322 4.636a2.01 2.01 0 01-4.01 0l-.322-4.636z" fill="#000"/></svg>