<svg width="24" height="24" fill="none" xmlns="http://www.w3.org/2000/svg"><path fill-rule="evenodd" clip-rule="evenodd" d="M1 2a1 1 0 011-1h1.015a7 7 0 014.95 2.05l2.78 2.781 7.176-2.79a3 3 0 013.209.675l1.577 1.577a1 1 0 01-.217 1.579l-6.927 3.896 2.332 2.665 2.264-.323a2.414 2.414 0 012.048 4.097l-5 5a2.414 2.414 0 01-4.097-2.048l.323-2.264-2.665-2.332-3.896 6.927a1 1 0 01-1.58.217L3.717 21.13a3 3 0 01-.675-3.209l2.79-7.175-2.78-2.782A7 7 0 011 3.014V2zm2 1v.015A5 5 0 004.464 6.55l3.243 3.243a1 1 0 01.225 1.07l-3.027 7.783a1 1 0 00.225 1.07l.645.645 3.853-6.851a1 1 0 011.53-.262l4 3.5a1 1 0 01.332.893l-.4 2.8a.414.414 0 00.703.352l5-5a.414.414 0 00-.352-.703l-2.8.4a1 1 0 01-.894-.332l-3.5-4a1 1 0 01.263-1.53l6.85-3.853-.644-.645a1 1 0 00-1.07-.225l-7.784 3.027a1 1 0 01-1.07-.225L6.55 4.464A5 5 0 003.015 3H3z" fill="#000"/></svg>