<svg width="24" height="24" fill="none" xmlns="http://www.w3.org/2000/svg"><path fill-rule="evenodd" clip-rule="evenodd" d="M3 7.294V11a1 1 0 1 0-2 0v2a1 1 0 1 0 2 0v4.882c0 .905.38 1.745 1 2.325V22a1 1 0 0 0 1 1h1a1 1 0 0 0 1-1v-1h10v1a1 1 0 0 0 1 1h1a1 1 0 0 0 1-1v-1.793c.62-.58 1-1.42 1-2.325V13a1 1 0 1 0 2 0v-2a1 1 0 1 0-2 0V7.294c0-1.295-.248-2.391-.758-3.293-.515-.91-1.258-1.554-2.13-1.999C16.425 1.142 14.201 1 12 1s-4.426.142-6.111 1.002c-.873.445-1.616 1.089-2.13 1.999C3.248 4.903 3 5.999 3 7.294zM18 19c.5 0 1-.446 1-1.118V14a1 1 0 0 0-1-1H6a1 1 0 0 0-1 1V17.882C5 18.554 5.5 19 6 19h12zm0-12a1 1 0 0 1 1 1v3.17c-.313-.11-.65-.17-1-.17H6c-.35 0-.687.06-1 .17V8a1 1 0 0 1 1-1h12zm.5-2.014c.012.02.024.04.035.062A3.018 3.018 0 0 0 18 5H6c-.183 0-.361.016-.535.048l.034-.062c.295-.522.724-.91 1.299-1.203C8.008 3.166 9.783 3 12 3s3.992.166 5.202.783c.575.294 1.004.681 1.299 1.203zM6 15.5a1.5 1.5 0 1 1 3 0 1.5 1.5 0 0 1-3 0zM16.5 14a1.5 1.5 0 1 0 0 3 1.5 1.5 0 0 0 0-3z" fill="#000"/></svg>