<svg width="24" height="24" fill="none" xmlns="http://www.w3.org/2000/svg"><path fill-rule="evenodd" clip-rule="evenodd" d="M13 2a1 1 0 1 0-2 0v2.083A6.002 6.002 0 0 0 6 10v.268A2 2 0 0 0 5 12H4a3 3 0 0 0-3 3v4a2 2 0 0 0 2 2h3a1 1 0 0 0 1 1h10a1 1 0 0 0 1-1h3a2 2 0 0 0 2-2v-4a3 3 0 0 0-3-3h-1a2 2 0 0 0-1-1.732V10a6.002 6.002 0 0 0-5-5.917V2zm-1 4a4 4 0 0 0-4 4h8a4 4 0 0 0-4-4zm-5 7v-1h10v1H7zm-1 2a1 1 0 0 1-1-1H4a1 1 0 0 0-1 1v4h3v-4zm10 0v5h-1v-2.75c0-.69-.448-1.25-1-1.25s-1 .56-1 1.25V20h-2v-2.75c0-.69-.448-1.25-1-1.25s-1 .56-1 1.25V20H8v-5h8zm2 0v4h3v-4a1 1 0 0 0-1-1h-1a1 1 0 0 1-1 1z" fill="#000"/></svg>