<svg width="24" height="24" fill="none" xmlns="http://www.w3.org/2000/svg"><path fill-rule="evenodd" clip-rule="evenodd" d="M10.586 3.828a2 2 0 0 1 2.828 0l6.758 6.758a2 2 0 0 1 0 2.828l-6.758 6.758a2 2 0 0 1-2.828 0l-6.758-6.758a2 2 0 0 1 0-2.828l6.758-6.758zm4.242-1.414a4 4 0 0 0-5.656 0L2.414 9.172a4 4 0 0 0 0 5.656l6.758 6.758a4 4 0 0 0 5.656 0l6.758-6.758a4 4 0 0 0 0-5.656l-6.758-6.758zm-.12 4.879a1 1 0 1 0-1.415 1.414L14.586 10H12.9A4.9 4.9 0 0 0 8 14.9v.1a1 1 0 1 0 2 0v-.1a2.9 2.9 0 0 1 2.9-2.9h1.686l-1.293 1.293a1 1 0 0 0 1.414 1.414l3-3a1 1 0 0 0 0-1.414l-3-3z" fill="#000"/></svg>