<svg width="24" height="24" fill="none" xmlns="http://www.w3.org/2000/svg"><path fill-rule="evenodd" clip-rule="evenodd" d="M5 2a3 3 0 00-3 3v15a1 1 0 100 2h13a1 1 0 100-2v-8a1 1 0 011 1v4.5a2.5 2.5 0 005 0V14h.5a2.5 2.5 0 000-5H21V8a1 1 0 00-.22-.625l-2-2.5a1 1 0 00-1.56 1.25L19 8.35V17.5a.5.5 0 01-1 0V13a3 3 0 00-3-3V5a3 3 0 00-3-3H5zm8 10.653V20H4v-7.347c1.392.573 2.96.847 4.5.847s3.108-.274 4.5-.847zM8.5 11.5c-1.648 0-3.251-.37-4.5-1.061V5a1 1 0 011-1h7a1 1 0 011 1v5.439c-1.249.692-2.852 1.061-4.5 1.061zm13 .5H21v-1h.5a.5.5 0 010 1z" fill="#000"/></svg>