<svg width="24" height="24" fill="none" xmlns="http://www.w3.org/2000/svg"><path fill-rule="evenodd" clip-rule="evenodd" d="M2.617 2.076a1 1 0 0 1 1.088.215l.01.01.052.048a7.556 7.556 0 0 0 1.07.8c.731.45 1.671.85 2.663.85.992 0 1.932-.4 2.663-.85a7.558 7.558 0 0 0 1.07-.8l.051-.048.01-.01v.001a1 1 0 0 1 1.411-.001l.01.01.052.048a7.558 7.558 0 0 0 1.07.8c.731.45 1.671.85 2.663.85.992 0 1.932-.4 2.663-.85a7.558 7.558 0 0 0 1.07-.8l.051-.048.01-.009A1 1 0 0 1 22 3v10c0 1.781-.337 3.169-.978 4.278-.642 1.113-1.54 1.859-2.508 2.438-.756.453-1.606.83-2.421 1.192-.198.088-.395.175-.587.262-1.015.46-1.996.948-2.906 1.63a1 1 0 0 1-1.2 0c-.91-.682-1.89-1.17-2.906-1.63l-.587-.262c-.815-.362-1.665-.74-2.42-1.192-.969-.579-1.867-1.325-2.51-2.438C2.338 16.168 2 14.782 2 13V3a1 1 0 0 1 .617-.924zM4 13c0 1.53.288 2.548.71 3.278.42.727 1.022 1.254 1.803 1.722.642.384 1.349.698 2.15 1.055l.656.293c.856.388 1.777.833 2.681 1.43.904-.597 1.825-1.042 2.681-1.43l.655-.293c.802-.357 1.51-.671 2.15-1.055.782-.468 1.384-.995 1.804-1.722.422-.73.71-1.748.71-3.278H4zm16-2H4V4.978C4.883 5.489 6.107 6 7.5 6c1.508 0 2.818-.599 3.712-1.148A9.59 9.59 0 0 0 12 4.31c.218.167.484.354.788.542C13.682 5.402 14.992 6 16.5 6c1.393 0 2.617-.51 3.5-1.022V11z" fill="#000"/></svg>