<svg width="24" height="24" fill="none" xmlns="http://www.w3.org/2000/svg"><path fill-rule="evenodd" clip-rule="evenodd" d="M13 3a1 1 0 10-2 0v.558A8.504 8.504 0 003.558 11H3a1 1 0 100 2h.558A8.504 8.504 0 0011 20.442V21a1 1 0 102 0v-.558A8.504 8.504 0 0020.442 13H21a1 1 0 100-2h-.558A8.504 8.504 0 0013 3.558V3zm-2 2.576V7a1 1 0 102 0V5.576A6.505 6.505 0 0118.424 11H17a1 1 0 100 2h1.424A6.505 6.505 0 0113 18.424V17a1 1 0 10-2 0v1.424A6.505 6.505 0 015.576 13H7a1 1 0 100-2H5.576A6.505 6.505 0 0111 5.576z" fill="#000"/></svg>