<svg width="24" height="24" fill="none" xmlns="http://www.w3.org/2000/svg"><path fill-rule="evenodd" clip-rule="evenodd" d="M5 4a1 1 0 0 0-1 1v14a1 1 0 0 0 1 1h8a1 1 0 0 0 1-1V5a1 1 0 0 0-1-1H5zm0 18h14a3 3 0 0 0 3-3V9a3 3 0 0 0-3-3h-3V5a3 3 0 0 0-3-3H5a3 3 0 0 0-3 3v14a3 3 0 0 0 3 3zm14-2h-3.17c.11-.313.17-.65.17-1V8h3a1 1 0 0 1 1 1v10a1 1 0 0 1-1 1zM7 14H5v2h2v-2zm1 0h2v2H8v-2zm5 0h-2v2h2v-2zm4 0h2v2h-2v-2zm2-4h-2v2h2v-2zM5 10h2v2H5v-2zm5 0H8v2h2v-2zm1 0h2v2h-2v-2zM7 6H5v2h2V6zm1 0h2v2H8V6zm5 0h-2v2h2V6z" fill="#000"/></svg>