<svg width="24" height="24" fill="none" xmlns="http://www.w3.org/2000/svg"><path fill-rule="evenodd" clip-rule="evenodd" d="M5 9.5C5 6.094 8.01 3 12 3s7 3.094 7 6.5c0 2.145-1.312 4.54-3.04 6.761-1.364 1.755-2.883 3.272-3.96 4.333-1.077-1.061-2.596-2.578-3.96-4.333C6.311 14.041 5 11.645 5 9.5zM12 1C6.99 1 3 4.906 3 9.5c0 2.855 1.688 5.71 3.46 7.989 1.535 1.973 3.26 3.668 4.337 4.728.186.183.353.347.496.49a1 1 0 001.414 0c.143-.143.31-.307.496-.49 1.078-1.06 2.802-2.755 4.336-4.728C19.312 15.209 21 12.355 21 9.5 21 4.906 17.01 1 12 1zm0 11.5a2.5 2.5 0 100-5 2.5 2.5 0 000 5z" fill="#000"/></svg>