<svg width="24" height="24" fill="none" xmlns="http://www.w3.org/2000/svg"><path fill-rule="evenodd" clip-rule="evenodd" d="M10 1a2 2 0 0 0-2 2v3H6a2 2 0 0 0-2 2v5c0 .034.002.067.005.1-.28-.02-.57-.05-.867-.09a1 1 0 0 0-1.075 1.338L4.533 21H4.5C3.452 21 3 20.356 3 20a1 1 0 1 0-2 0c0 1.854 1.787 3 3.5 3 .904 0 1.828-.32 2.5-.893.672.574 1.596.893 2.5.893.904 0 1.828-.32 2.5-.893.672.574 1.596.893 2.5.893.904 0 1.828-.32 2.5-.893.672.574 1.596.893 2.5.893 1.713 0 3.5-1.146 3.5-3a1 1 0 1 0-2 0c0 .356-.452 1-1.5 1h-.033l2.47-6.652a1 1 0 0 0-1.075-1.339c-.298.042-.586.072-.867.09A.988.988 0 0 0 20 13V8a2 2 0 0 0-2-2h-2V3a2 2 0 0 0-2-2h-4zm4 5V3h-4v3h4zM9 8H6v5.008c.504-.089.983-.23 1.445-.428 1.259-.538 2.482-1.53 3.763-3.19a1 1 0 0 1 1.584 0c1.28 1.66 2.504 2.652 3.763 3.19.462.198.94.34 1.445.428V8H9zm8.88 11.526l1.637-4.406c-1.313.019-2.555-.19-3.747-.7-1.359-.581-2.592-1.525-3.77-2.85-1.178 1.325-2.411 2.269-3.77 2.85-1.192.51-2.434.719-3.747.7l1.636 4.406A1 1 0 0 1 8 20c0 .356.452 1 1.5 1s1.5-.644 1.5-1a1 1 0 1 1 2 0c0 .356.452 1 1.5 1s1.5-.644 1.5-1a1 1 0 0 1 1.88-.474z" fill="#000"/></svg>