<svg width="24" height="24" fill="none" xmlns="http://www.w3.org/2000/svg"><path fill-rule="evenodd" clip-rule="evenodd" d="M5 3a2 2 0 0 0-2 2v1.838l-1.51 4.53A2.001 2.001 0 0 0 3 13.963V20a2 2 0 0 0 2 2h14a2 2 0 0 0 2-2v-6.037a2.001 2.001 0 0 0 1.51-2.595L21 6.837V5a2 2 0 0 0-2-2H5zm10 17h4v-6H5v6h4v-3a3 3 0 1 1 6 0v3zm-4 0h2v-3a1 1 0 1 0-2 0v3zm-7.613-8l1.334-4H6.32l-.667 4H3.387zm4.293 0l.667-4H11v4H7.68zM13 12V8h2.653l.667 4H13zm5.347 0l-.667-4h1.6l1.333 4h-2.266zM19 5v1H5V5h14z" fill="#000"/></svg>