<svg width="24" height="24" fill="none" xmlns="http://www.w3.org/2000/svg"><path fill-rule="evenodd" clip-rule="evenodd" d="M8 3a2 2 0 0 0-2 2v2.354A3.99 3.99 0 0 1 9 6h6a3.99 3.99 0 0 1 3 1.354V5a2 2 0 0 0-2-2H8zm10 10H6a1 1 0 0 0-1 1v3a1 1 0 0 0 1 1h12a1 1 0 0 0 1-1v-3a1 1 0 0 0-1-1zm-1-2v-1a2 2 0 0 0-2-2H9a2 2 0 0 0-2 2v1h10zM4 5v6.764l-.023.02A1 1 0 0 0 3 11H2a1 1 0 1 0 0 2h1c.06 0 .119-.005.176-.015C3.062 13.302 3 13.644 3 14v3c0 .889.386 1.687 1 2.236V22a1 1 0 0 0 1 1h1a1 1 0 0 0 1-1v-2h10v2a1 1 0 0 0 1 1h1a1 1 0 0 0 1-1v-2.764c.614-.55 1-1.348 1-2.236v-3c0-.356-.062-.698-.176-1.015.057.01.116.015.176.015h1a1 1 0 1 0 0-2h-1a1 1 0 0 0-.977.785 1.516 1.516 0 0 0-.023-.021V5a4 4 0 0 0-4-4H8a4 4 0 0 0-4 4zm2 10.5a1.5 1.5 0 1 1 3 0 1.5 1.5 0 0 1-3 0zM16.5 14a1.5 1.5 0 1 0 0 3 1.5 1.5 0 0 0 0-3z" fill="#000"/></svg>