<svg width="24" height="24" fill="none" xmlns="http://www.w3.org/2000/svg"><path fill-rule="evenodd" clip-rule="evenodd" d="M9.293 1.293A1 1 0 0 1 10 1h8a3 3 0 0 1 3 3v5a1 1 0 1 1-2 0V4a1 1 0 0 0-1-1h-7v5a1 1 0 0 1-1 1H5v11a1 1 0 0 0 1 1h1a1 1 0 1 1 0 2H6a3 3 0 0 1-3-3V8a1 1 0 0 1 .293-.707l6-6zM6.414 7H9V4.414L6.414 7zM19 12a1 1 0 0 1 1 1v6h3a1 1 0 1 1 0 2h-4a1 1 0 0 1-1-1v-7a1 1 0 0 1 1-1zm-7.186.419a1 1 0 1 0-1.628 1.162l2.085 2.919-2.085 2.919a1 1 0 1 0 1.628 1.162l1.686-2.36 1.686 2.36a1 1 0 1 0 1.628-1.162L14.729 16.5l2.085-2.919a1 1 0 1 0-1.628-1.162l-1.686 2.36-1.686-2.36z" fill="#000"/></svg>