<svg width="24" height="24" viewBox="0 0 24 24" fill="none" xmlns="http://www.w3.org/2000/svg">
<path fill-rule="evenodd" clip-rule="evenodd" d="M10 1C9.73478 1 9.48043 1.10536 9.29289 1.29289L3.29289 7.29289C3.10536 7.48043 3 7.73478 3 8V20C3 21.6569 4.34315 23 6 23H11C11.5523 23 12 22.5523 12 22C12 21.4477 11.5523 21 11 21H6C5.44772 21 5 20.5523 5 20V9H10C10.5523 9 11 8.55228 11 8V3H18C18.5523 3 19 3.44772 19 4V8C19 8.55228 19.4477 9 20 9C20.5523 9 21 8.55228 21 8V4C21 2.34315 19.6569 1 18 1H10ZM9 7H6.41421L9 4.41421V7ZM21.974 14.3056C21.7186 13.2078 21.1589 12.3373 20.3246 11.7621C19.5046 11.1967 18.5098 10.9784 17.4774 11.0017C15.9934 11.0352 14.8222 11.672 14.0531 12.7362C13.3114 13.7623 13 15.1028 13 16.5006C13 17.9073 13.3294 19.2531 14.0764 20.2786C14.8484 21.3386 16.0188 21.9838 17.4892 21.9997C18.5315 22.0109 19.5413 21.763 20.361 21.1971C21.1964 20.6205 21.7757 19.7518 21.9827 18.6543C22.085 18.1116 21.728 17.5886 21.1853 17.4863C20.6426 17.3839 20.1197 17.7409 20.0173 18.2836C19.9061 18.8733 19.6184 19.2795 19.2248 19.5512C18.8156 19.8337 18.2345 20.0076 17.5108 19.9998C16.6737 19.9908 16.0941 19.6518 15.693 19.1011C15.2669 18.516 15 17.6247 15 16.5006C15 15.3675 15.2566 14.4852 15.674 13.9078C16.0639 13.3683 16.6427 13.021 17.5226 13.0012C18.2557 12.9846 18.8041 13.1431 19.1894 13.4087C19.5604 13.6645 19.8679 14.0793 20.026 14.7588C20.1512 15.2967 20.6887 15.6313 21.2266 15.5062C21.7645 15.381 22.0991 14.8435 21.974 14.3056Z" fill="black"/>
</svg>
