<svg width="24" height="24" viewBox="0 0 24 24" fill="none" xmlns="http://www.w3.org/2000/svg">
<path fill-rule="evenodd" clip-rule="evenodd" d="M1 5C1 3.34315 2.34315 2 4 2H8.43845C9.81505 2 11.015 2.93689 11.3489 4.27239L11.7808 6H13.5H20.25C21.7688 6 23 7.23122 23 8.75V9C23 9.55228 22.5523 10 22 10C21.4477 10 21 9.55228 21 9V8.75C21 8.33579 20.6642 8 20.25 8H13.5H11.7808H4C3.44772 8 3 8.44772 3 9V10V19C3 19.5523 3.44772 20 4 20H8C8.55228 20 9 20.4477 9 21C9 21.5523 8.55228 22 8 22H4C2.34315 22 1 20.6569 1 19V10V9V5ZM3 6.17071C3.31278 6.06015 3.64936 6 4 6H9.71922L9.40859 4.75746C9.2973 4.3123 8.89732 4 8.43845 4H4C3.44772 4 3 4.44772 3 5V6.17071ZM17 12C14.2386 12 12 14.2386 12 17C12 19.7614 14.2386 22 17 22C19.7614 22 22 19.7614 22 17C22 14.2386 19.7614 12 17 12ZM10 17C10 13.134 13.134 10 17 10C20.866 10 24 13.134 24 17C24 20.866 20.866 24 17 24C13.134 24 10 20.866 10 17ZM20.3 15.6C20.6314 15.1582 20.5418 14.5314 20.1 14.2C19.6582 13.8686 19.0314 13.9582 18.7 14.4L16.3521 17.5306L15.1644 16.4748C14.7516 16.1079 14.1195 16.1451 13.7526 16.5579C13.3857 16.9706 13.4229 17.6027 13.8356 17.9696L15.8356 19.7474C16.0447 19.9332 16.3219 20.023 16.6002 19.995C16.8784 19.967 17.1322 19.8237 17.3 19.6L20.3 15.6Z" fill="black"/>
</svg>
