<svg width="24" height="24" viewBox="0 0 24 24" fill="none" xmlns="http://www.w3.org/2000/svg">
<path fill-rule="evenodd" clip-rule="evenodd" d="M9.29289 1.29289C9.48043 1.10536 9.73478 1 10 1H18C19.6569 1 21 2.34315 21 4V7C21 7.55228 20.5523 8 20 8C19.4477 8 19 7.55228 19 7V4C19 3.44772 18.5523 3 18 3H11V8C11 8.55228 10.5523 9 10 9H5V20C5 20.5523 5.44772 21 6 21H8C8.55228 21 9 21.4477 9 22C9 22.5523 8.55228 23 8 23H6C4.34315 23 3 21.6569 3 20V8C3 7.73478 3.10536 7.48043 3.29289 7.29289L9.29289 1.29289ZM6.41421 7H9V4.41421L6.41421 7ZM17 12C14.2386 12 12 14.2386 12 17C12 19.7614 14.2386 22 17 22C19.7614 22 22 19.7614 22 17C22 14.2386 19.7614 12 17 12ZM10 17C10 13.134 13.134 10 17 10C20.866 10 24 13.134 24 17C24 20.866 20.866 24 17 24C13.134 24 10 20.866 10 17ZM20.3 15.6C20.6314 15.1582 20.5418 14.5314 20.1 14.2C19.6582 13.8686 19.0314 13.9582 18.7 14.4L16.3521 17.5306L15.1644 16.4748C14.7516 16.1079 14.1195 16.1451 13.7526 16.5579C13.3857 16.9706 13.4229 17.6027 13.8356 17.9696L15.8356 19.7474C16.0447 19.9332 16.3219 20.023 16.6002 19.995C16.8784 19.967 17.1322 19.8237 17.3 19.6L20.3 15.6Z" fill="black"/>
</svg>
