<svg width="24" height="24" viewBox="0 0 24 24" fill="none" xmlns="http://www.w3.org/2000/svg">
<path fill-rule="evenodd" clip-rule="evenodd" d="M3 7C3 5.34315 4.34315 4 6 4H18C19.6569 4 21 5.34315 21 7V17C21 18.6569 19.6569 20 18 20H6C4.34315 20 3 18.6569 3 17V7ZM6 6C5.44772 6 5 6.44772 5 7V8H19V7C19 6.44772 18.5523 6 18 6H6ZM5 17V10H19V17C19 17.5523 18.5523 18 18 18H6C5.44772 18 5 17.5523 5 17ZM7.70711 11.2929C7.31658 10.9024 6.68342 10.9024 6.29289 11.2929C5.90237 11.6834 5.90237 12.3166 6.29289 12.7071L7.58579 14L6.29289 15.2929C5.90237 15.6834 5.90237 16.3166 6.29289 16.7071C6.68342 17.0976 7.31658 17.0976 7.70711 16.7071L9.70711 14.7071C10.0976 14.3166 10.0976 13.6834 9.70711 13.2929L7.70711 11.2929Z" fill="black"/>
</svg>
