<svg width="24" height="24" viewBox="0 0 24 24" fill="none" xmlns="http://www.w3.org/2000/svg">
<path fill-rule="evenodd" clip-rule="evenodd" d="M6 8C6 6.34315 7.34315 5 9 5H15C16.6569 5 18 6.34315 18 8V16C18 17.6569 16.6569 19 15 19H9C7.34315 19 6 17.6569 6 16V8ZM9 7C8.44772 7 8 7.44772 8 8V16C8 16.5523 8.44772 17 9 17H15C15.5523 17 16 16.5523 16 16V8C16 7.44772 15.5523 7 15 7H9ZM21 7C21.5523 7 22 7.44772 22 8V16C22 16.5523 21.5523 17 21 17C20.4477 17 20 16.5523 20 16V8C20 7.44772 20.4477 7 21 7ZM4 8C4 7.44772 3.55228 7 3 7C2.44772 7 2 7.44772 2 8V16C2 16.5523 2.44772 17 3 17C3.55228 17 4 16.5523 4 16V8Z" fill="black"/>
</svg>
