<svg width="24" height="24" viewBox="0 0 24 24" fill="none" xmlns="http://www.w3.org/2000/svg">
<path fill-rule="evenodd" clip-rule="evenodd" d="M9.29289 1.29289C9.48043 1.10536 9.73478 1 10 1H18C19.6569 1 21 2.34315 21 4V9C21 9.55228 20.5523 10 20 10C19.4477 10 19 9.55228 19 9V4C19 3.44772 18.5523 3 18 3H11V8C11 8.55228 10.5523 9 10 9H5V20C5 20.5523 5.44772 21 6 21H9C9.55228 21 10 21.4477 10 22C10 22.5523 9.55228 23 9 23H6C4.34315 23 3 21.6569 3 20V8C3 7.73478 3.10536 7.48043 3.29289 7.29289L9.29289 1.29289ZM6.41421 7H9V4.41421L6.41421 7ZM14.9806 12.8039C15.0889 13.3454 14.7377 13.8723 14.1961 13.9806L13.7017 14.0795C13.4419 14.1314 13.2783 14.39 13.3425 14.647C13.5229 15.3687 13.2224 16.1249 12.5959 16.5259L11.8551 17L12.5959 17.4741C13.2224 17.8751 13.5229 18.6313 13.3425 19.353C13.2783 19.61 13.4419 19.8686 13.7017 19.9205L14.1961 20.0194C14.7377 20.1277 15.0889 20.6546 14.9806 21.1961C14.8723 21.7377 14.3454 22.0889 13.8039 21.9806L13.3095 21.8817C11.9944 21.6187 11.1433 20.3586 11.3623 19.0591L9.46095 17.8423C9.17375 17.6585 9 17.341 9 17C9 16.659 9.17375 16.3415 9.46095 16.1577L11.3623 14.9409C11.1433 13.6414 11.9944 12.3813 13.3095 12.1183L13.8039 12.0194C14.3454 11.9111 14.8723 12.2623 14.9806 12.8039ZM17.8039 20.0194C17.2623 20.1277 16.9111 20.6546 17.0194 21.1961C17.1277 21.7377 17.6546 22.0889 18.1961 21.9806L18.6905 21.8817C20.0056 21.6187 20.8567 20.3586 20.6377 19.0591L22.5391 17.8423C22.8263 17.6585 23 17.341 23 17C23 16.659 22.8263 16.3415 22.5391 16.1577L20.6377 14.9409C20.8567 13.6414 20.0056 12.3813 18.6905 12.1183L18.1961 12.0194C17.6546 11.9111 17.1277 12.2623 17.0194 12.8039C16.9111 13.3454 17.2623 13.8723 17.8039 13.9806L18.2983 14.0795C18.5581 14.1314 18.7217 14.39 18.6575 14.647C18.4771 15.3687 18.7776 16.1249 19.4041 16.5259L20.1449 17L19.4041 17.4741C18.7776 17.8751 18.4771 18.6313 18.6575 19.353C18.7217 19.61 18.5581 19.8686 18.2983 19.9205L17.8039 20.0194Z" fill="black"/>
</svg>
