<svg width="24" height="24" viewBox="0 0 24 24" fill="none" xmlns="http://www.w3.org/2000/svg">
<path fill-rule="evenodd" clip-rule="evenodd" d="M2 7C2 4.79086 3.79086 3 6 3H9H15H18C20.2091 3 22 4.79086 22 7V10V15V18C22 20.2091 20.2091 22 18 22H15H9H6C3.79086 22 2 20.2091 2 18V15V10V7ZM6 5C4.89543 5 4 5.89543 4 7V7.58579L6.58579 5H6ZM9.41421 5L4 10.4142V14.5858L9.41421 20H14.5858L20 14.5858V10.4142L14.5858 5H9.41421ZM17.4142 5L20 7.58579V7C20 5.89543 19.1046 5 18 5H17.4142ZM20 17.4142L17.4142 20H18C19.1046 20 20 19.1046 20 18V17.4142ZM6.58579 20L4 17.4142V18C4 19.1046 4.89543 20 6 20H6.58579Z" fill="black"/>
</svg>
