<svg width="24" height="24" viewBox="0 0 24 24" fill="none" xmlns="http://www.w3.org/2000/svg">
<path fill-rule="evenodd" clip-rule="evenodd" d="M9.29289 1.29289C9.48043 1.10536 9.73478 1 10 1H18C19.6569 1 21 2.34315 21 4V7C21 7.55228 20.5523 8 20 8C19.4477 8 19 7.55228 19 7V4C19 3.44772 18.5523 3 18 3H11V8C11 8.55228 10.5523 9 10 9H5V20C5 20.5523 5.44772 21 6 21H9C9.55228 21 10 21.4477 10 22C10 22.5523 9.55228 23 9 23H6C4.34315 23 3 21.6569 3 20V8C3 7.73478 3.10536 7.48043 3.29289 7.29289L9.29289 1.29289ZM6.41421 7H9V4.41421L6.41421 7ZM12.5 21C12.5 20.4477 12.9477 20 13.5 20H20.5C21.0523 20 21.5 20.4477 21.5 21C21.5 21.5523 21.0523 22 20.5 22H13.5C12.9477 22 12.5 21.5523 12.5 21ZM18 10.5C18 9.94771 17.5523 9.5 17 9.5C16.4477 9.5 16 9.94771 16 10.5V13H13.5C12.9477 13 12.5 13.4477 12.5 14C12.5 14.5523 12.9477 15 13.5 15H16V17.5C16 18.0523 16.4477 18.5 17 18.5C17.5523 18.5 18 18.0523 18 17.5V15H20.5C21.0523 15 21.5 14.5523 21.5 14C21.5 13.4477 21.0523 13 20.5 13H18V10.5Z" fill="black"/>
</svg>
