<svg width="24" height="24" viewBox="0 0 24 24" fill="none" xmlns="http://www.w3.org/2000/svg">
<path fill-rule="evenodd" clip-rule="evenodd" d="M7 2C5.34315 2 4 3.34315 4 5V17V19C4 20.6569 5.34315 22 7 22H17C18.6569 22 20 20.6569 20 19V17V5C20 3.34315 18.6569 2 17 2H7ZM6 19V17C6 16.4477 6.44772 16 7 16H17C17.5523 16 18 16.4477 18 17V19C18 19.5523 17.5523 20 17 20H7C6.44772 20 6 19.5523 6 19ZM17 14C17.3506 14 17.6872 14.0602 18 14.1707V5C18 4.44772 17.5523 4 17 4H7C6.44772 4 6 4.44772 6 5V14.1707C6.31278 14.0602 6.64936 14 7 14H17ZM14.5 19.25C15.1904 19.25 15.75 18.6904 15.75 18C15.75 17.3096 15.1904 16.75 14.5 16.75C13.8096 16.75 13.25 17.3096 13.25 18C13.25 18.6904 13.8096 19.25 14.5 19.25Z" fill="black"/>
</svg>
