<svg width="24" height="24" viewBox="0 0 24 24" fill="none" xmlns="http://www.w3.org/2000/svg">
<path fill-rule="evenodd" clip-rule="evenodd" d="M10.2929 2.29289C10.4804 2.10536 10.7348 2 11 2H17C18.6569 2 20 3.34315 20 5V19C20 20.6569 18.6569 22 17 22H7C5.34315 22 4 20.6569 4 19V9C4 8.73478 4.10536 8.48043 4.29289 8.29289L10.2929 2.29289ZM17 4H12V9C12 9.55228 11.5523 10 11 10H6V19C6 19.5523 6.44772 20 7 20H17C17.5523 20 18 19.5523 18 19V5C18 4.44772 17.5523 4 17 4ZM7.41421 8H10V5.41421L7.41421 8Z" fill="black"/>
</svg>
