<svg width="24" height="24" viewBox="0 0 24 24" fill="none" xmlns="http://www.w3.org/2000/svg">
<path fill-rule="evenodd" clip-rule="evenodd" d="M4 2C2.34315 2 1 3.34315 1 5V9V10V19C1 20.6569 2.34315 22 4 22H20C21.6569 22 23 20.6569 23 19V9C23 7.34315 21.6569 6 20 6H13.5H11.7808L11.3489 4.27239C11.015 2.93689 9.81505 2 8.43845 2H4ZM3 10V9C3 8.44772 3.44772 8 4 8H11.7808H13.5H20C20.5523 8 21 8.44772 21 9V19C21 19.5523 20.5523 20 20 20H4C3.44772 20 3 19.5523 3 19V10ZM4 6H9.71922L9.40859 4.75746C9.2973 4.3123 8.89732 4 8.43845 4H4C3.44772 4 3 4.44772 3 5V6.17071C3.31278 6.06015 3.64936 6 4 6ZM9.70711 10.2929C9.31658 9.90237 8.68342 9.90237 8.29289 10.2929C7.90237 10.6834 7.90237 11.3166 8.29289 11.7071L10.5858 14L8.29289 16.2929C7.90237 16.6834 7.90237 17.3166 8.29289 17.7071C8.68342 18.0976 9.31658 18.0976 9.70711 17.7071L12 15.4142L14.2929 17.7071C14.6834 18.0976 15.3166 18.0976 15.7071 17.7071C16.0976 17.3166 16.0976 16.6834 15.7071 16.2929L13.4142 14L15.7071 11.7071C16.0976 11.3166 16.0976 10.6834 15.7071 10.2929C15.3166 9.90237 14.6834 9.90237 14.2929 10.2929L12 12.5858L9.70711 10.2929Z" fill="black"/>
</svg>
