<svg width="24" height="24" viewBox="0 0 24 24" fill="none" xmlns="http://www.w3.org/2000/svg">
<path fill-rule="evenodd" clip-rule="evenodd" d="M3 6C3 4.34315 4.34315 3 6 3H9.55848C10.8498 3 11.9962 3.82629 12.4045 5.05132L12.7208 6H14.5H19C20.6569 6 22 7.34315 22 9V17C22 18.6569 20.6569 20 19 20H6C4.34315 20 3 18.6569 3 17V10V9V6ZM5 9V10V17C5 17.5523 5.44772 18 6 18H19C19.5523 18 20 17.5523 20 17V9C20 8.44772 19.5523 8 19 8H14.5H12.7208H6C5.44772 8 5 8.44772 5 9ZM10.6126 6H6C5.64936 6 5.31278 6.06015 5 6.17071V6C5 5.44772 5.44772 5 6 5H9.55848C9.98891 5 10.3711 5.27543 10.5072 5.68377L10.6126 6Z" fill="black"/>
</svg>
