<svg width="24" height="24" viewBox="0 0 24 24" fill="none" xmlns="http://www.w3.org/2000/svg">
<path fill-rule="evenodd" clip-rule="evenodd" d="M4 2C2.34315 2 1 3.34315 1 5V9V10V19C1 20.6569 2.34315 22 4 22H20C21.6569 22 23 20.6569 23 19V9C23 7.34315 21.6569 6 20 6H13.5H11.7808L11.3489 4.27239C11.015 2.93689 9.81505 2 8.43845 2H4ZM3 10V9C3 8.44772 3.44772 8 4 8H11.7808H13.5H20C20.5523 8 21 8.44772 21 9V19C21 19.5523 20.5523 20 20 20H4C3.44772 20 3 19.5523 3 19V10ZM4 6H9.71922L9.40859 4.75746C9.2973 4.3123 8.89732 4 8.43845 4H4C3.44772 4 3 4.44772 3 5V6.17071C3.31278 6.06015 3.64936 6 4 6ZM16.7682 11.6402C17.1218 11.2159 17.0645 10.5853 16.6402 10.2318C16.2159 9.87821 15.5853 9.93554 15.2318 10.3598L10.9328 15.5186L8.70711 13.2929C8.31658 12.9024 7.68342 12.9024 7.29289 13.2929C6.90237 13.6834 6.90237 14.3166 7.29289 14.7071L10.2929 17.7071C10.4916 17.9058 10.7646 18.0117 11.0453 17.999C11.326 17.9862 11.5884 17.856 11.7682 17.6402L16.7682 11.6402Z" fill="black"/>
</svg>
