<svg width="24" height="24" viewBox="0 0 24 24" fill="none" xmlns="http://www.w3.org/2000/svg">
<path fill-rule="evenodd" clip-rule="evenodd" d="M10 1C9.73478 1 9.48043 1.10536 9.29289 1.29289L3.29289 7.29289C3.10536 7.48043 3 7.73478 3 8V20C3 21.6569 4.34315 23 6 23H9C9.55228 23 10 22.5523 10 22C10 21.4477 9.55228 21 9 21H6C5.44772 21 5 20.5523 5 20V9H10C10.5523 9 11 8.55228 11 8V3H18C18.5523 3 19 3.44772 19 4V8C19 8.55228 19.4477 9 20 9C20.5523 9 21 8.55228 21 8V4C21 2.34315 19.6569 1 18 1H10ZM9 7H6.41421L9 4.41421V7ZM11.55 14.7238C11.55 13.7808 12.3244 13 13.3 13C14.2755 13 15.05 13.7808 15.05 14.7238C15.05 15.2761 15.4977 15.7238 16.05 15.7238C16.6023 15.7238 17.05 15.2761 17.05 14.7238C17.05 13.7808 17.8244 13 18.8 13C19.7755 13 20.55 13.7808 20.55 14.7238C20.55 15.8434 19.8986 17.0717 18.8366 18.3112C17.9904 19.2989 16.9675 20.1976 16.05 20.9387C15.1324 20.1976 14.1095 19.2989 13.2634 18.3112C12.2014 17.0717 11.55 15.8434 11.55 14.7238ZM13.3 11C14.3835 11 15.3637 11.4578 16.05 12.192C16.7363 11.4578 17.7165 11 18.8 11C20.862 11 22.55 12.6582 22.55 14.7238C22.55 16.5709 21.5128 18.2616 20.3555 19.6125C19.1774 20.9875 17.7362 22.1689 16.6643 23.0034C16.303 23.2846 15.797 23.2846 15.4357 23.0034C14.3638 22.1689 12.9226 20.9875 11.7445 19.6125C10.5872 18.2616 9.54999 16.5709 9.54999 14.7238C9.54999 12.6582 11.238 11 13.3 11Z" fill="black"/>
</svg>
