<svg width="24" height="24" viewBox="0 0 24 24" fill="none" xmlns="http://www.w3.org/2000/svg">
<path fill-rule="evenodd" clip-rule="evenodd" d="M11.3123 2.77405C11.698 2.40865 12.3021 2.40865 12.6877 2.77405L19.6861 9.40409C19.6871 9.40504 19.6881 9.40598 19.6891 9.40693L22.1877 11.774C22.5887 12.1539 22.6058 12.7868 22.226 13.1877C21.8461 13.5887 21.2132 13.6058 20.8123 13.226L20 12.4564V19C20 20.1046 19.1046 21 18 21H13H11H6C4.89543 21 4 20.1046 4 19V12.4564L3.18775 13.226C2.78681 13.6058 2.15388 13.5887 1.77405 13.1877C1.39422 12.7868 1.41133 12.1539 1.81226 11.774L4.31094 9.40688C4.3119 9.40596 4.31286 9.40505 4.31383 9.40414L11.3123 2.77405ZM6 10.5617V19H10V15C10 13.8954 10.8954 13 12 13C13.1046 13 14 13.8954 14 15V19H18V10.5617L12 4.8775L6 10.5617Z" fill="black"/>
</svg>
