<svg width="24" height="24" viewBox="0 0 24 24" fill="none" xmlns="http://www.w3.org/2000/svg">
<path fill-rule="evenodd" clip-rule="evenodd" d="M10 1C9.73478 1 9.48043 1.10536 9.29289 1.29289L3.29289 7.29289C3.10536 7.48043 3 7.73478 3 8V20C3 21.6569 4.34315 23 6 23H7C7.55228 23 8 22.5523 8 22C8 21.4477 7.55228 21 7 21H6C5.44772 21 5 20.5523 5 20V9H10C10.5523 9 11 8.55228 11 8V3H18C18.5523 3 19 3.44772 19 4V9C19 9.55228 19.4477 10 20 10C20.5523 10 21 9.55228 21 9V4C21 2.34315 19.6569 1 18 1H10ZM9 7H6.41421L9 4.41421V7ZM19 14H10C9.44772 14 9 14.4477 9 15V17.5C9 20.5376 11.4624 23 14.5 23C17.0176 23 19.14 21.3085 19.793 19H20.5C21.8807 19 23 17.8807 23 16.5C23 15.1193 21.8807 14 20.5 14H19ZM20.5 17H20V16H20.5C20.7761 16 21 16.2239 21 16.5C21 16.7761 20.7761 17 20.5 17ZM11 16H18V17.5C18 19.433 16.433 21 14.5 21C12.567 21 11 19.433 11 17.5V16ZM13.4472 9.10557C13.9412 9.35255 14.1414 9.95322 13.8944 10.4472C13.7852 10.6657 13.7852 10.8343 13.8944 11.0528C14.1414 11.5468 13.9412 12.1474 13.4472 12.3944C12.9532 12.6414 12.3525 12.4412 12.1056 11.9472C11.7148 11.1657 11.7148 10.3343 12.1056 9.5528C12.3525 9.05882 12.9532 8.85858 13.4472 9.10557ZM16.8321 8.4453C16.5257 7.98577 15.9048 7.8616 15.4453 8.16795C14.9858 8.4743 14.8616 9.09517 15.1679 9.5547C15.4142 9.92407 15.5 10.2343 15.5 10.5C15.5 10.7657 15.4142 11.0759 15.1679 11.4453C14.8616 11.9048 14.9858 12.5257 15.4453 12.8321C15.9048 13.1384 16.5257 13.0142 16.8321 12.5547C17.2525 11.9241 17.5 11.2343 17.5 10.5C17.5 9.76569 17.2525 9.07593 16.8321 8.4453Z" fill="black"/>
</svg>
