<svg width="24" height="24" viewBox="0 0 24 24" fill="none" xmlns="http://www.w3.org/2000/svg">
<path fill-rule="evenodd" clip-rule="evenodd" d="M6 4C4.89543 4 4 4.89543 4 6V9C4 10.1046 4.89543 11 6 11H9C10.1046 11 11 10.1046 11 9V6C11 4.89543 10.1046 4 9 4H6ZM6 6H9V9H6V6ZM14 6C13.4477 6 13 6.44772 13 7C13 7.55228 13.4477 8 14 8H19C19.5523 8 20 7.55228 20 7C20 6.44772 19.5523 6 19 6H14ZM14 15C13.4477 15 13 15.4477 13 16C13 16.5523 13.4477 17 14 17H19C19.5523 17 20 16.5523 20 16C20 15.4477 19.5523 15 19 15H14ZM4 15C4 13.8954 4.89543 13 6 13H9C10.1046 13 11 13.8954 11 15V18C11 19.1046 10.1046 20 9 20H6C4.89543 20 4 19.1046 4 18V15ZM9 15H6V18H9V15Z" fill="black"/>
</svg>
