<svg width="24" height="24" viewBox="0 0 24 24" fill="none" xmlns="http://www.w3.org/2000/svg">
<path fill-rule="evenodd" clip-rule="evenodd" d="M10 1C9.73478 1 9.48043 1.10536 9.29289 1.29289L3.29289 7.29289C3.10536 7.48043 3 7.73478 3 8V20C3 21.6569 4.34315 23 6 23H8C8.55228 23 9 22.5523 9 22C9 21.4477 8.55228 21 8 21H6C5.44772 21 5 20.5523 5 20V9H10C10.5523 9 11 8.55228 11 8V3H18C18.5523 3 19 3.44772 19 4V6C19 6.55228 19.4477 7 20 7C20.5523 7 21 6.55228 21 6V4C21 2.34315 19.6569 1 18 1H10ZM9 7H6.41421L9 4.41421V7ZM17 9C14.7909 9 13 10.7909 13 13V14.304C11.8348 14.7159 11 15.8271 11 17.1333V20C11 21.6569 12.3431 23 14 23H20C21.6569 23 23 21.6569 23 20V17.1333C23 15.8271 22.1652 14.7159 21 14.304V13C21 10.7909 19.2091 9 17 9ZM19 13V14.1333H15V13C15 11.8954 15.8954 11 17 11C18.1046 11 19 11.8954 19 13ZM13 17.1333C13 16.581 13.4477 16.1333 14 16.1333H20C20.5523 16.1333 21 16.581 21 17.1333V20C21 20.5523 20.5523 21 20 21H14C13.4477 21 13 20.5523 13 20V17.1333Z" fill="black"/>
</svg>
