<svg width="24" height="24" viewBox="0 0 24 24" fill="none" xmlns="http://www.w3.org/2000/svg">
<path fill-rule="evenodd" clip-rule="evenodd" d="M10 1C9.73478 1 9.48043 1.10536 9.29289 1.29289L3.29289 7.29289C3.10536 7.48043 3 7.73478 3 8V20C3 21.6569 4.34315 23 6 23H7C7.55228 23 8 22.5523 8 22C8 21.4477 7.55228 21 7 21H6C5.44772 21 5 20.5523 5 20V9H10C10.5523 9 11 8.55228 11 8V3H18C18.5523 3 19 3.44772 19 4V7C19 7.55228 19.4477 8 20 8C20.5523 8 21 7.55228 21 7V4C21 2.34315 19.6569 1 18 1H10ZM9 7H6.41421L9 4.41421V7ZM12.5 24C13.8807 24 15 22.8807 15 21.5V12.8673L20 12.153V18.05C19.8384 18.0172 19.6712 18 19.5 18C18.1193 18 17 19.1193 17 20.5C17 21.8807 18.1193 23 19.5 23C20.8807 23 22 21.8807 22 20.5V11C22 10.7101 21.8742 10.4345 21.6552 10.2445C21.4362 10.0546 21.1456 9.96905 20.8586 10.0101L13.8586 11.0101C13.3659 11.0804 13 11.5023 13 12V19.05C12.8384 19.0172 12.6712 19 12.5 19C11.1193 19 10 20.1193 10 21.5C10 22.8807 11.1193 24 12.5 24Z" fill="black"/>
</svg>
