<svg width="24" height="24" viewBox="0 0 24 24" fill="none" xmlns="http://www.w3.org/2000/svg">
<path fill-rule="evenodd" clip-rule="evenodd" d="M3 6C3 4.34315 4.34315 3 6 3H9.55848C10.8498 3 11.9962 3.82629 12.4045 5.05132L12.7208 6H19C20.1046 6 21 6.89543 21 8V9H21.6126C22.9777 9 23.9416 10.3374 23.5099 11.6325L21.1766 18.6325C20.9044 19.4491 20.1401 20 19.2792 20H5C3.89543 20 3 19.1046 3 18V6ZM19 9V8H12.7208C11.8599 8 11.0956 7.44914 10.8234 6.63246L10.5072 5.68377C10.3711 5.27543 9.98891 5 9.55848 5H6C5.44772 5 5 5.44772 5 6V12.8377L5.82339 10.3675C6.09562 9.55086 6.8599 9 7.72076 9H19ZM5.36625 18C5.39922 17.9427 5.42698 17.8813 5.44868 17.8162L7.72076 11L20 11H21.6126L19.2792 18L5.36625 18Z" fill="black"/>
</svg>
