<svg width="24" height="24" viewBox="0 0 24 24" fill="none" xmlns="http://www.w3.org/2000/svg">
<path fill-rule="evenodd" clip-rule="evenodd" d="M4 5.70781V17.523C4 17.5261 4.00005 17.5261 4.0011 17.5281L4.00126 17.5284C4.00362 17.5327 4.01123 17.5438 4.02823 17.556C4.0663 17.5832 4.10795 17.5874 4.13703 17.5794C5.13179 17.3041 6.55119 17 8 17C9.22678 17 10.2427 17.2175 11 17.464V5.60302C10.8856 5.55183 10.7505 5.49606 10.5958 5.43979C9.9995 5.22297 9.11545 5 8 5C6.4576 5 4.87766 5.42402 4 5.70781ZM11.4486 5.83426L11.4492 5.83467L11.4511 5.83588C11.4516 5.83622 11.4508 5.83566 11.4486 5.83426ZM12 3.86242C11.807 3.76952 11.5657 3.66436 11.2792 3.56021C10.5005 3.27703 9.38455 3 8 3C6.11182 3 4.26269 3.51737 3.32643 3.82376C2.49922 4.09447 2 4.86543 2 5.67703V17.523C2 18.9548 3.41414 19.8545 4.67041 19.5069C5.5803 19.2551 6.80486 19 8 19C9.11545 19 9.9995 19.223 10.5958 19.4398C10.894 19.5482 11.1192 19.6548 11.264 19.7303C11.3363 19.7681 11.3882 19.7979 11.4189 19.8161C11.4342 19.8252 11.4441 19.8314 11.4486 19.8343L11.4492 19.8347L11.4511 19.8359L11.4513 19.836C11.4513 19.836 11.4503 19.8354 11.4486 19.8343L11.4476 19.8336C11.783 20.0558 12.219 20.0555 12.5541 19.8325L12.5535 19.8328L12.5525 19.8335L12.5514 19.8343C12.5497 19.8354 12.5487 19.836 12.5487 19.836L12.5489 19.8359L12.5508 19.8347L12.5514 19.8343C12.5532 19.8331 12.5559 19.8315 12.5594 19.8293C12.5647 19.826 12.572 19.8216 12.5811 19.8161C12.6118 19.7979 12.6637 19.7681 12.736 19.7303C12.8808 19.6548 13.106 19.5482 13.4042 19.4398C14.0005 19.223 14.8845 19 16 19C17.1951 19 18.4197 19.2551 19.3296 19.5069C20.5859 19.8545 22 18.9548 22 17.523V5.67703C22 4.86543 21.5008 4.09447 20.6736 3.82376C19.7373 3.51737 17.8882 3 16 3C14.6155 3 13.4995 3.27703 12.7208 3.56021C12.4343 3.66436 12.193 3.76952 12 3.86242ZM13 17.464C13.7573 17.2175 14.7732 17 16 17C17.4488 17 18.8682 17.3041 19.863 17.5794C19.892 17.5874 19.9337 17.5832 19.9718 17.556C19.9888 17.5438 19.9964 17.5327 19.9987 17.5284C19.9999 17.5262 20 17.5262 20 17.523V5.70781C19.1223 5.42402 17.5424 5 16 5C14.8845 5 14.0005 5.22297 13.4042 5.43979C13.2495 5.49606 13.1144 5.55183 13 5.60302V17.464ZM12.5514 5.83426C12.5492 5.83566 12.5484 5.83622 12.5489 5.83588L12.5508 5.83467L12.5514 5.83426ZM11.4459 19.8325L11.4465 19.8328L11.4474 19.8334L11.4475 19.8335L11.4476 19.8336C11.4475 19.8335 11.4474 19.8335 11.4474 19.8334C11.4469 19.8331 11.4464 19.8328 11.4459 19.8325Z" fill="black"/>
</svg>
