<svg width="24" height="24" viewBox="0 0 24 24" fill="none" xmlns="http://www.w3.org/2000/svg">
<path fill-rule="evenodd" clip-rule="evenodd" d="M4 7.0418V18.2936C4.89134 17.8946 6.11866 17.5001 7.5 17.5001C8.8748 17.5001 10.1008 17.8911 11 18.2936V7.0418C10.8111 6.92974 10.5632 6.794 10.2684 6.65796C9.53474 6.31933 8.55682 6 7.5 6C6.00051 6 4.67339 6.64226 4 7.0418ZM13 7.0418V18.2936C13.8992 17.8911 15.1252 17.5001 16.5 17.5001C17.8813 17.5001 19.1087 17.8946 20 18.2936V7.0418C19.3266 6.64226 17.9995 6 16.5 6C15.4432 6 14.4653 6.31933 13.7316 6.65796C13.4368 6.794 13.1889 6.92974 13 7.0418ZM12 5.30962C11.7632 5.16992 11.4614 5.00583 11.1066 4.84204C10.2153 4.43067 8.94318 4 7.5 4C5.41372 4 3.6721 4.90046 2.89751 5.37097C2.29505 5.73692 2 6.37876 2 7V19.0001C2 19.6327 2.37858 20.1061 2.80631 20.342C3.22918 20.5753 3.80203 20.6374 4.32073 20.3618C5.06248 19.9676 6.22109 19.5001 7.5 19.5001C9.13365 19.5001 10.5604 20.2621 11.1572 20.6379C11.6708 20.9613 12.3292 20.9613 12.8428 20.6379C13.4396 20.2621 14.8664 19.5001 16.5 19.5001C17.7789 19.5001 18.9375 19.9676 19.6793 20.3618C20.198 20.6374 20.7708 20.5753 21.1937 20.342C21.6214 20.1061 22 19.6327 22 19.0001V7C22 6.37876 21.7049 5.73692 21.1025 5.37097C20.3279 4.90046 18.5863 4 16.5 4C15.0568 4 13.7847 4.43067 12.8934 4.84204C12.5386 5.00583 12.2368 5.16992 12 5.30962ZM11.4019 7.30139C11.4025 7.30185 11.4026 7.30197 11.4023 7.30174L11.4019 7.30139Z" fill="black"/>
</svg>
