<svg width="24" height="24" viewBox="0 0 24 24" fill="none" xmlns="http://www.w3.org/2000/svg">
<path fill-rule="evenodd" clip-rule="evenodd" d="M9.29289 1.29289C9.48043 1.10536 9.73478 1 10 1H18C19.6569 1 21 2.34315 21 4V9C21 9.55228 20.5523 10 20 10C19.4477 10 19 9.55228 19 9V4C19 3.44772 18.5523 3 18 3H11V8C11 8.55228 10.5523 9 10 9H5V20C5 20.5523 5.44772 21 6 21H10C10.5523 21 11 21.4477 11 22C11 22.5523 10.5523 23 10 23H6C4.34315 23 3 21.6569 3 20V8C3 7.73478 3.10536 7.48043 3.29289 7.29289L9.29289 1.29289ZM6.41421 7H9V4.41421L6.41421 7ZM11.2929 10.2929C11.63 9.95583 12.1581 9.90353 12.5547 10.1679C12.7377 10.29 13.138 10.4206 13.8692 10.5557C14.2116 10.619 14.5873 10.6773 15.0006 10.7413L15.0159 10.7436C15.42 10.8062 15.8556 10.8736 16.3008 10.9531C18.0592 11.2671 20.2179 11.8037 21.7071 13.2929C22.907 14.4928 23.2701 15.7765 23.1846 16.8892C23.1413 17.4519 22.9841 17.9568 22.7829 18.3687L23 18.5858C23.781 19.3668 23.781 20.6332 23 21.4142L21.4142 23C20.6332 23.781 19.3668 23.781 18.5858 23L18.3687 22.7829C17.9568 22.9841 17.4519 23.1413 16.8892 23.1846C15.7765 23.2701 14.4928 22.907 13.2929 21.7071C11.8037 20.2179 11.2671 18.0592 10.9531 16.3008C10.8736 15.8556 10.8062 15.42 10.7436 15.0159L10.7413 15.0006C10.6773 14.5873 10.619 14.2116 10.5557 13.8692C10.4206 13.138 10.29 12.7377 10.1679 12.5547C9.90353 12.1581 9.95583 11.63 10.2929 11.2929L10.7926 10.7931L10.7929 10.7929L11.2929 10.2929ZM15.0677 16.482L12.6124 14.0266C12.6482 14.2458 12.683 14.47 12.7177 14.6947L12.7186 14.7006L12.7187 14.7007C12.7821 15.1107 12.8465 15.527 12.9219 15.9492C13.2329 17.6908 13.6963 19.2821 14.7071 20.2929C15.5072 21.093 16.2235 21.2299 16.7358 21.1904C17.3109 21.1462 17.7121 20.8737 17.7929 20.7929C18.1834 20.4024 18.8166 20.4024 19.2071 20.7929L20 21.5858L21.5858 20L20.7929 19.2071C20.6054 19.0196 20.5 18.7652 20.5 18.5C20.5 18.2348 20.6054 17.9804 20.7929 17.7929C20.8737 17.7121 21.1462 17.3109 21.1904 16.7358C21.2299 16.2235 21.093 15.5072 20.2929 14.7071C19.2821 13.6963 17.6908 13.2329 15.9492 12.9219C15.527 12.8465 15.1107 12.7821 14.7007 12.7187L14.7006 12.7186L14.6947 12.7177C14.47 12.683 14.2458 12.6482 14.0266 12.6124L16.482 15.0677C16.6472 15.0236 16.8208 15 17 15C18.1046 15 19 15.8954 19 17C19 18.1046 18.1046 19 17 19C15.8954 19 15 18.1046 15 17C15 16.8208 15.0236 16.6472 15.0677 16.482Z" fill="black"/>
</svg>
