<svg width="24" height="24" viewBox="0 0 24 24" fill="none" xmlns="http://www.w3.org/2000/svg">
<path fill-rule="evenodd" clip-rule="evenodd" d="M10 1C9.73478 1 9.48043 1.10536 9.29289 1.29289L3.29289 7.29289C3.10536 7.48043 3 7.73478 3 8V20C3 21.6569 4.34315 23 6 23H7C7.55228 23 8 22.5523 8 22C8 21.4477 7.55228 21 7 21H6C5.44772 21 5 20.5523 5 20V9H10C10.5523 9 11 8.55228 11 8V3H18C18.5523 3 19 3.44772 19 4V7C19 7.55228 19.4477 8 20 8C20.5523 8 21 7.55228 21 7V4C21 2.34315 19.6569 1 18 1H10ZM9 7H6.41421L9 4.41421V7ZM22.1213 10.7071C20.9497 9.53553 19.0503 9.53553 17.8787 10.7071L16.1989 12.3869L11.2929 17.2929C11.1647 17.4211 11.0738 17.5816 11.0299 17.7575L10.0299 21.7575C9.94466 22.0982 10.0445 22.4587 10.2929 22.7071C10.5413 22.9555 10.9018 23.0553 11.2425 22.9701L15.2425 21.9701C15.4184 21.9262 15.5789 21.8353 15.7071 21.7071L20.5556 16.8586L22.2929 15.1213C23.4645 13.9497 23.4645 12.0503 22.2929 10.8787L22.1213 10.7071ZM18.3068 13.1074L19.2929 12.1213C19.6834 11.7308 20.3166 11.7308 20.7071 12.1213L20.8787 12.2929C21.2692 12.6834 21.2692 13.3166 20.8787 13.7071L19.8622 14.7236L18.3068 13.1074ZM16.8923 14.5219L18.4477 16.1381L14.4888 20.097L12.3744 20.6256L12.903 18.5112L16.8923 14.5219Z" fill="black"/>
</svg>
