<svg width="24" height="24" viewBox="0 0 24 24" fill="none" xmlns="http://www.w3.org/2000/svg">
<path fill-rule="evenodd" clip-rule="evenodd" d="M4 2C2.34315 2 1 3.34315 1 5V9V10V19C1 20.6569 2.34315 22 4 22H7C7.55228 22 8 21.5523 8 21C8 20.4477 7.55228 20 7 20H4C3.44772 20 3 19.5523 3 19V10V9C3 8.44772 3.44772 8 4 8H11.7808H13.5H20.25C20.6642 8 21 8.33579 21 8.75V9C21 9.55228 21.4477 10 22 10C22.5523 10 23 9.55228 23 9V8.75C23 7.23122 21.7688 6 20.25 6H13.5H11.7808L11.3489 4.27239C11.015 2.93689 9.81505 2 8.43845 2H4ZM4 6C3.64936 6 3.31278 6.06015 3 6.17071V5C3 4.44772 3.44772 4 4 4H8.43845C8.89732 4 9.2973 4.3123 9.40859 4.75746L9.71922 6H4ZM22.1213 11.7071C20.9497 10.5355 19.0503 10.5355 17.8787 11.7071L16.1989 13.3869L11.2929 18.2929C11.1647 18.4211 11.0738 18.5816 11.0299 18.7575L10.0299 22.7575C9.94466 23.0982 10.0445 23.4587 10.2929 23.7071C10.5413 23.9555 10.9018 24.0553 11.2425 23.9701L15.2425 22.9701C15.4184 22.9262 15.5789 22.8353 15.7071 22.7071L20.5556 17.8586L22.2929 16.1213C23.4645 14.9497 23.4645 13.0503 22.2929 11.8787L22.1213 11.7071ZM19.2929 13.1213C19.6834 12.7308 20.3166 12.7308 20.7071 13.1213L20.8787 13.2929C21.2692 13.6834 21.2692 14.3166 20.8787 14.7071L19.8622 15.7236L18.3068 14.1074L19.2929 13.1213ZM16.8923 15.5219L18.4477 17.1381L14.4888 21.097L12.3744 21.6256L12.903 19.5112L16.8923 15.5219Z" fill="black"/>
</svg>
