<svg width="24" height="24" viewBox="0 0 24 24" fill="none" xmlns="http://www.w3.org/2000/svg">
<path fill-rule="evenodd" clip-rule="evenodd" d="M4 2C2.34315 2 1 3.34315 1 5V9V10V19C1 20.6569 2.34315 22 4 22H12C12.5523 22 13 21.5523 13 21C13 20.4477 12.5523 20 12 20H4C3.44772 20 3 19.5523 3 19V10V9C3 8.44772 3.44772 8 4 8H11.7808H13.5H20.25C20.6642 8 21 8.33579 21 8.75V9C21 9.55228 21.4477 10 22 10C22.5523 10 23 9.55228 23 9V8.75C23 7.23122 21.7688 6 20.25 6H13.5H11.7808L11.3489 4.27239C11.015 2.93689 9.81505 2 8.43845 2H4ZM4 6C3.64936 6 3.31278 6.06015 3 6.17071V5C3 4.44772 3.44772 4 4 4H8.43845C8.89732 4 9.2973 4.3123 9.40859 4.75746L9.71922 6H4ZM20 13C20 12.4477 19.5523 12 19 12C18.4477 12 18 12.4477 18 13V16H15C14.4477 16 14 16.4477 14 17C14 17.5523 14.4477 18 15 18H18V21C18 21.5523 18.4477 22 19 22C19.5523 22 20 21.5523 20 21V18H23C23.5523 18 24 17.5523 24 17C24 16.4477 23.5523 16 23 16H20V13Z" fill="black"/>
</svg>
