<svg width="24" height="24" viewBox="0 0 24 24" fill="none" xmlns="http://www.w3.org/2000/svg">
<path fill-rule="evenodd" clip-rule="evenodd" d="M10 1C9.73478 1 9.48043 1.10536 9.29289 1.29289L3.29289 7.29289C3.10536 7.48043 3 7.73478 3 8V20C3 21.6569 4.34315 23 6 23H11C11.5523 23 12 22.5523 12 22C12 21.4477 11.5523 21 11 21H6C5.44772 21 5 20.5523 5 20V9H10C10.5523 9 11 8.55228 11 8V3H18C18.5523 3 19 3.44772 19 4V9C19 9.55228 19.4477 10 20 10C20.5523 10 21 9.55228 21 9V4C21 2.34315 19.6569 1 18 1H10ZM9 7H6.41421L9 4.41421V7ZM15 12C14.4477 12 14 12.4477 14 13V17V20C14 20.5523 14.4477 21 15 21C15.5523 21 16 20.5523 16 20V18H19C20.6569 18 22 16.6569 22 15C22 13.3431 20.6569 12 19 12H15ZM19 16H16V14H19C19.5523 14 20 14.4477 20 15C20 15.5523 19.5523 16 19 16Z" fill="black"/>
</svg>
