<svg width="24" height="24" viewBox="0 0 24 24" fill="none" xmlns="http://www.w3.org/2000/svg">
<path fill-rule="evenodd" clip-rule="evenodd" d="M5 2C3.34315 2 2 3.34315 2 5V8V19C2 20.6569 3.34315 22 5 22H19C20.6569 22 22 20.6569 22 19V8V5C22 3.34315 20.6569 2 19 2H5ZM20 7V5C20 4.44772 19.5523 4 19 4H5C4.44772 4 4 4.44772 4 5V7H20ZM4 9H20V19C20 19.5523 19.5523 20 19 20H13V19C13 18.4477 12.5523 18 12 18C11.4477 18 11 18.4477 11 19V20H5C4.44772 20 4 19.5523 4 19V9ZM10.5 14C10.5 13.1716 11.1716 12.5 12 12.5C12.8284 12.5 13.5 13.1716 13.5 14C13.5 14.8284 12.8284 15.5 12 15.5C11.1716 15.5 10.5 14.8284 10.5 14ZM12 10.5C10.067 10.5 8.5 12.067 8.5 14C8.5 15.933 10.067 17.5 12 17.5C13.933 17.5 15.5 15.933 15.5 14C15.5 12.067 13.933 10.5 12 10.5Z" fill="black"/>
</svg>
