<svg width="24" height="24" viewBox="0 0 24 24" fill="none" xmlns="http://www.w3.org/2000/svg">
<path fill-rule="evenodd" clip-rule="evenodd" d="M10 1C9.73478 1 9.48043 1.10536 9.29289 1.29289L3.29289 7.29289C3.10536 7.48043 3 7.73478 3 8V20C3 21.6569 4.34315 23 6 23H11C11.5523 23 12 22.5523 12 22C12 21.4477 11.5523 21 11 21H6C5.44772 21 5 20.5523 5 20V9H10C10.5523 9 11 8.55228 11 8V3H18C18.5523 3 19 3.44772 19 4V8C19 8.55228 19.4477 9 20 9C20.5523 9 21 8.55228 21 8V4C21 2.34315 19.6569 1 18 1H10ZM9 7H6.41421L9 4.41421V7ZM13.5091 11C13.1753 11 12.8636 11.1665 12.678 11.4439L10.1689 15.1939C9.90771 15.5842 9.95336 16.1037 10.2786 16.4425L16.2786 22.6925C16.4672 22.889 16.7277 23 17 23C17.2723 23 17.5328 22.889 17.7214 22.6925L23.7214 16.4425C24.0466 16.1037 24.0923 15.5842 23.8311 15.1939L21.322 11.4439C21.1364 11.1665 20.8247 11 20.4909 11H13.5091ZM12.2784 15.6377L14.0432 13H19.9568L21.7216 15.6377L17 20.556L12.2784 15.6377Z" fill="black"/>
</svg>
