<svg width="24" height="24" viewBox="0 0 24 24" fill="none" xmlns="http://www.w3.org/2000/svg">
<path fill-rule="evenodd" clip-rule="evenodd" d="M10 1C9.73478 1 9.48043 1.10536 9.29289 1.29289L3.29289 7.29289C3.10536 7.48043 3 7.73478 3 8V20C3 21.6569 4.34315 23 6 23H10C10.5523 23 11 22.5523 11 22C11 21.4477 10.5523 21 10 21H6C5.44772 21 5 20.5523 5 20V9H10C10.5523 9 11 8.55228 11 8V3H18C18.5523 3 19 3.44772 19 4V7C19 7.55228 19.4477 8 20 8C20.5523 8 21 7.55228 21 7V4C21 2.34315 19.6569 1 18 1H10ZM9 7H6.41421L9 4.41421V7ZM22.6414 11.3001C22.1547 10.4332 21.2153 10.0747 20.3895 9.94286C19.5283 9.80537 18.5459 9.86896 17.6144 10.0604C16.6786 10.2526 15.7311 10.5868 14.938 11.041C14.1712 11.4801 13.4155 12.1086 13.0758 12.9551C12.7052 13.8786 12.7604 14.7313 13.1439 15.4766C13.4958 16.1605 14.0841 16.6722 14.6098 17.0645C14.8779 17.2646 15.1578 17.4534 15.4162 17.6266C14.9789 17.9322 14.5629 18.3102 14.2291 18.7187C13.5949 19.4946 12.9321 20.8243 13.7553 22.0977C14.2493 22.8618 15.0724 23.0477 15.7505 22.978C16.4154 22.9097 17.0761 22.6006 17.6127 22.1838C18.521 21.4784 19.3835 20.1716 19.0089 18.694C19.1314 18.7085 19.2439 18.7309 19.346 18.7602C19.7701 18.882 20.0411 19.124 20.1846 19.5604C20.3571 20.085 20.9223 20.3705 21.4469 20.198C21.9716 20.0255 22.257 19.4603 22.0845 18.9356C21.7217 17.8324 20.9192 17.1312 19.8982 16.8379C19.2045 16.6387 18.4365 16.6324 17.653 16.7609C17.5453 16.6749 17.4383 16.5945 17.3349 16.5191C17.0919 16.342 16.8345 16.1696 16.5946 16.0088L16.5372 15.9703C16.2741 15.7939 16.0308 15.6295 15.8059 15.4616C15.3404 15.1142 15.0585 14.8263 14.9222 14.5614C14.8175 14.3579 14.7663 14.1127 14.9319 13.6999C15.0267 13.4639 15.3266 13.1232 15.9319 12.7765C16.5111 12.4449 17.2522 12.1766 18.0169 12.0194C18.786 11.8614 19.5159 11.8287 20.0742 11.9178C20.6679 12.0126 20.8551 12.2038 20.8974 12.2792C21.0511 12.5528 21.0084 12.692 20.9231 12.8286C20.7915 13.0392 20.4885 13.292 20.0215 13.5025C19.568 13.7068 19.0761 13.8179 18.7048 13.8311C18.5796 13.8355 18.4897 13.8279 18.4319 13.8187C18.1327 13.4795 17.6298 13.3764 17.2129 13.5979C16.7253 13.8571 16.54 14.4626 16.7993 14.9503C17.0389 15.4011 17.4544 15.6143 17.7713 15.7136C18.098 15.8159 18.45 15.8413 18.7755 15.8298C19.4306 15.8067 20.1765 15.6263 20.8431 15.3259C21.496 15.0317 22.1954 14.5666 22.6192 13.8884C23.0893 13.1361 23.1552 12.2153 22.6414 11.3001ZM15.7777 19.9844C16.1411 19.5396 16.6318 19.1837 17.0053 19.0015C17.2225 19.5191 17.0108 20.119 16.3859 20.6043C16.0743 20.8463 15.7585 20.9666 15.5461 20.9885C15.4822 20.995 15.4434 20.993 15.4217 20.9894C15.35 20.8539 15.3163 20.5489 15.7777 19.9844ZM15.3982 20.981C15.3991 20.9802 15.4051 20.9816 15.4133 20.9877C15.4013 20.9849 15.3972 20.9819 15.3982 20.981ZM18.3591 13.8015L18.363 13.803C18.3602 13.802 18.359 13.8015 18.3591 13.8015Z" fill="black"/>
</svg>
