<svg width="24" height="24" viewBox="0 0 24 24" fill="none" xmlns="http://www.w3.org/2000/svg">
<path fill-rule="evenodd" clip-rule="evenodd" d="M8.29289 1.29289C8.48043 1.10536 8.73478 1 9 1H17C18.6569 1 20 2.34315 20 4V8C20 8.55228 19.5523 9 19 9C18.4477 9 18 8.55228 18 8V4C18 3.44772 17.5523 3 17 3H10V8C10 8.55228 9.55228 9 9 9H4V20C4 20.5523 4.44772 21 5 21H9C9.55228 21 10 21.4477 10 22C10 22.5523 9.55228 23 9 23H5C3.34315 23 2 21.6569 2 20V8C2 7.73478 2.10536 7.48043 2.29289 7.29289L8.29289 1.29289ZM5.41421 7H8V4.41421L5.41421 7ZM19.1716 18.7574C19.6951 17.967 20 17.0191 20 16C20 13.2386 17.7614 11 15 11C12.2386 11 10 13.2386 10 16C10 18.7614 12.2386 21 15 21C16.0191 21 16.967 20.6951 17.7574 20.1716L20.2929 22.7071C20.6834 23.0976 21.3166 23.0976 21.7071 22.7071C22.0976 22.3166 22.0976 21.6834 21.7071 21.2929L19.1716 18.7574ZM12 16C12 14.3431 13.3431 13 15 13C16.6569 13 18 14.3431 18 16C18 17.6569 16.6569 19 15 19C13.3431 19 12 17.6569 12 16Z" fill="black"/>
</svg>
