<svg width="24" height="24" viewBox="0 0 24 24" fill="none" xmlns="http://www.w3.org/2000/svg">
<path fill-rule="evenodd" clip-rule="evenodd" d="M2 4C2 2.34315 3.34315 1 5 1H19C20.6569 1 22 2.34315 22 4V6C22 7.04349 21.4672 7.96254 20.6589 8.5C21.4672 9.03746 22 9.95651 22 11V13C22 14.0435 21.4672 14.9625 20.6589 15.5C21.4672 16.0375 22 16.9565 22 18V20C22 21.6569 20.6569 23 19 23H5C3.34315 23 2 21.6569 2 20V18C2 16.9565 2.53276 16.0375 3.34111 15.5C2.53276 14.9625 2 14.0435 2 13V11C2 9.95651 2.53275 9.03746 3.3411 8.5C2.53275 7.96254 2 7.04349 2 6V4ZM5 3C4.44772 3 4 3.44772 4 4V6C4 6.55228 4.44772 7 5 7H19C19.5523 7 20 6.55228 20 6V4C20 3.44772 19.5523 3 19 3H5ZM5 10C4.44772 10 4 10.4477 4 11V13C4 13.5523 4.44772 14 5 14H19C19.5523 14 20 13.5523 20 13V11C20 10.4477 19.5523 10 19 10H5ZM4 18C4 17.4477 4.44772 17 5 17H19C19.5523 17 20 17.4477 20 18V20C20 20.5523 19.5523 21 19 21H5C4.44772 21 4 20.5523 4 20V18ZM16.5 20.25C17.1904 20.25 17.75 19.6904 17.75 19C17.75 18.3096 17.1904 17.75 16.5 17.75C15.8096 17.75 15.25 18.3096 15.25 19C15.25 19.6904 15.8096 20.25 16.5 20.25ZM16.5 13.25C17.1904 13.25 17.75 12.6904 17.75 12C17.75 11.3096 17.1904 10.75 16.5 10.75C15.8096 10.75 15.25 11.3096 15.25 12C15.25 12.6904 15.8096 13.25 16.5 13.25ZM16.5 6.25C17.1904 6.25 17.75 5.69036 17.75 5C17.75 4.30964 17.1904 3.75 16.5 3.75C15.8096 3.75 15.25 4.30964 15.25 5C15.25 5.69036 15.8096 6.25 16.5 6.25Z" fill="black"/>
</svg>
