<svg width="24" height="24" viewBox="0 0 24 24" fill="none" xmlns="http://www.w3.org/2000/svg">
<path fill-rule="evenodd" clip-rule="evenodd" d="M3 5C3 3.34315 4.34315 2 6 2H19C20.6569 2 22 3.34315 22 5V7C22 7.76836 21.7111 8.46925 21.2361 9C21.7111 9.53076 22 10.2316 22 11V13C22 13.7684 21.7111 14.4692 21.2361 15C21.7111 15.5308 22 16.2316 22 17V19C22 20.6569 20.6569 22 19 22H6C4.34315 22 3 20.6569 3 19V17C3 16.2316 3.28885 15.5308 3.7639 15C3.28885 14.4692 3 13.7684 3 13V11C3 10.2316 3.28885 9.53076 3.7639 9C3.28885 8.46925 3 7.76836 3 7V5ZM19 8H6C5.44772 8 5 7.55228 5 7V5C5 4.44772 5.44772 4 6 4H19C19.5523 4 20 4.44772 20 5V7C20 7.55228 19.5523 8 19 8ZM5 11C5 10.4477 5.44772 10 6 10H19C19.5523 10 20 10.4477 20 11V13C20 13.5523 19.5523 14 19 14H6C5.44772 14 5 13.5523 5 13V11ZM5 17C5 16.4477 5.44772 16 6 16H19C19.5523 16 20 16.4477 20 17V19C20 19.5523 19.5523 20 19 20H6C5.44772 20 5 19.5523 5 19V17ZM16.5 19.25C17.1904 19.25 17.75 18.6904 17.75 18C17.75 17.3096 17.1904 16.75 16.5 16.75C15.8096 16.75 15.25 17.3096 15.25 18C15.25 18.6904 15.8096 19.25 16.5 19.25ZM16.5 13.25C17.1904 13.25 17.75 12.6904 17.75 12C17.75 11.3096 17.1904 10.75 16.5 10.75C15.8096 10.75 15.25 11.3096 15.25 12C15.25 12.6904 15.8096 13.25 16.5 13.25ZM16.5 7.25C17.1904 7.25 17.75 6.69036 17.75 6C17.75 5.30964 17.1904 4.75 16.5 4.75C15.8096 4.75 15.25 5.30964 15.25 6C15.25 6.69036 15.8096 7.25 16.5 7.25Z" fill="black"/>
</svg>
