<svg width="24" height="24" viewBox="0 0 24 24" fill="none" xmlns="http://www.w3.org/2000/svg">
<path fill-rule="evenodd" clip-rule="evenodd" d="M10 1C9.73478 1 9.48043 1.10536 9.29289 1.29289L3.29289 7.29289C3.10536 7.48043 3 7.73478 3 8V20C3 21.6569 4.34315 23 6 23H8C8.55228 23 9 22.5523 9 22C9 21.4477 8.55228 21 8 21H6C5.44772 21 5 20.5523 5 20V9H10C10.5523 9 11 8.55228 11 8V3H18C18.5523 3 19 3.44772 19 4V9C19 9.55228 19.4477 10 20 10C20.5523 10 21 9.55228 21 9V4C21 2.34315 19.6569 1 18 1H10ZM9 7H6.41421L9 4.41421V7ZM17.2168 11.3934C16.7816 10.3898 15.3584 10.3898 14.9232 11.3934L13.6348 14.3645L10.411 14.6716C9.32207 14.7754 8.88227 16.129 9.70227 16.853L12.1298 18.9964L11.4257 22.1573C11.1879 23.2251 12.3394 24.0616 13.2813 23.5055L16.07 21.8591L18.8586 23.5055C19.8006 24.0616 20.952 23.2251 20.7142 22.1573L20.0102 18.9964L22.4377 16.853C23.2577 16.129 22.8179 14.7754 21.7289 14.6716L18.5052 14.3645L17.2168 11.3934ZM15.2348 15.7018L16.07 13.7759L16.9051 15.7018L17.14 16.2434L17.7277 16.2994L19.8174 16.4986L18.2439 17.888L17.8013 18.2787L17.9297 18.855L18.386 20.904L16.5784 19.8368L16.07 19.5366L15.5616 19.8368L13.7539 20.904L14.2103 18.855L14.3387 18.2787L13.8961 17.888L12.3225 16.4986L14.4122 16.2994L15 16.2434L15.2348 15.7018Z" fill="black"/>
</svg>
