<svg width="24" height="24" viewBox="0 0 24 24" fill="none" xmlns="http://www.w3.org/2000/svg">
<path fill-rule="evenodd" clip-rule="evenodd" d="M10 1C9.73478 1 9.48043 1.10536 9.29289 1.29289L3.29289 7.29289C3.10536 7.48043 3 7.73478 3 8V20C3 21.6569 4.34315 23 6 23H7C7.55228 23 8 22.5523 8 22C8 21.4477 7.55228 21 7 21H6C5.44772 21 5 20.5523 5 20V9H10C10.5523 9 11 8.55228 11 8V3H18C18.5523 3 19 3.44772 19 4V9C19 9.55228 19.4477 10 20 10C20.5523 10 21 9.55228 21 9V4C21 2.34315 19.6569 1 18 1H10ZM9 7H6.41421L9 4.41421V7ZM11 12C10.4477 12 10 12.4477 10 13V17V21C10 21.5523 10.4477 22 11 22H15H21C21.5523 22 22 21.5523 22 21V17V13C22 12.4477 21.5523 12 21 12H15H11ZM12 16V14H14V16H12ZM16 16V14H20V16H16ZM16 20V18H20V20H16ZM14 18V20H12V18H14Z" fill="black"/>
</svg>
