<svg width="24" height="24" viewBox="0 0 24 24" fill="none" xmlns="http://www.w3.org/2000/svg">
<path fill-rule="evenodd" clip-rule="evenodd" d="M9 7L15 7V5V2L9 2V5V7ZM9 5C9 5.55228 9.44772 6 10 6C10.5523 6 11 5.55228 11 5C11 4.44772 10.5523 4 10 4C9.44772 4 9 4.44772 9 5ZM15 5C15 4.44772 14.5523 4 14 4C13.4477 4 13 4.44772 13 5C13 5.55228 13.4477 6 14 6C14.5523 6 15 5.55228 15 5ZM16.9863 7.1659C16.9953 7.11194 17 7.05652 17 7V1C17 0.447715 16.5523 0 16 0L8 0C7.44772 0 7 0.447715 7 1V7C7 7.05652 7.00469 7.11194 7.0137 7.1659C5.84136 7.57385 5 8.68867 5 10V17C5 20.866 8.13401 24 12 24C15.866 24 19 20.866 19 17V10C19 8.68867 18.1586 7.57385 16.9863 7.1659ZM7 10C7 9.44772 7.44772 9 8 9H16C16.5523 9 17 9.44772 17 10V17C17 19.7614 14.7614 22 12 22C9.23858 22 7 19.7614 7 17L7 10Z" fill="black"/>
</svg>
