<svg width="24" height="24" viewBox="0 0 24 24" fill="none" xmlns="http://www.w3.org/2000/svg">
<path fill-rule="evenodd" clip-rule="evenodd" d="M9.29289 1.29289C9.48043 1.10536 9.73478 1 10 1H18C19.6569 1 21 2.34315 21 4V8C21 8.55228 20.5523 9 20 9C19.4477 9 19 8.55228 19 8V4C19 3.44772 18.5523 3 18 3H11V8C11 8.55228 10.5523 9 10 9H5V20C5 20.5523 5.44772 21 6 21H9C9.55228 21 10 21.4477 10 22C10 22.5523 9.55228 23 9 23H6C4.34315 23 3 21.6569 3 20V8C3 7.73478 3.10536 7.48043 3.29289 7.29289L9.29289 1.29289ZM6.41421 7H9V4.41421L6.41421 7ZM18 19C15.2951 19 14 20.6758 14 22C14 22.5523 13.5523 23 13 23C12.4477 23 12 22.5523 12 22C12 20.1742 13.1429 18.5122 14.9952 17.6404C14.3757 16.936 14 16.0119 14 15C14 12.7909 15.7909 11 18 11C20.2091 11 22 12.7909 22 15C22 16.0119 21.6243 16.936 21.0048 17.6404C22.8571 18.5122 24 20.1742 24 22C24 22.5523 23.5523 23 23 23C22.4477 23 22 22.5523 22 22C22 20.6758 20.7049 19 18 19ZM18 17C19.1046 17 20 16.1046 20 15C20 13.8954 19.1046 13 18 13C16.8954 13 16 13.8954 16 15C16 16.1046 16.8954 17 18 17Z" fill="black"/>
</svg>
