<svg width="24" height="24" viewBox="0 0 24 24" fill="none" xmlns="http://www.w3.org/2000/svg">
<path fill-rule="evenodd" clip-rule="evenodd" d="M8.29289 1.29289C8.48043 1.10536 8.73478 1 9 1H17C18.6569 1 20 2.34315 20 4V8C20 8.55228 19.5523 9 19 9C18.4477 9 18 8.55228 18 8V4C18 3.44772 17.5523 3 17 3H10V8C10 8.55228 9.55228 9 9 9H4V20C4 20.5523 4.44772 21 5 21H8C8.55228 21 9 21.4477 9 22C9 22.5523 8.55228 23 8 23H5C3.34315 23 2 21.6569 2 20V8C2 7.73478 2.10536 7.48043 2.29289 7.29289L8.29289 1.29289ZM5.41421 7H8V4.41421L5.41421 7ZM17 19C14.2951 19 13 20.6758 13 22C13 22.5523 12.5523 23 12 23C11.4477 23 11 22.5523 11 22C11 20.1742 12.1429 18.5122 13.9952 17.6404C13.3757 16.936 13 16.0119 13 15C13 12.7909 14.7909 11 17 11C19.2091 11 21 12.7909 21 15C21 16.0119 20.6243 16.936 20.0048 17.6404C21.8571 18.5122 23 20.1742 23 22C23 22.5523 22.5523 23 22 23C21.4477 23 21 22.5523 21 22C21 20.6758 19.7049 19 17 19ZM17 17C18.1046 17 19 16.1046 19 15C19 13.8954 18.1046 13 17 13C15.8954 13 15 13.8954 15 15C15 16.1046 15.8954 17 17 17Z" fill="black"/>
</svg>
