<svg width="24" height="24" viewBox="0 0 24 24" fill="none" xmlns="http://www.w3.org/2000/svg">
<path fill-rule="evenodd" clip-rule="evenodd" d="M10 1C9.73478 1 9.48043 1.10536 9.29289 1.29289L3.29289 7.29289C3.10536 7.48043 3 7.73478 3 8V20C3 21.6569 4.34315 23 6 23H10C10.5523 23 11 22.5523 11 22C11 21.4477 10.5523 21 10 21H6C5.44772 21 5 20.5523 5 20V9H10C10.5523 9 11 8.55228 11 8V3H18C18.5523 3 19 3.44772 19 4V9C19 9.55228 19.4477 10 20 10C20.5523 10 21 9.55228 21 9V4C21 2.34315 19.6569 1 18 1H10ZM9 7H6.41421L9 4.41421V7ZM12.952 12.694C12.783 12.1682 12.2198 11.879 11.694 12.048C11.1682 12.217 10.879 12.7802 11.048 13.306L13.298 20.306C13.4309 20.7196 13.8156 21 14.25 21C14.6844 21 15.0691 20.7196 15.202 20.306L16.5 16.2679L17.798 20.306C17.9309 20.7196 18.3156 21 18.75 21C19.1844 21 19.5691 20.7196 19.702 20.306L21.952 13.306C22.121 12.7802 21.8318 12.217 21.306 12.048C20.7802 11.879 20.217 12.1682 20.048 12.694L18.75 16.7321L17.452 12.694C17.3191 12.2804 16.9344 12 16.5 12C16.0656 12 15.6809 12.2804 15.548 12.694L14.25 16.7321L12.952 12.694Z" fill="black"/>
</svg>
