<svg width="24" height="24" viewBox="0 0 24 24" fill="none" xmlns="http://www.w3.org/2000/svg">
<path fill-rule="evenodd" clip-rule="evenodd" d="M9.29289 1.29289C9.48043 1.10536 9.73478 1 10 1H18C19.6569 1 21 2.34315 21 4V17C21 17.5523 20.5523 18 20 18C19.4477 18 19 17.5523 19 17V4C19 3.44772 18.5523 3 18 3H14.5H11V8C11 8.55228 10.5523 9 10 9H5V20C5 20.5523 5.44772 21 6 21H8C8.55228 21 9 21.4477 9 22C9 22.5523 8.55228 23 8 23H6C4.34315 23 3 21.6569 3 20V8C3 7.73478 3.10536 7.48043 3.29289 7.29289L9.29289 1.29289ZM14.5 3C15.3284 3 16 3.67157 16 4.5C16 5.32843 15.3284 6 14.5 6C13.6716 6 13 5.32843 13 4.5C13 3.67157 13.6716 3 14.5 3ZM6.41421 7H9V4.41421L6.41421 7ZM11 20.577C11 22.4675 12.5325 24 14.423 24H14.577C16.4675 24 18 22.4675 18 20.577C18 19.8707 17.82 19.176 17.4769 18.5585L15.9856 15.8742C15.6859 15.3346 15.1172 15 14.5 15C13.8828 15 13.3141 15.3346 13.0144 15.8742L11.5231 18.5585C11.18 19.176 11 19.8707 11 20.577ZM14.5 22C15.3284 22 16 21.3284 16 20.5C16 19.6716 15.3284 19 14.5 19C13.6716 19 13 19.6716 13 20.5C13 21.3284 13.6716 22 14.5 22ZM14.5 14C15.3284 14 16 13.3284 16 12.5C16 11.6716 15.3284 11 14.5 11C13.6716 11 13 11.6716 13 12.5C13 13.3284 13.6716 14 14.5 14ZM16 8.5C16 9.32843 15.3284 10 14.5 10C13.6716 10 13 9.32843 13 8.5C13 7.67157 13.6716 7 14.5 7C15.3284 7 16 7.67157 16 8.5Z" fill="black"/>
</svg>
