<svg width="24" height="24" fill="none" xmlns="http://www.w3.org/2000/svg"><path fill-rule="evenodd" clip-rule="evenodd" d="M11.503 1.156A1 1 0 0 0 10 2.02v1.662c-.667.068-1.244.235-1.752.498-.755.391-1.269.951-1.673 1.516-.2.279-.38.569-.545.843l-.109.179c-.13.215-.253.42-.387.627-.333.517-.691.984-1.175 1.387A155.796 155.796 0 0 0 .9 11.747a1.994 1.994 0 0 0-.453 2.38l.796 1.594a2 2 0 0 0 2.298 1.04l5.23-1.377L7.322 19H6a1 1 0 0 0-.949.684L4.28 22H4a1 1 0 1 0 0 2h18a1 1 0 1 0 0-2h-.28l-.771-2.316A1 1 0 0 0 20 19h-.958c.094-1.138.333-2.215.583-3.343.073-.327.146-.658.217-.996.38-1.801.67-3.736.128-5.904-.55-2.204-1.645-3.52-3.159-4.59-.729-.513-1.554-.97-2.428-1.437l-.524-.28a67.526 67.526 0 0 1-2.356-1.294zm-.575 14.215a.996.996 0 0 0 .052-.569l1.274-.335a1 1 0 0 0-.508-1.934L3.03 14.826l-.795-1.59c.81-.724 2.307-2.052 3.405-2.968.7-.585 1.185-1.237 1.573-1.838.152-.236.296-.474.428-.692l.098-.162c.162-.268.31-.503.462-.716.3-.42.592-.71.966-.904.375-.195.92-.337 1.794-.304A1 1 0 0 0 12 4.653v-.928c.323.174.635.34.933.498l.507.27c.874.467 1.6.873 2.218 1.309 1.178.831 1.953 1.764 2.372 3.44.428 1.713.219 3.278-.145 5.007-.062.295-.129.596-.198.905-.263 1.181-.55 2.466-.65 3.846H9.477l1.451-3.629zM8 21v-1 1h11.28l.333 1H6.387l.334-1H8zm1.5-10a1.5 1.5 0 1 0 0-3 1.5 1.5 0 0 0 0 3z" fill="#000"/></svg>