<svg width="24" height="24" fill="none" xmlns="http://www.w3.org/2000/svg"><g clip-path="url(#clip0)"><path fill-rule="evenodd" clip-rule="evenodd" d="M11.741 1.156a1 1 0 0 0-1.503.864v1.65c-.809.056-1.487.22-2.066.493-.828.39-1.363.958-1.768 1.551-.237.348-.472.781-.679 1.162-.101.187-.196.362-.281.508-.296.508-.617.958-1.085 1.348-.808.675-1.817 1.558-2.62 2.268a241.31 241.31 0 0 0-1.3 1.16l-.08.072-.021.019-.006.005H.331v.001L1 13l-.67-.743a1 1 0 0 0-.224 1.19l1.5 3a1 1 0 0 0 1.149.52l6.014-1.583L7.323 19H6a1 1 0 0 0-.949.684L4.28 22H4a1 1 0 1 0 0 2h18a1 1 0 1 0 0-2h-.28l-.771-2.316A1 1 0 0 0 20 19h-.958c.095-1.138.333-2.215.583-3.343.073-.327.146-.658.217-.996.38-1.801.67-3.736.128-5.904-.545-2.18-1.562-3.498-3.022-4.577-.702-.518-1.5-.976-2.354-1.445-.236-.13-.476-.26-.721-.393-.662-.359-1.365-.74-2.132-1.186zm-8.71 13.67l-.795-1.59c.228-.205.513-.459.83-.739.799-.707 1.79-1.574 2.575-2.23.716-.597 1.175-1.266 1.53-1.876.16-.273.282-.502.393-.708.165-.307.303-.564.493-.841.266-.391.55-.673.967-.87.433-.203 1.096-.355 2.182-.32a1 1 0 0 0 1.032-.999V3.73l.703.382h.001l.69.376c.847.465 1.543.87 2.127 1.301 1.113.821 1.846 1.753 2.27 3.453.429 1.713.22 3.278-.144 5.007-.062.295-.129.596-.198.905-.263 1.181-.55 2.466-.65 3.846H9.477l1.451-3.629a.995.995 0 0 0 .052-.569l1.274-.335a1 1 0 0 0-.508-1.934L3.03 14.826zM8 21v-1 1h11.28l.333 1H6.387l.334-1H8zm1.5-10a1.5 1.5 0 1 0 0-3 1.5 1.5 0 0 0 0 3z" fill="#000"/></g><defs><clipPath id="clip0"><path fill="#fff" d="M0 0h24v24H0z"/></clipPath></defs></svg>