<svg width="24" height="24" viewBox="0 0 24 24" fill="none" xmlns="http://www.w3.org/2000/svg">
<path fill-rule="evenodd" clip-rule="evenodd" d="M12 3C7.02944 3 3 7.02944 3 12C3 16.9706 7.02944 21 12 21C16.9706 21 21 16.9706 21 12C21 7.02944 16.9706 3 12 3ZM1 12C1 5.92487 5.92487 1 12 1C18.0751 1 23 5.92487 23 12C23 18.0751 18.0751 23 12 23C5.92487 23 1 18.0751 1 12ZM13.25 16.75C13.25 17.4404 12.6904 18 12 18C11.3096 18 10.75 17.4404 10.75 16.75C10.75 16.0596 11.3096 15.5 12 15.5C12.6904 15.5 13.25 16.0596 13.25 16.75ZM10.1353 8.96435C10.3999 8.45957 11.0831 8 12 8C13.283 8 14 8.83454 14 9.5C14 10.1655 13.283 11 12 11C11.4477 11 11 11.4477 11 12V13C11 13.5523 11.4477 14 12 14C12.5523 14 13 13.5523 13 13V12.8866C14.6316 12.5135 16 11.2471 16 9.5C16 7.40403 14.0307 6 12 6C10.4566 6 9.0252 6.77452 8.36398 8.03565C8.10753 8.52478 8.29615 9.1292 8.78528 9.38565C9.27442 9.64211 9.87883 9.45348 10.1353 8.96435Z" fill="black"/>
</svg>
