<svg width="24" height="24" viewBox="0 0 24 24" fill="none" xmlns="http://www.w3.org/2000/svg">
<path fill-rule="evenodd" clip-rule="evenodd" d="M3 12C3 7.02944 7.02944 3 12 3C16.9706 3 21 7.02944 21 12C21 16.9706 16.9706 21 12 21C7.02944 21 3 16.9706 3 12ZM12 1C5.92487 1 1 5.92487 1 12C1 18.0751 5.92487 23 12 23C18.0751 23 23 18.0751 23 12C23 5.92487 18.0751 1 12 1ZM8.80425 14L12 8.8868L15.1958 14H8.80425ZM13.272 7.1484C12.6845 6.2084 11.3155 6.2084 10.728 7.1484L6.63013 13.705C6.0057 14.7041 6.72397 16 7.90212 16H16.0979C17.276 16 17.9943 14.7041 17.3699 13.705L13.272 7.1484Z" fill="black"/>
</svg>
