<svg width="24" height="24" viewBox="0 0 24 24" fill="none" xmlns="http://www.w3.org/2000/svg">
<path fill-rule="evenodd" clip-rule="evenodd" d="M3 12C3 7.02944 7.02944 3 12 3C16.9706 3 21 7.02944 21 12C21 16.9706 16.9706 21 12 21C7.02944 21 3 16.9706 3 12ZM12 1C5.92487 1 1 5.92487 1 12C1 18.0751 5.92487 23 12 23C18.0751 23 23 18.0751 23 12C23 5.92487 18.0751 1 12 1ZM16.8 8.6C17.1314 8.15817 17.0418 7.53137 16.6 7.2C16.1582 6.86863 15.5314 6.95817 15.2 7.4L9.89181 14.4776L7.70711 12.2929C7.31658 11.9024 6.68342 11.9024 6.29289 12.2929C5.90237 12.6834 5.90237 13.3166 6.29289 13.7071L9.29289 16.7071C9.49788 16.9121 9.78173 17.018 10.0709 16.9975C10.3601 16.9769 10.6261 16.8319 10.8 16.6L16.8 8.6Z" fill="black"/>
</svg>
