<svg width="23" height="24" viewBox="0 0 23 24" fill="none" xmlns="http://www.w3.org/2000/svg">
<path fill-rule="evenodd" clip-rule="evenodd" d="M2 12C2 7.02944 6.02944 3 11 3C15.9706 3 20 7.02944 20 12C20 16.9706 15.9706 21 11 21C6.02944 21 2 16.9706 2 12ZM11 1C4.92487 1 0 5.92487 0 12C0 18.0751 4.92487 23 11 23C17.0751 23 22 18.0751 22 12C22 5.92487 17.0751 1 11 1ZM9 7C7.34315 7 6 8.34315 6 10V14C6 15.6569 7.34315 17 9 17H13C14.6569 17 16 15.6569 16 14V10C16 8.34315 14.6569 7 13 7H9ZM8 10C8 9.44772 8.44772 9 9 9H13C13.5523 9 14 9.44772 14 10V14C14 14.5523 13.5523 15 13 15H9C8.44772 15 8 14.5523 8 14V10Z" fill="black"/>
</svg>
