<svg width="24" height="24" viewBox="0 0 24 24" fill="none" xmlns="http://www.w3.org/2000/svg">
<path fill-rule="evenodd" clip-rule="evenodd" d="M3 12C3 7.02944 7.02944 3 12 3C16.9706 3 21 7.02944 21 12C21 16.9706 16.9706 21 12 21C7.02944 21 3 16.9706 3 12ZM12 1C5.92487 1 1 5.92487 1 12C1 18.0751 5.92487 23 12 23C18.0751 23 23 18.0751 23 12C23 5.92487 18.0751 1 12 1ZM9.1716 7.75736C8.78107 7.36684 8.14791 7.36684 7.75738 7.75736C7.36686 8.14788 7.36686 8.78105 7.75738 9.17157L10.5858 12L7.75738 14.8284C7.36686 15.219 7.36686 15.8521 7.75738 16.2426C8.14791 16.6332 8.78107 16.6332 9.1716 16.2426L12 13.4142L14.8285 16.2426C15.219 16.6332 15.8521 16.6332 16.2427 16.2426C16.6332 15.8521 16.6332 15.219 16.2427 14.8284L13.4142 12L16.2427 9.17157C16.6332 8.78105 16.6332 8.14788 16.2427 7.75736C15.8521 7.36684 15.219 7.36683 14.8285 7.75736L12 10.5858L9.1716 7.75736Z" fill="black"/>
</svg>
