<svg width="24" height="24" viewBox="0 0 24 24" fill="none" xmlns="http://www.w3.org/2000/svg">
<path fill-rule="evenodd" clip-rule="evenodd" d="M12 3C7.02944 3 3 7.02944 3 12C3 16.9706 7.02944 21 12 21C16.9706 21 21 16.9706 21 12C21 7.02944 16.9706 3 12 3ZM1 12C1 5.92487 5.92487 1 12 1C18.0751 1 23 5.92487 23 12C23 18.0751 18.0751 23 12 23C5.92487 23 1 18.0751 1 12ZM13.25 7.25C13.25 7.94036 12.6904 8.5 12 8.5C11.3096 8.5 10.75 7.94036 10.75 7.25C10.75 6.55964 11.3096 6 12 6C12.6904 6 13.25 6.55964 13.25 7.25ZM11 10C10.4477 10 10 10.4477 10 11C10 11.5523 10.4477 12 11 12V17C11 17.5523 11.4477 18 12 18C12.5523 18 13 17.5523 13 17V11C13 10.4477 12.5523 10 12 10H11Z" fill="black"/>
</svg>
