<svg width="24" height="24" viewBox="0 0 24 24" fill="none" xmlns="http://www.w3.org/2000/svg">
<path fill-rule="evenodd" clip-rule="evenodd" d="M13.4142 3.8284C12.6332 3.04735 11.3668 3.04735 10.5858 3.8284L3.82843 10.5858C3.04738 11.3668 3.04738 12.6331 3.82843 13.4142L10.5858 20.1715C11.3668 20.9526 12.6332 20.9526 13.4142 20.1715L20.1716 13.4142C20.9526 12.6331 20.9526 11.3668 20.1716 10.5858L13.4142 3.8284ZM9.17157 2.41419C10.7337 0.852088 13.2663 0.852092 14.8284 2.41419L21.5858 9.17155C23.1479 10.7336 23.1479 13.2663 21.5858 14.8284L14.8284 21.5858C13.2663 23.1479 10.7337 23.1479 9.17157 21.5858L2.41421 14.8284C0.852115 13.2663 0.852119 10.7336 2.41422 9.17154L9.17157 2.41419ZM13.25 15.75C13.25 16.4404 12.6904 17 12 17C11.3096 17 10.75 16.4404 10.75 15.75C10.75 15.0596 11.3096 14.5 12 14.5C12.6904 14.5 13.25 15.0596 13.25 15.75ZM13 7C13 6.44772 12.5523 6 12 6C11.4477 6 11 6.44772 11 7V12C11 12.5523 11.4477 13 12 13C12.5523 13 13 12.5523 13 12V7Z" fill="black"/>
</svg>
