<svg width="24" height="24" viewBox="0 0 24 24" fill="none" xmlns="http://www.w3.org/2000/svg">
<path fill-rule="evenodd" clip-rule="evenodd" d="M8.41421 1C7.88378 1 7.37507 1.21071 7 1.58579L1.58579 7C1.21071 7.37507 1 7.88378 1 8.41421V15.5858C1 16.1162 1.21071 16.6249 1.58579 17L7 22.4142C7.37507 22.7893 7.88378 23 8.41421 23H15.5858C16.1162 23 16.6249 22.7893 17 22.4142L22.4142 17C22.7893 16.6249 23 16.1162 23 15.5858V8.41421C23 7.88378 22.7893 7.37507 22.4142 7L17 1.58579C16.6249 1.21071 16.1162 1 15.5858 1H8.41421ZM8.41421 3H15.5858L21 8.41421V15.5858L15.5858 21H8.41421L3 15.5858L3 8.41421L8.41421 3ZM9.1716 7.75736C8.78107 7.36684 8.14791 7.36684 7.75738 7.75736C7.36686 8.14788 7.36686 8.78105 7.75738 9.17157L10.5858 12L7.75738 14.8284C7.36686 15.219 7.36686 15.8521 7.75738 16.2426C8.14791 16.6332 8.78107 16.6332 9.1716 16.2426L12 13.4142L14.8285 16.2426C15.219 16.6332 15.8521 16.6332 16.2427 16.2426C16.6332 15.8521 16.6332 15.219 16.2427 14.8284L13.4142 12L16.2427 9.17157C16.6332 8.78105 16.6332 8.14788 16.2427 7.75736C15.8521 7.36684 15.219 7.36683 14.8285 7.75736L12 10.5858L9.1716 7.75736Z" fill="black"/>
</svg>
