<svg width="24" height="24" fill="none" xmlns="http://www.w3.org/2000/svg"><path fill-rule="evenodd" clip-rule="evenodd" d="M10 1a1 1 0 0 0-.707.293l-6 6A1 1 0 0 0 3 8v12a3 3 0 0 0 3 3h5a1 1 0 1 0 0-2H6a1 1 0 0 1-1-1V9h5a1 1 0 0 0 1-1V3h7a1 1 0 0 1 1 1v4a1 1 0 1 0 2 0V4a3 3 0 0 0-3-3h-8zM9 7H6.414L9 4.414V7zm12.974 7.306c-.255-1.098-.815-1.969-1.65-2.544-.82-.565-1.814-.784-2.847-.76-1.484.033-2.655.67-3.424 1.734C13.311 13.762 13 15.103 13 16.501c0 1.406.33 2.752 1.076 3.778.772 1.06 1.943 1.705 3.413 1.72 1.043.012 2.052-.236 2.872-.802.835-.576 1.415-1.445 1.622-2.543a1 1 0 0 0-1.966-.37c-.11.59-.399.995-.792 1.267-.41.283-.99.457-1.714.449-.837-.01-1.417-.348-1.818-.899-.426-.585-.693-1.476-.693-2.6 0-1.134.257-2.016.674-2.593.39-.54.969-.887 1.849-.907.733-.016 1.281.142 1.666.408.371.255.679.67.837 1.35a1 1 0 0 0 1.948-.453z" fill="#000"/></svg>