<svg width="24" height="24" fill="none" xmlns="http://www.w3.org/2000/svg"><path fill-rule="evenodd" clip-rule="evenodd" d="M1 5a3 3 0 0 1 3-3h4.438a3 3 0 0 1 2.91 2.272L11.782 6h8.469A2.75 2.75 0 0 1 23 8.75V9a1 1 0 1 1-2 0v-.25a.75.75 0 0 0-.75-.75H4a1 1 0 0 0-1 1v10a1 1 0 0 0 1 1h4a1 1 0 1 1 0 2H4a3 3 0 0 1-3-3V5zm2 1.17c.313-.11.65-.17 1-.17h5.72l-.311-1.243A1 1 0 0 0 8.439 4H4a1 1 0 0 0-1 1v1.17zM17 12a5 5 0 1 0 0 10 5 5 0 0 0 0-10zm-7 5a7 7 0 1 1 14 0 7 7 0 0 1-14 0zm5.707-2.707a1 1 0 0 0-1.414 1.414L15.586 17l-1.293 1.293a1 1 0 0 0 1.414 1.414L17 18.414l1.293 1.293a1 1 0 0 0 1.414-1.414L18.414 17l1.293-1.293a1 1 0 0 0-1.414-1.414L17 15.586l-1.293-1.293z" fill="#000"/></svg>