<svg width="24" height="24" fill="none" xmlns="http://www.w3.org/2000/svg"><path fill-rule="evenodd" clip-rule="evenodd" d="M1 5a3 3 0 0 1 3-3h4.438a3 3 0 0 1 2.91 2.272L11.782 6H20.1A2.9 2.9 0 0 1 23 8.9V9a1 1 0 1 1-2 0v-.1a.9.9 0 0 0-.9-.9H4a1 1 0 0 0-1 1v10a1 1 0 0 0 1 1h4a1 1 0 1 1 0 2H4a3 3 0 0 1-3-3V5zm2 1.17c.313-.11.65-.17 1-.17h5.72l-.311-1.243A1 1 0 0 0 8.439 4H4a1 1 0 0 0-1 1v1.17zM17 12a5 5 0 1 0 0 10 5 5 0 0 0 0-10zm-7 5a7 7 0 1 1 14 0 7 7 0 0 1-14 0zm10.3-1.4a1 1 0 0 0-1.6-1.2l-2.348 3.13-1.188-1.055a1 1 0 0 0-1.328 1.495l2 1.777A1 1 0 0 0 17.3 19.6l3-4z" fill="#000"/></svg>