<svg width="24" height="24" fill="none" xmlns="http://www.w3.org/2000/svg"><path fill-rule="evenodd" clip-rule="evenodd" d="M9.293 1.293A1 1 0 0 1 10 1h8a3 3 0 0 1 3 3v3a1 1 0 1 1-2 0V4a1 1 0 0 0-1-1h-7v5a1 1 0 0 1-1 1H5v11a1 1 0 0 0 1 1h2a1 1 0 1 1 0 2H6a3 3 0 0 1-3-3V8a1 1 0 0 1 .293-.707l6-6zM6.414 7H9V4.414L6.414 7zM17 12a5 5 0 1 0 0 10 5 5 0 0 0 0-10zm-7 5a7 7 0 1 1 14 0 7 7 0 0 1-14 0zm10.3-1.4a1 1 0 0 0-1.6-1.2l-2.348 3.13-1.188-1.055a1 1 0 0 0-1.328 1.495l2 1.777A1 1 0 0 0 17.3 19.6l3-4z" fill="#000"/></svg>