<svg width="24" height="24" fill="none" xmlns="http://www.w3.org/2000/svg"><path fill-rule="evenodd" clip-rule="evenodd" d="M9.293 1.293A1 1 0 0 1 10 1h8a3 3 0 0 1 3 3v3a1 1 0 1 1-2 0V4a1 1 0 0 0-1-1h-7v5a1 1 0 0 1-1 1H5v11a1 1 0 0 0 1 1h2a1 1 0 1 1 0 2H6a3 3 0 0 1-3-3V8a1 1 0 0 1 .293-.707l6-6zM6.414 7H9V4.414L6.414 7zM17 12a5 5 0 1 0 0 10 5 5 0 0 0 0-10zm-7 5a7 7 0 1 1 14 0 7 7 0 0 1-14 0zm5.707-2.707a1 1 0 0 0-1.414 1.414L15.586 17l-1.293 1.293a1 1 0 0 0 1.414 1.414L17 18.414l1.293 1.293a1 1 0 0 0 1.414-1.414L18.414 17l1.293-1.293a1 1 0 0 0-1.414-1.414L17 15.586l-1.293-1.293z" fill="#000"/></svg>