<svg width="24" height="24" fill="none" xmlns="http://www.w3.org/2000/svg"><path fill-rule="evenodd" clip-rule="evenodd" d="M9.293 1.293A1 1 0 0110 1h8a3 3 0 013 3v5a1 1 0 11-2 0V4a1 1 0 00-1-1h-7v5a1 1 0 01-1 1H5v11a1 1 0 001 1h3a1 1 0 110 2H6a3 3 0 01-3-3V8a1 1 0 01.293-.707l6-6zM6.414 7H9V4.414L6.414 7zm8.567 5.804a1 1 0 01-.785 1.177l-.494.098a.464.464 0 00-.36.568c.18.722-.12 1.478-.746 1.879l-.74.474.74.474c.626.401.927 1.157.746 1.879-.064.257.1.516.36.567l.494.1a1 1 0 01-.392 1.96l-.495-.098a2.464 2.464 0 01-1.947-2.823l-1.901-1.217a1 1 0 010-1.684l1.901-1.217a2.464 2.464 0 011.947-2.823l.495-.099a1 1 0 011.177.785zm2.823 7.215a1 1 0 00.392 1.962l.494-.1a2.464 2.464 0 001.948-2.822l1.901-1.217a1 1 0 000-1.684l-1.901-1.217a2.464 2.464 0 00-1.948-2.823l-.494-.099a1 1 0 00-.392 1.962l.494.098c.26.052.424.311.36.568-.18.722.12 1.478.746 1.879l.74.474-.74.474a1.732 1.732 0 00-.747 1.879.464.464 0 01-.359.567l-.494.1z" fill="#000"/></svg>