<svg width="24" height="24" fill="none" xmlns="http://www.w3.org/2000/svg"><path fill-rule="evenodd" clip-rule="evenodd" d="M4 2a3 3 0 0 0-3 3v14a3 3 0 0 0 3 3h16a3 3 0 0 0 3-3V9a3 3 0 0 0-3-3h-8.22l-.431-1.728A3 3 0 0 0 8.439 2H4zm-1 8V9a1 1 0 0 1 1-1h16a1 1 0 0 1 1 1v10a1 1 0 0 1-1 1H4a1 1 0 0 1-1-1v-9zm1-4h5.72l-.311-1.243A1 1 0 0 0 8.439 4H4a1 1 0 0 0-1 1v1.17c.313-.11.65-.17 1-.17zm5.707 4.293a1 1 0 1 0-1.414 1.414L10.586 14l-2.293 2.293a1 1 0 1 0 1.414 1.414L12 15.414l2.293 2.293a1 1 0 0 0 1.414-1.414L13.414 14l2.293-2.293a1 1 0 0 0-1.414-1.414L12 12.586l-2.293-2.293z" fill="#000"/></svg>