<svg width="24" height="24" fill="none" xmlns="http://www.w3.org/2000/svg"><path fill-rule="evenodd" clip-rule="evenodd" d="M10 1a1 1 0 0 0-.707.293l-6 6A1 1 0 0 0 3 8v12a3 3 0 0 0 3 3h2a1 1 0 1 0 0-2H6a1 1 0 0 1-1-1V9h5a1 1 0 0 0 1-1V3h7a1 1 0 0 1 1 1v3a1 1 0 1 0 2 0V4a3 3 0 0 0-3-3h-8zM9 7H6.414L9 4.414V7zm4.507 4.316A2.5 2.5 0 0 1 16 9h1a2.5 2.5 0 0 1 2.493 2.316 2.5 2.5 0 0 1 3.252 1.001l.5.866a2.5 2.5 0 0 1-.758 3.317 2.5 2.5 0 0 1 .758 3.317l-.5.866a2.5 2.5 0 0 1-3.252 1.002A2.5 2.5 0 0 1 17 24h-1a2.5 2.5 0 0 1-2.493-2.316 2.5 2.5 0 0 1-3.252-1.001l-.5-.866a2.5 2.5 0 0 1 .758-3.317 2.5 2.5 0 0 1-.758-3.317l.5-.866a2.5 2.5 0 0 1 3.252-1.002zM16 11a.5.5 0 0 0-.5.5v.968a1 1 0 0 1-.555.895 3.49 3.49 0 0 0-.382.221 1 1 0 0 1-1.055.034l-.838-.484a.5.5 0 0 0-.683.183l-.5.866a.5.5 0 0 0 .183.683l.839.484a1 1 0 0 1 .498.929 3.528 3.528 0 0 0 0 .442 1 1 0 0 1-.498.929l-.84.484a.5.5 0 0 0-.182.683l.5.866a.5.5 0 0 0 .683.183l.838-.484a1 1 0 0 1 1.055.034c.122.081.25.155.382.22a1 1 0 0 1 .555.896v.968a.5.5 0 0 0 .5.5h1a.5.5 0 0 0 .5-.5v-.968a1 1 0 0 1 .555-.895 3.5 3.5 0 0 0 .382-.221 1 1 0 0 1 1.054-.034l.84.484a.5.5 0 0 0 .682-.183l.5-.866a.5.5 0 0 0-.183-.683l-.839-.484a1 1 0 0 1-.498-.928 3.528 3.528 0 0 0 0-.444 1 1 0 0 1 .498-.928l.84-.484a.5.5 0 0 0 .182-.683l-.5-.866a.5.5 0 0 0-.683-.183l-.838.484a1 1 0 0 1-1.055-.034 3.5 3.5 0 0 0-.382-.22 1 1 0 0 1-.555-.896V11.5a.5.5 0 0 0-.5-.5h-1zm2.5 5.5a2 2 0 1 1-4 0 2 2 0 0 1 4 0z" fill="#000"/></svg>