<svg width="24" height="24" fill="none" xmlns="http://www.w3.org/2000/svg"><path fill-rule="evenodd" clip-rule="evenodd" d="M10 1a1 1 0 00-.707.293l-6 6A1 1 0 003 8v12a3 3 0 003 3h3a1 1 0 100-2H6a1 1 0 01-1-1V9h5a1 1 0 001-1V3h7a1 1 0 011 1v4a1 1 0 102 0V4a3 3 0 00-3-3h-8zM9 7H6.414L9 4.414V7zm2.55 7.724c0-.943.774-1.724 1.75-1.724.975 0 1.75.78 1.75 1.724a1 1 0 102 0c0-.943.774-1.724 1.75-1.724s1.75.78 1.75 1.724c0 1.12-.651 2.348-1.713 3.587-.847.988-1.87 1.887-2.787 2.628-.918-.741-1.94-1.64-2.787-2.628-1.062-1.24-1.713-2.468-1.713-3.587zM13.3 11c1.083 0 2.064.458 2.75 1.192A3.756 3.756 0 0118.8 11c2.062 0 3.75 1.658 3.75 3.724 0 1.847-1.037 3.538-2.195 4.889-1.178 1.375-2.619 2.556-3.69 3.39a1 1 0 01-1.23 0c-1.071-.834-2.512-2.015-3.69-3.39-1.158-1.351-2.195-3.042-2.195-4.89C9.55 12.659 11.238 11 13.3 11z" fill="#000"/></svg>