<svg width="24" height="24" fill="none" xmlns="http://www.w3.org/2000/svg"><path fill-rule="evenodd" clip-rule="evenodd" d="M9.293 1.293A1 1 0 0110 1h8a3 3 0 013 3v16a3 3 0 01-3 3H6a3 3 0 01-3-3V8a1 1 0 01.293-.707l6-6zM18 3h-7v5a1 1 0 01-1 1H5v5.586l2.793-2.793a1 1 0 011.414 0L13 15.586l1.293-1.293a1 1 0 011.414 0L19 17.586V4a1 1 0 00-1-1zM5 20v-2.586l3.5-3.5 3.793 3.793a1 1 0 001.414 0L15 16.414l3.927 3.927.01.01A1 1 0 0118 21H6a1 1 0 01-1-1zM6.414 7H9V4.414L6.414 7zm8.086 6a1.5 1.5 0 100-3 1.5 1.5 0 000 3z" fill="#000"/></svg>