<svg width="24" height="24" fill="none" xmlns="http://www.w3.org/2000/svg"><path fill-rule="evenodd" clip-rule="evenodd" d="M10 1a1 1 0 00-.707.293l-6 6A1 1 0 003 8v12a3 3 0 003 3h1a1 1 0 100-2H6a1 1 0 01-1-1V9h5a1 1 0 001-1V3h7a1 1 0 011 1v5a1 1 0 102 0V4a3 3 0 00-3-3h-8zM9 7H6.414L9 4.414V7zm10 7h-9a1 1 0 00-1 1v2.5A5.5 5.5 0 0019.793 19h.707a2.5 2.5 0 000-5H19zm1.5 3H20v-1h.5a.5.5 0 010 1zM11 16h7v1.5a3.5 3.5 0 11-7 0V16zm2.447-6.894a1 1 0 01.447 1.341.6.6 0 000 .606 1 1 0 11-1.788.894 2.592 2.592 0 010-2.394 1 1 0 011.341-.447zm3.385-.66a1 1 0 00-1.664 1.109c.246.37.332.68.332.945 0 .266-.086.576-.332.945a1 1 0 001.664 1.11c.42-.63.668-1.32.668-2.055 0-.734-.247-1.424-.668-2.055z" fill="#000"/></svg>