<svg width="24" height="24" fill="none" xmlns="http://www.w3.org/2000/svg"><path fill-rule="evenodd" clip-rule="evenodd" d="M9.293 1.293A1 1 0 0 1 10 1h8a3 3 0 0 1 3 3v5a1 1 0 1 1-2 0V4a1 1 0 0 0-1-1h-7v5a1 1 0 0 1-1 1H5v11a1 1 0 0 0 1 1h1a1 1 0 1 1 0 2H6a3 3 0 0 1-3-3V8a1 1 0 0 1 .293-.707l6-6zM6.414 7H9V4.414L6.414 7zM16 14.75A2.75 2.75 0 0 1 18.75 12H21a1 1 0 1 1 0 2h-2.25a.75.75 0 0 0 0 1.5h.5a2.75 2.75 0 1 1 0 5.5H17a1 1 0 1 1 0-2h2.25a.75.75 0 0 0 0-1.5h-.5A2.75 2.75 0 0 1 16 14.75zM15 13a1 1 0 1 0-2 0v5a1 1 0 1 1-2 0v-.333a1 1 0 1 0-2 0V18a3 3 0 1 0 6 0v-5z" fill="#000"/></svg>