<svg width="24" height="24" fill="none" xmlns="http://www.w3.org/2000/svg"><path fill-rule="evenodd" clip-rule="evenodd" d="M9.293 1.293A1 1 0 0110 1h8a3 3 0 013 3v5a1 1 0 11-2 0V4a1 1 0 00-1-1h-7v5a1 1 0 01-1 1H5v11a1 1 0 001 1h3a1 1 0 110 2H6a3 3 0 01-3-3V8a1 1 0 01.293-.707l6-6zM6.414 7H9V4.414L6.414 7zM17.8 14.356a1 1 0 00-.355-1.364l-2.558-1.51a2 2 0 00-2.355.235l-1.6 1.44a2 2 0 00-.417 2.445l1.519 2.78a1 1 0 001.38.384l1.083-.63a1 1 0 011.284.24l.92 1.15.183-.144a1 1 0 011.404.172l1.152 1.476a1 1 0 001.734-.29l.097-.285-3.957-3.727a1 1 0 01-.178-1.231l.664-1.14zm.662-3.086a3 3 0 011.066 4.093l-.264.454 3.848 3.625a1 1 0 01.26 1.052l-.306.894c-.773 2.253-3.738 2.75-5.203.872l-.536-.686-.175.136a1 1 0 01-1.396-.163l-.998-1.248-.336.195a3 3 0 01-4.143-1.153L8.76 16.56a4 4 0 01.834-4.891l1.6-1.44a4 4 0 014.71-.47l2.558 1.51zM13.5 16a1.5 1.5 0 100-3 1.5 1.5 0 000 3z" fill="#000"/></svg>