<svg width="24" height="24" fill="none" xmlns="http://www.w3.org/2000/svg"><path fill-rule="evenodd" clip-rule="evenodd" d="M10 1a1 1 0 0 0-.707.293l-6 6A1 1 0 0 0 3 8v12a3 3 0 0 0 3 3h2a1 1 0 1 0 0-2H6a1 1 0 0 1-1-1V9h5a1 1 0 0 0 1-1V3h7a1 1 0 0 1 1 1v2a1 1 0 1 0 2 0V4a3 3 0 0 0-3-3h-8zM9 7H6.414L9 4.414V7zm8 2a4 4 0 0 0-4 4v1.304a3.001 3.001 0 0 0-2 2.83V20a3 3 0 0 0 3 3h6a3 3 0 0 0 3-3v-2.867a3.001 3.001 0 0 0-2-2.829V13a4 4 0 0 0-4-4zm2 4v1.133h-4V13a2 2 0 1 1 4 0zm-6 4.133a1 1 0 0 1 1-1h6a1 1 0 0 1 1 1V20a1 1 0 0 1-1 1h-6a1 1 0 0 1-1-1v-2.867z" fill="#000"/></svg>