<svg width="24" height="24" fill="none" xmlns="http://www.w3.org/2000/svg"><path fill-rule="evenodd" clip-rule="evenodd" d="M10 1a1 1 0 00-.707.293l-6 6A1 1 0 003 8v12a3 3 0 003 3h1a1 1 0 100-2H6a1 1 0 01-1-1V9h5a1 1 0 001-1V3h7a1 1 0 011 1v7a1 1 0 102 0V4a3 3 0 00-3-3h-8zM9 7H6.414L9 4.414V7zm1.308 16.563c.158.195.387.354.677.413.27.056.507.005.671-.055.302-.11.54-.317.694-.47.244-.24.5-.566.753-.934 1.11-.383 2.668-.735 4.184-.957.843-.123 1.63-.2 2.292-.226.262.31.501.575.7.776.124.126.262.257.398.357.06.045.175.125.322.182.077.03.58.222 1.043-.152.274-.22.526-.467.702-.744.177-.28.344-.706.205-1.19-.136-.475-.49-.74-.751-.878a2.885 2.885 0 00-.84-.266 6.562 6.562 0 00-.835-.085 55.008 55.008 0 01-2.03-2.714 37.345 37.345 0 01-1.602-2.461c.045-.193.082-.377.112-.553.05-.3.08-.602.073-.885a2.182 2.182 0 00-.196-.903 1.419 1.419 0 00-.912-.767c-.402-.108-.785-.027-1.079.082-.453.167-.702.54-.788.903a1.87 1.87 0 00.013.817c.094.438.313.943.566 1.436.022.044.045.089.069.133-.239.785-.591 1.71-1.01 2.668-.613 1.403-1.334 2.794-1.954 3.788-.423.177-.814.38-1.11.614-.202.159-.473.417-.603.795-.159.464-.046.928.236 1.276zm1.568-.468l.006-.007a.056.056 0 01-.006.007zm5.121-3.514c-.814.12-1.652.276-2.447.458.354-.687.703-1.419 1.022-2.148.18-.413.355-.833.517-1.248.247.374.505.753.767 1.125a59.1 59.1 0 001.22 1.676c-.357.038-.72.085-1.079.137zm-.936-7.197v-.002.002z" fill="#000"/></svg>