<svg width="24" height="24" fill="none" xmlns="http://www.w3.org/2000/svg"><path fill-rule="evenodd" clip-rule="evenodd" d="M9.293 1.293A1 1 0 0110 1h8a3 3 0 013 3v5a1 1 0 11-2 0V4a1 1 0 00-1-1h-7v5a1 1 0 01-1 1H5v11a1 1 0 001 1h4a1 1 0 110 2H6a3 3 0 01-3-3V8a1 1 0 01.293-.707l6-6zM6.414 7H9V4.414L6.414 7zm4.879 3.293a1 1 0 011.262-.125c.183.122.583.253 1.314.388.343.063.718.121 1.132.185l.015.003c.404.062.84.13 1.285.21 1.758.313 3.917.85 5.406 2.339 1.2 1.2 1.563 2.484 1.478 3.596a4.108 4.108 0 01-.402 1.48l.217.217a2 2 0 010 2.828L21.414 23a2 2 0 01-2.828 0l-.217-.217a4.108 4.108 0 01-1.48.402c-1.112.085-2.396-.278-3.596-1.478-1.49-1.49-2.026-3.648-2.34-5.406-.08-.445-.147-.881-.21-1.285L10.742 15a40.539 40.539 0 00-.185-1.132c-.135-.731-.266-1.131-.388-1.314a1 1 0 01.125-1.262l.5-.5.5-.5zm3.775 6.189l-2.456-2.455c.036.219.071.443.106.668v.006c.064.41.129.826.204 1.248.31 1.742.774 3.333 1.785 4.344.8.8 1.517.937 2.029.897.575-.044.976-.316 1.057-.397a1 1 0 011.414 0l.793.793L21.586 20l-.793-.793a1 1 0 010-1.414c.08-.08.353-.482.397-1.057.04-.512-.097-1.229-.897-2.029-1.01-1.01-2.602-1.474-4.344-1.785-.422-.075-.838-.14-1.248-.203l-.006-.001a78.48 78.48 0 01-.668-.106l2.455 2.456a2 2 0 11-1.414 1.414z" fill="#000"/></svg>