<svg width="24" height="24" fill="none" xmlns="http://www.w3.org/2000/svg"><path fill-rule="evenodd" clip-rule="evenodd" d="M4 2a3 3 0 0 0-3 3v14a3 3 0 0 0 3 3h3a1 1 0 1 0 0-2H4a1 1 0 0 1-1-1V9a1 1 0 0 1 1-1h16.1a.9.9 0 0 1 .9.9V9a1 1 0 1 0 2 0v-.1A2.9 2.9 0 0 0 20.1 6h-8.32l-.431-1.728A3 3 0 0 0 8.439 2H4zm0 4c-.35 0-.687.06-1 .17V5a1 1 0 0 1 1-1h4.438a1 1 0 0 1 .97.757L9.72 6H4zm18.121 5.707a3 3 0 0 0-4.242 0l-1.68 1.68-4.906 4.906a.999.999 0 0 0-.263.465l-1 4a1 1 0 0 0 1.213 1.212l4-1a.999.999 0 0 0 .464-.263l4.849-4.848 1.737-1.738a3 3 0 0 0 0-4.242l-.172-.172zm-2.828 1.414a1 1 0 0 1 1.414 0l.172.172a1 1 0 0 1 0 1.414l-1.017 1.017-1.555-1.617.986-.986zm-2.4 2.4l1.555 1.617-3.96 3.959-2.114.529.529-2.115 3.99-3.99z" fill="#000"/></svg>