<svg width="24" height="24" fill="none" xmlns="http://www.w3.org/2000/svg"><path fill-rule="evenodd" clip-rule="evenodd" d="M10 1a1 1 0 0 0-.707.293l-6 6A1 1 0 0 0 3 8v12a3 3 0 0 0 3 3h1a1 1 0 1 0 0-2H6a1 1 0 0 1-1-1V9h5a1 1 0 0 0 1-1V3h7a1 1 0 0 1 1 1v3a1 1 0 1 0 2 0V4a3 3 0 0 0-3-3h-8zM9 7H6.414L9 4.414V7zm13.121 3.707a3 3 0 0 0-4.242 0l-1.68 1.68-4.906 4.906a.999.999 0 0 0-.263.465l-1 4a1 1 0 0 0 1.213 1.212l4-1a.999.999 0 0 0 .464-.263l4.849-4.848 1.737-1.738a3 3 0 0 0 0-4.242l-.172-.172zm-3.814 2.4l.986-.986a1 1 0 0 1 1.414 0l.172.172a1 1 0 0 1 0 1.414l-1.017 1.017-1.555-1.617zm-1.415 1.415l1.556 1.616-3.96 3.959-2.114.529.529-2.115 3.99-3.99z" fill="#000"/></svg>