<svg width="24" height="24" fill="none" xmlns="http://www.w3.org/2000/svg"><path fill-rule="evenodd" clip-rule="evenodd" d="M10 1a1 1 0 00-.707.293l-6 6A1 1 0 003 8v12a3 3 0 003 3h5a1 1 0 100-2H6a1 1 0 01-1-1V9h5a1 1 0 001-1V3h7a1 1 0 011 1v4a1 1 0 102 0V4a3 3 0 00-3-3h-8zM9 7H6.414L9 4.414V7zm5.5 3a1.5 1.5 0 000 3h.5a1 1 0 001-1h1a1 1 0 110 2h-3a3 3 0 00-3 3v1a1 1 0 102 0v-1a1 1 0 011-1h3a3 3 0 100-6h-2.5zm8.5 5a1 1 0 10-2 0v1a1 1 0 01-1 1h-3a3 3 0 100 6h2.5a1.5 1.5 0 000-3H19a1 1 0 00-1 1h-1a1 1 0 110-2h3a3 3 0 003-3v-1z" fill="#000"/></svg>