<svg width="24" height="24" fill="none" xmlns="http://www.w3.org/2000/svg"><path fill-rule="evenodd" clip-rule="evenodd" d="M10 1a1 1 0 00-.707.293l-6 6A1 1 0 003 8v12a3 3 0 003 3h5a1 1 0 100-2H6a1 1 0 01-1-1V9h5a1 1 0 001-1V3h7a1 1 0 011 1v4a1 1 0 102 0V4a3 3 0 00-3-3h-8zM9 7H6.414L9 4.414V7zm4.51 4a1 1 0 00-.832.444l-2.51 3.75a1 1 0 00.11 1.248l6 6.25a1 1 0 001.443 0l6-6.25a1 1 0 00.11-1.248l-2.509-3.75a1 1 0 00-.831-.444h-6.982zm-1.232 4.638L14.043 13h5.914l1.765 2.638L17 20.556l-4.722-4.918z" fill="#000"/></svg>