<svg width="24" height="24" fill="none" xmlns="http://www.w3.org/2000/svg"><path fill-rule="evenodd" clip-rule="evenodd" d="M10 1a1 1 0 00-.707.293l-6 6A1 1 0 003 8v12a3 3 0 003 3h4a1 1 0 100-2H6a1 1 0 01-1-1V9h5a1 1 0 001-1V3h7a1 1 0 011 1v3a1 1 0 102 0V4a3 3 0 00-3-3h-8zM9 7H6.414L9 4.414V7zm13.641 4.3c-.486-.867-1.426-1.225-2.251-1.357-.862-.138-1.844-.074-2.776.117-.935.193-1.883.527-2.676.981-.767.44-1.523 1.068-1.862 1.914-.37.924-.316 1.776.068 2.522.352.683.94 1.195 1.466 1.587.268.2.548.39.806.563a5.976 5.976 0 00-1.187 1.092c-.634.776-1.297 2.105-.474 3.379.494.764 1.317.95 1.995.88.665-.068 1.326-.377 1.863-.794.908-.706 1.77-2.012 1.396-3.49.122.015.235.037.337.066.424.122.695.364.839.8a1 1 0 001.9-.624c-.363-1.104-1.166-1.805-2.187-2.098-.694-.2-1.462-.206-2.245-.077a9.116 9.116 0 00-.318-.242c-.243-.177-.5-.35-.74-.51l-.058-.039c-.263-.176-.506-.34-.731-.508-.466-.348-.747-.636-.884-.9-.104-.204-.156-.45.01-.862.095-.236.395-.577 1-.923.58-.332 1.32-.6 2.085-.758.769-.158 1.499-.19 2.057-.101.594.095.781.286.823.361.154.274.111.413.026.55-.131.21-.434.463-.901.673a3.722 3.722 0 01-1.317.33 1.448 1.448 0 01-.273-.013 1 1 0 00-1.633 1.131c.24.451.655.664.972.764.327.102.679.127 1.005.116a5.707 5.707 0 002.067-.504c.653-.294 1.352-.76 1.776-1.438.47-.752.536-1.673.022-2.588zm-6.863 8.684a3.92 3.92 0 011.227-.983c.218.518.006 1.118-.62 1.603-.31.242-.627.363-.839.384a.495.495 0 01-.124.001c-.072-.135-.106-.44.356-1.005zm-.38.997c.001 0 .007 0 .015.007-.012-.003-.016-.006-.015-.007zm2.961-7.18l.004.002a.038.038 0 01-.004-.002z" fill="#000"/></svg>