<svg width="24" height="24" fill="none" xmlns="http://www.w3.org/2000/svg"><path fill-rule="evenodd" clip-rule="evenodd" d="M1 5a3 3 0 0 1 3-3h4.438a3 3 0 0 1 2.91 2.272L11.782 6H20a3 3 0 0 1 3 3v2a1 1 0 1 1-2 0V9a1 1 0 0 0-1-1H4a1 1 0 0 0-1 1v10a1 1 0 0 0 1 1h5a1 1 0 1 1 0 2H4a3 3 0 0 1-3-3V5zm2 1.17c.313-.11.65-.17 1-.17h5.72l-.311-1.243A1 1 0 0 0 8.439 4H4a1 1 0 0 0-1 1v1.17zm17.172 12.587a5 5 0 1 0-1.414 1.414l2.535 2.536a1 1 0 0 0 1.414-1.414l-2.535-2.536zM13 16a3 3 0 1 1 6 0 3 3 0 0 1-6 0z" fill="#000"/></svg>