<svg width="24" height="24" fill="none" xmlns="http://www.w3.org/2000/svg"><path fill-rule="evenodd" clip-rule="evenodd" d="M2 4a3 3 0 0 1 3-3h14a3 3 0 0 1 3 3v2a2.997 2.997 0 0 1-1.341 2.5A2.997 2.997 0 0 1 22 11v2a2.997 2.997 0 0 1-1.341 2.5A2.997 2.997 0 0 1 22 18v2a3 3 0 0 1-3 3H5a3 3 0 0 1-3-3v-2c0-1.044.533-1.962 1.341-2.5A2.997 2.997 0 0 1 2 13v-2c0-1.043.533-1.963 1.341-2.5A2.997 2.997 0 0 1 2 6V4zm3-1a1 1 0 0 0-1 1v2a1 1 0 0 0 1 1h14a1 1 0 0 0 1-1V4a1 1 0 0 0-1-1H5zm0 7a1 1 0 0 0-1 1v2a1 1 0 0 0 1 1h14a1 1 0 0 0 1-1v-2a1 1 0 0 0-1-1H5zm-1 8a1 1 0 0 1 1-1h14a1 1 0 0 1 1 1v2a1 1 0 0 1-1 1H5a1 1 0 0 1-1-1v-2zm12.5 2.25a1.25 1.25 0 1 0 0-2.5 1.25 1.25 0 0 0 0 2.5zm0-7a1.25 1.25 0 1 0 0-2.5 1.25 1.25 0 0 0 0 2.5zm0-7a1.25 1.25 0 1 0 0-2.5 1.25 1.25 0 0 0 0 2.5z" fill="#000"/></svg>