<svg width="24" height="24" fill="none" xmlns="http://www.w3.org/2000/svg"><path fill-rule="evenodd" clip-rule="evenodd" d="M9.293 1.293A1 1 0 0110 1h8a3 3 0 013 3v4a1 1 0 11-2 0V4a1 1 0 00-1-1h-7v5a1 1 0 01-1 1H5v11a1 1 0 001 1h2a1 1 0 110 2H6a3 3 0 01-3-3V8a1 1 0 01.293-.707l6-6zM6.414 7H9V4.414L6.414 7zm12.891 6.28a1 1 0 011.414.025c1.708 1.769 1.708 4.621 0 6.39a1 1 0 01-1.438-1.39c.959-.993.959-2.617 0-3.61a1 1 0 01.024-1.414zM18 12c0-1.236-1.411-1.942-2.4-1.2L12.667 13H12a3 3 0 00-3 3v1a3 3 0 003 3h.667l2.933 2.2c.989.742 2.4.036 2.4-1.2v-9zm-4.133 2.6L16 13v7l-2.133-1.6a2 2 0 00-1.2-.4H12a1 1 0 01-1-1v-1a1 1 0 011-1h.667a2 2 0 001.2-.4z" fill="#000"/></svg>