<svg width="24" height="24" fill="none" xmlns="http://www.w3.org/2000/svg"><path fill-rule="evenodd" clip-rule="evenodd" d="M10 1a1 1 0 0 0-.707.293l-6 6A1 1 0 0 0 3 8v12a3 3 0 0 0 3 3h2a1 1 0 1 0 0-2H6a1 1 0 0 1-1-1V9h5a1 1 0 0 0 1-1V3h7a1 1 0 0 1 1 1v5a1 1 0 1 0 2 0V4a3 3 0 0 0-3-3h-8zM9 7H6.414L9 4.414V7zm8.217 4.393c-.435-1.003-1.859-1.003-2.294 0l-1.288 2.971-3.224.308c-1.089.103-1.529 1.457-.709 2.181l2.428 2.143-.704 3.161c-.238 1.068.913 1.905 1.855 1.349l2.789-1.647 2.789 1.646c.942.557 2.093-.28 1.855-1.348l-.704-3.16 2.428-2.144c.82-.724.38-2.078-.71-2.181l-3.223-.308-1.288-2.97zm-1.982 4.309l.835-1.926.835 1.926.235.541.588.056 2.09.2-1.574 1.389-.443.39.129.577.456 2.049-1.808-1.067-.508-.3-.508.3-1.808 1.067.456-2.049.129-.576-.443-.391-1.574-1.39 2.09-.199.588-.056.235-.541z" fill="#000"/></svg>