<svg width="24" height="24" fill="none" xmlns="http://www.w3.org/2000/svg"><path fill-rule="evenodd" clip-rule="evenodd" d="M1 5a3 3 0 013-3h4.438a3 3 0 012.91 2.272L11.782 6H20a3 3 0 013 3v1a1 1 0 11-2 0V9a1 1 0 00-1-1H4a1 1 0 00-1 1v10a1 1 0 001 1h4a1 1 0 110 2H4a3 3 0 01-3-3V5zm2 1.17c.313-.11.65-.17 1-.17h5.72l-.311-1.243A1 1 0 008.439 4H4a1 1 0 00-1 1v1.17zM17 19c-2.705 0-4 1.676-4 3a1 1 0 11-2 0c0-1.826 1.143-3.488 2.995-4.36a4 4 0 116.01 0C21.857 18.512 23 20.174 23 22a1 1 0 11-2 0c0-1.324-1.295-3-4-3zm0-2a2 2 0 100-4 2 2 0 000 4z" fill="#000"/></svg>