<svg width="24" height="24" fill="none" xmlns="http://www.w3.org/2000/svg"><path fill-rule="evenodd" clip-rule="evenodd" d="M8.293 1.293A1 1 0 0 1 9 1h8a3 3 0 0 1 3 3v4a1 1 0 1 1-2 0V4a1 1 0 0 0-1-1h-7v5a1 1 0 0 1-1 1H4v11a1 1 0 0 0 1 1h3a1 1 0 1 1 0 2H5a3 3 0 0 1-3-3V8a1 1 0 0 1 .293-.707l6-6zM5.414 7H8V4.414L5.414 7zM17 19c-2.705 0-4 1.676-4 3a1 1 0 1 1-2 0c0-1.826 1.143-3.488 2.995-4.36a4 4 0 1 1 6.01 0C21.857 18.512 23 20.174 23 22a1 1 0 1 1-2 0c0-1.324-1.295-3-4-3zm0-2a2 2 0 1 0 0-4 2 2 0 0 0 0 4z" fill="#000"/></svg>