<svg width="24" height="24" fill="none" xmlns="http://www.w3.org/2000/svg"><path fill-rule="evenodd" clip-rule="evenodd" d="M10 1a1 1 0 00-.707.293l-6 6A1 1 0 003 8v12a3 3 0 003 3h4a1 1 0 100-2H6a1 1 0 01-1-1V9h5a1 1 0 001-1V3h7a1 1 0 011 1v5a1 1 0 102 0V4a3 3 0 00-3-3h-8zM9 7H6.414L9 4.414V7zm3.952 5.694a1 1 0 10-1.904.612l2.25 7a1 1 0 001.904 0l1.298-4.038 1.298 4.038a1 1 0 001.904 0l2.25-7a1 1 0 10-1.904-.612l-1.298 4.038-1.298-4.038a1 1 0 00-1.904 0l-1.298 4.038-1.298-4.038z" fill="#000"/></svg>