<svg width="24" height="24" fill="none" xmlns="http://www.w3.org/2000/svg"><path fill-rule="evenodd" clip-rule="evenodd" d="M10 1a1 1 0 00-.707.293l-6 6A1 1 0 003 8v12a3 3 0 003 3h12a3 3 0 003-3V4a3 3 0 00-3-3h-8zm1 2h7a1 1 0 011 1v16a1 1 0 01-1 1H6a1 1 0 01-1-1V9h5a1 1 0 001-1V3zM9 7H6.414L9 4.414V7zm3 6.586l-2.293-2.293a1 1 0 00-1.414 1.414L10.586 15l-2.293 2.293a1 1 0 101.414 1.414L12 16.414l2.293 2.293a1 1 0 001.414-1.414L13.414 15l2.293-2.293a1 1 0 00-1.414-1.414L12 13.586z" fill="#000"/></svg>