<svg width="24" height="24" fill="none" xmlns="http://www.w3.org/2000/svg"><path fill-rule="evenodd" clip-rule="evenodd" d="M9.293 1.293A1 1 0 0110 1h8a3 3 0 013 3v13a1 1 0 11-2 0V4a1 1 0 00-1-1h-7v5a1 1 0 01-1 1H5v11a1 1 0 001 1h2a1 1 0 110 2H6a3 3 0 01-3-3V8a1 1 0 01.293-.707l6-6zM14.5 3a1.5 1.5 0 110 3 1.5 1.5 0 010-3zM6.414 7H9V4.414L6.414 7zM11 20.577A3.423 3.423 0 0014.423 24h.154A3.423 3.423 0 0018 20.577c0-.706-.18-1.401-.523-2.019l-1.491-2.684a1.7 1.7 0 00-2.972 0l-1.49 2.684A4.156 4.156 0 0011 20.578zM14.5 22a1.5 1.5 0 100-3 1.5 1.5 0 000 3zm0-8a1.5 1.5 0 100-3 1.5 1.5 0 000 3zM16 8.5a1.5 1.5 0 11-3 0 1.5 1.5 0 013 0z" fill="#000"/></svg>