<svg width="24" height="24" viewBox="0 0 24 24" fill="none" xmlns="http://www.w3.org/2000/svg">
<path fill-rule="evenodd" clip-rule="evenodd" d="M14 4C14 4.0793 13.9954 4.15752 13.9864 4.23441C14.6078 4.39529 15.1564 4.63627 15.6368 4.94896L14.1699 6.41585C13.6414 6.16531 12.9414 6 12 6C10.6723 6 9.82479 6.32883 9.2611 6.7618C8.69087 7.19981 8.31404 7.81905 8.06479 8.56638C7.81309 9.32109 7.70742 10.159 7.65295 10.973C7.63106 11.3002 7.61806 11.6104 7.60552 11.9094L7.60552 11.9095V11.9095L7.59635 12.1255C7.58242 12.4452 7.56614 12.7698 7.53273 13.0531L4.96511 15.6207C5.20312 14.9011 5.3859 14.0218 5.5404 12.8673C5.56703 12.6684 5.58253 12.3994 5.59824 12.0385L5.60684 11.8357L5.60684 11.8357L5.60684 11.8357C5.61942 11.5351 5.63369 11.1941 5.65742 10.8395C5.71587 9.96595 5.83559 8.92891 6.16753 7.93362C6.50193 6.93095 7.06702 5.92519 8.0428 5.1757C8.59543 4.75121 9.24943 4.43224 10.0136 4.23441C10.0046 4.15752 10 4.0793 10 4C10 2.89543 10.8954 2 12 2C13.1046 2 14 2.89543 14 4ZM12 23C13.1046 23 14 22.1046 14 21C14 20.6357 13.9026 20.2942 13.7324 20H20C20.4045 20 20.7691 19.7564 20.9239 19.3827C21.0787 19.009 20.9931 18.5789 20.7071 18.2929C20.0344 17.6202 19.5816 16.9754 19.2438 16.1741C18.8982 15.3543 18.6552 14.329 18.4596 12.8673C18.433 12.6684 18.4175 12.3994 18.4018 12.0385L18.3932 11.8357C18.3806 11.5351 18.3663 11.1941 18.3426 10.8395C18.3098 10.3503 18.2579 9.80975 18.1602 9.25401L16.3528 11.0614C16.3713 11.3562 16.3831 11.6374 16.3945 11.9094L16.3945 11.9096L16.3945 11.9096L16.4037 12.1255C16.4189 12.4756 16.437 12.8316 16.4773 13.1327C16.6832 14.671 16.956 15.8957 17.4008 16.9509C17.5582 17.3244 17.735 17.6714 17.9333 18H9.41422L7.41422 20H10.2676C10.0974 20.2942 10 20.6357 10 21C10 22.1046 10.8954 23 12 23ZM19.7071 5.70711C20.0976 5.31658 20.0976 4.68342 19.7071 4.29289C19.3166 3.90237 18.6834 3.90237 18.2929 4.29289L2.29289 20.2929C1.90237 20.6834 1.90237 21.3166 2.29289 21.7071C2.68342 22.0976 3.31658 22.0976 3.70711 21.7071L19.7071 5.70711Z" fill="black"/>
</svg>
