<svg width="24" height="24" viewBox="0 0 24 24" fill="none" xmlns="http://www.w3.org/2000/svg">
<path fill-rule="evenodd" clip-rule="evenodd" d="M6 6C6 5.44772 6.44772 5 7 5H17C17.5523 5 18 5.44772 18 6V18C18 18.3603 17.8062 18.6927 17.4927 18.8702C17.1792 19.0477 16.7944 19.0429 16.4855 18.8575L12 16.1662L7.5145 18.8575C7.20557 19.0429 6.82081 19.0477 6.5073 18.8702C6.19379 18.6927 6 18.3603 6 18V6ZM8 7V16.2338L11.4855 14.1425C11.8022 13.9525 12.1978 13.9525 12.5145 14.1425L16 16.2338V7H8Z" fill="black"/>
</svg>
