<svg width="24" height="24" viewBox="0 0 24 24" fill="none" xmlns="http://www.w3.org/2000/svg">
<path fill-rule="evenodd" clip-rule="evenodd" d="M11 15.6458C10.2671 16.4763 9.19469 17 8 17C5.79086 17 4 15.2092 4 13C4 10.7908 5.79086 9 8 9C8.18927 9 8.37549 9.01312 8.55774 9.03857C8.20343 8.44159 8 7.74457 8 7C8 4.79083 9.79086 3 12 3C14.2091 3 16 4.79083 16 7C16 7.74457 15.7966 8.44159 15.4423 9.03857C15.6245 9.01312 15.8107 9 16 9C18.2091 9 20 10.7908 20 13C20 15.2092 18.2091 17 16 17C14.8053 17 13.7329 16.4763 13 15.6458V19H14C14.5523 19 15 19.4477 15 20C15 20.5523 14.5523 21 14 21H12H10C9.44772 21 9 20.5523 9 20C9 19.4477 9.44772 19 10 19H11V15.6458ZM10.6229 10.1144C10.3875 10.5232 7.46766 11.0716 7.46766 11.0716C6.6215 11.3047 6 12.0798 6 13C6 14.1046 6.89543 15 8 15C8.48565 15 8.93087 14.8269 9.27733 14.539C9.33942 14.4875 9.39834 14.4322 9.45375 14.3735C9.45375 14.3735 11.5 12.0006 12 12C12.5 11.9994 14.5524 14.3803 14.5524 14.3803C14.605 14.4354 14.6617 14.4884 14.7227 14.539C15.0691 14.8269 15.5144 15 16 15C17.1046 15 18 14.1046 18 13C18 12.0798 17.3785 11.3047 16.5323 11.0716C16.5323 11.0716 13.5991 10.5 13.3771 10.1144C13.2662 9.92171 13.4217 9.41965 13.605 8.8277C13.7886 8.23516 14 7.55256 14 7C14 5.89543 13.1046 5 12 5C10.8954 5 10 5.89543 10 7C10 7.54575 10.2095 8.21271 10.3931 8.79718C10.5811 9.39563 10.742 9.9076 10.6229 10.1144Z" fill="black"/>
</svg>
