<svg width="24" height="24" viewBox="0 0 24 24" fill="none" xmlns="http://www.w3.org/2000/svg">
<path fill-rule="evenodd" clip-rule="evenodd" d="M12.6247 5.21914C11.0416 3.95267 9.18319 3.99214 7.85649 4.27145C7.04755 4.44175 6.22551 4.72012 5.50386 5.13176C5.19228 5.30981 5 5.64115 5 6.00001V20C5 20.5523 5.44772 21 6 21C6.55228 21 7 20.5523 7 20V14.6294C8.37617 14.0493 10.124 13.7799 11.3753 14.7809C12.9584 16.0473 14.8168 16.0079 16.1435 15.7286C17.1559 15.5154 17.9441 15.1521 18.2954 14.9747C18.6869 14.7771 19 14.4734 19 14V6.00001C19 5.64353 18.8102 5.31402 18.5019 5.13509C18.1938 4.95629 17.8144 4.95462 17.505 5.13114L17.5041 5.13162C16.0661 5.91734 14.0013 6.32045 12.6247 5.21914ZM7 6.62938V12.499C8.88136 11.8968 11.021 11.9362 12.6247 13.2191C13.5416 13.9527 14.6832 13.9922 15.7315 13.7715C16.2336 13.6657 16.6769 13.5068 17 13.3706V7.50105C16.739 7.5846 16.4511 7.6638 16.1435 7.72856C14.8168 8.00787 12.9584 8.04734 11.3753 6.78087C10.124 5.77986 8.37617 6.04932 7 6.62938Z" fill="black"/>
</svg>
