<svg width="24" height="24" viewBox="0 0 24 24" fill="none" xmlns="http://www.w3.org/2000/svg">
<path fill-rule="evenodd" clip-rule="evenodd" d="M7.85649 4.27145C9.18319 3.99214 11.0416 3.95267 12.6247 5.21914C13.5416 5.95268 14.6832 5.99216 15.7315 5.77146C16.2454 5.66327 16.6976 5.49936 17.0225 5.3611C17.1837 5.29249 17.3104 5.23157 17.394 5.18935C17.4358 5.16828 17.4665 5.152 17.4852 5.1419L17.5041 5.13162C17.5056 5.13074 17.5064 5.1303 17.5064 5.13032L17.5057 5.13069L17.505 5.13114L17.5044 5.13143C17.8138 4.95491 18.1938 4.95629 18.5019 5.13509C18.8102 5.31402 19 5.64353 19 6.00001V14C19 14.3589 18.8077 14.6902 18.4961 14.8682L18 14C18.4961 14.8682 18.4958 14.8684 18.4955 14.8686L18.4947 14.8691L18.493 14.87L18.4885 14.8726L18.4757 14.8797C18.4655 14.8854 18.4518 14.8929 18.4349 14.9021C18.4011 14.9203 18.3543 14.945 18.2954 14.9747C18.1778 15.0341 18.0116 15.1138 17.8056 15.2014C17.3962 15.3757 16.8171 15.5867 16.1435 15.7286C14.8168 16.0079 12.9584 16.0473 11.3753 14.7809C10.4584 14.0473 9.31681 14.0079 8.26851 14.2285C7.76638 14.3343 7.32313 14.4932 7 14.6294V20C7 20.5523 6.55228 21 6 21C5.44772 21 5 20.5523 5 20V14V6.00001C5 5.64115 5.19228 5.30981 5.50386 5.13176L6 6.00001C5.50386 5.13176 5.50419 5.13158 5.50453 5.13138L5.50528 5.13096L5.50702 5.12996L5.51149 5.12744L5.5243 5.12027C5.53455 5.11457 5.54819 5.10707 5.56508 5.09796C5.59886 5.07973 5.64574 5.055 5.70459 5.02529C5.82215 4.96594 5.98843 4.88624 6.19438 4.7986C6.60385 4.62436 7.18288 4.41326 7.85649 4.27145ZM7 6.62938V12.499C7.26101 12.4154 7.54889 12.3362 7.85649 12.2715C9.18319 11.9921 11.0416 11.9527 12.6247 13.2191C13.5416 13.9527 14.6832 13.9922 15.7315 13.7715C16.2336 13.6657 16.6769 13.5068 17 13.3706V7.50105C16.739 7.5846 16.4511 7.6638 16.1435 7.72856C14.8168 8.00787 12.9584 8.04734 11.3753 6.78087C10.4584 6.04733 9.31681 6.00785 8.26851 6.22855C7.76638 6.33426 7.32313 6.49318 7 6.62938Z" fill="black"/>
</svg>
