<svg width="24" height="24" viewBox="0 0 24 24" fill="none" xmlns="http://www.w3.org/2000/svg">
<path fill-rule="evenodd" clip-rule="evenodd" d="M8.5 7C7.11024 7 6 8.11336 6 9.46667C6 10.9908 6.88166 12.6171 8.24626 14.2099C9.39162 15.5468 10.7839 16.7532 12 17.7264C13.2161 16.7532 14.6084 15.5468 15.7537 14.2099C17.1183 12.6171 18 10.9908 18 9.46667C18 8.11336 16.8898 7 15.5 7C14.1102 7 13 8.11336 13 9.46667C13 10.019 12.5523 10.4667 12 10.4667C11.4477 10.4667 11 10.019 11 9.46667C11 8.11336 9.88976 7 8.5 7ZM12 6.6587C11.1735 5.64559 9.91012 5 8.5 5C6.02376 5 4 6.99079 4 9.46667C4 11.7183 5.26747 13.807 6.72743 15.5111C8.20812 17.2395 10.0243 18.7293 11.3857 19.7891C11.747 20.0703 12.253 20.0703 12.6143 19.7891C13.9757 18.7293 15.7919 17.2395 17.2726 15.5111C18.7325 13.807 20 11.7183 20 9.46667C20 6.99079 17.9762 5 15.5 5C14.0899 5 12.8265 5.64559 12 6.6587Z" fill="black"/>
</svg>
