<svg width="24" height="24" viewBox="0 0 24 24" fill="none" xmlns="http://www.w3.org/2000/svg">
<path fill-rule="evenodd" clip-rule="evenodd" d="M11 15.6458C10.2671 16.4762 9.1947 17 8 17C5.79083 17 4 15.2091 4 13C4 10.7909 5.79083 9 8 9C8.18927 9 8.37549 9.01315 8.55774 9.03857C8.20343 8.44159 8 7.74457 8 7C8 4.79086 9.79083 3 12 3C14.2092 3 16 4.79086 16 7C16 7.74457 15.7966 8.44159 15.4423 9.03857C15.6245 9.01315 15.8107 9 16 9C18.2092 9 20 10.7909 20 13C20 15.2091 18.2092 17 16 17C14.8053 17 13.7329 16.4762 13 15.6458V19H14C14.5523 19 15 19.4477 15 20C15 20.5523 14.5523 21 14 21H10C9.44772 21 9 20.5523 9 20C9 19.4477 9.44772 19 10 19H11V15.6458Z" fill="black"/>
</svg>
