<svg width="24" height="24" viewBox="0 0 24 24" fill="none" xmlns="http://www.w3.org/2000/svg">
<path d="M7.85649 4.27145C9.18319 3.99214 11.0416 3.95267 12.6247 5.21914C13.5416 5.95268 14.6832 5.99216 15.7315 5.77146C16.3427 5.64279 16.9542 5.43205 17.5041 5.13162L17.505 5.13114C17.8144 4.95462 18.1938 4.95629 18.5019 5.13509C18.8102 5.31402 19 5.64353 19 6.00001V14C19 14.3589 18.8077 14.6902 18.4961 14.8682C17.7748 15.2802 16.9522 15.5583 16.1435 15.7286C14.8168 16.0079 12.9584 16.0473 11.3753 14.7809C10.4584 14.0473 9.31681 14.0079 8.26851 14.2285C7.76638 14.3343 7.32313 14.4932 7 14.6294V20C7 20.5523 6.55228 21 6 21C5.44772 21 5 20.5523 5 20V6.00001C5 5.64115 5.19228 5.30981 5.50386 5.13176L5.50528 5.13096C6.2346 4.72732 7.0428 4.44276 7.85649 4.27145Z" fill="black"/>
</svg>
