<svg width="24" height="24" viewBox="0 0 24 24" fill="none" xmlns="http://www.w3.org/2000/svg">
<path fill-rule="evenodd" clip-rule="evenodd" d="M11 16.2909C10.2748 16.742 9.40877 17 8.5 17C6.10095 17 4 15.2021 4 12.8C4 11.3599 4.88653 10.3583 5.73819 9.60941C6.08979 9.30025 6.48114 8.9962 6.85261 8.7076L6.85264 8.70758C6.93608 8.64276 7.01851 8.57871 7.09926 8.51557C7.55476 8.15938 7.98049 7.81421 8.35799 7.44188C9.5373 6.27871 10.6261 4.43676 11.1207 3.52372C11.2955 3.20102 11.633 3 12 3C12.367 3 12.7045 3.20102 12.8793 3.52372C13.3739 4.43676 14.4627 6.27871 15.642 7.44188C16.0195 7.81421 16.4452 8.15938 16.9007 8.51557C16.9815 8.57871 17.0639 8.64276 17.1474 8.70758L17.1474 8.70759C17.5188 8.9962 17.9102 9.30025 18.2618 9.60941C19.1135 10.3583 20 11.3599 20 12.8C20 15.2021 17.899 17 15.5 17C14.5912 17 13.7252 16.742 13 16.2909V19H14C14.5523 19 15 19.4477 15 20C15 20.5523 14.5523 21 14 21H10C9.44772 21 9 20.5523 9 20C9 19.4477 9.44772 19 10 19H11V16.2909Z" fill="black"/>
</svg>
