<svg width="24" height="24" viewBox="0 0 24 24" fill="none" xmlns="http://www.w3.org/2000/svg">
<path fill-rule="evenodd" clip-rule="evenodd" d="M13.9864 4.2344C13.9954 4.15751 14 4.0793 14 4C14 2.89543 13.1046 2 12 2C10.8954 2 10 2.89543 10 4C10 4.0793 10.0046 4.15752 10.0136 4.23441C9.24944 4.43225 8.59545 4.75122 8.04283 5.1757C7.06705 5.92519 6.50196 6.93095 6.16756 7.93362C5.83561 8.92891 5.7159 9.96595 5.65744 10.8395C5.64081 11.0881 5.63272 11.3383 5.62462 11.5887C5.61079 12.0166 5.59694 12.4452 5.54043 12.8673C5.3434 14.3395 5.1004 15.3642 4.75553 16.1809C4.4186 16.9787 3.96694 17.6189 3.29292 18.2929C3.00692 18.5789 2.92137 19.009 3.07615 19.3827C3.23093 19.7564 3.59557 20 4.00003 20H10.2676C10.0974 20.2942 10 20.6357 10 21C10 22.1046 10.8954 23 12 23C13.1046 23 14 22.1046 14 21C14 20.6357 13.9026 20.2942 13.7324 20H20C20.4045 20 20.7691 19.7564 20.9239 19.3827C21.0787 19.009 20.9931 18.5789 20.7071 18.2929C20.0345 17.6202 19.5816 16.9754 19.2438 16.1741C18.8982 15.3543 18.6553 14.329 18.4596 12.8673C18.4031 12.4452 18.3893 12.0166 18.3754 11.5888L18.3754 11.5887C18.3673 11.3382 18.3592 11.088 18.3426 10.8395C18.2842 9.96595 18.1644 8.92891 17.8325 7.93362C17.4981 6.93095 16.933 5.92519 15.9572 5.1757C15.4046 4.75121 14.7506 4.43223 13.9864 4.2344Z" fill="black"/>
</svg>
