<svg width="24" height="24" viewBox="0 0 24 24" fill="none" xmlns="http://www.w3.org/2000/svg">
<path fill-rule="evenodd" clip-rule="evenodd" d="M9 20C9 20.5523 9.44772 21 10 21H12H14C14.5523 21 15 20.5523 15 20C15 19.4477 14.5523 19 14 19H13V16.2909C13.7252 16.742 14.5912 17 15.5 17C17.899 17 20 15.2021 20 12.8C20 11.3599 19.1135 10.3583 18.2618 9.60941C17.9102 9.30024 17.5188 8.99618 17.1474 8.70757C17.0639 8.64275 16.9815 8.57871 16.9007 8.51557C16.4452 8.15938 16.0195 7.81421 15.642 7.44188C14.4627 6.27871 13.3739 4.43676 12.8793 3.52372C12.7045 3.20102 12.367 3 12 3C11.633 3 11.2955 3.20102 11.1207 3.52372C10.6261 4.43676 9.5373 6.27871 8.35799 7.44188C7.98049 7.81421 7.55476 8.15938 7.09926 8.51557C7.01851 8.57871 6.93608 8.64275 6.85265 8.70757C6.48117 8.99618 6.0898 9.30024 5.73819 9.60941C4.88653 10.3583 4 11.3599 4 12.8C4 15.2021 6.10095 17 8.5 17C9.40877 17 10.2748 16.742 11 16.2909V19H10C9.44772 19 9 19.4477 9 20ZM11 12.8C11 13.9326 9.96695 15 8.5 15C7.03305 15 6 13.9326 6 12.8C6 12.2682 6.30145 11.7773 7.05883 11.1114C7.36037 10.8462 7.69159 10.5888 8.05967 10.3026C8.14804 10.2339 8.23853 10.1636 8.33125 10.0911C8.79494 9.72848 9.2978 9.32407 9.76242 8.86581C10.6209 8.01911 11.4047 6.91761 12 5.97574C12.5953 6.91761 13.3791 8.01911 14.2376 8.86581C14.7022 9.32407 15.2051 9.72848 15.6687 10.0911C15.7615 10.1636 15.852 10.2339 15.9403 10.3026C16.3084 10.5888 16.6396 10.8462 16.9412 11.1114C17.6986 11.7773 18 12.2682 18 12.8C18 13.9326 16.9669 15 15.5 15C14.0331 15 13 13.9326 13 12.8C13 12.2477 12.5523 11.8 12 11.8C11.4477 11.8 11 12.2477 11 12.8Z" fill="black"/>
</svg>
