<svg width="24" height="24" viewBox="0 0 24 24" fill="none" xmlns="http://www.w3.org/2000/svg">
<path fill-rule="evenodd" clip-rule="evenodd" d="M9 4C4.58172 4 1 7.58172 1 12C1 16.4183 4.58172 20 9 20H15C19.4183 20 23 16.4183 23 12C23 7.58172 19.4183 4 15 4H9ZM3 12C3 8.68629 5.68629 6 9 6H15C18.3137 6 21 8.68629 21 12C21 15.3137 18.3137 18 15 18H9C5.68629 18 3 15.3137 3 12ZM6 12C6 10.3431 7.34315 9 9 9C10.6569 9 12 10.3431 12 12C12 13.6569 10.6569 15 9 15C7.34315 15 6 13.6569 6 12ZM9 7C6.23858 7 4 9.23858 4 12C4 14.7614 6.23858 17 9 17C11.7614 17 14 14.7614 14 12C14 9.23858 11.7614 7 9 7Z" fill="black"/>
</svg>
