<svg width="24" height="24" fill="none" xmlns="http://www.w3.org/2000/svg"><path fill-rule="evenodd" clip-rule="evenodd" d="M21.207.293a1 1 0 00-1.414 0l-2.5 2.5A1 1 0 0017 3.5V5a9.956 9.956 0 00-6-2C5.477 3 1 7.477 1 13s4.477 10 10 10 10-4.477 10-10a9.956 9.956 0 00-2-6h1.5a1 1 0 00.707-.293l2.5-2.5a1 1 0 000-1.414l-2.5-2.5zM15.906 6.68a8 8 0 101.414 1.414l-1.43 1.43a6 6 0 11-1.414-1.414l1.43-1.43zm-2.874 2.874a4 4 0 101.414 1.414l-1.313 1.313a2.25 2.25 0 11-1.414-1.414l1.313-1.313zM20.086 5H19V3.914l1.5-1.5L21.586 3.5l-1.5 1.5z" fill="#000"/></svg>