<svg width="24" height="24" fill="none" xmlns="http://www.w3.org/2000/svg"><path fill-rule="evenodd" clip-rule="evenodd" d="M5 2a1 1 0 000 2h1.5A2.5 2.5 0 004 6.5v1.626C2.275 8.57 1 10.136 1 12v8a2 2 0 002 2h6a2 2 0 002-2v-1.338a.997.997 0 00.75.338h.5c.299 0 .567-.13.75-.338V20a2 2 0 002 2h6a2 2 0 002-2v-8a4.002 4.002 0 00-3-3.874V6.5A2.5 2.5 0 0017.5 4H19a1 1 0 100-2h-4a1 1 0 100 2h1.5A2.5 2.5 0 0014 6.5v1.768A2 2 0 0013 10v.338a.997.997 0 00-.75-.338h-.5a.997.997 0 00-.75.338V10a2 2 0 00-1-1.732V6.5A2.5 2.5 0 007.5 4H9a1 1 0 000-2H5zm8 15.338v-5.677a.997.997 0 01-.75.339h-.5a.997.997 0 01-.75-.338v5.676a.997.997 0 01.75-.338h.5c.299 0 .567.13.75.338zM3 12a2 2 0 012-2h4v10H3v-8zm3-5.5V8h2V6.5a.5.5 0 00-.5-.5h-1a.5.5 0 00-.5.5zM21 12a2 2 0 00-2-2h-4v10h6v-8zm-3-5.5V8h-2V6.5a.5.5 0 01.5-.5h1a.5.5 0 01.5.5z" fill="#000"/></svg>