<svg width="24" height="24" fill="none" xmlns="http://www.w3.org/2000/svg"><path fill-rule="evenodd" clip-rule="evenodd" d="M23.98 1.196A1 1 0 0 0 22.805.02l-5 1a1 1 0 0 0 .392 1.962l1.761-.353-3.08 3.082A14.943 14.943 0 0 0 7 2H1a1 1 0 1 0 0 2c0 .256.098.512.293.707L9.586 13l-1 1H5a1 1 0 0 0-.707.293l-4 4A1 1 0 0 0 1 20h3v3a1 1 0 0 0 1.707.707l4-4A1 1 0 0 0 10 19v-3.586l1-1 8.293 8.293A.997.997 0 0 0 20 23a1 1 0 1 0 2 0v-6c0-3.782-1.4-7.238-3.71-9.876l3.082-3.081-.353 1.76a1 1 0 0 0 1.962.393l1-5zm-8.522 5.932A12.949 12.949 0 0 0 7 4H3.414L11 11.586l4.458-4.458zM12.414 13l4.458-4.458A12.95 12.95 0 0 1 20 17v3.586L12.414 13zm-7 3h1.172l-2 2H3.414l2-2zM8 18.586l-2 2v-1.172l2-2v1.172z" fill="#000"/></svg>