<svg width="24" height="24" fill="none" xmlns="http://www.w3.org/2000/svg"><path fill-rule="evenodd" clip-rule="evenodd" d="M3.022 1.792A1 1 0 0 1 4 1h3.5c3.317 0 6.45 1.157 9.014 3.055l.3-.283a1 1 0 0 1 1.393.02l2 2a1 1 0 0 1 .02 1.394l-.282.3C21.843 10.05 23 13.183 23 16.5V20a1 1 0 0 1-1.914.406c-1.531-3.445-3.198-6.262-5.167-8.647L5.79 22.555a2.5 2.5 0 0 1-3.591.057l-.81-.81a2.5 2.5 0 0 1 .057-3.59L12.24 8.08C9.856 6.11 7.039 4.445 3.594 2.914a1 1 0 0 1-.572-1.122zm10.72 7.623L2.813 19.67a.5.5 0 0 0-.011.718l.81.81a.5.5 0 0 0 .718-.011l10.255-10.929a27.015 27.015 0 0 0-.844-.843zM8.319 3.027c2.286 1.273 4.293 2.674 6.084 4.276.808.723 1.57 1.485 2.294 2.294 1.602 1.79 3.003 3.798 4.276 6.084-.188-2.81-1.332-5.464-3.116-7.618a14.497 14.497 0 0 0-1.92-1.92C13.783 4.359 11.13 3.215 8.32 3.027z" fill="#000"/></svg>