<svg width="24" height="24" fill="none" xmlns="http://www.w3.org/2000/svg"><path fill-rule="evenodd" clip-rule="evenodd" d="M3.022 1.792A1 1 0 0 1 4 1h3.5c3.317 0 6.45 1.157 9.014 3.055l.3-.283a1 1 0 0 1 1.393.02l2 2a1 1 0 0 1 .02 1.394l-.282.3C21.843 10.05 23 13.183 23 16.5V20a1 1 0 0 1-1.914.406c-1.528-3.437-3.19-6.25-5.153-8.63L5.8 23a2.5 2.5 0 0 1-3.623.092L.909 21.823a2.5 2.5 0 0 1 .092-3.623L12.224 8.067c-2.38-1.963-5.193-3.625-8.63-5.153a1 1 0 0 1-.572-1.122zm10.707 7.61L2.342 19.685a.5.5 0 0 0-.019.725l1.268 1.268a.5.5 0 0 0 .725-.019l10.281-11.387a27.085 27.085 0 0 0-.868-.868zm-5.41-6.375c2.286 1.273 4.293 2.674 6.084 4.276.808.723 1.571 1.485 2.294 2.294 1.602 1.79 3.003 3.798 4.276 6.084-.188-2.81-1.332-5.464-3.116-7.618a14.497 14.497 0 0 0-1.92-1.92C13.783 4.359 11.13 3.215 8.32 3.027z" fill="#000"/></svg>