<svg width="24" height="24" fill="none" xmlns="http://www.w3.org/2000/svg"><path fill-rule="evenodd" clip-rule="evenodd" d="M3.428 1.096a1 1 0 0 0-1.356.533l-.076.19a6.5 6.5 0 0 0 3.264 8.294L9.8 12.25l-6.48 2.684a4.5 4.5 0 0 0 3.444 8.315l13.858-5.74a4.5 4.5 0 0 0-.439-8.471L3.428 1.096zM16.465 9.49l-4.17 1.727-6.182-2.914a4.501 4.501 0 0 1-2.504-4.908L16.465 9.49zm1.477 1.553a2.489 2.489 0 0 1 1.633-.098 2.5 2.5 0 0 1 .28 4.717l-13.857 5.74a2.5 2.5 0 0 1-1.914-4.62l8.568-3.548 5.29-2.191zM5 20a1 1 0 1 0 0-2 1 1 0 0 0 0 2z" fill="#000"/></svg>