<svg width="24" height="24" fill="none" xmlns="http://www.w3.org/2000/svg"><path fill-rule="evenodd" clip-rule="evenodd" d="M19 21a1 1 0 0 1-1 1H6a1 1 0 0 1-1-1v-2.25A1.75 1.75 0 0 0 3.25 17C2.56 17 2 16.44 2 15.75V11C2 5.477 6.477 1 12 1s10 4.477 10 10v4.75c0 .69-.56 1.25-1.25 1.25A1.75 1.75 0 0 0 19 18.75V21zm-2-1v-1.25a3.751 3.751 0 0 1 3-3.675V11a8 8 0 1 0-16 0v4.075c1.712.348 3 1.86 3 3.675V20h2v-2a1 1 0 1 1 2 0v2h2v-2a1 1 0 1 1 2 0v2h2zm-6-7.5c0 1.38-2.368 2.5-3.748 2.5-1.267 0-1.26-.945-1.25-2.17l.001-.33a2.5 2.5 0 1 1 4.997 0zm6.998.33l-.001-.33a2.5 2.5 0 1 0-4.997 0c0 1.38 2.368 2.5 3.747 2.5 1.268 0 1.26-.945 1.251-2.17z" fill="#000"/></svg>