<svg width="24" height="24" fill="none" xmlns="http://www.w3.org/2000/svg"><path fill-rule="evenodd" clip-rule="evenodd" d="M19 0h4a1 1 0 011 1v4a1 1 0 01-.293.707L11.914 17.5l1.793 1.793a1 1 0 01-1.414 1.414l-2.5-2.5-.33-.329L6 20.995A3 3 0 113.005 18l3.117-3.464-.33-.329-2.5-2.5a1 1 0 111.415-1.414L6.5 12.086 18.293.293A1 1 0 0119 0zM7.914 13.5l.293.293 2 2 .293.293L22 4.586V2h-2.586l-11.5 11.5zm-.376 2.452l-2.534 2.816a3.014 3.014 0 01.228.228l2.816-2.534-.51-.51zm-4.331 4.07a1 1 0 10-.414 1.957 1 1 0 00.414-1.958z" fill="#000"/></svg>