<svg width="24" height="24" fill="none" xmlns="http://www.w3.org/2000/svg"><path fill-rule="evenodd" clip-rule="evenodd" d="M14.367 2.157a2 2 0 011.265 0l5 1.666A2 2 0 0122 5.721v13.892a2 2 0 01-2.633 1.897L15 20.054l-5.368 1.79a2 2 0 01-1.264 0l-5-1.667A2 2 0 012 18.279V4.387A2 2 0 014.632 2.49L9 3.946l5.367-1.79zM15 4.054l-5.368 1.79a2 2 0 01-1.264 0L4 4.386V18.28l5 1.667 5.367-1.79a2 2 0 011.265 0L20 19.614V5.72l-5-1.667zm-1.707 4.239a1 1 0 011.414 0l.793.793.793-.793a1 1 0 111.414 1.414l-.793.793.793.793a1 1 0 01-1.414 1.414l-.793-.793-.793.793a1 1 0 01-1.414-1.414l.793-.793-.793-.793a1 1 0 010-1.414zM6 16a1 1 0 100-2 1 1 0 000 2zm3-4a1 1 0 11-2 0 1 1 0 012 0zm2 0a1 1 0 100-2 1 1 0 000 2z" fill="#000"/></svg>