<svg width="24" height="24" fill="none" xmlns="http://www.w3.org/2000/svg"><path fill-rule="evenodd" clip-rule="evenodd" d="M3.277 2.95a1 1 0 011.143-.026c1.892 1.252 3.364 1.724 5.476 1.724 2.448 0 4.801.522 6.525 2.246.586.586 1.053 1.37 1.423 2.153.375.795.68 1.65.918 2.425a27.938 27.938 0 01.666 2.63l2.421 3.157a2 2 0 01-.173 2.631l-1.815 1.816a2 2 0 01-2.705.114l-2.935-2.48a23.731 23.731 0 01-2.614-.468c-1.529-.365-3.548-1.024-4.755-2.232-1.874-1.873-2.539-4.078-2.907-6.253-.125-.737-.22-1.504-.312-2.253-.042-.334-.083-.664-.126-.987-.142-1.07-.312-2.106-.6-3.115a1 1 0 01.37-1.081zM16.11 18.318l2.337 1.975 1.816-1.816-1.871-2.44-2.282 2.281zm1.295-4.123a25.947 25.947 0 00-.554-2.135 16.445 16.445 0 00-.814-2.157c-.327-.69-.676-1.241-1.03-1.594-1.184-1.185-2.904-1.66-5.11-1.66-1.74 0-3.156-.285-4.578-.93.065.393.12.782.172 1.165.048.363.092.715.134 1.06.09.724.176 1.417.293 2.11.339 2.003.902 3.727 2.35 5.173.775.776 2.293 1.34 3.805 1.701a21.78 21.78 0 002.196.403l3.136-3.136z" fill="#000"/></svg>