<svg width="24" height="24" fill="none" xmlns="http://www.w3.org/2000/svg"><path fill-rule="evenodd" clip-rule="evenodd" d="M12 3a1 1 0 1 0 0 2 1 1 0 0 0 0-2zm3 1.042V4a3 3 0 1 0-6 .042A8.5 8.5 0 0 0 4.042 9H4a3 3 0 1 0 .042 6A8.5 8.5 0 0 0 9 19.958V20a3 3 0 1 0 6-.042A8.5 8.5 0 0 0 19.958 15H20a3 3 0 1 0-.042-6A8.5 8.5 0 0 0 15 4.042zm-.693 1.876A3.005 3.005 0 0 1 12 7a3 3 0 0 1-2.307-1.082 6.5 6.5 0 0 0-3.775 3.775A3.004 3.004 0 0 1 7 12a3 3 0 0 1-1.082 2.307 6.5 6.5 0 0 0 3.775 3.775A3.003 3.003 0 0 1 12 17a3 3 0 0 1 2.307 1.082 6.499 6.499 0 0 0 3.775-3.775A3.004 3.004 0 0 1 17 12a3 3 0 0 1 1.082-2.307 6.499 6.499 0 0 0-3.775-3.775zm5.287 5.168A.997.997 0 0 0 19 12a1 1 0 1 0 .594-.914zm-6.68 8.508A.997.997 0 0 0 12 19a1 1 0 1 0 .914.594zm-8.508-6.68a.998.998 0 0 0 .301-1.621.998.998 0 0 0-1.414 0 1 1 0 0 0 1.113 1.62z" fill="#000"/></svg>