<svg width="24" height="24" fill="none" xmlns="http://www.w3.org/2000/svg"><path fill-rule="evenodd" clip-rule="evenodd" d="M5 10c0-1.245.713-2.47 2.066-3.426C8.416 5.621 10.335 5 12.5 5s4.083.621 5.434 1.574C19.287 7.53 20 8.755 20 10s-.713 2.47-2.066 3.426C16.584 14.379 14.665 15 12.5 15c-.515 0-1.017-.035-1.502-.102C10.934 13.105 9.182 12 7.5 12c-.572 0-1.124.118-1.615.335C5.301 11.611 5 10.813 5 10zm7.5 7c-.758 0-1.496-.065-2.205-.188a3.178 3.178 0 01-.268.27 2.467 2.467 0 01-.218 1.283c-.42.902-1.382 1.591-3.055 1.854-2.074.325-2.608.933-2.737 1.155a.486.486 0 00-.068.309 1 1 0 11-1.912.588 2.284 2.284 0 01-.092-.578c-.01-.358.058-.83.341-1.32.572-.99 1.838-1.766 4.158-2.13.409-.064.71-.152.934-.245C5.703 17.945 4 16.81 4 15c0-.5.14-.958.373-1.355C3.522 12.61 3 11.367 3 10c0-2.069 1.19-3.843 2.913-5.06C7.639 3.722 9.97 3 12.5 3s4.861.722 6.587 1.94C20.811 6.157 22 7.931 22 10c0 2.069-1.19 3.843-2.913 5.06C17.361 16.278 15.03 17 12.5 17zm-6.158-2.621c.263-.217.67-.379 1.158-.379 1.048 0 1.5.644 1.5 1 0 .093-.02.185-.064.277-.08.172-.249.361-.524.507A1.95 1.95 0 017.5 16C6.452 16 6 15.356 6 15c0-.19.092-.415.342-.621z" fill="#000"/></svg>