<svg width="24" height="24" fill="none" xmlns="http://www.w3.org/2000/svg"><path fill-rule="evenodd" clip-rule="evenodd" d="M9 1a1 1 0 1 0-2 0v.5a1 1 0 0 0 2 0V1zM3.707 2.293a1 1 0 0 0-1.414 1.414l1 1a1 1 0 0 0 1.414-1.414l-1-1zm10 1.414a1 1 0 0 0-1.414-1.414l-1 1a1 1 0 0 0 1.414 1.414l1-1zM1 7a1 1 0 0 0 0 2h.5a1 1 0 0 0 0-2H1zm14 0a1 1 0 1 0 0 2h.5a1 1 0 1 0 0-2H15zM4.707 12.707a1 1 0 1 0-1.414-1.414l-1 1a1 1 0 1 0 1.414 1.414l1-1zM9 15a1 1 0 1 0-2 0v.5a1 1 0 1 0 2 0V15zm.414-10a2 2 0 0 0-2.828 0L5 6.586a2 2 0 0 0 0 2.828l2.293 2.293L18.586 23a2 2 0 0 0 2.828 0L23 21.414a2 2 0 0 0 0-2.828L11.707 7.293 9.414 5zm-3 3L8 6.414 9.586 8 8 9.586 6.414 8zm3 3L11 9.414 21.586 20 20 21.586 9.414 11z" fill="#000"/></svg>