<svg width="24" height="24" fill="none" xmlns="http://www.w3.org/2000/svg"><path fill-rule="evenodd" clip-rule="evenodd" d="M4.896 3.082a1 1 0 00-1.103.211l-1.5 1.5a1 1 0 00-.211 1.103C2.4 6.645 2.707 7.4 3 8.158c.504 1.302 1.07 2.878 1.372 4.085.313 1.252.462 2.541.804 3.787.347 1.264.91 2.47 2.116 3.677 1.692 1.693 3.776 1.967 5.342 1.851a9.544 9.544 0 002.105-.404l.846.846a2 2 0 002.828 0l2.336-2.336a2 2 0 000-2.828l-.61-.61a11.39 11.39 0 00.418-2.347c.113-1.658-.145-3.88-1.85-5.586-1.207-1.207-2.414-1.769-3.678-2.116-1.253-.344-2.54-.492-3.787-.804-1.207-.301-2.783-.868-4.085-1.372-.759-.294-1.513-.6-2.262-.92zM14.6 19.084a1 1 0 011.108.209L17 20.586l2.336-2.336-1.043-1.043a1 1 0 01-.225-1.07c.287-.76.44-1.588.495-2.394.094-1.385-.147-2.913-1.27-4.036-.915-.915-1.794-1.327-2.793-1.601-1.23-.338-2.505-.483-3.742-.793-1.423-.355-3.226-1.017-4.577-1.546l4.526 4.526a3 3 0 11-1.414 1.414L4.766 7.18c.53 1.351 1.192 3.154 1.547 4.577.31 1.237.455 2.512.793 3.743.274.998.686 1.877 1.601 2.792 1.136 1.136 2.553 1.361 3.78 1.27a6.928 6.928 0 002.112-.48zM11 13a1 1 0 102 0 1 1 0 00-2 0z" fill="#000"/></svg>