<svg width="24" height="24" fill="none" xmlns="http://www.w3.org/2000/svg"><path fill-rule="evenodd" clip-rule="evenodd" d="M6 5a1 1 0 1 0 0 2 1 1 0 0 0 0-2zM3 6a3 3 0 0 1 5.83-1h6.34A3.001 3.001 0 1 1 19 8.83v6.34A3.001 3.001 0 1 1 15.17 19H8.83A3.001 3.001 0 1 1 5 15.17V8.83A3.001 3.001 0 0 1 3 6zm4 2.83v6.34A3.008 3.008 0 0 1 8.83 17h6.34A3.009 3.009 0 0 1 17 15.17V8.83A3.008 3.008 0 0 1 15.17 7H8.83A3.008 3.008 0 0 1 7 8.83zM18 5a1 1 0 1 0 0 2 1 1 0 0 0 0-2zM6 17a1 1 0 1 0 0 2 1 1 0 0 0 0-2zm12 0a1 1 0 1 0 0 2 1 1 0 0 0 0-2z" fill="#000"/></svg>