<svg width="24" height="24" fill="none" xmlns="http://www.w3.org/2000/svg"><path fill-rule="evenodd" clip-rule="evenodd" d="M6 5a1 1 0 100 2 1 1 0 000-2zM3 6a3 3 0 015.83-1h6.34A3.001 3.001 0 1119 8.83v6.34A3.001 3.001 0 1115.17 19H8.83A3.001 3.001 0 115 15.17V8.83A3.001 3.001 0 013 6zm4 2.83v6.34A3.008 3.008 0 018.83 17h6.34A3.009 3.009 0 0117 15.17V8.83A3.008 3.008 0 0115.17 7H8.83A3.008 3.008 0 017 8.83zM18 5a1 1 0 100 2 1 1 0 000-2zM6 17a1 1 0 100 2 1 1 0 000-2zm12 0a1 1 0 100 2 1 1 0 000-2z" fill="#000"/></svg>