<svg width="24" height="24" fill="none" xmlns="http://www.w3.org/2000/svg"><path fill-rule="evenodd" clip-rule="evenodd" d="M4 7.042v11.252c.891-.4 2.119-.794 3.5-.794 1.375 0 2.6.391 3.5.794V7.042a8.067 8.067 0 0 0-.732-.384C9.535 6.319 8.557 6 7.5 6 6 6 4.673 6.642 4 7.042zm9 0v11.252c.9-.403 2.125-.794 3.5-.794 1.381 0 2.609.395 3.5.794V7.042C19.327 6.642 18 6 16.5 6c-1.057 0-2.035.32-2.768.658a8.067 8.067 0 0 0-.732.384zM12 5.31c-.237-.14-.539-.304-.893-.468C10.215 4.431 8.943 4 7.5 4c-2.086 0-3.828.9-4.602 1.371A1.893 1.893 0 0 0 2 7v12c0 .633.379 1.106.806 1.342.423.233.996.295 1.515.02.741-.394 1.9-.862 3.179-.862 1.634 0 3.06.762 3.657 1.138a1.586 1.586 0 0 0 1.686 0c.597-.376 2.023-1.138 3.657-1.138 1.279 0 2.438.468 3.18.862a1.592 1.592 0 0 0 1.514-.02c.427-.236.806-.71.806-1.342V7c0-.621-.295-1.263-.898-1.629C20.328 4.901 18.587 4 16.5 4c-1.443 0-2.715.43-3.607.842-.354.164-.656.328-.893.468zM11.402 7.3s0 .001 0 0z" fill="#000"/></svg>