<svg width="24" height="24" fill="none" xmlns="http://www.w3.org/2000/svg"><path fill-rule="evenodd" clip-rule="evenodd" d="M4 5.708v11.815l.001.005a.132.132 0 0 0 .136.051C5.132 17.304 6.551 17 8 17c1.227 0 2.243.218 3 .464V5.603a6.076 6.076 0 0 0-.404-.163A7.606 7.606 0 0 0 8 5c-1.542 0-3.122.424-4 .708zm7.449.126l.002.002-.002-.002zM12 3.862a7.845 7.845 0 0 0-.72-.302A9.603 9.603 0 0 0 8 3c-1.888 0-3.737.517-4.674.824A1.938 1.938 0 0 0 2 5.677v11.846c0 1.432 1.414 2.332 2.67 1.984C5.58 19.255 6.805 19 8 19c1.115 0 2 .223 2.596.44.298.108.523.215.668.29a3.34 3.34 0 0 1 .185.104l.002.002-.002-.002h-.001a1 1 0 0 0 1.106-.002l-.002.002a.105.105 0 0 1-.003.002l.002-.001.008-.006.022-.013a3.34 3.34 0 0 1 .155-.086c.145-.075.37-.182.668-.29A7.607 7.607 0 0 1 16 19c1.195 0 2.42.255 3.33.507 1.256.348 2.67-.552 2.67-1.984V5.677c0-.812-.5-1.583-1.326-1.853C19.737 3.517 17.888 3 16 3c-1.384 0-2.5.277-3.28.56-.286.104-.527.21-.72.302zm1 13.602A9.693 9.693 0 0 1 16 17c1.449 0 2.868.304 3.863.58a.132.132 0 0 0 .136-.052l.001-.005V5.708C19.122 5.424 17.542 5 16 5c-1.116 0-2 .223-2.596.44-.155.056-.29.112-.404.163v11.861zm-.449-11.63l-.002.002.002-.001zm-1.105 13.998l.001.001h-.001z" fill="#000"/></svg>