<svg width="24" height="24" viewBox="0 0 24 24" fill="none" xmlns="http://www.w3.org/2000/svg">
<path fill-rule="evenodd" clip-rule="evenodd" d="M3 1C2.44772 1 2 1.44772 2 2V11C2 16.3965 5.8906 20.8425 11.6583 22.9398C11.879 23.0201 12.121 23.0201 12.3417 22.9398C18.1094 20.8425 22 16.3965 22 11V2C22 1.44772 21.5523 1 21 1H3ZM4 11V3H20V11C20 15.2183 17.0257 18.9884 12 20.932C6.97429 18.9884 4 15.2183 4 11ZM13 6C13 5.44772 12.5523 5 12 5C11.4477 5 11 5.44772 11 6V9H8C7.44772 9 7 9.44772 7 10C7 10.5523 7.44772 11 8 11H11V16C11 16.5523 11.4477 17 12 17C12.5523 17 13 16.5523 13 16V11H16C16.5523 11 17 10.5523 17 10C17 9.44772 16.5523 9 16 9H13V6Z" fill="black"/>
</svg>
