<svg width="24" height="24" viewBox="0 0 24 24" fill="none" xmlns="http://www.w3.org/2000/svg">
<path fill-rule="evenodd" clip-rule="evenodd" d="M4 3C3.44772 3 3 3.44772 3 4V12C3 14.6107 3.67715 16.843 5.15616 18.6946C6.62174 20.5294 8.80417 21.9019 11.6583 22.9398C11.879 23.0201 12.121 23.0201 12.3417 22.9398C15.1958 21.9019 17.3783 20.5294 18.8438 18.6946C20.3228 16.843 21 14.6107 21 12V4C21 3.44772 20.5523 3 20 3H4ZM5 12V5H19V12C19 14.2441 18.4272 16.0117 17.2812 17.4464C16.1723 18.8346 14.4616 19.9928 12 20.9329C9.53842 19.9928 7.82765 18.8346 6.71884 17.4464C5.57285 16.0117 5 14.2441 5 12ZM13 8C13 7.44772 12.5523 7 12 7C11.4477 7 11 7.44772 11 8V10H9C8.44772 10 8 10.4477 8 11C8 11.5523 8.44772 12 9 12H11V16C11 16.5523 11.4477 17 12 17C12.5523 17 13 16.5523 13 16V12H15C15.5523 12 16 11.5523 16 11C16 10.4477 15.5523 10 15 10H13V8Z" fill="black"/>
</svg>
