<svg width="24" height="24" viewBox="0 0 24 24" fill="none" xmlns="http://www.w3.org/2000/svg">
<path fill-rule="evenodd" clip-rule="evenodd" d="M22.7071 1.29291C22.9436 1.52933 23.0462 1.86827 22.9806 2.19613L21.9806 7.19613C21.8723 7.73769 21.3455 8.08891 20.8039 7.9806C20.2624 7.87228 19.9111 7.34546 20.0194 6.8039L20.3717 5.04254L11 14.4142V18C11 18.2652 10.8947 18.5196 10.7071 18.7071L6.70714 22.7071C6.42114 22.9931 5.99102 23.0787 5.61735 22.9239C5.24367 22.7691 5.00003 22.4045 5.00003 22V19H2.00003C1.59557 19 1.23093 18.7564 1.07615 18.3827C0.921369 18.009 1.00692 17.5789 1.29292 17.2929L5.29292 13.2929C5.48046 13.1054 5.73481 13 6.00003 13H9.58582L18.9575 3.62832L17.1961 3.9806C16.6546 4.08891 16.1278 3.73769 16.0194 3.19613C15.9111 2.65457 16.2624 2.12775 16.8039 2.01944L21.8039 1.01944C22.1318 0.953864 22.4707 1.05649 22.7071 1.29291ZM7.58582 15H6.41424L4.41424 17H5.58582L7.58582 15ZM7.00003 18.4142V19.5858L9.00003 17.5858V16.4142L7.00003 18.4142Z" fill="black"/>
</svg>
