<svg width="24" height="24" viewBox="0 0 24 24" fill="none" xmlns="http://www.w3.org/2000/svg">
<path fill-rule="evenodd" clip-rule="evenodd" d="M21.2071 0.292893C20.8166 -0.0976311 20.1834 -0.0976311 19.7929 0.292893L17.2929 2.79289C17.1054 2.98043 17 3.23478 17 3.5V4.99927C15.3287 3.74389 13.2512 3 11 3C5.47715 3 1 7.47715 1 13C1 18.5228 5.47715 23 11 23C16.5228 23 21 18.5228 21 13C21 10.7488 20.2561 8.67132 19.0007 7H20.5C20.7652 7 21.0196 6.89464 21.2071 6.70711L23.7071 4.20711C24.0976 3.81658 24.0976 3.18342 23.7071 2.79289L21.2071 0.292893ZM15.9056 6.68014C14.551 5.62708 12.8487 5 11 5C6.58172 5 3 8.58172 3 13C3 17.4183 6.58172 21 11 21C15.4183 21 19 17.4183 19 13C19 11.1513 18.3729 9.44904 17.3199 8.09436L15.8907 9.52347C16.5892 10.5043 17 11.7042 17 13C17 16.3137 14.3137 19 11 19C7.68629 19 5 16.3137 5 13C5 9.68629 7.68629 7 11 7C12.2958 7 13.4957 7.41079 14.4765 8.10925L15.9056 6.68014ZM13.032 9.55382C12.4365 9.20193 11.7418 9 11 9C8.79086 9 7 10.7909 7 13C7 15.2091 8.79086 17 11 17C13.2091 17 15 15.2091 15 13C15 12.2582 14.7981 11.5635 14.4462 10.968L13.1328 12.2814C13.2088 12.5071 13.25 12.7487 13.25 13C13.25 14.2426 12.2426 15.25 11 15.25C9.75736 15.25 8.75 14.2426 8.75 13C8.75 11.7574 9.75736 10.75 11 10.75C11.2513 10.75 11.4929 10.7912 11.7186 10.8672L13.032 9.55382ZM20.0858 5H19V3.91421L20.5 2.41421L21.5858 3.5L20.0858 5Z" fill="black"/>
</svg>
