<svg width="24" height="24" viewBox="0 0 24 24" fill="none" xmlns="http://www.w3.org/2000/svg">
<rect width="24" height="24" fill="white"/>
<path fill-rule="evenodd" clip-rule="evenodd" d="M5 2C4.44772 2 4 2.44772 4 3C4 3.55228 4.44772 4 5 4H6.5C5.11929 4 4 5.11929 4 6.5V8.12602C2.27477 8.57006 1 10.1362 1 12V20C1 21.1046 1.89543 22 3 22H9C10.1046 22 11 21.1046 11 20V18.6615C11.1832 18.8691 11.4513 19 11.75 19H12.25C12.5487 19 12.8168 18.8691 13 18.6615V20C13 21.1046 13.8954 22 15 22H21C22.1046 22 23 21.1046 23 20V12C23 10.1362 21.7252 8.57006 20 8.12602V6.5C20 5.11929 18.8807 4 17.5 4H19C19.5523 4 20 3.55228 20 3C20 2.44772 19.5523 2 19 2H15C14.4477 2 14 2.44772 14 3C14 3.55228 14.4477 4 15 4H16.5C15.1193 4 14 5.11929 14 6.5V8.26756C13.4022 8.61337 13 9.25972 13 10V10.3385C12.8168 10.1309 12.5487 10 12.25 10H11.75C11.4513 10 11.1832 10.1309 11 10.3385V10C11 9.25972 10.5978 8.61337 10 8.26756V6.5C10 5.11929 8.88071 4 7.5 4H9C9.55228 4 10 3.55228 10 3C10 2.44772 9.55228 2 9 2H5ZM13 17.3385V11.6615C12.8168 11.8691 12.5487 12 12.25 12H11.75C11.4513 12 11.1832 11.8691 11 11.6615V17.3385C11.1832 17.1309 11.4513 17 11.75 17H12.25C12.5487 17 12.8168 17.1309 13 17.3385ZM3 12C3 10.8954 3.89543 10 5 10H9V20H3V12ZM6 6.5V8H8V6.5C8 6.22386 7.77614 6 7.5 6H6.5C6.22386 6 6 6.22386 6 6.5ZM21 12C21 10.8954 20.1046 10 19 10H15V20H21V12ZM18 6.5V8H16V6.5C16 6.22386 16.2239 6 16.5 6H17.5C17.7761 6 18 6.22386 18 6.5Z" fill="black"/>
</svg>
