<svg width="24" height="24" viewBox="0 0 24 24" fill="none" xmlns="http://www.w3.org/2000/svg">
<path fill-rule="evenodd" clip-rule="evenodd" d="M11 7C12.3807 7 13.5 5.99264 13.5 4.75C13.5 3.50736 11 1 11 1C11 1 8.5 3.50736 8.5 4.75C8.5 5.99264 9.61929 7 11 7ZM1 17C0.447715 17 0 17.4477 0 18C0 18.5523 0.447715 19 1 19H2.38197L4.10557 22.4472C4.27496 22.786 4.62123 23 5 23H17C17.3788 23 17.725 22.786 17.8944 22.4472L19.6678 18.9005C19.9345 18.9655 20.2132 19 20.5 19C22.433 19 24 17.433 24 15.5C24 13.567 22.433 12 20.5 12C18.567 12 17 13.567 17 15.5C17 16.0368 17.1208 16.5454 17.3368 17H14V10C14 8.89543 13.1046 8 12 8H10C8.89543 8 8 8.89543 8 10V17H3H1ZM12 10V17H10V10H12ZM17.382 19H13H9H4.61803L5.61803 21H16.382L17.382 19ZM19 15.5C19 14.6716 19.6716 14 20.5 14C21.3284 14 22 14.6716 22 15.5C22 16.3284 21.3284 17 20.5 17C19.6716 17 19 16.3284 19 15.5Z" fill="black"/>
</svg>
