<svg width="24" height="24" viewBox="0 0 24 24" fill="none" xmlns="http://www.w3.org/2000/svg">
<path fill-rule="evenodd" clip-rule="evenodd" d="M12 3C7.02944 3 3 7.02944 3 12C3 16.9706 7.02944 21 12 21C16.9706 21 21 16.9706 21 12C21 7.02944 16.9706 3 12 3ZM1 12C1 5.92487 5.92487 1 12 1C18.0751 1 23 5.92487 23 12C23 18.0751 18.0751 23 12 23C5.92487 23 1 18.0751 1 12ZM16.9498 7.05022C17.3403 7.44074 17.3403 8.07391 16.9498 8.46443L13.9323 11.4819C13.9764 11.6472 14 11.8208 14 12C14 13.1046 13.1046 14 12 14C11.8208 14 11.6472 13.9764 11.4819 13.9323L8.46447 16.9497C8.07395 17.3402 7.44078 17.3402 7.05026 16.9497C6.65973 16.5592 6.65973 15.926 7.05026 15.5355L10.0677 12.518C10.0236 12.3528 10 12.1792 10 12C10 10.8954 10.8954 10 12 10C12.1792 10 12.3528 10.0236 12.518 10.0677L15.5355 7.05022C15.9261 6.65969 16.5592 6.65969 16.9498 7.05022ZM7 12C7 12.5523 6.55228 13 6 13C5.44772 13 5 12.5523 5 12C5 11.4477 5.44772 11 6 11C6.55228 11 7 11.4477 7 12ZM18 13C18.5523 13 19 12.5523 19 12C19 11.4477 18.5523 11 18 11C17.4477 11 17 11.4477 17 12C17 12.5523 17.4477 13 18 13ZM13 18C13 18.5523 12.5523 19 12 19C11.4477 19 11 18.5523 11 18C11 17.4477 11.4477 17 12 17C12.5523 17 13 17.4477 13 18ZM12 7C12.5523 7 13 6.55228 13 6C13 5.44772 12.5523 5 12 5C11.4477 5 11 5.44772 11 6C11 6.55228 11.4477 7 12 7Z" fill="black"/>
</svg>
