<svg width="24" height="24" viewBox="0 0 24 24" fill="none" xmlns="http://www.w3.org/2000/svg">
<path fill-rule="evenodd" clip-rule="evenodd" d="M1.27578 14.4477C1.15289 13.9093 1.48975 13.3732 2.02819 13.2503L3.54743 12.9035C3.51606 12.6066 3.49998 12.3052 3.49998 12C3.49998 10.3551 3.9672 8.81938 4.77618 7.51823L3.55823 6.54692C3.12644 6.20258 3.05555 5.57339 3.3999 5.1416C3.74425 4.70981 4.37343 4.63893 4.80522 4.98327L6.02409 5.9553C7.33652 4.65772 9.06937 3.78449 11 3.55823L11 1.99999C11 1.44771 11.4477 0.999996 12 1C12.5523 1 13 1.44772 13 2.00001L13 3.55824C14.9306 3.78449 16.6635 4.65774 17.9759 5.95531L19.1948 4.98327C19.6266 4.63892 20.2558 4.70981 20.6001 5.14161C20.9444 5.5734 20.8736 6.20259 20.4418 6.54693L19.2238 7.51824C20.0328 8.8194 20.5 10.3552 20.5 12C20.5 12.3052 20.4839 12.6066 20.4525 12.9035L21.9718 13.2503C22.5102 13.3732 22.8471 13.9093 22.7242 14.4477C22.6013 14.9862 22.0652 15.323 21.5268 15.2001L20.0091 14.8537C19.3697 16.648 18.1446 18.1642 16.5638 19.1722L17.2398 20.5758C17.4794 21.0734 17.2703 21.671 16.7727 21.9106C16.2751 22.1503 15.6775 21.9412 15.4378 21.4436L14.7624 20.0411C13.8963 20.3385 12.967 20.5 12 20.5C11.033 20.5 10.1036 20.3385 9.23755 20.0411L8.56216 21.4436C8.32254 21.9411 7.72491 22.1503 7.22731 21.9106C6.72972 21.671 6.5206 21.0734 6.76022 20.5758L7.43616 19.1722C5.8554 18.1642 4.63022 16.648 3.99087 14.8537L2.47323 15.2001C1.93479 15.323 1.39867 14.9862 1.27578 14.4477ZM8.31208 17.3533C7.26314 16.6293 6.43743 15.6049 5.95919 14.4045L10.198 13.437L8.31208 17.3533ZM12 18.5C11.3439 18.5 10.7106 18.4028 10.1135 18.2221L12 14.3048L13.8864 18.2221C13.2894 18.4028 12.656 18.5 12 18.5ZM18.0408 14.4045C17.5625 15.6049 16.7368 16.6293 15.6879 17.3533L13.8019 13.437L18.0408 14.4045ZM18.5 12C18.5 12.1527 18.4947 12.3042 18.4843 12.4543L14.2469 11.4872L17.6457 8.77669C18.1893 9.72671 18.5 10.8271 18.5 12ZM13 5.57648C14.2998 5.77719 15.4725 6.36301 16.3979 7.21372L13 9.92349L13 5.57648ZM7.60206 7.21371C8.52741 6.36301 9.70013 5.77719 11 5.57648L11 9.92349L7.60206 7.21371ZM9.75298 11.4872L6.35422 8.77669C5.81066 9.7267 5.49998 10.8271 5.49998 12C5.49998 12.1527 5.50524 12.3042 5.5156 12.4543L9.75298 11.4872ZM12 13.5C12.8284 13.5 13.5 12.8284 13.5 12C13.5 11.1716 12.8284 10.5 12 10.5C11.1715 10.5 10.5 11.1716 10.5 12C10.5 12.8284 11.1715 13.5 12 13.5Z" fill="black"/>
</svg>
