<svg width="24" height="24" viewBox="0 0 24 24" fill="none" xmlns="http://www.w3.org/2000/svg">
<g clip-path="url(#clip0)">
<path fill-rule="evenodd" clip-rule="evenodd" d="M12 -0.000244141C12.5523 -0.000249267 13 0.447462 13 0.999747L13 2.04938C15.4043 2.28811 17.5581 3.3784 19.1555 5.01439L19.9766 4.35953C20.4084 4.01518 21.0376 4.08607 21.382 4.51786C21.7263 4.94965 21.6554 5.57883 21.2236 5.92318L20.4034 6.57728C21.4136 8.13946 22 10.0012 22 12C22 12.4194 21.9742 12.8328 21.924 13.2386L22.9468 13.472C23.4853 13.5949 23.8222 14.131 23.6993 14.6694C23.5764 15.2079 23.0403 15.5448 22.5019 15.4219L21.4808 15.1889C20.7272 17.4303 19.201 19.3168 17.2188 20.5318L17.6738 21.4766C17.9134 21.9741 17.7043 22.5718 17.2067 22.8114C16.7091 23.051 16.1114 22.8419 15.8718 22.3443L15.4175 21.4008C14.3512 21.7885 13.2003 22 12 22C10.7998 22 9.64893 21.7886 8.58271 21.4009L8.12837 22.3443C7.88874 22.8419 7.29111 23.051 6.79352 22.8114C6.29592 22.5718 6.0868 21.9742 6.32643 21.4766L6.78133 20.532C4.79916 19.317 3.27301 17.4306 2.51934 15.1893L1.49824 15.4224C0.959804 15.5453 0.423691 15.2084 0.300802 14.67C0.177913 14.1315 0.514782 13.5954 1.05322 13.4725L2.07599 13.2391C2.02581 12.8331 1.99998 12.4196 1.99998 12C1.99998 10.0012 2.58639 8.13942 3.59655 6.57723L2.77635 5.92314C2.34456 5.5788 2.27367 4.94962 2.61801 4.51782C2.96235 4.08603 3.59154 4.01514 4.02333 4.35948L4.84451 5.01435C6.44191 3.37836 8.59571 2.28807 11 2.04937L11 0.999765C11 0.44748 11.4477 -0.000239074 12 -0.000244141ZM6.41804 6.2692C7.63465 5.084 9.22729 4.28293 11 4.06188L11.0001 9.92326L6.41804 6.2692ZM3.99998 12C3.99998 10.473 4.4278 9.04593 5.17011 7.8321L9.75312 11.4869L4.0386 12.7912C4.01305 12.5309 3.99998 12.267 3.99998 12ZM7.65478 18.7182C6.20735 17.7801 5.08223 16.387 4.48202 14.7414L10.1982 13.4368L7.65478 18.7182ZM12 20C11.1107 20 10.2553 19.8549 9.45619 19.5871L12.0001 14.3046L14.544 19.587C13.7448 19.8549 12.8893 20 12 20ZM19.5181 14.741C18.9179 16.3867 17.7928 17.7799 16.3454 18.7181L13.802 13.4367L19.5181 14.741ZM20 12C20 12.2668 19.9869 12.5306 19.9614 12.7908L14.2472 11.4868L18.8299 7.83218C19.5722 9.04599 20 10.473 20 12ZM13.0001 9.92325L17.582 6.26926C16.3654 5.08406 14.7728 4.28298 13 4.0619L13.0001 9.92325ZM12 13.5C12.8284 13.5 13.5 12.8284 13.5 12C13.5 11.1716 12.8284 10.5 12 10.5C11.1716 10.5 10.5 11.1716 10.5 12C10.5 12.8284 11.1716 13.5 12 13.5Z" fill="black"/>
</g>
<defs>
<clipPath id="clip0">
<rect width="24" height="24" fill="white"/>
</clipPath>
</defs>
</svg>
