<svg width="24" height="24" viewBox="0 0 24 24" fill="none" xmlns="http://www.w3.org/2000/svg">
<path fill-rule="evenodd" clip-rule="evenodd" d="M3.02174 1.79241C3.11978 1.33042 3.52768 1 3.99996 1H7.49996C10.8167 1 13.9504 2.15662 16.5142 4.05499L16.8139 3.77241C17.2075 3.40139 17.8246 3.41046 18.2071 3.79289L20.2071 5.79289C20.5895 6.17532 20.5986 6.79251 20.2275 7.18601L19.945 7.48571C21.8433 10.0496 23 13.1833 23 16.5V20C23 20.4723 22.6695 20.8802 22.2075 20.9782C21.7456 21.0763 21.278 20.8377 21.0861 20.4061C19.5584 16.9688 17.8963 14.1568 15.933 11.7762L5.8 22.9986C4.84117 24.0605 3.18839 24.1026 2.1767 23.091L0.908996 21.8233C-0.102691 20.8116 -0.0605589 19.1588 1.00136 18.2L12.2237 8.06698C9.84312 6.10369 7.0312 4.44154 3.59382 2.91381C3.16224 2.722 2.9237 2.2544 3.02174 1.79241ZM13.7287 9.40279L2.34168 19.6844C2.1293 19.8761 2.12087 20.2067 2.32321 20.409L3.59092 21.6767C3.79325 21.8791 4.12381 21.8707 4.31558 21.6583L14.5972 10.2713C14.3142 9.97514 14.0248 9.68579 13.7287 9.40279ZM8.31871 3.02736C10.6049 4.30007 12.6125 5.70113 14.4033 7.30303C15.2115 8.026 15.974 8.78848 16.6969 9.59669C18.2988 11.3875 19.6999 13.3951 20.9726 15.6813C20.7848 12.8712 19.6408 10.2169 17.8574 8.06282C17.2794 7.36462 16.6353 6.72057 15.9371 6.14252C13.783 4.35913 11.1287 3.21514 8.31871 3.02736Z" fill="black"/>
</svg>
