<svg width="24" height="24" viewBox="0 0 24 24" fill="none" xmlns="http://www.w3.org/2000/svg">
<path fill-rule="evenodd" clip-rule="evenodd" d="M6.60002 2.20002C6.35114 2.01335 6.02956 1.95315 5.73001 2.03715C5.43046 2.12114 5.18706 2.33977 5.07152 2.62862L4.83085 3.23029C3.62742 6.23888 4.64615 9.68015 7.29341 11.5488L9.34928 13H4.5C2.01472 13 0 15.0147 0 17.5C0 19.9853 2.01472 22 4.5 22H19.5C21.9853 22 24 19.9853 24 17.5C24 15.999 23.2651 14.6697 22.1356 13.8522L6.60002 2.20002ZM12.512 15C12.5034 15.0001 12.4949 15.0001 12.4863 15H4.5C3.11929 15 2 16.1193 2 17.5C2 18.8807 3.11929 20 4.5 20H19.5C20.8807 20 22 18.8807 22 17.5C22 16.7001 21.6243 15.9879 21.0398 15.5303L20.9568 15.4681C20.5466 15.1735 20.0436 15 19.5 15H12.512ZM12.8174 13H17.6662L6.48086 4.61069C5.98156 6.59181 6.74068 8.71057 8.44677 9.91487L12.8174 13ZM4.5 18.4C5.05228 18.4 5.5 17.9523 5.5 17.4C5.5 16.8477 5.05228 16.4 4.5 16.4C3.94772 16.4 3.5 16.8477 3.5 17.4C3.5 17.9523 3.94772 18.4 4.5 18.4Z" fill="black"/>
</svg>
