<svg width="24" height="24" viewBox="0 0 24 24" fill="none" xmlns="http://www.w3.org/2000/svg">
<path fill-rule="evenodd" clip-rule="evenodd" d="M6.62528 2.21961C6.37811 2.02157 6.05173 1.95233 5.74543 2.03296C5.43914 2.11358 5.18915 2.33455 5.07152 2.62862L4.77928 3.35924C3.60378 6.29798 4.54651 9.65989 7.07861 11.559L9 13H5.5C3.01472 13 1 15.0147 1 17.5C1 19.9853 3.01472 22 5.5 22H18.5C20.9853 22 23 19.9853 23 17.5C23 16.058 22.3218 14.7745 21.2669 13.9509L6.62528 2.21961ZM12.0101 15H11.9884H5.5C4.11929 15 3 16.1193 3 17.5C3 18.8807 4.11929 20 5.5 20H18.5C19.8807 20 21 18.8807 21 17.5C21 16.1193 19.8807 15 18.5 15H12.0101ZM8.27861 9.95897L12.3333 13H16.8815L6.45408 4.64523C5.9198 6.6034 6.62433 8.71826 8.27861 9.95897ZM5.5 18.4C6.05228 18.4 6.5 17.9523 6.5 17.4C6.5 16.8478 6.05228 16.4 5.5 16.4C4.94772 16.4 4.5 16.8478 4.5 17.4C4.5 17.9523 4.94772 18.4 5.5 18.4Z" fill="black"/>
</svg>
