<svg width="24" height="24" viewBox="0 0 24 24" fill="none" xmlns="http://www.w3.org/2000/svg">
<path fill-rule="evenodd" clip-rule="evenodd" d="M5.60762 1.20578C5.3592 1.01573 5.03617 0.952859 4.7346 1.03587C4.43304 1.11888 4.18769 1.33821 4.07152 1.62862L3.79431 2.32164C2.61062 5.28088 3.57539 8.66613 6.14126 10.5568L9.45708 13H4.5C2.01472 13 0 15.0147 0 17.5C0 19.9853 2.01472 22 4.5 22H19.5C21.9853 22 24 19.9853 24 17.5C24 16.0272 23.2925 14.7197 22.1988 13.8988L5.60762 1.20578ZM12.5106 15H12.4878H4.5C3.11929 15 2 16.1193 2 17.5C2 18.8807 3.11929 20 4.5 20H19.5C20.8807 20 22 18.8807 22 17.5C22 16.6975 21.6219 15.9834 21.0342 15.5259L21.0011 15.5006C20.5831 15.1863 20.0633 15 19.5 15H12.5106ZM12.8286 13H17.7325L5.46678 3.6162C4.93289 5.58657 5.65267 7.71246 7.32766 8.94666L12.8286 13ZM4.5 18.4C5.05228 18.4 5.5 17.9523 5.5 17.4C5.5 16.8477 5.05228 16.4 4.5 16.4C3.94772 16.4 3.5 16.8477 3.5 17.4C3.5 17.9523 3.94772 18.4 4.5 18.4Z" fill="black"/>
</svg>
