<svg width="24" height="24" viewBox="0 0 24 24" fill="none" xmlns="http://www.w3.org/2000/svg">
<path fill-rule="evenodd" clip-rule="evenodd" d="M3.42839 1.0964C3.17899 0.978164 2.89181 0.968268 2.63486 1.06905C2.37791 1.16984 2.17405 1.37234 2.07154 1.62861L1.99551 1.81868C0.718328 5.01164 2.14919 8.64691 5.26009 10.1127L9.79859 12.2511L3.3189 14.9351C1.02279 15.8862 -0.0675606 18.5186 0.883515 20.8147C1.83459 23.1108 4.46695 24.2011 6.76305 23.2501L20.6212 17.5098C22.9173 16.5587 24.0077 13.9264 23.0566 11.6303C22.517 10.3274 21.436 9.41279 20.1823 9.03901L3.42839 1.0964ZM16.4647 9.48995L12.2957 11.2168L6.11256 8.30348C4.22614 7.41464 3.23205 5.37352 3.60853 3.39516L16.4647 9.48995ZM17.9425 11.0426C18.4729 10.8229 19.0357 10.7993 19.5502 10.9385C19.5586 10.9409 19.567 10.9432 19.5754 10.9454C20.2874 11.146 20.9038 11.6592 21.2089 12.3956C21.7372 13.6712 21.1315 15.1337 19.8559 15.662L5.99768 21.4023C4.72207 21.9307 3.25965 21.3249 2.73127 20.0493C2.2029 18.7737 2.80865 17.3113 4.08426 16.7829L12.6523 13.2339L17.9425 11.0426ZM5.00002 20C5.5523 20 6.00002 19.5523 6.00002 19C6.00002 18.4477 5.5523 18 5.00002 18C4.44773 18 4.00002 18.4477 4.00002 19C4.00002 19.5523 4.44773 20 5.00002 20Z" fill="black"/>
</svg>
