<svg width="24" height="24" viewBox="0 0 24 24" fill="none" xmlns="http://www.w3.org/2000/svg">
<path fill-rule="evenodd" clip-rule="evenodd" d="M19 21C19 21.5523 18.5523 22 18 22H14H10H6C5.44771 22 5 21.5523 5 21V18.75C5 17.7835 4.2165 17 3.25 17C2.55964 17 2 16.4404 2 15.75V11C2 5.47715 6.47715 1 12 1C17.5228 1 22 5.47715 22 11V15.75C22 16.4404 21.4404 17 20.75 17C19.7835 17 19 17.7835 19 18.75V21ZM17 20V18.75C17 16.9358 18.2883 15.4225 20 15.075V11C20 6.58172 16.4183 3 12 3C7.58172 3 4 6.58172 4 11V15.075C5.71168 15.4225 7 16.9358 7 18.75V20H9V18C9 17.4477 9.44771 17 10 17C10.5523 17 11 17.4477 11 18V20H13V18C13 17.4477 13.4477 17 14 17C14.5523 17 15 17.4477 15 18V20H17ZM11 12.5C11 13.8807 8.63228 15 7.25248 15C5.98469 15 5.99206 14.055 6.00161 12.8306V12.8305C6.00245 12.7224 6.00331 12.6121 6.00331 12.5C6.00331 11.1193 7.12186 10 8.50166 10C9.88145 10 11 11.1193 11 12.5ZM17.9984 12.8306C17.9975 12.7224 17.9967 12.6121 17.9967 12.5C17.9967 11.1193 16.8781 10 15.4983 10C14.1185 10 13 11.1193 13 12.5C13 13.8807 15.3677 15 16.7475 15C18.0153 15 18.0079 14.055 17.9984 12.8306Z" fill="black"/>
</svg>
