<svg width="24" height="24" viewBox="0 0 24 24" fill="none" xmlns="http://www.w3.org/2000/svg">
<path fill-rule="evenodd" clip-rule="evenodd" d="M12 0.034668C7.58171 0.0346494 3.99997 3.61637 3.99997 8.03467V11.1676C3.4725 11.2483 2.80957 11.4137 2.17083 11.7568C1.08501 12.3401 0.50669 13.3461 0.233669 14.274C-0.0362926 15.1914 -0.0467 16.1531 0.113639 16.8458C0.118576 16.8671 0.124212 16.8883 0.130538 16.9092C0.218209 17.1997 0.354168 17.4516 0.529981 17.6665C0.403319 17.8344 0.330281 18.004 0.289019 18.1107C0.193097 18.3589 0.134008 18.6372 0.0963214 18.9034C0.019985 19.4427 0.0101057 20.0899 0.0599281 20.7115C0.109221 21.3265 0.222428 21.9868 0.429691 22.5314C0.532653 22.802 0.678474 23.097 0.892953 23.346C1.11234 23.6006 1.45661 23.8639 1.93303 23.9095C4.23932 24.1307 5.4901 23.767 6.37946 23.0827C6.65738 22.8689 6.92378 22.5927 7.099 22.4111C7.15333 22.3548 7.19889 22.3075 7.23331 22.2741C7.41386 22.0985 7.5401 22.0118 7.71766 21.9583L7.71848 21.958L11.9945 20.6636L15.7347 21.8385L15.7347 21.8386L15.7461 21.842C15.8997 21.8883 16.1091 21.9976 16.4573 22.214C16.5334 22.2613 16.6161 22.3137 16.7045 22.3697L16.705 22.37L16.705 22.37C16.9809 22.5448 17.3112 22.7541 17.6633 22.9496C18.634 23.4884 19.8954 23.9999 21.5872 23.9999C22.5574 23.9999 23.1504 23.3076 23.4545 22.7074C23.7665 22.0916 23.9174 21.3329 23.9575 20.6153C23.9982 19.8892 23.9306 19.1154 23.7354 18.4403C23.6616 18.1849 23.5589 17.9075 23.4155 17.6421C24.0268 16.8215 24.0539 15.7398 23.8913 14.8992C23.6653 13.7309 23.0074 12.5018 22.2171 11.861C21.5427 11.3142 20.6057 11.1603 20 11.1074V8.03467C20 3.6164 16.4183 0.0346866 12 0.034668ZM5.07993 13.0901L5.09652 13.0906C5.11981 13.092 5.1432 13.0927 5.16663 13.0927C5.67074 13.0927 5.99996 13.4718 5.99996 13.8436V14.6496C5.99996 15.0944 6.29378 15.4857 6.72093 15.6099L8.52353 16.1336L6.48292 16.7515C5.2744 16.5242 4.05304 16.5428 3.03394 16.6916C2.58867 16.6355 2.33176 16.5563 2.188 16.4802C2.09581 16.4315 2.06934 16.3975 2.05409 16.358C1.98354 16.0142 1.97995 15.4244 2.15233 14.8385C2.32797 14.2416 2.64696 13.7713 3.11731 13.5187C3.55209 13.2851 4.04812 13.1722 4.46185 13.1229C4.66381 13.0988 4.83426 13.0912 4.95099 13.0895C5.00906 13.0887 5.053 13.0894 5.07993 13.0901ZM14.9059 16.3199L12.2848 17.0844L6.82116 18.7388C6.65783 18.7882 6.48455 18.7951 6.31783 18.7586C5.25172 18.5256 4.12357 18.5411 3.21081 18.6878C2.75081 18.7618 2.37932 18.8636 2.11626 18.9644C2.10306 19.0216 2.08923 19.0943 2.07658 19.1837C2.02497 19.5484 2.01289 20.0445 2.05353 20.5517C2.09471 21.0654 2.1844 21.5192 2.29891 21.8201C2.31664 21.8667 2.33361 21.906 2.34924 21.9385C4.20552 22.0865 4.83662 21.7463 5.15988 21.4976C5.31575 21.3777 5.41118 21.278 5.54345 21.1399L5.54346 21.1399C5.62213 21.0577 5.71384 20.9619 5.83905 20.8402C6.13969 20.5479 6.53666 20.2256 7.13986 20.0435L11.7102 18.6601C11.7259 18.6553 11.7416 18.651 11.7574 18.647L18.4002 16.986C18.5496 16.9487 18.7056 16.9463 18.856 16.9792C19.642 17.1507 20.753 17.0449 21.5612 16.6422C21.8688 16.4889 22.0891 16.1131 21.9277 15.279C21.7684 14.4556 21.2995 13.6918 20.9574 13.4145C20.7755 13.267 20.3573 13.1439 19.8017 13.0977C19.5548 13.0772 19.3277 13.0752 19.1621 13.0786C19.0799 13.0803 19.0147 13.0833 18.9718 13.0857L18.9435 13.0874C18.907 13.0909 18.8702 13.0927 18.8333 13.0927C18.3292 13.0927 18 13.4718 18 13.8436V14.6017V14.6496C18 15.0915 17.7099 15.481 17.2866 15.6076L14.9126 16.3179L14.9059 16.3199L14.9059 16.3199ZM15 13V14.2042L16 13.905V13.8436C16 12.577 16.8628 11.5559 18 11.2148V8.03467C18 4.72097 15.3137 2.03468 12 2.03467C8.68627 2.03465 5.99997 4.72095 5.99997 8.03467V11.2148C7.13715 11.5559 7.99996 12.577 7.99996 13.8436V13.8988L8.99997 14.1894V13C8.99997 12.4477 9.44768 12 9.99997 12C10.5523 12 11 12.4477 11 13V14.3599H12H13V13C13 12.4477 13.4477 12 14 12C14.5523 12 15 12.4477 15 13ZM2.16762 18.8031C2.16787 18.8038 2.16467 18.8118 2.15723 18.8249C2.16364 18.809 2.16736 18.8024 2.16762 18.8031ZM16.3289 19.9288L15.685 19.7265L18.6718 18.9797C19.607 19.1359 20.7222 19.0609 21.7221 18.7313C21.7524 18.8034 21.7837 18.8906 21.8141 18.9956C21.936 19.4175 21.991 19.9608 21.9607 20.5035C21.9298 21.0547 21.816 21.5162 21.6704 21.8035C21.6121 21.9186 21.5677 21.9746 21.542 21.9998C20.3123 21.991 19.3997 21.626 18.634 21.201C18.3372 21.0362 18.0787 20.8725 17.8143 20.705C17.7155 20.6424 17.6159 20.5793 17.5132 20.5155C17.1714 20.303 16.7623 20.0604 16.3289 19.9288ZM21.517 22.0178C21.5168 22.0167 21.5218 22.0125 21.5325 22.0084C21.5226 22.0168 21.5172 22.0189 21.517 22.0178ZM11 9.00003C11 10.1046 9.10583 11 8.00199 11C6.98775 11 6.99365 10.2441 7.00129 9.26451V9.26443C7.00196 9.17792 7.00265 9.08966 7.00265 9.00003C7.00265 7.89546 7.89749 7.00003 9.00133 7.00003C10.1052 7.00003 11 7.89546 11 9.00003ZM16.9974 9.00003C16.9974 9.08969 16.998 9.17797 16.9987 9.26451C17.0064 10.2441 17.0123 11 15.998 11C14.8942 11 13 10.1046 13 9.00003C13 7.89546 13.8948 7.00003 14.9987 7.00003C16.1025 7.00003 16.9974 7.89546 16.9974 9.00003Z" fill="black"/>
</svg>
