<svg width="24" height="24" viewBox="0 0 24 24" fill="none" xmlns="http://www.w3.org/2000/svg">
<path fill-rule="evenodd" clip-rule="evenodd" d="M19 1.48416e-05L23 0C23.2652 -9.53668e-07 23.5195 0.105355 23.7071 0.292891C23.8946 0.480426 24 0.73478 24 0.999997L24 5.00001C24 5.26523 23.8946 5.51958 23.7071 5.70712L11.9142 17.5L13.7071 19.2929C14.0976 19.6834 14.0976 20.3166 13.7071 20.7071C13.3166 21.0977 12.6834 21.0977 12.2929 20.7071L9.79289 18.2071L9.46376 17.878L5.9999 20.9955C6.00096 21.7635 5.70873 22.534 5.12132 23.1214C3.94975 24.293 2.05025 24.293 0.87868 23.1214C-0.292893 21.9498 -0.292893 20.0503 0.87868 18.8787C1.46607 18.2913 2.23647 17.9991 3.00451 18.0002L6.12202 14.5363L5.79287 14.2071L3.29289 11.7071C2.90237 11.3166 2.90237 10.6834 3.29289 10.2929C3.68342 9.90239 4.31658 9.90239 4.70711 10.2929L6.49998 12.0858L18.2929 0.292907C18.4804 0.105372 18.7348 1.57952e-05 19 1.48416e-05ZM7.91419 13.5L8.2071 13.7929L10.2071 15.7929L10.5 16.0858L22 4.5858L22 2L19.4142 2.00001L7.91419 13.5ZM7.53819 15.9524L5.00435 18.7678C5.0441 18.8035 5.08311 18.8405 5.12132 18.8787C5.15952 18.9169 5.19648 18.9559 5.23221 18.9957L8.04759 16.4618L7.53819 15.9524ZM3.20676 20.0214C2.88445 19.954 2.54009 20.0458 2.29289 20.293C1.90237 20.6835 1.90237 21.3166 2.29289 21.7072C2.68342 22.0977 3.31658 22.0977 3.70711 21.7072C3.95431 21.46 4.0461 21.1156 3.97862 20.7933C3.94032 20.6103 3.85075 20.4366 3.70711 20.293C3.56346 20.1493 3.3897 20.0597 3.20676 20.0214Z" fill="black"/>
</svg>
