<svg width="24" height="24" viewBox="0 0 24 24" fill="none" xmlns="http://www.w3.org/2000/svg">
<rect width="24" height="24" fill="white"/>
<path fill-rule="evenodd" clip-rule="evenodd" d="M17.2142 2.59998C16.8225 2.21619 16.1949 2.21937 15.8071 2.6071L9.62132 8.79293C9.2308 9.18345 9.2308 9.81661 9.62132 10.2071L9.70711 10.2929L13.7071 14.2929L13.7984 14.3842C14.1878 14.7737 14.8189 14.7749 15.2098 14.387L21.4625 8.18289C21.8584 7.79003 21.8564 7.14919 21.4581 6.7588L17.2142 2.59998ZM14.3929 1.19289C15.5561 0.0296938 17.4391 0.0201646 18.614 1.17152L22.8579 5.33034C24.053 6.50151 24.059 8.42402 22.8712 9.60261L16.6185 15.8067C15.6606 16.7572 14.2223 16.9289 13.0908 16.3235L9.70711 19.7071C9.01651 20.3976 8.01162 20.5824 7.15287 20.2613L5.3834 22.0308C5.58433 22.4088 5.52557 22.8886 5.20711 23.207C4.81658 23.5976 4.18342 23.5976 3.79289 23.207L3.29289 22.707L1.29289 20.707L0.792893 20.207C0.402369 19.8165 0.402369 19.1834 0.792893 18.7928C1.11136 18.4744 1.59117 18.4156 1.96919 18.6165L3.73866 16.8471C3.41756 15.9883 3.60231 14.9834 4.29291 14.2928L7.67822 10.9076C7.07543 9.77355 7.25172 8.3341 8.20711 7.37871L14.3929 1.19289ZM8.99999 12.4142L5.70711 15.7071C5.54535 15.8688 5.54535 16.1311 5.70711 16.2928L7.70711 18.2928C7.86887 18.4546 8.13114 18.4546 8.29291 18.2928L11.5858 15L8.99999 12.4142ZM5 18.4142L3.41421 19.9999L4 20.5857L5.58579 18.9999L5 18.4142Z" fill="black"/>
</svg>
