<svg width="24" height="24" viewBox="0 0 24 24" fill="none" xmlns="http://www.w3.org/2000/svg">
<path fill-rule="evenodd" clip-rule="evenodd" d="M14.7529 0.790742C15.5284 0.0152789 16.7837 0.00892685 17.567 0.776495L23.2422 6.33797C24.039 7.11875 24.043 8.40043 23.2511 9.18615L16.3702 16.0136C15.3949 16.9814 13.9421 17.1752 12.7754 16.5967L9.36714 20.0049C8.67655 20.6955 7.67166 20.8802 6.81291 20.5591L5.04343 22.3286C5.24437 22.7066 5.1856 23.1864 4.86714 23.5049C4.47662 23.8954 3.84345 23.8954 3.45293 23.5049L2.95293 23.0049L0.952927 21.0049L0.452927 20.5049C0.0624031 20.1144 0.0624031 19.4812 0.452927 19.0907C0.77139 18.7722 1.25121 18.7134 1.62922 18.9144L3.3987 17.1449C3.07759 16.2861 3.26234 15.2813 3.95294 14.5907L7.36152 11.1822C6.78415 10.0153 6.98129 8.5624 7.95293 7.59076L14.7529 0.790742ZM8.66003 12.7121L5.36714 16.0049C5.20539 16.1667 5.20538 16.4289 5.36714 16.5907L7.36714 18.5907C7.52891 18.7524 7.79118 18.7524 7.95294 18.5907L11.2458 15.2979L8.66003 12.7121ZM4.66003 18.712L3.07425 20.2978L3.66003 20.8836L5.24582 19.2978L4.66003 18.712ZM21.8424 7.76644L16.1672 2.20496L9.36714 9.00498C8.92924 9.44288 8.92924 10.1529 9.36714 10.5908L13.3671 14.5908C13.8071 15.0307 14.5199 15.0321 14.9615 14.5939L21.8424 7.76644Z" fill="black"/>
</svg>
