<svg width="24" height="24" viewBox="0 0 24 24" fill="none" xmlns="http://www.w3.org/2000/svg">
<path fill-rule="evenodd" clip-rule="evenodd" d="M14.3675 2.15671C14.7781 2.01987 15.2219 2.01987 15.6325 2.15671L20.6325 3.82338C21.4491 4.09561 22 4.85988 22 5.72074V19.6126C22 20.9777 20.6626 21.9416 19.3675 21.5099L15 20.0541L9.63246 21.8433C9.22192 21.9801 8.77808 21.9801 8.36754 21.8433L3.36754 20.1766C2.55086 19.9044 2 19.1401 2 18.2792V4.38741C2 3.0223 3.33739 2.05836 4.63246 2.49004L9 3.94589L14.3675 2.15671ZM15 4.05408L9.63246 5.84326C9.22192 5.9801 8.77808 5.9801 8.36754 5.84326L4 4.38741V18.2792L9 19.9459L14.3675 18.1567C14.7781 18.0199 15.2219 18.0199 15.6325 18.1567L20 19.6126V5.72074L15 4.05408ZM13.2929 8.29288C13.6834 7.90235 14.3166 7.90235 14.7071 8.29288L15.5 9.08577L16.2929 8.29288C16.6834 7.90235 17.3166 7.90235 17.7071 8.29288C18.0976 8.6834 18.0976 9.31657 17.7071 9.70709L16.9142 10.5L17.7071 11.2929C18.0976 11.6834 18.0976 12.3166 17.7071 12.7071C17.3166 13.0976 16.6834 13.0976 16.2929 12.7071L15.5 11.9142L14.7071 12.7071C14.3166 13.0976 13.6834 13.0976 13.2929 12.7071C12.9024 12.3166 12.9024 11.6834 13.2929 11.2929L14.0858 10.5L13.2929 9.70709C12.9024 9.31657 12.9024 8.6834 13.2929 8.29288ZM6 16C6.55228 16 7 15.5523 7 15C7 14.4477 6.55228 14 6 14C5.44772 14 5 14.4477 5 15C5 15.5523 5.44772 16 6 16ZM9 12C9 12.5523 8.55228 13 8 13C7.44772 13 7 12.5523 7 12C7 11.4477 7.44772 11 8 11C8.55228 11 9 11.4477 9 12ZM11 12C11.5523 12 12 11.5523 12 11C12 10.4477 11.5523 9.99998 11 9.99998C10.4477 9.99998 10 10.4477 10 11C10 11.5523 10.4477 12 11 12Z" fill="black"/>
</svg>
