<svg width="24" height="24" fill="none" xmlns="http://www.w3.org/2000/svg"><path fill-rule="evenodd" clip-rule="evenodd" d="M5 3a1 1 0 0 1 1-1h12a1 1 0 0 1 1 1v18a1 1 0 0 1-1 1H6a1 1 0 0 1-1-1V3zm1-3a3 3 0 0 0-3 3v18a3 3 0 0 0 3 3h12a3 3 0 0 0 3-3V3a3 3 0 0 0-3-3H6zm4.297 14.056c.442 0 .863-.126 1.216-.345v1.317h-.486a.486.486 0 0 0 0 .972h1.944a.486.486 0 0 0 0-.972h-.486V13.71c.353.22.774.345 1.215.345 1.167 0 2.188-.874 2.188-2.042 0-.7-.431-1.187-.845-1.551-.171-.15-.361-.298-.542-.438l-.002-.002-.118-.092a7.056 7.056 0 0 1-.612-.522c-.573-.565-1.102-1.46-1.343-1.904a.486.486 0 0 0-.854 0c-.24.443-.77 1.339-1.343 1.904-.184.181-.391.35-.612.522-.04.03-.08.062-.12.094-.18.14-.371.288-.542.438-.414.364-.845.85-.845 1.55 0 1.169 1.021 2.043 2.188 2.043zM8 3.5a.5.5 0 0 1 .447.276l1 2 .5 1a.5.5 0 0 1-.894.448L8.69 6.5H7.309l-.362.724a.5.5 0 1 1-.894-.448l.5-1 1-2A.5.5 0 0 1 8 3.5zm.191 2L8 5.118l-.191.382h.382zm8.256 11.276a.5.5 0 0 0-.894 0l-1 2-.5 1a.5.5 0 1 0 .894.448l.362-.724h1.382l.362.724a.5.5 0 1 0 .894-.448l-.5-1-1-2zM16 18.118l.191.382h-.382l.191-.382z" fill="#000"/></svg>