<svg width="24" height="24" fill="none" xmlns="http://www.w3.org/2000/svg"><path fill-rule="evenodd" clip-rule="evenodd" d="M16 2a1 1 0 011-1h2a1 1 0 110 2v2a3 3 0 013 3v12a3 3 0 01-3 3H5a3 3 0 01-3-3V8a3 3 0 013-3V4a1 1 0 010-2h2a1 1 0 010 2v1h10V3a1 1 0 01-1-1zM6 7h13a1 1 0 011 1v12a1 1 0 01-1 1H5a1 1 0 01-1-1V8a1 1 0 011-1h1zm6 1a1 1 0 011 1v4.465l2.555 1.703a1 1 0 01-1.11 1.664l-3-2A1 1 0 0111 14V9a1 1 0 011-1zm-5 7a1 1 0 100-2 1 1 0 000 2zm11-1a1 1 0 11-2 0 1 1 0 012 0zm-6 6a1 1 0 100-2 1 1 0 000 2z" fill="#000"/></svg>