<svg width="24" height="24" fill="none" xmlns="http://www.w3.org/2000/svg"><path fill-rule="evenodd" clip-rule="evenodd" d="M11 3a1 1 0 112 0 1 1 0 01-2 0zm1-3a3 3 0 00-1.772 5.42c-.692.88-1.534 1.635-2.417 2.426-.305.275-.616.553-.927.843C5.45 10.024 4 11.626 4 14c0 2.125 1.207 3.863 2.272 4.995l.004.005H5a1 1 0 00-.832.445l-2 3A1 1 0 003 24h7a1 1 0 00.832-.445L12 21.803l1.168 1.752A1 1 0 0014 24h7a1 1 0 00.832-1.555l-2-3A1 1 0 0019 19h-1.214C18.85 17.874 20 16.163 20 14c0-2.597-1.423-4.203-2.899-5.52-.35-.313-.697-.607-1.036-.893-.839-.71-1.626-1.377-2.28-2.176A3 3 0 0012 0zM9.043 9.432c.97-.867 2.075-1.853 2.964-3.05.874 1.143 1.957 2.055 2.905 2.855.303.255.593.499.857.735C17.126 11.184 18 12.284 18 14c0 1.462-.801 2.725-1.721 3.683A9.808 9.808 0 0114.709 19H9.307a10.86 10.86 0 01-1.578-1.375C6.792 16.63 6 15.367 6 14c0-1.46.848-2.544 2.247-3.848.249-.231.517-.47.796-.72zM9 21h1.132l-.667 1H4.869l.666-1H9zm6 0h-1.132l.667 1h4.596l-.666-1H15zm-2-10a1 1 0 10-2 0v1h-1a1 1 0 100 2h1v2a1 1 0 102 0v-2h1a1 1 0 100-2h-1v-1z" fill="#000"/></svg>