<svg width="24" height="24" fill="none" xmlns="http://www.w3.org/2000/svg"><path fill-rule="evenodd" clip-rule="evenodd" d="M12 0a1 1 0 011 1v1h1a1 1 0 110 2h-1v2.134c1.187.329 2.116 1.234 2.61 2.402 1.179-.83 2.405-1.205 3.58-1.148 1.627.078 2.99.983 3.792 2.316 1.545 2.564.972 6.442-2.726 9.573l.915 1.829A2 2 0 0119.382 24H4.618a2 2 0 01-1.789-2.894l.914-1.829c-3.697-3.13-4.27-7.009-2.725-9.573C1.82 8.37 3.183 7.466 4.81 7.388c1.175-.057 2.4.319 3.58 1.148C8.884 7.368 9.813 6.463 11 6.134V4h-1a1 1 0 110-2h1V1a1 1 0 011-1zM8.013 10.81C6.84 9.692 5.75 9.345 4.907 9.385c-.904.044-1.687.538-2.176 1.35-.929 1.543-.853 4.53 2.61 7.265h5.103a69.754 69.754 0 01-.87-2.046 38.6 38.6 0 01-1.06-2.896c-.243-.78-.449-1.582-.501-2.248zM13.556 18h5.104c3.462-2.735 3.538-5.722 2.61-7.264-.49-.813-1.273-1.307-2.177-1.35-.843-.041-1.934.306-3.106 1.424-.052.666-.257 1.468-.501 2.248a38.622 38.622 0 01-1.06 2.896 69.84 69.84 0 01-.87 2.046zm4.826 2H5.618l-1 2h14.764l-1-2zM12 16.569c.182-.421.378-.885.573-1.366.37-.912.734-1.877 1.004-2.741.28-.895.423-1.575.423-1.962l-.001-.09C13.959 8.88 12.96 8 12 8c-.96 0-1.959.88-1.999 2.41L10 10.5c0 .387.144 1.067.423 1.962.27.864.634 1.829 1.004 2.74.195.482.39.946.573 1.367z" fill="#000"/></svg>