<svg width="24" height="24" fill="none" xmlns="http://www.w3.org/2000/svg"><path fill-rule="evenodd" clip-rule="evenodd" d="M16 2a1 1 0 0 1 1-1h2a1 1 0 1 1 0 2v2a3 3 0 0 1 3 3v12a3 3 0 0 1-3 3H5a3 3 0 0 1-3-3V8a3 3 0 0 1 3-3V4a1 1 0 0 1 0-2h2a1 1 0 0 1 0 2v1h10V3a1 1 0 0 1-1-1zM6 7h13a1 1 0 0 1 1 1v12a1 1 0 0 1-1 1H5a1 1 0 0 1-1-1V8a1 1 0 0 1 1-1h1zm6 1a1 1 0 0 1 1 1v4.465l2.555 1.703a1 1 0 0 1-1.11 1.664l-3-2A1 1 0 0 1 11 14V9a1 1 0 0 1 1-1zm-5 7a1 1 0 1 0 0-2 1 1 0 0 0 0 2zm11-1a1 1 0 1 1-2 0 1 1 0 0 1 2 0zm-6 6a1 1 0 1 0 0-2 1 1 0 0 0 0 2z" fill="#000"/></svg>