<svg width="24" height="24" fill="none" xmlns="http://www.w3.org/2000/svg"><path fill-rule="evenodd" clip-rule="evenodd" d="M2 4a1 1 0 0 1 1-1h4a1 1 0 0 1 1 1v1.5a.5.5 0 0 0 1 0V4a1 1 0 0 1 1-1h4a1 1 0 0 1 1 1v1.5a.5.5 0 0 0 1 0V4a1 1 0 0 1 1-1h4a1 1 0 0 1 1 1v3a4.002 4.002 0 0 1-3 3.874V19h1a1 1 0 0 1 .949.684L21.72 22H22a1 1 0 1 1 0 2H2a1 1 0 1 1 0-2h.28l.771-2.316A1 1 0 0 1 4 19h1v-8.126A4.002 4.002 0 0 1 2 7V4zm5 7v8h10v-8H7zM4.387 22h15.226l-.334-1H4.72l-.333 1zM4 5v2a2 2 0 0 0 2 2h12a2 2 0 0 0 2-2V5h-2v.5a2.5 2.5 0 0 1-5 0V5h-2v.5a2.5 2.5 0 0 1-5 0V5H4z" fill="#000"/></svg>