<svg width="24" height="24" fill="none" xmlns="http://www.w3.org/2000/svg"><path fill-rule="evenodd" clip-rule="evenodd" d="M9.5 6.5a2.5 2.5 0 115 0 2.5 2.5 0 01-5 0zM12 2a4.5 4.5 0 00-2.829 8H8a1 1 0 100 2h1.125a8.22 8.22 0 01-.013 1.354c-.116 1.249-.555 2.737-1.801 3.921-.445.423-1.119.878-1.724 1.245a20.64 20.64 0 01-.97.551l-.057.03-.014.008-.003.001a1 1 0 00-.492.574L3.28 22H3a1 1 0 100 2h18a1 1 0 100-2h-.234l-.61-2.26a1 1 0 00-.547-.648l-.002-.001-.012-.006a15.716 15.716 0 01-.995-.526c-.596-.343-1.295-.798-1.823-1.29-1.263-1.177-1.723-2.667-1.857-3.92A8.294 8.294 0 0114.888 12H16a1 1 0 100-2h-1.171A4.5 4.5 0 0012 2zm-.896 11.54c.054-.582.05-1.108.026-1.54h1.755c-.02.436-.017.97.046 1.562.166 1.55.754 3.56 2.483 5.17.098.091.2.18.303.268H8.381c.107-.09.21-.183.308-.275 1.71-1.625 2.27-3.637 2.415-5.186zM5.72 21h12.704l.27 1H5.386l.334-1z" fill="#000"/></svg>