<svg width="24" height="24" fill="none" xmlns="http://www.w3.org/2000/svg"><path fill-rule="evenodd" clip-rule="evenodd" d="M6 2a1 1 0 0 0-1 1v18a1 1 0 0 0 1 1h12a1 1 0 0 0 1-1V3a1 1 0 0 0-1-1H6zM3 3a3 3 0 0 1 3-3h12a3 3 0 0 1 3 3v18a3 3 0 0 1-3 3H6a3 3 0 0 1-3-3V3zm5.25 1.442A1.296 1.296 0 0 0 7.266 4C6.569 4 6 4.53 6 5.191c0 .6.356 1.158.767 1.612.417.46.927.858 1.31 1.14a.293.293 0 0 0 .346 0c.383-.282.893-.68 1.31-1.14.41-.454.767-1.011.767-1.612C10.5 4.531 9.93 4 9.234 4c-.396 0-.752.172-.984.442zM14.766 16c.396 0 .752.172.984.442.232-.27.588-.442.984-.442.697 0 1.266.53 1.266 1.191 0 .6-.357 1.158-.767 1.612-.416.46-.927.858-1.31 1.14a.294.294 0 0 1-.346 0c-.383-.282-.893-.68-1.31-1.14-.41-.454-.767-1.012-.767-1.612 0-.66.57-1.191 1.266-1.191z" fill="#000"/></svg>