<svg width="24" height="24" fill="none" xmlns="http://www.w3.org/2000/svg"><path fill-rule="evenodd" clip-rule="evenodd" d="M5.437 3L3.152 7l2.285 4h4.554l2.286-4L9.99 3H5.437zm8.572 3l-2.57-4.496A1 1 0 0010.572 1H4.857a1 1 0 00-.868.504l-2.857 5a1 1 0 000 .992L3.705 12l-2.573 4.504a1 1 0 000 .992l2.857 5a1 1 0 00.868.504h5.714a1 1 0 00.869-.504L14.009 18h5.134a1 1 0 00.868-.504l2.857-5a1 1 0 000-.992l-2.857-5A1 1 0 0019.143 6h-5.134zm0 10l-2.286-4 2.286-4h4.553l2.286 4-2.285 4h-4.554zm-1.732 1L9.99 13H5.437l-2.285 4 2.285 4h4.554l2.286-4z" fill="#000"/></svg>