<svg width="24" height="24" fill="none" xmlns="http://www.w3.org/2000/svg"><path fill-rule="evenodd" clip-rule="evenodd" d="M7.324 4l-4.666 8 .395.678c.027-.08.066-.159.115-.233l2-3a1 1 0 011.54-.152l1.209 1.21 3.242-5.044a1 1 0 011.655-.04l3.596 5.034.79-1.053a1 1 0 011.6 0l2.283 3.044.26-.444-4.667-8H7.324zm7.827 8.132l-3.107-4.35L8.34 13.54a1 1 0 01-1.682-1.082l.151-.235a.936.936 0 01-.017-.017l-.638-.637-1.323 1.985a1 1 0 01-1.018.428L7.324 20h9.352l3.313-5.68L18 11.666 15.8 14.6a1 1 0 01-1.6-1.2l.951-1.268zM6.75 2h10.5a1 1 0 01.864.496l5.25 9a1 1 0 010 1.008l-5.25 9a1 1 0 01-.864.496H6.75a1 1 0 01-.864-.496l-5.25-9a1 1 0 010-1.008l5.25-9A1 1 0 016.75 2zm6.05 11.4a1 1 0 00-1.6 0l-3 4a1 1 0 001.6 1.2l2.2-2.933 2.2 2.933a1 1 0 001.6-1.2l-3-4z" fill="#000"/></svg>