<svg width="24" height="24" fill="none" xmlns="http://www.w3.org/2000/svg"><path fill-rule="evenodd" clip-rule="evenodd" d="M2.293 2.293a1 1 0 011.414 0L6.5 5.086l2.793-2.793a1 1 0 011.414 1.414L7.914 6.5l2.793 2.793a1 1 0 01-1.414 1.414L6.5 7.914l-2.793 2.793a1 1 0 01-1.414-1.414L5.086 6.5 2.293 3.707a1 1 0 010-1.414zM17.5 4a2.5 2.5 0 100 5 2.5 2.5 0 000-5zM13 6.5a4.5 4.5 0 119 0 4.5 4.5 0 01-9 0zM6.5 15a2.5 2.5 0 100 5 2.5 2.5 0 000-5zM2 17.5a4.5 4.5 0 119 0 4.5 4.5 0 01-9 0zm11.293-4.207a1 1 0 011.414 0l2.793 2.793 2.793-2.793a1 1 0 011.414 1.414L18.914 17.5l2.793 2.793a1 1 0 01-1.414 1.414L17.5 18.914l-2.793 2.793a1 1 0 01-1.414-1.414l2.793-2.793-2.793-2.793a1 1 0 010-1.414z" fill="#000"/></svg>