<svg width="24" height="24" viewBox="0 0 24 24" fill="none" xmlns="http://www.w3.org/2000/svg">
<path fill-rule="evenodd" clip-rule="evenodd" d="M5.77952 7.96877C5.98236 7.95589 6.19198 7.91812 6.40682 7.85234C7.67428 7.46428 8.84318 6.87012 9.9597 6.19937C10.495 6.69621 11.212 7 12 7C12.788 7 13.505 6.69621 14.0403 6.19937C15.1568 6.87012 16.3257 7.46428 17.5932 7.85234C17.808 7.91812 18.0176 7.9559 18.2205 7.96877C18.7956 8.67891 19.2517 9.48957 19.5581 10.3705L19.7526 10.9295L20.3363 11.028C21.2806 11.1873 22 12.0106 22 13C22 13.9894 21.2806 14.8127 20.3363 14.972L19.7526 15.0705L19.5581 15.6295C18.47 18.7574 15.4956 21 12 21C8.5044 21 5.53 18.7574 4.44191 15.6295L4.24743 15.0705L3.66374 14.972C2.71943 14.8127 2 13.9894 2 13C2 12.0106 2.71943 11.1873 3.66374 11.028L4.24743 10.9295L4.44191 10.3705C4.74833 9.48957 5.20437 8.6789 5.77952 7.96877ZM3.84698 7.20867C3.31764 6.66995 3 5.91062 3 5.14331V2.85668C3 1.191 4.49687 -0.437102 6.40682 0.147661C7.67428 0.535716 8.84318 1.12988 9.9597 1.80063C10.495 1.30379 11.212 1 12 1C12.788 1 13.505 1.30379 14.0403 1.80063C15.1568 1.12988 16.3257 0.535717 17.5932 0.147661C19.5031 -0.437102 21 1.19101 21 2.85669V5.14332C21 5.91062 20.6824 6.66996 20.153 7.20867C20.5912 7.82449 20.9614 8.49203 21.2525 9.2003C22.8483 9.72617 24 11.2278 24 13C24 14.7722 22.8483 16.2738 21.2525 16.7997C19.7572 20.437 16.1791 23 12 23C7.82089 23 4.24277 20.437 2.74747 16.7997C1.15171 16.2738 0 14.7722 0 13C0 11.2278 1.15171 9.72616 2.74746 9.2003C3.03864 8.49202 3.40879 7.82449 3.84698 7.20867ZM9.02981 3.5755C7.95632 2.92419 6.91276 2.3942 5.82131 2.06004C5.61971 1.99831 5.44327 2.04373 5.29221 2.17381C5.12838 2.31488 5 2.55925 5 2.85668V5.14331C5 5.44074 5.12838 5.68512 5.29221 5.82619C5.44327 5.95627 5.61971 6.00168 5.82131 5.93996C6.91276 5.6058 7.95632 5.0758 9.02981 4.4245C9.01016 4.28582 9 4.1441 9 4C9 3.8559 9.01016 3.71418 9.02981 3.5755ZM18.1787 5.93996C17.0872 5.6058 16.0437 5.07581 14.9702 4.4245C14.9898 4.28582 15 4.1441 15 4C15 3.8559 14.9898 3.71418 14.9702 3.5755C16.0437 2.9242 17.0872 2.3942 18.1787 2.06004C18.3803 1.99831 18.5567 2.04373 18.7078 2.17381C18.8716 2.31488 19 2.55926 19 2.85669V5.14332C19 5.44075 18.8716 5.68512 18.7078 5.8262C18.5567 5.95627 18.3803 6.00169 18.1787 5.93996ZM11 4C11 3.44772 11.4477 3 12 3C12.5523 3 13 3.44772 13 4C13 4.55228 12.5523 5 12 5C11.4477 5 11 4.55228 11 4ZM10.8944 16.5528C10.6474 16.0588 10.0468 15.8586 9.55279 16.1056C9.05881 16.3526 8.85858 16.9532 9.10557 17.4472C9.68052 18.5971 10.9822 19 12 19C13.0178 19 14.3195 18.5971 14.8944 17.4472C15.1414 16.9532 14.9412 16.3526 14.4472 16.1056C13.9532 15.8586 13.3526 16.0588 13.1056 16.5528C13.0139 16.7362 12.6488 17 12 17C11.3512 17 10.9861 16.7362 10.8944 16.5528ZM16.5 13C16.5 13.8284 15.8284 14.5 15 14.5C14.1716 14.5 13.5 13.8284 13.5 13C13.5 12.1716 14.1716 11.5 15 11.5C15.8284 11.5 16.5 12.1716 16.5 13ZM9 14.5C9.82843 14.5 10.5 13.8284 10.5 13C10.5 12.1716 9.82843 11.5 9 11.5C8.17157 11.5 7.5 12.1716 7.5 13C7.5 13.8284 8.17157 14.5 9 14.5Z" fill="black"/>
</svg>
