<svg width="24" height="24" viewBox="0 0 24 24" fill="none" xmlns="http://www.w3.org/2000/svg">
<path fill-rule="evenodd" clip-rule="evenodd" d="M12.6402 1.23177C12.2159 0.878209 11.5853 0.935533 11.2318 1.35981C10.8782 1.78409 10.9355 2.41465 11.3598 2.76822C11.3992 2.80101 11.4754 2.88257 11.5618 3.00942C7.57206 3.1814 4.19023 5.6908 2.74746 9.2003C1.15171 9.72616 0 11.2278 0 13C0 14.7722 1.15171 16.2738 2.74747 16.7997C4.24277 20.437 7.82089 23 12 23C16.1791 23 19.7572 20.437 21.2525 16.7997C22.8483 16.2738 24 14.7722 24 13C24 11.2278 22.8483 9.72617 21.2525 9.2003C19.9787 6.10183 17.1935 3.78292 13.8128 3.16389C13.5388 2.21724 13.0199 1.54817 12.6402 1.23177ZM11.9565 5.00011C11.8299 5.71211 11.4645 6.14453 11.3598 6.23177C10.9355 6.58534 10.8782 7.2159 11.2318 7.64018C11.5853 8.06446 12.2159 8.12178 12.6402 7.76822C13.0955 7.3888 13.7511 6.5022 13.9444 5.23796C16.5673 5.8929 18.6787 7.84254 19.5581 10.3705L19.7526 10.9295L20.3363 11.028C21.2806 11.1873 22 12.0106 22 13C22 13.9894 21.2806 14.8127 20.3363 14.972L19.7526 15.0705L19.5581 15.6295C18.47 18.7574 15.4956 21 12 21C8.5044 21 5.53 18.7574 4.44191 15.6295L4.24743 15.0705L3.66374 14.972C2.71943 14.8127 2 13.9894 2 13C2 12.0106 2.71943 11.1873 3.66374 11.028L4.24743 10.9295L4.44191 10.3705C5.52547 7.25554 8.47972 5.01865 11.9565 5.00011ZM9.55279 16.1056C10.0468 15.8586 10.6474 16.0588 10.8944 16.5528C10.9861 16.7362 11.3512 17 12 17C12.6488 17 13.0139 16.7362 13.1056 16.5528C13.3526 16.0588 13.9532 15.8586 14.4472 16.1056C14.9412 16.3526 15.1414 16.9532 14.8944 17.4472C14.3195 18.5971 13.0178 19 12 19C10.9822 19 9.68052 18.5971 9.10557 17.4472C8.85858 16.9532 9.05881 16.3526 9.55279 16.1056ZM15 14.5C15.8284 14.5 16.5 13.8284 16.5 13C16.5 12.1716 15.8284 11.5 15 11.5C14.1716 11.5 13.5 12.1716 13.5 13C13.5 13.8284 14.1716 14.5 15 14.5ZM10.5 13C10.5 13.8284 9.82843 14.5 9 14.5C8.17157 14.5 7.5 13.8284 7.5 13C7.5 12.1716 8.17157 11.5 9 11.5C9.82843 11.5 10.5 12.1716 10.5 13Z" fill="black"/>
</svg>
