<svg width="24" height="24" viewBox="0 0 24 24" fill="none" xmlns="http://www.w3.org/2000/svg">
<path fill-rule="evenodd" clip-rule="evenodd" d="M4 12C4 7.58172 7.58172 4 12 4C16.3691 4 19.9201 7.5024 19.9987 11.8527C20.2214 11.9895 20.4136 12.1531 20.5769 12.3221C20.9739 12.1276 21.461 11.9861 21.9999 12.0369L22 12C22 6.47715 17.5228 2 12 2C6.47715 2 2 6.47715 2 12C2 17.5228 6.47715 22 12 22C14.4465 22 16.6878 21.1215 18.4256 19.6626C18.34 19.5995 18.2589 19.5286 18.1835 19.45C17.8762 19.1297 17.4696 18.6924 17.0748 18.1846C15.694 19.319 13.9265 20 12 20C7.58172 20 4 16.4183 4 12ZM20.1323 14.8374C20.2114 14.3887 19.6534 13.1385 18.8846 13.0029C17.9616 12.8401 17.3036 13.4431 17.1506 14.3104C17.0116 15.0991 17.355 15.914 17.7939 16.6069C18.2391 17.3096 18.824 17.9508 19.266 18.4115C19.3832 18.5338 19.5719 18.567 19.7239 18.4923C20.2968 18.2105 21.0658 17.808 21.7244 17.2999C22.3738 16.799 22.9753 16.1506 23.1143 15.3619C23.2672 14.4947 22.8513 13.7023 21.9283 13.5396C21.1602 13.4041 20.2078 14.4089 20.1323 14.8374ZM14.59 11.1976C14.1259 11.497 13.507 11.3635 13.2076 10.8994C12.9082 10.4353 13.0417 9.81636 13.5058 9.51697C14.4729 8.89313 15.626 8.81949 16.8765 9.26158C17.3972 9.44566 17.6701 10.017 17.4861 10.5377C17.302 11.0584 16.7306 11.3313 16.2099 11.1472C15.4174 10.8671 14.934 10.9757 14.59 11.1976ZM10.5 10C10.5 10.8284 9.82843 11.5 9 11.5C8.17157 11.5 7.5 10.8284 7.5 10C7.5 9.17157 8.17157 8.5 9 8.5C9.82843 8.5 10.5 9.17157 10.5 10ZM11.0001 18.5C11.1169 18.9588 11.5001 19 12.0001 19C13.0001 19 14.2181 18.6736 14.6206 18.3242C15.3526 17.6889 15.1411 16.4282 13.0001 15.9995C15.1411 15.5709 15.3526 14.3729 14.6206 13.7375C14.2257 13.3947 13.0001 13 12.0001 13C11.5001 13 11.1157 13.0425 11.0002 13.4962C10.8987 13.8947 11.3664 14.039 11.8157 14.1776C12.1019 14.266 12.3807 14.352 12.5001 14.5C13.1404 15.2934 11.0004 15.9995 11.0004 15.9995C11.0004 15.9995 13.1445 16.707 12.5001 17.5C12.3794 17.648 12.1002 17.7341 11.8139 17.8223C11.3652 17.9606 10.8993 18.1042 11.0001 18.5Z" fill="black"/>
</svg>
