<svg width="24" height="24" viewBox="0 0 24 24" fill="none" xmlns="http://www.w3.org/2000/svg">
<path fill-rule="evenodd" clip-rule="evenodd" d="M5.07025 8.00001C6.45349 5.6088 9.03887 4 12 4C14.9611 4 17.5465 5.6088 18.9297 8.00001H5.07025ZM4.15876 10.4062C4.05465 10.9213 4 11.4543 4 12C4 16.4183 7.58172 20 12 20C16.4183 20 20 16.4183 20 12C20 11.4544 19.9454 10.9216 19.8413 10.4067C19.4133 12.2919 18.1221 14 16 14C13.7323 14 12.4107 12.0331 12.0901 10H11.9099C11.5893 12.0331 10.2677 14 8 14C5.87735 14 4.58672 12.2917 4.15876 10.4062ZM12 2C6.47715 2 2 6.47715 2 12C2 17.5228 6.47715 22 12 22C17.5228 22 22 17.5228 22 12C22 6.47715 17.5228 2 12 2ZM8.75746 15.0299C9.28872 14.897 9.827 15.2162 9.96665 15.7439C10.2278 16.6147 11.1602 17 12 17C12.8398 17 13.7722 16.6146 14.0333 15.7439C14.173 15.2162 14.7113 14.897 15.2425 15.0299C15.7783 15.1638 16.1041 15.7042 15.9701 16.24C15.4524 17.9881 13.7853 19 12 19C10.2833 19 8.46886 17.9986 8.02985 16.2425C7.8959 15.7067 8.22166 15.1638 8.75746 15.0299Z" fill="black"/>
</svg>
