<svg width="24" height="24" viewBox="0 0 24 24" fill="none" xmlns="http://www.w3.org/2000/svg">
<path fill-rule="evenodd" clip-rule="evenodd" d="M12 4C7.58172 4 4 7.58172 4 12C4 16.4183 7.58172 20 12 20C16.4183 20 20 16.4183 20 12C20 7.58172 16.4183 4 12 4ZM2 12C2 6.47715 6.47715 2 12 2C17.5228 2 22 6.47715 22 12C22 17.5228 17.5228 22 12 22C6.47715 22 2 17.5228 2 12ZM7.99979 13.7161C7.99979 14.5393 7.33239 15.2067 6.50911 15.2067C5.68583 15.2067 5.01843 14.5393 5.01843 13.7161C5.01843 12.8928 6.50911 10.7347 6.50911 10.7347C6.50911 10.7347 7.99979 12.8928 7.99979 13.7161ZM14.0333 17.2558C14.173 17.7836 14.7113 18.1027 15.2425 17.9699C15.7783 17.8359 16.1041 17.293 15.9701 16.7572C15.5311 15.0012 13.7167 13.9998 12 13.9998C10.2147 13.9998 8.54762 15.0116 8.02985 16.7597C7.8959 17.2955 8.22166 17.8359 8.75746 17.9699C9.28872 18.1027 9.827 17.7836 9.96665 17.2558C10.2278 16.3851 11.1602 15.9998 12 15.9998C12.8398 15.9998 13.7722 16.3851 14.0333 17.2558ZM10.5 10C10.5 10.8284 9.82843 11.5 9 11.5C8.17157 11.5 7.5 10.8284 7.5 10C7.5 9.17157 8.17157 8.5 9 8.5C9.82843 8.5 10.5 9.17157 10.5 10ZM15 11.5C15.8284 11.5 16.5 10.8284 16.5 10C16.5 9.17157 15.8284 8.5 15 8.5C14.1716 8.5 13.5 9.17157 13.5 10C13.5 10.8284 14.1716 11.5 15 11.5Z" fill="black"/>
</svg>
