<svg width="24" height="24" viewBox="0 0 24 24" fill="none" xmlns="http://www.w3.org/2000/svg">
<path fill-rule="evenodd" clip-rule="evenodd" d="M4 12C4 7.58172 7.58172 4 12 4C16.4183 4 20 7.58172 20 12C20 16.4183 16.4183 20 12 20C7.58172 20 4 16.4183 4 12ZM12 2C6.47715 2 2 6.47715 2 12C2 17.5228 6.47715 22 12 22C17.5228 22 22 17.5228 22 12C22 6.47715 17.5228 2 12 2ZM12 19C13.6569 19 15 17.6569 15 16C15 14.3431 13.6569 13 12 13C10.3431 13 9 14.3431 9 16C9 17.6569 10.3431 19 12 19ZM13.2929 8.29289C13.6834 7.90237 14.3166 7.90237 14.7071 8.29289L15.5 9.08579L16.2929 8.29289C16.6834 7.90237 17.3166 7.90237 17.7071 8.29289C18.0976 8.68342 18.0976 9.31658 17.7071 9.70711L16.9142 10.5L17.7071 11.2929C18.0976 11.6834 18.0976 12.3166 17.7071 12.7071C17.3166 13.0976 16.6834 13.0976 16.2929 12.7071L15.5 11.9142L14.7071 12.7071C14.3166 13.0976 13.6834 13.0976 13.2929 12.7071C12.9024 12.3166 12.9024 11.6834 13.2929 11.2929L14.0858 10.5L13.2929 9.70711C12.9024 9.31658 12.9024 8.68342 13.2929 8.29289ZM10.7071 9.70711C11.0976 9.31658 11.0976 8.68342 10.7071 8.29289C10.3166 7.90237 9.68342 7.90237 9.29289 8.29289L8.5 9.08579L7.70711 8.29289C7.31658 7.90237 6.68342 7.90237 6.29289 8.29289C5.90237 8.68342 5.90237 9.31658 6.29289 9.70711L7.08579 10.5L6.29289 11.2929C5.90237 11.6834 5.90237 12.3166 6.29289 12.7071C6.68342 13.0976 7.31658 13.0976 7.70711 12.7071L8.5 11.9142L9.29289 12.7071C9.68342 13.0976 10.3166 13.0976 10.7071 12.7071C11.0976 12.3166 11.0976 11.6834 10.7071 11.2929L9.91421 10.5L10.7071 9.70711Z" fill="black"/>
</svg>
