<svg width="24" height="24" viewBox="0 0 24 24" fill="none" xmlns="http://www.w3.org/2000/svg">
<path fill-rule="evenodd" clip-rule="evenodd" d="M4 12C4 7.58172 7.58172 4 12 4C16.4183 4 20 7.58172 20 12C20 16.4183 16.4183 20 12 20C7.58172 20 4 16.4183 4 12ZM12 2C6.47715 2 2 6.47715 2 12C2 17.5228 6.47715 22 12 22C17.5228 22 22 17.5228 22 12C22 6.47715 17.5228 2 12 2ZM8.03001 15.2425C7.87428 14.6196 8.36619 14.0002 9.00016 13.9998H15.0002C15.6333 14.0002 16.126 14.6172 15.9703 15.24C15.4525 16.9881 13.7854 18 12.0002 18C10.2834 18 8.46902 16.9986 8.03001 15.2425ZM16.5 10C16.5 10.8284 15.8284 11.5 15 11.5C14.1716 11.5 13.5 10.8284 13.5 10C13.5 9.17157 14.1716 8.5 15 8.5C15.8284 8.5 16.5 9.17157 16.5 10ZM9 11.5C9.82843 11.5 10.5 10.8284 10.5 10C10.5 9.17157 9.82843 8.5 9 8.5C8.17157 8.5 7.5 9.17157 7.5 10C7.5 10.8284 8.17157 11.5 9 11.5Z" fill="black"/>
</svg>
