<svg width="24" height="24" viewBox="0 0 24 24" fill="none" xmlns="http://www.w3.org/2000/svg">
<path fill-rule="evenodd" clip-rule="evenodd" d="M4 12C4 7.58172 7.58172 4 12 4C16.4183 4 20 7.58172 20 12C20 16.4183 16.4183 20 12 20C7.58172 20 4 16.4183 4 12ZM12 2C6.47715 2 2 6.47715 2 12C2 17.5228 6.47715 22 12 22C17.5228 22 22 17.5228 22 12C22 6.47715 17.5228 2 12 2ZM8.02985 15.2425C7.87412 14.6196 8.36603 14.0002 9 13.9998H15C15.6332 14.0002 16.1258 14.6172 15.9701 15.24C15.4524 16.9881 13.7853 18 12 18C10.2833 18 8.46886 16.9986 8.02985 15.2425ZM17.3944 8.55279C17.1474 8.05881 16.5468 7.85858 16.0528 8.10557L13.0528 9.60557C12.714 9.77496 12.5 10.1212 12.5 10.5C12.5 10.8788 12.714 11.225 13.0528 11.3944L16.0528 12.8944C16.5468 13.1414 17.1474 12.9412 17.3944 12.4472C17.6414 11.9532 17.4412 11.3526 16.9472 11.1056L15.7361 10.5L16.9472 9.89443C17.4412 9.64744 17.6414 9.04676 17.3944 8.55279ZM7.94721 8.10557C7.45324 7.85858 6.85256 8.05881 6.60557 8.55279C6.35858 9.04676 6.55881 9.64744 7.05279 9.89443L8.26393 10.5L7.05279 11.1056C6.55881 11.3526 6.35858 11.9532 6.60557 12.4472C6.85256 12.9412 7.45324 13.1414 7.94721 12.8944L10.9472 11.3944C11.286 11.225 11.5 10.8788 11.5 10.5C11.5 10.1212 11.286 9.77496 10.9472 9.60557L7.94721 8.10557Z" fill="black"/>
</svg>
