<svg width="24" height="24" viewBox="0 0 24 24" fill="none" xmlns="http://www.w3.org/2000/svg">
<path fill-rule="evenodd" clip-rule="evenodd" d="M4 12C4 7.58172 7.58172 4 12 4C16.4183 4 20 7.58172 20 12C20 16.4183 16.4183 20 12 20C7.58172 20 4 16.4183 4 12ZM12 2C6.47715 2 2 6.47715 2 12C2 17.5228 6.47715 22 12 22C17.5228 22 22 17.5228 22 12C22 6.47715 17.5228 2 12 2ZM9.96665 14.7439C9.827 14.2162 9.28872 13.897 8.75746 14.0299C8.22166 14.1638 7.8959 14.7067 8.02985 15.2425C8.46886 16.9986 10.2833 18 12 18C13.7853 18 15.4524 16.9881 15.9701 15.24C16.1041 14.7042 15.7783 14.1638 15.2425 14.0299C14.7113 13.897 14.173 14.2162 14.0333 14.7439C13.7722 15.6146 12.8398 16 12 16C11.1602 16 10.2278 15.6147 9.96665 14.7439ZM10.6213 10.1213C10.6213 10.9498 9.94977 11.6213 9.12134 11.6213C8.29291 11.6213 7.62134 10.9498 7.62134 10.1213C7.62134 9.29291 8.29291 8.62134 9.12134 8.62134C9.94977 8.62134 10.6213 9.29291 10.6213 10.1213ZM15 11.5C15.8284 11.5 16.5 10.8284 16.5 10C16.5 9.17157 15.8284 8.5 15 8.5C14.1716 8.5 13.5 9.17157 13.5 10C13.5 10.8284 14.1716 11.5 15 11.5Z" fill="black"/>
</svg>
