<svg width="24" height="24" viewBox="0 0 24 24" fill="none" xmlns="http://www.w3.org/2000/svg">
<path fill-rule="evenodd" clip-rule="evenodd" d="M4 12C4 7.58172 7.58172 4 12 4C16.4183 4 20 7.58172 20 12C20 16.4183 16.4183 20 12 20C7.58172 20 4 16.4183 4 12ZM12 2C6.47715 2 2 6.47715 2 12C2 17.5228 6.47715 22 12 22C17.5228 22 22 17.5228 22 12C22 6.47715 17.5228 2 12 2ZM8.02985 15.2425C7.87412 14.6196 8.36603 14.0002 9 13.9998H15C15.6332 14.0002 16.1258 14.6172 15.9701 15.24C15.4524 16.9881 13.7853 18 12 18C10.2833 18 8.46886 16.9986 8.02985 15.2425ZM8.46619 9.46756C8.38707 9.01883 7.43517 8.03485 6.66635 8.17042C5.74338 8.33316 5.33121 9.12486 5.48413 9.9921C5.6232 10.7808 6.22463 11.4291 6.87406 11.9301C7.5327 12.4382 8.30168 12.8407 8.87457 13.1224C9.02658 13.1972 9.21521 13.1639 9.33249 13.0417C9.77446 12.581 10.3594 11.9398 10.8046 11.2371C11.2435 10.5442 11.5869 9.72923 11.4478 8.94054C11.2949 8.0733 10.633 7.47098 9.71008 7.63373C8.94193 7.76917 8.39064 9.03907 8.46619 9.46756ZM14.2861 7.63308C15.0549 7.76864 15.6129 9.01884 15.5338 9.46757C15.6093 9.03909 16.5617 8.03432 17.3298 8.16977C18.2528 8.33251 18.6687 9.12487 18.5158 9.99212C18.3767 10.7808 17.7753 11.4292 17.1259 11.9301C16.4672 12.4382 15.6983 12.8407 15.1254 13.1224C14.9734 13.1972 14.7847 13.1639 14.6675 13.0417C14.2255 12.581 13.6405 11.9398 13.1954 11.2371C12.7565 10.5442 12.4131 9.72925 12.5521 8.94056C12.705 8.07331 13.3631 7.47033 14.2861 7.63308Z" fill="black"/>
</svg>
