<svg width="24" height="24" viewBox="0 0 24 24" fill="none" xmlns="http://www.w3.org/2000/svg">
<path fill-rule="evenodd" clip-rule="evenodd" d="M4.99926 2.03843C5.01508 1.62727 4.77742 1.24838 4.40037 1.08365C4.02332 0.918905 3.58385 1.00194 3.29289 1.29289L1.29289 3.29289C0.902369 3.68342 0.902369 4.31658 1.29289 4.70711C1.68342 5.09763 2.31658 5.09763 2.70711 4.70711L2.90266 4.51155L2.50074 14.9616C2.47951 15.5134 2.90969 15.978 3.46157 15.9993C4.01344 16.0205 4.47804 15.5903 4.49926 15.0384L4.99926 2.03843ZM18.0843 0.999999C16.7195 0.999999 15.7219 1.96007 15.1228 3.00933C14.5082 4.08573 14.1683 5.47378 14.1683 6.85097C14.1683 8.45226 14.4715 9.84791 15.0642 10.8813C15.6648 11.9285 16.6245 12.6808 17.8604 12.6808C19.2656 12.6808 20.3365 11.8723 21.0099 10.7823C21.673 9.70904 22.0001 8.30709 22.0001 6.85097C22.0001 5.24786 21.6825 3.97706 21.1917 3.01394C20.941 2.52186 20.3388 2.32622 19.8467 2.57697C19.3546 2.82772 19.159 3.4299 19.4097 3.92198C19.7349 4.56013 20.0001 5.51045 20.0001 6.85097C20.0001 8.03712 19.7292 9.05008 19.3085 9.73112C18.898 10.3955 18.399 10.6808 17.8604 10.6808C17.5423 10.6808 17.1561 10.5087 16.7991 9.88627C16.4342 9.24997 16.1683 8.23071 16.1683 6.85097C16.1683 5.77399 16.4397 4.73655 16.8596 4.00102C17.2951 3.23833 17.7555 3 18.0843 3C18.6366 3 19.0843 2.55228 19.0843 2C19.0843 1.44771 18.6366 0.999999 18.0843 0.999999ZM20.8326 16.6442C16.2357 15.9027 11.0732 16.151 7.37857 17.6615C6.86736 17.8706 6.28351 17.6256 6.0745 17.1144C5.86549 16.6032 6.11047 16.0193 6.62168 15.8103C10.7654 14.1161 16.3281 13.8918 21.1511 14.6697C21.6963 14.7576 22.0671 15.2709 21.9791 15.8161C21.8912 16.3614 21.3779 16.7321 20.8326 16.6442ZM12.3871 20.2405C9.27843 20.6797 6.51819 21.5462 4.69684 22.5532C4.2135 22.8204 3.60506 22.6452 3.33785 22.1618C3.07064 21.6785 3.24584 21.07 3.72918 20.8028C5.82402 19.6447 8.8362 18.7223 12.1073 18.2601C15.3861 17.7969 19.0026 17.7848 22.3166 18.508C22.8561 18.6257 23.1981 19.1586 23.0804 19.6982C22.9626 20.2378 22.4297 20.5797 21.8901 20.462C18.8586 19.8004 15.488 19.8023 12.3871 20.2405ZM7.22026 3.05573C7.9197 1.85402 9.00283 0.999999 10.5 0.999999C11.275 0.999999 11.9392 1.27265 12.4626 1.74776C12.9654 2.20408 13.2974 2.80819 13.52 3.42983C13.9612 4.66193 14.0585 6.20723 13.9991 7.62227C13.9233 9.42886 13.4249 11.0417 12.6312 12.1875C11.8497 13.3156 10.6286 14.1645 9.18635 13.869C8.01716 13.6295 7.122 12.7983 6.58493 11.6748C6.05172 10.5595 5.845 9.12047 6.00473 7.48326C6.17099 5.77903 6.54283 4.21963 7.22026 3.05573ZM8.94879 4.0618C8.48005 4.86715 8.14937 6.09793 7.99527 7.67746C7.86081 9.05572 8.05285 10.1084 8.38934 10.8122C8.72196 11.508 9.16741 11.8236 9.58775 11.9097C9.92657 11.9791 10.4422 11.8353 10.9871 11.0487C11.5198 10.2797 11.9372 9.05567 12.0009 7.53845C12.056 6.22491 11.9507 4.98003 11.6371 4.10409C11.4822 3.67171 11.2987 3.39234 11.1184 3.22868C10.9588 3.08382 10.7724 3 10.5 3C9.90221 3 9.39552 3.29428 8.94879 4.0618Z" fill="black"/>
</svg>
