<svg width="24" height="24" viewBox="0 0 24 24" fill="none" xmlns="http://www.w3.org/2000/svg">
<path fill-rule="evenodd" clip-rule="evenodd" d="M10.307 1C9.94649 1 9.61386 1.19408 9.43646 1.50797C9.25906 1.82185 9.26436 2.20692 9.45033 2.5158C9.74891 3.01172 9.80408 3.59786 9.70499 3.94426C9.67155 4.06113 9.63389 4.10861 9.62065 4.12261C9.60009 4.1256 9.55347 4.12602 9.46768 4.10344C7.71004 3.64091 6.26346 4.58727 5.58464 5.62076C4.99496 6.51853 4.87976 7.5552 5.11184 8.47311C3.85482 9.14732 3 10.4732 3 12C3 12.5547 3.11325 13.0834 3.3176 13.564C1.93538 14.3319 1 15.806 1 17.5C1 19.9853 3.01472 22 5.5 22H18.5C20.9853 22 23 19.9853 23 17.5C23 15.806 22.0646 14.3319 20.6824 13.564C20.8867 13.0834 21 12.5547 21 12C21 10.4342 20.1008 9.07927 18.7904 8.42235C19.2355 7.01952 18.9972 5.31706 17.8194 4.1217C15.7337 2.00474 13.1089 1 10.307 1ZM9.63376 4.11884C9.63402 4.11924 9.63125 4.12067 9.62468 4.12194C9.63022 4.11907 9.6335 4.11844 9.63376 4.11884ZM11.6279 4.49433C11.7513 4.06292 11.7797 3.58586 11.7209 3.10734C13.4641 3.37874 15.0584 4.16895 16.3948 5.52536C17.1722 6.31444 17.165 7.63849 16.5787 8.42767C16.3668 8.71289 16.3222 9.08914 16.4615 9.41603C16.6008 9.74291 16.9031 9.97134 17.2556 10.0161C18.239 10.1409 19 10.9823 19 12C19 12.534 18.7921 13.0172 18.4508 13.3767C18.1995 13.6413 18.1124 14.0218 18.2234 14.3694C18.3343 14.717 18.6258 14.9765 18.9839 15.0466C20.1331 15.2715 21 16.2856 21 17.5C21 18.8807 19.8807 20 18.5 20H5.5C4.11929 20 3 18.8807 3 17.5C3 16.2856 3.86689 15.2715 5.01606 15.0466C5.37416 14.9765 5.66566 14.717 5.77664 14.3694C5.88763 14.0218 5.80047 13.6413 5.54924 13.3767C5.20792 13.0172 5 12.534 5 12C5 11.022 5.70294 10.2061 6.63141 10.0337C6.96371 9.97201 7.24236 9.74662 7.37216 9.43455C7.50195 9.12248 7.46533 8.76597 7.2748 8.4868C6.93947 7.99547 6.88558 7.28314 7.25629 6.71875C7.58367 6.22032 8.22599 5.84478 8.95869 6.03759C9.57167 6.1989 10.1905 6.14055 10.7113 5.8006C11.2102 5.47491 11.4905 4.97461 11.6279 4.49433ZM8.03001 16.2425C7.87428 15.6196 8.36619 15.0002 9.00016 14.9998H15.0002C15.6333 15.0002 16.126 15.6172 15.9703 16.24C15.4525 17.9881 13.7854 19 12.0002 19C10.2834 19 8.46902 17.9986 8.03001 16.2425ZM16.5 12C16.5 12.8284 15.8284 13.5 15 13.5C14.1716 13.5 13.5 12.8284 13.5 12C13.5 11.1716 14.1716 10.5 15 10.5C15.8284 10.5 16.5 11.1716 16.5 12ZM9 13.5C9.82843 13.5 10.5 12.8284 10.5 12C10.5 11.1716 9.82843 10.5 9 10.5C8.17157 10.5 7.5 11.1716 7.5 12C7.5 12.8284 8.17157 13.5 9 13.5Z" fill="black"/>
</svg>
