<svg width="24" height="24" viewBox="0 0 24 24" fill="none" xmlns="http://www.w3.org/2000/svg">
<path fill-rule="evenodd" clip-rule="evenodd" d="M4.09938 13.2701C3.54415 9.82746 5.30224 6.29621 8.61905 4.74956C11.9358 3.20293 15.7709 4.12595 18.0513 6.76407C18.2385 6.7262 18.4367 6.68808 18.6405 6.65171C19.1657 6.55799 19.7568 6.47066 20.3089 6.43312C17.6137 2.39955 12.3065 0.823312 7.77381 2.93694C3.24099 5.05064 1.03709 10.1296 2.39475 14.7871C2.77835 14.3882 3.22513 13.9915 3.63447 13.6494C3.79338 13.5166 3.94997 13.3892 4.09938 13.2701ZM7.99218 18.9245C7.7101 19.5777 7.25202 20.1075 6.69461 20.478C9.47012 22.2113 13.0395 22.5491 16.2262 21.0631C19.4135 19.5768 21.4494 16.6243 21.9051 13.3832C21.2629 13.5723 20.5626 13.5829 19.8809 13.3794C19.4437 15.8643 17.8411 18.1033 15.3809 19.2505C12.9213 20.3975 10.1765 20.1862 7.99218 18.9245ZM9.7722 16.6166C9.36781 16.1179 9.55187 15.3486 10.1262 15.0803L15.5641 12.5445C16.1381 12.2774 16.8454 12.6283 16.9675 13.2586C17.237 15.0617 16.1537 16.6834 14.5357 17.4378C12.9799 18.1634 10.9122 18.0226 9.7722 16.6166ZM21.6074 8.01035C22.6823 8.40156 23.2365 9.59003 22.8453 10.6649C22.4541 11.7397 21.2656 12.2939 20.1908 11.9027C19.1159 11.5115 17.0068 8.53983 17.0068 8.53983C17.0068 8.53983 20.5326 7.61914 21.6074 8.01035ZM4.0068 19.4514C5.08177 19.8429 6.27024 19.2887 6.66131 18.2136C7.05238 17.1384 6.13107 13.6112 6.13107 13.6112C6.13107 13.6112 3.15954 15.7206 2.76847 16.7958C2.3774 17.8709 2.93182 19.0599 4.0068 19.4514ZM15.4322 6.596C14.9996 6.25268 14.3705 6.32507 14.0272 6.75768L11.9422 9.385C11.7068 9.6817 11.6592 10.086 11.8192 10.4292C11.9793 10.7725 12.3196 10.9959 12.6982 11.0063L16.0511 11.0979C16.6032 11.1129 17.0629 10.6776 17.078 10.1255C17.0931 9.57347 16.6578 9.11369 16.1057 9.09861L14.7521 9.06162L15.5939 8.00094C15.9372 7.56832 15.8648 6.93931 15.4322 6.596ZM6.68107 10.1833C6.12899 10.1682 5.66922 10.6035 5.65413 11.1556C5.63905 11.7077 6.07437 12.1674 6.62645 12.1825L7.98004 12.2195L7.1383 13.2802C6.79498 13.7128 6.86738 14.3418 7.29999 14.6851C7.7326 15.0284 8.36161 14.956 8.70493 14.5234L10.7899 11.8961C11.0254 11.5994 11.073 11.1952 10.9129 10.8519C10.7528 10.5086 10.4126 10.2852 10.0339 10.2749L6.68107 10.1833Z" fill="black"/>
</svg>
