<svg width="24" height="24" viewBox="0 0 24 24" fill="none" xmlns="http://www.w3.org/2000/svg">
<path fill-rule="evenodd" clip-rule="evenodd" d="M4 12C4 7.58172 7.58172 4 12 4C16.4183 4 20 7.58172 20 12C20 16.4183 16.4183 20 12 20C7.58172 20 4 16.4183 4 12ZM12 2C6.47715 2 2 6.47715 2 12C2 17.5228 6.47715 22 12 22C17.5228 22 22 17.5228 22 12C22 6.47715 17.5228 2 12 2ZM14.0333 17.2558C14.173 17.7836 14.7113 18.1027 15.2425 17.9699C15.7783 17.8359 16.1041 17.293 15.9701 16.7572C15.5311 15.0012 13.7167 13.9998 12 13.9998C10.2147 13.9998 8.54762 15.0116 8.02985 16.7597C7.8959 17.2955 8.22166 17.8359 8.75746 17.9699C9.28872 18.1027 9.827 17.7836 9.96665 17.2558C10.2278 16.3851 11.1602 15.9998 12 15.9998C12.8398 15.9998 13.7722 16.3851 14.0333 17.2558ZM10.6213 10.1213C10.6213 10.9498 9.94977 11.6213 9.12134 11.6213C8.29291 11.6213 7.62134 10.9498 7.62134 10.1213C7.62134 9.29291 8.29291 8.62134 9.12134 8.62134C9.94977 8.62134 10.6213 9.29291 10.6213 10.1213ZM15 11.5C15.8284 11.5 16.5 10.8284 16.5 10C16.5 9.17157 15.8284 8.5 15 8.5C14.1716 8.5 13.5 9.17157 13.5 10C13.5 10.8284 14.1716 11.5 15 11.5Z" fill="black"/>
</svg>
