<svg width="24" height="24" viewBox="0 0 24 24" fill="none" xmlns="http://www.w3.org/2000/svg">
<path fill-rule="evenodd" clip-rule="evenodd" d="M12 2C13.3564 2 14.6497 2.27005 15.8291 2.75931C15.6197 3.12492 15.5 3.54848 15.5 4C15.5 4.3116 15.5571 4.60997 15.6613 4.88513C14.5642 4.31941 13.3194 4 12 4C7.58172 4 4 7.58172 4 12C4 16.4183 7.58172 20 12 20C16.4183 20 20 16.4183 20 12C20 11.1269 19.8601 10.2865 19.6016 9.5H21C21.2291 9.5 21.451 9.46919 21.6617 9.41148C21.8824 10.2371 22 11.1048 22 12C22 17.5228 17.5228 22 12 22C6.47715 22 2 17.5228 2 12C2 6.47715 6.47715 2 12 2ZM12 18C13.1046 18 14 17.1046 14 16C14 14.8954 13.1046 14 12 14C10.8954 14 10 14.8954 10 16C10 17.1046 10.8954 18 12 18ZM6.4 10.2C6.84183 9.86863 7.46863 9.95817 7.8 10.4C8.15 10.8667 8.85 10.8667 9.2 10.4C9.53138 9.95818 10.1582 9.86864 10.6 10.2C11.0418 10.5314 11.1314 11.1582 10.8 11.6C9.65 13.1333 7.35 13.1333 6.2 11.6C5.86863 11.1582 5.95817 10.5314 6.4 10.2ZM14.8 10.4C14.4686 9.95817 13.8418 9.86863 13.4 10.2C12.9582 10.5314 12.8686 11.1582 13.2 11.6C14.35 13.1333 16.65 13.1333 17.8 11.6C18.1314 11.1582 18.0418 10.5314 17.6 10.2C17.1582 9.86864 16.5314 9.95818 16.2 10.4C15.85 10.8667 15.15 10.8667 14.8 10.4ZM17 4C17 4.55228 17.4477 5 18 5H18.5858L17.2929 6.29289C17.0069 6.57889 16.9213 7.00901 17.0761 7.38268C17.2309 7.75636 17.5955 8 18 8H21C21.5523 8 22 7.55228 22 7C22 6.44772 21.5523 6 21 6H20.4142L21.7071 4.70711C21.9931 4.42111 22.0787 3.99099 21.9239 3.61732C21.7691 3.24364 21.4045 3 21 3H18C17.4477 3 17 3.44772 17 4Z" fill="black"/>
</svg>
