<svg width="24" height="24" viewBox="0 0 24 24" fill="none" xmlns="http://www.w3.org/2000/svg">
<path fill-rule="evenodd" clip-rule="evenodd" d="M4.30284 9.81212C5.25455 6.4574 8.34029 4 12 4C15.6596 4 18.7453 6.45733 19.6971 9.81199C19.8828 9.85681 20.0785 9.90602 20.2787 9.9592C20.7943 10.0962 21.3669 10.2669 21.8831 10.4662C21.145 5.67146 17.0013 2 12 2C6.99856 2 2.85471 5.67166 2.11682 10.4666C2.63304 10.2672 3.20562 10.0965 3.72119 9.95941C3.92134 9.9062 4.11708 9.85697 4.30284 9.81212ZM5.44126 16.5819C4.90954 17.0547 4.27051 17.3413 3.60872 17.4415C5.39167 20.1854 8.48391 22 12 22C15.5169 22 18.6097 20.1845 20.3925 17.4397C19.7306 17.3396 19.0914 17.0533 18.5595 16.5808C17.1132 18.6481 14.7145 20 12 20C9.28602 20 6.88769 18.6486 5.44126 16.5819ZM8.02987 15.2425C7.87414 14.6196 8.36605 14.0002 9.00002 13.9998H15C15.6332 14.0002 16.1259 14.6172 15.9702 15.24C15.4524 16.9881 13.7853 18 12 18C10.2833 18 8.46888 16.9986 8.02987 15.2425ZM22.3934 12.4444C23.2022 13.2532 23.2022 14.5645 22.3934 15.3733C21.5846 16.1822 20.2733 16.1822 19.4645 15.3733C18.6557 14.5645 18 10.9799 18 10.9799C18 10.9799 21.5846 11.6356 22.3934 12.4444ZM1.6066 15.3752C2.4154 16.1843 3.72673 16.1843 4.53553 15.3752C5.34434 14.566 6 10.9799 6 10.9799C6 10.9799 2.4154 11.6359 1.6066 12.445C0.797799 13.2542 0.797799 14.566 1.6066 15.3752ZM10.7924 10.8994C10.493 11.3635 9.87409 11.497 9.40999 11.1976C9.06604 10.9757 8.58257 10.8671 7.79007 11.1472C7.26937 11.3313 6.69803 11.0584 6.51395 10.5377C6.32987 10.017 6.60276 9.44566 7.12347 9.26158C8.37403 8.81949 9.52713 8.89313 10.4942 9.51697C10.9583 9.81636 11.0918 10.4353 10.7924 10.8994ZM14.59 11.1976C14.1259 11.497 13.507 11.3635 13.2076 10.8994C12.9082 10.4353 13.0417 9.81636 13.5058 9.51697C14.4729 8.89313 15.626 8.81949 16.8765 9.26158C17.3972 9.44566 17.6701 10.017 17.4861 10.5377C17.302 11.0584 16.7306 11.3313 16.2099 11.1472C15.4174 10.8671 14.934 10.9757 14.59 11.1976Z" fill="black"/>
</svg>
