<svg width="24" height="24" viewBox="0 0 24 24" fill="none" xmlns="http://www.w3.org/2000/svg">
<path fill-rule="evenodd" clip-rule="evenodd" d="M16 1C16.8627 1 17.567 1.43056 18 1.77149C18.433 1.43056 19.1373 1 20 1C21.5908 1 23 2.21959 23 3.86667C23 5.26813 22.1707 6.50678 21.3189 7.44376C20.4411 8.40919 19.3734 9.23278 18.5915 9.80632C18.2394 10.0646 17.7606 10.0646 17.4085 9.80632C16.6266 9.23278 15.5589 8.40919 14.6811 7.44376C13.8293 6.50678 13 5.26813 13 3.86667C13 2.21959 14.4092 1 16 1ZM16 3C15.3816 3 15 3.45188 15 3.86667C15 4.49829 15.3988 5.26006 16.161 6.09835C16.715 6.70777 17.3801 7.27002 18 7.74916C18.6199 7.27002 19.285 6.70777 19.839 6.09835C20.6012 5.26006 21 4.49829 21 3.86667C21 3.45188 20.6184 3 20 3C19.5318 3 19.0667 3.43341 18.7915 3.77782C18.5992 4.01982 18.3109 4.16667 18 4.16667C17.6908 4.16667 17.399 4.0236 17.2097 3.77934L17.2085 3.77782C16.9321 3.432 16.4672 3 16 3ZM3 12.4667C3 11.1134 4.11024 10 5.5 10C6.88976 10 8 11.1134 8 12.4667C8 13.019 8.44772 13.4667 9 13.4667C9.55228 13.4667 10 13.019 10 12.4667C10 11.1134 11.1102 10 12.5 10C13.8898 10 15 11.1134 15 12.4667C15 13.9908 14.1183 15.6171 12.7537 17.2099C11.6084 18.5468 10.2161 19.7532 9 20.7264C7.78388 19.7532 6.39162 18.5468 5.24626 17.2099C3.88166 15.6171 3 13.9908 3 12.4667ZM5.5 8C6.91012 8 8.17351 8.64559 9 9.6587C9.82649 8.64559 11.0899 8 12.5 8C14.9762 8 17 9.99079 17 12.4667C17 14.7183 15.7325 16.807 14.2726 18.5111C12.7919 20.2395 10.9757 21.7293 9.61427 22.7891C9.25303 23.0703 8.74697 23.0703 8.38573 22.7891C7.02433 21.7293 5.20812 20.2395 3.72743 18.5111C2.26747 16.807 1 14.7183 1 12.4667C1 9.99079 3.02376 8 5.5 8Z" fill="black"/>
</svg>
