<svg width="24" height="24" viewBox="0 0 24 24" fill="none" xmlns="http://www.w3.org/2000/svg">
<path fill-rule="evenodd" clip-rule="evenodd" d="M14.6361 0.368219C14.3885 0.164206 14.058 0.0913835 13.7476 0.172424C13.4372 0.253465 13.1845 0.478528 13.0682 0.777542L12.842 1.3592C12.304 1.18043 11.6982 1.06666 11.1334 1.00229C10.3339 0.911174 9.48351 0.904323 8.83386 1.01393C8.56751 1.05887 8.33068 1.20964 8.17724 1.43194C8.0238 1.65423 7.96682 1.92914 8.01925 2.19411L8.50907 4.66948C8.37892 4.73826 8.25364 4.81084 8.13297 4.88681L2.5547 1.16796C2.13449 0.887815 1.57135 0.964965 1.24196 1.3478C0.912573 1.73064 0.920338 2.29899 1.26006 2.67268L5.72691 7.58621C5.51655 7.96241 5.33431 8.33154 5.16984 8.6702L5.08552 8.84407L5.08551 8.84408L5.0855 8.84411C4.77628 9.48221 4.54604 9.95732 4.28647 10.3076C3.4424 11.4468 2.32446 13.3459 1.54439 14.7186C0.720405 16.1684 0.934441 17.9619 2.02108 19.1968C3.34154 20.6973 5.57657 20.9709 7.22 19.8332L9.46882 18.2764C9.25858 18.7691 9.02999 19.3142 8.79945 19.8805C8.27435 21.1704 8.74369 22.4115 9.60776 23.1538C10.456 23.8824 11.7304 24.1823 12.9406 23.6812C15.116 22.7803 17.6011 21.9305 19.7438 21.3964C21.2713 21.0156 22.6642 19.7981 22.8535 18.0435C23.2493 14.3772 22.6766 11.4059 21.61 8.90156C20.3385 5.9163 18.4909 3.54431 14.6361 0.368219ZM10.9069 2.98942C11.366 3.04175 11.7844 3.12568 12.1158 3.22659L11.8395 3.93704C11.335 3.93132 10.8638 3.96628 10.423 4.03855L10.2051 2.93736C10.4284 2.94488 10.6653 2.96189 10.9069 2.98942ZM12.1364 17.1677L12.1403 17.159C12.8592 17.1911 13.5668 17.1097 14.2356 16.8702C15.3476 16.4718 16.251 15.672 16.8854 14.4653C17.1423 13.9764 16.9543 13.3718 16.4655 13.1149C15.9766 12.8579 15.372 13.0459 15.115 13.5347C14.6889 14.3454 14.1535 14.7751 13.5612 14.9873C12.9425 15.2089 12.1609 15.228 11.2117 15.0226C10.9412 14.9641 10.6585 15.0203 10.431 15.1778L6.08161 18.1888C5.27266 18.7488 4.17249 18.6141 3.52251 17.8755C2.98429 17.2639 2.89192 16.3953 3.28321 15.7068C4.06955 14.3231 5.13184 12.5261 5.89342 11.4983C6.27223 10.9871 6.58753 10.3337 6.87193 9.74443L6.87194 9.74441C6.90465 9.67663 6.93695 9.60969 6.9689 9.54392C7.29984 8.86247 7.62983 8.21676 8.05906 7.65143C8.47936 7.09785 8.98025 6.64245 9.64012 6.34104C10.3004 6.03947 11.1872 5.86129 12.4253 5.96706C12.8675 6.00482 13.2816 5.74671 13.4425 5.33314L14.4238 2.80966C17.3779 5.39122 18.7741 7.34713 19.7699 9.68526C20.7039 11.8782 21.2238 14.506 20.8651 17.8289C20.7853 18.568 20.1663 19.2299 19.2601 19.4558C17.0041 20.0181 14.424 20.9021 12.1753 21.8334C11.7143 22.0243 11.2316 21.912 10.9109 21.6366C10.6061 21.3748 10.4949 21.0201 10.6518 20.6346C11.0627 19.6253 11.4684 18.6821 11.7716 17.9906C11.9231 17.6451 12.0487 17.3631 12.1364 17.1677ZM10.9931 11.4989C11.8614 11.4989 12.5653 10.7938 12.5653 9.92401C12.5653 9.05425 11.8614 8.34917 10.9931 8.34917C10.1248 8.34917 9.42096 9.05425 9.42096 9.92401C9.42096 10.7938 10.1248 11.4989 10.9931 11.4989Z" fill="black"/>
</svg>
