<svg width="24" height="24" viewBox="0 0 24 24" fill="none" xmlns="http://www.w3.org/2000/svg">
<path fill-rule="evenodd" clip-rule="evenodd" d="M4 12C4 7.58172 7.58172 4 12 4C16.4183 4 20 7.58172 20 12C20 16.4183 16.4183 20 12 20C7.58172 20 4 16.4183 4 12ZM12 2C6.47715 2 2 6.47715 2 12C2 17.5228 6.47715 22 12 22C17.5228 22 22 17.5228 22 12C22 6.47715 17.5228 2 12 2ZM9.96665 14.7439C9.827 14.2162 9.28872 13.897 8.75746 14.0299C8.22166 14.1638 7.8959 14.7067 8.02985 15.2425C8.46886 16.9986 10.2833 18 12 18C13.7853 18 15.4524 16.9881 15.9701 15.24C16.1041 14.7042 15.7783 14.1638 15.2425 14.0299C14.7113 13.897 14.173 14.2162 14.0333 14.7439C13.7722 15.6146 12.8398 16 12 16C11.1602 16 10.2278 15.6147 9.96665 14.7439ZM13 11C13 10.4477 13.4477 10 14 10H16C16.5523 10 17 10.4477 17 11C17 11.5523 16.5523 12 16 12H14C13.4477 12 13 11.5523 13 11ZM9.5 12C10.3284 12 11 11.3284 11 10.5C11 9.67157 10.3284 9 9.5 9C8.67157 9 8 9.67157 8 10.5C8 11.3284 8.67157 12 9.5 12Z" fill="black"/>
</svg>
