<svg width="24" height="24" viewBox="0 0 24 24" fill="none" xmlns="http://www.w3.org/2000/svg">
<path fill-rule="evenodd" clip-rule="evenodd" d="M12 3C6.36969 3 2.03198 7.6159 2.0002 13.6164C1.9894 15.6573 2.40037 17.72 4.00753 20H5.2711C4.0877 18.6805 3.27928 17.0105 3.01375 15.1653C3.00276 15.1 2.99841 15.035 3.0002 14.971C3.01253 14.4913 3.3697 14.0768 3.86058 14.0076L3.86527 14.007C8.44557 13.0682 11.6592 9.86012 13.0513 5.68377C13.2052 5.22219 13.663 4.94748 14.1281 5.00805C14.2642 4.99033 14.4062 5.0005 14.5461 5.0428C18.2864 6.17376 21 9.68632 21 13.8309C21 16.2024 20.1103 18.369 18.6477 20H19.9692C21.2064 18.0777 22.0103 15.5756 21.9999 13.6164C21.9681 7.6159 17.6304 3 12 3ZM14.6274 7.19414C12.9911 11.29 9.71879 14.5198 5.1736 15.7509C5.99951 18.7865 8.73433 21 11.9593 21C15.8329 21 19 17.8053 19 13.8309C19 10.8265 17.187 8.26246 14.6274 7.19414ZM3.50018 22H7.84859C9.08061 22.6391 10.4773 23 11.9593 23C13.4508 23 14.8559 22.6345 16.0937 21.9878C16.1446 21.9958 16.1968 22 16.25 22H20.4999C20.8238 22 21.1275 21.8432 21.3151 21.5792C22.9181 19.3231 24.0136 16.1891 23.9999 13.6058C23.9629 6.63448 18.8561 1 12 1C5.14401 1 0.0371506 6.63448 0.000231528 13.6058C-0.0131697 16.1363 0.551323 18.7647 2.7032 21.604C2.89225 21.8535 3.18719 22 3.50018 22ZM10.0002 15.9998C9.36619 16.0002 8.87429 16.6196 9.03002 17.2425C9.46903 18.9986 11 20 12.0002 20C12.9219 20 14.4525 18.9881 14.9703 17.24C15.126 16.6172 14.6333 16.0002 14.0002 15.9998H10.0002ZM15 13.5C15.8284 13.5 16.5 12.8284 16.5 12C16.5 11.1716 15.8284 10.5 15 10.5C14.1716 10.5 13.5 11.1716 13.5 12C13.5 12.8284 14.1716 13.5 15 13.5Z" fill="black"/>
</svg>
