<svg width="24" height="24" viewBox="0 0 24 24" fill="none" xmlns="http://www.w3.org/2000/svg">
<path fill-rule="evenodd" clip-rule="evenodd" d="M4 4C4.55228 4 5 4.44772 5 5V11.5858L7.29289 9.29289C7.59725 8.98853 8.06222 8.91308 8.44721 9.10557L11.6576 10.7108L15.1679 5.4453C15.4477 5.02568 15.9961 4.88003 16.4472 5.10557L20.4472 7.10557C20.786 7.27496 21 7.62123 21 8V19C21 19.5523 20.5523 20 20 20H4C3.44772 20 3 19.5523 3 19V14.0002C3 14.0001 3 13.9999 3 13.9998V5C3 4.44772 3.44772 4 4 4ZM5 14.4142V18H19V8.61803L16.3424 7.28922L12.8321 12.5547C12.5523 12.9743 12.0039 13.12 11.5528 12.8944L8.19745 11.2168L5 14.4142Z" fill="black"/>
</svg>
