<svg width="24" height="24" viewBox="0 0 24 24" fill="none" xmlns="http://www.w3.org/2000/svg">
<path fill-rule="evenodd" clip-rule="evenodd" d="M5 5C5 4.44772 4.55228 4 4 4C3.44772 4 3 4.44772 3 5V19C3 19.5523 3.44772 20 4 20H20C20.5523 20 21 19.5523 21 19C21 18.4477 20.5523 18 20 18H5V5ZM11 8C11 6.89543 11.8954 6 13 6C14.1046 6 15 6.89543 15 8C15 9.10457 14.1046 10 13 10C11.8954 10 11 9.10457 11 8ZM13 4C10.7909 4 9 5.79086 9 8C9 10.2091 10.7909 12 13 12C15.2091 12 17 10.2091 17 8C17 5.79086 15.2091 4 13 4ZM7.75 14.5C7.75 14.0858 8.08579 13.75 8.5 13.75C8.91421 13.75 9.25 14.0858 9.25 14.5C9.25 14.9142 8.91421 15.25 8.5 15.25C8.08579 15.25 7.75 14.9142 7.75 14.5ZM8.5 11.75C6.98122 11.75 5.75 12.9812 5.75 14.5C5.75 16.0188 6.98122 17.25 8.5 17.25C10.0188 17.25 11.25 16.0188 11.25 14.5C11.25 12.9812 10.0188 11.75 8.5 11.75ZM18 13C17.4477 13 17 13.4477 17 14C17 14.5523 17.4477 15 18 15C18.5523 15 19 14.5523 19 14C19 13.4477 18.5523 13 18 13ZM15 14C15 12.3431 16.3431 11 18 11C19.6569 11 21 12.3431 21 14C21 15.6569 19.6569 17 18 17C16.3431 17 15 15.6569 15 14Z" fill="black"/>
</svg>
