<svg width="24" height="24" viewBox="0 0 24 24" fill="none" xmlns="http://www.w3.org/2000/svg">
<path fill-rule="evenodd" clip-rule="evenodd" d="M14 4C14.5523 4 15 4.44772 15 5V7H19C20.6569 7 22 8.34315 22 10V13C22 14.6569 20.6569 16 19 16H15V18C15 18.5523 14.5523 19 14 19C13.4477 19 13 18.5523 13 18V16H5C3.34315 16 2 14.6569 2 13V10C2 8.34315 3.34315 7 5 7H13V5C13 4.44772 13.4477 4 14 4ZM13 9H5C4.44772 9 4 9.44772 4 10V13C4 13.5523 4.44772 14 5 14H13V9ZM15 14H19C19.5523 14 20 13.5523 20 13V10C20 9.44772 19.5523 9 19 9H15V14Z" fill="black"/>
</svg>
