<svg width="24" height="24" viewBox="0 0 24 24" fill="none" xmlns="http://www.w3.org/2000/svg">
<path fill-rule="evenodd" clip-rule="evenodd" d="M11 3C9.34315 3 8 4.34315 8 6V7C8 8.65685 9.34315 10 11 10V11H9C7.34315 11 6 12.3431 6 14C4.34315 14 3 15.3431 3 17V18C3 19.6569 4.34315 21 6 21H8C9.65685 21 11 19.6569 11 18V17C11 15.3431 9.65685 14 8 14C8 13.4477 8.44772 13 9 13H12H15C15.5523 13 16 13.4477 16 14C14.3431 14 13 15.3431 13 17V18C13 19.6569 14.3431 21 16 21H18C19.6569 21 21 19.6569 21 18V17C21 15.3431 19.6569 14 18 14C18 12.3431 16.6569 11 15 11H13V10C14.6569 10 16 8.65685 16 7V6C16 4.34315 14.6569 3 13 3H11ZM17 16H16C15.4477 16 15 16.4477 15 17V18C15 18.5523 15.4477 19 16 19H18C18.5523 19 19 18.5523 19 18V17C19 16.4477 18.5523 16 18 16H17ZM7 16H6C5.44772 16 5 16.4477 5 17V18C5 18.5523 5.44772 19 6 19H8C8.55228 19 9 18.5523 9 18V17C9 16.4477 8.55228 16 8 16H7ZM12 8H13C13.5523 8 14 7.55228 14 7V6C14 5.44772 13.5523 5 13 5H11C10.4477 5 10 5.44772 10 6V7C10 7.55228 10.4477 8 11 8H12Z" fill="black"/>
</svg>
