<svg width="24" height="24" viewBox="0 0 24 24" fill="none" xmlns="http://www.w3.org/2000/svg">
<path fill-rule="evenodd" clip-rule="evenodd" d="M12.9578 1.71265C12.8309 1.28967 12.4416 1 12 1C11.5584 1 11.1691 1.28967 11.0422 1.71265L10.656 3H4C2.34315 3 1 4.34315 1 6V16C1 17.6569 2.34315 19 4 19H5.85597L5.04217 21.7127C4.88348 22.2416 5.18366 22.7991 5.71265 22.9578C6.24164 23.1165 6.79913 22.8163 6.95783 22.2873L7.94403 19H16.056L17.0422 22.2873C17.2009 22.8163 17.7584 23.1165 18.2873 22.9578C18.8163 22.7991 19.1165 22.2416 18.9578 21.7127L18.144 19H20C21.6569 19 23 17.6569 23 16V6C23 4.34315 21.6569 3 20 3H13.344L12.9578 1.71265ZM3 6C3 5.44771 3.44772 5 4 5H11.4H12.6H20C20.5523 5 21 5.44772 21 6V16C21 16.5523 20.5523 17 20 17H16.8H7.2H4C3.44772 17 3 16.5523 3 16V6ZM10.8944 6.82918C9.56462 6.16428 8 7.13127 8 8.61803V13.382C8 14.8687 9.56462 15.8357 10.8944 15.1708L15.6584 12.7889C17.1325 12.0518 17.1325 9.94819 15.6584 9.21115L10.8944 6.82918ZM10 8.61803L14.7639 11L10 13.382V8.61803Z" fill="black"/>
</svg>
