<svg width="24" height="24" viewBox="0 0 24 24" fill="none" xmlns="http://www.w3.org/2000/svg">
<path fill-rule="evenodd" clip-rule="evenodd" d="M5 5C5 4.44772 4.55228 4 4 4C3.44772 4 3 4.44772 3 5L3 13.9998C3 13.9999 3 14.0001 3 14.0002V19C3 19.5523 3.44772 20 4 20H20C20.5523 20 21 19.5523 21 19C21 18.4477 20.5523 18 20 18H5V14.4142L9 10.4142L12.2929 13.7071C12.6834 14.0976 13.3166 14.0976 13.7071 13.7071L19 8.41421V11C19 11.5523 19.4477 12 20 12C20.5523 12 21 11.5523 21 11V6C21 5.44772 20.5523 5 20 5H15C14.4477 5 14 5.44772 14 6C14 6.55228 14.4477 7 15 7H17.5858L13 11.5858L9.70711 8.29289C9.31658 7.90237 8.68342 7.90237 8.29289 8.29289L5 11.5858V5Z" fill="black"/>
</svg>
