<svg width="24" height="24" fill="none" xmlns="http://www.w3.org/2000/svg"><path fill-rule="evenodd" clip-rule="evenodd" d="M10.354 7a2 2 0 0 0-1.789 1.106l-.894 1.788A2 2 0 0 1 5.882 11H5a2 2 0 0 0-2 2v2h18v-2a2 2 0 0 0-2-2h-5a1 1 0 1 1 0-2h1.382l-.447-.894A2 2 0 0 0 13.145 7h-2.79zm9.596 10H21a2 2 0 0 0 2-2v-2a4 4 0 0 0-4-4h-1.382l-.894-1.789A4 4 0 0 0 13.146 5h-2.792a4 4 0 0 0-3.578 2.211L5.882 9H5a4 4 0 0 0-4 4v2a2 2 0 0 0 2 2h1.05a2.5 2.5 0 1 0 4.9 0h6.1a2.5 2.5 0 1 0 4.9 0zm-2.45 0a.5.5 0 1 0 0 1 .5.5 0 0 0 0-1zM6 17.5a.5.5 0 1 1 1 0 .5.5 0 0 1-1 0z" fill="#000"/></svg>