<svg width="24" height="24" fill="none" xmlns="http://www.w3.org/2000/svg"><path fill-rule="evenodd" clip-rule="evenodd" d="M2.77 2.027a1 1 0 0 1 1.123.522v.001l.007.013a4.859 4.859 0 0 0 .213.351c.16.24.401.561.72.879C5.472 4.433 6.358 5 7.5 5c1.141 0 2.027-.566 2.668-1.207a5.838 5.838 0 0 0 .893-1.16l.04-.07.006-.013h1.786l.007.013a4.826 4.826 0 0 0 .213.351c.16.24.401.561.72.879C14.472 4.433 15.358 5 16.5 5c1.141 0 2.027-.566 2.668-1.207a5.838 5.838 0 0 0 .893-1.16l.04-.07.005-.011-7.213-.001V2.55h7.214c0-.001 0-.001 0 0m0 0A1 1 0 0 1 22 3v10c0 1.672-.42 3.126-1.238 4.317-.818 1.188-1.989 2.05-3.39 2.611-1.238.495-2.312.975-3.126 1.44-.866.495-1.247.87-1.352 1.08a1 1 0 0 1-1.788 0c-.105-.21-.486-.585-1.352-1.08-.814-.465-1.888-.945-3.125-1.44-1.402-.56-2.573-1.423-3.39-2.611C2.42 16.127 2 14.672 2 13V3a1 1 0 0 1 .77-.973M4 13c0 1.328.33 2.374.887 3.183.557.812 1.386 1.45 2.484 1.889 1.263.505 2.44 1.025 3.375 1.56.44.252.878.533 1.254.85a8.507 8.507 0 0 1 1.254-.85c.936-.535 2.112-1.055 3.375-1.56 1.098-.44 1.927-1.077 2.484-1.889.557-.81.887-1.855.887-3.183H4zm16-2H4V5.728C4.848 6.405 6.017 7 7.5 7c1.859 0 3.223-.934 4.082-1.793.153-.153.292-.306.418-.454.126.148.265.301.418.454C13.277 6.067 14.64 7 16.5 7c1.483 0 2.652-.595 3.5-1.272V11zm-7.107-8.45h-1.786a1 1 0 0 1 1.786 0zm-1.786 0H3.893h7.214zm0 0l-.001.002V2.55z" fill="#000"/></svg>