<svg width="24" height="24" fill="none" xmlns="http://www.w3.org/2000/svg"><path fill-rule="evenodd" clip-rule="evenodd" d="M13 3a1 1 0 1 0-2 0v.558A8.504 8.504 0 0 0 3.558 11H3a1 1 0 1 0 0 2h.558A8.504 8.504 0 0 0 11 20.442V21a1 1 0 1 0 2 0v-.558A8.504 8.504 0 0 0 20.442 13H21a1 1 0 1 0 0-2h-.558A8.504 8.504 0 0 0 13 3.558V3zm-2 2.576V7a1 1 0 1 0 2 0V5.576A6.505 6.505 0 0 1 18.424 11H17a1 1 0 1 0 0 2h1.424A6.505 6.505 0 0 1 13 18.424V17a1 1 0 1 0-2 0v1.424A6.505 6.505 0 0 1 5.576 13H7a1 1 0 1 0 0-2H5.576A6.505 6.505 0 0 1 11 5.576z" fill="#000"/></svg>