<svg width="24" height="24" viewBox="0 0 24 24" fill="none" xmlns="http://www.w3.org/2000/svg">
<path fill-rule="evenodd" clip-rule="evenodd" d="M12 2C12.5523 2 13 2.44772 13 3V5.58579L14.2929 4.29289C14.6834 3.90237 15.3166 3.90237 15.7071 4.29289C16.0976 4.68342 16.0976 5.31658 15.7071 5.70711L12.7071 8.70711C12.3166 9.09763 11.6834 9.09763 11.2929 8.70711L8.29289 5.70711C7.90237 5.31658 7.90237 4.68342 8.29289 4.29289C8.68342 3.90237 9.31658 3.90237 9.70711 4.29289L11 5.58579V3C11 2.44772 11.4477 2 12 2ZM3 12C3 11.4477 3.44772 11 4 11H20C20.5523 11 21 11.4477 21 12C21 12.5523 20.5523 13 20 13H4C3.44772 13 3 12.5523 3 12ZM15.7071 18.2929L12.7071 15.2929C12.3166 14.9024 11.6834 14.9024 11.2929 15.2929L8.29289 18.2929C7.90237 18.6834 7.90237 19.3166 8.29289 19.7071C8.68342 20.0976 9.31658 20.0976 9.70711 19.7071L11 18.4142V21C11 21.5523 11.4477 22 12 22C12.5523 22 13 21.5523 13 21V18.4142L14.2929 19.7071C14.6834 20.0976 15.3166 20.0976 15.7071 19.7071C16.0976 19.3166 16.0976 18.6834 15.7071 18.2929Z" fill="black"/>
</svg>
