<svg width="24" height="24" viewBox="0 0 24 24" fill="none" xmlns="http://www.w3.org/2000/svg">
<path fill-rule="evenodd" clip-rule="evenodd" d="M9 7V11H13C14.1046 11 15 10.1046 15 9C15 7.89543 14.1046 7 13 7H9ZM15.9365 11.7161C16.5966 11.0028 17 10.0485 17 9C17 6.79086 15.2091 5 13 5H8.5C7.67157 5 7 5.67157 7 6.5V12V18.5C7 19.3284 7.67157 20 8.5 20H13.5C15.9853 20 18 17.9853 18 15.5C18 13.9126 17.178 12.5171 15.9365 11.7161ZM13 13H9V18H13.5C14.8807 18 16 16.8807 16 15.5C16 14.1193 14.8807 13 13.5 13H13Z" fill="black"/>
</svg>
