<svg width="24" height="24" viewBox="0 0 24 24" fill="none" xmlns="http://www.w3.org/2000/svg">
<path fill-rule="evenodd" clip-rule="evenodd" d="M3 5C3 4.44772 3.44772 4 4 4H10C11.6569 4 13 5.34315 13 7V10C13 11.6569 11.6569 13 10 13H9.82929C9.93985 13.3128 10 13.6494 10 14V17C10 18.6569 8.65685 20 7 20H4C3.44772 20 3 19.5523 3 19C3 18.4477 3.44772 18 4 18H7C7.55229 18 8 17.5523 8 17V14C8 13.4477 7.55229 13 7 13H4C3.44772 13 3 12.5523 3 12C3 11.4477 3.44772 11 4 11H7H10C10.5523 11 11 10.5523 11 10V7C11 6.44772 10.5523 6 10 6H4C3.44772 6 3 5.55228 3 5ZM14.7071 13.2929C14.3166 12.9024 13.6834 12.9024 13.2929 13.2929C12.9024 13.6834 12.9024 14.3166 13.2929 14.7071L15.0858 16.5L13.2929 18.2929C12.9024 18.6834 12.9024 19.3166 13.2929 19.7071C13.6834 20.0976 14.3166 20.0976 14.7071 19.7071L16.5 17.9142L18.2929 19.7071C18.6834 20.0976 19.3166 20.0976 19.7071 19.7071C20.0976 19.3166 20.0976 18.6834 19.7071 18.2929L17.9142 16.5L19.7071 14.7071C20.0976 14.3166 20.0976 13.6834 19.7071 13.2929C19.3166 12.9024 18.6834 12.9024 18.2929 13.2929L16.5 15.0858L14.7071 13.2929Z" fill="black"/>
</svg>
