<svg width="24" height="24" viewBox="0 0 24 24" fill="none" xmlns="http://www.w3.org/2000/svg">
<path fill-rule="evenodd" clip-rule="evenodd" d="M5 3C5.55228 3 6 3.44772 6 4V10C6 10.5523 6.44772 11 7 11H10C10.5523 11 11 10.5523 11 10V7V4C11 3.44772 11.4477 3 12 3C12.5523 3 13 3.44772 13 4V7C13 7.55228 13.4477 8 14 8H17C17.5523 8 18 7.55228 18 7V4C18 3.44772 18.4477 3 19 3C19.5523 3 20 3.44772 20 4V7C20 8.65685 18.6569 10 17 10H14C13.6494 10 13.3128 9.93985 13 9.82929V10C13 11.6569 11.6569 13 10 13H7C5.34315 13 4 11.6569 4 10V4C4 3.44772 4.44772 3 5 3ZM16.5 15.0858L14.7071 13.2929C14.3166 12.9024 13.6834 12.9024 13.2929 13.2929C12.9024 13.6834 12.9024 14.3166 13.2929 14.7071L15.0858 16.5L13.2929 18.2929C12.9024 18.6834 12.9024 19.3166 13.2929 19.7071C13.6834 20.0976 14.3166 20.0976 14.7071 19.7071L16.5 17.9142L18.2929 19.7071C18.6834 20.0976 19.3166 20.0976 19.7071 19.7071C20.0976 19.3166 20.0976 18.6834 19.7071 18.2929L17.9142 16.5L19.7071 14.7071C20.0976 14.3166 20.0976 13.6834 19.7071 13.2929C19.3166 12.9024 18.6834 12.9024 18.2929 13.2929L16.5 15.0858Z" fill="black"/>
</svg>
