<svg width="24" height="24" viewBox="0 0 24 24" fill="none" xmlns="http://www.w3.org/2000/svg">
<path fill-rule="evenodd" clip-rule="evenodd" d="M8 6C8.39214 6 8.7481 6.2292 8.91037 6.5862L12.5467 14.5862L13.9104 17.5862C14.1389 18.089 13.9166 18.6818 13.4138 18.9104C12.911 19.1389 12.3182 18.9166 12.0896 18.4138L10.9925 16H5.00755L3.91037 18.4138C3.68183 18.9166 3.08898 19.1389 2.5862 18.9104C2.08342 18.6818 1.8611 18.089 2.08963 17.5862L3.45327 14.5862L7.08963 6.5862C7.2519 6.2292 7.60786 6 8 6ZM5.91664 14H10.0834L8 9.41661L5.91664 14ZM16.707 15.3549C16.2585 15.6448 16.0634 15.9602 16.0224 16.1547C15.9792 16.3596 16.008 16.4651 16.029 16.5152C16.0521 16.57 16.1006 16.6393 16.2107 16.7156C16.4571 16.8864 16.8859 17 17.3347 17C17.9161 17 18.4692 16.8357 18.8826 16.5775C19.3001 16.3167 19.5071 16.0087 19.5634 15.7419C19.5966 15.5845 19.5583 15.4194 19.3761 15.2524C19.1802 15.0728 18.8059 14.8966 18.251 14.8966C17.6954 14.8966 17.1379 15.0763 16.707 15.3549ZM15.6211 13.6753C16.3569 13.1996 17.2885 12.8966 18.251 12.8966C18.87 12.8966 19.4569 13.0231 19.9637 13.266L19.9985 12.8995C19.9871 12.7773 19.9067 12.5852 19.62 12.3839C19.3103 12.1663 18.8294 12 18.251 12C17.2391 12 16.6597 12.4754 16.5358 12.7716C16.3227 13.2811 15.7369 13.5214 15.2274 13.3083C14.7178 13.0952 14.4775 12.5094 14.6906 11.9999C15.2368 10.6942 16.7657 10 18.251 10C19.1909 10 20.0845 10.266 20.7697 10.7473C21.4519 11.2265 22 11.9835 22 12.931C22 12.9626 21.9985 12.9941 21.9955 13.0255L21.5374 17.8531C21.4852 18.4029 20.9972 18.8063 20.4474 18.7541C20.166 18.7274 19.9229 18.5866 19.7597 18.3817C19.0473 18.7803 18.1966 19 17.3347 19C16.6381 19 15.7631 18.8388 15.0713 18.3593C14.7122 18.1104 14.383 17.7607 14.1852 17.29C13.9854 16.8145 13.9503 16.2881 14.0654 15.7419C14.2535 14.8501 14.9029 14.1397 15.6211 13.6753Z" fill="black"/>
</svg>
