<svg width="24" height="24" viewBox="0 0 24 24" fill="none" xmlns="http://www.w3.org/2000/svg">
<path fill-rule="evenodd" clip-rule="evenodd" d="M5 6C5.55228 6 6 6.44772 6 7V12H12V7C12 6.44772 12.4477 6 13 6C13.5523 6 14 6.44772 14 7V13V19C14 19.5523 13.5523 20 13 20C12.4477 20 12 19.5523 12 19V14H6V19C6 19.5523 5.55228 20 5 20C4.44772 20 4 19.5523 4 19V13V7C4 6.44772 4.44772 6 5 6ZM16.5 7C16.5 6.44772 16.9477 6 17.5 6H19C19.5523 6 20 6.44772 20 7V19C20 19.5523 19.5523 20 19 20C18.4477 20 18 19.5523 18 19V8H17.5C16.9477 8 16.5 7.55228 16.5 7Z" fill="black"/>
</svg>
