<svg width="24" height="24" viewBox="0 0 24 24" fill="none" xmlns="http://www.w3.org/2000/svg">
<path fill-rule="evenodd" clip-rule="evenodd" d="M19.2825 8.93956C18.62 7.72494 16.9232 7.60243 16.093 8.70928L15.8 9.1C15.4686 9.54183 14.8418 9.63137 14.4 9.3C13.9582 8.96863 13.8686 8.34183 14.2 7.9L14.493 7.50928C16.1966 5.23785 19.6787 5.48926 21.0383 7.98186C21.7325 9.25459 21.6636 10.8073 20.8594 12.0136L16.8685 18H21C21.5523 18 22 18.4477 22 19C22 19.5523 21.5523 20 21 20H15C14.6312 20 14.2923 19.797 14.1183 19.4719C13.9443 19.1467 13.9634 18.7522 14.1679 18.4453L19.1953 10.9042C19.5872 10.3164 19.6208 9.55976 19.2825 8.93956ZM3 6C3.55228 6 4 6.44772 4 7V12H10V7C10 6.44772 10.4477 6 11 6C11.5523 6 12 6.44772 12 7V13V19C12 19.5523 11.5523 20 11 20C10.4477 20 10 19.5523 10 19V14H4V19C4 19.5523 3.55228 20 3 20C2.44772 20 2 19.5523 2 19V13V7C2 6.44772 2.44772 6 3 6Z" fill="black"/>
</svg>
