<svg width="24" height="24" viewBox="0 0 24 24" fill="none" xmlns="http://www.w3.org/2000/svg">
<path fill-rule="evenodd" clip-rule="evenodd" d="M3 6C3.55228 6 4 6.44772 4 7V12H10V7C10 6.44772 10.4477 6 11 6C11.5523 6 12 6.44772 12 7V13V19C12 19.5523 11.5523 20 11 20C10.4477 20 10 19.5523 10 19V14H4V19C4 19.5523 3.55228 20 3 20C2.44772 20 2 19.5523 2 19V13V7C2 6.44772 2.44772 6 3 6ZM14 7C14 6.44772 14.4477 6 15 6H20.5C20.9045 6 21.2691 6.24364 21.4239 6.61732C21.5787 6.99099 21.4931 7.42111 21.2071 7.70711L18.1309 10.7833C20.2895 11.1456 22 13.0226 22 15.3607C22 17.9229 19.9229 20 17.3607 20H15C14.4477 20 14 19.5523 14 19C14 18.4477 14.4477 18 15 18H17.3607C18.8183 18 20 16.8183 20 15.3607C20 13.714 18.5087 12.4694 16.8885 12.7639L15.6789 12.9839C15.2485 13.0621 14.8172 12.8516 14.6142 12.4641C14.4112 12.0766 14.4836 11.6022 14.7929 11.2929L18.0858 8H15C14.4477 8 14 7.55228 14 7Z" fill="black"/>
</svg>
