<svg width="24" height="24" viewBox="0 0 24 24" fill="none" xmlns="http://www.w3.org/2000/svg">
<path fill-rule="evenodd" clip-rule="evenodd" d="M3 6C3.55228 6 4 6.44772 4 7V12H10V7C10 6.44772 10.4477 6 11 6C11.5523 6 12 6.44772 12 7V13V19C12 19.5523 11.5523 20 11 20C10.4477 20 10 19.5523 10 19V14H4V19C4 19.5523 3.55228 20 3 20C2.44772 20 2 19.5523 2 19V13V7C2 6.44772 2.44772 6 3 6ZM15 6C15.5523 6 16 6.44772 16 7V13H20V7C20 6.44772 20.4477 6 21 6C21.5523 6 22 6.44772 22 7V14V19C22 19.5523 21.5523 20 21 20C20.4477 20 20 19.5523 20 19V15H15C14.4477 15 14 14.5523 14 14V7C14 6.44772 14.4477 6 15 6Z" fill="black"/>
</svg>
