<svg width="24" height="24" viewBox="0 0 24 24" fill="none" xmlns="http://www.w3.org/2000/svg">
<path fill-rule="evenodd" clip-rule="evenodd" d="M3 6C3.55228 6 4 6.44772 4 7V12H10V7C10 6.44772 10.4477 6 11 6C11.5523 6 12 6.44772 12 7V13V19C12 19.5523 11.5523 20 11 20C10.4477 20 10 19.5523 10 19V14H4V19C4 19.5523 3.55228 20 3 20C2.44772 20 2 19.5523 2 19V13V7C2 6.44772 2.44772 6 3 6ZM14 7C14 6.44772 14.4477 6 15 6H21C21.5523 6 22 6.44772 22 7C22 7.55228 21.5523 8 21 8H16V11H17.5C19.9853 11 22 13.0147 22 15.5V15.7431C22 18.0941 20.0941 20 17.7431 20C16.3197 20 14.9906 19.2887 14.2011 18.1044L14.1679 18.0547C13.8616 17.5952 13.9858 16.9743 14.4453 16.6679C14.9048 16.3616 15.5257 16.4858 15.8321 16.9453L15.8652 16.995C16.2838 17.6229 16.9884 18 17.7431 18C18.9895 18 20 16.9895 20 15.7431V15.5C20 14.1193 18.8807 13 17.5 13H15C14.4477 13 14 12.5523 14 12V7Z" fill="black"/>
</svg>
