<svg width="24" height="24" viewBox="0 0 24 24" fill="none" xmlns="http://www.w3.org/2000/svg">
<path fill-rule="evenodd" clip-rule="evenodd" d="M20.2929 8.70711C19.6102 8.02445 18.8248 8 18 8C16.8954 8 16 8.89543 16 10V11.6438C16.6525 11.2358 17.4237 11 18.25 11C20.5972 11 22.5 12.9028 22.5 15.25V15.75C22.5 18.0972 20.5972 20 18.25 20C15.9028 20 14 18.0972 14 15.75V15.25V10C14 7.79086 15.7909 6 18 6C18.0144 6 18.0289 5.99999 18.0438 5.99999C18.8702 5.99956 20.413 5.99875 21.7071 7.29289C22.0976 7.68342 22.0976 8.31658 21.7071 8.70711C21.3166 9.09763 20.6834 9.09763 20.2929 8.70711ZM16 15.25V15.75C16 16.9926 17.0074 18 18.25 18C19.4926 18 20.5 16.9926 20.5 15.75V15.25C20.5 14.0074 19.4926 13 18.25 13C17.0074 13 16 14.0074 16 15.25ZM3 6C3.55228 6 4 6.44772 4 7V12H10V7C10 6.44772 10.4477 6 11 6C11.5523 6 12 6.44772 12 7V13V19C12 19.5523 11.5523 20 11 20C10.4477 20 10 19.5523 10 19V14H4V19C4 19.5523 3.55228 20 3 20C2.44772 20 2 19.5523 2 19V13V7C2 6.44772 2.44772 6 3 6Z" fill="black"/>
</svg>
