<svg width="24" height="24" viewBox="0 0 24 24" fill="none" xmlns="http://www.w3.org/2000/svg">
<path fill-rule="evenodd" clip-rule="evenodd" d="M20.2929 7.70711C19.6102 7.02445 18.8248 7 18 7C16.8954 7 16 7.89543 16 9V10.6438C16.6525 10.2358 17.4237 10 18.25 10C20.5972 10 22.5 11.9028 22.5 14.25V14.75C22.5 17.0972 20.5972 19 18.25 19C15.9028 19 14 17.0972 14 14.75V14.25V9C14 6.79086 15.7909 5 18 5C18.0144 5 18.0289 4.99999 18.0438 4.99999C18.8702 4.99956 20.413 4.99875 21.7071 6.29289C22.0976 6.68342 22.0976 7.31658 21.7071 7.70711C21.3166 8.09763 20.6834 8.09763 20.2929 7.70711ZM16 14.25V14.75C16 15.9926 17.0074 17 18.25 17C19.4926 17 20.5 15.9926 20.5 14.75V14.25C20.5 13.0074 19.4926 12 18.25 12C17.0074 12 16 13.0074 16 14.25ZM3 5C3.55228 5 4 5.44772 4 6V11H10V6C10 5.44772 10.4477 5 11 5C11.5523 5 12 5.44772 12 6V12V18C12 18.5523 11.5523 19 11 19C10.4477 19 10 18.5523 10 18V13H4V18C4 18.5523 3.55228 19 3 19C2.44772 19 2 18.5523 2 18V12V6C2 5.44772 2.44772 5 3 5Z" fill="black"/>
</svg>
