<svg width="24" height="24" viewBox="0 0 24 24" fill="none" xmlns="http://www.w3.org/2000/svg">
<path fill-rule="evenodd" clip-rule="evenodd" d="M11.5 6C10.9477 6 10.5 6.44772 10.5 7C10.5 7.55228 10.9477 8 11.5 8H20C20.5523 8 21 7.55228 21 7C21 6.44772 20.5523 6 20 6H11.5ZM15 11C14.4477 11 14 11.4477 14 12C14 12.5523 14.4477 13 15 13H20C20.5523 13 21 12.5523 21 12C21 11.4477 20.5523 11 20 11H15ZM12 16C11.4477 16 11 16.4477 11 17C11 17.5523 11.4477 18 12 18H20C20.5523 18 21 17.5523 21 17C21 16.4477 20.5523 16 20 16H12ZM7.70711 8.29289C7.31658 7.90237 6.68342 7.90237 6.29289 8.29289C5.90237 8.68342 5.90237 9.31658 6.29289 9.70711L7.58579 11H4C3.44772 11 3 11.4477 3 12C3 12.5523 3.44772 13 4 13H7.58579L6.29289 14.2929C5.90237 14.6834 5.90237 15.3166 6.29289 15.7071C6.68342 16.0976 7.31658 16.0976 7.70711 15.7071L10.7071 12.7071C11.0976 12.3166 11.0976 11.6834 10.7071 11.2929L7.70711 8.29289Z" fill="black"/>
</svg>
