<svg width="24" height="24" viewBox="0 0 24 24" fill="none" xmlns="http://www.w3.org/2000/svg">
<path fill-rule="evenodd" clip-rule="evenodd" d="M3 5C3 4.44772 3.44772 4 4 4H7C8.65685 4 10 5.34315 10 7V10C10 10.3506 9.93985 10.6872 9.82929 11H10C11.6569 11 13 12.3431 13 14V17C13 18.6569 11.6569 20 10 20H4C3.44772 20 3 19.5523 3 19C3 18.4477 3.44772 18 4 18H10C10.5523 18 11 17.5523 11 17V14C11 13.4477 10.5523 13 10 13H7H4C3.44772 13 3 12.5523 3 12C3 11.4477 3.44772 11 4 11H7C7.55229 11 8 10.5523 8 10V7C8 6.44772 7.55229 6 7 6H4C3.44772 6 3 5.55228 3 5ZM17.4142 15L18.7071 13.7071C19.0976 13.3166 19.0976 12.6834 18.7071 12.2929C18.3166 11.9024 17.6834 11.9024 17.2929 12.2929L14.2929 15.2929C13.9024 15.6834 13.9024 16.3166 14.2929 16.7071L17.2929 19.7071C17.6834 20.0976 18.3166 20.0976 18.7071 19.7071C19.0976 19.3166 19.0976 18.6834 18.7071 18.2929L17.4142 17H21C21.5523 17 22 16.5523 22 16C22 15.4477 21.5523 15 21 15H17.4142Z" fill="black"/>
</svg>
