<svg width="24" height="24" viewBox="0 0 24 24" fill="none" xmlns="http://www.w3.org/2000/svg">
<path fill-rule="evenodd" clip-rule="evenodd" d="M5 3C5.55228 3 6 3.44772 6 4V7C6 7.55228 6.44772 8 7 8H10C10.5523 8 11 7.55228 11 7V4C11 3.44772 11.4477 3 12 3C12.5523 3 13 3.44772 13 4V7V10C13 10.5523 13.4477 11 14 11H17C17.5523 11 18 10.5523 18 10V4C18 3.44772 18.4477 3 19 3C19.5523 3 20 3.44772 20 4V10C20 11.6569 18.6569 13 17 13H14C12.3431 13 11 11.6569 11 10V9.82929C10.6872 9.93985 10.3506 10 10 10H7C5.34315 10 4 8.65685 4 7V4C4 3.44772 4.44772 3 5 3ZM16.7071 14.2929C16.3166 13.9024 15.6834 13.9024 15.2929 14.2929L12.2929 17.2929C11.9024 17.6834 11.9024 18.3166 12.2929 18.7071C12.6834 19.0976 13.3166 19.0976 13.7071 18.7071L15 17.4142V21C15 21.5523 15.4477 22 16 22C16.5523 22 17 21.5523 17 21V17.4142L18.2929 18.7071C18.6834 19.0976 19.3166 19.0976 19.7071 18.7071C20.0976 18.3166 20.0976 17.6834 19.7071 17.2929L16.7071 14.2929Z" fill="black"/>
</svg>
