<svg width="24" height="24" viewBox="0 0 24 24" fill="none" xmlns="http://www.w3.org/2000/svg">
<path fill-rule="evenodd" clip-rule="evenodd" d="M5.99999 5.5C5.99999 5.22386 5.77613 5 5.49999 5C5.22385 5 4.99999 5.22386 4.99999 5.5V8.5C4.99999 8.77614 5.22385 9 5.49999 9C5.77613 9 5.99999 8.77614 5.99999 8.5V5.5ZM5.25046 11.2673C5.38308 11.1789 5.55766 11.1864 5.68212 11.286C5.85245 11.4223 5.86653 11.6764 5.71228 11.8306L4.39644 13.1464C4.25344 13.2894 4.21066 13.5045 4.28805 13.6913C4.36544 13.8782 4.54776 14 4.74999 14H6.49999C6.77613 14 6.99999 13.7761 6.99999 13.5C6.99999 13.2239 6.77613 13 6.49999 13H5.9571L6.41939 12.5377C6.99508 11.962 6.94256 11.0137 6.30681 10.5051C5.8423 10.1335 5.19072 10.1053 4.69576 10.4352L4.47264 10.584C4.24288 10.7372 4.18079 11.0476 4.33397 11.2773C4.48714 11.5071 4.79758 11.5692 5.02734 11.416L5.25046 11.2673ZM4.74999 15.5C4.47385 15.5 4.24999 15.7239 4.24999 16C4.24999 16.2761 4.47385 16.5 4.74999 16.5H5.29288L4.64644 17.1464C4.50344 17.2894 4.46066 17.5045 4.53805 17.6913C4.61544 17.8782 4.79776 18 4.99999 18H5.74999C5.88806 18 5.99999 18.1119 5.99999 18.25C5.99999 18.3881 5.88806 18.5 5.74999 18.5H4.74999C4.47385 18.5 4.24999 18.7239 4.24999 19C4.24999 19.2761 4.47385 19.5 4.74999 19.5H5.74999C6.44035 19.5 6.99999 18.9404 6.99999 18.25C6.99999 17.6972 6.6412 17.2283 6.1438 17.0633L6.85355 16.3536C6.99654 16.2106 7.03932 15.9955 6.96193 15.8087C6.88454 15.6218 6.70222 15.5 6.49999 15.5H4.74999ZM8.99999 6C8.44771 6 7.99999 6.44772 7.99999 7C7.99999 7.55228 8.44771 8 8.99999 8H19C19.5523 8 20 7.55228 20 7C20 6.44772 19.5523 6 19 6H8.99999ZM8.99999 11C8.44771 11 7.99999 11.4477 7.99999 12C7.99999 12.5523 8.44771 13 8.99999 13H19C19.5523 13 20 12.5523 20 12C20 11.4477 19.5523 11 19 11H8.99999ZM8.99999 16C8.44771 16 7.99999 16.4477 7.99999 17C7.99999 17.5523 8.44771 18 8.99999 18H19C19.5523 18 20 17.5523 20 17C20 16.4477 19.5523 16 19 16H8.99999Z" fill="black"/>
</svg>
