<svg width="24" height="24" viewBox="0 0 24 24" fill="none" xmlns="http://www.w3.org/2000/svg">
<path fill-rule="evenodd" clip-rule="evenodd" d="M11 6C10.4477 6 10 6.44772 10 7C10 7.55228 10.4477 8 11 8H20C20.5523 8 21 7.55228 21 7C21 6.44772 20.5523 6 20 6H11ZM15 11C14.4477 11 14 11.4477 14 12C14 12.5523 14.4477 13 15 13L20 13C20.5523 13 21 12.5523 21 12C21 11.4477 20.5523 11 20 11L15 11ZM11 16C10.4477 16 10 16.4477 10 17C10 17.5523 10.4477 18 11 18H20C20.5523 18 21 17.5523 21 17C21 16.4477 20.5523 16 20 16H11ZM7.70711 9.70711C8.09763 9.31658 8.09763 8.68342 7.70711 8.29289C7.31658 7.90237 6.68342 7.90237 6.29289 8.29289L3.29289 11.2929C2.90237 11.6834 2.90237 12.3166 3.29289 12.7071L6.29289 15.7071C6.68342 16.0976 7.31658 16.0976 7.70711 15.7071C8.09763 15.3166 8.09763 14.6834 7.70711 14.2929L6.41421 13H10C10.5523 13 11 12.5523 11 12C11 11.4477 10.5523 11 10 11H6.41421L7.70711 9.70711Z" fill="black"/>
</svg>
