<svg width="24" height="24" viewBox="0 0 24 24" fill="none" xmlns="http://www.w3.org/2000/svg">
<path fill-rule="evenodd" clip-rule="evenodd" d="M11 5C10.4477 5 10 5.44772 10 6V8H14V6C14 5.44772 13.5523 5 13 5H11ZM15.8293 5C15.4175 3.83481 14.3062 3 13 3H11C9.69378 3 8.58254 3.83481 8.17071 5H6C4.34315 5 3 6.34315 3 8V18C3 19.6569 4.34315 21 6 21H18C19.6569 21 21 19.6569 21 18V8C21 6.34315 19.6569 5 18 5H15.8293ZM16 7V9C16 9.55228 15.5523 10 15 10H9C8.44772 10 8 9.55228 8 9V7H6C5.44772 7 5 7.44772 5 8V18C5 18.5523 5.44772 19 6 19H18C18.5523 19 19 18.5523 19 18V8C19 7.44772 18.5523 7 18 7H16Z" fill="black"/>
</svg>
