<svg width="24" height="24" viewBox="0 0 24 24" fill="none" xmlns="http://www.w3.org/2000/svg">
<path fill-rule="evenodd" clip-rule="evenodd" d="M9.62231 6.78278C10.0546 6.43909 10.1265 5.81001 9.78277 5.3777C9.43908 4.94539 8.81001 4.87354 8.37769 5.21724C4.73471 8.11342 4 11.8784 4 16C4 17.6569 5.34315 19 7 19C8.65685 19 10 17.6569 10 16C10 14.3432 8.65685 13 7 13C6.71233 13 6.43412 13.0405 6.17076 13.1161C6.5162 10.5872 7.45738 8.50391 9.62231 6.78278ZM20 16C20 17.6569 18.6569 19 17 19C15.3431 19 14 17.6569 14 16C14 11.8784 14.7347 8.11342 18.3777 5.21724C18.81 4.87354 19.4391 4.94539 19.7828 5.3777C20.1265 5.81001 20.0546 6.43909 19.6223 6.78278C17.4574 8.50391 16.5162 10.5872 16.1708 13.1161C16.4341 13.0405 16.7123 13 17 13C18.6569 13 20 14.3432 20 16Z" fill="black"/>
</svg>
