<svg width="24" height="24" viewBox="0 0 24 24" fill="none" xmlns="http://www.w3.org/2000/svg">
<path fill-rule="evenodd" clip-rule="evenodd" d="M13.2929 4.29289C13.6834 3.90237 14.3166 3.90237 14.7071 4.29289L18.7071 8.29289C19.0976 8.68342 19.0976 9.31658 18.7071 9.70711L14.7071 13.7071C14.3166 14.0976 13.6834 14.0976 13.2929 13.7071C12.9024 13.3166 12.9024 12.6834 13.2929 12.2929L15.5858 10H10.5C8.567 10 7 11.567 7 13.5C7 15.433 8.567 17 10.5 17H13C13.5523 17 14 17.4477 14 18C14 18.5523 13.5523 19 13 19H10.5C7.46243 19 5 16.5376 5 13.5C5 10.4624 7.46243 8 10.5 8H15.5858L13.2929 5.70711C12.9024 5.31658 12.9024 4.68342 13.2929 4.29289Z" fill="black"/>
</svg>
