<svg width="24" height="24" viewBox="0 0 24 24" fill="none" xmlns="http://www.w3.org/2000/svg">
<path d="M4.74329 5.33104C4.37384 4.92053 3.74155 4.88725 3.33104 5.25671C2.92053 5.62616 2.88725 6.25845 3.25671 6.66896L4.74329 5.33104ZM12.2567 16.669C12.6262 17.0795 13.2585 17.1128 13.669 16.7433C14.0795 16.3738 14.1128 15.7415 13.7433 15.331L12.2567 16.669ZM13.7433 6.66896C14.1128 6.25845 14.0795 5.62616 13.669 5.25671C13.2585 4.88725 12.6262 4.92053 12.2567 5.33104L13.7433 6.66896ZM3.25671 15.331C2.88725 15.7415 2.92053 16.3738 3.33104 16.7433C3.74155 17.1128 4.37384 17.0795 4.74329 16.669L3.25671 15.331ZM3.25671 6.66896L12.2567 16.669L13.7433 15.331L4.74329 5.33104L3.25671 6.66896ZM12.2567 5.33104L3.25671 15.331L4.74329 16.669L13.7433 6.66896L12.2567 5.33104Z" fill="black"/>
<path d="M20 19H16L19.0445 15.6931C19.598 15.0919 19.6429 14.181 19.1512 13.5283V13.5283C18.5395 12.7162 17.3549 12.6228 16.6235 13.329L16 13.931" stroke="black" stroke-width="2" stroke-linecap="round" stroke-linejoin="round"/>
</svg>
