<svg width="24" height="24" viewBox="0 0 24 24" fill="none" xmlns="http://www.w3.org/2000/svg">
<path d="M4.74329 8.33104C4.37384 7.92053 3.74155 7.88725 3.33104 8.25671C2.92053 8.62616 2.88725 9.25845 3.25671 9.66896L4.74329 8.33104ZM12.2567 19.669C12.6262 20.0795 13.2585 20.1128 13.669 19.7433C14.0795 19.3738 14.1128 18.7415 13.7433 18.331L12.2567 19.669ZM13.7433 9.66896C14.1128 9.25845 14.0795 8.62616 13.669 8.25671C13.2585 7.88725 12.6262 7.92053 12.2567 8.33104L13.7433 9.66896ZM3.25671 18.331C2.88725 18.7415 2.92053 19.3738 3.33104 19.7433C3.74155 20.1128 4.37384 20.0795 4.74329 19.669L3.25671 18.331ZM3.25671 9.66896L12.2567 19.669L13.7433 18.331L4.74329 8.33104L3.25671 9.66896ZM12.2567 8.33104L3.25671 18.331L4.74329 19.669L13.7433 9.66896L12.2567 8.33104Z" fill="black"/>
<path d="M20 11H16L19.0445 7.69309C19.598 7.09187 19.6429 6.18104 19.1512 5.5283V5.5283C18.5395 4.71621 17.3549 4.62282 16.6235 5.329L16 5.93103" stroke="black" stroke-width="2" stroke-linecap="round" stroke-linejoin="round"/>
</svg>
