<svg width="24" height="24" viewBox="0 0 24 24" fill="none" xmlns="http://www.w3.org/2000/svg">
<path fill-rule="evenodd" clip-rule="evenodd" d="M17.3181 6.04842C17.6174 5.75945 18.1021 5.79767 18.3524 6.12997C18.5536 6.39707 18.5353 6.76978 18.3088 7.01579L15.2643 10.3227C14.9955 10.6147 14.9248 11.0382 15.0842 11.4017C15.2437 11.7652 15.6031 12 16 12H20C20.5523 12 21 11.5523 21 11C21 10.4477 20.5523 10 20 10H18.2799L19.7802 8.37041C20.6607 7.41399 20.7321 5.96504 19.95 4.92665C18.9769 3.63478 17.0925 3.48621 15.929 4.60962L15.3054 5.21165C14.9081 5.59526 14.897 6.22833 15.2806 6.62564C15.6642 7.02296 16.2973 7.03406 16.6946 6.65045L17.3181 6.04842ZM4.7433 8.33104C4.37384 7.92053 3.74155 7.88725 3.33104 8.25671C2.92053 8.62616 2.88726 9.25845 3.25671 9.66896L7.15465 14L3.25671 18.331C2.88726 18.7415 2.92053 19.3738 3.33104 19.7433C3.74155 20.1128 4.37384 20.0795 4.7433 19.669L8.50001 15.4948L12.2567 19.669C12.6262 20.0795 13.2585 20.1128 13.669 19.7433C14.0795 19.3738 14.1128 18.7415 13.7433 18.331L9.84537 14L13.7433 9.66896C14.1128 9.25845 14.0795 8.62616 13.669 8.25671C13.2585 7.88725 12.6262 7.92053 12.2567 8.33104L8.50001 12.5052L4.7433 8.33104Z" fill="black"/>
</svg>
