<svg width="24" height="24" viewBox="0 0 24 24" fill="none" xmlns="http://www.w3.org/2000/svg">
<path fill-rule="evenodd" clip-rule="evenodd" d="M7 5C7.55228 5 8 5.44772 8 6V12C8 14.2091 9.79086 16 12 16C14.2091 16 16 14.2091 16 12V6C16 5.44772 16.4477 5 17 5C17.5523 5 18 5.44772 18 6V12C18 15.3137 15.3137 18 12 18C8.68629 18 6 15.3137 6 12V6C6 5.44772 6.44772 5 7 5ZM6 20C6 19.4477 6.44772 19 7 19H17C17.5523 19 18 19.4477 18 20C18 20.5523 17.5523 21 17 21H7C6.44772 21 6 20.5523 6 20Z" fill="black"/>
</svg>
