<svg width="24" height="24" viewBox="0 0 24 24" fill="none" xmlns="http://www.w3.org/2000/svg">
<path fill-rule="evenodd" clip-rule="evenodd" d="M10.7071 4.29289C11.0976 4.68342 11.0976 5.31658 10.7071 5.70711L8.41421 8H13.5C16.5376 8 19 10.4624 19 13.5C19 16.5376 16.5376 19 13.5 19H11C10.4477 19 10 18.5523 10 18C10 17.4477 10.4477 17 11 17H13.5C15.433 17 17 15.433 17 13.5C17 11.567 15.433 10 13.5 10H8.41421L10.7071 12.2929C11.0976 12.6834 11.0976 13.3166 10.7071 13.7071C10.3166 14.0976 9.68342 14.0976 9.29289 13.7071L5.29289 9.70711C4.90237 9.31658 4.90237 8.68342 5.29289 8.29289L9.29289 4.29289C9.68342 3.90237 10.3166 3.90237 10.7071 4.29289Z" fill="black"/>
</svg>
