<svg width="24" height="24" fill="none" xmlns="http://www.w3.org/2000/svg"><path fill-rule="evenodd" clip-rule="evenodd" d="M12 4a8 8 0 1 0 3.36 15.262 1 1 0 0 1 .842 1.815A9.966 9.966 0 0 1 12 22C6.477 22 2 17.523 2 12S6.477 2 12 2s10 4.477 10 10v.019c-.042 2.19-.74 3.665-1.767 4.58-1.004.894-2.193 1.138-3.023 1.138-1.192 0-2.239-.62-2.838-1.554-2.076 1.835-5.07 2.239-6.918.185-1.926-2.14-1.389-5.713.666-7.996 1.988-2.209 5.603-3.062 7.678-.506a1 1 0 0 1 1.9.619c-.592 2.076-1.29 4.133-1.813 6.227a1.37 1.37 0 0 0 1.325 1.025c.48 0 1.148-.146 1.693-.631.52-.463 1.062-1.354 1.097-3.115A8 8 0 0 0 12 4zm2.353 8.914c.07-.24.253-.881.467-1.628.233-.82-.07-1.606-.708-2.316-.92-1.021-2.892-1.053-4.505.74-1.623 1.802-1.682 4.191-.666 5.32.919 1.021 2.891 1.053 4.505-.74.373-.414.724-.844.907-1.376z" fill="#000"/></svg>