<svg width="24" height="24" fill="none" xmlns="http://www.w3.org/2000/svg"><path fill-rule="evenodd" clip-rule="evenodd" d="M4 2a2 2 0 0 0-2 2v15a2 2 0 0 0 2 2h7.382l-.276.553a1 1 0 1 0 1.788.894L13.618 21h.764l.724 1.447a1 1 0 1 0 1.788-.894L16.618 21H20a2 2 0 0 0 2-2V4a2 2 0 0 0-2-2H4zm12.895 17c.184-.314.264-.705.176-1.14a.401.401 0 0 1 .38-.483c1.644-.04 2.148-2.286.683-3.047a.407.407 0 0 1-.135-.602c.995-1.332-.418-3.134-1.916-2.443a.395.395 0 0 1-.547-.268c-.403-1.622-2.669-1.622-3.072 0a.395.395 0 0 1-.547.268c-1.498-.691-2.911 1.11-1.916 2.443.15.2.085.488-.135.602-1.465.76-.96 3.008.684 3.046a.401.401 0 0 1 .378.484c-.087.435-.007.826.177 1.14H4V4h16v15h-3.105zM7 6a1 1 0 0 0 0 2h5a1 1 0 1 0 0-2H7zm9 0a1 1 0 1 0 0 2h1a1 1 0 1 0 0-2h-1zm.5 9a2.5 2.5 0 1 1-5 0 2.5 2.5 0 0 1 5 0z" fill="#000"/></svg>