<svg width="24" height="24" fill="none" xmlns="http://www.w3.org/2000/svg"><path fill-rule="evenodd" clip-rule="evenodd" d="M3.293 3.293a1 1 0 0 1 1.414 0L8 6.586V5a1 1 0 0 1 2 0v4a1 1 0 0 1-1 1H5a1 1 0 0 1 0-2h1.586L3.293 4.707a1 1 0 0 1 0-1.414zm16 0a1 1 0 1 1 1.414 1.414L17.414 8H19a1 1 0 1 1 0 2h-4a1 1 0 0 1-1-1V5a1 1 0 1 1 2 0v1.586l3.293-3.293zM4 15a1 1 0 0 1 1-1h4a1 1 0 0 1 1 1v4a1 1 0 1 1-2 0v-1.586l-3.293 3.293a1 1 0 0 1-1.414-1.414L6.586 16H5a1 1 0 0 1-1-1zm10 0a1 1 0 0 1 1-1h4a1 1 0 1 1 0 2h-1.586l3.293 3.293a1 1 0 0 1-1.414 1.414L16 17.414V19a1 1 0 1 1-2 0v-4z" fill="#000"/></svg>