<svg width="24" height="24" fill="none" xmlns="http://www.w3.org/2000/svg"><path fill-rule="evenodd" clip-rule="evenodd" d="M20 20a1 1 0 100-2 1 1 0 000 2zm-3-1c0-1.306.835-2.418 2-2.83V16a3 3 0 00-3-3 4.978 4.978 0 01-3-1v4.17a3.001 3.001 0 11-2 0V12c-.836.628-1.874 1-3 1a3 3 0 00-3 3v.17a3.001 3.001 0 11-2 0V16a5 5 0 015-5 3 3 0 003-3v-.17a3.001 3.001 0 112 0V8a3 3 0 003 3 5 5 0 015 5v.17A3.001 3.001 0 1117 19zM12 6a1 1 0 100-2 1 1 0 000 2zM4 18a1 1 0 100 2 1 1 0 000-2zm9 1a1 1 0 11-2 0 1 1 0 012 0z" fill="#000"/></svg>