<svg width="24" height="24" fill="none" xmlns="http://www.w3.org/2000/svg"><path fill-rule="evenodd" clip-rule="evenodd" d="M20 20a1 1 0 1 0 0-2 1 1 0 0 0 0 2zm-3-1c0-1.306.835-2.418 2-2.83V16a3 3 0 0 0-3-3 4.978 4.978 0 0 1-3-1v4.17a3.001 3.001 0 1 1-2 0V12c-.836.628-1.874 1-3 1a3 3 0 0 0-3 3v.17a3.001 3.001 0 1 1-2 0V16a5 5 0 0 1 5-5 3 3 0 0 0 3-3v-.17a3.001 3.001 0 1 1 2 0V8a3 3 0 0 0 3 3 5 5 0 0 1 5 5v.17A3.001 3.001 0 1 1 17 19zM12 6a1 1 0 1 0 0-2 1 1 0 0 0 0 2zM4 18a1 1 0 1 0 0 2 1 1 0 0 0 0-2zm9 1a1 1 0 1 1-2 0 1 1 0 0 1 2 0z" fill="#000"/></svg>