<svg width="24" height="24" fill="none" xmlns="http://www.w3.org/2000/svg"><path fill-rule="evenodd" clip-rule="evenodd" d="M3 5a1 1 0 00-1 1v12a1 1 0 001 1h18a1 1 0 001-1V6a1 1 0 00-1-1H3zM0 6a3 3 0 013-3h18a3 3 0 013 3v12a3 3 0 01-3 3H3a3 3 0 01-3-3V6zm6 4.5a1.5 1.5 0 113 0 1.5 1.5 0 01-3 0zm4.176 2.257a3.5 3.5 0 10-5.351 0C3.681 13.498 3 14.707 3 16a1 1 0 102 0c0-.886.8-2 2.5-2s2.5 1.114 2.5 2a1 1 0 102 0c0-1.293-.682-2.5-1.824-3.243zM13 8a1 1 0 100 2h6a1 1 0 100-2h-6zm1 4a1 1 0 100 2h4a1 1 0 100-2h-4z" fill="#000"/></svg>