<svg width="24" height="24" fill="none" xmlns="http://www.w3.org/2000/svg"><path fill-rule="evenodd" clip-rule="evenodd" d="M3.221 10.778c.018-3.645 2.99-6.618 6.636-6.635a6.504 6.504 0 016.551 6.551 6.634 6.634 0 01-.223 1.677 1 1 0 00.264.97l1.046 1.032-2.025 2.025-1.806 1.806-.206.206-1.043-1.044a1 1 0 00-.965-.26 6.63 6.63 0 01-1.677.224 6.504 6.504 0 01-6.552-6.552zm8.986 9.201a1.98 1.98 0 001.815.356l1.695 1.477.278.25a3.65 3.65 0 005.832-1.354 3.672 3.672 0 00-.679-3.825l-.732-.811-.995-1.137a1.98 1.98 0 00-.356-1.813 1.008 1.008 0 00-.075-.084l-.74-.73c.102-.52.156-1.056.158-1.604a8.504 8.504 0 00-8.56-8.561c-4.743.023-8.603 3.883-8.627 8.625a8.504 8.504 0 008.562 8.562 8.656 8.656 0 001.609-.159l.737.737a.999.999 0 00.079.071zm6.84.906a1.65 1.65 0 01-1.261-.018l1.946-2.562c.368.465.462 1.1.238 1.658a1.657 1.657 0 01-.924.922zm-3.476-1.81l.945.839 2.124-2.937-.813-.93-2.256 3.028z" fill="#000"/></svg>