<svg width="24" height="24" fill="none" xmlns="http://www.w3.org/2000/svg"><path fill-rule="evenodd" clip-rule="evenodd" d="M9.207 14.793c2.318 2.318 4.471 3.61 6.073 4.328 1.399.627 3.05.135 4.337-1.152l.294-.295-3.536-2.25c-.672.98-1.943 1.555-3.212 1.02-.961-.406-2.233-1.1-3.37-2.237s-1.83-2.409-2.236-3.37c-.536-1.269.038-2.54 1.019-3.212l-2.25-3.536-.295.294C4.744 5.67 4.253 7.321 4.879 8.72c.718 1.602 2.01 3.755 4.328 6.073zm5.256 6.153c-1.815-.813-4.172-2.241-6.67-4.739-2.498-2.497-3.926-4.855-4.74-6.67-1.075-2.4-.093-4.91 1.564-6.568l.294-.295a2 2 0 0 1 3.102.34l2.83 4.45a1 1 0 0 1-.396 1.43l-.633.317c-.432.216-.52.597-.415.848.339.803.906 1.831 1.808 2.734.903.902 1.931 1.469 2.734 1.808.251.106.632.017.848-.415l.317-.633a1 1 0 0 1 1.43-.397l4.45 2.831a2 2 0 0 1 .34 3.102l-.295.294c-1.657 1.658-4.167 2.639-6.568 1.563z" fill="#000"/></svg>