<svg width="24" height="24" fill="none" xmlns="http://www.w3.org/2000/svg"><path fill-rule="evenodd" clip-rule="evenodd" d="M11.12 1.021c.989-.014 1.84.522 2.59 1.271l1.26 1.261a3.947 3.947 0 1 1 5.476 5.476l1.261 1.26.001.002c.748.75 1.285 1.6 1.27 2.588-.014.981-.568 1.8-1.272 2.5l-.002.001-1.275 1.276c-.477.477-1.101.426-1.478.267-.373-.157-.77-.519-.861-1.072a1.947 1.947 0 1 0-2.239 2.239c.553.09.915.488 1.073.86.159.378.21 1.002-.268 1.478l-1.279 1.28-.001.001c-.698.703-1.517 1.256-2.497 1.27-.987.015-1.836-.52-2.585-1.268h-.001L9.03 20.446a3.947 3.947 0 1 1-5.476-5.476l-1.261-1.26v-.002c-.75-.75-1.286-1.6-1.272-2.588.015-.981.57-1.8 1.273-2.5l.002-.001 1.276-1.276c.476-.477 1.1-.427 1.477-.268.373.158.771.52.862 1.073A1.947 1.947 0 1 0 8.15 5.91c-.554-.09-.916-.488-1.073-.861-.16-.377-.21-1 .267-1.478L8.62 2.296l.001-.002c.7-.704 1.519-1.258 2.5-1.273zm.03 2c-.204.003-.55.118-1.11.683l-.003.003-.544.543A3.947 3.947 0 1 1 4.25 9.493l-.543.544-.003.002c-.565.561-.68.906-.683 1.111-.003.198.096.554.687 1.147l2.33 2.33a1 1 0 0 1-.566 1.697 1.947 1.947 0 1 0 2.204 2.204 1 1 0 0 1 1.697-.566l2.333 2.333.001.001c.59.589.946.687 1.143.684.204-.003.549-.118 1.107-.681l.003-.003.547-.547a3.947 3.947 0 1 1 5.243-5.243l.543-.543.003-.002c.565-.561.68-.907.683-1.111.003-.198-.095-.554-.686-1.146v-.001l-2.331-2.33a1 1 0 0 1 .566-1.697 1.947 1.947 0 1 0-2.204-2.204 1 1 0 0 1-1.697.566l-2.33-2.33c-.593-.592-.95-.69-1.147-.687z" fill="#000"/></svg>