<svg width="24" height="24" fill="none" xmlns="http://www.w3.org/2000/svg"><path fill-rule="evenodd" clip-rule="evenodd" d="M9 4a1 1 0 0 0-1 1v2H6.5a1 1 0 0 0-.97.757L4.22 13H1a1 1 0 0 0-.928 1.371l2 5A1 1 0 0 0 3 20h17a1 1 0 0 0 .92-.606l3-7A1 1 0 0 0 23 11h-3.117l-.39-3.124A1 1 0 0 0 18.5 7H15V5a1 1 0 0 0-1-1H9zm2.382 9H6.281l1-4h10.336l.25 2h-3.63a3 3 0 0 0-2.684 1.658l-.171.342zm1.96.553a1 1 0 0 1 .894-.553h7.247l-2.142 5H3.677l-1.2-3h8.905a2 2 0 0 0 1.789-1.106l.17-.341z" fill="#000"/></svg>