<svg width="24" height="24" fill="none" xmlns="http://www.w3.org/2000/svg"><path fill-rule="evenodd" clip-rule="evenodd" d="M11.5 8.5c0 .896-.337 1.714-.891 2.333A4.5 4.5 0 0 1 8 19H3.5A1.5 1.5 0 0 1 2 17.5v-12A1.5 1.5 0 0 1 3.5 4h4a4 4 0 0 1 4 4v.5zM4 10V6h3.5a2 2 0 0 1 2 2v.5A1.5 1.5 0 0 1 8 10H4zm0 2h4a2.5 2.5 0 0 1 0 5H4v-5z" fill="#000"/><path d="M15 6a1 1 0 0 1 1-1h3.5a1 1 0 1 1 0 2H16a1 1 0 0 1-1-1z" fill="#000"/><path fill-rule="evenodd" clip-rule="evenodd" d="M17.75 8c-2.841 0-5.25 2.182-5.25 5v1c0 2.818 2.409 5 5.25 5 1.515 0 2.612-.436 3.347-.91.442-.284.789-.63 1.123-1.028a1 1 0 0 0-1.645-1.137 2.252 2.252 0 0 1-.56.484c-.431.277-1.156.591-2.265.591-1.853 0-3.25-1.4-3.25-3H22a1 1 0 0 0 1-1c0-2.818-2.409-5-5.25-5zm3.063 4c-.44-1.141-1.612-2-3.063-2s-2.623.859-3.063 2h6.126z" fill="#000"/></svg>