<svg width="24" height="24" fill="none" xmlns="http://www.w3.org/2000/svg"><path fill-rule="evenodd" clip-rule="evenodd" d="M4 12c0-2.444.692-4.566 1.993-6.061C7.277 4.464 9.24 3.5 12 3.5c2.761 0 4.723.964 6.007 2.439C19.308 7.434 20 9.556 20 12s-.692 4.566-1.993 6.061C16.723 19.536 14.76 20.5 12 20.5c-2.761 0-4.723-.964-6.007-2.439C4.692 16.566 4 14.444 4 12zm8-10.5c-3.268 0-5.807 1.163-7.515 3.126C2.794 6.569 2 9.197 2 12s.794 5.431 2.485 7.374C6.193 21.337 8.732 22.5 12 22.5s5.807-1.163 7.515-3.126C21.206 17.431 22 14.803 22 12s-.794-5.431-2.485-7.374C17.807 2.663 15.268 1.5 12 1.5zM10 12c0-2.305.253-3.74.651-4.57.19-.395.394-.61.582-.734.185-.12.425-.196.767-.196s.582.076.767.196c.188.123.392.34.582.735C13.747 8.26 14 9.695 14 12s-.253 3.74-.651 4.57c-.19.395-.394.61-.582.734-.185.12-.425.196-.767.196s-.582-.076-.767-.196c-.188-.123-.392-.34-.582-.735C10.253 15.74 10 14.305 10 12zm2-7.5c-.658 0-1.293.152-1.858.52-.562.366-.983.899-1.293 1.545C8.247 7.817 8 9.63 8 12c0 2.369.247 4.183.849 5.436.31.645.731 1.178 1.293 1.543.565.369 1.2.521 1.858.521.658 0 1.293-.152 1.858-.52.562-.366.983-.899 1.293-1.544.602-1.253.849-3.067.849-5.436 0-2.369-.247-4.183-.849-5.435-.31-.646-.731-1.179-1.293-1.544-.565-.369-1.2-.521-1.858-.521z" fill="#000"/></svg>