<svg width="24" height="24" fill="none" xmlns="http://www.w3.org/2000/svg"><g clip-path="url(#clip0)"><path fill-rule="evenodd" clip-rule="evenodd" d="M12 0a1 1 0 0 1 1 1v1.05a9.971 9.971 0 0 1 6.155 2.964l.822-.654a1 1 0 0 1 1.247 1.563l-.82.654A9.953 9.953 0 0 1 22 12c0 .42-.026.833-.076 1.239l1.023.233a1 1 0 1 1-.445 1.95l-1.021-.233a10.028 10.028 0 0 1-4.262 5.343l.455.945a1 1 0 1 1-1.802.867l-.454-.943A9.982 9.982 0 0 1 12 22a9.98 9.98 0 0 1-3.417-.6l-.455.944a1 1 0 0 1-1.802-.867l.455-.945a10.029 10.029 0 0 1-4.262-5.343l-1.02.233a1 1 0 0 1-.446-1.95l1.023-.233C2.026 12.833 2 12.42 2 12c0-1.999.586-3.86 1.597-5.423l-.82-.654A1 1 0 0 1 4.022 4.36l.822.655A9.97 9.97 0 0 1 11 2.05V1a1 1 0 0 1 1-1zM6.418 6.27A7.975 7.975 0 0 1 11 4.061v5.861L6.418 6.27zM4 12c0-1.527.428-2.954 1.17-4.168l4.583 3.655L4.04 12.79A8.097 8.097 0 0 1 4 12zm3.655 6.718a8.025 8.025 0 0 1-3.173-3.977l5.716-1.304-2.543 5.281zM12 20c-.89 0-1.745-.145-2.544-.413L12 14.305l2.544 5.282A7.99 7.99 0 0 1 12 20zm7.518-5.259a8.025 8.025 0 0 1-3.173 3.977l-2.543-5.281 5.716 1.304zM20 12c0 .267-.013.53-.039.79l-5.714-1.303 4.583-3.655A7.962 7.962 0 0 1 20 12zm-7-2.077l4.582-3.654A7.975 7.975 0 0 0 13 4.062v5.861zM12 13.5a1.5 1.5 0 1 0 0-3 1.5 1.5 0 0 0 0 3z" fill="#000"/></g><defs><clipPath id="clip0"><path fill="#fff" d="M0 0h24v24H0z"/></clipPath></defs></svg>