<svg width="24" height="24" fill="none" xmlns="http://www.w3.org/2000/svg"><path fill-rule="evenodd" clip-rule="evenodd" d="M10 9V6.824c.252.114.53.176.82.176h2.36c.29 0 .569-.062.82-.176V9a1 1 0 0 0 1 1 6 6 0 0 1 0 12H9a6 6 0 0 1 0-12 1 1 0 0 0 1-1zm6-7h-.22c.003-1.079-.872-2-2-2h-3.56a2.001 2.001 0 0 0-2 2H8a1 1 0 0 0 0 2v4.062A8.001 8.001 0 0 0 9 24h6a8 8 0 0 0 1-15.938V4a1 1 0 1 0 0-2zm-5.78 0l.6 3h2.36l.6-3h-3.56zm5.28 12.5c-1.088.067-2.146-.34-3.207-.746-.922-.354-1.846-.71-2.793-.754-1.604-.076-3.294.609-4.33 1.129-.657.33-1.14.95-1.167 1.685A5 5 0 0 0 9 21h6a5 5 0 0 0 4.887-6.064c-.219-1.007-1.393-1.295-2.359-.937-.654.243-1.398.462-2.028.5zm-6.5 2a1.5 1.5 0 1 1-3 0 1.5 1.5 0 0 1 3 0zm3.5 3.25a1.25 1.25 0 1 0 0-2.5 1.25 1.25 0 0 0 0 2.5zM17 17a1 1 0 1 1-2 0 1 1 0 0 1 2 0z" fill="#000"/></svg>