<svg width="24" height="24" fill="none" xmlns="http://www.w3.org/2000/svg"><path fill-rule="evenodd" clip-rule="evenodd" d="M15.939.186a1 1 0 011.137.796c.197 1.332.25 2.721-.18 4.016.336.038.691.118 1.065.251 1.705.608 2.716 1.974 3.288 3.362A1 1 0 0120.2 9.985c-1.36-.171-2.2 1.304-2.2 2.487 0 1.194.862 2.686 2.234 2.483a1 1 0 011.089 1.324c-.919 2.59-2.71 5.09-4.81 6.345a2.361 2.361 0 01-1.82.276c-.465-.112-.888-.34-1.303-.567-.591-.324-.972-.511-1.39-.511-.418 0-.799.187-1.39.51-.415.229-.838.456-1.303.568a2.36 2.36 0 01-1.82-.276c-1.539-.92-2.9-2.5-3.871-4.262C2.64 16.595 2 14.543 2 12.615c0-1.13.184-2.634.755-4.014.573-1.385 1.583-2.746 3.284-3.353 1.972-.704 3.408.082 4.4.709.013-.952.172-2.265.897-3.3C12.34 1.223 14.251.451 15.94.185zM6.71 7.133c1.157-.413 1.898.027 2.91.676.722.464 1.49.932 2.379.932s1.657-.468 2.379-.932c1.012-.65 1.753-1.089 2.91-.676.584.208 1.06.577 1.442 1.065C17.078 8.81 16 10.585 16 12.472c0 1.963 1.167 3.806 2.934 4.343-.863 1.782-2.934 3.977-3.447 4.092-.398.09-.844-.168-1.136-.328-.734-.403-1.496-.758-2.351-.758-.972 0-1.768.437-2.294.727-.312.17-.823.58-1.193.36-1.151-.69-2.291-1.963-3.146-3.513C4.514 15.85 4 14.13 4 12.615c0-.947.159-2.176.603-3.249C5.045 8.3 5.72 7.486 6.71 7.133zm7.978-2.128c-.51.729-1.423 1.117-2.245 1.382-.032-.863.02-1.854.53-2.583.51-.728 1.424-1.117 2.246-1.382.032.863-.02 1.854-.53 2.583z" fill="#000"/></svg>