<svg width="24" height="24" fill="none" xmlns="http://www.w3.org/2000/svg"><path fill-rule="evenodd" clip-rule="evenodd" d="M5.427 6.61l1.975 3.424A5.001 5.001 0 0112 7h.002l6.874.002A8.489 8.489 0 0012 3.5a8.481 8.481 0 00-6.573 3.11zm14.53 2.392L16 9c.627.835.999 1.874.999 2.999 0 .91-.244 1.765-.67 2.502v.001l-3.433 5.95a8.501 8.501 0 007.06-11.451zM10.624 20.39l1.976-3.426a4.998 4.998 0 01-4.93-2.461l-.008-.014-3.43-5.947a8.503 8.503 0 006.392 11.847zM9.402 13.5A2.998 2.998 0 0012 15a2.998 2.998 0 003-3 3 3 0 00-2.998-3H12a3 3 0 00-2.604 4.491l.005.01zM3.412 5.96A10.489 10.489 0 0112 1.5c4.222 0 7.86 2.492 9.527 6.08.625 1.345.973 2.843.973 4.42 0 5.799-4.701 10.5-10.5 10.5-.312 0-.622-.014-.928-.04C5.707 21.99 1.5 17.486 1.5 12c0-2.247.707-4.333 1.911-6.041z" fill="#000"/></svg>