<svg width="24" height="24" fill="none" xmlns="http://www.w3.org/2000/svg"><g clip-path="url(#clip0)"><path fill-rule="evenodd" clip-rule="evenodd" d="M11.427 1.18a1 1 0 0 1 1.146 0l10 7A1 1 0 0 1 23 9v7a1 1 0 0 1-.427.82l-10 7a1 1 0 0 1-1.146 0l-10-7A1 1 0 0 1 1 16V9a1 1 0 0 1 .427-.82l10-7zM3 10.92v3.16l2.256-1.58L3 10.92zm4 2.8L3.744 16 11 21.08v-4.56l-4-2.8zm6 2.8v4.56L20.256 16 17 13.72l-4 2.8zm5.744-4.02L21 14.08v-3.16l-2.256 1.58zM20.256 9L17 11.28l-4-2.8V3.92L20.256 9zM11 3.92v4.56l-4 2.8L3.744 9 11 3.92zm1 6.3L8.744 12.5 12 14.78l3.256-2.28L12 10.22z" fill="#000"/></g><defs><clipPath id="clip0"><path fill="#fff" d="M0 0h24v24H0z"/></clipPath></defs></svg>