<svg width="24" height="24" fill="none" xmlns="http://www.w3.org/2000/svg"><path fill-rule="evenodd" clip-rule="evenodd" d="M15.79 2.013a1 1 0 011.356-.389l4.837 2.666a1 1 0 01.39 1.363l-1.608 2.885a8.698 8.698 0 01-4.796 4.005l5.917 3.261a1 1 0 01.391 1.363l-2.68 4.81a1 1 0 01-1.357.388l-6.77-3.732a1.218 1.218 0 00-1.652.469L8.21 21.986a1 1 0 01-1.356.389L2.017 19.71a1 1 0 01-.39-1.363l1.608-2.885a8.698 8.698 0 014.796-4.005L2.114 8.196a1 1 0 01-.391-1.363l2.68-4.81a1 1 0 011.357-.388l6.771 3.732c.589.325 1.328.11 1.65-.468l1.61-2.886zm1.263 1.843l-1.124 2.016a3.219 3.219 0 01-4.363 1.247l-5.9-3.252L3.96 6.929l5.891 3.247c3.26 1.797 7.365.623 9.168-2.612l1.12-2.008-3.085-1.7zm-2.903 9.968c-3.26-1.797-7.365-.623-9.168 2.612l-1.12 2.008 3.086 1.7 1.124-2.016a3.218 3.218 0 014.363-1.247l5.899 3.252 1.707-3.062-5.891-3.247z" fill="#000"/></svg>