<svg width="24" height="24" fill="none" xmlns="http://www.w3.org/2000/svg"><path fill-rule="evenodd" clip-rule="evenodd" d="M11.5 1.38c-2.446 0-4.583.597-6.23 1.936a7.62 7.62 0 0 0-.423.371c-.52.515-1.293 1.439-1.897 2.83C1.947 8.83 2 11 2 11c.781-.652 2.585-2.006 4.312-2.858 1.686-.832 3.812-.917 3.812-.917h.06c.676-.05 1.25-.027 1.642.042.735.13 1.26.455 1.606.883.19.234.34.517.439.85H9.48c0-.156.045-.39.125-.576 0 0-.998-.182-2.004.153-1.713.57-2.873 2.008-3.401 2.794-.563.944-.931 2.064-.931 3.284 0 4.56 4.532 7.736 10.361 7.736 1.585 0 3.75-.435 5.393-1.34.652-.358.976-1.036.976-1.688v-4.276a.998.998 0 0 0-.04-.282A2 2 0 0 0 21.096 13v-3c0-2.74-1.023-4.936-2.8-6.43-1.756-1.475-4.154-2.19-6.797-2.19zM7.626 8.767zm-1.203 2.927c.228-.268.472-.5.72-.694H16V9.95c0-1.154-.335-2.22-1.012-3.058-.681-.841-1.656-1.39-2.814-1.594-1.124-.199-2.893-.115-4.682.375-.79.216-1.609.519-2.396.93a5.922 5.922 0 0 1 1.436-1.735c1.193-.97 2.84-1.488 4.968-1.488 2.302 0 4.203.623 5.51 1.721 1.284 1.08 2.087 2.694 2.087 4.899v3H8.5c-.744 0-1.67.67-1.412 1.731.526 2.164 3.14 3.68 6.543 3.68 1.073 0 2.296-.262 3.387-.71.331-.136.663-.294.982-.475v2.106c-1.295.694-3.081 1.058-4.369 1.058-5.325 0-8.361-2.797-8.361-5.735 0-1.113.463-2.154 1.153-2.961zM9.458 15h8.264c-.37.312-.87.607-1.464.851-.883.363-1.849.56-2.627.56-2.208 0-3.539-.706-4.173-1.411z" fill="#000"/></svg>