<svg width="24" height="24" fill="none" xmlns="http://www.w3.org/2000/svg"><path fill-rule="evenodd" clip-rule="evenodd" d="M4.76 2.413c.452-1.136 2.079-1.077 2.447.089L8.943 8h6.114l1.736-5.498c.368-1.166 1.995-1.225 2.448-.09l2.474 6.218.956 2.404a2 2 0 0 1-.525 2.23l-9.48 8.481a1 1 0 0 1-1.333 0l-9.48-8.481a2 2 0 0 1-.524-2.23l.957-2.404L4.76 2.413zM14.425 10h-4.85L12 17.68 14.425 10zm-4.477 7.822L7.478 10H3.893l-.706 1.773 6.76 6.049zM4.688 8h2.158l-.954-3.023L4.689 8zm9.364 9.822L16.522 10h3.585l.706 1.773-6.76 6.049zM19.312 8h-2.158l.954-3.023L19.311 8z" fill="#000"/></svg>