<svg width="24" height="24" fill="none" xmlns="http://www.w3.org/2000/svg"><path fill-rule="evenodd" clip-rule="evenodd" d="M11.072.724a2.03 2.03 0 0 1 2.364.37l9.47 9.47a2.03 2.03 0 0 1 0 2.871l-9.47 9.47a2.03 2.03 0 0 1-2.872 0l-9.47-9.47a2.03 2.03 0 0 1 0-2.87l9.47-9.47c.152-.153.324-.276.508-.371zm1.014 1.849a4.153 4.153 0 0 0 .621 5.078l3.642 3.642a1 1 0 0 1 0 1.414L13.357 15.7a6.128 6.128 0 0 1 1.146 3.31l6.988-6.988A.027.027 0 0 0 21.5 12a.034.034 0 0 0-.002-.012.029.029 0 0 0-.007-.01l-9.405-9.405zm-.172 18.854a4.153 4.153 0 0 0-.621-5.078L7.65 12.707a1 1 0 0 1 0-1.414L10.643 8.3A6.129 6.129 0 0 1 9.497 4.99L2.51 11.979a.028.028 0 0 0-.007.01A.032.032 0 0 0 2.5 12l.002.012.007.01 9.405 9.405zM12 9.772L9.772 12 12 14.228 14.228 12 12 9.772z" fill="#000"/></svg>