<svg width="24" height="24" fill="none" xmlns="http://www.w3.org/2000/svg"><path fill-rule="evenodd" clip-rule="evenodd" d="M3.5 11.998a8.498 8.498 0 1 1 16.995 0 8.498 8.498 0 0 1-16.995 0zM11.998 1.5C6.2 1.5 1.5 6.2 1.5 11.998c0 5.797 4.7 10.497 10.498 10.497 5.797 0 10.497-4.7 10.497-10.497 0-5.798-4.7-10.498-10.497-10.498zm-5.41 6.312a1 1 0 0 1 .798-1.169c.6-.1 1.207-.15 1.815-.166 1.071-.028 2.538.045 4.093.462 1.555.416 2.862 1.087 3.776 1.647.515.316 1.027.656 1.488 1.05.413.356.462.998.107 1.411a1 1 0 0 1-1.41.107c-.378-.325-.806-.603-1.23-.863-.804-.493-1.932-1.068-3.249-1.42-1.316-.353-2.58-.42-3.523-.394-.499.013-1.004.045-1.496.132a1 1 0 0 1-1.168-.797zm.983 4.529a1 1 0 0 1-.639-1.895c.502-.17 1.047-.242 1.573-.286.944-.078 2.265-.046 3.826.372 1.561.419 2.721 1.052 3.5 1.591.439.304.855.643 1.22 1.034a1 1 0 0 1-.095 1.411 1.012 1.012 0 0 1-1.41-.092 5.44 5.44 0 0 0-.854-.709c-.616-.426-1.569-.952-2.879-1.303-1.31-.35-2.397-.372-3.144-.31a6.57 6.57 0 0 0-1.098.187zm-1.1 1.839a1 1 0 0 0 .968 1.75c.2-.092.432-.129.648-.156.537-.068 1.442-.07 2.764.284 1.321.354 2.104.808 2.535 1.136.325.247.46.426.482.457.31.437.87.621 1.355.338a1 1 0 0 0 .36-1.368 4.168 4.168 0 0 0-.988-1.02c-.655-.498-1.677-1.06-3.227-1.475-1.549-.415-2.715-.44-3.531-.336a4.17 4.17 0 0 0-1.366.39z" fill="#000"/></svg>