<svg width="24" height="24" fill="none" xmlns="http://www.w3.org/2000/svg"><path fill-rule="evenodd" clip-rule="evenodd" d="M5.125 7A8.488 8.488 0 0112 3.5a8.481 8.481 0 016.484 3.004c-1.39-.473-2.906.843-2.413 2.396l.653 2.059-1.767 4.368-1.89-4.7L12.413 9H13a1 1 0 100-2h-3a1 1 0 000 2h.258l.8 1.992L9.2 15.417 6.505 9H7a1 1 0 100-2H5.125zm-.938 1.647a8.5 8.5 0 1015.594-.073c-.02.157-.061.313-.122.465l-.946 2.336-2.832 7a1 1 0 01-1.854-.002l-1.907-4.742-1.998 4.756a1 1 0 01-1.844 0l-4.091-9.74zM12 1.5C6.201 1.5 1.5 6.201 1.5 12S6.201 22.5 12 22.5 22.5 17.799 22.5 12 17.799 1.5 12 1.5z" fill="#000"/></svg>