<svg width="24" height="24" fill="none" xmlns="http://www.w3.org/2000/svg"><path fill-rule="evenodd" clip-rule="evenodd" d="M6 1a3 3 0 0 0-3 3v13c0 1.306.835 2.418 2 2.83V22a1 1 0 0 0 1 1h12a1 1 0 0 0 1-1v-2.17A3.001 3.001 0 0 0 21 17V4a3 3 0 0 0-3-3H6zm11 19H7v1h10v-1zM6 18h12a1 1 0 0 0 1-1V4a1 1 0 0 0-1-1H6a1 1 0 0 0-1 1v13a1 1 0 0 0 1 1zM7 5.75A.75.75 0 0 1 7.75 5h8.5a.75.75 0 0 1 .75.75v6.5a.75.75 0 0 1-.75.75h-8.5a.75.75 0 0 1-.75-.75v-6.5zM16 16a1 1 0 1 0 0-2 1 1 0 0 0 0 2z" fill="#000"/></svg>