<svg width="24" height="24" fill="none" xmlns="http://www.w3.org/2000/svg"><path fill-rule="evenodd" clip-rule="evenodd" d="M19.549 3.57a8 8 0 0 0-7.77 1.544l-2 1.735a1 1 0 0 0-.053 1.463l1.981 1.98 2 2 1.981 1.982a1 1 0 0 0 1.463-.052l1.735-2.002a8 8 0 0 0 1.544-7.769l-.22-.66-.661-.22zm-9.08.033a10 10 0 0 1 9.712-1.93l1.135.378.475.158.158.475.378 1.135a10 10 0 0 1-1.93 9.711l-1.734 2.002a3 3 0 0 1-4.389.156L13 14.414l-8.293 8.293a2.414 2.414 0 0 1-3.414-3.414L9.586 11 8.312 9.726a3 3 0 0 1 .156-4.388l2.002-1.735zM11 12.414l-8.293 8.293a.414.414 0 0 0 .586.586L11.586 13 11 12.414zm1.293-5.121a1 1 0 0 1 1.414 0l3 3a1 1 0 1 1-1.414 1.414l-3-3a1 1 0 0 1 0-1.414z" fill="#000"/></svg>