<svg width="24" height="24" viewBox="0 0 24 24" fill="none" xmlns="http://www.w3.org/2000/svg">
<path fill-rule="evenodd" clip-rule="evenodd" d="M10 5C8.34315 5 7 6.34315 7 8C7 9.65685 8.34315 11 10 11C11.6569 11 13 9.65685 13 8C13 6.34315 11.6569 5 10 5ZM15 8C15 9.39565 14.4282 10.6577 13.506 11.5648C14.2905 11.8404 14.9897 12.2085 15.5915 12.6498C16.0368 12.9765 16.133 13.6023 15.8063 14.0476C15.4797 14.493 14.8539 14.5892 14.4085 14.2625C13.4066 13.5276 11.9223 13 10 13C5.93073 13 4 15.2701 4 17C4 17.5523 3.55228 18 3 18C2.44772 18 2 17.5523 2 17C2 14.6259 3.74942 12.5366 6.49914 11.5699C5.57396 10.6625 5 9.39827 5 8C5 5.23858 7.23858 3 10 3C12.7614 3 15 5.23858 15 8ZM18.7071 16.7071C19.0976 16.3166 19.0976 15.6834 18.7071 15.2929C18.3166 14.9024 17.6834 14.9024 17.2929 15.2929L14.2929 18.2929C13.9024 18.6834 13.9024 19.3166 14.2929 19.7071L17.2929 22.7071C17.6834 23.0976 18.3166 23.0976 18.7071 22.7071C19.0976 22.3166 19.0976 21.6834 18.7071 21.2929L17.4142 20H22C22.5523 20 23 19.5523 23 19C23 18.4477 22.5523 18 22 18H17.4142L18.7071 16.7071Z" fill="black"/>
</svg>
