<svg width="24" height="24" viewBox="0 0 24 24" fill="none" xmlns="http://www.w3.org/2000/svg">
<path fill-rule="evenodd" clip-rule="evenodd" d="M10 5C8.34315 5 7 6.34315 7 8C7 9.65685 8.34315 11 10 11C11.6569 11 13 9.65685 13 8C13 6.34315 11.6569 5 10 5ZM13.5058 11.565C14.4281 10.6579 15 9.39576 15 8C15 5.23858 12.7614 3 10 3C7.23858 3 5 5.23858 5 8C5 9.39827 5.57396 10.6625 6.49914 11.5699C3.74942 12.5366 2 14.6259 2 17C2 17.5523 2.44772 18 3 18C3.55228 18 4 17.5523 4 17C4 15.2701 5.93073 13 10 13C12.6152 13 14.4051 13.9719 15.2988 15.1157C15.6389 15.5509 16.2673 15.628 16.7025 15.288C17.1377 14.9479 17.2148 14.3195 16.8748 13.8843C16.0904 12.8804 14.9401 12.0686 13.5058 11.565ZM20.6139 15.2106C21.0499 15.5497 21.1284 16.178 20.7894 16.6139L16.1227 22.6139C15.9485 22.8379 15.6875 22.9773 15.4045 22.9975C15.1216 23.0177 14.8434 22.9167 14.6392 22.7198L12.3059 20.4698C11.9083 20.0865 11.8968 19.4534 12.2802 19.0559C12.6635 18.6583 13.2966 18.6468 13.6941 19.0302L15.2268 20.5081L19.2106 15.3861C19.5497 14.9501 20.178 14.8716 20.6139 15.2106Z" fill="black"/>
</svg>
