<svg width="24" height="24" viewBox="0 0 24 24" fill="none" xmlns="http://www.w3.org/2000/svg">
<path fill-rule="evenodd" clip-rule="evenodd" d="M7 8C7 6.34315 8.34315 5 10 5C11.6569 5 13 6.34315 13 8C13 9.65685 11.6569 11 10 11C8.34315 11 7 9.65685 7 8ZM13.506 11.5648C14.4282 10.6577 15 9.39565 15 8C15 5.23858 12.7614 3 10 3C7.23858 3 5 5.23858 5 8C5 9.39827 5.57396 10.6625 6.49914 11.5699C3.74942 12.5366 2 14.6259 2 17C2 17.5523 2.44772 18 3 18C3.55228 18 4 17.5523 4 17C4 15.2701 5.93073 13 10 13C11.9542 13 13.4554 13.5451 14.4579 14.2992C14.8992 14.6311 15.5262 14.5425 15.8581 14.1011C16.1901 13.6598 16.1015 13.0328 15.6601 12.7008C15.0431 12.2368 14.3206 11.851 13.506 11.5648ZM19 14.5C19.5523 14.5 20 14.9477 20 15.5V18H22.5C23.0523 18 23.5 18.4477 23.5 19C23.5 19.5523 23.0523 20 22.5 20H20V22.5C20 23.0523 19.5523 23.5 19 23.5C18.4477 23.5 18 23.0523 18 22.5V20H15.5C14.9477 20 14.5 19.5523 14.5 19C14.5 18.4477 14.9477 18 15.5 18H18V15.5C18 14.9477 18.4477 14.5 19 14.5Z" fill="black"/>
</svg>
