<svg width="24" height="24" viewBox="0 0 24 24" fill="none" xmlns="http://www.w3.org/2000/svg">
<path fill-rule="evenodd" clip-rule="evenodd" d="M10 5C8.34315 5 7 6.34315 7 8C7 9.65685 8.34315 11 10 11C11.6569 11 13 9.65685 13 8C13 6.34315 11.6569 5 10 5ZM13.506 11.5648C14.4282 10.6578 15 9.39566 15 8C15 5.23858 12.7614 3 10 3C7.23858 3 5 5.23858 5 8C5 9.39827 5.57396 10.6625 6.49914 11.5699C3.74942 12.5366 2 14.6259 2 17C2 17.5523 2.44772 18 3 18C3.55228 18 4 17.5523 4 17C4 15.2701 5.93073 13 10 13C11.5647 13 12.8409 13.3499 13.8011 13.8767C14.2853 14.1424 14.8932 13.9652 15.1588 13.481C15.4245 12.9968 15.2473 12.3889 14.7631 12.1233C14.3732 11.9094 13.9535 11.7221 13.506 11.5648ZM15.2929 15.2929C15.6834 14.9024 16.3166 14.9024 16.7071 15.2929L19 17.5858L21.2929 15.2929C21.6834 14.9024 22.3166 14.9024 22.7071 15.2929C23.0976 15.6834 23.0976 16.3166 22.7071 16.7071L20.4142 19L22.7071 21.2929C23.0976 21.6834 23.0976 22.3166 22.7071 22.7071C22.3166 23.0976 21.6834 23.0976 21.2929 22.7071L19 20.4142L16.7071 22.7071C16.3166 23.0976 15.6834 23.0976 15.2929 22.7071C14.9024 22.3166 14.9024 21.6834 15.2929 21.2929L17.5858 19L15.2929 16.7071C14.9024 16.3166 14.9024 15.6834 15.2929 15.2929Z" fill="black"/>
</svg>
