<svg width="24" height="24" viewBox="0 0 24 24" fill="none" xmlns="http://www.w3.org/2000/svg">
<path fill-rule="evenodd" clip-rule="evenodd" d="M10 5C8.34315 5 7 6.34315 7 8C7 9.65685 8.34315 11 10 11C11.6569 11 13 9.65685 13 8C13 6.34315 11.6569 5 10 5ZM13.506 11.5648C14.4282 10.6577 15 9.39565 15 8C15 5.23858 12.7614 3 10 3C7.23858 3 5 5.23858 5 8C5 9.39827 5.57396 10.6625 6.49914 11.5699C3.74942 12.5366 2 14.6259 2 17C2 17.5523 2.44772 18 3 18C3.55228 18 4 17.5523 4 17C4 15.2701 5.93073 13 10 13C11.9542 13 13.4554 13.5451 14.4579 14.2992C14.8992 14.6311 15.5262 14.5425 15.8581 14.1011C16.1901 13.6598 16.1015 13.0328 15.6601 12.7008C15.0431 12.2368 14.3206 11.851 13.506 11.5648ZM13.2929 15.2929C13.6834 14.9024 14.3166 14.9024 14.7071 15.2929L17 17.5858L19.2929 15.2929C19.6834 14.9024 20.3166 14.9024 20.7071 15.2929C21.0976 15.6834 21.0976 16.3166 20.7071 16.7071L18.4142 19L20.7071 21.2929C21.0976 21.6834 21.0976 22.3166 20.7071 22.7071C20.3166 23.0976 19.6834 23.0976 19.2929 22.7071L17 20.4142L14.7071 22.7071C14.3166 23.0976 13.6834 23.0976 13.2929 22.7071C12.9024 22.3166 12.9024 21.6834 13.2929 21.2929L15.5858 19L13.2929 16.7071C12.9024 16.3166 12.9024 15.6834 13.2929 15.2929Z" fill="black"/>
</svg>
