<svg width="24" height="24" viewBox="0 0 24 24" fill="none" xmlns="http://www.w3.org/2000/svg">
<path fill-rule="evenodd" clip-rule="evenodd" d="M18.6767 5.26328C18.4907 5.0848 17.1271 3.80947 15.1991 3.04743C13.3259 2.30709 10.8185 2.025 8.41642 3.79674C7.12122 3.6693 6.07221 3.97966 5.35131 4.75759C4.60366 5.56439 4.41416 6.66621 4.40023 7.57937C4.38588 8.52086 4.5555 9.46285 4.71764 10.1463C4.79994 10.4932 4.88316 10.785 4.94637 10.9919C4.96727 11.0603 4.98606 11.1197 5.00199 11.1689C5.05475 13.3974 6.14891 15.368 7.81654 16.613C7.16095 16.8218 6.56031 17.0781 6.02114 17.3722C4.50415 18.1996 3.37171 19.3901 3.02985 20.7575C2.8959 21.2933 3.22166 21.8363 3.75746 21.9702C4.29325 22.1042 4.83619 21.7784 4.97013 21.2426C5.12827 20.61 5.74583 19.8005 6.97884 19.128C8.18745 18.4687 9.89359 18.0001 12 18.0001C14.1064 18.0001 15.8125 18.4687 17.0211 19.128C18.2542 19.8005 18.8717 20.61 19.0299 21.2426C19.1638 21.7784 19.7067 22.1042 20.2425 21.9702C20.7783 21.8363 21.1041 21.2933 20.9701 20.7575C20.6283 19.3901 19.4958 18.1996 17.9788 17.3722C17.4397 17.0781 16.839 16.8218 16.1834 16.613C17.8742 15.3508 18.9754 13.3426 18.9996 11.0762C19.0295 10.8744 19.06 10.6775 19.0899 10.4845C19.3491 8.81198 19.5633 7.43006 18.951 5.68996C18.8996 5.54389 18.8121 5.39322 18.6767 5.26328ZM17 11.0001C17 10.2078 16.5383 9.48712 15.6035 8.91585C14.6628 8.34095 13.3508 8.00008 12 8.00008C10.6492 8.00008 9.3372 8.34095 8.39644 8.91586C7.46253 9.48658 7.00087 10.2064 6.99999 10.9978C6.99999 10.9985 6.99999 10.9993 6.99999 11.0001C6.99999 13.7615 9.23857 16.0001 12 16.0001C14.7614 16.0001 17 13.7615 17 11.0001ZM7.35354 7.20929C7.01426 7.41663 6.6934 7.65562 6.40404 7.92545C6.39989 7.81952 6.39841 7.7141 6.4 7.60985C6.41121 6.87478 6.5719 6.38288 6.81827 6.11701C7.00967 5.91048 7.43818 5.64539 8.53564 5.8294C8.82187 5.87738 9.11482 5.79866 9.33843 5.61367C11.1071 4.15042 12.9328 4.30224 14.4639 4.90742C15.7519 5.41649 16.7511 6.22531 17.1333 6.56175C17.2569 6.95997 17.3211 7.32592 17.3419 7.70285C17.1227 7.52232 16.8893 7.35769 16.6464 7.20929C15.3372 6.4092 13.6492 6.00008 12 6.00008C10.3508 6.00008 8.66278 6.40921 7.35354 7.20929Z" fill="black"/>
</svg>
