<svg width="24" height="24" viewBox="0 0 24 24" fill="none" xmlns="http://www.w3.org/2000/svg">
<path fill-rule="evenodd" clip-rule="evenodd" d="M10 5C8.34315 5 7 6.34315 7 8C7 9.65685 8.34315 11 10 11C11.6569 11 13 9.65685 13 8C13 6.34315 11.6569 5 10 5ZM13.506 11.5648C14.4282 10.6578 15 9.39567 15 8C15 5.23858 12.7614 3 10 3C7.23858 3 5 5.23858 5 8C5 9.39827 5.57396 10.6625 6.49914 11.5699C3.74942 12.5366 2 14.6259 2 17C2 17.5523 2.44772 18 3 18C3.55228 18 4 17.5523 4 17C4 15.2701 5.93073 13 10 13C11.2225 13 12.2696 13.2137 13.1268 13.5586C13.6392 13.7647 14.2216 13.5164 14.4278 13.004C14.6339 12.4916 14.3856 11.9092 13.8732 11.7031C13.753 11.6547 13.6306 11.6086 13.506 11.5648ZM15 17C14.3816 17 14 17.4519 14 17.8667C14 18.4983 14.3988 19.2601 15.161 20.0984C15.715 20.7078 16.3801 21.27 17 21.7492C17.6199 21.27 18.285 20.7078 18.839 20.0984C19.6012 19.2601 20 18.4983 20 17.8667C20 17.4519 19.6184 17 19 17C18.3816 17 18 17.4519 18 17.8667C18 18.419 17.5523 18.8667 17 18.8667C16.4477 18.8667 16 18.419 16 17.8667C16 17.4519 15.6184 17 15 17ZM17 15.73C16.4594 15.271 15.7499 15 15 15C13.4092 15 12 16.2196 12 17.8667C12 19.2681 12.8293 20.5068 13.6811 21.4438C14.5589 22.4092 15.6266 23.2328 16.4085 23.8063C16.7606 24.0646 17.2394 24.0646 17.5915 23.8063C18.3734 23.2328 19.4411 22.4092 20.3189 21.4438C21.1707 20.5068 22 19.2681 22 17.8667C22 16.2196 20.5908 15 19 15C18.2501 15 17.5406 15.271 17 15.73Z" fill="black"/>
</svg>
