<svg width="24" height="24" viewBox="0 0 24 24" fill="none" xmlns="http://www.w3.org/2000/svg">
<path fill-rule="evenodd" clip-rule="evenodd" d="M7 8C7 6.34315 8.34315 5 10 5C11.6569 5 13 6.34315 13 8C13 9.65685 11.6569 11 10 11C8.34315 11 7 9.65685 7 8ZM13.506 11.5648C14.4282 10.6577 15 9.39565 15 8C15 5.23858 12.7614 3 10 3C7.23858 3 5 5.23858 5 8C5 9.39827 5.57396 10.6625 6.49914 11.5699C3.74942 12.5366 2 14.6259 2 17C2 17.5523 2.44772 18 3 18C3.55228 18 4 17.5523 4 17C4 15.2701 5.93073 13 10 13C11.9542 13 13.4554 13.5451 14.4579 14.2992C14.8992 14.6311 15.5262 14.5425 15.8581 14.1011C16.1901 13.6598 16.1015 13.0328 15.6601 12.7008C15.0431 12.2368 14.3206 11.851 13.506 11.5648ZM17.5 15C18.0523 15 18.5 15.4477 18.5 16V18.5H21C21.5523 18.5 22 18.9477 22 19.5C22 20.0523 21.5523 20.5 21 20.5H18.5V23C18.5 23.5523 18.0523 24 17.5 24C16.9477 24 16.5 23.5523 16.5 23V20.5H14C13.4477 20.5 13 20.0523 13 19.5C13 18.9477 13.4477 18.5 14 18.5H16.5V16C16.5 15.4477 16.9477 15 17.5 15Z" fill="black"/>
</svg>
