<svg width="24" height="24" viewBox="0 0 24 24" fill="none" xmlns="http://www.w3.org/2000/svg">
<path fill-rule="evenodd" clip-rule="evenodd" d="M10 5C8.34315 5 7 6.34315 7 8C7 9.65685 8.34315 11 10 11C11.6569 11 13 9.65685 13 8C13 6.34315 11.6569 5 10 5ZM13.5057 11.5651C14.4281 10.658 15 9.3958 15 8C15 5.23858 12.7614 3 10 3C7.23858 3 5 5.23858 5 8C5 9.39827 5.57396 10.6625 6.49914 11.5699C3.74942 12.5366 2 14.6259 2 17C2 17.5523 2.44772 18 3 18C3.55228 18 4 17.5523 4 17C4 15.2701 5.93073 13 10 13C11.0813 13 12.0255 13.1672 12.8223 13.4445C13.3439 13.626 13.9138 13.3502 14.0953 12.8286C14.2738 12.3158 14.0103 11.7563 13.5057 11.5651ZM17.4873 14.7299C17.6819 14.3743 18.2241 14 19.0015 14C20.1113 14 20.61 14.6831 20.61 15.0833C20.61 15.4836 20.1113 16.1667 19.0015 16.1667C18.4492 16.1667 18.0015 16.6144 18.0015 17.1667V18C18.0015 18.5523 18.4492 19 19.0015 19C19.5394 19 19.9781 18.5753 20.0006 18.043C21.402 17.6938 22.61 16.6248 22.61 15.0833C22.61 13.1824 20.7729 12 19.0015 12C17.6395 12 16.3432 12.6541 15.7327 13.7701C15.4676 14.2546 15.6455 14.8622 16.1301 15.1273C16.6146 15.3924 17.2222 15.2145 17.4873 14.7299ZM19 22C19.6904 22 20.25 21.4404 20.25 20.75C20.25 20.0596 19.6904 19.5 19 19.5C18.3096 19.5 17.75 20.0596 17.75 20.75C17.75 21.4404 18.3096 22 19 22Z" fill="black"/>
</svg>
