<svg width="24" height="24" viewBox="0 0 24 24" fill="none" xmlns="http://www.w3.org/2000/svg">
<path fill-rule="evenodd" clip-rule="evenodd" d="M10 5C8.34315 5 7 6.34315 7 8C7 9.65685 8.34315 11 10 11C11.6569 11 13 9.65685 13 8C13 6.34315 11.6569 5 10 5ZM13.506 11.5648C14.4282 10.6578 15 9.39567 15 8C15 5.23858 12.7614 3 10 3C7.23858 3 5 5.23858 5 8C5 9.39827 5.57396 10.6625 6.49914 11.5699C3.74942 12.5366 2 14.6259 2 17C2 17.5523 2.44772 18 3 18C3.55228 18 4 17.5523 4 17C4 15.2701 5.93073 13 10 13C11.2225 13 12.2696 13.2137 13.1268 13.5586C13.6392 13.7647 14.2216 13.5164 14.4278 13.004C14.6339 12.4916 14.3856 11.9092 13.8732 11.7031C13.753 11.6547 13.6306 11.6086 13.506 11.5648ZM16 17C15.3816 17 15 17.4519 15 17.8667C15 18.4983 15.3988 19.2601 16.161 20.0984C16.715 20.7078 17.3801 21.27 18 21.7492C18.6199 21.27 19.285 20.7078 19.839 20.0984C20.6012 19.2601 21 18.4983 21 17.8667C21 17.4519 20.6184 17 20 17C19.3816 17 19 17.4519 19 17.8667C19 18.419 18.5523 18.8667 18 18.8667C17.4477 18.8667 17 18.419 17 17.8667C17 17.4519 16.6184 17 16 17ZM18 15.73C17.4594 15.271 16.7499 15 16 15C14.4092 15 13 16.2196 13 17.8667C13 19.2681 13.8293 20.5068 14.6811 21.4438C15.5589 22.4092 16.6266 23.2328 17.4085 23.8063C17.7606 24.0646 18.2394 24.0646 18.5915 23.8063C19.3734 23.2328 20.4411 22.4092 21.3189 21.4438C22.1707 20.5068 23 19.2681 23 17.8667C23 16.2196 21.5908 15 20 15C19.2501 15 18.5406 15.271 18 15.73Z" fill="black"/>
</svg>
