<svg width="24" height="24" fill="none" xmlns="http://www.w3.org/2000/svg"><path fill-rule="evenodd" clip-rule="evenodd" d="M14.294 3a2 2 0 0 1 1.885 1.33l.527 1.482H19a3 3 0 0 1 3 3V17a3 3 0 0 1-3 3H5a3 3 0 0 1-3-3V8.812a3 3 0 0 1 3-3h2.294l.527-1.482A2 2 0 0 1 9.706 3h4.588zm0 2H9.706l-.527 1.483a2 2 0 0 1-1.885 1.33H5a1 1 0 0 0-1 1V17a1 1 0 0 0 1 1h14a1 1 0 0 0 1-1V8.812a1 1 0 0 0-1-1h-2.294a2 2 0 0 1-1.885-1.33L14.294 5zM9.5 12.5a2.5 2.5 0 1 1 5 0 2.5 2.5 0 0 1-5 0zM12 8a4.5 4.5 0 1 0 0 9 4.5 4.5 0 0 0 0-9z" fill="#000"/></svg>