<svg width="24" height="24" viewBox="0 0 24 24" fill="none" xmlns="http://www.w3.org/2000/svg">
<path fill-rule="evenodd" clip-rule="evenodd" d="M3 5C3 6.30622 3.83481 7.41746 5 7.82929V16.1707C3.83481 16.5825 3 17.6938 3 19C3 20.6569 4.34315 22 6 22C7.65685 22 9 20.6569 9 19C9 17.6938 8.16519 16.5825 7 16.1707V11.3987C8.89299 14.0198 11.8676 15.7195 15.1597 15.9683C15.5625 17.15 16.682 18 18 18C19.6569 18 21 16.6569 21 15C21 13.3431 19.6569 12 18 12C16.7075 12 15.6058 12.8174 15.1839 13.9635C11.726 13.6534 8.7142 11.3899 7.47847 8.09457L7.3272 7.6912C8.31833 7.20148 9 6.18034 9 5C9 3.34315 7.65685 2 6 2C4.34315 2 3 3.34315 3 5ZM6 18C5.44772 18 5 18.4477 5 19C5 19.5523 5.44772 20 6 20C6.55228 20 7 19.5523 7 19C7 18.4477 6.55228 18 6 18ZM17 15C17 14.4477 17.4477 14 18 14C18.5523 14 19 14.4477 19 15C19 15.5523 18.5523 16 18 16C17.4477 16 17 15.5523 17 15ZM5 5C5 4.44772 5.44772 4 6 4C6.55228 4 7 4.44772 7 5C7 5.55228 6.55228 6 6 6C5.44772 6 5 5.55228 5 5Z" fill="black"/>
</svg>
