<svg width="24" height="24" viewBox="0 0 24 24" fill="none" xmlns="http://www.w3.org/2000/svg">
<path fill-rule="evenodd" clip-rule="evenodd" d="M12 10C10.8954 10 10 10.8954 10 12C10 13.1046 10.8954 14 12 14C13.1046 14 14 13.1046 14 12C14 10.8954 13.1046 10 12 10ZM15.874 11C15.4299 9.27477 13.8638 8 12 8C10.1362 8 8.57006 9.27477 8.12602 11H3C2.44772 11 2 11.4477 2 12C2 12.5523 2.44772 13 3 13H8.12602C8.57006 14.7252 10.1362 16 12 16C13.8638 16 15.4299 14.7252 15.874 13H21C21.5523 13 22 12.5523 22 12C22 11.4477 21.5523 11 21 11H15.874Z" fill="black"/>
</svg>
