<svg width="24" height="24" viewBox="0 0 24 24" fill="none" xmlns="http://www.w3.org/2000/svg">
<path fill-rule="evenodd" clip-rule="evenodd" d="M13.7071 1.29289C13.3166 0.902369 12.6834 0.902369 12.2929 1.29289L9.29289 4.29289C8.90237 4.68342 8.90237 5.31658 9.29289 5.70711L12.2929 8.70711C12.6834 9.09763 13.3166 9.09763 13.7071 8.70711C14.0976 8.31658 14.0976 7.68342 13.7071 7.29289L12.4142 6H14C16.2091 6 18 7.79086 18 10V16.1707C16.8348 16.5825 16 17.6938 16 19C16 20.6569 17.3431 22 19 22C20.6569 22 22 20.6569 22 19C22 17.6938 21.1652 16.5825 20 16.1707V10C20 6.68629 17.3137 4 14 4H12.4142L13.7071 2.70711C14.0976 2.31658 14.0976 1.68342 13.7071 1.29289ZM19 18C18.4477 18 18 18.4477 18 19C18 19.5523 18.4477 20 19 20C19.5523 20 20 19.5523 20 19C20 18.4477 19.5523 18 19 18ZM5 6C5.55228 6 6 5.55228 6 5C6 4.44772 5.55228 4 5 4C4.44772 4 4 4.44772 4 5C4 5.55228 4.44772 6 5 6ZM6 7.82929C7.16519 7.41746 8 6.30622 8 5C8 3.34315 6.65685 2 5 2C3.34315 2 2 3.34315 2 5C2 6.30622 2.83481 7.41746 4 7.82929V14C4 17.3137 6.68629 20 10 20H11.5858L10.2929 21.2929C9.90237 21.6834 9.90237 22.3166 10.2929 22.7071C10.6834 23.0976 11.3166 23.0976 11.7071 22.7071L14.7071 19.7071C15.0976 19.3166 15.0976 18.6834 14.7071 18.2929L11.7071 15.2929C11.3166 14.9024 10.6834 14.9024 10.2929 15.2929C9.90237 15.6834 9.90237 16.3166 10.2929 16.7071L11.5858 18H10C7.79086 18 6 16.2091 6 14V7.82929Z" fill="black"/>
</svg>
