<svg width="24" height="24" viewBox="0 0 24 24" fill="none" xmlns="http://www.w3.org/2000/svg">
<path fill-rule="evenodd" clip-rule="evenodd" d="M5 7.82929C3.83481 7.41746 3 6.30622 3 5C3 3.34315 4.34315 2 6 2C7.65685 2 9 3.34315 9 5C9 6.18034 8.31833 7.20148 7.3272 7.6912L7.47847 8.09457C8.7142 11.3899 11.726 13.6534 15.1839 13.9635C15.6058 12.8174 16.7075 12 18 12C19.6569 12 21 13.3431 21 15C21 16.6569 19.6569 18 18 18C16.682 18 15.5625 17.15 15.1597 15.9683C11.8676 15.7195 8.89299 14.0198 7 11.3987V16.1707C8.16519 16.5825 9 17.6938 9 19C9 20.6569 7.65685 22 6 22C4.34315 22 3 20.6569 3 19C3 17.6938 3.83481 16.5825 5 16.1707V7.82929ZM5 5C5 4.44772 5.44772 4 6 4C6.55228 4 7 4.44772 7 5C7 5.54889 6.55777 5.99449 6.01018 5.99995C6.00679 5.99998 6.0034 6 6 6C5.99681 6 5.99362 5.99998 5.99044 5.99996M6 18C5.44772 18 5 18.4477 5 19C5 19.5523 5.44772 20 6 20C6.55228 20 7 19.5523 7 19C7 18.4477 6.55228 18 6 18ZM5 5C5 5.54909 5.44256 5.99482 5.99044 5.99996ZM18 14C17.4477 14 17 14.4477 17 15C17 15.5523 17.4477 16 18 16C18.5523 16 19 15.5523 19 15C19 14.4477 18.5523 14 18 14Z" fill="black"/>
</svg>
