<svg width="24" height="24" viewBox="0 0 24 24" fill="none" xmlns="http://www.w3.org/2000/svg">
<path fill-rule="evenodd" clip-rule="evenodd" d="M13 4C13 3.44772 12.5523 3 12 3C11.4477 3 11 3.44772 11 4V8H7C6.44772 8 6 8.44772 6 9C6 9.55228 6.44772 10 7 10H11V14C11 14.5523 11.4477 15 12 15C12.5523 15 13 14.5523 13 14V10H17C17.5523 10 18 9.55228 18 9C18 8.44772 17.5523 8 17 8H13V4ZM7 19C6.44772 19 6 19.4477 6 20C6 20.5523 6.44772 21 7 21H17C17.5523 21 18 20.5523 18 20C18 19.4477 17.5523 19 17 19H7Z" fill="black"/>
</svg>
