<svg width="24" height="24" fill="none" xmlns="http://www.w3.org/2000/svg"><path fill-rule="evenodd" clip-rule="evenodd" d="M1.858 3.598A1.98 1.98 0 013.806 2h10.388a1.98 1.98 0 011.948 1.598c.148.76.378 2.02.563 3.402h2.948a1.97 1.97 0 011.96 1.703c.076.563.174 1.368.252 2.297H22a1 1 0 110 2h-.017c.011.33.017.665.017 1 0 .97-.159 2.018-.38 3.007A1 1 0 0121.5 19h-.415a30.61 30.61 0 01-.363 1.094C20.304 21.28 19.18 22 17.982 22H5.46a2.933 2.933 0 01-2.837-2.123 63.457 63.457 0 01-.5-1.877H2a1 1 0 01-.329-1.945c-.353-1.669-.644-3.488-.67-5.037-.012-.628.019-1.316.075-2.018H1a1 1 0 010-2h.295a59.66 59.66 0 01.563-3.402zM3.083 9A19.58 19.58 0 003 10.982c.026 1.504.337 3.341.705 5.018h10.59c.295-1.344.552-2.787.657-4.08.026-.327.043-.64.048-.938.01-.606-.023-1.285-.083-1.982H3.083zm10.216-2H3.313c.167-1.191.365-2.284.504-3h10.366c.139.716.337 1.809.504 3h-1.388zm3.625 2c.056.695.086 1.377.076 2h2.857a44.996 44.996 0 00-.221-2h-2.712zm3.058 4h-3.13c-.164 1.34-.442 2.744-.733 4h3.45c.247-1.004.431-2.067.431-3 0-.334-.006-.67-.018-1zm-.999 6H15.62c-.098.369-.192.705-.276 1h2.64c.408 0 .736-.24.853-.57.048-.137.097-.28.147-.43zm-5.723 1l.037-.128c.14-.472.322-1.12.518-1.872h-9.63c.128.492.251.943.362 1.332.11.39.472.668.912.668h7.8z" fill="#000"/></svg>