<svg width="24" height="24" fill="none" xmlns="http://www.w3.org/2000/svg"><path fill-rule="evenodd" clip-rule="evenodd" d="M1 3a1 1 0 011-1h8a1 1 0 110 2H7v1.132A8.545 8.545 0 018.5 5c2.098 0 4.018.76 5.5 2.02V6a1 1 0 011-1h8a1 1 0 011 1v6a3 3 0 01-3 3h-1v3.465l2.555 1.703a1 1 0 01-1.11 1.664L19 20.202l-2.445 1.63a1 1 0 01-1.11-1.664L18 18.465V15h-1a3.19 3.19 0 01-.131-.003A8.5 8.5 0 115 5.752V4H2a1 1 0 01-1-1zm13.963 11.202A2.993 2.993 0 0114 12v-1.966A6.495 6.495 0 008.5 7c-.761 0-1.49.13-2.167.37a6.5 6.5 0 108.63 6.832zM16 10h6v2a1 1 0 01-1 1h-4a.999.999 0 01-1-1v-2zm6-2h-6V7h6v1z" fill="#000"/></svg>