<svg width="24" height="24" fill="none" xmlns="http://www.w3.org/2000/svg"><path fill-rule="evenodd" clip-rule="evenodd" d="M23.447 2.394a1 1 0 0 0-.805-1.828l-2.75 1.053c-.284.109-.925.38-1.2 1.065a2.068 2.068 0 0 0-.079 1.31l-2.879 2.69a3.754 3.754 0 0 0-.294-.85c-.668-1.375-2.264-1.957-3.719-1.787-1.529.178-3.062 1.168-3.867 3.092l-.024.063c-.487 1.426-1.6 2.197-3.179 2.438-2.772.422-4.772 2.933-4.545 5.726a9.348 9.348 0 0 0 8.586 8.585c2.792.227 5.303-1.773 5.725-4.545.131-.86.369-1.634.74-2.195.35-.526.81-.86 1.488-.937 1.616-.184 2.62-1.158 2.869-2.35.224-1.073-.206-2.38-1.38-2.872-1.061-.447-1.94-.065-2.442.154l-.085.037c-.513.22-.666.248-.936.112-.273-.138-.357-.306-.376-.392-.015-.067-.012-.167.101-.29l5.506-5.146a1.661 1.661 0 0 0 1.874-.332c.442-.441.75-.998.888-1.606l.206-.906.577-.289zM12.99 9.25a1.067 1.067 0 0 0-.052.054c-.542.583-.759 1.345-.595 2.09.167.758.702 1.38 1.429 1.747 1.14.575 2.068.179 2.624-.06.584-.25.725-.287.965-.185.08.033.275.24.196.618-.054.26-.285.676-1.137.773-1.352.153-2.303.878-2.927 1.818-.601.904-.9 2.003-1.052 3-.265 1.741-1.848 2.994-3.586 2.852A7.348 7.348 0 0 1 2.1 15.203c-.142-1.738 1.11-3.32 2.852-3.586 2.126-.324 3.97-1.468 4.759-3.734.53-1.243 1.443-1.757 2.241-1.85.88-.102 1.498.283 1.689.675.362.745.155 1.736-.637 2.527l-.015.015zm-3.782 3.543a1 1 0 1 0-1.414 1.414l1.5 1.5a1 1 0 0 0 1.414-1.414l-1.5-1.5zm.5 4.5l-1.5-1.5a1 1 0 1 0-1.414 1.414l1.5 1.5a1 1 0 0 0 1.414-1.414z" fill="#000"/></svg>