<svg width="24" height="24" fill="none" xmlns="http://www.w3.org/2000/svg"><path fill-rule="evenodd" clip-rule="evenodd" d="M23.3 3.046A1 1 0 0 1 24 4v16a1 1 0 0 1-1.82.573l-.137-.196a24.001 24.001 0 0 0-6.402-6.242A5 5 0 0 1 11 21H6.999a5 5 0 0 1-4-8H2a1 1 0 0 1-2 0v-2a1 1 0 1 1 2 0h2V9a1 1 0 0 1 2 0v2h2V9a1 1 0 0 1 2 0v2h2V9a1 1 0 1 1 2 0v1.86a24 24 0 0 0 8.043-7.237l.138-.197a1 1 0 0 1 1.12-.38zM16.014 12A25.998 25.998 0 0 1 22 17.078V6.922A26.001 26.001 0 0 1 16.013 12zM7 13a3 3 0 1 0 0 6h4a3 3 0 0 0 0-6H7z" fill="#000"/></svg>