<svg width="24" height="24" fill="none" xmlns="http://www.w3.org/2000/svg"><path fill-rule="evenodd" clip-rule="evenodd" d="M23.3 3.046A1 1 0 0124 4v16a1 1 0 01-1.82.573l-.137-.196a24.001 24.001 0 00-6.402-6.242A5 5 0 0111 21H6.999a5 5 0 01-4-8H2a1 1 0 01-2 0v-2a1 1 0 112 0h2V9a1 1 0 012 0v2h2V9a1 1 0 012 0v2h2V9a1 1 0 112 0v1.86a24 24 0 008.043-7.237l.138-.197a1 1 0 011.12-.38zM16.014 12A25.998 25.998 0 0122 17.078V6.922A26.001 26.001 0 0116.013 12zM7 13a3 3 0 100 6h4a3 3 0 000-6H7z" fill="#000"/></svg>