<svg width="24" height="25" fill="none" xmlns="http://www.w3.org/2000/svg"><path fill-rule="evenodd" clip-rule="evenodd" d="M15 1a1 1 0 1 0-2 0v2a1 1 0 1 0 2 0V1zm-4.293.293a1 1 0 0 0-1.414 1.414l1 1a1 1 0 1 0 1.414-1.414l-1-1zm8 1.414a1 1 0 0 0-1.414-1.414l-1 1a1 1 0 1 0 1.414 1.414l1-1zM9.81 5.397c-.459-.46-1.07-.846-1.749-.981-.713-.143-1.513-.001-2.14.627-.194.193-.34.402-.448.62a2.992 2.992 0 0 0-.594-.187c-.713-.143-1.513 0-2.14.627-.628.628-.77 1.427-.627 2.14.04.206.104.405.186.595a2.324 2.324 0 0 0-.62.447c-.628.628-.77 1.427-.627 2.14.136.68.522 1.29.98 1.75l.037.036a2.387 2.387 0 0 0-.39.317c-.628.628-.77 1.427-.627 2.14.136.68.522 1.29.98 1.749l4.95 4.95c2.018 2.018 5.177 2.117 7.879.7 2.085.47 4.399-.047 6.347-1.996C22.932 19.345 24 16.624 24 14.364c0-2.354-1.105-4.352-2.986-6.239l-.586-.6-.008-.008c-.459-.458-1.07-.844-1.749-.98-.713-.143-1.513-.001-2.14.627-.125.125-.231.256-.32.392l-.038-.039h-.002c-.458-.459-1.069-.845-1.747-.98-.713-.143-1.513-.001-2.14.627-.125.124-.23.255-.317.39L9.809 5.396zm1.414 5.656L7.687 7.517c-.248-.248-.392-.52-.433-.726-.034-.17 0-.255.08-.334.079-.08.164-.114.334-.08.205.04.478.185.726.433l4.242 4.242.001.001 2.121 2.121a1 1 0 0 0 1.415-1.414L14.05 9.64c-.249-.25-.392-.522-.433-.727-.034-.17 0-.255.08-.334.079-.08.164-.114.334-.08.205.041.478.185.726.434l.003.002 2.11 2.097.709.722.007.007c.73.73 1.018 2.009.699 3.605-.315 1.57-1.19 3.25-2.467 4.527a7.949 7.949 0 0 1-1.601 1.245c-2.244 1.313-4.54 1.098-5.824-.184l-4.95-4.95c-.248-.249-.392-.521-.433-.727-.034-.17 0-.255.08-.334.08-.08.164-.114.334-.08.206.041.478.185.727.434l2.121 2.12a1 1 0 1 0 1.414-1.413L5.566 13.88l-2.121-2.12c-.249-.25-.393-.522-.434-.727-.034-.17 0-.255.08-.335.08-.079.164-.114.334-.08.206.041.478.185.727.434l3.535 3.535a1 1 0 0 0 1.415-1.414L5.566 9.64l-1.06-1.06c-.25-.25-.393-.522-.434-.727-.034-.17 0-.255.08-.335.079-.079.164-.114.334-.08.205.041.478.185.726.434l1.061 1.06 3.536 3.536a1 1 0 0 0 1.414-1.414zm8.569 8.604c-.752.752-1.546 1.202-2.334 1.418 1.43-1.52 2.415-3.45 2.789-5.318.387-1.938.145-4.017-1.242-5.408l-.71-.723-.007-.007c-.25-.25-.39-.517-.428-.713-.031-.16 0-.243.085-.328.079-.08.164-.114.334-.08.204.04.475.184.723.43l.585.599.007.007C21.256 11.2 22 12.72 22 14.364c0 1.74-.865 3.95-2.208 5.293z" fill="#000"/></svg>