<svg width="24" height="24" viewBox="0 0 24 24" fill="none" xmlns="http://www.w3.org/2000/svg">
<path fill-rule="evenodd" clip-rule="evenodd" d="M5 4C3.89543 4 3 4.89543 3 6C3 6.69403 3.35268 7.30611 3.89324 7.66625C4.3476 7.96895 4.4752 8.58012 4.17992 9.03933C3.42616 10.2115 3 11.5627 3 13C3 17.3218 6.92772 21 12 21C17.0723 21 21 17.3218 21 13C21 11.5627 20.5738 10.2115 19.8201 9.03933C19.5248 8.58012 19.6524 7.96895 20.1068 7.66625C20.6473 7.30611 21 6.69403 21 6C21 4.89543 20.1046 4 19 4C18.1704 4 17.4565 4.50536 17.1538 5.22894C17.0513 5.47395 16.8555 5.66812 16.6097 5.76863C16.3638 5.86913 16.0881 5.86771 15.8433 5.76468C14.6808 5.27537 13.3787 5 12 5C10.6213 5 9.31924 5.27537 8.15668 5.76468C7.9119 5.86771 7.63618 5.86913 7.39034 5.76863C7.1445 5.66812 6.94874 5.47395 6.84624 5.22894C6.54351 4.50536 5.82961 4 5 4ZM1 6C1 3.79086 2.79086 2 5 2C6.31415 2 7.47886 2.63358 8.20753 3.61001C9.39185 3.21484 10.6698 3 12 3C13.3302 3 14.6081 3.21484 15.7925 3.61001C16.5211 2.63358 17.6859 2 19 2C21.2091 2 23 3.79086 23 6C23 7.0468 22.5974 7.99934 21.9406 8.71147C22.6182 10.0084 23 11.4629 23 13C23 18.6193 17.9734 23 12 23C6.02658 23 1 18.6193 1 13C1 11.4629 1.38175 10.0084 2.05939 8.71147C1.40258 7.99934 1 7.0468 1 6ZM12 13C9.63864 13 7.69292 13.9201 6.71358 15.1294C6.366 15.5585 5.7363 15.6247 5.30711 15.2771C4.87792 14.9295 4.81176 14.2998 5.15934 13.8706C5.7127 13.1874 6.43369 12.6056 7.27165 12.1482C7.10048 11.8232 7 11.4273 7 11C7 9.89543 7.67157 9 8.5 9C9.32843 9 10 9.89543 10 11C10 11.0636 9.99777 11.1265 9.99341 11.1886C10.6392 11.0648 11.3124 11 12 11C12.6876 11 13.3607 11.0648 14.0066 11.1886C14.0022 11.1265 14 11.0636 14 11C14 9.89543 14.6716 9 15.5 9C16.3284 9 17 9.89543 17 11C17 11.4273 16.8995 11.8232 16.7283 12.1482C17.5663 12.6056 18.2873 13.1874 18.8406 13.8706C19.1882 14.2998 19.1221 14.9295 18.6929 15.2771C18.2637 15.6247 17.634 15.5585 17.2864 15.1294C16.3071 13.9201 14.3613 13 12 13ZM11 15C10.5955 15 10.2309 15.2436 10.0761 15.6173C9.92134 15.991 10.0069 16.4211 10.2929 16.7071L11.2929 17.7071C11.6834 18.0976 12.3166 18.0976 12.7071 17.7071L13.7071 16.7071C13.9931 16.4211 14.0787 15.991 13.9239 15.6173C13.7691 15.2436 13.4045 15 13 15H11Z" fill="black"/>
</svg>
