<svg width="24" height="24" viewBox="0 0 24 24" fill="none" xmlns="http://www.w3.org/2000/svg">
<path fill-rule="evenodd" clip-rule="evenodd" d="M5 4C3.89543 4 3 4.89543 3 6C3 6.69403 3.35268 7.30611 3.89324 7.66625C4.3476 7.96895 4.4752 8.58012 4.17992 9.03933C3.42616 10.2115 3 11.5627 3 13C3 17.3218 6.92772 21 12 21C17.0723 21 21 17.3218 21 13C21 11.5627 20.5738 10.2115 19.8201 9.03933C19.5248 8.58012 19.6524 7.96895 20.1068 7.66625C20.6473 7.30611 21 6.69403 21 6C21 4.89543 20.1046 4 19 4C18.1704 4 17.4565 4.50536 17.1538 5.22894C17.0513 5.47395 16.8555 5.66812 16.6097 5.76863C16.3638 5.86913 16.0881 5.86771 15.8433 5.76468C14.6808 5.27537 13.3787 5 12 5C10.6213 5 9.31924 5.27537 8.15669 5.76468C7.9119 5.86771 7.63618 5.86913 7.39034 5.76863C7.1445 5.66812 6.94874 5.47395 6.84624 5.22894C6.54351 4.50536 5.82961 4 5 4ZM1 6C1 3.79086 2.79086 2 5 2C6.31415 2 7.47886 2.63358 8.20753 3.61001C9.39185 3.21484 10.6698 3 12 3C13.3302 3 14.6081 3.21484 15.7925 3.61001C16.5211 2.63358 17.6859 2 19 2C21.2091 2 23 3.79086 23 6C23 7.0468 22.5974 7.99934 21.9406 8.71147C22.6182 10.0084 23 11.4629 23 13C23 18.6193 17.9734 23 12 23C6.02658 23 1 18.6193 1 13C1 11.4629 1.38175 10.0084 2.05939 8.71147C1.40258 7.99934 1 7.0468 1 6ZM12 13C9.74114 13 7.82814 14.0631 6.83161 15.5554C6.5249 16.0146 5.90393 16.1383 5.44464 15.8316C4.98536 15.5249 4.86167 14.9039 5.16839 14.4446C6.56717 12.3501 9.13118 11 12 11C14.8688 11 17.4328 12.3501 18.8316 14.4446C19.1383 14.9039 19.0146 15.5249 18.5554 15.8316C18.0961 16.1383 17.4751 16.0146 17.1684 15.5554C16.1719 14.0631 14.2589 13 12 13ZM11 15C10.5955 15 10.2309 15.2436 10.0761 15.6173C9.92134 15.991 10.0069 16.4211 10.2929 16.7071L11.2929 17.7071C11.6834 18.0976 12.3166 18.0976 12.7071 17.7071L13.7071 16.7071C13.9931 16.4211 14.0787 15.991 13.9239 15.6173C13.7691 15.2436 13.4045 15 13 15H11ZM9.5 10.1213C9.5 10.9498 8.82843 11.6213 8 11.6213C7.17157 11.6213 6.5 10.9498 6.5 10.1213C6.5 9.29291 7.17157 8.62134 8 8.62134C8.82843 8.62134 9.5 9.29291 9.5 10.1213ZM15.8787 11.5C16.7071 11.5 17.3787 10.8284 17.3787 10C17.3787 9.17157 16.7071 8.5 15.8787 8.5C15.0502 8.5 14.3787 9.17157 14.3787 10C14.3787 10.8284 15.0502 11.5 15.8787 11.5Z" fill="black"/>
</svg>
