<svg width="24" height="24" viewBox="0 0 24 24" fill="none" xmlns="http://www.w3.org/2000/svg">
<path fill-rule="evenodd" clip-rule="evenodd" d="M14 3.50001C14 2.94772 13.5522 2.5 13 2.5C12.4477 2.5 12 2.94771 12 3.49999L11.9999 4.73672C11.3491 4.72955 10.7026 4.7996 10.0748 4.94878C8.53606 3.97782 6.48289 4.10283 5.1427 5.44303C3.8025 6.78323 3.67748 8.8364 4.64844 10.3752C4.52223 10.9063 4.45266 11.4508 4.43857 12H3C2.44772 12 2 12.4477 2 13C2 13.5523 2.44772 14 3 14H4.62935C4.88837 15.1967 5.40548 16.3658 6.16878 17.4169L5.29283 18.2929C4.90231 18.6834 4.90231 19.3166 5.29283 19.7071C5.68336 20.0976 6.31652 20.0976 6.70705 19.7071L7.50931 18.9048C8.54892 19.8402 9.75154 20.5075 11.006 20.8893C11.002 20.9257 10.9999 20.9626 10.9999 21V22C10.9999 22.5523 11.4477 23 11.9999 23C12.5522 23 12.9999 22.5523 12.9999 22V21.2517C15.1272 21.3826 17.237 20.6979 18.8173 19.1176C20.4719 17.463 21.1447 15.2278 20.9274 13H21.4999C22.0522 13 22.4999 12.5523 22.4999 12C22.4999 11.4477 22.0522 11 21.4999 11H20.4897C20.0963 9.85647 19.4635 8.76433 18.6045 7.80965L19.457 6.95711C19.8476 6.56658 19.8476 5.93342 19.457 5.54289C19.0665 5.15237 18.4334 5.15237 18.0428 5.54289L17.1166 6.46911C16.1536 5.76979 15.0915 5.27711 13.9999 5.00024L14 3.50001ZM6.69378 10.4734C6.94474 9.66336 7.37897 8.91998 7.99931 8.29964C8.61965 7.6793 9.36303 7.24508 10.173 6.99412C12.3022 6.33443 14.9249 6.93972 16.8439 8.85877C19.5153 11.5301 19.6205 15.486 17.4031 17.7034C15.1857 19.9208 11.2297 19.8156 8.55843 17.1443C6.63939 15.2252 6.03409 12.6026 6.69378 10.4734ZM10.9393 12.8535C11.7203 13.6346 11.7203 14.9009 10.9393 15.682C10.1582 16.463 8.89192 16.463 8.11087 15.682C7.32982 14.9009 7.32982 13.6346 8.11087 12.8535C8.89192 12.0725 10.1582 12.0725 10.9393 12.8535ZM15.1819 11.4393C15.963 10.6583 15.963 9.39195 15.1819 8.6109C14.4009 7.82985 13.1345 7.82985 12.3535 8.6109C11.5724 9.39195 11.5724 10.6583 12.3535 11.4393C13.1345 12.2204 14.4009 12.2204 15.1819 11.4393ZM14.4748 15.682C15.0606 16.2678 15.0606 17.2175 14.4748 17.8033C13.889 18.3891 12.9393 18.3891 12.3535 17.8033C11.7677 17.2175 11.7677 16.2678 12.3535 15.682C12.9393 15.0962 13.889 15.0962 14.4748 15.682ZM17.3033 14.9749C17.889 14.3891 17.889 13.4393 17.3033 12.8536C16.7175 12.2678 15.7677 12.2678 15.1819 12.8536C14.5962 13.4393 14.5962 14.3891 15.1819 14.9749C15.7677 15.5607 16.7175 15.5607 17.3033 14.9749Z" fill="black"/>
</svg>
