<svg width="24" height="24" viewBox="0 0 24 24" fill="none" xmlns="http://www.w3.org/2000/svg">
<path fill-rule="evenodd" clip-rule="evenodd" d="M14 2.50001C14 1.94772 13.5522 1.5 13 1.5C12.4477 1.5 12 1.94771 12 2.49999L11.9999 3.73672C11.3491 3.72955 10.7026 3.7996 10.0748 3.94878C8.53606 2.97782 6.48289 3.10283 5.1427 4.44303C3.8025 5.78323 3.67748 7.8364 4.64844 9.37518C4.52223 9.90632 4.45266 10.4508 4.43857 11H3C2.44772 11 2 11.4477 2 12C2 12.5523 2.44772 13 3 13H4.62935C4.88837 14.1967 5.40548 15.3658 6.16878 16.4169L5.29283 17.2929C4.90231 17.6834 4.90231 18.3166 5.29283 18.7071C5.68336 19.0976 6.31652 19.0976 6.70705 18.7071L7.50931 17.9048C8.54892 18.8402 9.75154 19.5075 11.006 19.8893C11.002 19.9257 10.9999 19.9626 10.9999 20V21C10.9999 21.5523 11.4477 22 11.9999 22C12.5522 22 12.9999 21.5523 12.9999 21V20.2517C15.1272 20.3826 17.237 19.6979 18.8173 18.1176C20.4719 16.463 21.1447 14.2278 20.9274 12H21.4999C22.0522 12 22.4999 11.5523 22.4999 11C22.4999 10.4477 22.0522 10 21.4999 10H20.4897C20.0963 8.85647 19.4635 7.76433 18.6045 6.80965L19.457 5.95711C19.8476 5.56658 19.8476 4.93342 19.457 4.54289C19.0665 4.15237 18.4334 4.15237 18.0428 4.54289L17.1166 5.46911C16.1536 4.76979 15.0915 4.27711 13.9999 4.00024L14 2.50001ZM6.69378 9.47337C6.94474 8.66336 7.37897 7.91998 7.99931 7.29964C8.61965 6.6793 9.36303 6.24508 10.173 5.99412C12.3022 5.33443 14.9249 5.93972 16.8439 7.85877C19.5153 10.5301 19.6205 14.486 17.4031 16.7034C15.1857 18.9208 11.2297 18.8156 8.55843 16.1443C6.63939 14.2252 6.03409 11.6026 6.69378 9.47337ZM10.9393 11.8535C11.7203 12.6346 11.7203 13.9009 10.9393 14.682C10.1582 15.463 8.89192 15.463 8.11087 14.682C7.32982 13.9009 7.32982 12.6346 8.11087 11.8535C8.89192 11.0725 10.1582 11.0725 10.9393 11.8535ZM15.1819 10.4393C15.963 9.65828 15.963 8.39195 15.1819 7.6109C14.4009 6.82985 13.1345 6.82985 12.3535 7.6109C11.5724 8.39195 11.5724 9.65828 12.3535 10.4393C13.1345 11.2204 14.4009 11.2204 15.1819 10.4393ZM14.4748 14.682C15.0606 15.2678 15.0606 16.2175 14.4748 16.8033C13.889 17.3891 12.9393 17.3891 12.3535 16.8033C11.7677 16.2175 11.7677 15.2678 12.3535 14.682C12.9393 14.0962 13.889 14.0962 14.4748 14.682ZM17.3033 13.9749C17.889 13.3891 17.889 12.4393 17.3033 11.8536C16.7175 11.2678 15.7677 11.2678 15.1819 11.8536C14.5962 12.4393 14.5962 13.3891 15.1819 13.9749C15.7677 14.5607 16.7175 14.5607 17.3033 13.9749Z" fill="black"/>
</svg>
