<svg width="24" height="24" viewBox="0 0 24 24" fill="none" xmlns="http://www.w3.org/2000/svg">
<path fill-rule="evenodd" clip-rule="evenodd" d="M3.03675 2.49516C3.262 2.10996 3.7152 1.92062 4.14754 2.03109C5.97557 2.49817 7.55118 3.2517 9.03129 4.3653C9.96974 4.05942 10.9671 3.8947 12 3.8947C13.0328 3.8947 14.0302 4.05942 14.9687 4.3653C16.4488 3.2517 18.0244 2.49817 19.8524 2.03109C20.2848 1.92062 20.738 2.10996 20.9632 2.49516C21.6136 3.60735 21.682 4.84507 21.5423 5.95618C21.4242 6.89524 21.1479 7.81637 20.8761 8.60644C21.5951 10.0574 22 11.7048 22 13.4473C22 14.0796 21.9465 14.6779 21.8433 15.242L22.7737 15.0259C23.3117 14.9009 23.8491 15.2357 23.974 15.7737C24.099 16.3117 23.7642 16.8491 23.2262 16.974L21.0977 17.4685C20.7875 18.072 20.4027 18.6166 19.9517 19.1014L20.6281 19.7012C21.0414 20.0677 21.0793 20.6997 20.7129 21.1129C20.3465 21.5261 19.7144 21.5641 19.3012 21.1976L18.3886 20.3884C16.6081 21.5099 14.358 22 12 22C9.64192 22 7.39187 21.5099 5.61135 20.3884L4.69872 21.1977C4.2855 21.5641 3.65348 21.5261 3.28705 21.1129C2.92063 20.6997 2.95856 20.0677 3.37179 19.7012L4.04822 19.1014C3.59721 18.6166 3.21244 18.072 2.90229 17.4685L0.773707 16.974C0.235747 16.8491 -0.0990517 16.3117 0.0259144 15.7737C0.150881 15.2357 0.688289 14.9009 1.22625 15.0259L2.15669 15.242C2.05349 14.6779 1.99998 14.0796 1.99998 13.4473C1.99998 11.7048 2.40488 10.0574 3.12385 8.60644C2.85211 7.81637 2.57578 6.89524 2.45771 5.95618C2.318 4.84507 2.38635 3.60735 3.03675 2.49516ZM19.6556 15.7502L16.3923 16.5082C16.028 16.5929 15.7414 16.8737 15.6494 17.2363C15.5573 17.5988 15.6753 17.9824 15.9551 18.2305L16.8095 18.9881C15.5088 19.6568 13.8601 20 12 20C10.1399 20 8.49112 19.6568 7.19043 18.9881L8.04479 18.2305C8.32463 17.9824 8.44261 17.5988 8.35058 17.2363C8.25855 16.8738 7.97191 16.5929 7.60759 16.5083L4.34436 15.7502C4.12161 15.0798 3.99998 14.3155 3.99998 13.4473C3.99998 11.8822 4.39737 10.4207 5.08744 9.16612C5.22557 8.915 5.24931 8.61669 5.15264 8.34688C4.84532 7.48912 4.55212 6.58184 4.44208 5.70667C4.37247 5.15308 4.3816 4.65327 4.48556 4.21124C5.85937 4.66259 7.05992 5.32724 8.21953 6.26906C8.49981 6.49669 8.88102 6.55556 9.21691 6.42307C10.0831 6.08142 11.0202 5.8947 12 5.8947C12.9798 5.8947 13.9169 6.08142 14.7831 6.42307C15.1189 6.55556 15.5002 6.49669 15.7804 6.26906C16.94 5.32724 18.1406 4.66259 19.5144 4.21124C19.6184 4.65327 19.6275 5.15308 19.5579 5.70667C19.4478 6.58184 19.1546 7.48912 18.8473 8.34688C18.7506 8.61669 18.7744 8.915 18.9125 9.16612C19.6026 10.4207 20 11.8822 20 13.4473C20 14.3155 19.8784 15.0798 19.6556 15.7502ZM16 13.5C16.8284 13.5 17.5 12.8284 17.5 12C17.5 11.1715 16.8284 10.5 16 10.5C15.1716 10.5 14.5 11.1715 14.5 12C14.5 12.8284 15.1716 13.5 16 13.5ZM8.12132 13.6213C8.94974 13.6213 9.62132 12.9497 9.62132 12.1213C9.62132 11.2928 8.94974 10.6213 8.12132 10.6213C7.29289 10.6213 6.62132 11.2928 6.62132 12.1213C6.62132 12.9497 7.29289 13.6213 8.12132 13.6213ZM11 15C10.5955 15 10.2309 15.2436 10.0761 15.6173C9.92132 15.991 10.0069 16.4211 10.2929 16.7071L11.2929 17.7071C11.6834 18.0976 12.3166 18.0976 12.7071 17.7071L13.7071 16.7071C13.9931 16.4211 14.0786 15.991 13.9239 15.6173C13.7691 15.2436 13.4044 15 13 15H11Z" fill="black"/>
</svg>
