<svg width="24" height="24" viewBox="0 0 24 24" fill="none" xmlns="http://www.w3.org/2000/svg">
<path fill-rule="evenodd" clip-rule="evenodd" d="M12.4472 2.10556L12 1.88196L11.5528 2.10556C10.9323 2.4158 9.60314 3.37773 8.45116 4.42831C7.86534 4.96256 7.28494 5.55577 6.84273 6.14109C6.43789 6.67696 6 7.39476 6 8.14285C6 9.09995 6.49007 9.88289 7.17504 10.4735C6.7445 10.952 6.34282 11.4482 6.00714 11.934C5.73244 12.3316 5.48932 12.7403 5.31179 13.1409C5.13897 13.531 5 13.976 5 14.4286C5 15.908 6.00164 17.0726 7.24588 17.8132C8.2742 18.4253 9.57842 18.8263 11 18.9551V21C11 21.5523 11.4477 22 12 22C12.5523 22 13 21.5523 13 21V18.9551C14.4216 18.8263 15.7258 18.4253 16.7541 17.8132C17.9984 17.0726 19 15.908 19 14.4286C19 13.976 18.861 13.531 18.6882 13.1409C18.5107 12.7403 18.2676 12.3316 17.9929 11.934C17.6572 11.4482 17.2555 10.952 16.825 10.4735C17.5099 9.88289 18 9.09995 18 8.14285C18 7.39476 17.5621 6.67696 17.1573 6.14109C16.7151 5.55577 16.1347 4.96256 15.5488 4.42831C14.3969 3.37773 13.0677 2.4158 12.4472 2.10556ZM12 17C13.5082 17 14.825 16.634 15.7312 16.0947C16.6585 15.5427 17 14.9216 17 14.4286C17 14.3669 16.9759 14.2133 16.8597 13.9511C16.7482 13.6995 16.5764 13.4023 16.3475 13.071C15.9962 12.5626 15.5401 12.0166 15.0401 11.4884C14.1396 11.8185 13.0959 12 12 12C10.9041 12 9.86039 11.8185 8.95988 11.4884C8.4599 12.0166 8.00383 12.5626 7.65255 13.071C7.42362 13.4023 7.25183 13.6995 7.14033 13.9511C7.02415 14.2133 7 14.3669 7 14.4286C7 14.9216 7.3415 15.5427 8.26884 16.0947C9.17502 16.634 10.4918 17 12 17ZM8.00007 8.1425C8.00072 8.13587 8.00774 8.06531 8.07811 7.91627C8.15094 7.762 8.26928 7.5707 8.43852 7.34669C8.77756 6.89792 9.25966 6.39778 9.79884 5.90607C10.6084 5.16774 11.4576 4.52772 12 4.16637C12.5424 4.52772 13.3916 5.16774 14.2012 5.90607C14.7403 6.39778 15.2224 6.89792 15.5615 7.34669C15.7307 7.5707 15.8491 7.762 15.9219 7.91627C15.9923 8.06531 15.9993 8.13587 15.9999 8.1425C16 8.14304 16 8.14316 16 8.14285C16 8.44371 15.7475 8.95125 14.8316 9.40552C14.1112 9.76284 13.1216 9.99999 12 9.99999C10.8784 9.99999 9.88879 9.76284 9.16839 9.40552C8.25253 8.95125 8 8.44371 8 8.14285C8 8.14316 8.00001 8.14304 8.00007 8.1425Z" fill="black"/>
</svg>
