<svg width="24" height="24" viewBox="0 0 24 24" fill="none" xmlns="http://www.w3.org/2000/svg">
<path fill-rule="evenodd" clip-rule="evenodd" d="M12 1C9.76206 1 8.10903 2.64686 7.77234 4.59886C5.92571 3.92145 3.68715 4.55717 2.57649 6.50459C1.47133 8.44236 2.0418 10.7251 3.55356 12C2.0418 13.275 1.47133 15.5576 2.57649 17.4954C3.68716 19.4428 5.92571 20.0786 7.77235 19.4012C8.10904 21.3531 9.76206 23 12 23C14.238 23 15.891 21.3532 16.2277 19.4012C18.0744 20.0786 20.3129 19.4428 21.4236 17.4954C22.5287 15.5577 21.9582 13.275 20.4465 12C21.9582 10.7251 22.5287 8.44236 21.4236 6.50459C20.3129 4.55718 18.0744 3.92146 16.2278 4.59884C15.8911 2.64684 14.238 1 12 1ZM9.6308 7.86271L9.64721 7.85311C10.1259 7.57979 10.2933 6.97038 10.0209 6.49082C9.12947 4.92147 10.2607 3 12 3C13.7394 3 14.8706 4.92147 13.9792 6.49082C13.707 6.97017 13.874 7.57925 14.3522 7.85275L14.3693 7.8627C14.8485 8.13716 15.4595 7.97112 15.734 7.49186C16.6168 5.95015 18.806 5.95205 19.6862 7.49542C20.5804 9.06314 19.4526 10.9867 17.7131 10.9898C17.1608 10.9908 16.7139 11.4393 16.7149 11.9916L16.7149 12.0001L16.7149 12.0084C16.7139 12.5607 17.1608 13.0092 17.7131 13.0102C19.4526 13.0133 20.5804 14.9369 19.6862 16.5046C18.806 18.048 16.6168 18.0499 15.734 16.5082C15.4595 16.0289 14.8485 15.8629 14.3693 16.1373L14.3525 16.1471C13.8741 16.4206 13.7069 17.0298 13.9792 17.5092C14.8706 19.0785 13.7394 21 12 21C10.2607 21 9.12947 19.0785 10.0209 17.5092C10.2934 17.0294 10.1258 16.4197 9.64666 16.1466L9.6308 16.1373C9.15153 15.8628 8.54052 16.0289 8.26607 16.5081C7.38321 18.0498 5.19403 18.048 4.3138 16.5046C3.41969 14.9369 4.54749 13.0133 6.28694 13.0102C6.83922 13.0092 7.28614 12.5607 7.28515 12.0084L7.2851 11.9999L7.28515 11.9916C7.28614 11.4393 6.83922 10.9908 6.28694 10.9898C4.54749 10.9867 3.41969 9.06315 4.3138 7.49543C5.19402 5.95206 7.38321 5.95016 8.26607 7.49187C8.54052 7.97113 9.15153 8.13717 9.6308 7.86271ZM12 15C13.6569 15 15 13.6569 15 12C15 10.3431 13.6569 9 12 9C10.3432 9 9.00002 10.3431 9.00002 12C9.00002 13.6569 10.3432 15 12 15Z" fill="black"/>
</svg>
