<svg width="24" height="24" viewBox="0 0 24 24" fill="none" xmlns="http://www.w3.org/2000/svg">
<path fill-rule="evenodd" clip-rule="evenodd" d="M3.15452 1.01201C5.11987 1.32047 7.17569 2.24746 8.72607 3.49609C9.75381 3.17413 10.8558 3.00001 12 3.00001C13.1519 3.00001 14.261 3.17647 15.2946 3.50256C16.882 2.27494 18.8427 1.31343 20.8354 1.01345C21.2596 0.950981 21.7008 1.1654 21.8945 1.5528C22.6719 3.38964 22.6983 5.57993 22.2202 7.49254L22.2128 7.52219C22.0846 8.03542 21.9191 8.69874 21.3876 8.92188C21.7827 9.89321 22 10.9467 22 12.0526C22 14.8251 20.8618 17.6774 19.8412 20.2349L19.8412 20.2349L19.7379 20.4937C19.1182 22.0486 17.7316 23.1196 16.125 23.418L13.8549 23.8397C13.1549 23.9698 12.4562 23.7172 12 23.2082C11.5438 23.7172 10.8452 23.9698 10.1452 23.8397L7.87506 23.418C6.26852 23.1196 4.88189 22.0486 4.26214 20.4937L4.15891 20.2349C3.13833 17.6775 2.00004 14.8251 2.00004 12.0526C2.00004 10.9467 2.21737 9.89321 2.6125 8.92189C2.08046 8.69851 1.91916 8.0513 1.7909 7.53664L1.7799 7.49254C1.32311 5.66533 1.23531 3.29686 2.10561 1.5528C2.29827 1.16747 2.72906 0.945916 3.15452 1.01201ZM6.58478 4.44058C5.45516 5.10073 4.47474 5.96527 3.71373 6.98138C3.41573 5.76467 3.41236 4.41159 3.67496 3.1876C4.68842 3.48035 5.68018 3.89542 6.58478 4.44058ZM20.2863 6.98139C19.5303 5.9719 18.5577 5.11201 17.4374 4.45353C18.3364 3.90056 19.3043 3.45755 20.3223 3.17462C20.5884 4.40205 20.5853 5.76074 20.2863 6.98139ZM8.85364 5.56701C9.81678 5.20291 10.8797 5.00001 12 5.00001C13.1204 5.00001 14.1833 5.20291 15.1464 5.56701C18.0554 6.66667 20 9.19826 20 12.0526C20 14.4676 18.9891 16.9877 18.0863 19.2381L18.0862 19.2383C18.0167 19.4116 17.9478 19.5833 17.8801 19.7532C17.5291 20.6338 16.731 21.2713 15.7597 21.4517L13.4896 21.8734L12.912 20.5896C12.7505 20.2308 12.3935 20 12 20C11.6065 20 11.2496 20.2308 11.0881 20.5896L10.5104 21.8734L8.24033 21.4517C7.26908 21.2713 6.471 20.6338 6.12001 19.7532C6.05237 19.5835 5.98357 19.412 5.91414 19.2389L5.91395 19.2384L5.91381 19.2381C5.01102 16.9877 4.00004 14.4676 4.00004 12.0526C4.00004 9.19826 5.94472 6.66667 8.85364 5.56701ZM10.5 16C10.1212 16 9.77496 16.214 9.60557 16.5528C9.43618 16.8916 9.47274 17.297 9.7 17.6L11.2 19.6C11.3889 19.8518 11.6852 20 12 20C12.3148 20 12.6111 19.8518 12.8 19.6L14.3 17.6C14.5273 17.297 14.5638 16.8916 14.3944 16.5528C14.225 16.214 13.8788 16 13.5 16H10.5ZM9.62134 11.1213C9.62134 11.9497 8.94976 12.6213 8.12134 12.6213C7.29291 12.6213 6.62134 11.9497 6.62134 11.1213C6.62134 10.2929 7.29291 9.62131 8.12134 9.62131C8.94976 9.62131 9.62134 10.2929 9.62134 11.1213ZM16 12.5C16.8284 12.5 17.5 11.8284 17.5 11C17.5 10.1716 16.8284 9.5 16 9.5C15.1716 9.5 14.5 10.1716 14.5 11C14.5 11.8284 15.1716 12.5 16 12.5Z" fill="black"/>
</svg>
