<svg width="24" height="24" viewBox="0 0 24 24" fill="none" xmlns="http://www.w3.org/2000/svg">
<path fill-rule="evenodd" clip-rule="evenodd" d="M3 1.99999L3.15267 1.01171C2.72314 0.945359 2.29994 1.16404 2.10557 1.55278L3 1.99999ZM21 1.99999C21.8944 1.55278 21.8946 1.55313 21.8948 1.55349L21.8951 1.55422L21.8959 1.55576L21.8976 1.55912L21.9014 1.56699L21.9111 1.58727C21.9184 1.60282 21.9273 1.62241 21.9376 1.64605C21.9583 1.69332 21.9846 1.75676 22.0145 1.83637C22.0742 1.99562 22.1481 2.21935 22.2201 2.50745C22.3644 3.08432 22.5 3.91574 22.5 4.99999C22.5 6.08424 22.3644 6.91565 22.2201 7.49252C22.1481 7.78063 22.0742 8.00436 22.0145 8.16361C21.9846 8.24322 21.9583 8.30666 21.9376 8.35393C21.9273 8.37757 21.9184 8.39716 21.9111 8.4127L21.9014 8.43299L21.8976 8.44085L21.8959 8.44422L21.8951 8.44576L21.8948 8.44649C21.8946 8.44685 21.8944 8.4472 21 7.99999L21.8944 8.4472C21.7832 8.66968 21.6002 8.83258 21.3875 8.92186C21.7827 9.89319 22 10.9467 22 12.0526C22 13.3053 21.6373 14.8825 21.196 16.3623C20.7475 17.866 20.188 19.3644 19.7379 20.4937C19.1181 22.0486 17.7315 23.1196 16.125 23.418L13.8549 23.8397C13.1548 23.9698 12.4562 23.7172 12 23.2082C11.5438 23.7172 10.8452 23.9698 10.1451 23.8397L7.87503 23.418C6.26849 23.1196 4.88185 22.0486 4.26211 20.4937C3.81204 19.3644 3.25251 17.866 2.80403 16.3623C2.3627 14.8825 2 13.3053 2 12.0526C2 10.9467 2.21734 9.89319 2.61247 8.92186C2.39979 8.83258 2.21681 8.66968 2.10557 8.44719L3 7.99999C2.10557 8.44719 2.10539 8.44684 2.10521 8.44648L2.10485 8.44574L2.10408 8.4442L2.10242 8.44084L2.09858 8.43297L2.08892 8.41269C2.08163 8.39715 2.07269 8.37756 2.06235 8.35392C2.04167 8.30665 2.0154 8.24321 1.98555 8.1636C1.92583 8.00435 1.85189 7.78062 1.77986 7.49252C1.63565 6.91565 1.50001 6.08424 1.5 5V4.99999C1.5 3.91574 1.63564 3.08432 1.77986 2.50745C1.85188 2.21935 1.92583 1.99562 1.98555 1.83637C2.0154 1.75676 2.04168 1.69332 2.06236 1.64605C2.0727 1.62241 2.08164 1.60282 2.08893 1.58727L2.09858 1.56699L2.10242 1.55912L2.10409 1.55576L2.10485 1.55422L2.10522 1.55349C2.1054 1.55313 2.10557 1.55278 3 1.99999C3.15267 1.01171 3.15287 1.01174 3.15308 1.01178L3.15352 1.01184L3.15448 1.01199L3.15678 1.01235L3.16277 1.01331L3.18033 1.0162C3.19449 1.01858 3.21352 1.02187 3.23722 1.02618C3.28461 1.03479 3.3507 1.04748 3.43383 1.06507C3.60001 1.10023 3.83468 1.15504 4.12441 1.23612C4.70327 1.39812 5.50563 1.666 6.42268 2.09371C7.35026 2.52632 8.03434 2.97094 8.49526 3.31678C8.57963 3.38009 8.65651 3.44008 8.72603 3.49607C9.75378 3.17411 10.8557 2.99999 12 2.99999C13.1519 2.99999 14.2609 3.17645 15.2945 3.50254C15.3703 3.44396 15.4548 3.38031 15.548 3.31246C16.0077 2.97774 16.6804 2.53945 17.5547 2.10461C18.443 1.66283 19.2566 1.39155 19.8511 1.22995C20.149 1.14895 20.3939 1.09495 20.5682 1.06065C20.6554 1.04349 20.7252 1.03122 20.7752 1.02296C20.8003 1.01882 20.8204 1.01568 20.8354 1.01343L20.854 1.01069L20.8603 1.0098L20.8627 1.00946L20.8637 1.00932L20.8641 1.00926C20.8644 1.00923 20.8646 1.0092 21 1.99999ZM21 1.99999L20.8646 1.0092C21.2888 0.951208 21.7029 1.16978 21.8944 1.55278L21 1.99999ZM5.57732 3.90627C5.96719 4.0881 6.30221 4.2703 6.58474 4.44056L3.5 4.99998C3.5 4.21424 3.58419 3.61047 3.67492 3.18758C4.15959 3.32758 4.82176 3.55388 5.57732 3.90627ZM6.58474 4.44056L3.5 4.99999C3.50001 5.89713 3.60977 6.55706 3.71369 6.98136C4.47471 5.96525 5.45512 5.10071 6.58474 4.44056ZM18.4453 3.89537C18.0622 4.0859 17.7257 4.27613 17.4373 4.45351C18.5577 5.11199 19.5303 5.97188 20.2863 6.98137C20.3902 6.55706 20.5 5.89714 20.5 4.99999C20.5 4.20617 20.4141 3.59807 20.3223 3.1746C19.8304 3.3113 19.1663 3.53681 18.4453 3.89537ZM8.85361 5.56699C9.81674 5.20289 10.8797 4.99999 12 4.99999C13.1203 4.99999 14.1833 5.20289 15.1464 5.56699C18.0553 6.66665 20 9.19824 20 12.0526C20 12.9985 19.7114 14.342 19.2794 15.7907C18.8545 17.2154 18.3185 18.6531 17.88 19.7532C17.529 20.6338 16.731 21.2713 15.7597 21.4517L13.4896 21.8734L12.9119 20.5896C12.7507 20.2313 12.3945 20.0007 12.0017 20C12.3158 19.9995 12.6115 19.8513 12.8 19.6L14.3 17.6C14.5273 17.297 14.5638 16.8916 14.3944 16.5528C14.225 16.214 13.8788 16 13.5 16H10.5C10.1212 16 9.77497 16.214 9.60557 16.5528C9.43618 16.8916 9.47274 17.297 9.7 17.6L11.2 19.6C11.3885 19.8513 11.6842 19.9995 11.9983 20C11.6055 20.0007 11.2493 20.2313 11.0881 20.5896L10.5104 21.8734L8.24029 21.4517C7.26905 21.2713 6.47097 20.6338 6.11998 19.7532C5.68152 18.6531 5.14553 17.2154 4.72061 15.7907C4.28856 14.342 4 12.9985 4 12.0526C4 9.19824 5.94468 6.66665 8.85361 5.56699ZM9.62134 11.1213C9.62134 11.9497 8.94977 12.6213 8.12134 12.6213C7.29291 12.6213 6.62134 11.9497 6.62134 11.1213C6.62134 10.2929 7.29291 9.6213 8.12134 9.6213C8.94977 9.6213 9.62134 10.2929 9.62134 11.1213ZM16 12.5C16.8284 12.5 17.5 11.8284 17.5 11C17.5 10.1716 16.8284 9.49999 16 9.49999C15.1716 9.49999 14.5 10.1716 14.5 11C14.5 11.8284 15.1716 12.5 16 12.5Z" fill="black"/>
</svg>
