<svg width="24" height="24" viewBox="0 0 24 24" fill="none" xmlns="http://www.w3.org/2000/svg">
<path fill-rule="evenodd" clip-rule="evenodd" d="M2.55276 10.1056L4.14346 9.31022C4.09426 9.08936 4.05724 8.86391 4.03314 8.63462L2.55276 7.89443C2.05878 7.64744 1.85856 7.04676 2.10555 6.55279C2.35254 6.05881 2.95321 5.85858 3.44719 6.10557L4.1944 6.47918C4.86768 3.90191 7.21172 2 9.99998 2C13.3137 2 16 4.68629 16 8C16 8.51458 15.9352 9.01402 15.8134 9.49063L20.7165 8.04103L22 7.66156V9V14.162C22 18.5639 18.1626 22 13.5988 22H10.7336C7.48891 22 4.7683 19.4321 5.01522 16.2382C5.1142 14.958 5.68894 13.8022 6.57522 12.9272C5.90532 12.4607 5.33504 11.8611 4.90272 11.1667L3.44719 11.8944C2.95321 12.1414 2.35254 11.9412 2.10555 11.4472C1.85856 10.9532 2.05878 10.3526 2.55276 10.1056ZM9.99998 4C7.99337 4 6.33186 5.47755 6.04407 7.40402L7.44719 8.10557C7.78597 8.27497 7.99997 8.62123 7.99997 9C7.99997 9.37877 7.78597 9.72503 7.44719 9.89443L6.70347 10.2663C7.42479 11.3135 8.63222 12 9.99998 12C12.2091 12 14 10.2091 14 8C14 5.79086 12.2091 4 9.99998 4ZM14.505 11.963C13.4055 13.212 11.7948 14 9.99998 14C9.52774 14 9.06825 13.9454 8.62747 13.8423C7.68217 14.426 7.08837 15.3693 7.00927 16.3924C6.86477 18.2614 8.4843 20 10.7336 20H13.5988C17.2101 20 20 17.3132 20 14.162V10.3384L14.505 11.963ZM11 10.5C11.8284 10.5 12.5 9.82843 12.5 9C12.5 8.17157 11.8284 7.5 11 7.5C10.1715 7.5 9.49997 8.17157 9.49997 9C9.49997 9.82843 10.1715 10.5 11 10.5Z" fill="black"/>
</svg>
