<svg width="24" height="24" viewBox="0 0 24 24" fill="none" xmlns="http://www.w3.org/2000/svg">
<path fill-rule="evenodd" clip-rule="evenodd" d="M8.50013 4.80417C5.83583 6.10244 4 8.83683 4 12C4 15.7853 6.62891 18.9565 10.1605 19.7875C10.1673 19.7228 10.1738 19.6562 10.18 19.588C10.2429 18.8872 10.2511 18.1401 10.1285 17.6368C10.0159 17.175 9.71629 16.7792 9.28044 16.2472C9.26961 16.2339 9.25862 16.2205 9.2475 16.207C9.05707 15.9747 8.82755 15.6948 8.64557 15.4042C8.44852 15.0895 8.25412 14.6827 8.22393 14.1952C8.17938 13.4758 8.49814 12.9312 8.84898 12.551C9.14934 12.2254 9.533 11.9583 9.80898 11.7662C9.82969 11.7518 9.8498 11.7378 9.86922 11.7243C10.2018 11.4919 10.3788 11.3555 10.4765 11.2354C10.4856 11.2241 10.4924 11.2149 10.4974 11.2077C10.4284 10.9368 10.2867 10.7988 9.85524 10.4914C9.83255 10.4752 9.80889 10.4585 9.78439 10.4412C9.36115 10.1421 8.68581 9.66498 8.35695 8.73264C7.89268 7.41642 8.18306 5.88183 8.50013 4.80417ZM11.0901 3.63578L11.0887 3.6386L11.0786 3.65887C11.0691 3.67802 11.0544 3.70822 11.0354 3.74844C10.9992 3.82467 10.9478 3.93643 10.8874 4.07675C11.251 4.02615 11.6224 4 12 4C14.2791 4 16.3357 4.95308 17.7928 6.48243C17.5801 6.61721 17.3537 6.77624 17.1445 6.95558C16.8918 7.17221 16.598 7.47385 16.4174 7.8571C16.0674 8.59976 16.2191 9.36879 16.2931 9.74453C16.3025 9.79212 16.3107 9.8334 16.3164 9.86752C16.3517 10.078 16.3472 10.1497 16.3419 10.177C16.3418 10.1777 16.3417 10.1782 16.3416 10.1787C16.3404 10.1805 16.3377 10.1843 16.333 10.19C16.3264 10.1978 16.3151 10.21 16.2967 10.2262C16.2759 10.2179 16.2496 10.2068 16.2171 10.1924C16.1966 10.1833 16.1729 10.1722 16.1461 10.1596C15.8295 10.0111 15.0828 9.66077 14.1957 10.0788C13.7189 10.3035 13.4323 10.7056 13.2633 11.0231C13.0874 11.3535 12.9756 11.7116 12.9024 12.0121C12.8276 12.319 12.7837 12.6058 12.7583 12.8128C12.7455 12.9175 12.737 13.0046 12.7317 13.0673C12.729 13.0986 12.7271 13.1241 12.7258 13.1427L12.7243 13.1654L12.7239 13.1728L12.7237 13.1755L12.7236 13.1765L12.7236 13.177C12.7236 13.1772 12.7236 13.1774 13.722 13.2334L12.7236 13.1774C12.6979 13.6361 12.9879 14.0532 13.4268 14.1888L13.4265 14.1888L13.4427 14.194C13.4589 14.1994 13.4855 14.2085 13.5208 14.2212C13.5916 14.2467 13.6963 14.2866 13.8221 14.3408C14.0778 14.4511 14.3996 14.612 14.6969 14.8199C15.3396 15.2693 15.5616 15.6928 15.4508 16.1454C15.3853 16.4126 15.1407 16.8069 14.6484 17.2956C14.1774 17.7633 13.573 18.2267 12.9557 18.6443C12.7036 18.8148 12.4535 18.9749 12.2151 19.1217C12.2413 18.4944 12.2219 17.7797 12.0715 17.1632C11.8406 16.2156 11.2531 15.4988 10.853 15.0107C10.8444 15.0003 10.836 14.99 10.8276 14.9798C10.606 14.7092 10.4517 14.52 10.3407 14.3428C10.2341 14.1726 10.2215 14.0946 10.2201 14.0716C10.2201 14.0714 10.22 14.071 10.2199 14.0705C10.2183 14.0632 10.2099 14.0253 10.319 13.9071C10.4631 13.7509 10.6762 13.6002 11.0146 13.3638L11.035 13.3496C11.3185 13.1516 11.7295 12.8646 12.0283 12.497C12.3797 12.0648 12.6194 11.4694 12.4437 10.747C12.1885 9.69804 11.4765 9.19078 11.0232 8.86784L11.0158 8.86257C10.5398 8.52339 10.3517 8.37543 10.2431 8.06736C9.99452 7.36277 10.1306 6.32626 10.4365 5.30927C10.5807 4.82966 10.7467 4.4054 10.8771 4.10076C10.8805 4.09267 10.884 4.08466 10.8874 4.07675M15.5847 19.1539C15.7484 19.0111 15.9069 18.8645 16.0576 18.7149C16.6303 18.1462 17.1948 17.4316 17.3933 16.6214C17.8104 14.9192 16.6824 13.7678 15.8431 13.1809C15.4853 12.9307 15.122 12.7375 14.8201 12.5967C14.828 12.56 14.8365 12.5228 14.8455 12.4856C14.898 12.2704 14.9614 12.0894 15.0288 11.9629C15.0485 11.9258 15.0648 11.9005 15.0765 11.884C15.1173 11.8968 15.2081 11.9326 15.4051 12.0201C15.5825 12.0989 15.9289 12.2523 16.3486 12.2498C16.819 12.2469 17.2393 12.0573 17.6066 11.7377C17.9932 11.4011 18.22 10.999 18.3055 10.557C18.3832 10.1557 18.33 9.78266 18.2889 9.53694C18.2812 9.49132 18.274 9.44863 18.2673 9.40862C18.184 8.91461 18.1698 8.83017 18.2266 8.70969L18.2266 8.70979C18.2266 8.70979 18.2296 8.70365 18.2377 8.69147C18.2464 8.67846 18.2596 8.66063 18.2786 8.63822C18.3175 8.59241 18.3726 8.53707 18.4462 8.47403C18.5952 8.3463 18.7843 8.21702 18.9849 8.09697C18.9849 8.09697 18.9849 8.09697 18.9849 8.09696C19.6314 9.25149 20 10.5827 20 12C20 15.1295 18.203 17.8393 15.5847 19.1539ZM20.1642 6.22394C21.3204 7.85528 22 9.84828 22 12C22 17.5228 17.5228 22 12 22C6.47715 22 2 17.5228 2 12C2 6.47715 6.47715 2 12 2C15.3589 2 18.331 3.65602 20.1444 6.19614C20.1511 6.20527 20.1577 6.21454 20.1642 6.22394ZM15.0636 11.8803C15.0477 11.8762 15.0444 11.8778 15.0448 11.8806C15.045 11.8817 15.0457 11.883 15.0465 11.8842C15.0467 11.8845 15.0469 11.8848 15.0471 11.8851C15.0481 11.8865 15.0489 11.8877 15.0483 11.888C15.0539 11.8853 15.059 11.8828 15.0636 11.8803Z" fill="black"/>
</svg>
