<svg width="24" height="24" viewBox="0 0 24 24" fill="none" xmlns="http://www.w3.org/2000/svg">
<g clip-path="url(#clip0)">
<path fill-rule="evenodd" clip-rule="evenodd" d="M4.41424 9.84705C2.81503 8.02453 2.0876 5.43048 2.00431 2.85964C4.78933 2.51869 7.65072 2.96646 9.68589 4.65508C11.8996 6.49188 13.723 9.59242 15.0999 12.4359C15.5884 13.4445 15.9662 14.2002 16.2226 14.705C16.3508 14.9575 16.4487 15.1472 16.5149 15.2746C16.548 15.3382 16.5732 15.3863 16.5902 15.4188L16.6098 15.4558L16.6149 15.4656L16.6164 15.4683L16.6168 15.4691L16.6169 15.4694L16.617 15.4695C16.617 15.4695 16.617 15.4696 17.5 15L16.617 15.4696C16.7331 15.6878 16.9259 15.8554 17.1582 15.9398L20.4733 17.1453L18.5527 18.1056C18.3592 18.2024 18.2023 18.3593 18.1055 18.5528L17.1452 20.4734L15.9398 17.1583C15.8553 16.9261 15.6879 16.7334 15.4699 16.6173L15 17.5C15.4699 16.6173 15.4699 16.6173 15.4698 16.6173L15.4697 16.6172L15.4694 16.6171L15.4683 16.6165L15.4644 16.6144L15.4494 16.6064L15.3923 16.5762C15.3428 16.5501 15.2709 16.5122 15.1806 16.4649C15.0001 16.3703 14.7458 16.238 14.4497 16.0865C13.8602 15.7849 13.0954 15.4023 12.4169 15.0911C12.406 15.0861 12.395 15.0813 12.3839 15.0767C10.331 14.2231 8.21768 12.9895 6.57491 11.7628C6.99109 11.6821 7.4008 11.5655 7.79407 11.4131C9.10563 10.9048 10.319 9.95954 10.9056 8.50889C11.1127 7.99689 10.8655 7.41398 10.3535 7.20692C9.84151 6.99986 9.25859 7.24706 9.05153 7.75906C8.72345 8.5703 8.01205 9.18367 7.0713 9.54829C6.22679 9.8756 5.26575 9.97211 4.41424 9.84705ZM23.3417 16.0602L18.2072 14.1931C18.1525 14.087 18.0852 13.9558 18.0058 13.7994C17.7725 13.3401 17.4342 12.6639 16.9994 11.7691C17.021 11.2121 17.2265 10.7656 17.518 10.4674C17.8352 10.1428 18.3031 9.94129 18.9102 9.996C19.2925 10.0304 19.6607 9.84307 19.8579 9.51377C20.0551 9.18448 20.0464 8.77139 19.8355 8.45068C17.8888 5.48973 14.1688 3.42052 10.7315 2.93007C7.88419 0.718498 4.07404 0.434734 0.824009 1.01564C0.355038 1.09946 0.0103138 1.50248 0.000185713 1.97878C-0.0663119 5.10597 0.693851 8.66535 2.94108 11.2004C3.14542 12.8947 3.9244 14.4889 4.8784 15.8769C5.90482 17.3702 7.18177 18.6943 8.32576 19.7386C8.62459 20.0114 9.05836 20.0772 9.42467 19.9054C9.79098 19.7335 10.0176 19.3579 9.99888 18.9537C9.96747 18.2765 10.18 17.7858 10.4862 17.4773C10.7629 17.1986 11.1855 16.9985 11.7665 16.9939C12.3601 17.2712 13.0127 17.5979 13.5388 17.867C13.7964 17.9988 14.0217 18.1158 14.1922 18.205L16.0602 23.3418C16.1967 23.7173 16.5437 23.9755 16.9426 23.9984C17.3414 24.0213 17.7157 23.8046 17.8944 23.4473L19.7453 19.7454L23.4472 17.8945C23.8045 17.7158 24.0213 17.3415 23.9983 16.9426C23.9754 16.5437 23.7172 16.1968 23.3417 16.0602ZM16.0877 9.06942C15.9816 9.17798 15.8828 9.29272 15.7915 9.41299C15.1134 8.18213 14.3394 6.93278 13.4689 5.78948C14.8591 6.40075 16.1589 7.27059 17.1672 8.31336C16.7627 8.4961 16.3983 8.75156 16.0877 9.06942ZM6.52663 14.744C6.30036 14.4148 6.09241 14.0827 5.90611 13.7491C6.94981 14.4885 8.11853 15.2057 9.31868 15.8382C9.23142 15.9104 9.14739 15.9872 9.06684 16.0683C8.7906 16.3466 8.56652 16.6655 8.39609 17.0147C7.72979 16.3169 7.08177 15.5517 6.52663 14.744ZM6.49998 7.00003C7.32841 7.00003 7.99998 6.32846 7.99998 5.50003C7.99998 4.6716 7.32841 4.00003 6.49998 4.00003C5.67155 4.00003 4.99998 4.6716 4.99998 5.50003C4.99998 6.32846 5.67155 7.00003 6.49998 7.00003Z" fill="black"/>
</g>
<defs>
<clipPath id="clip0">
<rect width="24" height="24" fill="white"/>
</clipPath>
</defs>
</svg>
