<svg width="25" height="24" viewBox="0 0 25 24" fill="none" xmlns="http://www.w3.org/2000/svg">
<path fill-rule="evenodd" clip-rule="evenodd" d="M5.41424 9.84705C3.81503 8.02453 3.0876 5.43048 3.00431 2.85964C5.78933 2.51869 8.65072 2.96646 10.6859 4.65508C12.8996 6.49188 14.723 9.59242 16.0999 12.4359C16.5925 13.453 17.087 14.4712 17.617 15.4696C17.7331 15.6878 17.9259 15.8554 18.1582 15.9398L21.4733 17.1453L19.5527 18.1056C19.3592 18.2024 19.2023 18.3593 19.1055 18.5528L18.1452 20.4734L16.9398 17.1583C16.8553 16.9261 16.6875 16.7332 16.4694 16.6171C15.4652 16.0837 14.4505 15.5652 13.4169 15.0911C13.406 15.0861 13.395 15.0813 13.3839 15.0767C11.331 14.2231 9.21768 12.9895 7.57491 11.7628C7.99109 11.6821 8.4008 11.5655 8.79407 11.4131C10.1056 10.9048 11.319 9.95954 11.9056 8.50889C12.1127 7.99689 11.8655 7.41398 11.3535 7.20692C10.8415 6.99986 10.2586 7.24706 10.0515 7.75906C9.72345 8.5703 9.01205 9.18367 8.0713 9.54829C7.22679 9.8756 6.26575 9.97211 5.41424 9.84705ZM24.3417 16.0602L19.2072 14.1931C18.9918 13.7753 18.5822 12.9687 17.9994 11.7691C18.021 11.2121 18.2265 10.7656 18.518 10.4674C18.8352 10.1428 19.3031 9.94129 19.9102 9.996C20.2925 10.0304 20.6607 9.84307 20.8579 9.51377C21.0551 9.18448 21.0464 8.77139 20.8355 8.45068C18.8888 5.48973 15.1688 3.42052 11.7315 2.93007C8.88419 0.718498 5.07404 0.434734 1.82401 1.01564C1.35504 1.09946 1.01031 1.50248 1.00019 1.97878C0.933688 5.10597 1.69385 8.66535 3.94108 11.2004C4.14542 12.8947 4.9244 14.4889 5.8784 15.8769C6.90482 17.3702 8.18177 18.6943 9.32576 19.7386C9.62459 20.0114 10.0584 20.0772 10.4247 19.9054C10.791 19.7335 11.0176 19.3579 10.9989 18.9537C10.9675 18.2765 11.18 17.7858 11.4862 17.4773C11.7629 17.1986 12.1855 16.9985 12.7665 16.9939C13.6508 17.4069 14.6733 17.9337 15.1922 18.205L17.0602 23.3418C17.1967 23.7173 17.5437 23.9755 17.9426 23.9984C18.3414 24.0213 18.7157 23.8046 18.8944 23.4473L20.7453 19.7454L24.4472 17.8945C24.8045 17.7158 25.0213 17.3415 24.9983 16.9426C24.9754 16.5437 24.7172 16.1968 24.3417 16.0602ZM18.1672 8.31336C17.6246 8.55851 17.1502 8.94056 16.7915 9.41299C16.1134 8.18213 15.3394 6.93278 14.4689 5.78948C15.8591 6.40075 17.1589 7.27059 18.1672 8.31336ZM7.52663 14.744C7.30036 14.4148 7.09241 14.0827 6.90611 13.7491C7.94981 14.4885 9.11853 15.2057 10.3187 15.8382C9.93217 16.1582 9.61621 16.5636 9.39609 17.0147C8.72979 16.3169 8.08177 15.5517 7.52663 14.744ZM7.49998 7.00003C8.32841 7.00003 8.99998 6.32846 8.99998 5.50003C8.99998 4.6716 8.32841 4.00003 7.49998 4.00003C6.67155 4.00003 5.99998 4.6716 5.99998 5.50003C5.99998 6.32846 6.67155 7.00003 7.49998 7.00003Z" fill="black"/>
</svg>
