<svg width="24" height="24" viewBox="0 0 24 24" fill="none" xmlns="http://www.w3.org/2000/svg">
<path fill-rule="evenodd" clip-rule="evenodd" d="M4 5.5C4 4.11929 5.11929 3 6.5 3C7.88071 3 9 4.11929 9 5.5C9 5.64121 8.98839 5.77926 8.96614 5.91338C8.57652 5.9959 8.19507 6.09406 7.82323 6.20708C7.93603 5.99641 8 5.75568 8 5.5C8 4.67157 7.32843 4 6.5 4C5.67157 4 5 4.67157 5 5.5C5 6.15397 5.4185 6.71018 6.00229 6.91545C5.64446 7.08824 5.30044 7.27643 4.97199 7.47905C4.37972 7.02107 4 6.30423 4 5.5ZM11 5.5C11 5.54458 10.9993 5.58902 10.9981 5.63331C11.3282 5.61126 11.6624 5.60001 12 5.60001C12.3376 5.60001 12.6718 5.61126 13.0019 5.63331C13.0007 5.58902 13 5.54458 13 5.5C13 3.01472 15.0147 1 17.5 1C19.9853 1 22 3.01472 22 5.5C22 6.76079 21.4815 7.89949 20.6476 8.71577C22.0857 10.0765 23 11.8302 23 13.8C23 16.1914 21.6519 18.2652 19.6554 19.7027C17.6574 21.1413 14.9476 22 12 22C9.05242 22 6.34263 21.1413 4.34463 19.7027C2.34811 18.2652 1 16.1914 1 13.8C1 11.8302 1.9143 10.0765 3.35241 8.71577C2.51852 7.89949 2 6.76079 2 5.5C2 3.01472 4.01472 1 6.5 1C8.98528 1 11 3.01472 11 5.5ZM19.028 7.47905C18.6996 7.27643 18.3555 7.08824 17.9977 6.91545C18.5815 6.71018 19 6.15397 19 5.5C19 4.67157 18.3284 4 17.5 4C16.6716 4 16 4.67157 16 5.5C16 5.75568 16.064 5.99641 16.1768 6.20708C15.8049 6.09406 15.4235 5.9959 15.0339 5.91338C15.0116 5.77926 15 5.64121 15 5.5C15 4.11929 16.1193 3 17.5 3C18.8807 3 20 4.11929 20 5.5C20 6.30423 19.6203 7.02107 19.028 7.47905ZM9.92062 7.76835C10.5873 7.65839 11.2834 7.60001 12 7.60001C12.7166 7.60001 13.4127 7.65839 14.0794 7.76835C15.7753 8.04806 17.2686 8.65912 18.4271 9.47783C20.0875 10.6511 21 12.1959 21 13.8C21 15.385 20.1095 16.9112 18.4868 18.0796C16.8655 19.247 14.5753 20 12 20C9.42473 20 7.13452 19.247 5.51324 18.0796C3.89047 16.9112 3 15.385 3 13.8C3 12.1959 3.91254 10.6511 5.57287 9.47783C6.73144 8.65912 8.22473 8.04806 9.92062 7.76835ZM7.68377 12.0513C8.20058 11.879 8.75861 12.1522 8.94133 12.6625L8.94626 12.6738C8.95554 12.6943 8.97562 12.7356 9.00953 12.791C9.07722 12.9018 9.19918 13.0679 9.40079 13.2407C9.787 13.5718 10.5503 14 12 14C13.4497 14 14.213 13.5718 14.5992 13.2407C14.8008 13.0679 14.9228 12.9018 14.9905 12.791C15.0244 12.7356 15.0445 12.6943 15.0537 12.6738L15.0587 12.6625C15.2414 12.1522 15.7994 11.879 16.3162 12.0513C16.8402 12.226 17.1233 12.7923 16.9487 13.3162L16 13C16.9487 13.3162 16.9484 13.3169 16.9482 13.3176L16.9477 13.3191L16.9467 13.3222L16.9444 13.3289L16.9388 13.3446C16.9347 13.3561 16.9297 13.3696 16.9237 13.3849C16.9118 13.4155 16.8961 13.4536 16.876 13.4981C16.8358 13.587 16.7777 13.7019 16.697 13.834C16.5356 14.0982 16.2825 14.4321 15.9008 14.7593C15.1203 15.4282 13.8836 16 12 16C10.1164 16 8.87967 15.4282 8.09921 14.7593C7.71749 14.4321 7.46445 14.0982 7.30297 13.834C7.2223 13.7019 7.16425 13.587 7.12405 13.4981C7.10393 13.4536 7.0882 13.4155 7.0763 13.3849C7.07034 13.3696 7.06533 13.3561 7.06119 13.3446L7.05563 13.3289L7.05332 13.3222L7.05228 13.3191L7.05179 13.3176C7.05155 13.3169 7.05132 13.3162 8 13L7.05132 13.3162C6.87667 12.7923 7.15983 12.226 7.68377 12.0513Z" fill="black"/>
</svg>
