<svg width="24" height="24" viewBox="0 0 24 24" fill="none" xmlns="http://www.w3.org/2000/svg">
<path fill-rule="evenodd" clip-rule="evenodd" d="M4 5.5C4 4.11929 5.11929 3 6.5 3C7.88071 3 9 4.11929 9 5.5C9 5.64121 8.98839 5.77926 8.96614 5.91338C8.57652 5.9959 8.19507 6.09406 7.82323 6.20708C7.93603 5.99641 8 5.75568 8 5.5C8 4.67157 7.32843 4 6.5 4C5.67157 4 5 4.67157 5 5.5C5 6.15397 5.4185 6.71018 6.00229 6.91545C5.64446 7.08824 5.30044 7.27643 4.97199 7.47905C4.37972 7.02107 4 6.30423 4 5.5ZM11 5.5C11 5.54458 10.9993 5.58902 10.9981 5.63331C11.3282 5.61126 11.6624 5.60001 12 5.60001C12.3376 5.60001 12.6718 5.61126 13.0019 5.63331C13.0007 5.58902 13 5.54458 13 5.5C13 3.01472 15.0147 1 17.5 1C19.9853 1 22 3.01472 22 5.5C22 6.76079 21.4815 7.89949 20.6476 8.71577C22.0857 10.0765 23 11.8302 23 13.8C23 16.1914 21.6519 18.2652 19.6554 19.7027C17.6574 21.1413 14.9476 22 12 22C9.05242 22 6.34263 21.1413 4.34463 19.7027C2.34811 18.2652 1 16.1914 1 13.8C1 11.8302 1.9143 10.0765 3.35241 8.71577C2.51852 7.89949 2 6.76079 2 5.5C2 3.01472 4.01472 1 6.5 1C8.98528 1 11 3.01472 11 5.5ZM19.028 7.47905C18.6996 7.27643 18.3555 7.08824 17.9977 6.91545C18.5815 6.71018 19 6.15397 19 5.5C19 4.67157 18.3284 4 17.5 4C16.6716 4 16 4.67157 16 5.5C16 5.75568 16.064 5.99641 16.1768 6.20708C15.8049 6.09406 15.4235 5.9959 15.0339 5.91338C15.0116 5.77926 15 5.64121 15 5.5C15 4.11929 16.1193 3 17.5 3C18.8807 3 20 4.11929 20 5.5C20 6.30423 19.6203 7.02107 19.028 7.47905ZM9.92062 7.76835C10.5873 7.65839 11.2834 7.60001 12 7.60001C12.7166 7.60001 13.4127 7.65839 14.0794 7.76835C15.7753 8.04806 17.2686 8.65912 18.4271 9.47783C20.0875 10.6511 21 12.1959 21 13.8C21 15.385 20.1095 16.9112 18.4868 18.0796C16.8655 19.247 14.5753 20 12 20C9.42473 20 7.13452 19.247 5.51324 18.0796C3.89047 16.9112 3 15.385 3 13.8C3 12.1959 3.91254 10.6511 5.57287 9.47783C6.73144 8.65912 8.22473 8.04806 9.92062 7.76835ZM8.94135 12.6625C8.75864 12.1522 8.2006 11.8791 7.6838 12.0513C7.15986 12.226 6.8767 12.7923 7.05134 13.3163C7.27667 13.8797 7.63782 14.3638 8.09924 14.7593C8.8797 15.4282 10.1164 16 12 16C13.8836 16 15.1204 15.4282 15.9008 14.7593C16.3524 14.3722 16.7437 13.88 16.9487 13.3163C17.1234 12.7923 16.8402 12.226 16.3163 12.0513C15.7994 11.8791 15.2414 12.1522 15.0587 12.6625C15.0461 12.6925 14.9273 12.9596 14.5992 13.2408C14.213 13.5718 13.4498 14 12 14C10.5503 14 9.78703 13.5718 9.40082 13.2408C9.07277 12.9596 8.95391 12.6925 8.94135 12.6625Z" fill="black"/>
</svg>
