<svg width="24" height="24" viewBox="0 0 24 24" fill="none" xmlns="http://www.w3.org/2000/svg">
<path fill-rule="evenodd" clip-rule="evenodd" d="M5.21913 3.3753C5.40891 3.13809 5.69622 3 6 3H12H18C18.3038 3 18.5911 3.13809 18.7809 3.3753L22.7809 8.37531C23.0879 8.75907 23.0705 9.30903 22.7399 9.67267L12.7399 20.6727C12.5504 20.8811 12.2817 21 12 21C11.7183 21 11.4496 20.8811 11.2601 20.6727L1.26006 9.67267C0.929475 9.30903 0.912125 8.75907 1.21913 8.37531L5.21913 3.3753ZM6.48063 5L4.08063 8H7.51938L9.91938 5H6.48063ZM12 5.60078L10.0806 8H13.9194L12 5.60078ZM14.5723 10H9.4277L12 17.0738L14.5723 10ZM9.32559 15.5715L7.29957 10H4.26055L9.32559 15.5715ZM14.6744 15.5715L16.7004 10H19.7395L14.6744 15.5715ZM19.9194 8H16.4806L14.0806 5H17.5194L19.9194 8Z" fill="black"/>
</svg>
