<svg width="24" height="24" viewBox="0 0 24 24" fill="none" xmlns="http://www.w3.org/2000/svg">
<path fill-rule="evenodd" clip-rule="evenodd" d="M5.21913 4.3753C5.40891 4.13809 5.69622 4 6 4H12H18C18.3038 4 18.5911 4.13809 18.7809 4.3753L22.7809 9.37531C23.0879 9.75907 23.0705 10.309 22.7399 10.6727L12.7399 21.6727C12.5504 21.8811 12.2817 22 12 22C11.7183 22 11.4496 21.8811 11.2601 21.6727L1.26006 10.6727C0.929475 10.309 0.912125 9.75907 1.21913 9.37531L5.21913 4.3753ZM6.48063 6L4.08063 9H7.51938L9.91938 6H6.48063ZM12 6.60078L10.0806 9H13.9194L12 6.60078ZM14.5723 11H9.4277L12 18.0738L14.5723 11ZM9.32559 16.5715L7.29957 11H4.26055L9.32559 16.5715ZM14.6744 16.5715L16.7004 11H19.7395L14.6744 16.5715ZM19.9194 9H16.4806L14.0806 6H17.5194L19.9194 9Z" fill="black"/>
</svg>
