<svg width="24" height="24" viewBox="0 0 24 24" fill="none" xmlns="http://www.w3.org/2000/svg">
<path fill-rule="evenodd" clip-rule="evenodd" d="M4.74425 5.08775C4.74454 5.08767 4.74484 5.08759 4.74515 5.08752C4.73431 5.09125 4.73291 5.09067 4.74425 5.08775ZM5.06197 5.06197C5.30798 5.06007 5.64213 5.08354 6.05778 5.13854C7.00348 5.26366 8.24412 5.53447 9.55392 5.91339C10.8617 6.29172 12.2095 6.7695 13.3722 7.29844C14.558 7.83791 15.4624 8.3913 15.9604 8.88933C17.8533 10.7822 18.1259 13.54 16.8928 15.4786L11.7071 10.2929C11.3166 9.90235 10.6834 9.90235 10.2929 10.2929C9.90236 10.6834 9.90236 11.3166 10.2929 11.7071L15.4786 16.8928C13.54 18.1259 10.7822 17.8533 8.88933 15.9604C8.3913 15.4624 7.83791 14.558 7.29844 13.3722C6.7695 12.2095 6.29172 10.8617 5.91339 9.55392C5.53447 8.24412 5.26366 7.00348 5.13854 6.05778C5.08354 5.64213 5.06007 5.30798 5.06197 5.06197ZM16.9179 18.3321C14.1204 20.3974 10.0823 19.9818 7.47512 17.3746C6.71789 16.6174 6.04514 15.4471 5.47798 14.2004C4.90031 12.9307 4.391 11.4883 3.99218 10.1097C3.59395 8.73319 3.29755 7.39136 3.15582 6.32011C3.08547 5.78846 3.04874 5.29093 3.0662 4.87521C3.07489 4.66821 3.09809 4.4503 3.15117 4.24459C3.19961 4.05683 3.2995 3.77154 3.53552 3.53552C3.77154 3.2995 4.05683 3.19961 4.24459 3.15117C4.4503 3.09809 4.66821 3.07489 4.87521 3.0662C5.29093 3.04874 5.78846 3.08547 6.32011 3.15582C7.39136 3.29755 8.73319 3.59395 10.1097 3.99218C11.4883 4.391 12.9307 4.90031 14.2004 5.47798C15.4471 6.04514 16.6174 6.71789 17.3746 7.47512C19.9818 10.0823 20.3974 14.1204 18.3321 16.9179L20.7071 19.2929C21.0976 19.6834 21.0976 20.3166 20.7071 20.7071C20.3166 21.0976 19.6834 21.0976 19.2929 20.7071L16.9179 18.3321ZM5.08752 4.74516C5.08759 4.74484 5.08767 4.74454 5.08775 4.74425C5.09067 4.73291 5.09125 4.73431 5.08752 4.74516Z" fill="black"/>
</svg>
