<svg width="24" height="24" viewBox="0 0 24 24" fill="none" xmlns="http://www.w3.org/2000/svg">
<path fill-rule="evenodd" clip-rule="evenodd" d="M12.261 1.03468C12.6971 1.15259 13 1.54825 13 2.00003V9.00003H19C19.3581 9.00003 19.6888 9.19147 19.8671 9.50197C20.0455 9.81246 20.0442 10.1946 19.8638 10.5039L12.8638 22.5039C12.6361 22.8941 12.1751 23.0833 11.739 22.9654C11.3029 22.8475 11 22.4518 11 22V15H5C4.64193 15 4.3112 14.8086 4.13286 14.4981C3.95452 14.1876 3.9558 13.8054 4.13622 13.4962L11.1362 1.49616C11.3639 1.10592 11.8249 0.91678 12.261 1.03468ZM6.74104 13H12C12.5523 13 13 13.4477 13 14V18.3011L17.259 11H12C11.4477 11 11 10.5523 11 10V5.69895L6.74104 13Z" fill="black"/>
</svg>
