<svg width="24" height="24" viewBox="0 0 24 24" fill="none" xmlns="http://www.w3.org/2000/svg">
<path fill-rule="evenodd" clip-rule="evenodd" d="M12.2471 1.03098C12.69 1.14393 13 1.54285 13 1.99997V7.99997H18C18.341 7.99997 18.6585 8.17376 18.8423 8.46102C19.0261 8.74828 19.0509 9.10939 18.908 9.41903L12.908 22.419C12.7112 22.8454 12.2442 23.0774 11.7855 22.9767C11.3268 22.8759 11 22.4696 11 22V14H6C5.64706 14 5.32026 13.8139 5.1401 13.5104C4.95994 13.2069 4.9531 12.831 5.1221 12.5211L11.1221 1.52112C11.341 1.11982 11.8041 0.918031 12.2471 1.03098ZM7.68454 12H12C12.5523 12 13 12.4477 13 13V17.447L16.4371 9.99997H12C11.4477 9.99997 11 9.55226 11 8.99997V5.92163L7.68454 12Z" fill="black"/>
</svg>
