<svg width="24" height="24" viewBox="0 0 24 24" fill="none" xmlns="http://www.w3.org/2000/svg">
<path fill-rule="evenodd" clip-rule="evenodd" d="M12.0634 4.04209C15.0604 3.67514 17.7997 5.75557 18.2824 8.73058C18.3336 9.04602 18.5325 9.318 18.8175 9.46244C19.9616 10.0421 20.8036 11.1654 20.9703 12.5386C21.2358 14.726 19.6855 16.7084 17.5177 16.9739C17.2126 17.0112 16.8395 17.0109 16.4999 16.9575C16.1384 16.9006 15.9345 16.8027 15.8588 16.7401C15.4331 16.3883 14.8028 16.4483 14.451 16.874C14.0992 17.2997 14.1591 17.9301 14.5848 18.2819C15.0603 18.6748 15.6749 18.8523 16.1892 18.9332C16.7254 19.0176 17.2854 19.0172 17.7608 18.959C21.032 18.5585 23.3533 15.5728 22.9558 12.2976C22.7275 10.4174 21.6524 8.84696 20.162 7.9256C19.3016 4.16205 15.7296 1.57827 11.8203 2.05692C9.22789 2.37434 7.10232 3.96441 5.98423 6.12144C2.75534 6.63544 0.999995 9.6056 1 12.6317C1 13.6058 1.33367 15.1324 2.49103 16.4288C3.67726 17.7576 5.6216 18.7256 8.60781 18.7256C9.1601 18.7256 9.60781 18.2779 9.60781 17.7256C9.60781 17.1733 9.1601 16.7256 8.60781 16.7256C6.08233 16.7256 4.72277 15.9256 3.98302 15.0969C3.2144 14.2359 3 13.2155 3 12.6317C3 10.7371 3.84959 9.16206 5.21959 8.45213C5.11229 9.13669 5.09664 9.84705 5.18413 10.5678C5.25068 11.1161 5.74908 11.5066 6.29734 11.44C6.8456 11.3735 7.23611 10.8751 7.16956 10.3268C7.04587 9.30783 7.20007 8.32218 7.57135 7.44331C8.33213 5.64245 10.0002 4.29471 12.0634 4.04209ZM16.6585 12.7526C17.0741 12.3889 17.1163 11.7571 16.7526 11.3415C16.3889 10.9259 15.7571 10.8838 15.3415 11.2474L11.9842 14.1851L9.64018 12.2318C9.21591 11.8782 8.58534 11.9356 8.23178 12.3598C7.87821 12.7841 7.93554 13.4147 8.35982 13.7682L11 15.9684V22C11 22.5523 11.4477 23 12 23C12.5523 23 13 22.5523 13 22V15.9538L16.6585 12.7526Z" fill="black"/>
</svg>
