<svg width="24" height="24" viewBox="0 0 24 24" fill="none" xmlns="http://www.w3.org/2000/svg">
<path fill-rule="evenodd" clip-rule="evenodd" d="M8 10C8 7.79086 9.79086 6 12 6C14.2091 6 16 7.79086 16 10V11H17C18.933 11 20.5 12.567 20.5 14.5C20.5 16.433 18.933 18 17 18H7C5.067 18 3.5 16.433 3.5 14.5C3.5 12.567 5.067 11 7 11H8V10ZM12 4C8.99974 4 6.51381 6.20213 6.07036 9.07824C3.47551 9.51997 1.5 11.7793 1.5 14.5C1.5 17.5376 3.96243 20 7 20H17C20.0376 20 22.5 17.5376 22.5 14.5C22.5 13.1702 22.028 11.9506 21.2425 10.9996C21.721 10.2846 22 9.4249 22 8.5C22 6.01472 19.9853 4 17.5 4C16.5594 4 15.6862 4.2886 14.9641 4.78208C14.0897 4.28433 13.0781 4 12 4Z" fill="black"/>
</svg>
