<svg width="24" height="24" viewBox="0 0 24 24" fill="none" xmlns="http://www.w3.org/2000/svg">
<path fill-rule="evenodd" clip-rule="evenodd" d="M15.8605 5.40671C16.3496 5.14684 16.9074 5 17.5 5C19.433 5 21 6.567 21 8.5C21 9.14714 20.8249 9.75273 20.5188 10.2727C19.7909 9.66619 18.9039 9.24409 17.9296 9.07824C17.7035 7.61158 16.9462 6.32019 15.8605 5.40671ZM13.9291 4.31684C14.8893 3.4966 16.1371 3 17.5 3C20.5376 3 23 5.46243 23 8.5C23 9.77481 22.5654 10.9492 21.8379 11.8815C22.2602 12.6601 22.5 13.552 22.5 14.5C22.5 17.5376 20.0376 20 17 20H7C3.96243 20 1.5 17.5376 1.5 14.5C1.5 11.7793 3.47551 9.51997 6.07036 9.07824C6.51381 6.20213 8.99974 4 12 4C12.6748 4 13.3237 4.11141 13.9291 4.31684ZM8 10C8 7.79086 9.79086 6 12 6C14.2091 6 16 7.79086 16 10V11H17C18.933 11 20.5 12.567 20.5 14.5C20.5 16.433 18.933 18 17 18H7C5.067 18 3.5 16.433 3.5 14.5C3.5 12.567 5.067 11 7 11H8V10Z" fill="black"/>
</svg>
