<svg width="24" height="24" viewBox="0 0 24 24" fill="none" xmlns="http://www.w3.org/2000/svg">
<path fill-rule="evenodd" clip-rule="evenodd" d="M12 3C9.79086 3 8 4.79086 8 7V8H7C4.80497 8 3.5 9.28211 3.5 10.5C3.5 11.233 3.7651 11.815 4.26518 12.2318C4.78401 12.6641 5.65684 13 7 13H17C18.3432 13 19.216 12.6641 19.7348 12.2318C20.2349 11.815 20.5 11.233 20.5 10.5C20.5 9.28211 19.195 8 17 8H16V7C16 4.79086 14.2091 3 12 3ZM6.07261 6.0638C6.52214 3.19476 9.00476 1 12 1C14.9952 1 17.4779 3.19476 17.9274 6.0638C20.3519 6.39838 22.5 8.02966 22.5 10.5C22.5 11.767 22.0151 12.935 21.0152 13.7682C20.034 14.5859 18.6568 15 17 15H7C5.34316 15 3.96599 14.5859 2.98482 13.7682C1.9849 12.935 1.5 11.767 1.5 10.5C1.5 8.02966 3.64807 6.39838 6.07261 6.0638ZM7 16.5C7.55228 16.5 8 16.9477 8 17.5V18C8 18.5523 7.55228 19 7 19C6.44772 19 6 18.5523 6 18V17.5C6 16.9477 6.44772 16.5 7 16.5ZM12 16.5C12.5523 16.5 13 16.9477 13 17.5V18C13 18.5523 12.5523 19 12 19C11.4477 19 11 18.5523 11 18V17.5C11 16.9477 11.4477 16.5 12 16.5ZM17 16.5C17.5523 16.5 18 16.9477 18 17.5V18C18 18.5523 17.5523 19 17 19C16.4477 19 16 18.5523 16 18V17.5C16 16.9477 16.4477 16.5 17 16.5ZM6 20.5C6.55228 20.5 7 20.9477 7 21.5V22C7 22.5523 6.55228 23 6 23C5.44772 23 5 22.5523 5 22V21.5C5 20.9477 5.44772 20.5 6 20.5ZM11 20.5C11.5523 20.5 12 20.9477 12 21.5V22C12 22.5523 11.5523 23 11 23C10.4477 23 10 22.5523 10 22V21.5C10 20.9477 10.4477 20.5 11 20.5ZM16 20.5C16.5523 20.5 17 20.9477 17 21.5V22C17 22.5523 16.5523 23 16 23C15.4477 23 15 22.5523 15 22V21.5C15 20.9477 15.4477 20.5 16 20.5Z" fill="black"/>
</svg>
