<svg width="24" height="24" viewBox="0 0 24 24" fill="none" xmlns="http://www.w3.org/2000/svg">
<path fill-rule="evenodd" clip-rule="evenodd" d="M11.7133 0.0420329C12.1367 -0.0846193 12.593 0.0816101 12.8356 0.450902L22.0356 14.4509C22.2375 14.7581 22.2546 15.1513 22.08 15.4749C21.9055 15.7984 21.5675 16.0001 21.1999 16.0001H12.9999V17.0293H20.9999C21.5522 17.0293 21.9999 17.4771 21.9999 18.0293C21.9999 19.1538 21.4186 20.031 20.6585 20.669C19.9129 21.2948 18.9362 21.7477 17.9395 22.078C15.9406 22.7404 13.5803 23.0001 11.9999 23.0001C10.4195 23.0001 8.05927 22.7404 6.06038 22.078C5.06371 21.7477 4.08695 21.2948 3.3414 20.669C2.58131 20.031 1.99994 19.1538 1.99994 18.0293C1.99994 17.4771 2.44766 17.0293 2.99994 17.0293H10.9999V16.0001H2.79993C2.42278 16.0001 2.07772 15.7879 1.90753 15.4513C1.73735 15.1148 1.77099 14.7111 1.99455 14.4073L10.9999 2.17175L10.9999 1.00008C10.9999 0.558188 11.29 0.168685 11.7133 0.0420329ZM10.9999 5.5458L4.77758 14.0001H10.9999L10.9999 5.5458ZM12.9999 14.0001H19.3462L12.9999 4.34273L12.9999 14.0001ZM4.5057 19.0293C4.54373 19.0651 4.58421 19.101 4.62724 19.1371C5.10044 19.5343 5.81118 19.8884 6.6895 20.1795C8.44062 20.7598 10.5803 21.0001 11.9999 21.0001C13.4195 21.0001 15.5593 20.7598 17.3104 20.1795C18.1887 19.8884 18.8995 19.5343 19.3726 19.1371C19.4157 19.101 19.4562 19.0651 19.4942 19.0293H11.9999H4.5057Z" fill="black"/>
</svg>
