<svg width="24" height="24" viewBox="0 0 24 24" fill="none" xmlns="http://www.w3.org/2000/svg">
<g clip-path="url(#clip0)">
<path fill-rule="evenodd" clip-rule="evenodd" d="M11.7133 0.0419719C12.1367 -0.0846803 12.593 0.081549 12.8356 0.450841L22.0356 14.4508C22.2375 14.7581 22.2546 15.1513 22.08 15.4748C21.9055 15.7983 21.5675 16 21.1999 16H12.9999V17.0293H20.9999C21.5522 17.0293 21.9999 17.477 21.9999 18.0293C21.9999 19.1538 21.4186 20.0309 20.6585 20.6689C19.9129 21.2947 18.9362 21.7476 17.9395 22.0779C15.9406 22.7403 13.5803 23 11.9999 23C10.4196 23 8.05927 22.7403 6.06038 22.0779C5.06371 21.7476 4.08695 21.2947 3.3414 20.6689C2.58131 20.0309 1.99994 19.1538 1.99994 18.0293C1.99994 17.477 2.44766 17.0293 2.99994 17.0293H10.9999V16H2.79993C2.42278 16 2.07772 15.7878 1.90753 15.4513C1.73735 15.1147 1.77099 14.711 1.99455 14.4073L10.9999 2.17169L10.9999 1.00002C10.9999 0.558127 11.29 0.168624 11.7133 0.0419719ZM10.9999 5.54574L4.77758 14H10.9999L10.9999 5.54574ZM12.9999 14H19.3462L12.9999 4.34267L12.9999 14ZM4.5057 19.0293C4.54373 19.065 4.58421 19.1009 4.62724 19.1371C5.10044 19.5343 5.81118 19.8884 6.6895 20.1794C8.44062 20.7597 10.5803 21 11.9999 21C13.4195 21 15.5593 20.7597 17.3104 20.1794C18.1887 19.8884 18.8995 19.5343 19.3726 19.1371C19.4157 19.1009 19.4562 19.065 19.4942 19.0293H11.9999H4.5057Z" fill="black"/>
</g>
<defs>
<clipPath id="clip0">
<rect width="24" height="24" fill="white"/>
</clipPath>
</defs>
</svg>
