<svg width="24" height="24" viewBox="0 0 24 24" fill="none" xmlns="http://www.w3.org/2000/svg">
<path fill-rule="evenodd" clip-rule="evenodd" d="M11.7047 1.0446C12.1237 0.915111 12.5782 1.07374 12.8256 1.43582L21.0256 13.4358C21.2348 13.742 21.2574 14.1389 21.0843 14.4668C20.9112 14.7948 20.5708 15 20.1999 15H12.9999V16.0293H19.9999C20.5522 16.0293 20.9999 16.477 20.9999 17.0293C20.9999 19.1886 19.1756 20.4152 17.4821 21.0627C15.7119 21.7396 13.5835 22 11.9999 22C10.4164 22 8.28798 21.7396 6.5178 21.0627C4.82428 20.4152 2.99995 19.1886 2.99995 17.0293C2.99995 16.477 3.44766 16.0293 3.99995 16.0293H10.9999V15H3.79993C3.41764 15 3.06881 14.7821 2.90119 14.4385C2.73357 14.0949 2.7765 13.6858 3.0118 13.3845L10.9999 3.1558L10.9999 2.00001C10.9999 1.56146 11.2857 1.17408 11.7047 1.0446ZM10.9999 6.4052L5.8497 13H10.9999L10.9999 6.4052ZM12.9999 13H18.3054L12.9999 5.23588L12.9999 13ZM5.38386 18.0293C5.73569 18.4576 6.33885 18.8531 7.23209 19.1946C8.71191 19.7605 10.5835 20 11.9999 20C13.4164 20 15.288 19.7605 16.7678 19.1946C17.661 18.8531 18.2642 18.4576 18.616 18.0293H11.9999H5.38386Z" fill="black"/>
</svg>
