<svg width="24" height="24" viewBox="0 0 24 24" fill="none" xmlns="http://www.w3.org/2000/svg">
<path fill-rule="evenodd" clip-rule="evenodd" d="M8 7C8 4.79086 9.79086 3 12 3C14.2091 3 16 4.79086 16 7V8H17C19.195 8 20.5 9.28211 20.5 10.5C20.5 11.233 20.2349 11.815 19.7348 12.2318C19.216 12.6641 18.3432 13 17 13H12.6357L13.8517 11.0241C14.1411 10.5537 13.9945 9.93779 13.5241 9.64834C13.0537 9.35889 12.4378 9.50554 12.1483 9.9759L10.2874 13H7C5.65684 13 4.78401 12.6641 4.26518 12.2318C3.7651 11.815 3.5 11.233 3.5 10.5C3.5 9.28211 4.80497 8 7 8H8V7ZM9.05659 15H7C5.34316 15 3.96599 14.5859 2.98482 13.7682C1.9849 12.935 1.5 11.767 1.5 10.5C1.5 8.02966 3.64807 6.39838 6.07261 6.0638C6.52214 3.19476 9.00476 1 12 1C14.9952 1 17.4779 3.19476 17.9274 6.0638C20.3519 6.39838 22.5 8.02966 22.5 10.5C22.5 11.767 22.0151 12.935 21.0152 13.7682C20.034 14.5859 18.6568 15 17 15H11.4049L10.7896 16H13C13.3603 16 13.6927 16.1938 13.8702 16.5073C14.0477 16.8208 14.0429 17.2056 13.8575 17.5145L10.8575 22.5145C10.5733 22.9881 9.95908 23.1416 9.4855 22.8575C9.01192 22.5733 8.85836 21.9591 9.14251 21.4855L11.2338 18H9C8.63772 18 8.30377 17.8041 8.12705 17.4878C7.95032 17.1715 7.95847 16.7844 8.14834 16.4759L9.05659 15Z" fill="black"/>
</svg>
