<svg width="24" height="24" viewBox="0 0 24 24" fill="none" xmlns="http://www.w3.org/2000/svg">
<path fill-rule="evenodd" clip-rule="evenodd" d="M12.3212 6.01612C12.8645 5.91732 13.3851 6.27773 13.4839 6.8211L14.1012 10.2165L15.2318 8.85981C15.5854 8.43553 16.2159 8.3782 16.6402 8.73177C17.0645 9.08533 17.1218 9.7159 16.7683 10.1402L14.6499 12.6822L16.2794 16.7558L21.4138 19.0896C21.9166 19.3182 22.1389 19.911 21.9104 20.4138C21.6819 20.9166 21.089 21.1389 20.5862 20.9104L15.0862 18.4104C15.0372 18.3881 14.9901 18.3619 14.9453 18.332L11.5278 16.0537L6.17138 16.9852C5.62726 17.0798 5.10945 16.7154 5.01482 16.1713C4.9202 15.6272 5.28458 15.1094 5.8287 15.0148L9.11274 14.4436L7.44534 13.332C7.42128 13.316 7.39792 13.2989 7.37534 13.2809L2.37534 9.28086C1.94408 8.93585 1.87416 8.30656 2.21917 7.8753C2.56418 7.44403 3.19347 7.37411 3.62473 7.71912L6.40804 9.94577L6.02385 8.21692C5.90404 7.67779 6.24397 7.14361 6.78311 7.0238C7.32224 6.904 7.85642 7.24393 7.97622 7.78306L8.88906 11.8908L12.3047 14.1679L13.3758 14.882L12.5716 12.8714C12.5467 12.8092 12.5281 12.7447 12.5162 12.6789L11.5162 7.17888C11.4174 6.6355 11.7778 6.11492 12.3212 6.01612Z" fill="black"/>
</svg>
