<svg width="24" height="24" viewBox="0 0 24 24" fill="none" xmlns="http://www.w3.org/2000/svg">
<path fill-rule="evenodd" clip-rule="evenodd" d="M10.4 4.46669C11.2 3.40002 12.8 3.40002 13.6 4.46669L16.5703 8.42707L20.2567 4.33106C20.5337 4.02329 20.9717 3.91806 21.3583 4.0664C21.7448 4.21474 22 4.58597 22 5.00002V12C22 17.5229 17.5228 22 12 22C6.47715 22 2 17.5229 2 12V5.00002C2 4.58597 2.25517 4.21474 2.64174 4.0664C3.0283 3.91806 3.46631 4.02329 3.74329 4.33106L7.42971 8.42707L10.4 4.46669ZM6.52173 10.4079L4 7.60598V12C4 16.2553 7.32236 19.7346 11.5146 19.9855C11.4638 19.9573 11.4149 19.9243 11.3685 19.8865L12 19.1111L12.6315 19.8865C12.5851 19.9243 12.5362 19.9573 12.4854 19.9855C16.6776 19.7346 20 16.2553 20 12V7.60598L17.4783 10.4079C17.4751 10.4537 17.4714 10.5033 17.4673 10.5563C17.4425 10.8723 17.3998 11.3139 17.3275 11.8216C17.1853 12.8196 16.9193 14.144 16.4119 15.2715C15.8451 16.531 14.8776 17.6911 14.1005 18.5051C13.7044 18.92 13.3415 19.2616 13.0768 19.5004C12.9441 19.62 12.8354 19.7144 12.7587 19.7799C12.7203 19.8126 12.6898 19.8382 12.6683 19.8561L12.6429 19.8772L12.6354 19.8833L12.633 19.8853L12.6321 19.886L12.6318 19.8863C12.6316 19.8864 12.6315 19.8865 12 19.1111C11.3685 19.8865 11.3684 19.8864 11.3682 19.8863L11.3679 19.886L11.367 19.8853L11.3646 19.8833L11.3571 19.8772L11.3317 19.8561C11.3102 19.8382 11.2797 19.8126 11.2413 19.7799C11.1646 19.7144 11.0559 19.62 10.9232 19.5004C10.6585 19.2616 10.2956 18.92 9.89949 18.5051C9.12239 17.6911 8.15485 16.531 7.58808 15.2715C7.08069 14.144 6.81466 12.8196 6.67249 11.8216C6.60017 11.3139 6.55746 10.8723 6.53274 10.5563C6.52859 10.5033 6.52494 10.4537 6.52173 10.4079ZM15.4804 10.3072L12 5.66669L8.51962 10.3072C8.52175 10.3366 8.52408 10.3677 8.52664 10.4003C8.54879 10.6833 8.58733 11.082 8.65251 11.5396C8.78534 12.4721 9.01931 13.5783 9.41192 14.4508C9.83926 15.4004 10.6217 16.3653 11.3461 17.124C11.583 17.3722 11.807 17.5914 12 17.7731C12.193 17.5914 12.417 17.3722 12.6539 17.124C13.3783 16.3653 14.1607 15.4004 14.5881 14.4508C14.9807 13.5783 15.2147 12.4721 15.3475 11.5396C15.4127 11.082 15.4512 10.6833 15.4734 10.4003C15.4759 10.3677 15.4782 10.3366 15.4804 10.3072Z" fill="black"/>
</svg>
