<svg width="24" height="24" viewBox="0 0 24 24" fill="none" xmlns="http://www.w3.org/2000/svg">
<path fill-rule="evenodd" clip-rule="evenodd" d="M10.4 4.46663C11.2 3.39996 12.8 3.39996 13.6 4.46663L16.5703 8.42701L20.2567 4.33099C20.5337 4.02323 20.9717 3.918 21.3583 4.06634C21.7448 4.21468 22 4.58591 22 4.99996V12C22 17.5228 17.5228 22 12 22C6.47715 22 2 17.5228 2 12V4.99996C2 4.58591 2.25517 4.21468 2.64174 4.06634C3.0283 3.918 3.46631 4.02323 3.74329 4.33099L7.42971 8.42701L10.4 4.46663ZM6.52173 10.4078L4 7.60592V12C4 16.2553 7.32236 19.7346 11.5146 19.9855C11.4638 19.9572 11.4149 19.9242 11.3685 19.8865L12 19.1111L12.6315 19.8865C12.5851 19.9242 12.5362 19.9572 12.4854 19.9855C16.6776 19.7346 20 16.2553 20 12V7.60592L17.4783 10.4078C17.4751 10.4537 17.4714 10.5032 17.4673 10.5563C17.4425 10.8722 17.3998 11.3138 17.3275 11.8215C17.1853 12.8196 16.9193 14.1439 16.4119 15.2714C15.8451 16.5309 14.8776 17.6911 14.1005 18.505C13.7044 18.9199 13.3415 19.2616 13.0768 19.5003C12.9441 19.6199 12.8354 19.7143 12.7587 19.7798C12.7203 19.8125 12.6898 19.8381 12.6683 19.856L12.6429 19.8771L12.6354 19.8833L12.633 19.8852L12.6321 19.8859L12.6318 19.8862C12.6316 19.8863 12.6315 19.8865 12 19.1111C11.3685 19.8865 11.3684 19.8863 11.3682 19.8862L11.3679 19.8859L11.367 19.8852L11.3646 19.8833L11.3571 19.8771L11.3317 19.856C11.3102 19.8381 11.2797 19.8125 11.2413 19.7798C11.1646 19.7143 11.0559 19.6199 10.9232 19.5003C10.6585 19.2616 10.2956 18.9199 9.89949 18.505C9.12239 17.6911 8.15485 16.5309 7.58808 15.2714C7.08069 14.1439 6.81466 12.8196 6.67249 11.8215C6.60017 11.3138 6.55746 10.8722 6.53274 10.5563C6.52859 10.5032 6.52494 10.4537 6.52173 10.4078ZM15.4804 10.3071L12 5.66663L8.51962 10.3071C8.52175 10.3365 8.52408 10.3676 8.52664 10.4002C8.54879 10.6833 8.58733 11.0819 8.65251 11.5395C8.78534 12.472 9.01931 13.5782 9.41192 14.4507C9.83926 15.4003 10.6217 16.3652 11.3461 17.124C11.583 17.3721 11.807 17.5913 12 17.773C12.193 17.5913 12.417 17.3721 12.6539 17.124C13.3783 16.3652 14.1607 15.4003 14.5881 14.4507C14.9807 13.5782 15.2147 12.472 15.3475 11.5395C15.4127 11.0819 15.4512 10.6833 15.4734 10.4002C15.4759 10.3676 15.4782 10.3365 15.4804 10.3071Z" fill="black"/>
</svg>
