<svg width="24" height="24" viewBox="0 0 24 24" fill="none" xmlns="http://www.w3.org/2000/svg">
<path fill-rule="evenodd" clip-rule="evenodd" d="M12 2C12.5523 2 13 2.44772 13 3V3.03926C15.5085 3.23663 17.8896 4.17295 19.7187 5.72765C21.7944 7.49198 23 9.92314 23 12.5C23 13.0377 22.5748 13.4792 22.0375 13.4993C21.5001 13.5194 21.0431 13.1111 21.0028 12.5749C20.9722 12.1675 20.7466 11.7452 20.2954 11.4232C19.8386 11.0972 19.2056 10.9193 18.5333 10.9697C17.8609 11.0201 17.2616 11.2905 16.8586 11.681C16.5042 12.0244 16.3385 12.4198 16.3281 12.7899C16.332 12.8596 16.334 12.9297 16.334 13C16.334 13.5377 15.9088 13.9792 15.3715 13.9993C14.8341 14.0194 14.3771 13.6111 14.3368 13.0749C14.3312 13.0004 14.3281 12.9261 14.3275 12.8521C14.2886 12.4073 14.0741 11.9687 13.6888 11.6219C13.4915 11.4444 13.2578 11.2992 13 11.1938V20C13 20.2652 13.1054 20.5196 13.2929 20.7071C13.4804 20.8946 13.7348 21 14 21C14.2652 21 14.5196 20.8946 14.7071 20.7071C14.8946 20.5196 15 20.2652 15 20V19C15 18.4477 15.4477 18 16 18C16.5523 18 17 18.4477 17 19V20C17 20.7957 16.6839 21.5587 16.1213 22.1213C15.5587 22.6839 14.7957 23 14 23C13.2043 23 12.4413 22.6839 11.8787 22.1213C11.3161 21.5587 11 20.7957 11 20V11.1946C10.743 11.2999 10.51 11.4448 10.3132 11.6219C9.92794 11.9687 9.71341 12.4073 9.67447 12.8521C9.67386 12.9261 9.67079 13.0004 9.66519 13.0749C9.62494 13.6111 9.16787 14.0194 8.63054 13.9993C8.09321 13.9792 7.668 13.5377 7.668 13C7.668 12.9297 7.66999 12.8597 7.67394 12.79C7.66353 12.4198 7.49782 12.0244 7.14337 11.681C6.7404 11.2905 6.14107 11.0201 5.46874 10.9697C4.79641 10.9193 4.16339 11.0972 3.70658 11.4232C3.25539 11.7452 3.02978 12.1675 2.99919 12.5749C2.96002 13.0966 2.52524 13.5 2.002 13.5H2C1.73478 13.5 1.48043 13.3946 1.29289 13.2071C1.10536 13.0196 1 12.7652 1 12.5C1 9.92314 2.2056 7.49198 4.28128 5.72765C6.11035 4.17295 8.49152 3.23663 11 3.03926V3C11 2.44772 11.4477 2 12 2ZM8.69699 10.4107C8.78482 10.3151 8.87764 10.2232 8.97521 10.1354C9.793 9.39933 10.8814 9.0009 11.9972 9C11.9982 9 11.9991 9 12 9C12.0003 9 12.0007 9 12.001 9C13.1182 9 14.2081 9.3985 15.0268 10.1354C15.1244 10.2232 15.2172 10.3151 15.305 10.4107C15.3572 10.354 15.4111 10.2986 15.4669 10.2446C16.2358 9.49957 17.2881 9.05749 18.3837 8.97532C18.943 8.93337 19.5051 8.98584 20.0373 9.13001C19.6251 8.44842 19.0845 7.81344 18.4234 7.25153C16.7434 5.82354 14.4347 5 12 5C9.56527 5 7.25657 5.82354 5.57658 7.25153C4.9153 7.81362 4.37457 8.44882 3.96228 9.13066C4.49524 8.986 5.0582 8.9333 5.61833 8.97532C6.71394 9.05749 7.76619 9.49957 8.53512 10.2446C8.59085 10.2986 8.64483 10.354 8.69699 10.4107Z" fill="black"/>
</svg>
