<svg width="24" height="24" viewBox="0 0 24 24" fill="none" xmlns="http://www.w3.org/2000/svg">
<path fill-rule="evenodd" clip-rule="evenodd" d="M16.2205 3.75326C14.892 -0.335234 9.10791 -0.335233 7.77948 3.75326C7.45313 4.75764 6.51717 5.43766 5.46109 5.43766C1.1622 5.43766 -0.6252 10.9387 2.85268 13.4655C3.70706 14.0863 4.06457 15.1866 3.73822 16.191C2.40979 20.2794 7.08925 23.6793 10.5671 21.1524C11.4215 20.5317 12.5784 20.5317 13.4328 21.1524C16.9107 23.6793 21.5902 20.2794 20.2617 16.191C19.9354 15.1866 20.2929 14.0863 21.1473 13.4655C24.6252 10.9387 22.8378 5.43766 18.5389 5.43766C17.4828 5.43766 16.5468 4.75764 16.2205 3.75326ZM9.68159 4.37129C10.4113 2.12542 13.5886 2.12542 14.3184 4.37129C14.9125 6.19972 16.6163 7.43766 18.5389 7.43766C20.9003 7.43766 21.8822 10.4595 19.9717 11.8475C18.4163 12.9775 17.7655 14.9806 18.3596 16.809C19.0893 19.0549 16.5188 20.9224 14.6084 19.5344C13.053 18.4044 10.9469 18.4044 9.39156 19.5344C7.48111 20.9224 4.91061 19.0549 5.64034 16.809C6.23443 14.9806 5.58361 12.9775 4.02825 11.8475C2.1178 10.4595 3.09964 7.43766 5.46109 7.43766C7.38362 7.43766 9.0875 6.19972 9.68159 4.37129ZM9.99998 12C9.99998 10.8954 10.8954 9.99997 12 9.99997C13.1045 9.99997 14 10.8954 14 12C14 13.1045 13.1045 14 12 14C10.8954 14 9.99998 13.1045 9.99998 12ZM12 7.99997C9.79084 7.99997 7.99998 9.79083 7.99998 12C7.99998 14.2091 9.79084 16 12 16C14.2091 16 16 14.2091 16 12C16 9.79083 14.2091 7.99997 12 7.99997Z" fill="black"/>
</svg>
