<svg width="24" height="24" viewBox="0 0 24 24" fill="none" xmlns="http://www.w3.org/2000/svg">
<path fill-rule="evenodd" clip-rule="evenodd" d="M7 5C7 2.79086 8.79086 1 11 1C13.2091 1 15 2.79086 15 5C15 7.20914 13.2091 9 11 9H3C2.44772 9 2 8.55228 2 8C2 7.44772 2.44772 7 3 7H11C12.1046 7 13 6.10457 13 5C13 3.89543 12.1046 3 11 3C9.89543 3 9 3.89543 9 5V5.1C9 5.65228 8.55228 6.1 8 6.1C7.44772 6.1 7 5.65228 7 5.1V5ZM16.9 6C16.9 5.44772 17.3477 5 17.9 5H18C20.2091 5 22 6.79086 22 9C22 11.2091 20.2091 13 18 13H5C4.44772 13 4 12.5523 4 12C4 11.4477 4.44772 11 5 11H18C19.1046 11 20 10.1046 20 9C20 7.89543 19.1046 7 18 7H17.9C17.3477 7 16.9 6.55228 16.9 6ZM0 12C0 11.4477 0.447715 11 1 11H2C2.55228 11 3 11.4477 3 12C3 12.5523 2.55228 13 2 13H1C0.447715 13 0 12.5523 0 12ZM4 16C4 15.4477 4.44772 15 5 15H6C6.55228 15 7 15.4477 7 16C7 16.5523 6.55228 17 6 17H5C4.44772 17 4 16.5523 4 16ZM8 16C8 15.4477 8.44772 15 9 15H13C15.2091 15 17 16.7909 17 19C17 21.2091 15.2091 23 13 23C10.7909 23 9 21.2091 9 19V18.9C9 18.3477 9.44771 17.9 10 17.9C10.5523 17.9 11 18.3477 11 18.9V19C11 20.1046 11.8954 21 13 21C14.1046 21 15 20.1046 15 19C15 17.8954 14.1046 17 13 17H9C8.44772 17 8 16.5523 8 16Z" fill="black"/>
</svg>
