<svg width="24" height="24" fill="none" xmlns="http://www.w3.org/2000/svg"><path fill-rule="evenodd" clip-rule="evenodd" d="M19.416 8.36c1.654-2.749-.983-6.311-4.108-5.25-1.11-3.08-5.507-3.08-6.616 0C5.567 2.05 2.93 5.611 4.584 8.36c-2.696 1.768-1.775 6.118 1.463 6.531A3.495 3.495 0 0 0 7 17.68v4.419a1.5 1.5 0 0 0 2.295 1.272L12 21.68l2.705 1.69A1.5 1.5 0 0 0 17 22.098v-4.419a3.495 3.495 0 0 0 .953-2.788c3.238-.413 4.159-4.763 1.463-6.53zM9 21.196v-2.45a3.38 3.38 0 0 0 3-.933 3.38 3.38 0 0 0 3 .932v2.45l-2.47-1.543-.53-.331-.53.331L9 21.196zm1.513-17.208c.393-1.584 2.58-1.584 2.974 0 .018.074.042.146.07.216a6.008 6.008 0 0 0-3.114 0c.028-.07.052-.142.07-.216zM8.248 5.084c.067.03.135.057.203.078a6.022 6.022 0 0 0-1.96 2.455 1.666 1.666 0 0 0-.088-.132c-1.022-1.367.466-3.037 1.845-2.401zm-2.246 4.76c-.05.033-.101.064-.155.092-1.46.757-.904 2.95.656 2.986.093.003.184.012.272.03a5.972 5.972 0 0 1-.773-3.108zm2.097 4.715c0 .11-.01.221-.033.333-.138.689.126 1.228.55 1.56.633.496 1.533.498 2.125-.222.097-.119.207-.22.325-.302a5.976 5.976 0 0 1-2.967-1.37zm4.835 1.369c.118.083.228.183.325.302.592.72 1.492.718 2.124.222.425-.332.689-.871.55-1.56a1.653 1.653 0 0 1-.032-.333 5.976 5.976 0 0 1-2.967 1.369zm4.291-2.977c.088-.017.179-.026.272-.029 1.56-.036 2.116-2.229.656-2.986a1.658 1.658 0 0 1-.155-.092L18 10c0 1.073-.282 2.08-.775 2.951zm.283-5.334c.027-.045.057-.089.089-.132 1.022-1.367-.466-3.037-1.845-2.401a1.67 1.67 0 0 1-.203.078 6.021 6.021 0 0 1 1.959 2.455zM8 10a4 4 0 1 1 8 0 4 4 0 0 1-8 0z" fill="#000"/></svg>