<svg width="24" height="24" fill="none" xmlns="http://www.w3.org/2000/svg"><path fill-rule="evenodd" clip-rule="evenodd" d="M5.24 1.35A1 1 0 0 1 6 1h12a1 1 0 0 1 .76.35l3 3.5a1 1 0 0 1 .068 1.21l-4.993 7.386a6 6 0 1 1-9.67 0L2.172 6.06a1 1 0 0 1 .069-1.21l3-3.5zm3.387 10.687a5.977 5.977 0 0 1 1.742-.812l-2.826-4.71-1.687-2.81-1.6 1.867 4.37 6.465zM7.767 3l1.2 2h6.067l1.2-2H7.766zm10.377.704l1.6 1.868-4.37 6.465a5.976 5.976 0 0 0-1.743-.812l2.826-4.71 1.687-2.81zM12 10.056L13.834 7h-3.668L12 10.056zM12 13a3.985 3.985 0 0 0-2.866 1.21A4 4 0 1 0 12 13z" fill="#000"/></svg>