<svg width="24" height="24" fill="none" xmlns="http://www.w3.org/2000/svg"><path fill-rule="evenodd" clip-rule="evenodd" d="M4 3a1 1 0 0 0-1 1v8c0 2.61.677 4.843 2.156 6.695 1.466 1.834 3.648 3.207 6.502 4.245a1 1 0 0 0 .684 0c2.854-1.038 5.036-2.41 6.502-4.245C20.323 16.843 21 14.61 21 12V4a1 1 0 0 0-1-1H4zm1 9V5h14v7c0 2.244-.573 4.012-1.719 5.446-1.109 1.389-2.82 2.547-5.281 3.487-2.462-.94-4.172-2.098-5.281-3.487C5.573 16.012 5 14.244 5 12zm8-4a1 1 0 1 0-2 0v2H9a1 1 0 1 0 0 2h2v4a1 1 0 1 0 2 0v-4h2a1 1 0 1 0 0-2h-2V8z" fill="#000"/></svg>