<svg width="24" height="24" fill="none" xmlns="http://www.w3.org/2000/svg"><path fill-rule="evenodd" clip-rule="evenodd" d="M12 4a8 8 0 1 0 0 16 8 8 0 0 0 0-16zM2 12C2 6.477 6.477 2 12 2s10 4.477 10 10-4.477 10-10 10S2 17.523 2 12zm14.95-4.95a1 1 0 0 1 0 1.414l-3.018 3.018a2 2 0 0 1-2.45 2.45L8.464 16.95a1 1 0 0 1-1.414-1.414l3.018-3.018a2 2 0 0 1 2.45-2.45l3.018-3.018a1 1 0 0 1 1.414 0zM7 12a1 1 0 1 1-2 0 1 1 0 0 1 2 0zm11 1a1 1 0 1 0 0-2 1 1 0 0 0 0 2zm-5 5a1 1 0 1 1-2 0 1 1 0 0 1 2 0zM12 7a1 1 0 1 0 0-2 1 1 0 0 0 0 2z" fill="#000"/></svg>