<svg width="24" height="24" fill="none" xmlns="http://www.w3.org/2000/svg"><path fill-rule="evenodd" clip-rule="evenodd" d="M1.276 14.448a1 1 0 0 1 .752-1.198l1.52-.347a8.46 8.46 0 0 1 1.229-5.385l-1.219-.971a1 1 0 1 1 1.247-1.564l1.22.972A8.474 8.474 0 0 1 11 3.558V2a1 1 0 1 1 2 0v1.558a8.474 8.474 0 0 1 4.976 2.397l1.219-.972a1 1 0 1 1 1.247 1.564l-1.218.971a8.46 8.46 0 0 1 1.229 5.385l1.519.347a1 1 0 0 1-.445 1.95l-1.518-.346a8.526 8.526 0 0 1-3.445 4.318l.676 1.404a1 1 0 0 1-1.802.868l-.676-1.403A8.49 8.49 0 0 1 12 20.5a8.49 8.49 0 0 1-2.762-.459l-.676 1.403a1 1 0 0 1-1.802-.868l.676-1.404a8.526 8.526 0 0 1-3.445-4.318l-1.518.346a1 1 0 0 1-1.197-.752zm7.036 2.905a6.522 6.522 0 0 1-2.353-2.949l4.239-.967-1.886 3.916zM12 18.5c-.656 0-1.29-.097-1.886-.278L12 14.305l1.886 3.917c-.597.18-1.23.278-1.886.278zm6.04-4.095a6.523 6.523 0 0 1-2.352 2.948l-1.886-3.916 4.239.968zM18.5 12c0 .153-.005.304-.016.454l-4.237-.967 3.399-2.71c.543.95.854 2.05.854 3.223zM13 5.576c1.3.201 2.473.787 3.398 1.638L13 9.924V5.575zM7.602 7.214A6.478 6.478 0 0 1 11 5.576v4.347l-3.398-2.71zm2.151 4.273l-3.399-2.71a6.47 6.47 0 0 0-.838 3.677l4.237-.967zM12 13.5a1.5 1.5 0 1 0 0-3 1.5 1.5 0 0 0 0 3z" fill="#000"/></svg>