<svg width="24" height="24" fill="none" xmlns="http://www.w3.org/2000/svg"><path fill="#fff" d="M0 0h24v24H0z"/><path fill-rule="evenodd" clip-rule="evenodd" d="M17.214 2.6a1 1 0 0 0-1.407.007L9.621 8.793a1 1 0 0 0 0 1.414l.086.086 4 4 .091.091a1 1 0 0 0 1.412.003l6.252-6.204a1 1 0 0 0-.004-1.424L17.214 2.6zm-2.821-1.407a3 3 0 0 1 4.221-.021l4.244 4.158a3 3 0 0 1 .013 4.273l-6.252 6.204a3.001 3.001 0 0 1-3.528.516l-3.384 3.384c-.69.69-1.695.875-2.554.554l-1.77 1.77a1 1 0 0 1-1.59 1.176l-.5-.5-2-2-.5-.5a1 1 0 0 1 1.176-1.59l1.77-1.77a2.415 2.415 0 0 1 .554-2.554l3.385-3.385a3.001 3.001 0 0 1 .53-3.53l6.185-6.185zM9 12.414l-3.293 3.293a.414.414 0 0 0 0 .586l2 2a.414.414 0 0 0 .586 0L11.586 15 9 12.414zm-4 6L3.414 20l.586.586L5.586 19 5 18.414z" fill="#000"/></svg>