<svg width="24" height="24" fill="none" xmlns="http://www.w3.org/2000/svg"><path fill-rule="evenodd" clip-rule="evenodd" d="M14.753.79a2 2 0 0 1 2.814-.014l5.675 5.562a2 2 0 0 1 .01 2.848l-6.882 6.828a3.131 3.131 0 0 1-3.595.583l-3.408 3.408c-.69.69-1.695.875-2.554.554l-1.77 1.77a1 1 0 0 1-1.59 1.176l-.5-.5-2-2-.5-.5a1 1 0 0 1 1.176-1.59l1.77-1.77a2.415 2.415 0 0 1 .554-2.554l3.409-3.409a3.123 3.123 0 0 1 .59-3.591l6.8-6.8zM8.66 12.713l-3.293 3.293a.414.414 0 0 0 0 .586l2 2a.414.414 0 0 0 .586 0l3.293-3.293-2.586-2.586zm-4 6l-1.586 1.586.586.586 1.586-1.586-.586-.586zM21.842 7.766l-5.675-5.561-6.8 6.8a1.121 1.121 0 0 0 0 1.586l4 4a1.13 1.13 0 0 0 1.594.003l6.881-6.828z" fill="#000"/></svg>