<svg width="24" height="24" fill="none" xmlns="http://www.w3.org/2000/svg"><path fill-rule="evenodd" clip-rule="evenodd" d="M19.707 5.707a1 1 0 0 0-1.414-1.414l-4.261 4.26a4 4 0 0 0-5.478 5.478l-4.261 4.262a1 1 0 1 0 1.414 1.414l4.261-4.26a4 4 0 0 0 5.478-5.478l4.261-4.262zm-7.189 4.36a2 2 0 0 0-2.45 2.45l2.45-2.45zm-1.036 3.865l2.45-2.45a2 2 0 0 1-2.45 2.45zm4.283-9.111C14.63 4.32 13.367 4 12 4 9.148 4 6.757 5.395 4.998 6.906c-1.765 1.517-2.99 3.232-3.534 4.064a1.876 1.876 0 0 0 0 2.06 20.304 20.304 0 0 0 2.748 3.344l1.414-1.414A18.315 18.315 0 0 1 3.18 12c.51-.773 1.598-2.268 3.121-3.577C7.874 7.072 9.816 6 12 6a7.06 7.06 0 0 1 2.22.367l1.545-1.546zM12 18a7.06 7.06 0 0 1-2.22-.367L8.236 19.18c1.136.5 2.398.821 3.765.821 2.852 0 5.243-1.395 7.002-2.906 1.765-1.517 2.99-3.232 3.534-4.064.411-.628.411-1.431 0-2.06a20.303 20.303 0 0 0-2.748-3.344L18.374 9.04A18.312 18.312 0 0 1 20.82 12c-.51.773-1.598 2.268-3.121 3.577C16.126 16.928 14.184 18 12 18z" fill="#000"/></svg>