<svg width="24" height="24" fill="none" xmlns="http://www.w3.org/2000/svg"><path fill-rule="evenodd" clip-rule="evenodd" d="M12 4C9.148 4 6.757 5.395 4.998 6.906c-1.765 1.517-2.99 3.232-3.534 4.064a1.876 1.876 0 0 0 0 2.06c.544.832 1.769 2.547 3.534 4.064C6.758 18.605 9.148 20 12 20c2.852 0 5.243-1.395 7.002-2.906 1.765-1.517 2.99-3.232 3.534-4.064.411-.628.411-1.431 0-2.06-.544-.832-1.769-2.547-3.534-4.064C17.242 5.395 14.852 4 12 4zm-2.5 8a2.5 2.5 0 1 1 5 0 2.5 2.5 0 0 1-5 0zM12 7.5a4.5 4.5 0 1 0 0 9 4.5 4.5 0 0 0 0-9z" fill="#000"/></svg>