<svg width="24" height="24" fill="none" xmlns="http://www.w3.org/2000/svg"><path fill-rule="evenodd" clip-rule="evenodd" d="M11 5a1 1 0 1 1 2 0 1 1 0 0 1-2 0zm2.327 2.691a3 3 0 1 0-2.654 0L8.506 13.47l-3.44-2.294a3 3 0 1 0-2.874.714L3.969 19l-.628 2.515A2 2 0 0 0 5.28 24h13.438a2 2 0 0 0 1.94-2.485L20.032 19l1.777-7.11a3.001 3.001 0 1 0-2.874-.715l-3.44 2.294-2.167-5.778zM21 10a1 1 0 1 0 0-2 1 1 0 0 0 0 2zM4 9a1 1 0 1 1-2 0 1 1 0 0 1 2 0zm1.28 13l.5-2h12.44l.5 2H5.28zm14.122-8.733L18.22 18H5.781l-1.184-4.733 3.848 2.565a1 1 0 0 0 1.491-.48L12 9.847l2.064 5.503a1 1 0 0 0 1.49.481l3.848-2.565z" fill="#000"/></svg>