<svg width="24" height="24" fill="none" xmlns="http://www.w3.org/2000/svg"><path fill-rule="evenodd" clip-rule="evenodd" d="M6.952 3.999c-2.049-.098-2.862.005-3.508.651-.194.195-.333.526-.404.977-.059.378-.057.73-.055 1.014l.001.14c0 .274.011.653.126.945.051.131.103.19.136.215.019.015.078.059.252.059.13 0 .174-.034.203-.06a.74.74 0 0 0 .173-.291A2.085 2.085 0 0 0 4 6.998v-.004A1 1 0 0 1 5 6h11.15c.018-.302-.014-.491-.044-.553-.128-.255-.23-.355-.62-.59-.415-.248-.745-.262-1.237-.181-.112.018-.25.048-.408.08C13.358 4.86 12.686 5 12 5c-.967 0-1.948-.275-2.774-.51l-.06-.016c-.858-.244-1.564-.444-2.214-.475zM16 8H6v12a1 1 0 0 0 1 1h8a1 1 0 0 0 1-1V8zM4 9.95c-.158.033-.325.05-.5.05-.576 0-1.081-.167-1.486-.485a2.472 2.472 0 0 1-.765-1.06C.986 7.78.986 7.061.986 6.792v-.012-.104a8.23 8.23 0 0 1 .079-1.36c.098-.63.336-1.452.965-2.081C3.384 1.882 5.12 1.909 7.048 2c.886.042 1.797.302 2.576.523l.148.043C10.642 2.813 11.357 3 12 3c.466 0 .81-.073 1.222-.16.208-.045.434-.093.7-.137.762-.126 1.626-.14 2.593.44.555.333 1.013.678 1.38 1.41.313.627.276 1.382.23 1.814A6.564 6.564 0 0 1 18 7.12V8h1a3 3 0 0 1 3 3v5a3 3 0 0 1-3 3h-1v1a3 3 0 0 1-3 3H7a3 3 0 0 1-3-3V9.95zM18 17h1a1 1 0 0 0 1-1v-5a1 1 0 0 0-1-1h-1v7zm-5-5a1 1 0 1 1-2 0 1 1 0 0 1 2 0zm-4.5 0a1.5 1.5 0 1 0 0-3 1.5 1.5 0 0 0 0 3zm1.5 3a1 1 0 1 1-2 0 1 1 0 0 1 2 0zm3 3a1 1 0 1 0 0-2 1 1 0 0 0 0 2z" fill="#000"/></svg>