<svg width="24" height="24" fill="none" xmlns="http://www.w3.org/2000/svg"><path fill-rule="evenodd" clip-rule="evenodd" d="M14 3.125C14 4.161 13.104 5 12 5c-1.105 0-2-.84-2-1.875C10 2.089 12 0 12 0s2 2.09 2 3.125zM.46 13.642l1.86 1.19 1.705 7.393A1 1 0 0 0 5 23h14a1 1 0 0 0 .974-.775l1.706-7.393 1.859-1.19a1 1 0 1 0-1.078-1.684l-.535.342C21.59 9.923 19.55 8 16.972 8H13V7a1 1 0 1 0-2 0v1H7.028C4.45 8 2.41 9.923 2.074 12.3l-.535-.342A1 1 0 0 0 .46 13.642zM5.796 21l-1.142-4.95a5 5 0 0 0 4.076-.667l1.607-1.072a3 3 0 0 1 3.328 0l1.607 1.072a5 5 0 0 0 4.076.667L18.204 21H5.795zm11.177-11a3 3 0 0 1 2.941 3.588l-.251.161a3 3 0 0 1-3.282-.03l-1.607-1.072a5 5 0 0 0-5.547 0L7.62 13.72a3 3 0 0 1-3.28.03l-.253-.161A3 3 0 0 1 7.028 10h9.944zM9 18a1 1 0 1 0-2 0v1a1 1 0 1 0 2 0v-1zm4 0a1 1 0 1 0-2 0v1a1 1 0 1 0 2 0v-1zm4 0a1 1 0 1 0-2 0v1a1 1 0 1 0 2 0v-1z" fill="#000"/></svg>