<svg width="24" height="24" fill="none" xmlns="http://www.w3.org/2000/svg"><path fill-rule="evenodd" clip-rule="evenodd" d="M5 10a5 5 0 0 1 5-5h4a5 5 0 0 1 5 5v.838a2.627 2.627 0 0 0-4.018.022c-.25.3-.713.3-.964 0a2.627 2.627 0 0 0-4.036 0c-.25.3-.713.3-.964 0A2.627 2.627 0 0 0 5 10.838V10zm16 0v.5a1 1 0 0 1 .707 1.707l-.182.183c-.37.37-.82.609-1.291.72a2.501 2.501 0 0 1 .669 4.46c.062.13.097.276.097.43v.5a3.5 3.5 0 0 1-3.5 3.5h-11A3.5 3.5 0 0 1 3 18.5V18c0-.154.035-.3.097-.43a2.501 2.501 0 0 1 .669-4.46c-.472-.111-.92-.35-1.29-.72l-.183-.183A1 1 0 0 1 3 10.5V10a7 7 0 0 1 7-7h4a7 7 0 0 1 7 7zM5.36 13h3.473a2.608 2.608 0 0 1-1.351-.86.627.627 0 0 0-.964 0l-.057.069A2.687 2.687 0 0 1 5.36 13zm4.807 0h3.666a2.608 2.608 0 0 1-1.351-.86.627.627 0 0 0-.964 0c-.367.44-.843.727-1.35.86zm5 0h3.473a2.687 2.687 0 0 1-1.101-.791l-.057-.069a.627.627 0 0 0-.964 0c-.367.44-.843.727-1.35.86zM5 18v.5A1.5 1.5 0 0 0 6.5 20h11a1.5 1.5 0 0 0 1.5-1.5V18H5zm-1-2.5a.5.5 0 0 1 .5-.5h15a.5.5 0 0 1 0 1h-15a.5.5 0 0 1-.5-.5z" fill="#000"/></svg>