<svg width="24" height="24" fill="none" xmlns="http://www.w3.org/2000/svg"><path fill-rule="evenodd" clip-rule="evenodd" d="M17.5 4a1.5 1.5 0 1 0-1.242-2.342c-2.785.513-5.185 1.973-6.94 3.61-1 .934-1.813 1.946-2.383 2.912-.368.624-.66 1.273-.814 1.897A5.001 5.001 0 0 0 7 20c1.39 0 2.646-.567 3.553-1.482a6 6 0 1 0 5.292-8.516 10.02 10.02 0 0 1-.037-2.218c.138-1.423.598-2.784 1.514-3.794.059.006.118.01.178.01zm-.5 8.5c0-.134-.017-.263-.05-.387A4.002 4.002 0 0 1 16 20a4 4 0 0 1-2-7.465 1.5 1.5 0 0 0 3-.035zm-3.183-4.909c-.093.963-.06 1.923.062 2.795a6.016 6.016 0 0 0-2.64 1.962 5.008 5.008 0 0 0-3.045-2.205c.105-.277.257-.595.464-.948.462-.784 1.15-1.647 2.024-2.464 1.13-1.055 2.537-1.998 4.121-2.596-.58 1.103-.875 2.312-.986 3.456zm-5.83 4.575a1 1 0 0 1-1.973 0A3.001 3.001 0 0 0 7 18a3 3 0 0 0 .986-5.834z" fill="#000"/></svg>