<svg width="24" height="24" fill="none" xmlns="http://www.w3.org/2000/svg"><path fill-rule="evenodd" clip-rule="evenodd" d="M16.242.03a1 1 0 0 1 .728 1.213l-.699 2.794a1 1 0 0 1 .587.449L19 8.056l2.142-3.57a1 1 0 0 1 1.716 1.028l-2.907 4.844-1.818 10A2 2 0 0 1 16.165 22h-8.33a2 2 0 0 1-1.968-1.642l-1.818-10-2.906-4.844a1 1 0 1 1 1.714-1.029L5 8.056l2.143-3.57A1 1 0 0 1 8 4h3V1a1 1 0 1 1 2 0v3h1.22l.81-3.243A1 1 0 0 1 16.243.03zM15.434 6H8.566l-1.8 3h10.468l-1.8-3zm2.368 5H6.198l1.637 9h8.33l1.637-9z" fill="#000"/></svg>