<svg width="24" height="24" fill="none" xmlns="http://www.w3.org/2000/svg"><path fill-rule="evenodd" clip-rule="evenodd" d="M9 2a1 1 0 1 0 0 2v2.586L7.172 8.414A4 4 0 0 0 6 11.243v4.1l2-1.858v-2.242a2 2 0 0 1 .586-1.415L10.414 8A2 2 0 0 0 11 6.586V4h2v2.586A2 2 0 0 0 13.586 8l.154.155 1.467-1.362L15 6.586V4a1 1 0 1 0 0-2H9zm1 20c-1.4 0-2.63-.719-3.346-1.807l1.509-1.4A2 2 0 0 0 10 20h4a2 2 0 0 0 2-2v-6.485l1.76-1.635c.158.433.24.893.24 1.363V18a4 4 0 0 1-4 4h-4zm9.68-15.267a1 1 0 1 0-1.36-1.466l-14 13a1 1 0 0 0 1.36 1.466l14-13z" fill="#000"/></svg>