<svg width="24" height="24" fill="none" xmlns="http://www.w3.org/2000/svg"><path fill-rule="evenodd" clip-rule="evenodd" d="M6 13c0-2 .718-4.312 1.889-6.112C9.079 5.058 10.565 4 12 4c1.28 0 2.6.84 3.715 2.321l1.471-1.366C15.874 3.282 14.091 2 12 2 9.569 2 7.555 3.733 6.212 5.798 4.849 7.894 4 10.58 4 13a9.95 9.95 0 0 0 .663 3.584l1.607-1.492A8.105 8.105 0 0 1 6 13zm6 7c-1.329 0-2.591-.52-3.612-1.417l-1.474 1.37C8.28 21.223 10.039 22 12 22c4.54 0 8-4.159 8-9 0-1.44-.301-2.977-.833-4.426l-1.612 1.497c.288.988.445 1.993.445 2.929 0 3.996-2.807 7-6 7zm-1.5-10a1.5 1.5 0 1 0 0-3 1.5 1.5 0 0 0 0 3zm9.18-3.267a1 1 0 0 0-1.36-1.466l-14 13a1 1 0 0 0 1.36 1.466l14-13z" fill="#000"/></svg>