<svg width="24" height="24" fill="none" xmlns="http://www.w3.org/2000/svg"><path fill-rule="evenodd" clip-rule="evenodd" d="M6 13c0-2 .718-4.312 1.889-6.112C9.079 5.058 10.565 4 12 4c1.435 0 2.92 1.058 4.111 2.888C17.281 8.688 18 11.001 18 13c0 3.996-2.807 7-6 7-3.192 0-6-3.004-6-7zm6-11C9.569 2 7.555 3.733 6.212 5.798 4.849 7.894 4 10.58 4 13c0 4.841 3.46 9 8 9s8-4.159 8-9c0-2.419-.849-5.106-2.212-7.202C16.445 3.733 14.431 2 12 2zm-1.5 8a1.5 1.5 0 1 0 0-3 1.5 1.5 0 0 0 0 3z" fill="#000"/></svg>