<svg width="24" height="24" fill="none" xmlns="http://www.w3.org/2000/svg"><path fill-rule="evenodd" clip-rule="evenodd" d="M13 3a1 1 0 1 0-2 0v3.528a5.98 5.98 0 0 0-3-1.445V5a1 1 0 0 0-2 0v8a6.002 6.002 0 0 0 5 5.917V21a1 1 0 1 0 2 0v-2.083A6.002 6.002 0 0 0 18 13V5a1 1 0 1 0-2 0v.083a5.98 5.98 0 0 0-3 1.445V3zm3 7.083V7.126c-1.725.444-3 2.01-3 3.874v.528a5.98 5.98 0 0 1 3-1.445zM13 16v.874c1.725-.444 3-2.01 3-3.874v-.874c-1.725.444-3 2.01-3 3.874zm-2 .874V16a4.002 4.002 0 0 0-3-3.874V13a4.002 4.002 0 0 0 3 3.874zm-3-6.791a5.98 5.98 0 0 1 3 1.445V11a4.002 4.002 0 0 0-3-3.874v2.957z" fill="#000"/></svg>