<svg width="24" height="24" fill="none" xmlns="http://www.w3.org/2000/svg"><path fill-rule="evenodd" clip-rule="evenodd" d="M8.305 2.301a8.483 8.483 0 0 1 8.826 1.571l.833.75 1.329-1.329a1 1 0 1 1 1.414 1.414l-1.514 1.515 1.624 3.655a3.5 3.5 0 0 1-1.857 6.093 3.5 3.5 0 0 1-5.49 3.382 3.498 3.498 0 0 1-5 1 3.5 3.5 0 1 1-4.048-5.183 3.498 3.498 0 0 1 1.225-4.64 3.502 3.502 0 0 1 1.678-5.328A5.941 5.941 0 0 1 7.072 4.1a1.604 1.604 0 0 1 .994-1.702l.24-.096zm5.115 11.384a1.494 1.494 0 0 1-.92.315 1.5 1.5 0 1 1 .92-.315zM17 12.5a1.497 1.497 0 0 1 1.5-1.5 1.493 1.493 0 0 1 .917.313 1.5 1.5 0 1 1-1.797 2.402l-.04-.03A1.498 1.498 0 0 1 17 12.5zm-1.311-4.072l1.136-.631a1.496 1.496 0 0 1-.446 1.919 1.498 1.498 0 0 1-2.281-.683 5.875 5.875 0 0 0 1.59-.605zm-1.109 6.887A1.5 1.5 0 1 0 15.5 15a1.493 1.493 0 0 0-.92.315zm-4.96.97l-.04.03A1.5 1.5 0 1 0 10.5 16c-.329 0-.633.106-.88.285zM9 13.5A1.497 1.497 0 0 1 7.5 15 1.5 1.5 0 1 1 9 13.5zm-.677-6.49a1.5 1.5 0 1 0 1.675 1.405 5.861 5.861 0 0 1-1.675-1.404zm7.967-1.204l-1.573.874c-2.273 1.263-5.083-.057-5.612-2.545a6.483 6.483 0 0 1 6.688 1.224l.497.447zM4 18.5a1.5 1.5 0 1 1 3 0 1.5 1.5 0 0 1-3 0z" fill="#000"/></svg>