<svg width="24" height="24" fill="none" xmlns="http://www.w3.org/2000/svg"><path fill-rule="evenodd" clip-rule="evenodd" d="M3.874 8.489C3.678 4.104 7.134 0 12 0s8.322 4.104 8.125 8.49a2.702 2.702 0 011.365 1.994c.151 1.041-.24 1.982-1.055 2.58-.61.447-1.392.658-2.24.666l-2.843 5.213-2.474 4.536a1 1 0 01-1.756 0l-2.474-4.536-2.844-5.215c-.846-.009-1.626-.22-2.236-.666-.816-.597-1.207-1.536-1.058-2.576a2.7 2.7 0 011.364-1.997zm1.992-.302c.394.075.74.21 1.025.333.152.065.285.125.405.18.356.16.596.267.873.314l.004.001c.477.084.766.015 1.3-.134l.04-.012c.575-.16 1.32-.369 2.487-.369 1.168 0 1.914.208 2.489.368l.04.011c.535.15.824.219 1.299.136.276-.048.516-.156.869-.314.121-.055.257-.116.412-.182a4.886 4.886 0 011.025-.332C18.164 4.957 15.58 2 12 2 8.42 2 5.835 4.958 5.866 8.187zm2.359 5.804l1.415 2.593 1.223-1.712c-.675-.143-1.305-.383-1.848-.59l-.192-.074c-.21-.08-.41-.152-.598-.217zm4.913.881c.675-.143 1.304-.383 1.848-.59l.192-.074c.21-.08.408-.152.597-.217l-1.415 2.593-1.222-1.712zm.158 3.663L12 16.721l-1.296 1.814L12 20.912l1.296-2.377zm4.36-8.07c-.39.177-.933.424-1.484.52-.94.164-1.597-.016-2.18-.179l-.035-.01C13.43 10.65 12.894 10.5 12 10.5c-.893 0-1.426.15-1.953.297a4.912 4.912 0 00-.036.01c-.584.163-1.24.344-2.182.178-.555-.095-1.1-.344-1.49-.521a12.66 12.66 0 00-.238-.107c-.459-.197-.731-.258-.987-.214-.35.061-.578.3-.624.625-.048.333.058.533.26.68.245.18.74.343 1.524.258 1.216-.132 2.356.291 3.256.632l.09.033c.94.357 1.66.629 2.38.629s1.44-.273 2.382-.629l.088-.033c.901-.34 2.04-.764 3.256-.632h.003c.784.087 1.278-.076 1.524-.256.2-.147.306-.348.258-.679v-.002c-.047-.325-.275-.565-.625-.626-.257-.044-.53.017-.988.214-.072.03-.152.067-.241.107z" fill="#000"/></svg>