<svg width="24" height="24" fill="none" xmlns="http://www.w3.org/2000/svg"><path fill-rule="evenodd" clip-rule="evenodd" d="M16.707 1.707A1 1 0 0 0 15.293.293l-2 2A1 1 0 0 0 13 3v1H4a1 1 0 0 0 0 2h.61l1.897 16.117A1 1 0 0 0 7.5 23h9a1 1 0 0 0 .993-.883L19.39 6H20a1 1 0 1 0 0-2h-5v-.586l1.707-1.707zM14 6H6.625l.692 5.888c2.716-2.136 6.27-3.291 9.811-3.786L17.375 6H14zM8.283 20.097l-.682-5.799c2.28-2.25 5.655-3.559 9.285-4.137l-.284 2.413c-3.577 1.06-6.659 3.58-8.319 7.523zm1.79.903h5.538l.732-6.229c-2.701 1.03-4.99 3.096-6.27 6.229z" fill="#000"/></svg>