<svg width="24" height="24" fill="none" xmlns="http://www.w3.org/2000/svg"><path fill-rule="evenodd" clip-rule="evenodd" d="M7.5 4.206C5.566 5.323 4.851 7.618 6.036 9.67c.348.603.824.955 1.512 1.46.472.347 1.026.755 1.533 1.35l-1.467 1.363c-.347-.426-.76-.742-1.25-1.101l-.085-.063c-.63-.46-1.412-1.033-1.975-2.01C2.543 7.62 3.65 4.12 6.5 2.475 9.349.829 12.935 1.62 14.696 4.67c.397.688.567 1.37.662 1.983l-1.81 1.68a18.895 18.895 0 0 1-.075-.624c-.094-.848-.16-1.436-.509-2.04C11.78 3.62 9.434 3.09 7.5 4.207zm3.22 6.754l1.258-1.169a1 1 0 1 0-1.259 1.169zM8.82 18.18l1.738-1.613c.08.703.168 1.227.477 1.762 1.184 2.052 3.53 2.581 5.464 1.464 1.934-1.117 2.649-3.412 1.464-5.464-.348-.603-.824-.955-1.512-1.46a11.132 11.132 0 0 1-1.026-.822l1.472-1.367c.224.196.47.38.738.577l.085.063c.63.46 1.412 1.033 1.975 2.01 1.761 3.05.653 6.55-2.196 8.195-2.849 1.645-6.435.854-8.196-2.196a5.051 5.051 0 0 1-.483-1.149zM9 9a1 1 0 1 1-2 0 1 1 0 0 1 2 0zM8 7a1 1 0 1 0 0-2 1 1 0 0 0 0 2zm6 12a1 1 0 1 0 0-2 1 1 0 0 0 0 2zm5.68-12.267a1 1 0 1 0-1.36-1.466l-14 13a1 1 0 1 0 1.36 1.466l14-13z" fill="#000"/></svg>