<svg width="24" height="24" fill="none" xmlns="http://www.w3.org/2000/svg"><path fill-rule="evenodd" clip-rule="evenodd" d="M7.5 4.206C5.566 5.323 4.851 7.618 6.036 9.67c.348.603.824.955 1.512 1.46.67.492 1.503 1.108 2.138 2.206.634 1.099.75 2.128.841 2.955.094.848.16 1.436.509 2.04 1.184 2.05 3.53 2.58 5.464 1.463 1.934-1.117 2.649-3.412 1.464-5.464-.348-.603-.824-.955-1.512-1.46-.67-.492-1.503-1.108-2.138-2.206-.634-1.099-.75-2.128-.841-2.955-.094-.848-.16-1.436-.509-2.04C11.78 3.62 9.434 3.09 7.5 4.207zM4.304 10.67C2.543 7.62 3.65 4.118 6.5 2.474 9.349.829 12.935 1.62 14.696 4.67c.564.976.669 1.94.753 2.715l.011.105c.09.814.18 1.47.587 2.174.406.704.93 1.11 1.589 1.594l.085.063c.63.46 1.412 1.033 1.975 2.01 1.761 3.05.653 6.55-2.196 8.195-2.849 1.645-6.435.854-8.196-2.196-.564-.976-.669-1.94-.753-2.715l-.011-.105c-.09-.814-.18-1.47-.587-2.174-.406-.704-.93-1.11-1.589-1.594l-.085-.063c-.63-.46-1.412-1.033-1.975-2.01zM9 9a1 1 0 1 1-2 0 1 1 0 0 1 2 0zM8 7a1 1 0 1 0 0-2 1 1 0 0 0 0 2zm4 3a1 1 0 1 1-2 0 1 1 0 0 1 2 0zm2 9a1 1 0 1 0 0-2 1 1 0 0 0 0 2z" fill="#000"/></svg>