<svg width="24" height="24" fill="none" xmlns="http://www.w3.org/2000/svg"><path fill-rule="evenodd" clip-rule="evenodd" d="M4 12a8 8 0 1 1 5.578 7.627c.056-.278.123-.54.2-.792.123 0 .247-.012.372-.036l1.575-.3c4.62-.88 7.076-5.975 4.885-10.137l-.835-1.587A2 2 0 0 0 13.4 5.8l-1.457.463a7 7 0 0 0-4.73 8.12l.606 2.865a2 2 0 0 0 .199.542c-.11.308-.21.63-.295.972A7.994 7.994 0 0 1 4 12zm8-10C6.477 2 2 6.477 2 12s4.477 10 10 10 10-4.477 10-10S17.523 2 12 2zm-1.037 14.396c-.053.08-.104.16-.155.242l.543-.104c3.3-.628 5.054-4.267 3.49-7.24l-.836-1.588-1.457.463a5 5 0 0 0-3.378 5.8l.242 1.146c.251-.376.515-.746.772-1.105l.312-.438c.399-.565.78-1.131 1.13-1.76a1 1 0 0 1 1.748.97 21.03 21.03 0 0 1-1.245 1.944l-.34.478c-.291.408-.564.79-.826 1.192z" fill="#000"/></svg>