<svg width="24" height="24" fill="none" xmlns="http://www.w3.org/2000/svg"><path fill-rule="evenodd" clip-rule="evenodd" d="M13 4.5c0 .175-.03.344-.085.5H13a1.5 1.5 0 013 0v.014c.12.007.24.017.36.029a1 1 0 011.889.411A8.504 8.504 0 0124 13.5V16a4 4 0 01-4 4H5.333A5.333 5.333 0 010 14.667V14a8.997 8.997 0 014.519-7.807 1 1 0 011.789-.784c.232-.072.468-.136.708-.19A1.5 1.5 0 1110 5h.085A1.5 1.5 0 1113 4.5zM9 7a7 7 0 00-7 7v.667A3.333 3.333 0 005.333 18h11.202A3.982 3.982 0 0116 16v-2.353A6.647 6.647 0 009.353 7H9zm5.884 0A8.629 8.629 0 0118 13.647V16a2 2 0 104 0v-2.5c0-.125-.003-.25-.01-.373a1.5 1.5 0 11-.708-2.601 6.522 6.522 0 00-1.305-1.738A1 1 0 1118.967 8 6.47 6.47 0 0015.5 7h-.616zM18 15a1 1 0 112 0 1 1 0 01-2 0z" fill="#000"/></svg>