<svg width="24" height="24" fill="none" xmlns="http://www.w3.org/2000/svg"><path fill-rule="evenodd" clip-rule="evenodd" d="M1.295 3.71a1 1 0 0 1 1.41-1.42c4.27 4.24 7.516 9.327 9.448 15.472.145-.282.3-.573.463-.869a1.995 1.995 0 0 1-.267-.715l-.229-1.375a8 8 0 0 1 6.267-9.148l1.09-.226A2 2 0 0 1 21.845 7l.243 1.234a8 8 0 0 1-6.534 9.438l-.903.15a2.017 2.017 0 0 1-.278.027 25.573 25.573 0 0 0-.89 1.753c-.17.38-.3.704-.383.962a2.988 2.988 0 0 0-.084.31.788.788 0 0 0-.016.108 1 1 0 0 1-1.787.635l-8.818-11.25a1 1 0 1 1 1.574-1.234l5.506 7.025C7.605 11.309 4.82 7.21 1.295 3.71zM15.71 15.598a6 6 0 0 0 4.416-6.977l-.243-1.234-1.09.226a6 6 0 0 0-4.708 6.814c.922-1.441 1.907-2.798 2.693-3.618a1 1 0 1 1 1.444 1.383c-.68.71-1.612 1.991-2.512 3.405z" fill="#000"/></svg>