<svg width="24" height="24" fill="none" xmlns="http://www.w3.org/2000/svg"><path fill-rule="evenodd" clip-rule="evenodd" d="M4.539 2.725A1 1 0 0 1 5.5 2h13a1 1 0 0 1 .961.725 73.332 73.332 0 0 1 .651 2.498c.341 1.41.73 3.213.883 4.673.047.458.08.95.1 1.452.156 3.8-3.06 6.652-6.71 6.652H13v3h3a1 1 0 1 1 0 2H8a1 1 0 1 1 0-2h3v-3H9.614c-3.649 0-6.865-2.852-6.71-6.652.021-.502.053-.994.101-1.452.153-1.46.542-3.263.882-4.673a73.205 73.205 0 0 1 .652-2.498zM5.83 5.692c.162-.671.316-1.262.431-1.692h11.476c.115.43.269 1.02.43 1.692.337 1.395.7 3.091.837 4.412.043.405.072.854.092 1.326.103 2.513-2.042 4.57-4.711 4.57H9.614c-2.67 0-4.814-2.057-4.71-4.57.019-.472.048-.921.09-1.326.139-1.32.5-3.017.837-4.412zm10.804 2.863a1 1 0 0 1 1.359.82l.131 1.185A4 4 0 0 1 14.15 15H9.895a4 4 0 0 1-3.97-4.493l.083-.66a1 1 0 0 1 .63-.809 19.906 19.906 0 0 1 1.544-.513C9.03 8.278 10.187 8 11.167 8c.99 0 1.705.268 2.344.592.638.324 1.113.468 1.684.388.491-.068.979-.246 1.44-.425zM10 12a1 1 0 1 1-2 0 1 1 0 0 1 2 0z" fill="#000"/></svg>