<svg width="24" height="24" fill="none" xmlns="http://www.w3.org/2000/svg"><path fill-rule="evenodd" clip-rule="evenodd" d="M19.442 2.603A1 1 0 0120 3.5v3.965l.89.594a4.737 4.737 0 010 7.883l-.89.593V19.5a1 1 0 01-1.594.805L18.4 20.3l-.018-.013-.073-.054-.279-.2c-.238-.168-.574-.402-.96-.66-.784-.522-1.732-1.111-2.495-1.468-1.388-.65-2.835-1.133-3.944-1.455a31.492 31.492 0 00-1.2-.323 3 3 0 00.713 3.94C11.377 21.026 10.7 23 9.14 23H6a1 1 0 01-.92-.606l-.38-.89a8 8 0 01-.118-6.013l.045-.118A4.754 4.754 0 015.754 6H9a1 1 0 01.08.003h.002l.018.002.087.004a13.902 13.902 0 001.643-.038c1.074-.088 2.458-.322 3.774-.89.755-.325 1.69-.905 2.47-1.432a32.889 32.889 0 001.223-.871l.072-.054.018-.014.004-.003a1 1 0 011.051-.104zM8 8H5.754a2.754 2.754 0 00-.398 5.479l.785.114L8 13.851V8zm2 6.208c.321.08.727.188 1.19.323 1.166.338 2.719.855 4.234 1.563.839.393 1.803.988 2.576 1.497V5.436c-.771.514-1.742 1.11-2.604 1.482-1.583.683-3.2.948-4.401 1.047-.372.03-.707.046-.995.052v6.19zm-2.632 1.575l-.718-.1-.2.523a6 6 0 00.088 4.51l.121.284h1.57a5.006 5.006 0 01-.86-5.217zM20 14.115a2.737 2.737 0 000-4.23v4.23z" fill="#000"/></svg>