<svg width="24" height="24" fill="none" xmlns="http://www.w3.org/2000/svg"><path fill-rule="evenodd" clip-rule="evenodd" d="M20.418 15.862C21.414 14.467 22 12.798 22 11c0-5.078-4.591-9-10-9S2 5.922 2 11c0 5.078 4.591 9 10 9 .943 0 1.857-.117 2.725-.338a9.738 9.738 0 002.92 1.773c1.096.416 2.344.716 3.525.55a1 1 0 00.758-.612 1.022 1.022 0 00-.133-.98c-.952-1.314-1.768-2.864-1.377-4.53zM12 4c-4.532 0-8 3.241-8 7 0 3.758 3.468 7 8 7 1.146 0 2.222-.26 3.305-.6 1.036 1.124 2.298 1.997 3.778 2.404-.802-1.535-.956-3.196-.485-4.844C19.464 13.803 20 12.46 20 11c0-3.759-3.468-7-8-7z" fill="#000"/></svg>