<svg width="24" height="24" fill="none" xmlns="http://www.w3.org/2000/svg"><path fill-rule="evenodd" clip-rule="evenodd" d="M12 3a9 9 0 00-8.687 11.36 6.843 6.843 0 011.366-.788 3.5 3.5 0 115.642 0 6.837 6.837 0 011.297.738 7.132 7.132 0 011.41-1.165 4 4 0 115.818-.953c.773.175 1.475.46 2.097.824A9 9 0 0012 3zm-1.51 12.957a1.004 1.004 0 01-.07-.046C9.657 15.368 8.678 15 7.5 15c-1.438 0-2.59.55-3.405 1.306a9.004 9.004 0 0016.36-1.217 1.014 1.014 0 01-.05-.035c-.836-.62-1.95-1.054-3.314-1.054C13.784 14 12 16.529 12 18a1 1 0 11-2 0c0-.662.17-1.362.49-2.043zM1 12C1 5.925 5.925 1 12 1s11 4.925 11 11-4.925 11-11 11S1 18.075 1 12zm14.5-4a2 2 0 100 4 2 2 0 000-4zM6 11.5a1.5 1.5 0 113 0 1.5 1.5 0 01-3 0z" fill="#000"/></svg>