<svg width="24" height="24" fill="none" xmlns="http://www.w3.org/2000/svg"><path fill-rule="evenodd" clip-rule="evenodd" d="M10 2a1 1 0 0 0-1 1v1.582a7.992 7.992 0 0 0-1.923 1.112l-1.371-.792a1 1 0 0 0-1.366.366l-2 3.464a1 1 0 0 0 .366 1.366l1.37.791a8.062 8.062 0 0 0 0 2.222l-1.37.79a1 1 0 0 0-.366 1.367l2 3.464a1 1 0 0 0 1.366.366l1.371-.792c.581.455 1.228.83 1.923 1.112V21a1 1 0 0 0 1 1h4a1 1 0 0 0 1-1v-1.582a7.994 7.994 0 0 0 1.923-1.112l1.371.792a1 1 0 0 0 1.366-.366l2-3.464a1 1 0 0 0-.366-1.366l-1.37-.791a8.063 8.063 0 0 0 0-2.222l1.37-.79a1 1 0 0 0 .366-1.367l-2-3.464a1 1 0 0 0-1.366-.366l-1.371.792A7.993 7.993 0 0 0 15 4.582V3a1 1 0 0 0-1-1h-4zm1 3.29V4h2v1.29a1 1 0 0 0 .715.958 5.993 5.993 0 0 1 2.407 1.392 1 1 0 0 0 1.188.14l1.118-.646 1 1.732-1.117.645a1 1 0 0 0-.473 1.097 6.02 6.02 0 0 1 0 2.784 1 1 0 0 0 .473 1.097l1.117.645-1 1.732-1.119-.646a1 1 0 0 0-1.187.14 5.991 5.991 0 0 1-2.407 1.392 1 1 0 0 0-.715.958V20h-2v-1.29a1 1 0 0 0-.715-.958 5.992 5.992 0 0 1-2.407-1.392 1 1 0 0 0-1.188-.14l-1.118.646-1-1.732 1.117-.645a1 1 0 0 0 .473-1.097 6.02 6.02 0 0 1 0-2.784 1 1 0 0 0-.473-1.097l-1.117-.645 1-1.732 1.118.646a1 1 0 0 0 1.188-.14 5.993 5.993 0 0 1 2.407-1.392A1 1 0 0 0 11 5.29zM10 12a2 2 0 1 1 4 0 2 2 0 0 1-4 0zm2-4a4 4 0 1 0 0 8 4 4 0 0 0 0-8z" fill="#000"/></svg>