<svg width="24" height="24" fill="none" xmlns="http://www.w3.org/2000/svg"><path fill-rule="evenodd" clip-rule="evenodd" d="M12 4.608c-1.242-2.433-4.88-2.755-6.423-.186a3.642 3.642 0 0 0-.094 3.622A3 3 0 0 0 3 11v8a3 3 0 0 0 3 3h12a3 3 0 0 0 3-3v-8a3 3 0 0 0-2.483-2.956 3.642 3.642 0 0 0-.094-3.622C16.88 1.853 13.242 2.175 12 4.608zm-1.218 3.39l-.403-2.012c-.301-1.505-2.297-1.85-3.087-.535-.672 1.12.133 2.543 1.438 2.545l2.052.002zM11 10H6a1 1 0 0 0-1 1v3h6v-4zm0 6H5v3a1 1 0 0 0 1 1h5v-4zm2 4v-4h6v3a1 1 0 0 1-1 1h-5zm6-6h-6v-4h5a1 1 0 0 1 1 1v3zm-5.782-6.002l2.052-.002c1.305-.002 2.11-1.426 1.438-2.545-.79-1.315-2.786-.97-3.087.535l-.403 2.012z" fill="#000"/></svg>