<svg width="24" height="24" fill="none" xmlns="http://www.w3.org/2000/svg"><path fill-rule="evenodd" clip-rule="evenodd" d="M16 6a3 3 0 100 6 3 3 0 000-6zm-5 3a5 5 0 118.654 3.413 8.095 8.095 0 014.172 3.12 1 1 0 01-1.652 1.126C21.198 15.227 19.418 14 17 14c-3.834 0-6 3.074-6 5a1 1 0 11-2 0c0-.692.158-1.43.46-2.157a1.003 1.003 0 01-.211-.183C8.428 15.726 7.154 15 5.5 15s-2.928.726-3.749 1.66A1 1 0 01.25 15.34a6.872 6.872 0 012.108-1.62 4.5 4.5 0 116.286 0 6.871 6.871 0 011.865 1.358 8.1 8.1 0 012.484-2.083A4.992 4.992 0 0111 9zm-8 1.5a2.5 2.5 0 115 0 2.5 2.5 0 01-5 0z" fill="#000"/></svg>