<svg width="24" height="24" fill="none" xmlns="http://www.w3.org/2000/svg"><path fill-rule="evenodd" clip-rule="evenodd" d="M13.807 6.073a2 2 0 01.49 2.864L13.2 10.4a1 1 0 00.093 1.307l7.514 7.514-.245.552a1 1 0 01-1.746.149l-.984-1.477a1 1 0 00-1.387-.277l-.5.333-1.026-2.395a1 1 0 00-1.474-.438l-.5.333-1.026-2.395A1 1 0 0010.4 13.2l-1.463 1.097a2 2 0 01-2.864-.49L3.196 9.492a2 2 0 01.25-2.524l3.522-3.522a2 2 0 012.524-.25l4.315 2.877zm2.248 14.76l.668-.446.43.644c1.31 1.967 4.277 1.715 5.237-.446l.524-1.179a1 1 0 00-.207-1.113l-7.387-7.387.577-.769a4 4 0 00-.98-5.728L10.6 1.532a4 4 0 00-5.047.5L2.032 5.554a4 4 0 00-.5 5.047l2.877 4.315a4 4 0 005.728.981l.445-.334.999 2.331a1 1 0 001.474.438l.5-.333 1.026 2.395a1 1 0 001.474.438zM8 10a2 2 0 100-4 2 2 0 000 4z" fill="#000"/></svg>