<svg width="24" height="24" fill="none" xmlns="http://www.w3.org/2000/svg"><path fill-rule="evenodd" clip-rule="evenodd" d="M4.062 11H7.1A5.006 5.006 0 0 1 11 7.1V4.062A8.004 8.004 0 0 0 4.062 11zM13 4.062V7.1a5.006 5.006 0 0 1 3.9 3.9h3.038A8.004 8.004 0 0 0 13 4.062zM19.938 13H16.9a5.006 5.006 0 0 1-3.9 3.9v3.038A8.004 8.004 0 0 0 19.938 13zM11 19.938V16.9A5.006 5.006 0 0 1 7.1 13H4.062A8.004 8.004 0 0 0 11 19.938zM2 12C2 6.477 6.477 2 12 2s10 4.477 10 10-4.477 10-10 10S2 17.523 2 12zm10-3a3 3 0 1 0 0 6 3 3 0 0 0 0-6z" fill="#000"/></svg>