<svg width="24" height="24" fill="none" xmlns="http://www.w3.org/2000/svg"><path fill-rule="evenodd" clip-rule="evenodd" d="M5 3a1 1 0 011 1v3.05a2.5 2.5 0 010 4.9V20a1 1 0 11-2 0v-8.05a2.5 2.5 0 010-4.9V4a1 1 0 011-1zm-.5 6a.5.5 0 000 1h1a.5.5 0 000-1h-1zM19 3a1 1 0 011 1v3.05a2.5 2.5 0 010 4.9V20a1 1 0 11-2 0v-8.05a2.5 2.5 0 010-4.9V4a1 1 0 011-1zm-.5 6a.5.5 0 000 1h1a.5.5 0 000-1h-1zM13 4a1 1 0 10-2 0v8.05a2.5 2.5 0 000 4.9V20a1 1 0 102 0v-3.05a2.5 2.5 0 000-4.9V4zm-2 10.5a.5.5 0 01.5-.5h1a.5.5 0 010 1h-1a.5.5 0 01-.5-.5z" fill="#000"/></svg>