<svg width="24" height="24" fill="none" xmlns="http://www.w3.org/2000/svg"><path fill-rule="evenodd" clip-rule="evenodd" d="M20.959 9.955c2.303-3.366-1.177-7.73-4.972-6.234-1.196-3.9-6.778-3.9-7.974 0C4.218 2.224.738 6.589 3.041 9.955-.495 11.99.747 17.431 4.816 17.73 4.2 21.762 9.23 24.184 12 21.19c2.77 2.995 7.8.573 7.184-3.46 4.069-.298 5.311-5.74 1.775-7.774zM9.888 4.441c.554-2.194 3.67-2.194 4.224 0a1.795 1.795 0 002.481 1.194c2.06-.934 4.003 1.503 2.634 3.303a1.795 1.795 0 00.613 2.685c2.015 1.028 1.321 4.066-.94 4.118a1.795 1.795 0 00-1.717 2.153c.452 2.217-2.355 3.569-3.806 1.833a1.795 1.795 0 00-2.754 0c-1.45 1.736-4.258.384-3.806-1.833A1.795 1.795 0 005.1 15.741c-2.261-.052-2.955-3.09-.94-4.118a1.795 1.795 0 00.613-2.685c-1.37-1.8.574-4.237 2.634-3.303a1.795 1.795 0 002.48-1.194zm6.87 5.212a1 1 0 00-1.515-1.306l-4.48 5.193L8.7 11.517a1 1 0 10-1.4 1.428l2.823 2.769a1 1 0 001.458-.06l5.176-6z" fill="#000"/></svg>