<svg width="24" height="24" fill="none" xmlns="http://www.w3.org/2000/svg"><path fill-rule="evenodd" clip-rule="evenodd" d="M3.536 5.299a1 1 0 01.893.275L6.9 8.045a.812.812 0 101.148-1.148l-2.47-2.47a1 1 0 01.308-1.624 5.967 5.967 0 018.272 6.441l6.879 6.879a3.475 3.475 0 11-4.914 4.914l-6.879-6.879A5.967 5.967 0 012.805 5.88a1 1 0 01.731-.581zm.77 2.981a3.963 3.963 0 005 3.82 1 1 0 01.968.26l7.263 7.262a1.475 1.475 0 002.085-2.085l-7.262-7.263a1 1 0 01-.26-.967 3.963 3.963 0 00-3.814-5l1.177 1.176A2.812 2.812 0 115.486 9.46l-1.18-1.18z" fill="#000"/></svg>