<svg width="24" height="24" fill="none" xmlns="http://www.w3.org/2000/svg"><path fill-rule="evenodd" clip-rule="evenodd" d="M16.094 1.174l.982-.192a1 1 0 0 0-1.137-.796l.155.988zm.802 3.824c.26-.781.326-1.589.33-2.222a10.477 10.477 0 0 0-.141-1.746l-.006-.032-.002-.01V.984h-.001V.981l-.982.192-.156-.988h-.005l-.01.003-.032.005a9.093 9.093 0 0 0-.484.101c-.31.074-.737.19-1.205.364-.898.332-2.121.935-2.866 1.998-.725 1.036-.884 2.349-.897 3.301-.992-.627-2.428-1.413-4.4-.709-1.7.607-2.711 1.968-3.284 3.353C2.184 9.982 2 11.486 2 12.616c0 1.928.641 3.98 1.616 5.745.972 1.763 2.332 3.343 3.87 4.263a2.36 2.36 0 0 0 1.821.276c.48-.116.93-.362 1.258-.543l.045-.024c.591-.324.972-.511 1.39-.511.418 0 .799.187 1.39.51l.045.025c.329.181.777.427 1.258.543.569.136 1.194.098 1.82-.276 2.1-1.255 3.891-3.754 4.81-6.345a1 1 0 0 0-1.089-1.324 1.601 1.601 0 0 1-.234.017c-.965 0-2-.969-2-2.5 0-1.53 1.035-2.5 2-2.5.068 0 .135.005.2.013a1 1 0 0 0 1.05-1.374c-.573-1.388-1.584-2.754-3.289-3.362A4.726 4.726 0 0 0 16.896 5zm-4.128 1.277a8.05 8.05 0 0 1-.324.112 8.24 8.24 0 0 1-.006-.342c.005-.841.15-1.688.537-2.24.387-.553 1.133-.979 1.921-1.27.111-.042.22-.079.324-.113.004.11.006.224.005.343-.004.84-.149 1.687-.536 2.24-.387.553-1.133.978-1.921 1.27zm-6.057.858c1.157-.413 1.898.027 2.91.676l.088.056c.555.358 1.36.876 2.291.876.931 0 1.736-.518 2.291-.876l.088-.056c1.012-.65 1.753-1.089 2.91-.676.584.208 1.06.577 1.442 1.065C17.078 8.81 16 10.585 16 12.472c0 1.963 1.167 3.806 2.934 4.343-.863 1.782-2.137 3.31-3.447 4.092a.372.372 0 0 1-.327.048c-.193-.046-.417-.161-.81-.376l-.056-.031c-.526-.29-1.322-.726-2.294-.726s-1.768.436-2.294.726l-.057.03c-.392.216-.616.33-.81.377a.372.372 0 0 1-.326-.048c-1.151-.688-2.291-1.962-3.146-3.512C4.514 15.85 4 14.13 4 12.615c0-.947.159-2.176.603-3.249C5.045 8.3 5.72 7.486 6.71 7.133z" fill="#000"/></svg>