<svg width="24" height="24" fill="none" xmlns="http://www.w3.org/2000/svg"><path fill-rule="evenodd" clip-rule="evenodd" d="M12 1a1 1 0 0 1 .874.514l10 18A1 1 0 0 1 22 21h-6.364a1 1 0 0 1-.85-.475l-4.407-7.139a10 10 0 0 1-.232-10.109l.979-1.763A1 1 0 0 1 12 1zm0 3.06l-.105.189a8 8 0 0 0 .186 8.087L16.194 19h4.107L12 4.06zm-4.36 6.023l-.582.813c.582-.813.582-.813.583-.812l.003.002.005.003.01.008a1.397 1.397 0 0 1 .105.083c.06.051.138.122.23.213.185.184.424.453.685.825.523.746 1.126 1.895 1.562 3.582.44 1.701.446 3.064.33 4.026-.058.48-.146.857-.224 1.123a4.506 4.506 0 0 1-.154.443l-.005.011-.002.005-.001.002c0 .001-.001.002-.912-.41l.911.412a1 1 0 0 1-.911.588H2a1 1 0 0 1-.874-1.486l5.058-9.103a1 1 0 0 1 1.456-.328zM8.52 19c.024-.12.046-.258.065-.413.087-.726.094-1.838-.28-3.287-.32-1.235-.728-2.088-1.077-2.651L3.7 19h4.82z" fill="#000"/></svg>