<svg width="24" height="24" fill="none" xmlns="http://www.w3.org/2000/svg"><path fill-rule="evenodd" clip-rule="evenodd" d="M4 10V6h3.5a2 2 0 0 1 2 2v.5A1.5 1.5 0 0 1 8 10H4zm7.5-1.5c0 .896-.337 1.714-.891 2.333A4.5 4.5 0 0 1 8 19H3.5A1.5 1.5 0 0 1 2 17.5v-12A1.5 1.5 0 0 1 3.5 4h4a4 4 0 0 1 4 4v.5zM4 12h4a2.5 2.5 0 0 1 0 5H4v-5zm11-6a1 1 0 0 1 1-1h3.5a1 1 0 1 1 0 2H16a1 1 0 0 1-1-1zm-2.5 7c0-2.818 2.409-5 5.25-5S23 10.182 23 13a1 1 0 0 1-1 1h-7.5c0 1.6 1.397 3 3.25 3 1.11 0 1.834-.314 2.264-.59.22-.142.37-.28.461-.372a1.46 1.46 0 0 0 .09-.1l.01-.013a1 1 0 0 1 1.645 1.137l-.827-.562c.827.562.827.562.826.563l-.002.003-.003.005-.008.01a1.475 1.475 0 0 1-.083.11 3.47 3.47 0 0 1-.213.24c-.183.188-.45.426-.813.66-.735.473-1.832.909-3.347.909-2.841 0-5.25-2.182-5.25-5v-1zm8.313-1c-.44-1.141-1.612-2-3.063-2s-2.623.859-3.063 2h6.126z" fill="#000"/></svg>