<svg width="24" height="24" fill="none" xmlns="http://www.w3.org/2000/svg"><path fill-rule="evenodd" clip-rule="evenodd" d="M4.693 7.656a8.5 8.5 0 1 1 15.092 7.763c-2.518 5.119-9.109 5.559-8.718 2.123 0 0 .644-.25 1.15-.81.401-.444.819-.573 1.147-.675.321-.099.558-.172.613-.487.164-.928-1.615-1.107-3.333-.337-1.717.77-2.465-.507-2.465-.507s-.733-1.615 1.635-2.163c2.72-.63 3.031-2.357 1.617-2.357-1.415 0-2.817-1.643-2.817-1.643-.292-.591.357-1.119.811-1.488.336-.273.565-.46.23-.521-1.62-.298-3.14.107-4.318 1.24a1.614 1.614 0 0 0-.644-.138zM12 1.5C6.201 1.5 1.5 6.201 1.5 12S6.201 22.5 12 22.5 22.5 17.799 22.5 12 17.799 1.5 12 1.5z" fill="#000"/></svg>