<svg width="24" height="24" fill="none" xmlns="http://www.w3.org/2000/svg"><path fill-rule="evenodd" clip-rule="evenodd" d="M22.5 12c0 5.799-4.701 10.5-10.5 10.5S1.5 17.799 1.5 12 6.201 1.5 12 1.5 22.5 6.201 22.5 12zM4.693 7.656c.205-.001.42.042.644.138 1.178-1.133 2.698-1.538 4.317-1.24.336.062.107.248-.229.521-.454.37-1.103.897-.81 1.488 0 0 1.401 1.643 2.816 1.643 1.415 0 1.102 1.728-1.617 2.357-2.368.548-1.635 2.163-1.635 2.163s.748 1.278 2.465.507c1.718-.77 3.497-.591 3.333.337-.055.315-.292.388-.613.487-.329.102-.746.23-1.147.674-.506.56-1.15.811-1.15.811-.39 3.436 6.2 2.996 8.717-2.123A8.5 8.5 0 0 0 4.692 7.656z" fill="#000"/></svg>