<svg width="24" height="24" fill="none" xmlns="http://www.w3.org/2000/svg"><path fill-rule="evenodd" clip-rule="evenodd" d="M22.5 12c0 5.799-4.701 10.5-10.5 10.5S1.5 17.799 1.5 12 6.201 1.5 12 1.5 22.5 6.201 22.5 12zm-4.398-5.918A8.475 8.475 0 0 0 12 3.5a8.483 8.483 0 0 0-6.545 3.077c1.404-.614 2.892-.588 3.42-.579L9 6c.6 0 1 .4 1 1s-.4 1-1 1-1 .4-1 1 .6 1 1 1h1c.55 0 1 .45 1 1.013A1 1 0 0 1 10 12c-2.43 0-2.321 2-2 2.642.579 1.158 2.61.815 3.81 0l.59-.442a1 1 0 0 1 1.2 1.6l-.529.397C10.5 18 13 20.5 16.43 18.797c1.569-.94 2.159-2.234 2.274-3.413a4.874 4.874 0 0 0-.33-2.265c-.273-.677-.636-1.102-.907-1.274A1 1 0 0 1 18 10c.21 0 .51 0 .856.059a1.547 1.547 0 0 0-.145-.304c-.318-.526-1.024-1.177-2.225-1.898A1 1 0 0 1 17 6c.325 0 .702.017 1.102.082z" fill="#000"/></svg>