<svg width="24" height="24" fill="none" xmlns="http://www.w3.org/2000/svg"><path fill-rule="evenodd" clip-rule="evenodd" d="M3.5 12a8.5 8.5 0 1 1 5.574 7.983 259.037 259.037 0 0 0 1.678-4.658c.574.41 1.315.675 2.248.675 1.935 0 3.975-1.275 4.48-3.804C18.117 9.021 15.574 6 12 6c-1.503 0-2.981.604-4.087 1.562C6.805 8.523 6 9.907 6 11.5c0 .673.17 1.2.356 1.572a2.85 2.85 0 0 0 .37.563l.039.043.015.016.007.007.003.003.001.002h.001L7.5 13l-.707.707a1 1 0 0 0 1.436-1.392l-.007-.009a.849.849 0 0 1-.078-.128A1.5 1.5 0 0 1 8 11.5c0-.892.453-1.758 1.223-2.426C9.996 8.404 11.017 8 12 8c2.427 0 3.884 1.979 3.52 3.804C15.216 13.318 14.064 14 13 14c-.818 0-1.258-.345-1.54-.792l.025-.079c.143-.452.266-.865.354-1.203.076-.293.161-.652.161-.926 0-.368-.086-.894-.516-1.253-.493-.41-1.075-.32-1.431-.141C9.39 9.936 9 10.71 9 11.5c0 .441.069 1.125.317 1.832-.23.693-.494 1.457-.76 2.21a244.334 244.334 0 0 1-1.278 3.528A8.492 8.492 0 0 1 3.5 12zM12 1.5C6.201 1.5 1.5 6.201 1.5 12S6.201 22.5 12 22.5 22.5 17.799 22.5 12 17.799 1.5 12 1.5zm-.957 9.825l-.003.004a.022.022 0 0 1 .003-.005zm-1.045-.366l.001.014a.064.064 0 0 1-.001-.014z" fill="#000"/></svg>