<svg width="24" height="24" fill="none" xmlns="http://www.w3.org/2000/svg"><path fill-rule="evenodd" clip-rule="evenodd" d="M3 6.5a3.5 3.5 0 0 1 5.965-2.485l.407.404.555-.148a8 8 0 0 1 9.802 9.802l-.148.555.404.407a3.5 3.5 0 0 1-4.95 4.95l-.407-.404-.555.148A8 8 0 0 1 4.27 9.927l.148-.555-.404-.407A3.486 3.486 0 0 1 3 6.5zM6.5 1a5.5 5.5 0 0 0-4.288 8.944A10.039 10.039 0 0 0 2 12c0 5.523 4.477 10 10 10 .704 0 1.392-.073 2.056-.212a5.5 5.5 0 0 0 7.732-7.732c.14-.664.212-1.352.212-2.056 0-5.523-4.477-10-10-10-.704 0-1.392.073-2.056.212A5.48 5.48 0 0 0 6.5 1zm4.142 8.33c.133-.253.586-.58 1.29-.58 1.207 0 1.872.472 2.178.706a1 1 0 0 0 1.214-1.59c-.49-.374-1.577-1.116-3.392-1.116-1.216 0-2.488.558-3.061 1.652l-.047.088a2.475 2.475 0 0 0 .077 2.466c.429.713 1.172 1.222 2.048 1.458l1.553.418c.57.153.929.443 1.104.713.164.253.185.504.077.754-.198.451-.897.951-1.927.951h-.221c-.973 0-1.556-.23-2.178-.706a1 1 0 0 0-1.214 1.59c.969.74 1.977 1.116 3.392 1.116h.22c1.555 0 3.149-.751 3.76-2.15l-.916-.401.916.4c.4-.914.268-1.873-.23-2.642-.489-.753-1.301-1.297-2.262-1.556l-1.554-.419c-.469-.126-.737-.363-.854-.556a.478.478 0 0 1-.02-.507l.047-.089z" fill="#000"/></svg>