<svg width="24" height="24" fill="none" xmlns="http://www.w3.org/2000/svg"><path fill-rule="evenodd" clip-rule="evenodd" d="M3.5 11.998a8.498 8.498 0 1 1 16.995 0 8.498 8.498 0 0 1-16.995 0zM11.998 1.5C6.2 1.5 1.5 6.2 1.5 11.998c0 5.797 4.7 10.497 10.498 10.497 5.797 0 10.497-4.7 10.497-10.497 0-5.798-4.7-10.498-10.497-10.498zM7.386 6.643l.185.983-.185-.983h.005l.01-.002.03-.006.104-.017A14.38 14.38 0 0 1 9.2 6.477c1.071-.028 2.538.045 4.093.462 1.555.417 2.862 1.087 3.776 1.647a14.382 14.382 0 0 1 1.372.955l.081.066.024.02.007.006.003.003h.001l-.652.76.653-.759a1 1 0 0 1-1.303 1.517h-.001l-.012-.01a5.667 5.667 0 0 0-.292-.228c-.212-.158-.526-.38-.926-.625-.804-.493-1.932-1.068-3.249-1.42-1.316-.353-2.58-.42-3.523-.394a12.38 12.38 0 0 0-1.41.117l-.071.012-.015.003h-.001a1 1 0 0 1-.37-1.966zm.188 5.697h.002-.002zm-.003.001a1 1 0 0 1-.639-1.895l.322.946-.321-.946.002-.001.004-.002.01-.003.03-.01a5.615 5.615 0 0 1 .41-.106 8.399 8.399 0 0 1 1.116-.164c.944-.078 2.265-.046 3.826.373 1.561.418 2.721 1.051 3.5 1.59.39.27.683.516.885.7a5.674 5.674 0 0 1 .301.297l.02.023.008.008.003.004h.001v.002l-.751.659.752-.659a1 1 0 0 1-1.501 1.322l-.003-.003a3.703 3.703 0 0 0-.18-.176 6.42 6.42 0 0 0-.674-.533c-.616-.426-1.569-.952-2.879-1.303-1.31-.35-2.397-.372-3.144-.31-.374.03-.662.082-.85.123a3.65 3.65 0 0 0-.203.05l-.04.013-.005.001zm-1.1 1.84l.496.868a69.351 69.351 0 0 1-.494-.87l.003-.002.006-.003.013-.007a1.471 1.471 0 0 1 .119-.059c.069-.031.16-.069.273-.107.228-.078.543-.16.95-.211.816-.103 1.982-.08 3.531.336 1.55.415 2.572.977 3.227 1.474.327.248.558.477.716.658a3.018 3.018 0 0 1 .238.31l.01.014.01.016.007.013.003.005.002.003v.001s.001.001-.863.505l.864-.504a1 1 0 0 1-1.713 1.032l-.001-.002a1.06 1.06 0 0 0-.063-.077 2.821 2.821 0 0 0-.419-.38c-.431-.328-1.214-.782-2.535-1.136-1.322-.354-2.227-.352-2.764-.284-.27.034-.452.085-.553.12-.05.017-.081.03-.093.035l-.002.001a1 1 0 0 1-.968-1.75z" fill="#000"/></svg>