<svg width="24" height="24" fill="none" xmlns="http://www.w3.org/2000/svg"><path fill-rule="evenodd" clip-rule="evenodd" d="M3.5 12a8.5 8.5 0 1 1 17 0 8.5 8.5 0 0 1-17 0zM12 1.5C6.201 1.5 1.5 6.201 1.5 12S6.201 22.5 12 22.5 22.5 17.799 22.5 12 17.799 1.5 12 1.5zM9.957 8.711A1 1 0 0 0 8.6 8.084l-1 .437a1 1 0 0 0 .769 1.846l1.785 5.922a1 1 0 0 0 .957.711c.535-.02 1.044-.255 1.492-.533.76-.47 1.741-1.342 2.88-2.952.89-1.26 1.278-2.378 1.436-3.216.091-.484.126-.975.066-1.465A1 1 0 0 0 15.998 8h-.889a1 1 0 0 0-.168 1.986c-.113.561-.396 1.388-1.093 2.374-.897 1.27-1.619 1.934-2.104 2.278L9.957 8.71z" fill="#000"/></svg>