<svg width="24" height="24" viewBox="0 0 24 24" fill="none" xmlns="http://www.w3.org/2000/svg">
<path fill-rule="evenodd" clip-rule="evenodd" d="M7.49946 5.3849C9.05481 7.14711 10 9.46366 10 12C10 14.5363 9.05481 16.8529 7.49946 18.6151C8.78175 19.4894 10.3305 20 12 20C13.6695 20 15.2183 19.4894 16.5005 18.6151C14.9452 16.8529 14 14.5363 14 12C14 9.46366 14.9452 7.14711 16.5005 5.3849C15.2183 4.51055 13.6695 4 12 4C10.3305 4 8.78175 4.51055 7.49946 5.3849ZM18 6.70828C16.7544 8.11925 16 9.97104 16 12C16 14.029 16.7544 15.8808 18 17.2917C19.2456 15.8808 20 14.029 20 12C20 9.97104 19.2456 8.11925 18 6.70828ZM6 17.2917C7.2456 15.8808 8 14.029 8 12C8 9.97104 7.24561 8.11925 6 6.70828C4.75439 8.11925 4 9.97104 4 12C4 14.029 4.75439 15.8808 6 17.2917ZM5.33309 4.54655C7.10161 2.96367 9.43946 2 12 2C14.5605 2 16.8984 2.96367 18.6669 4.54655C20.7111 6.37618 22 9.03824 22 12C22 14.9618 20.7111 17.6238 18.6669 19.4535C16.8984 21.0363 14.5605 22 12 22C9.43946 22 7.10161 21.0363 5.33309 19.4535C3.28885 17.6238 2 14.9618 2 12C2 9.03824 3.28885 6.37618 5.33309 4.54655Z" fill="black"/>
</svg>
