<svg width="24" height="24" viewBox="0 0 24 24" fill="none" xmlns="http://www.w3.org/2000/svg">
<path fill-rule="evenodd" clip-rule="evenodd" d="M15.9532 2.07555C17.443 0.450368 19.987 0.395089 21.546 1.95403C23.1049 3.51297 23.0496 6.05703 21.4244 7.54679L15.2935 13.1668C15.1669 13.2829 15.0341 13.3898 14.8945 13.4884C14.2038 13.9765 11.45 15.9313 9.78943 17.236C8.84808 17.9757 7.54148 19.1075 6.4577 20.0663C6.02716 20.4472 5.63483 20.7981 5.31884 21.0822L5.63607 21.3995C6.0266 21.79 6.0266 22.4232 5.63607 22.8137C5.24555 23.2042 4.61238 23.2042 4.22186 22.8137L3.1612 21.753L1.74699 20.3388L0.686326 19.2781C0.295801 18.8876 0.295802 18.2545 0.686326 17.8639C1.07685 17.4734 1.71001 17.4734 2.10054 17.8639L2.41778 18.1812C2.70189 17.8652 3.05279 17.4728 3.43368 17.0423C4.39252 15.9585 5.52434 14.6519 6.26397 13.7106C7.56873 12.05 9.52354 9.29617 10.0116 8.6055C10.1102 8.46594 10.2171 8.33315 10.3332 8.20652L15.9532 2.07555ZM3.83396 19.5974L3.90265 19.666C4.23435 19.3675 4.66058 18.9859 5.13247 18.5684C6.21708 17.6088 7.56213 16.4426 8.55379 15.6634C10.2612 14.3219 13.0571 12.3379 13.7403 11.8551C13.8116 11.8047 13.8784 11.7509 13.942 11.6925L20.073 6.07248C20.8588 5.35214 20.8855 4.12203 20.1318 3.36824C19.378 2.61446 18.1479 2.64119 17.4275 3.427L11.8075 9.55797C11.7491 9.62161 11.6953 9.68845 11.6449 9.7597C11.1621 10.4429 9.17812 13.2388 7.8366 14.9462C7.05745 15.9379 5.89117 17.2829 4.93161 18.3675C4.51412 18.8394 4.13253 19.2657 3.83396 19.5974Z" fill="black"/>
</svg>
