<svg width="24" height="24" viewBox="0 0 24 24" fill="none" xmlns="http://www.w3.org/2000/svg">
<path fill-rule="evenodd" clip-rule="evenodd" d="M7 2C5.89543 2 5 2.89543 5 4V8C3.89543 8 3 8.89543 3 10V19C3 20.6569 4.34315 22 6 22H18C19.6569 22 21 20.6569 21 19V10.3333C21 9.15784 20.1308 8.18537 19 8.02363V4C19 2.89543 18.1046 2 17 2H16C14.8954 2 14 2.89543 14 4C14 5.10457 13.1046 6 12 6C10.8954 6 10 5.10457 10 4C10 2.89543 9.10457 2 8 2H7ZM7 4H8C8 6.20914 9.79086 8 12 8C14.2091 8 16 6.20914 16 4H17V8.33333C17 9.25381 17.7462 10 18.6667 10C18.8508 10 19 10.1492 19 10.3333V19C19 19.5523 18.5523 20 18 20H6C5.44772 20 5 19.5523 5 19V10C6.10457 10 7 9.10457 7 8V4ZM13.6459 14.7634C14.7978 13.7887 14.7115 12.2584 14.0921 11.2681C13.7698 10.7526 13.2724 10.311 12.631 10.0891C11.9771 9.8627 11.242 9.88874 10.5056 10.2003L9.61036 10.579C9.10172 10.7942 8.86384 11.381 9.07903 11.8896C9.29422 12.3983 9.881 12.6362 10.3896 12.421L11.2849 12.0422C11.6038 11.9073 11.8278 11.9275 11.9769 11.979C12.1385 12.035 12.288 12.1552 12.3964 12.3285C12.6386 12.7158 12.5494 13.0713 12.3541 13.2366C12.2792 13.3 12.1467 13.3879 11.9304 13.5127C11.8273 13.5721 11.7169 13.6335 11.5954 13.7008L11.5789 13.71L11.5788 13.71C11.4644 13.7735 11.3409 13.8419 11.2174 13.9125C10.7447 14.1828 10.0661 14.5919 9.66156 15.175C9.6545 15.1852 9.64763 15.1955 9.64095 15.2059C9.34438 15.6693 9.18292 16.0755 9.09628 16.3902C9.05314 16.5469 9.02903 16.6791 9.01573 16.7825C9.00908 16.8341 9.00515 16.8784 9.00288 16.9149C9.00174 16.9331 9.00102 16.9493 9.00059 16.9636L9.00013 16.9833L9.00003 16.9921L9.00001 16.9961L9 16.9981L9 16.9991C9 16.9995 9 17 10 17H9C9 17.5523 9.44772 18 10 18H14C14.5523 18 15 17.5523 15 17C15 16.4477 14.5523 16 14 16H11.6504C11.7939 15.8973 11.9788 15.781 12.2102 15.6487C12.3219 15.5848 12.4348 15.5222 12.5521 15.4572L12.5523 15.4571L12.5651 15.45C12.6846 15.3837 12.8097 15.3143 12.9299 15.245C13.1602 15.1121 13.4254 14.95 13.6459 14.7634Z" fill="black"/>
</svg>
