<svg width="24" height="24" viewBox="0 0 24 24" fill="none" xmlns="http://www.w3.org/2000/svg">
<path fill-rule="evenodd" clip-rule="evenodd" d="M7.49946 5.3849C8.84785 6.91263 9.73766 8.85699 9.95058 11H14.0494C14.2623 8.85699 15.1521 6.91263 16.5005 5.3849C15.2183 4.51055 13.6695 4 12 4C10.3305 4 8.78175 4.51055 7.49946 5.3849ZM18 6.70828C16.9623 7.88373 16.2655 9.36511 16.0618 11H19.9382C19.7345 9.36511 19.0377 7.88373 18 6.70828ZM19.9382 13H16.0618C16.2655 14.6349 16.9623 16.1163 18 17.2917C19.0377 16.1163 19.7345 14.6349 19.9382 13ZM16.5005 18.6151C15.1521 17.0874 14.2623 15.143 14.0494 13H9.95058C9.73766 15.143 8.84785 17.0874 7.49946 18.6151C8.78175 19.4894 10.3305 20 12 20C13.6695 20 15.2183 19.4894 16.5005 18.6151ZM6 17.2917C7.03769 16.1163 7.73446 14.6349 7.93817 13H4.06183C4.26554 14.6349 4.96231 16.1163 6 17.2917ZM4.06183 11H7.93817C7.73446 9.36511 7.03769 7.88373 6 6.70828C4.96231 7.88373 4.26554 9.36511 4.06183 11ZM5.33309 4.54655C7.10161 2.96367 9.43946 2 12 2C14.5605 2 16.8984 2.96367 18.6669 4.54655C20.7111 6.37618 22 9.03824 22 12C22 14.9618 20.7111 17.6238 18.6669 19.4535C16.8984 21.0363 14.5605 22 12 22C9.43946 22 7.10161 21.0363 5.33309 19.4535C3.28885 17.6238 2 14.9618 2 12C2 9.03824 3.28885 6.37618 5.33309 4.54655Z" fill="black"/>
</svg>
