<svg width="24" height="24" viewBox="0 0 24 24" fill="none" xmlns="http://www.w3.org/2000/svg">
<path fill-rule="evenodd" clip-rule="evenodd" d="M12 0C8.25164 0 5.27092 1.3419 3.22007 3.11931C1.20902 4.86222 0 7.11562 0 9V14C0 15.6569 1.34315 17 3 17H5.28881L5.95557 21.445C6.17585 22.9136 7.43739 24 8.92237 24H15.0776C16.5626 24 17.8242 22.9136 18.0444 21.445L18.7112 17H21C22.6569 17 24 15.6569 24 14V9C24 7.11562 22.791 4.86222 20.7799 3.11931C18.7291 1.3419 15.7484 0 12 0ZM5.24226 14.3474C5.43223 14.1269 5.70889 14 6 14V8C6 6.89543 6.89543 6 8 6H16C17.1046 6 18 6.89543 18 8V14C18.2911 14 18.5678 14.1269 18.7577 14.3474C18.9151 14.5301 19 14.7621 19 15H21C21.5523 15 22 14.5523 22 14V9C22 7.88438 21.209 6.13778 19.4701 4.63069C17.7709 3.1581 15.2516 2 12 2C8.74836 2 6.22908 3.1581 4.52993 4.63069C2.79098 6.13778 2 7.88438 2 9V14C2 14.5523 2.44772 15 3 15H4.99999C4.99999 14.7621 5.08492 14.5301 5.24226 14.3474ZM16 8V14H8V8H16ZM7.76119 20L7.93344 21.1483C8.00687 21.6379 8.42738 22 8.92237 22H9.36722L9.11722 20H7.76119ZM7.46119 18H8.86722L8.61722 16H7.16119L7.46119 18ZM10.6328 16L10.8828 18H13.1172L13.3672 16H10.6328ZM15.3828 16L15.1328 18H16.5388L16.8388 16H15.3828ZM16.2388 20H14.8828L14.6328 22H15.0776C15.5726 22 15.9931 21.6379 16.0666 21.1483L16.2388 20ZM12.6172 22L12.8672 20H11.1328L11.3828 22H12.6172Z" fill="black"/>
</svg>
