<svg width="24" height="24" viewBox="0 0 24 24" fill="none" xmlns="http://www.w3.org/2000/svg">
<path fill-rule="evenodd" clip-rule="evenodd" d="M19.4159 8.36025C21.0702 5.61106 18.4327 2.04897 15.3082 3.11014C14.1988 0.0300193 9.80116 0.0300174 8.69171 3.11014C5.56723 2.04897 2.9297 5.61106 4.58405 8.36025C1.88817 10.1281 2.80913 14.4776 6.0466 14.8914C5.93773 16.0054 6.33516 16.9832 6.99997 17.6794V22.0979C6.99997 23.276 8.2959 23.9943 9.29497 23.3699L12 21.6792L14.705 23.3699C15.704 23.9943 17 23.276 17 22.0979V17.6794C17.6648 16.9832 18.0622 16.0054 17.9533 14.8914C21.1908 14.4776 22.1118 10.1281 19.4159 8.36025ZM8.99997 21.1958V18.7454C10.0162 18.924 11.125 18.6698 12 17.8125C12.8749 18.6698 13.9837 18.924 15 18.7454V21.1958L12.53 19.652L12 19.3208L11.47 19.652L8.99997 21.1958ZM10.513 3.98769C10.9064 2.40417 13.0935 2.40417 13.4869 3.98769C13.5054 4.06233 13.5288 4.13448 13.5565 4.20388C13.0601 4.0709 12.5383 4 12 4C11.4616 4 10.9398 4.0709 10.4434 4.20388C10.4712 4.13448 10.4945 4.06233 10.513 3.98769ZM8.24772 5.08378C8.31482 5.11472 8.38258 5.1407 8.45067 5.1619C7.59833 5.78824 6.91755 6.63441 6.49191 7.61682C6.4647 7.57212 6.43511 7.52829 6.40311 7.48549C5.38061 6.11762 6.86942 4.44811 8.24772 5.08378ZM6.00195 9.84435C5.95251 9.87724 5.90069 9.90785 5.84654 9.93596C4.38745 10.6934 4.9431 12.8859 6.50296 12.9225C6.59624 12.9247 6.68699 12.9345 6.77476 12.9512C6.28152 12.0798 5.99997 11.0728 5.99997 10C5.99997 9.94796 6.00063 9.89608 6.00195 9.84435ZM8.0986 14.5586C8.09912 14.6686 8.08861 14.7803 8.06615 14.8922C7.928 15.5808 8.19187 16.1196 8.61662 16.4524C9.24919 16.9478 10.1488 16.9505 10.7413 16.2296C10.8384 16.1114 10.9479 16.0108 11.066 15.9277C9.94336 15.7523 8.92387 15.2655 8.0986 14.5586ZM12.9339 15.9277C13.0521 16.0108 13.1615 16.1114 13.2587 16.2296C13.8511 16.9505 14.7508 16.9478 15.3833 16.4524C15.8081 16.1196 16.0719 15.5808 15.9338 14.8922C15.9113 14.7803 15.9008 14.6686 15.9013 14.5586C15.0761 15.2655 14.0566 15.7523 12.9339 15.9277ZM17.2252 12.9512C17.313 12.9345 17.4037 12.9247 17.497 12.9225C19.0568 12.8859 19.6125 10.6934 18.1534 9.93596C18.0992 9.90785 18.0474 9.87724 17.998 9.84436C17.9993 9.89608 18 9.94796 18 10C18 11.0728 17.7184 12.0798 17.2252 12.9512ZM17.508 7.61682C17.5352 7.57212 17.5648 7.52829 17.5968 7.48549C18.6193 6.11762 17.1305 4.44811 15.7522 5.08378C15.6851 5.11472 15.6174 5.1407 15.5493 5.1619C16.4016 5.78824 17.0824 6.63441 17.508 7.61682ZM7.99997 10C7.99997 7.79086 9.79083 6 12 6C14.2091 6 16 7.79086 16 10C16 12.2091 14.2091 14 12 14C9.79083 14 7.99997 12.2091 7.99997 10Z" fill="black"/>
</svg>
