<svg width="24" height="24" viewBox="0 0 24 24" fill="none" xmlns="http://www.w3.org/2000/svg">
<path fill-rule="evenodd" clip-rule="evenodd" d="M5.97014 8.17779C7.26162 8.65722 8.42967 9.62878 8.97582 10.8339C9.12507 11.1632 9.08493 11.5474 8.87084 11.8388C8.83199 11.8917 8.79426 11.9454 8.7577 12H8.76898H8.79479H8.82056H8.84628H8.87195H8.89758H8.92316H8.94868H8.97416H8.99959H9.02496H9.05028H9.07555H9.10077H9.12593H9.15103H9.17607H9.20106H9.226H9.25087H9.27568H9.30043H9.32512H9.34975H9.37432H9.39882H9.42326H9.44763H9.47194H9.49618H9.52035H9.54445H9.56849H9.59245H9.61635H9.64017H9.66392H9.6876H9.7112H9.73473H9.75819H9.78157H9.80487H9.82809H9.85124H9.8743H9.89729H9.92019H9.94302H9.96576H9.98841H10.011H10.0335H10.0559H10.0782H10.1004H10.1226H10.1446H10.1666H10.1885H10.2102H10.2319H10.2535H10.275H10.2965H10.3178H10.339H10.3601H10.3811H10.4021H10.4229H10.4436H10.4643H10.4848H10.5052H10.5255H10.5458H10.5659H10.5859H10.6058H10.6256H10.6453H10.6649H10.6843H10.7037H10.723H10.7421H10.7611H10.78H10.7989H10.8175H10.8361H10.8546H10.8729H10.8911H10.9092H10.9272H10.9451H10.9628H10.9805H10.998H11.0153H11.0326H11.0497H11.0667H11.0836H11.1004H11.117H11.1335H11.1498H11.1661H11.1822H11.1982H11.214H11.2297H11.2453H11.2607H11.2675C11.6133 11.4022 12.2597 11 13 11C14.1045 11 15 11.8954 15 13C15 14.1046 14.1045 15 13 15C12.8335 15 12.6718 14.9797 12.5172 14.9413L10.4922 17.3713C10.4755 17.7616 10.4313 18.1234 10.3571 18.458C10.9943 18.8037 11.7242 19 12.5001 19C13.8971 19 15.1449 18.3646 15.9718 17.3632C16.1618 17.1332 16.4446 17 16.7429 17H19.2454C20.3439 15.63 21 13.8927 21 12C21 7.58172 17.4183 4 13 4C9.9673 4 7.32685 5.68789 5.97014 8.17779ZM9.44862 20.2407C10.3585 20.7253 11.3972 21 12.5001 21C14.3437 21 16.0086 20.2314 17.1905 19H19.7083C19.9928 19 20.2638 18.8789 20.4535 18.6669C22.0363 16.8984 23 14.5605 23 12C23 6.47715 18.5229 2 13 2C8.69964 2 5.03568 4.71401 3.62272 8.51929C3.51439 8.81104 3.54807 9.13661 3.71383 9.40001C3.8796 9.66341 4.15855 9.83462 4.46846 9.86316C5.39892 9.94887 6.35931 10.5204 6.88808 11.2187C6.74151 11.4689 6.61117 11.7298 6.49852 12H6.49105H6.46424H6.43745H6.41069H6.38395H6.35723H6.33054H6.30388H6.27724H6.25063H6.22405H6.1975H6.17098H6.1445H6.11804H6.09161H6.06522H6.03887H6.01254H5.98626H5.96001H5.9338H5.90762H5.88149H5.85539H5.82934H5.80332H5.77735H5.75142H5.72553H5.69969H5.6739H5.64815H5.62244H5.59679H5.57118H5.54562H5.52011H5.49465H5.46925H5.44389H5.41859H5.39334H5.36815H5.34301H5.31793H5.2929H5.26793H5.24302H5.21817H5.19338H5.16865H5.14399H5.11938H5.09484H5.07036H5.04595H5.0216H4.99732H4.9731H4.94895H4.92487H4.90087H4.87693H4.85306H4.82926H4.80554H4.78189H4.75831H4.73481H4.71138H4.68803H4.66476H4.64157H4.61845H4.59542H4.57246H4.54958H4.52679H4.50408H4.48146H4.45891H4.43646H4.41408H4.3918H4.3696H4.34749H4.32547H4.30354H4.2817H4.25995H4.2383H4.21673H4.19526H4.17388H4.1526H4.13142H4.11033H4.08934H4.06845H4.04766H4.02696H4.00637H3.98588H3.96549H3.9452H3.92502H3.90494H3.88497H3.86511H3.84535H3.8257H3.80615H3.78672H3.7674H3.74818H3.72908H3.71009H3.69122H3.67246H3.65381H3.63528H3.61686H3.59857H3.58039H3.56233H3.54438H3.52656H3.50886H3.49128H3.47383H3.45649H3.43929H3.4222H3.40524H3.38841H3.37171H3.35513H3.33869H3.32237H3.30618H3.29012H3.2742H3.25841H3.24275H3.22723H3.21184H3.19659H3.18147H3.16649H3.15165H3.13695H3.12239H3.10797H3.09369H3.07955H3.06556H3.05171H3.038H3.02444H3.01102H2.99776H2.98463H2.97166H2.95884H2.94617H2.93364H2.92127H2.90905H2.89699H2.88508H2.87332H2.86172H2.85027H2.83899H2.82786H2.81688H2.80607H2.79542H2.78493H2.7746H2.76443H2.75443H2.74459H2.73491H2.7254H2.71606H2.70688H2.69787H2.68903H2.68037H2.67187H2.66354H2.65538H2.6474H2.63959H2.63195H2.62449H2.6172H2.61009H2.60316H2.59641H2.58983H2.58344H2.57722H2.57119H2.56534H2.55967H2.55419H2.54889H2.54377H2.53884H2.5341H2.52954H2.52518H2.521H2.51701H2.51322H2.50961H2.5062H2.50297H2.49995C2.10492 12 1.74692 12.2325 1.58632 12.5934C1.27342 13.2966 1.0824 14.2702 0.989671 15.1582C0.896829 16.0473 0.886885 17.0028 1.01771 17.6876C1.22951 18.7964 1.64804 19.7661 2.00391 20.4489C2.18334 20.7931 2.35067 21.0717 2.47505 21.2668C2.53734 21.3646 2.58915 21.4419 2.6267 21.4965C2.64549 21.5238 2.66073 21.5456 2.67197 21.5614L2.68576 21.5807L2.6903 21.5869L2.69196 21.5892L2.69264 21.5901L2.69294 21.5905C2.69307 21.5907 2.69321 21.5909 3.49995 21L2.69321 21.5909C2.88156 21.8481 3.18121 22 3.49995 22L3.49995 21C3.49995 22 3.50008 22 3.50022 22H3.50053H3.5013L3.50338 22L3.50972 22L3.53091 21.9998C3.54874 21.9997 3.57389 21.9994 3.60576 21.9989C3.66947 21.9978 3.76017 21.9957 3.8729 21.9915C4.09794 21.9832 4.41303 21.9666 4.77798 21.9334C5.49441 21.8683 6.45832 21.7346 7.31618 21.4487C8.04196 21.2068 8.83624 20.8844 9.44862 20.2407ZM7.12791 18.1604C7.33641 18.4658 7.57028 18.7525 7.82648 19.0175C7.57714 19.2094 7.22112 19.3722 6.68372 19.5513C6.04157 19.7654 5.25548 19.8817 4.59691 19.9416C4.38665 19.9607 4.19503 19.9736 4.03258 19.9823C3.95614 19.8539 3.86895 19.7 3.77745 19.5245C3.6131 19.2092 3.43942 18.8328 3.28905 18.4163L7.12791 18.1604ZM8.2848 16.0788L9.00598 16.0307L10.6982 14H10.6843H10.6649H10.6453H10.6256H10.6058H10.5859H10.5659H10.5458H10.5255H10.5052H10.4848H10.4643H10.4436H10.4229H10.4021H10.3811H10.3601H10.339H10.3178H10.2965H10.275H10.2535H10.2319H10.2102H10.1885H10.1666H10.1446H10.1226H10.1004H10.0782H10.0559H10.0335H10.011H9.98841H9.96576H9.94302H9.92019H9.89729H9.8743H9.85124H9.82809H9.80487H9.78157H9.75819H9.73473H9.7112H9.6876H9.66392H9.64017H9.61635H9.59245H9.56849H9.54445H9.52035H9.49618H9.47194H9.44763H9.42326H9.39882H9.37432H9.34975H9.32512H9.30043H9.27568H9.25087H9.226H9.20106H9.17607H9.15103H9.12593H9.10077H9.07555H9.05028H9.02496H8.99959H8.97416H8.94868H8.92316H8.89758H8.87195H8.84628H8.82056H8.79479H8.76898H8.74312H8.71722H8.69127H8.66529H8.63926H8.61319H8.58708H8.56093H8.53474H8.50851H8.48225H8.45595H8.42961H8.40324H8.37684H8.3504H8.32393H8.29743H8.2709H8.24434H8.21775H8.19113H8.16449H8.13781H8.11111H8.08439H8.05764H8.03087H8.02745C8.00935 14.1641 8.00006 14.3309 8.00006 14.5C8.00006 15.0555 8.10072 15.5875 8.2848 16.0788ZM6.01904 14C6.00646 14.1651 6.00006 14.3318 6.00006 14.5C6.00006 15.0939 6.07971 15.6692 6.22892 16.2158L2.9197 16.4365C2.92014 16.1142 2.93892 15.7484 2.97886 15.3659C3.03152 14.8616 3.11488 14.3874 3.21559 14H3.22723H3.24275H3.25841H3.2742H3.29012H3.30618H3.32237H3.33869H3.35513H3.37171H3.38841H3.40524H3.4222H3.43929H3.45649H3.47383H3.49128H3.50886H3.52656H3.54438H3.56233H3.58039H3.59857H3.61686H3.63528H3.65381H3.67246H3.69122H3.71009H3.72908H3.74818H3.7674H3.78672H3.80615H3.8257H3.84535H3.86511H3.88497H3.90494H3.92502H3.9452H3.96549H3.98588H4.00637H4.02696H4.04766H4.06845H4.08934H4.11033H4.13142H4.1526H4.17388H4.19526H4.21673H4.2383H4.25995H4.2817H4.30354H4.32547H4.34749H4.3696H4.3918H4.41408H4.43646H4.45891H4.48146H4.50408H4.52679H4.54958H4.57246H4.59542H4.61845H4.64157H4.66476H4.68803H4.71138H4.73481H4.75831H4.78189H4.80554H4.82926H4.85306H4.87693H4.90087H4.92487H4.94895H4.9731H4.99732H5.0216H5.04595H5.07036H5.09484H5.11938H5.14399H5.16865H5.19338H5.21817H5.24302H5.26793H5.2929H5.31793H5.34301H5.36815H5.39334H5.41859H5.44389H5.46925H5.49465H5.52011H5.54562H5.57118H5.59679H5.62244H5.64815H5.6739H5.69969H5.72553H5.75142H5.77735H5.80332H5.82934H5.85539H5.88149H5.90762H5.9338H5.96001H5.98626H6.01254H6.01904Z" fill="black"/>
</svg>
