<svg width="24" height="24" viewBox="0 0 24 24" fill="none" xmlns="http://www.w3.org/2000/svg">
<path fill-rule="evenodd" clip-rule="evenodd" d="M5 2C4.84476 2 4.69164 2.03615 4.55279 2.10557L1.10557 3.82918C0.428004 4.16796 0 4.86049 0 5.61803V9.38197C0 10.8687 1.56462 11.8357 2.89443 11.1708L4 10.618V19C4 20.6569 5.34315 22 7 22H17C18.6569 22 20 20.6569 20 19V10.618L21.1056 11.1708C22.4354 11.8357 24 10.8687 24 9.38197V5.61803C24 4.86049 23.572 4.16796 22.8944 3.82918L19.4472 2.10557C19.3084 2.03615 19.1552 2 19 2H16C14.8954 2 14 2.89543 14 4C14 5.10457 13.1046 6 12 6C10.8954 6 10 5.10457 10 4C10 2.89543 9.10457 2 8 2H5ZM4 4.61803V8.38197L2 9.38197L2 5.61803L4 4.61803ZM8 4H6V9V19C6 19.5523 6.44772 20 7 20H17C17.5523 20 18 19.5523 18 19V9V4H16C16 6.20914 14.2091 8 12 8C9.79086 8 8 6.20914 8 4ZM22 5.61803L20 4.61803V8.38197L22 9.38197V5.61803ZM10 12.5C10 12.2239 10.2239 12 10.5 12C10.7761 12 11 12.2239 11 12.5V14.5C11 14.7761 10.7761 15 10.5 15C10.2239 15 10 14.7761 10 14.5V12.5ZM10.5 10C9.11929 10 8 11.1193 8 12.5V14.5C8 15.8807 9.11929 17 10.5 17C11.8807 17 13 15.8807 13 14.5V12.5C13 11.1193 11.8807 10 10.5 10ZM14 10C13.4477 10 13 10.4477 13 11C13 11.5523 13.4477 12 14 12V16C14 16.5523 14.4477 17 15 17C15.5523 17 16 16.5523 16 16V11C16 10.4477 15.5523 10 15 10H14Z" fill="black"/>
</svg>
