<svg width="24" height="24" viewBox="0 0 24 24" fill="none" xmlns="http://www.w3.org/2000/svg">
<path fill-rule="evenodd" clip-rule="evenodd" d="M5 5C4.44772 5 4 5.44772 4 6V12.6528C4 13.2241 4.2443 13.7681 4.67127 14.1476L11.3356 20.0715C11.7145 20.4083 12.2855 20.4083 12.6644 20.0715L19.3287 14.1476C19.7557 13.7681 20 13.2241 20 12.6528V6C20 5.44772 19.5523 5 19 5H5ZM2 6C2 4.34315 3.34315 3 5 3H19C20.6569 3 22 4.34315 22 6V12.6528C22 13.7954 21.5114 14.8834 20.6575 15.6424L13.9931 21.5663C12.8564 22.5767 11.1436 22.5767 10.0069 21.5663L3.34254 15.6424C2.48859 14.8834 2 13.7954 2 12.6528V6Z" fill="black"/>
</svg>
