<svg width="24" height="24" viewBox="0 0 24 24" fill="none" xmlns="http://www.w3.org/2000/svg">
<path fill-rule="evenodd" clip-rule="evenodd" d="M11.2049 4.03901C8.85847 4.27052 6.80985 5.51585 5.5031 7.33096L5.90192 7.43782L6.90192 9.16987L6.16987 11.9019L4.43782 12.9019L4.03901 12.7951C4.27052 15.1415 5.51585 17.1902 7.33096 18.4969L7.43782 18.0981L9.16987 17.0981L11.9019 17.8301L12.9019 19.5622L12.7951 19.961C15.1415 19.7295 17.1902 18.4842 18.4969 16.669L18.0981 16.5622L17.0981 14.8301L17.8301 12.0981L19.5622 11.0981L19.961 11.2049C19.7295 8.85847 18.4842 6.80985 16.669 5.50311L16.5622 5.90192L14.8301 6.90192L12.0981 6.16987L11.0981 4.43782L11.2049 4.03901ZM12 2C6.47715 2 2 6.47715 2 12C2 17.5228 6.47715 22 12 22C17.5228 22 22 17.5228 22 12C22 6.47715 17.5228 2 12 2ZM9.63397 9.90192L8.90192 12.634L9.90192 14.366L12.634 15.0981L14.366 14.0981L15.0981 11.366L14.0981 9.63397L11.366 8.90192L9.63397 9.90192Z" fill="black"/>
</svg>
