<svg width="24" height="24" viewBox="0 0 24 24" fill="none" xmlns="http://www.w3.org/2000/svg">
<path fill-rule="evenodd" clip-rule="evenodd" d="M7.81696 2.97331C8.0365 2.38786 8.59618 2 9.22145 2H14.7784C15.4037 2 15.9634 2.38786 16.1829 2.97332L22.1829 18.9733C22.5507 19.9539 21.8258 21 20.7784 21H17.2214C16.8294 21 16.463 20.8475 16.1902 20.5893C15.9256 20.8412 15.5665 21 15.1584 21H3.22145C2.17414 21 1.44922 19.9539 1.81696 18.9733L7.81696 2.97331ZM13.9319 15L11.9999 9.848L10.068 15H13.9319ZM9.56795 4L3.94295 19H14.4369L13.6869 17H8.62495C8.29697 17 7.98984 16.8392 7.80302 16.5696C7.61621 16.3 7.57346 15.956 7.68862 15.6489L11.0636 6.64888C11.21 6.25857 11.5831 6 11.9999 6C12.4168 6 12.7899 6.25857 12.9363 6.64888L17.568 19H20.0569L14.4319 4H9.56795Z" fill="black"/>
</svg>
