<svg width="24" height="24" viewBox="0 0 24 24" fill="none" xmlns="http://www.w3.org/2000/svg">
<path fill-rule="evenodd" clip-rule="evenodd" d="M16.0943 1.17384L17.0757 0.981975C16.9725 0.454097 16.4702 0.102408 15.9389 0.18598L16.0943 1.17384ZM16.8963 4.99818C17.1559 4.21652 17.2219 3.40917 17.2255 2.77605C17.2283 2.27633 17.192 1.83542 17.1551 1.51904C17.1365 1.36014 17.1176 1.23078 17.103 1.13894C17.0956 1.09297 17.0893 1.05626 17.0846 1.02981L17.0787 0.99788L17.0768 0.987881L17.0762 0.984411L17.0759 0.983063L17.0758 0.982486C17.0757 0.982225 17.0757 0.981975 16.0943 1.17384C15.9389 0.18598 15.9387 0.18602 15.9384 0.186061L15.9378 0.186153L15.9365 0.186369L15.933 0.186928L15.9229 0.18857L15.8909 0.194013C15.8644 0.198624 15.8278 0.205241 15.7821 0.214056C15.6908 0.231667 15.5627 0.258154 15.4071 0.295085C15.0972 0.368615 14.6704 0.485251 14.2018 0.658814C13.304 0.991332 12.0807 1.59436 11.3364 2.6573C10.6115 3.69261 10.452 5.00574 10.4392 5.95795C9.44668 5.33051 8.01136 4.54543 6.03899 5.24909C4.33844 5.85577 3.3278 7.21662 2.75469 8.60172C2.18364 9.98182 2 11.4859 2 12.6156C2 14.5441 2.64111 16.5951 3.61563 18.3615C4.58791 20.1238 5.94833 21.7042 7.48692 22.6239C8.11336 22.9983 8.73813 23.0364 9.30716 22.8996C9.78791 22.784 10.2362 22.538 10.5652 22.3574L10.6104 22.3325C11.2015 22.0087 11.5819 21.8215 12 21.8215C12.4181 21.8215 12.7985 22.0087 13.3896 22.3325L13.4348 22.3574C13.7638 22.538 14.2121 22.784 14.6928 22.8996C15.2619 23.0364 15.8866 22.9983 16.5131 22.6239C18.6123 21.3691 20.4042 18.8697 21.3228 16.2786C21.4401 15.9479 21.3755 15.5801 21.1526 15.3092C20.9298 15.0383 20.5813 14.9039 20.2343 14.9551C20.1578 14.9664 20.0797 14.9723 20 14.9723C19.0345 14.9723 18 14.0032 18 12.4723C18 10.9414 19.0345 9.97227 20 9.97227C20.0679 9.97227 20.1347 9.97653 20.2002 9.98476C20.5533 10.0291 20.9034 9.88243 21.1195 9.5996C21.3355 9.31677 21.385 8.94043 21.2493 8.61139C20.6768 7.22288 19.6655 5.85718 17.961 5.24909C17.587 5.11567 17.2323 5.03578 16.8963 4.99818ZM12.7676 6.27513C12.6566 6.31623 12.5481 6.35347 12.4439 6.38708C12.4399 6.27765 12.4378 6.16301 12.4384 6.04467C12.4432 5.20355 12.5878 4.35695 12.9747 3.80445C13.3616 3.25194 14.1076 2.82645 14.8964 2.53431C15.0074 2.49321 15.1158 2.45597 15.22 2.42236C15.2241 2.53179 15.2262 2.64644 15.2255 2.76477C15.2208 3.6059 15.0761 4.45249 14.6893 5.005C14.3024 5.5575 13.5563 5.98299 12.7676 6.27513ZM6.71101 7.13281C7.86767 6.72016 8.60885 7.15971 9.62114 7.80866L9.70877 7.86503C10.264 8.2228 11.0687 8.74136 12 8.74136C12.9313 8.74136 13.736 8.2228 14.2912 7.86504L14.3789 7.80866C15.3911 7.15972 16.1323 6.72017 17.289 7.13281C17.8735 7.34135 18.349 7.71032 18.7314 8.19753C17.0785 8.80977 16 10.5855 16 12.4723C16 14.435 17.167 16.2775 18.9336 16.8152C18.0714 18.5969 16.7965 20.1244 15.4869 20.9072C15.3653 20.9799 15.2878 20.9856 15.1602 20.955C14.9668 20.9085 14.7435 20.7938 14.3506 20.5786L14.2943 20.5477C13.7677 20.2584 12.9724 19.8215 12 19.8215C11.0276 19.8215 10.2323 20.2584 9.70567 20.5477L9.64935 20.5786C9.25655 20.7938 9.03321 20.9085 8.83978 20.955C8.71222 20.9856 8.63472 20.9799 8.51308 20.9072C7.36157 20.2189 6.22198 18.9454 5.36679 17.3954C4.51384 15.8493 4 14.1294 4 12.6156C4 11.6677 4.1588 10.4393 4.60273 9.36639C5.04459 8.2985 5.72145 7.48584 6.71101 7.13281L6.71101 7.13281Z" fill="black"/>
</svg>
