<svg width="24" height="24" viewBox="0 0 24 24" fill="none" xmlns="http://www.w3.org/2000/svg">
<path fill-rule="evenodd" clip-rule="evenodd" d="M12 1C12.3632 1 12.6978 1.19689 12.8742 1.51436L22.8742 19.5143C23.0462 19.8241 23.0416 20.2017 22.8619 20.5071C22.6822 20.8125 22.3543 21 22 21L15.6364 21C15.2896 21 14.9676 20.8204 14.7854 20.5253L10.3787 13.3863C8.47779 10.3069 8.38898 6.4407 10.1465 3.27722L11.1258 1.51436C11.3022 1.19689 11.6368 1 12 1ZM12 4.05912L11.8948 4.2485C10.4888 6.77929 10.5598 9.87224 12.0806 12.3358L16.1943 19L20.3005 19L12 4.05912ZM7.63996 10.0831L7.05769 10.8961C7.63996 10.0831 7.64044 10.0835 7.64094 10.0838L7.64194 10.0846L7.64406 10.0861L7.64867 10.0895L7.65941 10.0974C7.66723 10.1032 7.67636 10.1101 7.68674 10.1182C7.70751 10.1343 7.73327 10.155 7.76352 10.1804C7.82402 10.2313 7.90241 10.3015 7.99458 10.3932C8.1791 10.5767 8.41801 10.8456 8.67895 11.2177C9.20216 11.9638 9.80529 13.1127 10.241 14.8C10.6802 16.501 10.6865 17.8641 10.5706 18.8259C10.5128 19.3055 10.4249 19.6826 10.3471 19.9494C10.3083 20.0828 10.2719 20.1886 10.243 20.266C10.2286 20.3046 10.2161 20.3362 10.206 20.3605C10.201 20.3727 10.1966 20.3831 10.1929 20.3916L10.1879 20.4031L10.1858 20.4078L10.1849 20.4099L10.1844 20.4108C10.1842 20.4113 10.184 20.4118 9.27273 20L10.184 20.4118C10.0222 20.7699 9.66567 21 9.27273 21H2C1.64568 21 1.31781 20.8125 1.13813 20.5071C0.958444 20.2017 0.95377 19.8241 1.12584 19.5143L6.18354 10.4105C6.32199 10.1613 6.56024 9.98301 6.8384 9.92049C7.11655 9.85797 7.40817 9.91714 7.63996 10.0831ZM8.52035 19C8.54379 18.8796 8.56625 18.7417 8.58493 18.5866C8.67239 17.8609 8.67865 16.749 8.30449 15.3C7.98572 14.0655 7.57673 13.2119 7.22785 12.649L3.69952 19H8.52035Z" fill="black"/>
</svg>
