<svg width="24" height="24" viewBox="0 0 24 24" fill="none" xmlns="http://www.w3.org/2000/svg">
<path fill-rule="evenodd" clip-rule="evenodd" d="M12 1C12.3631 1 12.6978 1.19689 12.8741 1.51436L22.8741 19.5143C23.2377 20.1687 22.7486 21 22 21L15.6363 21C15.2896 21 14.9675 20.8204 14.7854 20.5253L10.3787 13.3863C8.47776 10.3069 8.38895 6.4407 10.1464 3.27722L11.1258 1.51436C11.3022 1.19689 11.6368 1 12 1ZM12 4.05912C10.5615 6.64846 10.5044 9.78249 12.0805 12.3358L16.1942 19L20.3005 19L12 4.05912Z" fill="black"/>
<path fill-rule="evenodd" clip-rule="evenodd" d="M9.2727 21C9.66564 21 10.0222 20.7699 10.184 20.4118C10.8232 18.5999 10.7168 16.6428 10.2409 14.8C9.80541 13.1133 9.06064 11.2016 7.63993 10.0831C7.1613 9.74036 6.46941 9.89587 6.1835 10.4105L1.12581 19.5143C0.762257 20.1687 1.25136 21 1.99997 21H9.2727ZM8.30446 15.3C7.98569 14.0655 7.5767 13.2119 7.22782 12.649L3.69948 19H8.52032C8.65345 18.3163 8.75857 17.0586 8.30446 15.3Z" fill="black"/>
</svg>
