<svg width="24" height="24" viewBox="0 0 24 24" fill="none" xmlns="http://www.w3.org/2000/svg">
<path fill-rule="evenodd" clip-rule="evenodd" d="M11.5 8.5C11.5 9.39629 11.1631 10.2139 10.609 10.8331C11.7536 11.6489 12.5 12.9873 12.5 14.5C12.5 16.9853 10.4853 19 8 19H3.5C2.67157 19 2 18.3284 2 17.5V5.5C2 4.67157 2.67157 4 3.5 4H7.5C9.70914 4 11.5 5.79086 11.5 8V8.5ZM4 10V6H7.5C8.60457 6 9.5 6.89543 9.5 8V8.5C9.5 9.32843 8.82843 10 8 10H4ZM4 12H8C9.38071 12 10.5 13.1193 10.5 14.5C10.5 15.8807 9.38071 17 8 17H4V12Z" fill="black"/>
<path d="M15 6C15 5.44772 15.4477 5 16 5H19.5C20.0523 5 20.5 5.44772 20.5 6C20.5 6.55228 20.0523 7 19.5 7H16C15.4477 7 15 6.55228 15 6Z" fill="black"/>
<path fill-rule="evenodd" clip-rule="evenodd" d="M17.75 8C14.9085 8 12.5 10.1823 12.5 13V14C12.5 16.8177 14.9085 19 17.75 19C19.2651 19 20.3622 18.5636 21.0967 18.0909C21.5388 17.8064 21.8859 17.4599 22.2201 17.0618C22.5304 16.6049 22.4115 15.983 21.9546 15.6727C21.5022 15.3655 20.8879 15.4791 20.5747 15.925C20.4225 16.1191 20.2201 16.2767 20.0143 16.4091C19.5835 16.6864 18.8592 17 17.75 17C15.8971 17 14.5 15.6006 14.5 14H22C22.5523 14 23 13.5523 23 13C23 10.1823 20.5915 8 17.75 8ZM20.8128 12C20.3731 10.8586 19.2014 10 17.75 10C16.2986 10 15.1269 10.8586 14.6872 12H20.8128Z" fill="black"/>
</svg>
