<svg width="24" height="24" viewBox="0 0 24 24" fill="none" xmlns="http://www.w3.org/2000/svg">
<path fill-rule="evenodd" clip-rule="evenodd" d="M4 10V6H7.5C8.60457 6 9.5 6.89543 9.5 8V8.5C9.5 9.32843 8.82843 10 8 10H4ZM11.5 8.5C11.5 9.39629 11.1631 10.2139 10.609 10.8331C11.7536 11.6489 12.5 12.9873 12.5 14.5C12.5 16.9853 10.4853 19 8 19H3.5C2.67157 19 2 18.3284 2 17.5V11V5.5C2 4.67157 2.67157 4 3.5 4H7.5C9.70914 4 11.5 5.79086 11.5 8V8.5ZM4 12H8C9.38071 12 10.5 13.1193 10.5 14.5C10.5 15.8807 9.38071 17 8 17H4V12ZM15 6C15 5.44772 15.4477 5 16 5H19.5C20.0523 5 20.5 5.44772 20.5 6C20.5 6.55228 20.0523 7 19.5 7H16C15.4477 7 15 6.55228 15 6ZM12.5 13C12.5 10.1823 14.9085 8 17.75 8C20.5915 8 23 10.1823 23 13C23 13.5523 22.5523 14 22 14H14.5C14.5 15.6006 15.8971 17 17.75 17C18.8592 17 19.5835 16.6864 20.0143 16.4091C20.2339 16.2678 20.3849 16.1308 20.4751 16.0379C20.5202 15.9915 20.5497 15.9564 20.5646 15.9379L20.5747 15.925C20.8879 15.4791 21.5022 15.3655 21.9546 15.6727C22.4115 15.983 22.5304 16.6049 22.2201 17.0618L21.3929 16.5C22.2201 17.0618 22.2198 17.0623 22.2195 17.0628L22.2188 17.0638L22.2173 17.0659L22.2141 17.0706L22.2063 17.0817C22.2005 17.0899 22.1937 17.0994 22.1856 17.1103C22.1696 17.1321 22.1488 17.1593 22.1233 17.1911C22.0723 17.2545 22.0017 17.3367 21.9103 17.4309C21.7275 17.6192 21.4599 17.8572 21.0967 18.0909C20.3622 18.5636 19.2651 19 17.75 19C14.9085 19 12.5 16.8177 12.5 14V13ZM20.8128 12C20.3731 10.8586 19.2014 10 17.75 10C16.2986 10 15.1269 10.8586 14.6872 12H20.8128Z" fill="black"/>
</svg>
