<svg width="24" height="24" viewBox="0 0 24 24" fill="none" xmlns="http://www.w3.org/2000/svg">
<path fill-rule="evenodd" clip-rule="evenodd" d="M4.74905 5C4.15046 5 3.68596 5.52235 3.7559 6.11684L5.28531 19.1168C5.34456 19.6205 5.77138 20 6.27846 20H17.7256C18.2318 20 18.6582 19.6217 18.7185 19.1191L19.8128 10H18.5H17.2346C16.7369 10 16.315 10.3659 16.2446 10.8586L15.4899 16.1414C15.4195 16.6341 14.9976 17 14.5 17H9.49997C9.00232 17 8.58039 16.6341 8.51002 16.1414L7.51002 9.14142C7.46902 8.85444 7.55457 8.5638 7.74451 8.3448C7.93445 8.1258 8.21007 8 8.49997 8H17.2346H18.498H18.5L20.0455 7.99366L20.2567 6.11152C20.3232 5.51879 19.8594 5 19.263 5H4.74905ZM21.6444 9.19533C21.8531 8.91801 21.9919 8.58354 22.033 8.21671L22.2442 6.33457C22.4438 4.55638 21.0523 3 19.263 3H4.74905C2.95327 3 1.55978 4.56704 1.7696 6.35052L3.29901 19.3505C3.47676 20.8614 4.75721 22 6.27846 22H17.7256C19.2442 22 20.5233 20.8652 20.7042 19.3574L21.7985 10.2383C21.843 9.86771 21.7836 9.51096 21.6444 9.19533ZM14.4057 10H9.65298L10.3673 15H13.6327L14.2647 10.5757C14.2932 10.3763 14.3409 10.1838 14.4057 10Z" fill="black"/>
</svg>
