<svg width="24" height="24" viewBox="0 0 24 24" fill="none" xmlns="http://www.w3.org/2000/svg">
<path fill-rule="evenodd" clip-rule="evenodd" d="M3.59607 10.7178C6.1881 10.9329 8.66998 10.4128 10.7246 9.23713C9.68061 7.69154 8.46336 6.2736 7.11604 5.04233C5.26042 6.3473 3.95042 8.37579 3.59607 10.7178ZM6.69379 2.93746C3.58636 4.76082 1.5 8.13676 1.5 12C1.5 17.799 6.20101 22.5 12 22.5C17.799 22.5 22.5 17.799 22.5 12C22.5 6.20101 17.799 1.5 12 1.5C10.0754 1.5 8.2717 2.01782 6.72068 2.92174C6.71165 2.92683 6.70269 2.93207 6.69379 2.93746ZM8.98126 4.05165C10.2283 5.25992 11.3648 6.61756 12.3587 8.08371C13.5677 7.04191 14.5403 5.71049 15.1782 4.1141C14.1964 3.71803 13.1237 3.5 12 3.5C10.9369 3.5 9.91934 3.69518 8.98126 4.05165ZM16.9425 5.08387C16.1328 7.00714 14.9164 8.58556 13.4284 9.8005C13.7758 10.409 14.099 11.032 14.3962 11.667C16.2786 10.9344 18.3169 10.5958 20.4115 10.769C20.0722 8.4301 18.7805 6.39973 16.9425 5.08387ZM20.4645 12.7824C18.6426 12.5962 16.845 12.8727 15.1733 13.5133C15.8613 15.3488 16.33 17.2593 16.5361 19.1897C18.7106 17.8149 20.2182 15.481 20.4645 12.7824ZM14.6086 20.0922C14.4723 18.1592 14.039 16.2307 13.3603 14.3771C11.2419 15.5944 9.42448 17.4125 8.16122 19.5858C9.31432 20.1705 10.6187 20.5 12 20.5C12.91 20.5 13.7867 20.357 14.6086 20.0922ZM6.4939 18.4758C7.95839 16.0015 10.0831 13.904 12.5859 12.5174C12.3355 11.9821 12.0648 11.4556 11.7753 10.9399C9.36228 12.3324 6.47583 12.9444 3.52997 12.7189C3.72275 15.021 4.83299 17.0622 6.4939 18.4758Z" fill="black"/>
</svg>
