<svg width="24" height="24" viewBox="0 0 24 24" fill="none" xmlns="http://www.w3.org/2000/svg">
<path fill-rule="evenodd" clip-rule="evenodd" d="M11.4999 1.38C9.05374 1.38 6.9167 1.97731 5.27031 3.31603C5.12435 3.43472 4.98315 3.55849 4.84672 3.68729C4.32641 4.20237 3.55367 5.12556 2.95035 6.51639C1.94694 8.82954 2 11 2 11C2.78104 10.3483 4.5854 8.99439 6.31205 8.14205C7.99786 7.30987 10.1239 7.22472 10.1239 7.22472C10.1439 7.22472 10.1637 7.22479 10.1833 7.22494C10.8596 7.17428 11.4331 7.19799 11.8258 7.26743C12.5609 7.39744 13.0865 7.72221 13.4324 8.14997C13.6213 8.38355 13.7721 8.66712 13.8706 9H9.71476L9.71477 8.99999H9.48102C9.48102 8.84424 9.52603 8.60914 9.60571 8.42424C9.60571 8.42424 8.60773 8.24169 7.60198 8.57694C5.88948 9.14777 4.72944 10.5855 4.20088 11.371C3.63765 12.3148 3.26961 13.4352 3.26961 14.655C3.26961 19.2148 7.80179 22.3905 13.6314 22.3905C15.2155 22.3905 17.3805 21.9562 19.0245 21.0513C19.6762 20.6926 19.9999 20.0147 19.9999 19.3631V15.0867C19.9999 14.9896 19.9859 14.895 19.9595 14.8051C20.6325 14.4831 21.0973 13.7958 21.0973 13V10C21.0973 7.26004 20.0739 5.06428 18.2962 3.57025C16.5406 2.09475 14.1426 1.38 11.4999 1.38ZM7.62583 8.76682C7.62593 8.76679 7.62467 8.76841 7.62175 8.7718C7.62426 8.76855 7.62572 8.76686 7.62583 8.76682ZM6.4226 11.6936C6.65072 11.4263 6.89475 11.1947 7.14274 11H7.99993H14.9999H15.9999V10V9.95066C15.9999 8.79553 15.6655 7.73068 14.9876 6.89239C14.3068 6.05061 13.3324 5.50284 12.1741 5.29799C11.0502 5.09923 9.28069 5.18251 7.49192 5.67274C6.70259 5.88906 5.88302 6.19185 5.09551 6.60221C5.4907 5.89358 5.97477 5.32094 6.53208 4.86779C7.72524 3.8976 9.37107 3.38 11.4999 3.38C13.8018 3.38 15.7026 4.00299 17.0095 5.10134C18.2943 6.18118 19.0973 7.79542 19.0973 10V13H8.49993C7.75554 13 6.83059 13.6696 7.08846 14.7312C7.61409 16.8951 10.2287 18.4114 13.6314 18.4114C14.7039 18.4114 15.9273 18.1494 17.0182 17.7014C17.3495 17.5653 17.6809 17.4069 17.9999 17.2259V19.3318C16.7046 20.026 14.9186 20.3905 13.6314 20.3905C8.30629 20.3905 5.26961 17.5933 5.26961 14.655C5.26961 13.5416 5.73318 12.5012 6.4226 11.6936ZM9.45811 15H17.7219C17.3526 15.3119 16.8526 15.6072 16.2583 15.8513C15.375 16.2141 14.4093 16.4114 13.6314 16.4114C11.4226 16.4114 10.0924 15.705 9.45811 15Z" fill="black"/>
</svg>
