<svg width="24" height="24" viewBox="0 0 24 24" fill="none" xmlns="http://www.w3.org/2000/svg">
<path fill-rule="evenodd" clip-rule="evenodd" d="M22.5 12C22.5 17.799 17.799 22.5 12 22.5C6.20101 22.5 1.5 17.799 1.5 12C1.5 6.20101 6.20101 1.5 12 1.5C17.799 1.5 22.5 6.20101 22.5 12ZM19.7644 15.464C20.2372 14.406 20.5 13.2337 20.5 12C20.5 7.30558 16.6944 3.5 12 3.5C8.92664 3.5 6.23424 5.13112 4.74126 7.57489C5.78814 6.25956 9.34196 5.24592 9.65445 6.5538C9.84092 7.33421 9.34438 7.5479 8.84767 7.76167C8.4239 7.94405 8 8.12648 8 8.66095C8 9.30758 8.80191 9.99999 10 9.99999C10.55 9.99999 11 10.45 11 11.0133C11 11.55 10.55 12 10 12C7.56937 12 7.88257 13.9131 8.17859 14.7263C8.47461 15.5396 9.8545 15.9589 11 15.0084C12.1455 14.0579 13.4026 13.499 13.8885 14.4234C14.3547 15.3104 13.5867 15.8782 12.7996 16.4601C12.1876 16.9126 11.564 17.3737 11.5 18C11.2898 20.058 17.3082 20.3943 19.7644 15.464ZM4.50333 7.99023C4.50169 7.99328 4.50006 7.99633 4.49843 7.99938C4.49895 7.99961 4.49948 7.99983 4.5 8.00005C4.50109 7.99678 4.5022 7.99351 4.50333 7.99023Z" fill="black"/>
</svg>
