<svg width="24" height="24" viewBox="0 0 24 24" fill="none" xmlns="http://www.w3.org/2000/svg">
<path fill-rule="evenodd" clip-rule="evenodd" d="M22.5 12C22.5 17.799 17.799 22.5 12 22.5C6.20101 22.5 1.5 17.799 1.5 12C1.5 6.20101 6.20101 1.5 12 1.5C17.799 1.5 22.5 6.20101 22.5 12ZM4.69252 7.65568C4.89783 7.65492 5.11391 7.69822 5.33716 7.79393C6.51523 6.66128 8.03467 6.25581 9.65445 6.5538C9.99049 6.61561 9.76108 6.80209 9.42525 7.07507C8.97095 7.44435 8.3219 7.97194 8.61431 8.56342C8.61431 8.56342 10.016 10.2059 11.4308 10.2059C12.8455 10.2059 12.5332 11.9335 9.81368 12.563C7.44567 13.1112 8.17859 14.7263 8.17859 14.7263C8.17859 14.7263 8.92677 16.0037 10.6444 15.2333C12.3619 14.4629 14.1413 14.6416 13.9774 15.5703C13.9219 15.8848 13.6852 15.958 13.3643 16.0572C13.0355 16.1588 12.6184 16.2877 12.2172 16.7313C11.7109 17.2911 11.067 17.5424 11.067 17.5424C10.6763 20.9778 17.2675 20.5376 19.7843 15.4191C20.2445 14.3729 20.5 13.2163 20.5 12C20.5 7.30558 16.6944 3.5 12 3.5C8.89289 3.5 6.17516 5.16713 4.69252 7.65568Z" fill="black"/>
</svg>
