<svg width="24" height="24" viewBox="0 0 24 24" fill="none" xmlns="http://www.w3.org/2000/svg">
<path fill-rule="evenodd" clip-rule="evenodd" d="M4.69252 7.65568C6.17516 5.16713 8.89289 3.5 12 3.5C16.6944 3.5 20.5 7.30558 20.5 12C20.5 13.2163 20.2445 14.3729 19.7843 15.4191C17.2675 20.5376 10.6763 20.9778 11.067 17.5424C11.067 17.5424 11.7109 17.2911 12.2172 16.7313C12.6184 16.2877 13.0355 16.1588 13.3643 16.0572C13.6852 15.958 13.9219 15.8848 13.9774 15.5703C14.1413 14.6416 12.3619 14.4629 10.6444 15.2333C8.92677 16.0037 8.17859 14.7263 8.17859 14.7263C8.17859 14.7263 7.44567 13.1112 9.81368 12.563C12.5332 11.9335 12.8455 10.2059 11.4308 10.2059C10.016 10.2059 8.61431 8.56342 8.61431 8.56342C8.3219 7.97194 8.97095 7.44435 9.42525 7.07507C9.76108 6.80209 9.99049 6.61561 9.65445 6.5538C8.03467 6.25581 6.51523 6.66128 5.33716 7.79393C5.11391 7.69822 4.89783 7.65492 4.69252 7.65568ZM12 1.5C6.20101 1.5 1.5 6.20101 1.5 12C1.5 17.799 6.20101 22.5 12 22.5C17.799 22.5 22.5 17.799 22.5 12C22.5 6.20101 17.799 1.5 12 1.5Z" fill="black"/>
</svg>
