<svg width="24" height="24" viewBox="0 0 24 24" fill="none" xmlns="http://www.w3.org/2000/svg">
<path fill-rule="evenodd" clip-rule="evenodd" d="M22.5 12C22.5 17.799 17.799 22.5 12 22.5C6.20101 22.5 1.5 17.799 1.5 12C1.5 6.20101 6.20101 1.5 12 1.5C17.799 1.5 22.5 6.20101 22.5 12ZM18.1018 6.08236C16.5569 4.48974 14.394 3.5 12 3.5C9.36707 3.5 7.01374 4.69712 5.45461 6.57675C6.8589 5.96338 8.3473 5.98923 8.87565 5.99841L8.87575 5.99841C8.92625 5.99928 8.96796 6.00001 9 6.00001C9.6 5.99998 10 6.40001 10 7.00001C10 7.60001 9.6 8.00001 9 8.00004C8.4 8.00008 8 8.40001 8 9.00001C8 9.60001 8.6 10 9 10L10 10C10.55 10 11 10.45 11 11.0134C11 11.55 10.55 12 10 12C7.5694 12 7.67884 14 8 14.6423C8.57885 15.8 10.6108 15.4574 11.8103 14.6423L12.4 14.2C12.8418 13.8686 13.4686 13.9582 13.8 14.4C14.1314 14.8418 14.0418 15.4686 13.6 15.8L13.0712 16.1966C10.5 18 13 20.5 16.429 18.7961C17.9979 17.8564 18.5879 16.5633 18.7026 15.3837C18.7813 14.5733 18.6394 13.7748 18.3738 13.1188C18.0998 12.442 17.7372 12.0168 17.466 11.8454C17.0896 11.6076 16.9157 11.1496 17.0395 10.722C17.1633 10.2943 17.5549 10 18.0001 10C18.2091 10 18.5092 10.0006 18.8563 10.0587C18.8263 9.96977 18.78 9.86894 18.7112 9.75512C18.3934 9.22893 17.687 8.57836 16.4856 7.8575C16.1002 7.62624 15.9164 7.16625 16.0364 6.73307C16.1563 6.2999 16.5506 6.00001 17.0001 6.00001C17.3249 6.00001 17.7021 6.01652 18.1018 6.08236Z" fill="black"/>
</svg>
