<svg width="24" height="24" viewBox="0 0 24 24" fill="none" xmlns="http://www.w3.org/2000/svg">
<path fill-rule="evenodd" clip-rule="evenodd" d="M2 6C2 3.79086 3.79086 2 6 2H18C20.2091 2 22 3.79086 22 6V18C22 20.2091 20.2091 22 18 22H6C3.79086 22 2 20.2091 2 18V6ZM6 4C4.89543 4 4 4.89543 4 6V18C4 19.1046 4.89543 20 6 20H18C19.1046 20 20 19.1046 20 18V6C20 4.89543 19.1046 4 18 4H6ZM12 12.5C12 14.433 10.433 16 8.5 16C6.567 16 5 14.433 5 12.5C5 10.567 6.567 9 8.5 9C10.433 9 12 10.567 12 12.5ZM12 12.5C12 14.433 13.567 16 15.5 16C17.433 16 19 14.433 19 12.5C19 10.567 17.433 9 15.5 9C13.567 9 12 10.567 12 12.5ZM14 12.5C14 11.6716 14.6716 11 15.5 11C16.3284 11 17 11.6716 17 12.5C17 13.3284 16.3284 14 15.5 14C14.6716 14 14 13.3284 14 12.5Z" fill="black"/>
</svg>
