<svg width="24" height="24" viewBox="0 0 24 24" fill="none" xmlns="http://www.w3.org/2000/svg">
<path fill-rule="evenodd" clip-rule="evenodd" d="M12 5C8.13401 5 5 8.13401 5 12C5 15.866 8.13401 19 12 19C15.5265 19 18.4439 16.3923 18.9291 13H13C12.4477 13 12 12.5523 12 12C12 11.4477 12.4477 11 13 11H20C20.5523 11 21 11.4477 21 12C21 16.9706 16.9706 21 12 21C7.02944 21 3 16.9706 3 12C3 7.02944 7.02944 3 12 3C14.1424 3 16.1123 3.74979 17.6578 5.00041C18.0871 5.34782 18.1535 5.97749 17.8061 6.40682C17.4587 6.83615 16.829 6.90256 16.3997 6.55515C15.1972 5.58212 13.668 5 12 5Z" fill="black"/>
</svg>
