<svg width="24" height="24" viewBox="0 0 24 24" fill="none" xmlns="http://www.w3.org/2000/svg">
<path fill-rule="evenodd" clip-rule="evenodd" d="M11.0725 0.723926C11.835 0.332231 12.795 0.454007 13.4356 1.0946L22.9054 10.5644C23.6982 11.3573 23.6982 12.6427 22.9054 13.4355L13.4356 22.9053C13.2835 23.0574 13.1117 23.1814 12.9275 23.276C12.165 23.6677 11.205 23.5459 10.5644 22.9053L1.09463 13.4355C0.301791 12.6427 0.301792 11.3573 1.09463 10.5644L10.5644 1.0946C10.7165 0.942496 10.8883 0.818509 11.0725 0.723926ZM12.0856 2.57305C11.1225 4.16851 11.3301 6.27366 12.7071 7.65063L16.3493 11.2929C16.5369 11.4804 16.6422 11.7348 16.6422 12C16.6422 12.2652 16.5369 12.5195 16.3493 12.7071L13.357 15.6994C14.0691 16.6897 14.4509 17.8438 14.5025 19.0099L21.4912 12.0213C21.4954 12.0171 21.497 12.0141 21.4979 12.0118C21.499 12.0089 21.5 12.0049 21.5 12C21.5 11.9951 21.499 11.991 21.4979 11.9881C21.497 11.9859 21.4954 11.9829 21.4912 11.9786L12.0856 2.57305ZM11.9144 21.4269C12.8775 19.8314 12.6699 17.7263 11.2929 16.3493L7.65065 12.7071C7.26013 12.3166 7.26013 11.6834 7.65066 11.2929L10.643 8.30056C9.93092 7.31025 9.54912 6.15612 9.49745 4.99002L2.50884 11.9786C2.50459 11.9829 2.50304 11.9859 2.50214 11.9881C2.50096 11.991 2.5 11.9951 2.5 12C2.5 12.0049 2.50096 12.0089 2.50214 12.0118C2.50304 12.0141 2.50459 12.0171 2.50884 12.0213L11.9144 21.4269ZM12 9.77195L9.77198 12L12 14.228L14.228 12L12 9.77195Z" fill="black"/>
</svg>
