<svg width="24" height="24" viewBox="0 0 24 24" fill="none" xmlns="http://www.w3.org/2000/svg">
<path fill-rule="evenodd" clip-rule="evenodd" d="M3.5 12C3.5 7.30558 7.30558 3.5 12 3.5C16.6944 3.5 20.5 7.30558 20.5 12C20.5 16.6944 16.6944 20.5 12 20.5C7.30558 20.5 3.5 16.6944 3.5 12ZM12 1.5C6.20101 1.5 1.5 6.20101 1.5 12C1.5 17.799 6.20101 22.5 12 22.5C17.799 22.5 22.5 17.799 22.5 12C22.5 6.20101 17.799 1.5 12 1.5ZM11.9762 7.21693C12.096 6.6778 11.7561 6.14362 11.2169 6.02381C10.6778 5.90401 10.1436 6.24394 10.0238 6.78307L9.06664 11.0904L7.68377 11.5513C7.15983 11.726 6.87667 12.2923 7.05132 12.8162C7.22596 13.3402 7.79228 13.6233 8.31623 13.4487L8.56067 13.3672L8.02381 15.7831C7.95801 16.0792 8.03016 16.3891 8.21996 16.6257C8.40975 16.8623 8.69668 17 9 17H15C15.5523 17 16 16.5523 16 16C16 15.4477 15.5523 15 15 15H10.2466L10.7734 12.6296L12.8162 11.9487C13.3402 11.774 13.6233 11.2077 13.4487 10.6838C13.274 10.1598 12.7077 9.87667 12.1838 10.0513L11.2793 10.3528L11.9762 7.21693Z" fill="black"/>
</svg>
