<svg width="24" height="24" viewBox="0 0 24 24" fill="none" xmlns="http://www.w3.org/2000/svg">
<path fill-rule="evenodd" clip-rule="evenodd" d="M6 2C3.79086 2 2 3.79086 2 6V18C2 20.2091 3.79086 22 6 22H18C20.2091 22 22 20.2091 22 18V6C22 3.79086 20.2091 2 18 2H6ZM4 6C4 4.89543 4.89543 4 6 4H18C19.1046 4 20 4.89543 20 6V18C20 19.1046 19.1046 20 18 20H6C4.89543 20 4 19.1046 4 18V6ZM7 7C6.44772 7 6 7.44772 6 8C6 8.55228 6.44772 9 7 9V15C6.44772 15 6 15.4477 6 16C6 16.5523 6.44772 17 7 17H8H9C9.55228 17 10 16.5523 10 16C10 15.4477 9.55228 15 9 15V11.3028L11.1679 14.5547C11.3534 14.8329 11.6656 15 12 15C12.3344 15 12.6466 14.8329 12.8321 14.5547L15 11.3028V15C14.4477 15 14 15.4477 14 16C14 16.5523 14.4477 17 15 17H16H17C17.5523 17 18 16.5523 18 16C18 15.4477 17.5523 15 17 15V9C17.5523 9 18 8.55228 18 8C18 7.44772 17.5523 7 17 7H16C15.6656 7 15.3534 7.1671 15.1679 7.4453L12 12.1972L8.83205 7.4453C8.64658 7.1671 8.33435 7 8 7H7Z" fill="black"/>
</svg>
