<svg width="24" height="24" viewBox="0 0 24 24" fill="none" xmlns="http://www.w3.org/2000/svg">
<path fill-rule="evenodd" clip-rule="evenodd" d="M4 12C4 9.55605 4.69179 7.43432 5.99328 5.93901C7.2773 4.46378 9.23864 3.5 12 3.5C14.7614 3.5 16.7227 4.46378 18.0067 5.93901C19.3082 7.43432 20 9.55605 20 12C20 14.4439 19.3082 16.5657 18.0067 18.061C16.7227 19.5362 14.7614 20.5 12 20.5C9.23864 20.5 7.2773 19.5362 5.99328 18.061C4.69179 16.5657 4 14.4439 4 12ZM12 1.5C8.73197 1.5 6.19332 2.66287 4.48468 4.62596C2.79351 6.56897 2 9.19724 2 12C2 14.8028 2.79351 17.431 4.48468 19.374C6.19332 21.3371 8.73197 22.5 12 22.5C15.268 22.5 17.8067 21.3371 19.5153 19.374C21.2065 17.431 22 14.8028 22 12C22 9.19724 21.2065 6.56897 19.5153 4.62596C17.8067 2.66287 15.268 1.5 12 1.5ZM10 12C10 9.6955 10.253 8.25985 10.6514 7.43056C10.8413 7.03526 11.0449 6.81911 11.2333 6.69636C11.4181 6.57597 11.6577 6.5 12 6.5C12.3423 6.5 12.5819 6.57597 12.7667 6.69636C12.9551 6.81911 13.1587 7.03526 13.3486 7.43056C13.747 8.25985 14 9.6955 14 12C14 14.3045 13.747 15.7402 13.3486 16.5694C13.1587 16.9647 12.9551 17.1809 12.7667 17.3036C12.5819 17.424 12.3423 17.5 12 17.5C11.6577 17.5 11.4181 17.424 11.2333 17.3036C11.0449 17.1809 10.8413 16.9647 10.6514 16.5694C10.253 15.7402 10 14.3045 10 12ZM12 4.5C11.3423 4.5 10.7069 4.65238 10.1417 5.02056C9.58011 5.38637 9.15871 5.919 8.84861 6.56455C8.24698 7.81697 8 9.63132 8 12C8 14.3687 8.24698 16.183 8.84861 17.4355C9.15871 18.081 9.58011 18.6136 10.1417 18.9794C10.7069 19.3476 11.3423 19.5 12 19.5C12.6577 19.5 13.2931 19.3476 13.8583 18.9794C14.4199 18.6136 14.8413 18.081 15.1514 17.4355C15.753 16.183 16 14.3687 16 12C16 9.63132 15.753 7.81697 15.1514 6.56455C14.8413 5.919 14.4199 5.38637 13.8583 5.02056C13.2931 4.65238 12.6577 4.5 12 4.5Z" fill="black"/>
</svg>
