<svg width="24" height="24" viewBox="0 0 24 24" fill="none" xmlns="http://www.w3.org/2000/svg">
<path fill-rule="evenodd" clip-rule="evenodd" d="M3.5 12C3.5 7.30558 7.30558 3.5 12 3.5C16.6944 3.5 20.5 7.30558 20.5 12C20.5 16.6944 16.6944 20.5 12 20.5C10.9717 20.5 9.986 20.3174 9.07363 19.9828C9.15562 19.7622 9.27046 19.452 9.40742 19.0792C9.68955 18.3112 10.0661 17.2757 10.443 16.2078C10.5463 15.9151 10.6499 15.6193 10.7517 15.3255C11.326 15.7348 12.0668 16 13 16C14.935 16 16.9749 14.7247 17.4806 12.1961C18.1155 9.02148 15.5728 6 12 6C10.4972 6 9.01887 6.6037 7.91298 7.56243C6.80483 8.52311 6 9.90687 6 11.5C6 12.1728 6.16943 12.6999 6.35557 13.0722C6.44783 13.2567 6.54315 13.4013 6.62187 13.5063C6.66129 13.5588 6.69676 13.6017 6.72594 13.6351C6.74054 13.6518 6.75361 13.6661 6.76485 13.6781L6.78033 13.6943L6.78698 13.7012L6.79003 13.7042L6.79149 13.7057L6.7922 13.7064C6.79255 13.7068 6.79289 13.7071 7.49995 13L6.79289 13.7071C7.18342 14.0976 7.81658 14.0976 8.20711 13.7071C8.59019 13.324 8.59749 12.7074 8.22899 12.3155L8.22188 12.3062C8.20685 12.2862 8.17717 12.2433 8.14443 12.1778C8.08057 12.0501 8 11.8272 8 11.5C8 10.6078 8.45253 9.74161 9.22306 9.07361C9.99585 8.40366 11.0175 8 12 8C14.4272 8 15.8845 9.97852 15.5194 11.8039C15.2165 13.3183 14.065 14 13 14C12.1821 14 11.7416 13.6547 11.4599 13.208L11.4848 13.1293C11.6276 12.677 11.7505 12.2643 11.8387 11.9263C11.9153 11.6325 12 11.2744 12 11C12 10.632 11.9144 10.1061 11.4839 9.7474C10.9908 9.33644 10.4087 9.42759 10.0528 9.60557C9.39135 9.93629 9 10.7099 9 11.5C9 11.9414 9.06873 12.6253 9.31675 13.3315C9.08695 14.0249 8.82275 14.7892 8.55701 15.5422C8.18389 16.5993 7.81045 17.6263 7.53008 18.3896C7.43429 18.6503 7.34943 18.8801 7.27923 19.0696C5.00044 17.5449 3.5 14.9477 3.5 12ZM12 1.5C6.20101 1.5 1.5 6.20101 1.5 12C1.5 17.799 6.20101 22.5 12 22.5C17.799 22.5 22.5 17.799 22.5 12C22.5 6.20101 17.799 1.5 12 1.5ZM11.0429 11.3245C11.043 11.3246 11.0419 11.3263 11.0395 11.3292C11.0416 11.3259 11.0428 11.3244 11.0429 11.3245ZM9.99771 10.9592C9.99796 10.959 9.99873 10.9633 9.99931 10.973C9.99777 10.9643 9.99748 10.9595 9.99771 10.9592Z" fill="black"/>
</svg>
