<svg width="24" height="24" viewBox="0 0 24 24" fill="none" xmlns="http://www.w3.org/2000/svg">
<path fill-rule="evenodd" clip-rule="evenodd" d="M3.5 12C3.5 7.30558 7.30558 3.5 12 3.5C16.6944 3.5 20.5 7.30558 20.5 12C20.5 16.6944 16.6944 20.5 12 20.5C10.9716 20.5 9.98587 20.3174 9.07345 19.9828C9.64822 18.4359 10.2115 16.8847 10.7517 15.3255C11.326 15.7348 12.0668 16 13 16C14.935 16 16.9749 14.7247 17.4806 12.1961C18.1155 9.02148 15.5728 6 12 6C10.4972 6 9.01887 6.6037 7.91298 7.56243C6.80483 8.52311 6 9.90687 6 11.5C6 12.2746 6.23394 13.1378 6.79149 13.7057C7.17707 14.0919 7.82087 14.0933 8.20711 13.7071C8.59019 13.324 8.59749 12.7074 8.22899 12.3155C7.44315 11.3348 8.47852 9.71907 9.22306 9.07361C9.99585 8.40366 11.0175 8 12 8C14.4272 8 15.8845 9.97852 15.5194 11.8039C15.2165 13.3183 14.065 14 13 14C12.1821 14 11.7416 13.6547 11.4599 13.208C11.6137 12.7237 11.7454 12.2838 11.8387 11.9263C12.0311 11.1886 12.1473 10.3002 11.4839 9.7474C10.9908 9.33644 10.4087 9.42759 10.0528 9.60557C9.39135 9.93629 9 10.7099 9 11.5C9 11.9414 9.06873 12.6253 9.31675 13.3315C8.67824 15.258 7.98579 17.167 7.27924 19.0696C5.00045 17.5449 3.5 14.9477 3.5 12ZM12 1.5C6.20101 1.5 1.5 6.20101 1.5 12C1.5 17.799 6.20101 22.5 12 22.5C17.799 22.5 22.5 17.799 22.5 12C22.5 6.20101 17.799 1.5 12 1.5Z" fill="black"/>
</svg>
