<svg width="24" height="24" viewBox="0 0 24 24" fill="none" xmlns="http://www.w3.org/2000/svg">
<path fill-rule="evenodd" clip-rule="evenodd" d="M3 6.5C3 4.567 4.567 3 6.5 3C7.46158 3 8.33096 3.38646 8.96457 4.01487L9.37233 4.41928L9.92712 4.27091C10.5871 4.0944 11.2818 4 12 4C16.4183 4 20 7.58172 20 12C20 12.7182 19.9056 13.4129 19.7291 14.0729L19.5807 14.6277L19.9851 15.0354C20.6135 15.669 21 16.5384 21 17.5C21 19.433 19.433 21 17.5 21C16.5384 21 15.669 20.6135 15.0354 19.9851L14.6277 19.5807L14.0729 19.7291C13.4129 19.9056 12.7182 20 12 20C7.58172 20 4 16.4183 4 12C4 11.2818 4.0944 10.5871 4.27091 9.92712L4.41928 9.37233L4.01487 8.96457C3.38646 8.33096 3 7.46158 3 6.5ZM6.5 1C3.46243 1 1 3.46243 1 6.5C1 7.80334 1.45433 9.00201 2.21174 9.94417C2.07287 10.6084 2 11.2962 2 12C2 17.5228 6.47715 22 12 22C12.7038 22 13.3916 21.9271 14.0558 21.7883C14.998 22.5457 16.1967 23 17.5 23C20.5376 23 23 20.5376 23 17.5C23 16.1967 22.5457 14.998 21.7883 14.0558C21.9271 13.3916 22 12.7038 22 12C22 6.47715 17.5228 2 12 2C11.2962 2 10.6084 2.07287 9.94417 2.21174C9.00201 1.45433 7.80334 1 6.5 1ZM10.642 9.33022C10.7746 9.07725 11.2285 8.75 11.9325 8.75C13.1389 8.75 13.8044 9.22213 14.1104 9.45568C14.5494 9.79073 15.177 9.70642 15.512 9.26737C15.8471 8.82833 15.7628 8.2008 15.3237 7.86575C14.8342 7.49215 13.7474 6.74999 11.9325 6.75C10.6635 6.75 9.42503 7.34398 8.82423 8.49019C8.39003 9.31856 8.46034 10.2225 8.90141 10.9562C9.32973 11.6686 10.0731 12.1777 10.949 12.4136L12.5026 12.8321C13.101 12.9932 14.0099 13.5493 13.6826 14.2985C13.4853 14.7503 12.7859 15.25 11.7558 15.25C10.8654 15.25 10.0797 15.0961 9.35671 14.5443C8.91766 14.2093 8.29014 14.2936 7.95509 14.7326C7.62004 15.1717 7.70435 15.7992 8.1434 16.1342C9.11208 16.8735 10.1205 17.25 11.5347 17.25C13.1138 17.25 14.8369 16.6524 15.5154 15.0991C15.9148 14.1848 15.7831 13.2264 15.2841 12.4568C14.5163 11.2725 13.1937 10.9303 11.9131 10.5989C11.7643 10.5604 11.6159 10.522 11.4691 10.4824C10.9431 10.3407 10.3281 9.92911 10.642 9.33022Z" fill="black"/>
</svg>
