<svg width="24" height="24" viewBox="0 0 24 24" fill="none" xmlns="http://www.w3.org/2000/svg">
<path fill-rule="evenodd" clip-rule="evenodd" d="M3 6.5C3 4.567 4.567 3 6.5 3C7.46158 3 8.33096 3.38646 8.96457 4.01487L9.37233 4.41928L9.92712 4.27091C10.5871 4.0944 11.2818 4 12 4C16.4183 4 20 7.58172 20 12C20 12.7182 19.9056 13.4129 19.7291 14.0729L19.5807 14.6277L19.9851 15.0354C20.6135 15.669 21 16.5384 21 17.5C21 19.433 19.433 21 17.5 21C16.5384 21 15.669 20.6135 15.0354 19.9851L14.6277 19.5807L14.0729 19.7291C13.4129 19.9056 12.7182 20 12 20C7.58172 20 4 16.4183 4 12C4 11.2818 4.0944 10.5871 4.27091 9.92712L4.41928 9.37233L4.01487 8.96457C3.38646 8.33096 3 7.46158 3 6.5ZM6.5 1C3.46243 1 1 3.46243 1 6.5C1 7.80334 1.45433 9.00201 2.21174 9.94417C2.07287 10.6084 2 11.2962 2 12C2 17.5228 6.47715 22 12 22C12.7038 22 13.3916 21.9271 14.0558 21.7883C14.998 22.5457 16.1967 23 17.5 23C20.5376 23 23 20.5376 23 17.5C23 16.1967 22.5457 14.998 21.7883 14.0558C21.9271 13.3916 22 12.7038 22 12C22 6.47715 17.5228 2 12 2C11.2962 2 10.6084 2.07287 9.94417 2.21174C9.00201 1.45433 7.80334 1 6.5 1ZM10.642 9.33022C10.7746 9.07725 11.2284 8.75 11.9324 8.75C13.1388 8.75 13.8043 9.22213 14.1103 9.45568C14.5494 9.79073 15.1769 9.70642 15.512 9.26737C15.847 8.82833 15.7627 8.2008 15.3237 7.86575C14.8341 7.49215 13.7473 6.74999 11.9324 6.75C10.7158 6.75 9.44398 7.30772 8.87055 8.40172L8.82418 8.49019C8.38998 9.31856 8.46029 10.2225 8.90136 10.9562C9.32967 11.6686 10.073 12.1777 10.9489 12.4136L12.5025 12.8321C13.0711 12.9852 13.4309 13.2748 13.6059 13.5448C13.7698 13.7976 13.7915 14.0493 13.6826 14.2985C13.4852 14.7503 12.7858 15.25 11.7558 15.25H11.5346C10.5619 15.25 9.97918 15.0194 9.35666 14.5443C8.91761 14.2093 8.29008 14.2936 7.95504 14.7326C7.61999 15.1717 7.7043 15.7992 8.14334 16.1342C9.11203 16.8735 10.1205 17.25 11.5346 17.25H11.7558C13.3105 17.25 14.904 16.4987 15.5154 15.0991L14.599 14.6988L15.5154 15.0991C15.9147 14.1848 15.783 13.2264 15.2841 12.4568C14.7963 11.7045 13.9838 11.1597 13.0227 10.9009L11.4691 10.4824C11.0004 10.3562 10.7318 10.1192 10.6154 9.92568C10.5119 9.75342 10.5049 9.59166 10.5956 9.41869L10.642 9.33022Z" fill="black"/>
</svg>
