<svg width="24" height="24" viewBox="0 0 24 24" fill="none" xmlns="http://www.w3.org/2000/svg">
<path fill-rule="evenodd" clip-rule="evenodd" d="M5.8758 5.5639C8.02677 4.44597 10.7743 3.55325 13.1715 3.19336C15.2554 2.88053 17.4644 4.00606 18.4361 5.87581C19.5541 8.02678 20.4468 10.7743 20.8067 13.1716C21.1195 15.2554 19.994 17.4644 18.1242 18.4361C15.9733 19.5541 13.2258 20.4468 10.8285 20.8067C8.74466 21.1195 6.53572 19.994 5.56388 18.1242C4.4459 15.9733 3.55323 13.2258 3.19336 10.8285C2.88054 8.74463 4.00606 6.53566 5.8758 5.5639ZM12.8746 1.21553C10.2591 1.60818 7.30027 2.56956 4.95347 3.78927C2.32545 5.15514 0.775844 8.19645 1.21552 11.1254C1.60815 13.7409 2.56949 16.6998 3.78927 19.0466C5.1552 21.6746 8.19644 23.2242 11.1254 22.7845C13.7409 22.3919 16.6998 21.4305 19.0466 20.2108C21.6746 18.8449 23.2242 15.8036 22.7845 12.8746C22.3919 10.2591 21.4305 7.30028 20.2108 4.95348C18.8449 2.32545 15.8036 0.775825 12.8746 1.21553ZM8.87385 7.23272C8.70319 6.70747 8.13904 6.42002 7.61378 6.59068C7.08853 6.76135 6.80108 7.3255 6.97174 7.85076L7.58978 9.75287L5.68766 10.3709C5.16241 10.5416 4.87496 11.1057 5.04562 11.631C5.21629 12.1562 5.78044 12.4437 6.3057 12.273L8.20781 11.655L9.13486 14.5082L7.23275 15.1262C6.70749 15.2969 6.42004 15.861 6.59071 16.3863C6.76137 16.9115 7.32553 17.199 7.85078 17.0283L9.75289 16.4103L10.3709 18.3124C10.5416 18.8376 11.1057 19.1251 11.631 18.9544C12.1563 18.7838 12.4437 18.2196 12.273 17.6943L11.655 15.7922L14.5082 14.8652L15.1262 16.7673C15.2969 17.2925 15.861 17.58 16.3863 17.4093C16.9115 17.2387 17.199 16.6745 17.0283 16.1493L16.4103 14.2471L18.3124 13.6291C18.8377 13.4584 19.1251 12.8943 18.9544 12.369C18.7838 11.8438 18.2196 11.5563 17.6944 11.727L15.7923 12.345L14.8652 9.49186L16.7673 8.87383C17.2926 8.70317 17.58 8.13901 17.4094 7.61376C17.2387 7.0885 16.6745 6.80105 16.1493 6.97172L14.2472 7.58975L13.6291 5.68764C13.4585 5.16238 12.8943 4.87493 12.3691 5.0456C11.8438 5.21626 11.5564 5.78042 11.727 6.30567L12.3451 8.20779L9.49189 9.13484L8.87385 7.23272ZM11.037 13.8901L10.1099 11.0369L12.9631 10.1099L13.8901 12.9631L11.037 13.8901Z" fill="black"/>
</svg>
