<svg width="24" height="24" viewBox="0 0 24 24" fill="none" xmlns="http://www.w3.org/2000/svg">
<path fill-rule="evenodd" clip-rule="evenodd" d="M3.5 11.9976C3.5 7.30452 7.30452 3.5 11.9976 3.5C16.6908 3.5 20.4953 7.30452 20.4953 11.9976C20.4953 16.6908 16.6908 20.4953 11.9976 20.4953C7.30452 20.4953 3.5 16.6908 3.5 11.9976ZM11.9976 1.5C6.19995 1.5 1.5 6.19995 1.5 11.9976C1.5 17.7953 6.19995 22.4953 11.9976 22.4953C17.7953 22.4953 22.4953 17.7953 22.4953 11.9976C22.4953 6.19995 17.7953 1.5 11.9976 1.5ZM7.3856 6.64337L7.5714 7.62596C7.3856 6.64337 7.38584 6.64332 7.3861 6.64327L7.38666 6.64317L7.38796 6.64292L7.39127 6.64231L7.40075 6.64057L7.43092 6.63524C7.45595 6.63092 7.49072 6.62512 7.53468 6.61828C7.62255 6.60461 7.7473 6.58675 7.90432 6.56824C8.21804 6.53126 8.66246 6.49142 9.2005 6.47731C10.272 6.4492 11.7393 6.5224 13.294 6.93898C14.8487 7.35555 16.156 8.02581 17.0699 8.58591C17.5288 8.86715 17.8938 9.12386 18.147 9.31275C18.2737 9.40729 18.3728 9.48512 18.4421 9.5409C18.4767 9.5688 18.5039 9.59122 18.5234 9.60747L18.5469 9.62717L18.5542 9.63342L18.5568 9.63561L18.5578 9.63647L18.5582 9.63684C18.5584 9.63701 18.5586 9.63717 17.9064 10.3952L18.5586 9.63717C18.9773 9.99737 19.0247 10.6288 18.6645 11.0474C18.3047 11.4656 17.6742 11.5134 17.2555 11.1544L17.255 11.1539L17.2547 11.1537L17.2546 11.1536L17.2543 11.1533L17.2542 11.1533L17.2431 11.1439C17.2319 11.1346 17.2133 11.1193 17.1877 11.0986C17.1363 11.0573 17.0567 10.9946 16.951 10.9158C16.7395 10.758 16.4249 10.5363 16.0248 10.2911C15.2208 9.79839 14.0925 9.2235 12.7764 8.87083C11.4602 8.51816 10.1956 8.45189 9.25294 8.47662C8.78389 8.48892 8.40065 8.52358 8.13848 8.55449C8.00755 8.56992 7.9073 8.58437 7.84216 8.5945C7.80961 8.59957 7.78587 8.60355 7.77151 8.60603L7.75709 8.60857L7.75675 8.60863C7.75644 8.60869 7.75614 8.60874 7.75583 8.6088C7.21365 8.71056 6.69133 8.35397 6.58881 7.81175C6.4862 7.26908 6.84293 6.74598 7.3856 6.64337ZM7.57435 12.34L7.57557 12.3396L7.57505 12.3398L7.57435 12.34ZM7.57131 12.341L7.5713 12.341C7.0501 12.5152 6.48537 12.2359 6.3079 11.715C6.12978 11.1922 6.40918 10.6241 6.93196 10.4459L7.25441 11.3923C6.93196 10.4459 6.93234 10.4458 6.93272 10.4457L6.93353 10.4454L6.9353 10.4448L6.93937 10.4434L6.9497 10.44L6.97902 10.4307C7.00238 10.4234 7.03335 10.4141 7.07168 10.4032C7.14831 10.3816 7.25446 10.3538 7.38808 10.3244C7.6552 10.2654 8.03294 10.1992 8.50469 10.1604C9.44883 10.0825 10.7701 10.1142 12.3311 10.5325C13.8921 10.9507 15.0522 11.584 15.831 12.1234C16.2201 12.393 16.5141 12.6392 16.716 12.8238C16.8169 12.9161 16.895 12.9932 16.9506 13.0503C16.9783 13.0788 17.0005 13.1024 17.0171 13.1204L17.0378 13.1431L17.045 13.1512L17.0479 13.1545L17.0491 13.1559L17.0497 13.1565C17.0499 13.1568 17.0502 13.1571 16.2976 13.8156L17.0502 13.1571C17.4139 13.5728 17.3718 14.2045 16.9561 14.5682C16.542 14.9306 15.9133 14.8901 15.549 14.4786L15.5463 14.4757C15.5417 14.4707 15.5319 14.4602 15.5171 14.4449C15.4873 14.4143 15.4371 14.3645 15.3663 14.2997C15.2245 14.17 15.0005 13.9811 14.6921 13.7675C14.0759 13.3406 13.1233 12.8153 11.8135 12.4643C10.5037 12.1133 9.41603 12.092 8.66896 12.1536C8.29509 12.1844 8.00666 12.236 7.819 12.2774C7.72523 12.2981 7.65684 12.3162 7.61579 12.3278C7.59527 12.3336 7.58161 12.3378 7.57505 12.3398L7.57131 12.341ZM6.47136 14.1801L6.96716 15.0485C6.47136 14.1801 6.47197 14.1797 6.47259 14.1794L6.47385 14.1786L6.47646 14.1772L6.48206 14.174L6.49477 14.1671C6.50392 14.1621 6.51441 14.1566 6.52626 14.1505C6.54997 14.1383 6.57909 14.1241 6.6137 14.1084C6.68295 14.0769 6.77401 14.0395 6.88747 14.0008C7.11476 13.9231 7.42975 13.8409 7.83665 13.7896C8.65289 13.6867 9.81902 13.7108 11.3683 14.1259C12.9175 14.541 13.9395 15.1032 14.5949 15.6004C14.9216 15.8483 15.1533 16.0771 15.3113 16.2579C15.3902 16.3482 15.4504 16.4261 15.4946 16.488C15.5167 16.5189 15.5348 16.5458 15.5493 16.5682C15.5524 16.5731 15.5554 16.5777 15.5582 16.5822C15.5618 16.5879 15.5652 16.5933 15.5683 16.5983L15.5758 16.6107L15.5791 16.6162L15.5806 16.6188L15.5813 16.62C15.5817 16.6207 15.582 16.6213 14.7184 17.1254L15.582 16.6213C15.8605 17.0982 15.6996 17.7106 15.2226 17.989C14.7536 18.2629 14.1535 18.1118 13.8689 17.653L13.8676 17.6512C13.8603 17.6409 13.8403 17.6141 13.8052 17.5738C13.7351 17.4936 13.6028 17.3582 13.3861 17.1938C12.9547 16.8665 12.1722 16.4119 10.8506 16.0578C9.52902 15.7037 8.62401 15.7061 8.08682 15.7739C7.81701 15.8079 7.63471 15.859 7.5339 15.8934C7.4833 15.9107 7.4526 15.924 7.4411 15.9292L7.43907 15.9302C6.96324 16.1852 6.36803 16.016 6.09873 15.5443C5.8249 15.0647 5.99174 14.4539 6.47136 14.1801Z" fill="black"/>
</svg>
