<svg width="24" height="24" viewBox="0 0 24 24" fill="none" xmlns="http://www.w3.org/2000/svg">
<path fill-rule="evenodd" clip-rule="evenodd" d="M15.1348 2.50733C14.8547 2.03139 14.2379 1.86617 13.7573 2.13828C13.2767 2.4104 13.1143 3.01681 13.3945 3.49274L17.6136 10.6594L11.7009 4.86089C11.3066 4.47419 10.6673 4.47419 10.273 4.86089C9.87866 5.24759 9.87866 5.87455 10.273 6.26125L16.2673 12.1399L9.02076 8.03684C8.54016 7.76473 7.92342 7.92995 7.64323 8.40589C7.36304 8.88182 7.5255 9.48823 8.0061 9.76035L15.4385 13.9686L7.26356 11.8204C6.72941 11.6801 6.1784 11.9982 6.03283 12.5309C5.88727 13.0637 6.20229 13.6093 6.73644 13.7497L15.3001 16H7C6.44772 16 6 16.4477 6 17C6 17.5523 6.44772 18 7 18H17C17.5523 18 18 17.5523 18 17C18 16.6823 17.8519 16.3993 17.6209 16.2161C17.7958 16.086 17.93 15.8989 17.9917 15.6734C18.0661 15.4009 18.0201 15.125 17.8858 14.9017C18.0828 14.82 18.2557 14.6766 18.3713 14.4802C18.5095 14.2455 18.54 13.9791 18.4779 13.7368C18.6834 13.7061 18.8811 13.6132 19.0393 13.458C19.2258 13.2751 19.3241 13.0385 19.3342 12.7989C19.5443 12.8256 19.7641 12.7875 19.961 12.676C20.4416 12.4039 20.6041 11.7975 20.3239 11.3215L15.1348 2.50733ZM4 17C4 16.4477 3.55228 16 3 16C2.44772 16 2 16.4477 2 17V18C2 20.2092 3.79086 22 6 22H18C20.2091 22 22 20.2092 22 18V17C22 16.4477 21.5523 16 21 16C20.4477 16 20 16.4477 20 17V18C20 19.1046 19.1046 20 18 20H6C4.89543 20 4 19.1046 4 18V17Z" fill="black"/>
</svg>
