<svg width="24" height="24" viewBox="0 0 24 24" fill="none" xmlns="http://www.w3.org/2000/svg">
<path fill-rule="evenodd" clip-rule="evenodd" d="M6 2C3.79086 2 2 3.79086 2 6V18C2 20.2091 3.79086 22 6 22H18C20.2091 22 22 20.2091 22 18V6C22 3.79086 20.2091 2 18 2H6ZM4 6C4 4.89543 4.89543 4 6 4H18C19.1046 4 20 4.89543 20 6V18C20 19.1046 19.1046 20 18 20H6C4.89543 20 4 19.1046 4 18V6ZM12 7.5C12 6.94772 11.5523 6.5 11 6.5C10.4477 6.5 10 6.94772 10 7.5V9H9C8.44772 9 8 9.44772 8 10C8 10.5523 8.44772 11 9 11H10V13.8907C10 16.3351 12.4421 18.0266 14.7305 17.1672L15.3458 16.9362C15.8628 16.742 16.1246 16.1655 15.9304 15.6484C15.7362 15.1314 15.1597 14.8697 14.6427 15.0638L14.0274 15.2949C13.0466 15.6632 12 14.9383 12 13.8907V11H14.5C15.0523 11 15.5 10.5523 15.5 10C15.5 9.44772 15.0523 9 14.5 9H12V7.5Z" fill="black"/>
</svg>
