<svg width="24" height="24" viewBox="0 0 24 24" fill="none" xmlns="http://www.w3.org/2000/svg">
<path fill-rule="evenodd" clip-rule="evenodd" d="M14.8486 5.65845C13.1442 5.65845 11.7626 7.0401 11.7626 8.74446C11.7626 8.95304 11.7831 9.15581 11.822 9.35119C11.8846 9.66589 11.7924 9.99153 11.5741 10.2267C11.3558 10.4619 11.0379 10.578 10.7194 10.5389C8.51116 10.268 6.50248 9.35556 4.88498 7.9954C4.91649 8.59732 5.12515 9.23671 5.57799 9.90654L6.25677 10.9106L5.14211 11.3863L4.92704 11.4781C5.0869 11.6609 5.2791 11.8487 5.49369 12.0332C5.73717 12.2425 5.97247 12.4165 6.14726 12.5381C6.23408 12.5985 6.30452 12.645 6.35171 12.6755C6.37527 12.6907 6.39294 12.7018 6.40383 12.7086L6.41495 12.7155L6.41519 12.7157L6.41551 12.7159L6.41578 12.7161L6.41619 12.7163L6.41647 12.7165L7.96448 13.655L6.34397 14.4653C6.26374 14.5054 6.18367 14.5412 6.10393 14.573C6.42924 14.8471 6.82517 15.0995 7.2464 15.2986L8.63623 15.9556L7.47226 16.9598C6.8369 17.508 6.19778 17.9166 5.36946 18.1326C6.59681 18.7875 8.00315 19.1596 9.49941 19.1596C14.3045 19.1596 18.1746 15.325 18.1746 10.6256V10.1059L18.5998 9.80721C19.1971 9.38773 19.637 8.83524 19.9639 8.20366C19.3868 8.1905 18.8108 8.09943 18.2784 7.95527L17.8346 7.83508L17.637 7.41994C17.1401 6.37633 16.0772 5.65845 14.8486 5.65845ZM3.56882 12.9581C3.38031 13.174 3.29093 13.4642 3.33193 13.7553C3.44474 14.5563 3.92441 15.2462 4.45444 15.7728C4.59838 15.9158 4.75232 16.0531 4.91396 16.184C4.88926 16.1909 4.86437 16.1975 4.83925 16.2038C4.35789 16.3243 3.70926 16.3494 2.62755 16.2434C2.20934 16.2024 1.81014 16.4273 1.62841 16.8062C1.44668 17.185 1.5212 17.6371 1.81492 17.9376C3.75693 19.9245 6.48413 21.1596 9.49941 21.1596C15.212 21.1596 19.8978 16.7239 20.1628 11.126C21.4521 10.0429 22.0976 8.57673 22.4458 7.24263C22.5394 6.88422 22.4272 6.50344 22.1542 6.25307C21.8812 6.00269 21.4921 5.92373 21.1431 6.04787C20.6296 6.23054 19.9292 6.25489 19.2043 6.1175C18.3146 4.6452 16.6976 3.65845 14.8486 3.65845C12.1796 3.65845 9.99072 5.71435 9.7793 8.32892C7.91032 7.84456 6.2705 6.78758 5.05863 5.35408C4.83759 5.09261 4.49814 4.9624 4.15894 5.00897C3.81974 5.05554 3.52794 5.27241 3.38555 5.58378C2.78087 6.90597 2.66434 8.43104 3.34116 9.98046L3.10746 10.0802C2.64466 10.2777 2.40073 10.7884 2.5379 11.2725C2.72276 11.925 3.14129 12.5011 3.56882 12.9581Z" fill="black"/>
</svg>
