<svg width="24" height="24" viewBox="0 0 24 24" fill="none" xmlns="http://www.w3.org/2000/svg">
<path fill-rule="evenodd" clip-rule="evenodd" d="M3.5 12C3.5 7.30558 7.30558 3.5 12 3.5C16.6944 3.5 20.5 7.30558 20.5 12C20.5 16.6944 16.6944 20.5 12 20.5C7.30558 20.5 3.5 16.6944 3.5 12ZM12 1.5C6.20101 1.5 1.5 6.20101 1.5 12C1.5 17.799 6.20101 22.5 12 22.5C17.799 22.5 22.5 17.799 22.5 12C22.5 6.20101 17.799 1.5 12 1.5ZM9.95714 8.71134C9.87458 8.4375 9.67871 8.21211 9.41905 8.09217C9.1594 7.97223 8.86081 7.96922 8.59879 8.08389L7.59909 8.52139C7.09313 8.74281 6.86247 9.33246 7.0839 9.83842C7.30047 10.3333 7.86931 10.5648 8.36755 10.3675L10.1528 16.2887C10.2801 16.711 10.6691 17 11.1102 17C11.6454 16.9802 12.1539 16.745 12.6023 16.4673C13.3621 15.9966 14.343 15.1251 15.4813 13.5147C16.3715 12.2552 16.7603 11.1366 16.9181 10.299C17.0093 9.8153 17.0438 9.32351 16.9838 8.83433C16.9029 8.35273 16.486 8 15.9976 8H15.109C14.5567 8 14.109 8.44772 14.109 9C14.109 9.49521 14.469 9.90635 14.9415 9.98604C14.8278 10.547 14.5451 11.3742 13.8481 12.3603C12.9508 13.6297 12.2293 14.2936 11.7439 14.6376L9.95714 8.71134Z" fill="black"/>
</svg>
