<svg width="24" height="24" viewBox="0 0 24 24" fill="none" xmlns="http://www.w3.org/2000/svg">
<path fill-rule="evenodd" clip-rule="evenodd" d="M3.5 12C3.5 7.30558 7.30558 3.5 12 3.5C16.6944 3.5 20.5 7.30558 20.5 12C20.5 16.6944 16.6944 20.5 12 20.5C7.30558 20.5 3.5 16.6944 3.5 12ZM12 1.5C6.20101 1.5 1.5 6.20101 1.5 12C1.5 17.799 6.20101 22.5 12 22.5C17.799 22.5 22.5 17.799 22.5 12C22.5 6.20101 17.799 1.5 12 1.5ZM9.95713 8.71134C9.87457 8.4375 9.6787 8.21211 9.41904 8.09217C9.15939 7.97223 8.86081 7.96922 8.59878 8.08389L7.59908 8.52139C7.09312 8.74281 6.86246 9.33246 7.08389 9.83842C7.30046 10.3333 7.8693 10.5648 8.36754 10.3675L10.1527 16.2887C10.2801 16.711 10.6691 17 11.1102 17V16C11.1102 17 11.1113 17 11.1123 17L11.1145 17L11.1191 17L11.1285 16.9998L11.1489 16.9993C11.1632 16.9988 11.1789 16.998 11.196 16.9968C11.2301 16.9944 11.2697 16.9905 11.3144 16.9841C11.4039 16.9715 11.5133 16.9494 11.6411 16.9122C11.8973 16.8375 12.2212 16.7033 12.6022 16.4673C13.3621 15.9966 14.343 15.1251 15.4813 13.5147C16.3715 12.2552 16.7603 11.1366 16.9181 10.299C16.9967 9.88227 17.0171 9.53992 17.0159 9.28977C17.0153 9.16477 17.0093 9.06289 17.0024 8.9863C16.999 8.948 16.9953 8.91601 16.992 8.8906C16.9904 8.8779 16.9888 8.86683 16.9874 8.85744L16.9855 8.84462L16.9846 8.83915L16.9842 8.83666L16.984 8.83547C16.9839 8.8349 16.9838 8.83433 15.9976 9L16.9838 8.83433C16.9029 8.35273 16.486 8 15.9976 8H15.109C14.5567 8 14.109 8.44772 14.109 9C14.109 9.49521 14.4689 9.90635 14.9415 9.98604C14.8278 10.547 14.5451 11.3742 13.8481 12.3603C12.9508 13.6297 12.2293 14.2936 11.7439 14.6376L9.95713 8.71134Z" fill="black"/>
</svg>
