<svg width="24" height="24" viewBox="0 0 24 24" fill="none" xmlns="http://www.w3.org/2000/svg">
<path fill-rule="evenodd" clip-rule="evenodd" d="M5.1254 7C6.67093 4.87867 9.17446 3.5 12 3.5C14.5988 3.5 16.9253 4.66631 18.4844 6.50407C17.0937 6.0314 15.5783 7.34714 16.0709 8.89995L16.7241 10.959L14.9571 15.3266L13.0674 10.6269L12.4133 9H13C13.5523 9 14 8.55229 14 8C14 7.44772 13.5523 7 13 7H10.9334H10C9.44772 7 9 7.44772 9 8C9 8.55229 9.44772 9 10 9H10.2576L11.0585 10.9917L9.19996 15.4174L6.50462 9H7C7.55228 9 8 8.55229 8 8C8 7.44772 7.55228 7 7 7H5.1254ZM4.18702 8.64675C3.74487 9.67557 3.5 10.8092 3.5 12C3.5 16.6944 7.30558 20.5 12 20.5C16.6944 20.5 20.5 16.6944 20.5 12C20.5 10.7811 20.2435 9.6222 19.7814 8.57423C19.7606 8.73082 19.72 8.88677 19.6586 9.03857L18.7133 11.375L15.8813 18.375C15.7283 18.7531 15.3611 19.0004 14.9532 19C14.5453 18.9996 14.1786 18.7515 14.0265 18.3731L12.1195 13.6306L10.122 18.3872C9.96611 18.7585 9.60272 19 9.20005 19C8.79737 19 8.43397 18.7585 8.27804 18.3872L4.18702 8.64675ZM12 1.5C6.20101 1.5 1.5 6.20101 1.5 12C1.5 17.799 6.20101 22.5 12 22.5C17.799 22.5 22.5 17.799 22.5 12C22.5 6.20101 17.799 1.5 12 1.5Z" fill="black"/>
</svg>
