<svg width="24" height="24" viewBox="0 0 24 24" fill="none" xmlns="http://www.w3.org/2000/svg">
<path fill-rule="evenodd" clip-rule="evenodd" d="M6 2C3.79086 2 2 3.79086 2 6V18C2 20.2091 3.79086 22 6 22H18C20.2091 22 22 20.2091 22 18V6C22 3.79086 20.2091 2 18 2H6ZM4 6C4 4.89543 4.89543 4 6 4H18C19.1046 4 20 4.89543 20 6V18C20 19.1046 19.1046 20 18 20H6C4.89543 20 4 19.1046 4 18V6ZM9.85749 7.4855C9.57334 7.01192 8.95908 6.85836 8.4855 7.14251C8.01192 7.42666 7.85836 8.04092 8.14251 8.5145L11 13.277V16C11 16.5523 11.4477 17 12 17C12.5523 17 13 16.5523 13 16V13.277L15.8575 8.5145C16.1416 8.04092 15.9881 7.42666 15.5145 7.14251C15.0409 6.85836 14.4267 7.01192 14.1425 7.4855L12 11.0563L9.85749 7.4855Z" fill="black"/>
</svg>
