<svg width="24" height="24" fill="none" xmlns="http://www.w3.org/2000/svg"><path fill-rule="evenodd" clip-rule="evenodd" d="M8.18 2.566c-.276.486-.526 1.088-.764 1.799-1.838 4.98-4.681 12.26-6.054 15.755-.623 1.587.895 3.176 2.51 2.626 3.516-1.198 10.79-3.66 15.763-5.227l.015-.005c.714-.237 1.316-.48 1.8-.75.477-.266.905-.594 1.193-1.03.656-.993.292-2.034-.142-2.839-2.73-5.06-6.143-8.618-10.404-11.325-.407-.258-.863-.478-1.355-.547a2.142 2.142 0 0 0-1.512.34c-.437.289-.773.718-1.05 1.203zm6.911 6.525c-1.58-1.686-3.302-3.112-5.536-4.759.127-.317.248-.573.364-.777.192-.338.338-.474.414-.524.046-.03.07-.036.13-.028.095.014.273.072.561.255 3.97 2.522 7.147 5.823 9.717 10.587.358.663.242.778.233.787v.001c-.042.063-.165.198-.498.384-.19.106-.427.216-.72.333-1.659-2.637-3.079-4.566-4.665-6.259zm-1.46 1.368c1.39 1.482 2.667 3.186 4.171 5.544-4.901 1.569-11.34 3.748-14.576 4.85h-.002v-.002c1.263-3.217 3.779-9.658 5.611-14.562 1.953 1.461 3.439 2.721 4.797 4.17zM10 13a2 2 0 1 0 0-4 2 2 0 0 0 0 4zm0 3a2 2 0 1 1-4 0 2 2 0 0 1 4 0zm3 1a2 2 0 1 0 0-4 2 2 0 0 0 0 4z" fill="#000"/></svg>