<svg width="24" height="24" fill="none" xmlns="http://www.w3.org/2000/svg"><path fill-rule="evenodd" clip-rule="evenodd" d="M12 4a8 8 0 1 0 0 16 8 8 0 0 0 0-16zM2 12C2 6.477 6.477 2 12 2s10 4.477 10 10-4.477 10-10 10S2 17.523 2 12zm7.247 3.319C9.555 14.876 10.39 14 12 14s2.445.876 2.752 1.319c.13.185.201.371.245.515.045.148.137.472.164.776a1.5 1.5 0 0 1-.1.723 1.114 1.114 0 0 1-.53.56c-.294.145-.58.125-.774.077-1.047-.262-1.409-.345-1.757-.345-.348 0-.71.083-1.758.345-.193.049-.479.068-.773-.077a1.114 1.114 0 0 1-.531-.56 1.5 1.5 0 0 1-.099-.723 4.08 4.08 0 0 1 .164-.776 1.82 1.82 0 0 1 .244-.515zm-.126-1.698a1.5 1.5 0 0 0 .77-2.788l.238.095a1 1 0 0 0 .742-1.856l-2.5-1a1 1 0 0 0-.742 1.856l1.823.73a1.5 1.5 0 1 0-.331 2.963zM16.5 12a1.5 1.5 0 1 1-2.49-1.127l-.139.056a1 1 0 0 1-.742-1.857l2.5-1a1 1 0 0 1 .742 1.856l-1.431.573.06-.001a1.5 1.5 0 0 1 1.5 1.5z" fill="#000"/></svg>