<svg width="24" height="24" fill="none" xmlns="http://www.w3.org/2000/svg"><path fill-rule="evenodd" clip-rule="evenodd" d="M4 12a8 8 0 1 1 16 0 8 8 0 0 1-16 0zm8-10C6.477 2 2 6.477 2 12s4.477 10 10 10 10-4.477 10-10S17.523 2 12 2zm2.033 15.256a1 1 0 0 0 1.937-.499C15.531 15.001 13.717 14 12 14c-1.785 0-3.452 1.012-3.97 2.76a1 1 0 0 0 1.937.496C10.227 16.386 11.16 16 12 16c.84 0 1.772.385 2.033 1.256zm-3.412-7.135a1.5 1.5 0 1 1-3 0 1.5 1.5 0 0 1 3 0zM15 11.5a1.5 1.5 0 1 0 0-3 1.5 1.5 0 0 0 0 3z" fill="#000"/></svg>