<svg width="24" height="24" viewBox="0 0 24 24" fill="none" xmlns="http://www.w3.org/2000/svg">
<g clip-path="url(#clip0)">
<path fill-rule="evenodd" clip-rule="evenodd" d="M20.7479 0.39531C21.1384 0.00478592 21.7715 0.00478592 22.1621 0.39531L22.912 1.14523L23.6619 1.89514C24.0524 2.28567 24.0524 2.91883 23.6619 3.30935L21.3094 5.66182C20.9189 6.05234 20.2857 6.05234 19.8952 5.66182L19.8524 5.61901L18.4966 6.9748C19.2636 7.94476 19.8262 9.08549 20.1251 10.336C20.7229 12.8373 19.2846 15.3979 16.8474 16.2355L16.6528 16.3024C15.5021 16.6979 14.659 17.706 14.4749 18.8992L14.3926 19.4322C13.9644 22.2078 11.4481 24.2147 8.65165 23.9929C4.04529 23.6277 0.429464 20.0118 0.0642153 15.4055C-0.157518 12.6091 1.84937 10.0928 4.6249 9.66451L5.15789 9.58227C6.35114 9.39815 7.35927 8.55502 7.75475 7.40436L7.82164 7.20972C8.65928 4.77256 11.2198 3.33422 13.7211 3.93203C14.9717 4.23091 16.1124 4.79359 17.0824 5.56058L18.4382 4.2048L18.3954 4.16199C18.0049 3.77146 18.0049 3.1383 18.3954 2.74777L20.7479 0.39531ZM13.9983 8.64474L15.6556 6.98736C14.9525 6.47074 14.1411 6.08874 13.2562 5.87725C11.7765 5.52359 10.2226 6.37727 9.71305 7.85979L9.64615 8.05442L8.88209 7.79182L9.64615 8.05442C9.01038 9.90425 7.39369 11.261 5.46288 11.5589L4.92989 11.6411C3.18035 11.9111 1.91972 13.504 2.05796 15.2474C2.34551 18.8739 5.1832 21.7116 8.80974 21.9992C10.5531 22.1374 12.1461 20.8768 12.416 19.1272L12.4983 18.5943C12.7962 16.6634 14.1529 15.0468 16.0027 14.411L16.2915 15.2511L16.0027 14.411L16.1974 14.3441C17.6799 13.8346 18.5335 12.2807 18.1799 10.8009C17.9684 9.91605 17.5864 9.1047 17.0698 8.40159L15.4125 10.059C15.0219 10.4495 14.3888 10.4495 13.9983 10.059C13.6077 9.66843 13.6077 9.03527 13.9983 8.64474ZM11.5 15C12.8807 15 14 13.8807 14 12.5C14 11.1193 12.8807 10 11.5 10C10.1193 10 8.99997 11.1193 8.99997 12.5C8.99997 13.8807 10.1193 15 11.5 15Z" fill="black"/>
</g>
<defs>
<clipPath id="clip0">
<rect width="24" height="24" fill="white"/>
</clipPath>
</defs>
</svg>
