<svg width="24" height="24" viewBox="0 0 24 24" fill="none" xmlns="http://www.w3.org/2000/svg">
<g clip-path="url(#clip0)">
<path fill-rule="evenodd" clip-rule="evenodd" d="M20.7478 0.39531C21.1383 0.00478592 21.7715 0.00478592 22.162 0.39531L22.912 1.14523L23.6619 1.89514C24.0524 2.28567 24.0524 2.91883 23.6619 3.30935L21.3094 5.66182C20.9189 6.05234 20.2857 6.05234 19.8952 5.66182L19.8524 5.61901L18.4965 6.97485C19.2635 7.9448 19.8261 9.08552 20.125 10.336C20.7228 12.8373 19.2845 15.3979 16.8473 16.2355C15.6297 16.654 14.6773 17.5864 14.4747 18.8992L14.3925 19.4322C13.9642 22.2078 11.4479 24.2147 8.65153 23.9929C4.04517 23.6277 0.429342 20.0118 0.0640933 15.4055C-0.15764 12.6091 1.84925 10.0928 4.62478 9.66451L5.15777 9.58227C6.47057 9.37971 7.40303 8.42735 7.82152 7.20972C8.65916 4.77256 11.2197 3.33422 13.721 3.93203C14.9716 4.23092 16.1124 4.79361 17.0823 5.56062L18.4382 4.2048L18.3954 4.16199C18.0048 3.77146 18.0048 3.1383 18.3954 2.74777L20.7478 0.39531ZM13.9982 8.64474L15.6556 6.9874C14.9524 6.47076 14.141 6.08874 13.2561 5.87725C11.6176 5.48564 10.1649 6.54471 9.64603 8.05442C9.01026 9.90425 7.39357 11.261 5.46276 11.5589L4.92977 11.6411C3.18023 11.9111 1.9196 13.504 2.05784 15.2474C2.34539 18.8739 5.18308 21.7116 8.80962 21.9992C10.553 22.1374 12.1459 20.8768 12.4159 19.1272L12.4981 18.5943C12.7961 16.6634 14.1528 15.0468 16.0026 14.411C17.5123 13.8921 18.5714 12.4395 18.1798 10.8009C17.9683 9.91607 17.5863 9.10475 17.0697 8.40164L15.4124 10.059C15.0219 10.4495 14.3887 10.4495 13.9982 10.059C13.6077 9.66843 13.6077 9.03527 13.9982 8.64474ZM11.4999 15C12.8807 15 13.9999 13.8807 13.9999 12.5C13.9999 11.1193 12.8807 10 11.4999 10C10.1192 10 8.99994 11.1193 8.99994 12.5C8.99994 13.8807 10.1192 15 11.4999 15Z" fill="black"/>
</g>
<defs>
<clipPath id="clip0">
<rect width="24" height="24" fill="white"/>
</clipPath>
</defs>
</svg>
