<svg width="24" height="24" viewBox="0 0 24 24" fill="none" xmlns="http://www.w3.org/2000/svg">
<path fill-rule="evenodd" clip-rule="evenodd" d="M1.85804 3.59758C2.04166 2.65542 2.86802 2 3.80589 2H14.1941C15.132 2 15.9583 2.65541 16.142 3.59758C16.2901 4.35775 16.5204 5.61777 16.7054 7H17H19.6529C20.6261 7 21.4796 7.70667 21.6137 8.70346C21.6894 9.26567 21.7866 10.0714 21.8646 11H22C22.5523 11 23 11.4477 23 12C23 12.5523 22.5523 13 22 13H21.9832C21.994 13.3304 22 13.665 22 14C22 14.9699 21.8412 16.018 21.6207 17.0072C22.1161 17.0668 22.5 17.4886 22.5 18C22.5 18.5523 22.0523 19 21.5 19H21.0849C20.9582 19.4077 20.8334 19.7778 20.7218 20.0942C20.3042 21.2787 19.181 22 17.9825 22H14H5.4589C4.15989 22 2.98597 21.1603 2.6224 19.8769C2.47601 19.3602 2.30122 18.7183 2.12141 18H2C1.44772 18 1 17.5523 1 17C1 16.5629 1.28044 16.1913 1.67121 16.0553C1.31847 14.3864 1.02734 12.567 1.00015 11.0175C0.989138 10.3897 1.01969 9.70175 1.07622 9H1C0.447715 9 0 8.55228 0 8C0 7.44772 0.447715 7 1 7H1.29462C1.47963 5.61777 1.70989 4.35775 1.85804 3.59758ZM3.08273 9C3.02256 9.69715 2.9892 10.3757 2.99985 10.9825C3.02623 12.4863 3.33688 14.3231 3.70533 16H14.2947C14.5898 14.6564 14.847 13.2132 14.952 11.9191C14.9784 11.593 14.9949 11.2797 15.0002 10.9825C15.0108 10.3757 14.9774 9.69715 14.9173 9H13.2993H3.08273ZM13.2993 7H3.31328C3.47988 5.80905 3.67806 4.71554 3.81724 4H14.1828C14.3219 4.71554 14.5201 5.80905 14.6867 7H13.2993ZM16.9238 9C16.9798 9.69522 17.0103 10.3769 17.0001 11H19.8572C19.7871 10.2033 19.7034 9.50668 19.6356 9H17H16.9238ZM19.9821 13H16.8512C16.6876 14.3408 16.41 15.7439 16.1194 17H19.5681C19.8155 15.9963 20 14.9331 20 14C20 13.6656 19.9936 13.3308 19.9821 13ZM18.9831 19H15.6193C15.5205 19.3686 15.4268 19.705 15.3426 20H17.9825C18.391 20 18.7189 19.7601 18.8356 19.4291C18.8835 19.2934 18.9329 19.15 18.9831 19ZM13.2598 20C13.2719 19.959 13.2845 19.9164 13.2975 19.8722C13.4361 19.4001 13.6194 18.7527 13.8146 18H4.18551C4.31316 18.4925 4.43648 18.9428 4.54667 19.3318C4.65696 19.7211 5.0194 20 5.4589 20H13.2598Z" fill="black"/>
</svg>
