<svg width="24" height="24" viewBox="0 0 24 24" fill="none" xmlns="http://www.w3.org/2000/svg">
<path fill-rule="evenodd" clip-rule="evenodd" d="M1 3C1 2.44772 1.44772 2 2 2H6H10C10.5523 2 11 2.44772 11 3C11 3.55228 10.5523 4 10 4H7V5.13211C7.48735 5.04526 7.98868 5 8.5 5C10.5981 5 12.5181 5.7604 14 7.01923V6C14 5.44772 14.4477 5 15 5H23C23.5523 5 24 5.44772 24 6V9V12C24 13.6569 22.6569 15 21 15H20V18.4648L22.5547 20.1679C23.0142 20.4743 23.1384 21.0952 22.8321 21.5547C22.5257 22.0142 21.9048 22.1384 21.4453 21.8321L19 20.2019L16.5547 21.8321C16.0952 22.1384 15.4743 22.0142 15.1679 21.5547C14.8616 21.0952 14.9858 20.4743 15.4453 20.1679L18 18.4648V15H17C16.956 15 16.9121 14.999 16.8685 14.9972C16.161 18.9778 12.6836 22 8.5 22C3.80558 22 0 18.1944 0 13.5C0 10.052 2.05257 7.08556 5 5.75204V4H2C1.44772 4 1 3.55228 1 3ZM14.9626 14.2019C14.3716 13.6547 14 12.8711 14 12V10.0341C12.8472 8.20897 10.8143 7 8.5 7C7.7385 7 7.00965 7.13053 6.33325 7.3696C3.80731 8.26239 2 10.6714 2 13.5C2 17.0899 4.91015 20 8.5 20C11.8527 20 14.6128 17.4614 14.9626 14.2019ZM16 10H22V12C22 12.5523 21.5523 13 21 13H19H17C16.8155 13 16.6455 12.9509 16.499 12.8658C16.1984 12.6912 16 12.3682 16 12V10ZM22 8H16V7H22V8Z" fill="black"/>
</svg>
