<svg width="24" height="24" viewBox="0 0 24 24" fill="none" xmlns="http://www.w3.org/2000/svg">
<path fill-rule="evenodd" clip-rule="evenodd" d="M2 8.5C2 4.91015 4.91015 2 8.5 2C12.0899 2 15 4.91015 15 8.5V9.00818C15 9.32411 15.2442 9.58632 15.5593 9.60883L16.4275 9.67084C19.5673 9.89512 22 12.5078 22 15.6556V16V21C22 22.1046 21.1046 23 20 23H4C2.89543 23 2 22.1046 2 21V16V8.5ZM8.5 4C6.01472 4 4 6.01472 4 8.5V15H8H12H16H19.9464C19.6499 13.2048 18.1557 11.7994 16.285 11.6658L15.4168 11.6037C14.055 11.5065 13 10.3734 13 9.00818V8.5C13 6.01472 10.9853 4 8.5 4ZM20 17H17V19C17 19.5523 16.5523 20 16 20C15.4477 20 15 19.5523 15 19V17H13V19C13 19.5523 12.5523 20 12 20C11.4477 20 11 19.5523 11 19V17H9V19C9 19.5523 8.55228 20 8 20C7.44772 20 7 19.5523 7 19V17H4V21H20V17Z" fill="black"/>
</svg>
