<svg width="24" height="24" viewBox="0 0 24 24" fill="none" xmlns="http://www.w3.org/2000/svg">
<path fill-rule="evenodd" clip-rule="evenodd" d="M23.3006 3.04621C23.7169 3.17743 24 3.56348 24 3.99995V20C24 20.4364 23.7169 20.8225 23.3006 20.9537C22.8844 21.0849 22.4311 20.931 22.1808 20.5734L22.0431 20.3767C20.3152 17.9084 18.1418 15.7926 15.6405 14.1348C15.8724 14.7112 16 15.3407 16 16C16 18.7614 13.7614 21 11 21H7C4.23858 21 2 18.7614 2 16C2 14.8743 2.37194 13.8356 2.99963 13H2C2 13.5522 1.55228 14 1 14C0.447715 14 0 13.5522 0 13V12V11C0 10.4477 0.447715 9.99995 1 9.99995C1.55228 9.99995 2 10.4477 2 11H4V8.99995C4 8.44767 4.44772 7.99995 5 7.99995C5.55228 7.99995 6 8.44767 6 8.99995V11H7H8V8.99995C8 8.44767 8.44772 7.99995 9 7.99995C9.55229 7.99995 10 8.44767 10 8.99995V11H11H12V8.99995C12 8.44767 12.4477 7.99995 13 7.99995C13.5523 7.99995 14 8.44767 14 8.99995V10.8604C17.1964 9.09196 19.9475 6.61688 22.0431 3.62323L22.1808 3.42649C22.4311 3.06892 22.8844 2.91499 23.3006 3.04621ZM16.0134 12C18.2566 13.3811 20.2747 15.0939 22 17.0777V6.9222C20.2747 8.90601 18.2566 10.6188 16.0134 12ZM7 13C5.34315 13 4 14.3431 4 16C4 17.6568 5.34315 19 7 19H11C12.6569 19 14 17.6568 14 16C14 14.3431 12.6569 13 11 13H9H7Z" fill="black"/>
</svg>
