<svg width="984" height="648" viewBox="0 0 984 648" xmlns="http://www.w3.org/2000/svg">
<rect x="0" y="0" width="984" height="648" fill="#f5f5f5" />
<text x="24" y="48" style="font-size:12px;font-family:sans-serif">Brands</text>
<g transform="translate(24, 72)"><path fill-rule="evenodd" clip-rule="evenodd" d="M2 6a4 4 0 0 1 4-4h12a4 4 0 0 1 4 4v12a4 4 0 0 1-4 4H6a4 4 0 0 1-4-4V6zm4-2a2 2 0 0 0-2 2v12a2 2 0 0 0 2 2h6v-7h-1a1 1 0 1 1 0-2h1V9.5A3.5 3.5 0 0 1 15.5 6h.6a1 1 0 1 1 0 2h-.6A1.5 1.5 0 0 0 14 9.5V11h2.1a1 1 0 1 1 0 2H14v7h4a2 2 0 0 0 2-2V6a2 2 0 0 0-2-2H6z"/></g>
<g transform="translate(72, 72)"><path fill-rule="evenodd" clip-rule="evenodd" d="M14.849 5.658a3.086 3.086 0 0 0-3.027 3.693 1 1 0 0 1-1.103 1.188 11.167 11.167 0 0 1-5.834-2.544c.031.602.24 1.242.693 1.912l.679 1.004-1.115.475-.215.092c.16.183.352.37.567.555a8.219 8.219 0 0 0 .91.676l.011.007h.001l1.548.939-1.62.81c-.08.04-.16.076-.24.108a5.34 5.34 0 0 0 1.142.726l1.39.657-1.164 1.004c-.635.548-1.274.957-2.103 1.173A8.748 8.748 0 0 0 9.5 19.16c4.806 0 8.676-3.835 8.676-8.534v-.52l.425-.299c.664-.466 1.133-1.096 1.469-1.817h-2.16l-.272-.57a3.086 3.086 0 0 0-2.788-1.762zm-11.28 7.3a1 1 0 0 0-.237.797c.113.801.592 1.491 1.122 2.018.144.143.298.28.46.411l-.075.02c-.481.12-1.13.145-2.211.04a1 1 0 0 0-.813 1.694 10.716 10.716 0 0 0 7.684 3.222c5.713 0 10.399-4.436 10.664-10.034 1.29-1.083 1.935-2.55 2.283-3.883a1 1 0 0 0-.968-1.253h-2.353A5.086 5.086 0 0 0 9.78 8.329a9.214 9.214 0 0 1-4.721-2.975 1 1 0 0 0-1.673.23C2.78 6.906 2.664 8.43 3.34 9.98l-.234.1a1 1 0 0 0-.57 1.193c.186.652.604 1.228 1.032 1.685z"/></g>
<g transform="translate(120, 72)"><path fill-rule="evenodd" clip-rule="evenodd" d="M6 2a4 4 0 0 0-4 4v12a4 4 0 0 0 4 4h12a4 4 0 0 0 4-4V6a4 4 0 0 0-4-4H6zM4 6a2 2 0 0 1 2-2h12a2 2 0 0 1 2 2v12a2 2 0 0 1-2 2H6a2 2 0 0 1-2-2V6zm3 1a1 1 0 0 0 0 2v6a1 1 0 1 0 0 2h2a1 1 0 1 0 0-2v-3.697l2.168 3.252a1 1 0 0 0 1.664 0L15 11.303V15a1 1 0 1 0 0 2h2a1 1 0 1 0 0-2V9a1 1 0 1 0 0-2h-1a1 1 0 0 0-.832.445L12 12.197 8.832 7.445A1 1 0 0 0 8 7H7z"/></g>
<g transform="translate(168, 72)"><path fill-rule="evenodd" clip-rule="evenodd" d="M5.125 7A8.488 8.488 0 0 1 12 3.5a8.481 8.481 0 0 1 6.484 3.004c-1.39-.473-2.906.843-2.413 2.396l.653 2.059-1.767 4.368-1.89-4.7L12.413 9H13a1 1 0 1 0 0-2h-3a1 1 0 0 0 0 2h.258l.8 1.992L9.2 15.417 6.505 9H7a1 1 0 1 0 0-2H5.125zm-.938 1.647a8.5 8.5 0 1 0 15.594-.073c-.02.157-.061.313-.122.465l-.946 2.336-2.832 7a1 1 0 0 1-1.854-.002l-1.907-4.742-1.998 4.756a1 1 0 0 1-1.844 0l-4.091-9.74zM12 1.5C6.201 1.5 1.5 6.201 1.5 12S6.201 22.5 12 22.5 22.5 17.799 22.5 12 17.799 1.5 12 1.5z"/></g>
<g transform="translate(216, 72)"><path fill-rule="evenodd" clip-rule="evenodd" d="M6 2a4 4 0 0 0-4 4v12a4 4 0 0 0 4 4h12a4 4 0 0 0 4-4V6a4 4 0 0 0-4-4H6zM4 6a2 2 0 0 1 2-2h12a2 2 0 0 1 2 2v12a2 2 0 0 1-2 2H6a2 2 0 0 1-2-2V6zm8 1.5a1 1 0 1 0-2 0V9H9a1 1 0 0 0 0 2h1v2.89c0 2.445 2.442 4.137 4.73 3.277l.616-.23a1 1 0 0 0-.703-1.873l-.616.23A1.5 1.5 0 0 1 12 13.892V11h2.5a1 1 0 1 0 0-2H12V7.5z"/></g>
<g transform="translate(264, 72)"><path fill-rule="evenodd" clip-rule="evenodd" d="M6 2a4 4 0 0 0-4 4v12a4 4 0 0 0 4 4h12a4 4 0 0 0 4-4V6a4 4 0 0 0-4-4H6zM4 6a2 2 0 0 1 2-2h12a2 2 0 0 1 2 2v12a2 2 0 0 1-2 2H6a2 2 0 0 1-2-2V6zm5 5a1 1 0 1 0-2 0v6a1 1 0 1 0 2 0v-6zm.5-3.5a1.5 1.5 0 1 1-3 0 1.5 1.5 0 0 1 3 0zM12 10c.34 0 .64.17.82.428A3.51 3.51 0 0 1 14.5 10c2.16 0 3.5 1.926 3.5 3.571V17a1 1 0 1 1-2 0V13.57c0-.768-.66-1.571-1.5-1.571-.524 0-1.103.285-1.5.963V17a1 1 0 1 1-2 0V11a1 1 0 0 1 1-1z"/></g>
<g transform="translate(312, 72)"><path fill-rule="evenodd" clip-rule="evenodd" d="M7.248 4.07C8.43 2.666 10.104 2 12 2c1.94 0 3.604.784 4.764 2.213 1.03 1.27 1.613 2.984 1.719 4.977l.092.014.02.003c.17.024.373.054.584.095.781.151 2.114.533 2.573 1.964.23.719.115 1.385-.288 1.913-.347.455-.843.718-1.198.877-.176.08-.352.148-.5.205.346.936.948 1.899 1.614 2.771.627.822.461 1.863.137 2.542-.325.68-1.027 1.457-2.049 1.501-.578.025-1.185.085-1.789.195-.273.05-.595.159-.995.324-.239.098-.458.196-.694.301-.188.084-.386.172-.615.27-.94.404-2.095.835-3.375.835-1.28 0-2.435-.431-3.375-.835-.229-.098-.428-.186-.615-.27a26.933 26.933 0 0 0-.694-.301c-.4-.165-.722-.275-.995-.325-.604-.11-1.211-.169-1.79-.194-1.021-.044-1.724-.821-2.048-1.501-.324-.679-.49-1.72.137-2.542.67-.878 1.275-1.848 1.62-2.79a8.898 8.898 0 0 1-.449-.191c-.346-.162-.816-.421-1.163-.855-.387-.486-.558-1.113-.406-1.831.324-1.537 1.77-1.92 2.534-2.064.217-.04.428-.07.605-.095l.035-.005.12-.017c.099-2.125.678-3.863 1.732-5.114zm1.53 1.288c-.763.905-1.278 2.36-1.278 4.5v.104l-.022.103c-.111.524-.514.769-.714.863-.21.099-.437.148-.597.178-.156.029-.33.053-.485.074l-.046.007a10.89 10.89 0 0 0-.511.08c-.765.143-.91.333-.947.51-.026.127-.003.153.01.167l.004.004c.053.067.181.167.447.291.124.058.255.111.4.17l.036.014c.127.05.278.111.411.174.131.06.35.17.536.348.216.207.477.611.35 1.144-.364 1.531-1.283 3.005-2.161 4.155a.237.237 0 0 0-.016.106c0 .095.027.225.092.362.066.137.15.242.228.305.064.052.1.06.104.06.651.028 1.35.096 2.06.225.483.088.96.262 1.4.444.243.1.522.224.793.344.189.084.374.166.54.237.899.385 1.738.673 2.588.673.85 0 1.69-.288 2.588-.673.166-.071.351-.154.54-.237.27-.12.55-.244.792-.344.44-.182.917-.356 1.4-.444.71-.13 1.41-.197 2.06-.225.006 0 .041-.008.105-.06a.908.908 0 0 0 .228-.305.884.884 0 0 0 .092-.362c0-.093-.023-.115-.015-.104-.878-1.15-1.798-2.625-2.163-4.157-.135-.57.174-.98.387-1.17.19-.168.412-.273.547-.332.135-.06.287-.117.417-.166l.048-.019c.153-.057.29-.11.419-.169.27-.121.385-.214.424-.261a.447.447 0 0 0-.021-.095c-.091-.284-.348-.476-1.05-.612-.159-.03-.32-.054-.49-.08l-.038-.005a9.836 9.836 0 0 1-.473-.076 2.339 2.339 0 0 1-.589-.186c-.21-.104-.58-.353-.686-.853l-.022-.103v-.105c0-1.95-.507-3.42-1.289-4.383C14.446 4.53 13.361 4 12 4c-1.405 0-2.48.476-3.223 1.358z"/></g>
<g transform="translate(360, 72)"><path fill-rule="evenodd" clip-rule="evenodd" d="M3.5 12a8.5 8.5 0 1 1 8.5 8.5 8.455 8.455 0 0 1-4.542-1.314 1 1 0 0 0-.821-.113l-2.88.859 1.085-2.537a1 1 0 0 0-.07-.92A8.456 8.456 0 0 1 3.5 12zM12 1.5C6.201 1.5 1.5 6.201 1.5 12c0 1.838.473 3.568 1.305 5.073L1.08 21.107a1 1 0 0 0 1.206 1.351l4.5-1.342A10.456 10.456 0 0 0 12 22.5c5.799 0 10.5-4.701 10.5-10.5S17.799 1.5 12 1.5zm2.293 12.682l-1.315.926A9.338 9.338 0 0 1 11 13.585a10.202 10.202 0 0 1-1.624-2.114l.835-.709a1 1 0 0 0 .236-1.232l-1.064-2a1 1 0 0 0-1.54-.283l-.316.275c-.759.662-1.208 1.75-.836 2.852A12.049 12.049 0 0 0 9.586 15c1.813 1.813 3.655 2.527 4.733 2.805.868.223 1.689-.076 2.268-.548l.591-.482a1 1 0 0 0-.12-1.634l-1.678-1a1 1 0 0 0-1.088.041z"/></g>
<g transform="translate(408, 72)"><path fill-rule="evenodd" clip-rule="evenodd" d="M3 6.5a3.5 3.5 0 0 1 5.965-2.485l.407.404.555-.148a8 8 0 0 1 9.802 9.802l-.148.555.404.407a3.5 3.5 0 0 1-4.95 4.95l-.407-.404-.555.148A8 8 0 0 1 4.27 9.927l.148-.555-.404-.407A3.486 3.486 0 0 1 3 6.5zM6.5 1a5.5 5.5 0 0 0-4.288 8.944A10.039 10.039 0 0 0 2 12c0 5.523 4.477 10 10 10 .704 0 1.392-.073 2.056-.212a5.5 5.5 0 0 0 7.732-7.732c.14-.664.212-1.352.212-2.056 0-5.523-4.477-10-10-10-.704 0-1.392.073-2.056.212A5.48 5.48 0 0 0 6.5 1zm4.142 8.33c.133-.253.587-.58 1.29-.58 1.207 0 1.872.472 2.178.706a1 1 0 1 0 1.214-1.59c-.49-.374-1.577-1.116-3.392-1.116-1.268 0-2.507.594-3.108 1.74a2.475 2.475 0 0 0 .077 2.466c.429.713 1.172 1.222 2.048 1.458l1.554.418c.598.161 1.507.717 1.18 1.466-.198.452-.897.952-1.927.952-.89 0-1.676-.154-2.4-.706a1 1 0 0 0-1.213 1.59c.97.74 1.977 1.116 3.392 1.116 1.579 0 3.302-.598 3.98-2.15.4-.915.268-1.874-.23-2.643-.769-1.184-2.091-1.527-3.372-1.858a44.691 44.691 0 0 1-.444-.117c-.526-.141-1.14-.553-.827-1.152z"/></g>
<g transform="translate(456, 72)"><path fill-rule="evenodd" clip-rule="evenodd" d="M5.876 5.564c2.15-1.118 4.898-2.01 7.295-2.37 2.084-.313 4.293.812 5.265 2.682 1.118 2.15 2.01 4.898 2.37 7.296.313 2.083-.812 4.292-2.682 5.264-2.15 1.118-4.898 2.01-7.295 2.37-2.084.313-4.293-.812-5.265-2.682-1.118-2.15-2.01-4.898-2.37-7.295-.313-2.084.812-4.293 2.682-5.265zm6.999-4.348C10.259 1.608 7.3 2.57 4.953 3.789 2.325 5.155.776 8.196 1.216 11.125c.392 2.616 1.353 5.575 2.573 7.922 1.366 2.628 4.407 4.177 7.336 3.738 2.616-.393 5.575-1.355 7.922-2.574 2.628-1.366 4.177-4.407 3.738-7.336-.393-2.616-1.355-5.575-2.574-7.922-1.366-2.628-4.407-4.177-7.336-3.737zM8.874 7.233a1 1 0 1 0-1.902.618l.618 1.902-1.902.618a1 1 0 0 0 .618 1.902l1.902-.618.927 2.853-1.902.618a1 1 0 0 0 .618 1.902l1.902-.618.618 1.902a1 1 0 0 0 1.902-.618l-.618-1.902 2.853-.927.618 1.902a1 1 0 0 0 1.902-.618l-.618-1.902 1.902-.618a1 1 0 1 0-.618-1.902l-1.902.618-.927-2.853 1.902-.618a1 1 0 0 0-.618-1.902l-1.902.618-.618-1.902a1 1 0 1 0-1.902.618l.618 1.902-2.853.927-.618-1.902zm2.163 6.657l-.927-2.853 2.853-.927.927 2.853-2.853.927z"/></g>
<g transform="translate(504, 72)"><path fill-rule="evenodd" clip-rule="evenodd" d="M15.939.186a1 1 0 0 1 1.137.796c.197 1.332.25 2.721-.18 4.016.336.038.691.118 1.065.251 1.705.608 2.716 1.974 3.288 3.362A1 1 0 0 1 20.2 9.985c-1.36-.171-2.2 1.304-2.2 2.487 0 1.194.862 2.686 2.234 2.483a1 1 0 0 1 1.089 1.324c-.919 2.59-2.71 5.09-4.81 6.345a2.361 2.361 0 0 1-1.82.276c-.465-.112-.888-.34-1.303-.567-.591-.324-.972-.511-1.39-.511-.418 0-.799.187-1.39.51-.415.229-.838.456-1.303.568a2.36 2.36 0 0 1-1.82-.276c-1.539-.92-2.9-2.5-3.871-4.262C2.64 16.595 2 14.543 2 12.615c0-1.13.184-2.634.755-4.014.573-1.385 1.583-2.746 3.284-3.353 1.972-.704 3.408.082 4.4.709.013-.952.172-2.265.897-3.3C12.34 1.223 14.251.451 15.94.185zM6.71 7.133c1.157-.413 1.898.027 2.91.676.722.464 1.49.932 2.379.932s1.657-.468 2.379-.932c1.012-.65 1.753-1.089 2.91-.676.584.208 1.06.577 1.442 1.065C17.078 8.81 16 10.585 16 12.472c0 1.963 1.167 3.806 2.934 4.343-.863 1.782-2.934 3.977-3.447 4.092-.398.09-.844-.168-1.136-.328-.734-.403-1.496-.758-2.351-.758-.972 0-1.768.437-2.294.727-.312.17-.823.58-1.193.36-1.151-.69-2.291-1.963-3.146-3.513C4.514 15.85 4 14.13 4 12.615c0-.947.159-2.176.603-3.249C5.045 8.3 5.72 7.486 6.71 7.133zm7.978-2.128c-.51.729-1.423 1.117-2.245 1.382-.032-.863.02-1.854.53-2.583.51-.728 1.424-1.117 2.246-1.382.032.863-.02 1.854-.53 2.583z"/></g>
<g transform="translate(552, 72)"><path fill-rule="evenodd" clip-rule="evenodd" d="M12 5a7 7 0 1 0 6.93 8H13a1 1 0 1 1 0-2h7a1 1 0 0 1 1 1 9 9 0 1 1-3.342-7A1 1 0 0 1 16.4 6.555 6.967 6.967 0 0 0 12 5z"/></g>
<g transform="translate(600, 72)"><path fill-rule="evenodd" clip-rule="evenodd" d="M3 4a1 1 0 0 1 1-1h16a1 1 0 0 1 1 1v16a1 1 0 0 1-1 1H4a1 1 0 0 1-1-1V4zm2 1v6h6V5H5zm8 0v6h6V5h-6zm6 8h-6v6h6v-6zm-8 6v-6H5v6h6z"/></g>
<g transform="translate(648, 72)"><path fill-rule="evenodd" clip-rule="evenodd" d="M7.817 2.973A1.5 1.5 0 0 1 9.221 2h5.557a1.5 1.5 0 0 1 1.405.973l6 16A1.5 1.5 0 0 1 20.778 21h-3.557a1.5 1.5 0 0 1-1.404-.973L12 9.848 10.068 15h1.965a1.5 1.5 0 0 1 1.405.973l1.125 3A1.5 1.5 0 0 1 13.158 21H3.222a1.5 1.5 0 0 1-1.404-2.027l6-16zM9.567 4L3.944 19h8.494l-.75-2H8.625a1 1 0 0 1-.936-1.351l3.375-9a1 1 0 0 1 1.872 0L17.568 19h2.489L14.432 4H9.568z"/></g>
<g transform="translate(696, 72)"><path fill-rule="evenodd" clip-rule="evenodd" d="M5.427 6.61l1.975 3.424A5.001 5.001 0 0 1 12 7h.002l6.874.002A8.489 8.489 0 0 0 12 3.5a8.481 8.481 0 0 0-6.573 3.11zm14.53 2.392L16 9c.627.835.999 1.874.999 2.999 0 .91-.244 1.765-.67 2.502v.001l-3.433 5.95a8.501 8.501 0 0 0 7.06-11.451zM10.624 20.39l1.976-3.426a4.998 4.998 0 0 1-4.93-2.461l-.008-.014-3.43-5.947a8.503 8.503 0 0 0 6.392 11.847zM9.402 13.5A2.998 2.998 0 0 0 12 15a2.998 2.998 0 0 0 3-3 3 3 0 0 0-2.998-3H12a3 3 0 0 0-2.604 4.491l.005.01zM3.412 5.96A10.489 10.489 0 0 1 12 1.5c4.222 0 7.86 2.492 9.527 6.08.625 1.345.973 2.843.973 4.42 0 5.799-4.701 10.5-10.5 10.5-.312 0-.622-.014-.928-.04C5.707 21.99 1.5 17.486 1.5 12c0-2.247.707-4.333 1.911-6.041z"/></g>
<g transform="translate(744, 72)"><path fill-rule="evenodd" clip-rule="evenodd" d="M22.5 12c0 5.799-4.701 10.5-10.5 10.5S1.5 17.799 1.5 12 6.201 1.5 12 1.5 22.5 6.201 22.5 12zm-4.398-5.918A8.475 8.475 0 0 0 12 3.5a8.483 8.483 0 0 0-6.545 3.077c1.404-.614 2.892-.588 3.42-.579L9 6c.6 0 1 .4 1 1s-.4 1-1 1-1 .4-1 1 .6 1 1 1h1c.55 0 1 .45 1 1.013A1 1 0 0 1 10 12c-2.43 0-2.321 2-2 2.642.579 1.158 2.61.815 3.81 0l.59-.442a1 1 0 0 1 1.2 1.6l-.529.397C10.5 18 13 20.5 16.43 18.797c1.569-.94 2.159-2.234 2.274-3.413a4.874 4.874 0 0 0-.33-2.265c-.273-.677-.636-1.102-.907-1.274A1 1 0 0 1 18 10c.21 0 .51 0 .856.059a1.547 1.547 0 0 0-.145-.304c-.318-.526-1.024-1.177-2.225-1.898A1 1 0 0 1 17 6c.325 0 .702.017 1.102.082z"/></g>
<g transform="translate(792, 72)"><path fill-rule="evenodd" clip-rule="evenodd" d="M11.5 1.38c-2.446 0-4.583.597-6.23 1.936a7.62 7.62 0 0 0-.423.371c-.52.515-1.293 1.439-1.897 2.83C1.947 8.83 2 11 2 11c.781-.652 2.585-2.006 4.312-2.858 1.686-.832 3.812-.917 3.812-.917h.06c.676-.05 1.25-.027 1.642.042.735.13 1.26.455 1.606.883.19.234.34.517.439.85H9.48c0-.156.045-.39.125-.576 0 0-.998-.182-2.004.153-1.713.57-2.873 2.008-3.401 2.794-.563.944-.931 2.064-.931 3.284 0 4.56 4.532 7.736 10.361 7.736 1.585 0 3.75-.435 5.393-1.34.652-.358.976-1.036.976-1.688v-4.276a.998.998 0 0 0-.04-.282A2 2 0 0 0 21.096 13v-3c0-2.74-1.023-4.936-2.8-6.43-1.756-1.475-4.154-2.19-6.797-2.19zM7.626 8.767zm-1.203 2.927c.228-.268.472-.5.72-.694H16V9.95c0-1.154-.335-2.22-1.012-3.058-.681-.841-1.656-1.39-2.814-1.594-1.124-.199-2.893-.115-4.682.375-.79.216-1.609.519-2.396.93a5.922 5.922 0 0 1 1.436-1.735c1.193-.97 2.84-1.488 4.968-1.488 2.302 0 4.203.623 5.51 1.721 1.284 1.08 2.087 2.694 2.087 4.899v3H8.5c-.744 0-1.67.67-1.412 1.731.526 2.164 3.14 3.68 6.543 3.68 1.073 0 2.296-.262 3.387-.71.331-.136.663-.294.982-.475v2.106c-1.295.694-3.081 1.058-4.369 1.058-5.325 0-8.361-2.797-8.361-5.735 0-1.113.463-2.154 1.153-2.961zM9.458 15h8.264c-.37.312-.87.607-1.464.851-.883.363-1.849.56-2.627.56-2.208 0-3.539-.706-4.173-1.411z"/></g>
<g transform="translate(840, 72)"><path fill-rule="evenodd" clip-rule="evenodd" d="M4 12c0-2.444.692-4.566 1.993-6.061C7.277 4.464 9.24 3.5 12 3.5c2.761 0 4.723.964 6.007 2.439C19.308 7.434 20 9.556 20 12s-.692 4.566-1.993 6.061C16.723 19.536 14.76 20.5 12 20.5c-2.761 0-4.723-.964-6.007-2.439C4.692 16.566 4 14.444 4 12zm8-10.5c-3.268 0-5.807 1.163-7.515 3.126C2.794 6.569 2 9.197 2 12s.794 5.431 2.485 7.374C6.193 21.337 8.732 22.5 12 22.5s5.807-1.163 7.515-3.126C21.206 17.431 22 14.803 22 12s-.794-5.431-2.485-7.374C17.807 2.663 15.268 1.5 12 1.5zM10 12c0-2.305.253-3.74.651-4.57.19-.395.394-.61.582-.734.185-.12.425-.196.767-.196s.582.076.767.196c.188.123.392.34.582.735C13.747 8.26 14 9.695 14 12s-.253 3.74-.651 4.57c-.19.395-.394.61-.582.734-.185.12-.425.196-.767.196s-.582-.076-.767-.196c-.188-.123-.392-.34-.582-.735C10.253 15.74 10 14.305 10 12zm2-7.5c-.658 0-1.293.152-1.858.52-.562.366-.983.899-1.293 1.545C8.247 7.817 8 9.63 8 12c0 2.369.247 4.183.849 5.436.31.645.731 1.178 1.293 1.543.565.369 1.2.521 1.858.521.658 0 1.293-.152 1.858-.52.562-.366.983-.899 1.293-1.544.602-1.253.849-3.067.849-5.436 0-2.369-.247-4.183-.849-5.435-.31-.646-.731-1.179-1.293-1.544-.565-.369-1.2-.521-1.858-.521z"/></g>
<g transform="translate(888, 72)"><path fill-rule="evenodd" clip-rule="evenodd" d="M3.596 10.718c2.592.215 5.074-.305 7.129-1.48a23.546 23.546 0 0 0-3.609-4.196 8.499 8.499 0 0 0-3.52 5.676zm3.098-7.78A10.495 10.495 0 0 0 1.5 12c0 5.799 4.701 10.5 10.5 10.5S22.5 17.799 22.5 12 17.799 1.5 12 1.5a10.452 10.452 0 0 0-5.306 1.437zM8.98 4.051a25.707 25.707 0 0 1 3.378 4.032 10.189 10.189 0 0 0 2.82-3.97A8.476 8.476 0 0 0 12 3.5a8.48 8.48 0 0 0-3.019.552zm7.961 1.032A12.1 12.1 0 0 1 13.428 9.8c.348.609.671 1.232.968 1.867 1.883-.733 3.92-1.071 6.015-.898a8.497 8.497 0 0 0-3.469-5.685zm3.523 7.698c-1.822-.186-3.62.09-5.292.731a23.24 23.24 0 0 1 1.363 5.677 8.498 8.498 0 0 0 3.928-6.408zm-5.856 7.31a20.961 20.961 0 0 0-1.249-5.715c-2.118 1.217-3.936 3.036-5.199 5.209A8.464 8.464 0 0 0 12 20.5c.91 0 1.787-.143 2.609-.408zm-8.115-1.616c1.464-2.474 3.59-4.572 6.092-5.959a23.983 23.983 0 0 0-.81-1.577c-2.414 1.392-5.3 2.004-8.246 1.779a8.483 8.483 0 0 0 2.964 5.757z"/></g>
<g transform="translate(936, 72)"><path fill-rule="evenodd" clip-rule="evenodd" d="M11.5 8.5c0 .896-.337 1.714-.891 2.333A4.5 4.5 0 0 1 8 19H3.5A1.5 1.5 0 0 1 2 17.5v-12A1.5 1.5 0 0 1 3.5 4h4a4 4 0 0 1 4 4v.5zM4 10V6h3.5a2 2 0 0 1 2 2v.5A1.5 1.5 0 0 1 8 10H4zm0 2h4a2.5 2.5 0 0 1 0 5H4v-5z"/><path d="M15 6a1 1 0 0 1 1-1h3.5a1 1 0 1 1 0 2H16a1 1 0 0 1-1-1z"/><path fill-rule="evenodd" clip-rule="evenodd" d="M17.75 8c-2.841 0-5.25 2.182-5.25 5v1c0 2.818 2.409 5 5.25 5 1.515 0 2.612-.436 3.347-.91.442-.284.789-.63 1.123-1.028a1 1 0 0 0-1.645-1.137 2.252 2.252 0 0 1-.56.484c-.431.277-1.156.591-2.265.591-1.853 0-3.25-1.4-3.25-3H22a1 1 0 0 0 1-1c0-2.818-2.409-5-5.25-5zm3.063 4c-.44-1.141-1.612-2-3.063-2s-2.623.859-3.063 2h6.126z"/></g>
<g transform="translate(24, 120)"><path fill-rule="evenodd" clip-rule="evenodd" d="M12 1a1 1 0 0 1 .874.514l10 18C23.238 20.17 22.75 21 22 21h-6.364a1 1 0 0 1-.85-.475l-4.407-7.139a10 10 0 0 1-.233-10.109l.98-1.763A1 1 0 0 1 12 1zm0 3.06c-1.438 2.588-1.496 5.722.08 8.276L16.195 19h4.107L12 4.06zM9.273 21a1 1 0 0 0 .911-.588c.64-1.812.533-3.77.057-5.612-.436-1.687-1.18-3.598-2.601-4.717a1.01 1.01 0 0 0-1.456.328l-5.058 9.103C.762 20.17 1.25 21 2 21h7.273zm-.969-5.7c-.318-1.235-.727-2.088-1.076-2.651L3.699 19H8.52c.133-.684.239-1.941-.216-3.7z"/></g>
<g transform="translate(72, 120)"><path fill-rule="evenodd" clip-rule="evenodd" d="M11.072.724a2.03 2.03 0 0 1 2.364.37l9.47 9.47a2.03 2.03 0 0 1 0 2.871l-9.47 9.47a2.03 2.03 0 0 1-2.872 0l-9.47-9.47a2.03 2.03 0 0 1 0-2.87l9.47-9.47c.152-.153.324-.276.508-.371zm1.014 1.849a4.153 4.153 0 0 0 .621 5.078l3.642 3.642a1 1 0 0 1 0 1.414L13.357 15.7a6.128 6.128 0 0 1 1.146 3.31l6.988-6.988A.027.027 0 0 0 21.5 12a.034.034 0 0 0-.002-.012.029.029 0 0 0-.007-.01l-9.405-9.405zm-.172 18.854a4.153 4.153 0 0 0-.621-5.078L7.65 12.707a1 1 0 0 1 0-1.414L10.643 8.3A6.129 6.129 0 0 1 9.497 4.99L2.51 11.979a.028.028 0 0 0-.007.01A.032.032 0 0 0 2.5 12l.002.012.007.01 9.405 9.405zM12 9.772L9.772 12 12 14.228 14.228 12 12 9.772z"/></g>
<g transform="translate(120, 120)"><path fill-rule="evenodd" clip-rule="evenodd" d="M15.79 2.013a1 1 0 0 1 1.356-.389l4.837 2.666a1 1 0 0 1 .39 1.363l-1.608 2.885a8.698 8.698 0 0 1-4.796 4.005l5.917 3.261a1 1 0 0 1 .391 1.363l-2.68 4.81a1 1 0 0 1-1.357.388l-6.77-3.732a1.218 1.218 0 0 0-1.652.469L8.21 21.986a1 1 0 0 1-1.356.389L2.017 19.71a1 1 0 0 1-.39-1.363l1.608-2.885a8.698 8.698 0 0 1 4.796-4.005L2.114 8.196a1 1 0 0 1-.391-1.363l2.68-4.81a1 1 0 0 1 1.357-.388l6.771 3.732c.589.325 1.328.11 1.65-.468l1.61-2.886zm1.263 1.843l-1.124 2.016a3.219 3.219 0 0 1-4.363 1.247l-5.9-3.252L3.96 6.929l5.891 3.247c3.26 1.797 7.365.623 9.168-2.612l1.12-2.008-3.085-1.7zm-2.903 9.968c-3.26-1.797-7.365-.623-9.168 2.612l-1.12 2.008 3.086 1.7 1.124-2.016a3.218 3.218 0 0 1 4.363-1.247l5.899 3.252 1.707-3.062-5.891-3.247z"/></g>
<g transform="translate(168, 120)"><path fill-rule="evenodd" clip-rule="evenodd" d="M4.75 5a1 1 0 0 0-.994 1.117l1.53 13a1 1 0 0 0 .992.883h11.448a1 1 0 0 0 .992-.88L19.813 10h-2.578a1 1 0 0 0-.99.859l-.755 5.282a1 1 0 0 1-.99.859h-5a1 1 0 0 1-.99-.859l-1-7A1 1 0 0 1 8.5 8h10l1.546-.006.21-1.882A1 1 0 0 0 19.264 5H4.749zm16.894 4.195c.21-.277.348-.611.389-.978l.211-1.882A3 3 0 0 0 19.263 3H4.749a3 3 0 0 0-2.98 3.35l1.53 13A3 3 0 0 0 6.279 22h11.447a3 3 0 0 0 2.978-2.643l1.095-9.119a1.987 1.987 0 0 0-.155-1.043zM14.406 10H9.653l.714 5h3.266l.632-4.424c.028-.2.076-.392.14-.576z"/></g>
<g transform="translate(216, 120)"><path fill-rule="evenodd" clip-rule="evenodd" d="M21 5.958c.009.607-.067 1.368-.134 1.923a4.163 4.163 0 0 1-.1.544C21.622 10.01 22 11.917 22 14c0 2.468-1.187 4.501-3.036 5.887C17.132 21.26 14.66 22 12 22c-2.66 0-5.132-.74-6.964-2.113C3.187 18.501 2 16.468 2 14c0-2.083.377-3.99 1.235-5.575a4.166 4.166 0 0 1-.1-.544C3.066 7.326 2.99 6.565 3 5.958c.01-.683.1-1.366.199-2.044.046-.314.118-.609.459-.795.348-.19.714-.12 1.075-.017 1.218.345 2.36.83 3.434 1.41C9.3 4.173 10.578 4 12 4c1.422 0 2.7.173 3.832.513a16.802 16.802 0 0 1 3.434-1.41c.361-.103.728-.174 1.075.016.34.186.413.481.46.795.098.678.188 1.361.198 2.044zM20 14c0-1.687-.388-4-2.5-4-.952 0-1.853.25-2.753.5-.899.25-1.797.5-2.747.5s-1.848-.25-2.747-.5c-.9-.25-1.8-.5-2.753-.5C4.394 10 4 12.32 4 14c0 1.764.827 3.231 2.236 4.287C7.66 19.356 9.69 20 12 20s4.339-.645 5.764-1.713C19.173 17.23 20 15.764 20 14zm-10 .5c0 1.38-.672 2.5-1.5 2.5S7 15.88 7 14.5 7.672 12 8.5 12s1.5 1.12 1.5 2.5zm5.5 2.5c.828 0 1.5-1.12 1.5-2.5s-.672-2.5-1.5-2.5-1.5 1.12-1.5 2.5.672 2.5 1.5 2.5z"/></g>
<g transform="translate(264, 120)"><path fill-rule="evenodd" clip-rule="evenodd" d="M4.76 2.413c.452-1.136 2.079-1.077 2.447.089L8.943 8h6.114l1.736-5.498c.368-1.166 1.995-1.225 2.448-.09l2.474 6.218.956 2.404a2 2 0 0 1-.525 2.23l-9.48 8.481a1 1 0 0 1-1.333 0l-9.48-8.481a2 2 0 0 1-.524-2.23l.957-2.404L4.76 2.413zM14.425 10h-4.85L12 17.68 14.425 10zm-4.477 7.822L7.478 10H3.893l-.706 1.773 6.76 6.049zM4.688 8h2.158l-.954-3.023L4.689 8zm9.364 9.822L16.522 10h3.585l.706 1.773-6.76 6.049zM19.312 8h-2.158l.954-3.023L19.311 8z"/></g>
<g transform="translate(312, 120)"><g clip-path="url(#clip0)"><path fill-rule="evenodd" clip-rule="evenodd" d="M11.427 1.18a1 1 0 0 1 1.146 0l10 7A1 1 0 0 1 23 9v7a1 1 0 0 1-.427.82l-10 7a1 1 0 0 1-1.146 0l-10-7A1 1 0 0 1 1 16V9a1 1 0 0 1 .427-.82l10-7zM3 10.92v3.16l2.256-1.58L3 10.92zm4 2.8L3.744 16 11 21.08v-4.56l-4-2.8zm6 2.8v4.56L20.256 16 17 13.72l-4 2.8zm5.744-4.02L21 14.08v-3.16l-2.256 1.58zM20.256 9L17 11.28l-4-2.8V3.92L20.256 9zM11 3.92v4.56l-4 2.8L3.744 9 11 3.92zm1 6.3L8.744 12.5 12 14.78l3.256-2.28L12 10.22z"/></g><defs><clipPath id="clip0"><path d="M0 0h24v24H0z"/></clipPath></defs></g>
<g transform="translate(360, 120)"><path fill-rule="evenodd" clip-rule="evenodd" d="M11 2H9a4 4 0 0 0-2.646 7A3.99 3.99 0 0 0 5 12a3.99 3.99 0 0 0 1.354 3A4 4 0 1 0 13 18v-2.535A4 4 0 0 0 17.646 9 4 4 0 0 0 15 2h-4zm2 2v4h2a2 2 0 1 0 0-4h-2zm-2 6H9a2 2 0 1 0 0 4h2v-4zM9 8h2V4H9a2 2 0 1 0 0 4zm4 4a2 2 0 1 0 4 0 2 2 0 0 0-4 0zm-4 4h2v2a2 2 0 1 1-2-2z"/></g>
<g transform="translate(408, 120)"><path fill-rule="evenodd" clip-rule="evenodd" d="M3.5 11.998a8.498 8.498 0 1 1 16.995 0 8.498 8.498 0 0 1-16.995 0zM11.998 1.5C6.2 1.5 1.5 6.2 1.5 11.998c0 5.797 4.7 10.497 10.498 10.497 5.797 0 10.497-4.7 10.497-10.497 0-5.798-4.7-10.498-10.497-10.498zm-5.41 6.312a1 1 0 0 1 .798-1.169c.6-.1 1.207-.15 1.815-.166 1.071-.028 2.538.045 4.093.462 1.555.416 2.862 1.087 3.776 1.647.515.316 1.027.656 1.488 1.05.413.356.462.998.107 1.411a1 1 0 0 1-1.41.107c-.378-.325-.806-.603-1.23-.863-.804-.493-1.932-1.068-3.249-1.42-1.316-.353-2.58-.42-3.523-.394-.499.013-1.004.045-1.496.132a1 1 0 0 1-1.168-.797zm.983 4.529a1 1 0 0 1-.639-1.895c.502-.17 1.047-.242 1.573-.286.944-.078 2.265-.046 3.826.372 1.561.419 2.721 1.052 3.5 1.591.439.304.855.643 1.22 1.034a1 1 0 0 1-.095 1.411 1.012 1.012 0 0 1-1.41-.092 5.44 5.44 0 0 0-.854-.709c-.616-.426-1.569-.952-2.879-1.303-1.31-.35-2.397-.372-3.144-.31a6.57 6.57 0 0 0-1.098.187zm-1.1 1.839a1 1 0 0 0 .968 1.75c.2-.092.432-.129.648-.156.537-.068 1.442-.07 2.764.284 1.321.354 2.104.808 2.535 1.136.325.247.46.426.482.457.31.437.87.621 1.355.338a1 1 0 0 0 .36-1.368 4.168 4.168 0 0 0-.988-1.02c-.655-.498-1.677-1.06-3.227-1.475-1.549-.415-2.715-.44-3.531-.336a4.17 4.17 0 0 0-1.366.39z"/></g>
<g transform="translate(456, 120)"><path fill-rule="evenodd" clip-rule="evenodd" d="M3.5 12a8.5 8.5 0 1 1 5.573 7.983 222.64 222.64 0 0 0 1.679-4.658c.574.41 1.315.675 2.248.675 1.935 0 3.975-1.275 4.48-3.804C18.117 9.021 15.574 6 12 6c-1.503 0-2.981.604-4.087 1.562C6.805 8.523 6 9.907 6 11.5c0 .775.234 1.638.791 2.206a1.01 1.01 0 0 0 1.416.001 1 1 0 0 0 .022-1.392c-.786-.98.25-2.596.994-3.241C9.996 8.404 11.017 8 12 8c2.427 0 3.884 1.979 3.52 3.804C15.216 13.318 14.064 14 13 14c-.818 0-1.258-.345-1.54-.792.154-.484.285-.924.379-1.282.192-.737.308-1.626-.355-2.179-.493-.41-1.075-.32-1.431-.141C9.39 9.936 9 10.71 9 11.5c0 .441.069 1.125.317 1.832a171.393 171.393 0 0 1-2.038 5.738A8.492 8.492 0 0 1 3.5 12zM12 1.5C6.201 1.5 1.5 6.201 1.5 12S6.201 22.5 12 22.5 22.5 17.799 22.5 12 17.799 1.5 12 1.5z"/></g>
<g transform="translate(504, 120)"><path fill-rule="evenodd" clip-rule="evenodd" d="M7.845 4.775c2.592-.367 5.718-.367 8.31 0 2.355.334 4.18 1.986 4.528 3.766.423 2.155.423 4.763 0 6.918-.349 1.78-2.173 3.432-4.528 3.766-2.592.367-5.719.367-8.31 0-2.355-.334-4.179-1.986-4.528-3.766-.423-2.155-.423-4.763 0-6.918.349-1.78 2.173-3.432 4.528-3.766zm8.59-1.98c-2.777-.393-6.093-.393-8.87 0-3.015.427-5.665 2.578-6.21 5.362-.473 2.409-.473 5.277 0 7.686.545 2.784 3.195 4.935 6.21 5.362 2.777.393 6.093.393 8.87 0 3.015-.427 5.665-2.578 6.21-5.362.473-2.409.473-5.277 0-7.686-.545-2.784-3.195-4.935-6.21-5.362zm-5.88 4.373A1 1 0 0 0 9 8v8a1 1 0 0 0 1.555.832l6-4a1 1 0 0 0 0-1.664l-6-4zM14.197 12L11 14.132V9.869L14.197 12z"/></g>
<g transform="translate(552, 120)"><path fill-rule="evenodd" clip-rule="evenodd" d="M3.5 12a8.5 8.5 0 1 1 17 0 8.5 8.5 0 0 1-17 0zM12 1.5C6.201 1.5 1.5 6.201 1.5 12S6.201 22.5 12 22.5 22.5 17.799 22.5 12 17.799 1.5 12 1.5zM9.957 8.711A1 1 0 0 0 8.6 8.084l-1 .437a1 1 0 0 0 .769 1.846l1.785 5.922a1 1 0 0 0 .957.711c.535-.02 1.044-.255 1.492-.533.76-.47 1.741-1.342 2.88-2.952.89-1.26 1.278-2.378 1.436-3.216.091-.484.126-.975.066-1.465A1 1 0 0 0 15.998 8h-.889a1 1 0 0 0-.168 1.986c-.113.561-.396 1.388-1.093 2.374-.897 1.27-1.619 1.934-2.104 2.278L9.957 8.71z"/></g>
<g transform="translate(600, 120)"><path fill-rule="evenodd" clip-rule="evenodd" d="M2 6a4 4 0 0 1 4-4h12a4 4 0 0 1 4 4v12a4 4 0 0 1-4 4H6a4 4 0 0 1-4-4V6zm4-2a2 2 0 0 0-2 2v12a2 2 0 0 0 2 2h12a2 2 0 0 0 2-2V6a2 2 0 0 0-2-2H6zm6 5a3 3 0 1 0 0 6 3 3 0 0 0 0-6zm-5 3a5 5 0 1 1 10 0 5 5 0 0 1-10 0zm10.5-4a1.5 1.5 0 1 0 0-3 1.5 1.5 0 0 0 0 3z"/></g>
<g transform="translate(648, 120)"><path fill-rule="evenodd" clip-rule="evenodd" d="M2 6a4 4 0 0 1 4-4h12a4 4 0 0 1 4 4v12a4 4 0 0 1-4 4H6a4 4 0 0 1-4-4V6zm4-2a2 2 0 0 0-2 2v12a2 2 0 0 0 2 2h12a2 2 0 0 0 2-2V6a2 2 0 0 0-2-2H6zm6 8.5a3.5 3.5 0 1 1-7 0 3.5 3.5 0 0 1 7 0zm0 0a3.5 3.5 0 1 0 7 0 3.5 3.5 0 0 0-7 0zm2 0a1.5 1.5 0 1 1 3 0 1.5 1.5 0 0 1-3 0z"/></g>
<g transform="translate(696, 120)"><path fill-rule="evenodd" clip-rule="evenodd" d="M3.5 12a8.5 8.5 0 1 1 17 0 8.5 8.5 0 0 1-17 0zM12 1.5C6.201 1.5 1.5 6.201 1.5 12S6.201 22.5 12 22.5 22.5 17.799 22.5 12 17.799 1.5 12 1.5zM11 6a1 1 0 1 0-2 0v1H8a1 1 0 0 0 0 2v6a1 1 0 1 0 0 2h1v1a1 1 0 1 0 2 0v-1h1v1a1 1 0 1 0 2 0v-1h.5a3 3 0 0 0 1.955-5.275A3 3 0 0 0 14 7V6a1 1 0 1 0-2 0v1h-1V6zm2 9h-3v-2h4.5a1 1 0 1 1 0 2H13zm0-6h-3v2h4a1 1 0 1 0 0-2h-1z"/></g>
<g transform="translate(744, 120)"><path fill-rule="evenodd" clip-rule="evenodd" d="M12 1a1 1 0 0 1 .78.375l8 10a1 1 0 0 1 0 1.25l-8 10a1 1 0 0 1-1.56 0l-8-10a1 1 0 0 1 0-1.25l8-10A1 1 0 0 1 12 1zM6.658 12.071L12 14.408l5.342-2.337L12 10.068l-5.342 2.003zm10.028 2.47l-4.285 1.875a1 1 0 0 1-.802 0l-4.285-1.875L12 20.4l4.686-5.858zm.264-4.753l-4.599-1.724a1 1 0 0 0-.702 0L7.05 9.788 12 3.601l4.95 6.187z"/></g>
<g transform="translate(792, 120)"><path fill-rule="evenodd" clip-rule="evenodd" d="M3.5 12a8.5 8.5 0 1 1 17 0 8.5 8.5 0 0 1-17 0zM12 1.5C6.201 1.5 1.5 6.201 1.5 12S6.201 22.5 12 22.5 22.5 17.799 22.5 12 17.799 1.5 12 1.5zm-.024 5.717a1 1 0 1 0-1.952-.434l-.957 4.307-1.383.461a1 1 0 0 0 .632 1.898l.245-.082-.537 2.416A1 1 0 0 0 9 17h6a1 1 0 1 0 0-2h-4.753l.526-2.37 2.043-.681a1 1 0 0 0-.632-1.898l-.905.302.697-3.136z"/></g>
<g transform="translate(840, 120)"><path fill-rule="evenodd" clip-rule="evenodd" d="M15.135 2.507a1.02 1.02 0 0 0-1.378-.369.98.98 0 0 0-.362 1.355l4.219 7.166L11.7 4.861a1.024 1.024 0 0 0-1.428 0 .977.977 0 0 0 0 1.4l5.994 5.879-7.246-4.103a1.02 1.02 0 0 0-1.378.369.98.98 0 0 0 .363 1.354l7.432 4.209-8.174-2.149a1.012 1.012 0 0 0-1.231.71.988.988 0 0 0 .703 1.22L15.3 16H7a1 1 0 1 0 0 2h10a1 1 0 0 0 .62-1.784c.176-.13.31-.317.372-.543a.987.987 0 0 0-.106-.771 1.01 1.01 0 0 0 .485-.422.98.98 0 0 0 .107-.743c.205-.03.403-.124.561-.279a.978.978 0 0 0 .295-.66c.21.028.43-.01.627-.122a.98.98 0 0 0 .363-1.354l-5.19-8.815zM4 17a1 1 0 1 0-2 0v1a4 4 0 0 0 4 4h12a4 4 0 0 0 4-4v-1a1 1 0 1 0-2 0v1a2 2 0 0 1-2 2H6a2 2 0 0 1-2-2v-1z"/></g>
<g transform="translate(888, 120)"><path fill-rule="evenodd" clip-rule="evenodd" d="M6 2a4 4 0 0 0-4 4v12a4 4 0 0 0 4 4h12a4 4 0 0 0 4-4V6a4 4 0 0 0-4-4H6zM4 6a2 2 0 0 1 2-2h12a2 2 0 0 1 2 2v12a2 2 0 0 1-2 2H6a2 2 0 0 1-2-2V6zm5.857 1.486a1 1 0 1 0-1.714 1.029L11 13.276V16a1 1 0 1 0 2 0v-2.723l2.857-4.762a1 1 0 0 0-1.714-1.03L12 11.056l-2.143-3.57z"/></g>
<text x="24" y="192" style="font-size:12px;font-family:sans-serif">Emoji</text>
<g transform="translate(24, 216)"><path fill-rule="evenodd" clip-rule="evenodd" d="M4 12a8 8 0 1 1 16 0 8 8 0 0 1-16 0zm8-10C6.477 2 2 6.477 2 12s4.477 10 10 10 10-4.477 10-10S17.523 2 12 2zM9.967 14.744a1 1 0 0 0-1.937.498C8.469 17 10.283 18 12 18c1.785 0 3.452-1.012 3.97-2.76a1 1 0 0 0-1.937-.496C13.773 15.614 12.84 16 12 16c-.84 0-1.772-.385-2.033-1.256zM10.5 10a1.5 1.5 0 1 1-3 0 1.5 1.5 0 0 1 3 0zm4.5 1.5a1.5 1.5 0 1 0 0-3 1.5 1.5 0 0 0 0 3z"/></g>
<g transform="translate(72, 216)"><path fill-rule="evenodd" clip-rule="evenodd" d="M4 12a8 8 0 1 1 16 0 8 8 0 0 1-16 0zm8-10C6.477 2 2 6.477 2 12s4.477 10 10 10 10-4.477 10-10S17.523 2 12 2zm-3 9.5a1.5 1.5 0 1 0 0-3 1.5 1.5 0 0 0 0 3zm7.5-1.5a1.5 1.5 0 1 1-3 0 1.5 1.5 0 0 1 3 0zM9 17a1 1 0 1 1 0-2h6a1 1 0 1 1 0 2H9z"/></g>
<g transform="translate(120, 216)"><path fill-rule="evenodd" clip-rule="evenodd" d="M4 12a8 8 0 1 1 16 0 8 8 0 0 1-16 0zm8-10C6.477 2 2 6.477 2 12s4.477 10 10 10 10-4.477 10-10S17.523 2 12 2zm2.033 15.256a1 1 0 0 0 1.937-.499C15.531 15.001 13.717 14 12 14c-1.785 0-3.452 1.012-3.97 2.76a1 1 0 0 0 1.937.496C10.227 16.386 11.16 16 12 16c.84 0 1.772.385 2.033 1.256zM10.5 10a1.5 1.5 0 1 1-3 0 1.5 1.5 0 0 1 3 0zm4.5 1.5a1.5 1.5 0 1 0 0-3 1.5 1.5 0 0 0 0 3z"/></g>
<g transform="translate(168, 216)"><path fill-rule="evenodd" clip-rule="evenodd" d="M5.07 8A7.997 7.997 0 0 1 12 4a7.997 7.997 0 0 1 6.93 4H5.07zm-.911 2.406a8 8 0 1 0 15.683 0C19.412 12.293 18.121 14 16 14c-2.268 0-3.59-1.967-3.91-4h-.18c-.32 2.033-1.642 4-3.91 4-2.123 0-3.413-1.708-3.841-3.594zM12 2C6.477 2 2 6.477 2 12s4.477 10 10 10 10-4.477 10-10S17.523 2 12 2zM8.757 15.03a1 1 0 0 1 1.21.714C10.227 16.614 11.16 17 12 17c.84 0 1.772-.385 2.033-1.256a1 1 0 0 1 1.937.496C15.452 17.988 13.785 19 12 19c-1.717 0-3.531-1.001-3.97-2.758a1 1 0 0 1 .727-1.212z"/></g>
<text x="24" y="288" style="font-size:12px;font-family:sans-serif">Media</text>
<g transform="translate(24, 312)"><path fill-rule="evenodd" clip-rule="evenodd" d="M12 5a6 6 0 0 0-5.64 8.051A4.02 4.02 0 0 1 7 13h1a1 1 0 0 1 1 1v6a1 1 0 0 1-1 1H7a4 4 0 0 1-2.474-7.143 8 8 0 1 1 14.949 0A4 4 0 0 1 17 21h-1.001a1 1 0 0 1-1-1v-6a1 1 0 0 1 1-1h1c.218 0 .432.018.64.051A6 6 0 0 0 12 5zM7 15a2 2 0 0 0 0 4v-4zm10 0v4a2 2 0 1 0 0-4z"/></g>
<g transform="translate(72, 312)"><path fill-rule="evenodd" clip-rule="evenodd" d="M10 6a2 2 0 1 1 4 0h-1a1 1 0 1 0 0 2h1v2h-1a1 1 0 1 0 0 2h1v1a2 2 0 1 1-4 0V6zm2-4a4 4 0 0 0-4 4v7a4 4 0 0 0 8 0V6a4 4 0 0 0-4-4zm-5 9a1 1 0 1 0-2 0v2a7.001 7.001 0 0 0 6 6.93V21H8a1 1 0 1 0 0 2h8a1 1 0 1 0 0-2h-3v-1.07A7.001 7.001 0 0 0 19 13v-2a1 1 0 1 0-2 0v2a5 5 0 0 1-10 0v-2z"/></g>
<g transform="translate(120, 312)"><path fill-rule="evenodd" clip-rule="evenodd" d="M16 8a3 3 0 0 0-3-3H4a3 3 0 0 0-3 3v8a3 3 0 0 0 3 3h9a3 3 0 0 0 3-3v-2.057l5.419 3.87A1 1 0 0 0 23 17V7a1 1 0 0 0-1.581-.814L16 10.056V8zm.72 4L21 8.943v6.114L16.72 12zM13 7a1 1 0 0 1 1 1v8a1 1 0 0 1-1 1H4a1 1 0 0 1-1-1V8a1 1 0 0 1 1-1h9z"/></g>
<g transform="translate(168, 312)"><path fill-rule="evenodd" clip-rule="evenodd" d="M14.28 3a2 2 0 0 1 1.897 1.368L16.72 6H19a3 3 0 0 1 3 3v8a3 3 0 0 1-3 3H5a3 3 0 0 1-3-3V9a3 3 0 0 1 3-3h2.28l.543-1.632A2 2 0 0 1 9.721 3h4.558zm0 2H9.72l-.543 1.632A2 2 0 0 1 7.279 8H5a1 1 0 0 0-1 1v8a1 1 0 0 0 1 1h14a1 1 0 0 0 1-1V9a1 1 0 0 0-1-1h-2.28a2 2 0 0 1-1.897-1.368L14.28 5zM9.5 12.5a2.5 2.5 0 1 1 5 0 2.5 2.5 0 0 1-5 0zM12 8a4.5 4.5 0 1 0 0 9 4.5 4.5 0 0 0 0-9z"/></g>
<g transform="translate(216, 312)"><path fill-rule="evenodd" clip-rule="evenodd" d="M16 5H8v14h8V5zM6 4a3 3 0 0 1 3-3h6a3 3 0 0 1 3 3v16a3 3 0 0 1-3 3H9a3 3 0 0 1-3-3V4z"/></g>
<g transform="translate(264, 312)"><path fill-rule="evenodd" clip-rule="evenodd" d="M19 8H5v8h14V8zM1 9a3 3 0 0 1 3-3h16a3 3 0 0 1 3 3v6a3 3 0 0 1-3 3H4a3 3 0 0 1-3-3V9z"/></g>
<g transform="translate(312, 312)"><path fill-rule="evenodd" clip-rule="evenodd" d="M6 4a1 1 0 0 1 1-1h10a1 1 0 0 1 1 1v14a1 1 0 0 1-1 1H7a1 1 0 0 1-1-1V4zm1-3a3 3 0 0 0-3 3v16a3 3 0 0 0 3 3h10a3 3 0 0 0 3-3V4a3 3 0 0 0-3-3H7zm5 21a1 1 0 1 0 0-2 1 1 0 0 0 0 2z"/></g>
<g transform="translate(360, 312)"><path fill-rule="evenodd" clip-rule="evenodd" d="M4 4a3 3 0 0 0-3 3v10a3 3 0 0 0 3 3h16a3 3 0 0 0 3-3V7a3 3 0 0 0-3-3H4zM3 7a1 1 0 0 1 1-1h14a1 1 0 0 1 1 1v10a1 1 0 0 1-1 1H4a1 1 0 0 1-1-1V7zm18 6a1 1 0 1 0 0-2 1 1 0 0 0 0 2z"/></g>
<g transform="translate(408, 312)"><path fill-rule="evenodd" clip-rule="evenodd" d="M6 1a3 3 0 0 0-3 3v13c0 1.306.835 2.418 2 2.83V22a1 1 0 0 0 1 1h12a1 1 0 0 0 1-1v-2.17A3.001 3.001 0 0 0 21 17V4a3 3 0 0 0-3-3H6zm11 19H7v1h10v-1zM6 18h12a1 1 0 0 0 1-1V4a1 1 0 0 0-1-1H6a1 1 0 0 0-1 1v13a1 1 0 0 0 1 1zM7 5.75A.75.75 0 0 1 7.75 5h8.5a.75.75 0 0 1 .75.75v6.5a.75.75 0 0 1-.75.75h-8.5a.75.75 0 0 1-.75-.75v-6.5zM16 16a1 1 0 1 0 0-2 1 1 0 0 0 0 2z"/></g>
<g transform="translate(456, 312)"><path fill-rule="evenodd" clip-rule="evenodd" d="M9.25 2C8.56 2 8 2.56 8 3.25v2.92A3.001 3.001 0 0 0 6 9v6c0 1.306.835 2.418 2 2.83v2.92c0 .69.56 1.25 1.25 1.25h5.5c.69 0 1.25-.56 1.25-1.25v-2.92A3.001 3.001 0 0 0 18 15V9a3.001 3.001 0 0 0-2-2.83V3.25C16 2.56 15.44 2 14.75 2h-5.5zM9 8a1 1 0 0 0-1 1v6a1 1 0 0 0 1 1h6a1 1 0 0 0 1-1V9a1 1 0 0 0-1-1H9z"/></g>
<g transform="translate(504, 312)"><path fill-rule="evenodd" clip-rule="evenodd" d="M8 3a1 1 0 0 0-1 1v16a1 1 0 0 0 1 1h8a1 1 0 0 0 1-1V4a1 1 0 0 0-1-1H8zM5 4a3 3 0 0 1 3-3h8a3 3 0 0 1 3 3v16a3 3 0 0 1-3 3H8a3 3 0 0 1-3-3V4zm3 .5a.5.5 0 0 1 .5-.5h7a.5.5 0 0 1 .5.5v6a.5.5 0 0 1-.5.5h-7a.5.5 0 0 1-.5-.5v-6zM11 16a1 1 0 1 1 2 0 1 1 0 0 1-2 0zm1-3a3 3 0 1 0 0 6 3 3 0 0 0 0-6z"/></g>
<g transform="translate(552, 312)"><path fill-rule="evenodd" clip-rule="evenodd" d="M3 5a3 3 0 0 0-3 3v8a3 3 0 0 0 3 3h18a3 3 0 0 0 3-3V8a3 3 0 0 0-3-3H3zM2 8a1 1 0 0 1 1-1h18a1 1 0 0 1 1 1v8a1 1 0 0 1-1 1H3a1 1 0 0 1-1-1V8zm6 2a1 1 0 1 0-2 0v1H5a1 1 0 1 0 0 2h1v1a1 1 0 1 0 2 0v-1h1a1 1 0 1 0 0-2H8v-1zm8 1.5a1.5 1.5 0 1 1-3 0 1.5 1.5 0 0 1 3 0zm2.5 1.5a1.5 1.5 0 1 0 0-3 1.5 1.5 0 0 0 0 3z"/></g>
<text x="24" y="384" style="font-size:12px;font-family:sans-serif">Misc</text>
<g transform="translate(24, 408)"><path fill-rule="evenodd" clip-rule="evenodd" d="M4 5a1 1 0 0 1 1-1c8.284 0 15 6.716 15 15a1 1 0 1 1-2 0c0-7.18-5.82-13-13-13a1 1 0 0 1-1-1zm0 5a1 1 0 0 1 1-1c5.523 0 10 4.477 10 10a1 1 0 1 1-2 0 8 8 0 0 0-8-8 1 1 0 0 1-1-1zm2.5 10a2.5 2.5 0 1 0 0-5 2.5 2.5 0 0 0 0 5z"/></g>
<g transform="translate(72, 408)"><path fill-rule="evenodd" clip-rule="evenodd" d="M12 4a8 8 0 1 0 3.36 15.262 1 1 0 0 1 .842 1.815A9.966 9.966 0 0 1 12 22C6.477 22 2 17.523 2 12S6.477 2 12 2s10 4.477 10 10v.019c-.042 2.19-.74 3.665-1.767 4.58-1.004.894-2.193 1.138-3.023 1.138-1.192 0-2.239-.62-2.838-1.554-2.076 1.835-5.07 2.239-6.918.185-1.926-2.14-1.389-5.713.666-7.996 1.988-2.209 5.603-3.062 7.678-.506a1 1 0 0 1 1.9.619c-.592 2.076-1.29 4.133-1.813 6.227a1.37 1.37 0 0 0 1.325 1.025c.48 0 1.148-.146 1.693-.631.52-.463 1.062-1.354 1.097-3.115A8 8 0 0 0 12 4zm2.353 8.914c.07-.24.253-.881.467-1.628.233-.82-.07-1.606-.708-2.316-.92-1.021-2.892-1.053-4.505.74-1.623 1.802-1.682 4.191-.666 5.32.919 1.021 2.891 1.053 4.505-.74.373-.414.724-.844.907-1.376z"/></g>
<g transform="translate(120, 408)"><path fill-rule="evenodd" clip-rule="evenodd" d="M9.207 14.793c2.318 2.318 4.471 3.61 6.073 4.328 1.399.627 3.05.135 4.337-1.152l.294-.295-3.536-2.25c-.672.98-1.943 1.555-3.212 1.02-.961-.406-2.233-1.1-3.37-2.237s-1.83-2.409-2.236-3.37c-.536-1.269.038-2.54 1.019-3.212l-2.25-3.536-.295.294C4.744 5.67 4.253 7.321 4.879 8.72c.718 1.602 2.01 3.755 4.328 6.073zm5.256 6.153c-1.815-.813-4.172-2.241-6.67-4.739-2.498-2.497-3.926-4.855-4.74-6.67-1.075-2.4-.093-4.91 1.564-6.568l.294-.295a2 2 0 0 1 3.102.34l2.83 4.45a1 1 0 0 1-.396 1.43l-.633.317c-.432.216-.52.597-.415.848.339.803.906 1.831 1.808 2.734.903.902 1.931 1.469 2.734 1.808.251.106.632.017.848-.415l.317-.633a1 1 0 0 1 1.43-.397l4.45 2.831a2 2 0 0 1 .34 3.102l-.295.294c-1.657 1.658-4.167 2.639-6.568 1.563z"/></g>
<g transform="translate(168, 408)"><path fill-rule="evenodd" clip-rule="evenodd" d="M3 12a9 9 0 0 1 18 0 8.97 8.97 0 0 1-2.636 6.364 1 1 0 1 0 1.414 1.414A10.969 10.969 0 0 0 23 12c0-6.075-4.925-11-11-11S1 5.925 1 12c0 3.037 1.232 5.789 3.222 7.778a1 1 0 0 0 1.414-1.414A8.969 8.969 0 0 1 3 12zm4 0a5 5 0 1 1 8.536 3.536 1 1 0 0 0 1.414 1.414 7 7 0 1 0-9.9 0 1 1 0 1 0 1.414-1.414A4.981 4.981 0 0 1 7 12zm7.5 0a2.5 2.5 0 1 1-5 0 2.5 2.5 0 0 1 5 0zm-4.827 5.494a2.332 2.332 0 1 1 4.654 0l-.322 4.636a2.01 2.01 0 0 1-4.01 0l-.322-4.636z"/></g>
<g transform="translate(216, 408)"><path fill-rule="evenodd" clip-rule="evenodd" d="M14 5a1 1 0 1 0 0 2 1 1 0 0 0 0-2zm-3 1a3 3 0 1 1 1.707 2.707l-2 2c.188.391.293.83.293 1.293 0 .463-.105.902-.293 1.293l2 2a3 3 0 1 1-1.414 1.414l-2-2a3 3 0 1 1 0-5.415l2-1.999A2.99 2.99 0 0 1 11 6zm-3 5a1 1 0 1 0 0 2 1 1 0 0 0 0-2zm6 6a.994.994 0 0 0-.707.293A1 1 0 1 0 14 17z"/></g>
<g transform="translate(264, 408)"><path fill-rule="evenodd" clip-rule="evenodd" d="M2 5a3 3 0 0 1 3-3h14a3 3 0 0 1 3 3v14a3 3 0 0 1-3 3H5a3 3 0 0 1-3-3V5zm3-1a1 1 0 0 0-1 1v5h16V5a1 1 0 0 0-1-1H5zm-1 8v7a1 1 0 0 0 1 1h14a1 1 0 0 0 1-1v-7H4zm10 1a1 1 0 0 1 .707.293l4 4a1 1 0 0 1-1.414 1.414L14 15.414l-2.293 2.293-1 1a1 1 0 0 1-1.414-1.414L9.586 17 9 16.414l-2.293 2.293a1 1 0 0 1-1.414-1.414l3-3a1 1 0 0 1 1.414 0L11 15.586l2.293-2.293A1 1 0 0 1 14 13zm-3-6a1 1 0 0 1 1-1h5a1 1 0 1 1 0 2h-5a1 1 0 0 1-1-1zM7 8.75a1.75 1.75 0 1 0 0-3.5 1.75 1.75 0 0 0 0 3.5z"/></g>
<text x="24" y="480" style="font-size:12px;font-family:sans-serif">Outdoors</text>
<g transform="translate(24, 504)"><path fill-rule="evenodd" clip-rule="evenodd" d="M5.22 4.375A1 1 0 0 1 6 4h12a1 1 0 0 1 .78.375l4 5a1 1 0 0 1-.04 1.298l-10 11a1 1 0 0 1-1.48 0l-10-11a1 1 0 0 1-.04-1.298l4-5zM6.48 6l-2.4 3h3.44l2.4-3H6.48zm5.52.6L10.08 9h3.84L12 6.6zm2.572 4.4H9.428L12 18.074 14.572 11zm-5.246 5.572L7.3 11H4.26l5.066 5.572zm5.348 0L16.7 11h3.04l-5.066 5.572zM19.92 9h-3.438l-2.4-3h3.438l2.4 3z"/></g>
<text x="24" y="576" style="font-size:12px;font-family:sans-serif">Settings</text>
<g transform="translate(24, 600)"><g clip-path="url(#clip0)"><path fill-rule="evenodd" clip-rule="evenodd" d="M12.52 4.046a3 3 0 0 0-2.13 5.486 1 1 0 0 1 .306 1.38l-3.922 6.163a2 2 0 1 1-1.688-1.073l3.44-5.405a5 5 0 1 1 8.398-2.728 1 1 0 1 1-1.97-.348 3 3 0 0 0-2.433-3.475zM10 7a2 2 0 1 1 3.774.925l3.44 5.405a5 5 0 1 1-1.427 8.5 1 1 0 0 1 1.285-1.532 3 3 0 1 0 .317-4.83 1 1 0 0 1-1.38-.307l-3.923-6.163A2 2 0 0 1 10 7zm-5.428 6.9a1 1 0 0 1-.598 1.281A3 3 0 1 0 8.001 18a1 1 0 0 1 1-1h8.266a2 2 0 1 1 0 2H9.9a5 5 0 1 1-6.61-5.698 1 1 0 0 1 1.283.597z"/></g><defs><clipPath id="clip0"><path d="M0 0h24v24H0z"/></clipPath></defs></g>
</svg>