<svg width="24" height="24" fill="none" xmlns="http://www.w3.org/2000/svg"><path fill-rule="evenodd" clip-rule="evenodd" d="M4 12a8 8 0 0 1 15.999-.147c.222.136.415.3.578.47A2.66 2.66 0 0 1 22 12.036V12c0-5.523-4.477-10-10-10S2 6.477 2 12s4.477 10 10 10a9.96 9.96 0 0 0 6.426-2.337 1.886 1.886 0 0 1-.242-.213 16.22 16.22 0 0 1-1.11-1.265A8 8 0 0 1 4 12zm16.132 2.837c.08-.448-.479-1.698-1.247-1.834-.923-.163-1.581.44-1.734 1.307-.14.79.204 1.604.643 2.297.445.703 1.03 1.344 1.472 1.805a.398.398 0 0 0 .458.08c.573-.282 1.342-.684 2-1.192.65-.501 1.251-1.15 1.39-1.938.153-.867-.263-1.66-1.186-1.822-.768-.136-1.72.869-1.796 1.297zm-5.542-3.64a1 1 0 1 1-1.084-1.68c.967-.624 2.12-.698 3.37-.255a1 1 0 0 1-.666 1.885c-.793-.28-1.276-.171-1.62.05zM10.5 10a1.5 1.5 0 1 1-3 0 1.5 1.5 0 0 1 3 0zm.5 8.5c.117.459.5.5 1 .5 1 0 2.218-.326 2.62-.676.733-.635.521-1.896-1.62-2.325 2.141-.428 2.353-1.626 1.62-2.261C14.227 13.395 13 13 12 13c-.5 0-.884.043-1 .496-.101.399.366.543.816.682.286.088.565.174.684.322.64.793-1.5 1.5-1.5 1.5s2.145.707 1.5 1.5c-.12.148-.4.234-.686.322-.449.139-.915.282-.814.678z" fill="#000"/></svg>