<svg width="24" height="24" fill="none" xmlns="http://www.w3.org/2000/svg"><path fill-rule="evenodd" clip-rule="evenodd" d="M4 12a8 8 0 1 1 16 0 8 8 0 0 1-16 0zm8-10C6.477 2 2 6.477 2 12s4.477 10 10 10 10-4.477 10-10S17.523 2 12 2zM8.03 15.242A1.012 1.012 0 0 1 9 14h6c.633 0 1.126.617.97 1.24C15.452 16.988 13.785 18 12 18c-1.717 0-3.531-1.001-3.97-2.758zm9.364-6.69a1 1 0 0 0-1.341-.446l-3 1.5a1 1 0 0 0 0 1.788l3 1.5a1 1 0 1 0 .894-1.788l-1.21-.606 1.21-.606a1 1 0 0 0 .447-1.341zm-9.447-.446a1 1 0 0 0-.894 1.788l1.21.606-1.21.606a1 1 0 1 0 .894 1.788l3-1.5a1 1 0 0 0 0-1.788l-3-1.5z" fill="#000"/></svg>