<svg width="24" height="24" viewBox="0 0 24 24" fill="none" xmlns="http://www.w3.org/2000/svg">
<path fill-rule="evenodd" clip-rule="evenodd" d="M3 12C3 7.02944 7.02944 3 12 3C16.9706 3 21 7.02944 21 12C21 16.9706 16.9706 21 12 21C7.02944 21 3 16.9706 3 12ZM12 1C5.92487 1 1 5.92487 1 12C1 18.0751 5.92487 23 12 23C18.0751 23 23 18.0751 23 12C23 5.92487 18.0751 1 12 1ZM10.7071 6.29289C10.3166 5.90237 9.68342 5.90237 9.29289 6.29289C8.90237 6.68342 8.90237 7.31658 9.29289 7.70711L13.5858 12L9.29289 16.2929C8.90237 16.6834 8.90237 17.3166 9.29289 17.7071C9.68342 18.0976 10.3166 18.0976 10.7071 17.7071L15.7071 12.7071C16.0976 12.3166 16.0976 11.6834 15.7071 11.2929L10.7071 6.29289Z" fill="black"/>
</svg>
