<svg width="24" height="24" viewBox="0 0 24 24" fill="none" xmlns="http://www.w3.org/2000/svg">
<path fill-rule="evenodd" clip-rule="evenodd" d="M3 12C3 7.02944 7.02944 3 12 3C16.9706 3 21 7.02944 21 12C21 16.9706 16.9706 21 12 21C7.02944 21 3 16.9706 3 12ZM12 1C5.92487 1 1 5.92487 1 12C1 18.0751 5.92487 23 12 23C18.0751 23 23 18.0751 23 12C23 5.92487 18.0751 1 12 1ZM12.7071 6.29289C12.5196 6.10536 12.2652 6 12 6C11.7348 6 11.4804 6.10536 11.2929 6.29289L6.29289 11.2929C5.90237 11.6834 5.90237 12.3166 6.29289 12.7071C6.68342 13.0976 7.31658 13.0976 7.70711 12.7071L11 9.41422V17C11 17.5523 11.4477 18 12 18C12.5523 18 13 17.5523 13 17V9.41422L16.2929 12.7071C16.6834 13.0976 17.3166 13.0976 17.7071 12.7071C18.0976 12.3166 18.0976 11.6834 17.7071 11.2929L12.7071 6.29289Z" fill="black"/>
</svg>
