<svg width="24" height="24" viewBox="0 0 24 24" fill="none" xmlns="http://www.w3.org/2000/svg">
<path fill-rule="evenodd" clip-rule="evenodd" d="M3 12C3 7.02944 7.02944 3 12 3C16.9706 3 21 7.02944 21 12C21 16.9706 16.9706 21 12 21C7.02944 21 3 16.9706 3 12ZM12 1C5.92487 1 1 5.92487 1 12C1 18.0751 5.92487 23 12 23C18.0751 23 23 18.0751 23 12C23 5.92487 18.0751 1 12 1ZM14.7071 7.70711C15.0976 7.31658 15.0976 6.68342 14.7071 6.29289C14.3166 5.90237 13.6834 5.90237 13.2929 6.29289L8.29289 11.2929C7.90237 11.6834 7.90237 12.3166 8.29289 12.7071L13.2929 17.7071C13.6834 18.0976 14.3166 18.0976 14.7071 17.7071C15.0976 17.3166 15.0976 16.6834 14.7071 16.2929L10.4142 12L14.7071 7.70711Z" fill="black"/>
</svg>
