<svg width="24" height="24" viewBox="0 0 24 24" fill="none" xmlns="http://www.w3.org/2000/svg">
<path fill-rule="evenodd" clip-rule="evenodd" d="M12.7071 4.29289C12.5196 4.10536 12.2652 4 12 4C11.7348 4 11.4804 4.10536 11.2929 4.29289L4.29289 11.2929C3.90237 11.6834 3.90237 12.3166 4.29289 12.7071C4.68342 13.0976 5.31658 13.0976 5.70711 12.7071L12 6.41421L18.2929 12.7071C18.6834 13.0976 19.3166 13.0976 19.7071 12.7071C20.0976 12.3166 20.0976 11.6834 19.7071 11.2929L12.7071 4.29289ZM12.7071 10.2929C12.5196 10.1054 12.2652 10 12 10C11.7348 10 11.4804 10.1054 11.2929 10.2929L4.29289 17.2929C3.90237 17.6834 3.90237 18.3166 4.29289 18.7071C4.68342 19.0976 5.31658 19.0976 5.70711 18.7071L12 12.4142L18.2929 18.7071C18.6834 19.0976 19.3166 19.0976 19.7071 18.7071C20.0976 18.3166 20.0976 17.6834 19.7071 17.2929L12.7071 10.2929Z" fill="black"/>
</svg>
