<svg width="24" height="24" viewBox="0 0 24 24" fill="none" xmlns="http://www.w3.org/2000/svg">
<path fill-rule="evenodd" clip-rule="evenodd" d="M6.70711 4.29289C6.31658 3.90237 5.68342 3.90237 5.29289 4.29289C4.90237 4.68342 4.90237 5.31658 5.29289 5.70711L11.5858 12L5.29289 18.2929C4.90237 18.6834 4.90237 19.3166 5.29289 19.7071C5.68342 20.0976 6.31658 20.0976 6.70711 19.7071L13.7071 12.7071C14.0976 12.3166 14.0976 11.6834 13.7071 11.2929L6.70711 4.29289ZM12.7071 4.29289C12.3166 3.90237 11.6834 3.90237 11.2929 4.29289C10.9024 4.68342 10.9024 5.31658 11.2929 5.70711L17.5858 12L11.2929 18.2929C10.9024 18.6834 10.9024 19.3166 11.2929 19.7071C11.6834 20.0976 12.3166 20.0976 12.7071 19.7071L19.7071 12.7071C20.0976 12.3166 20.0976 11.6834 19.7071 11.2929L12.7071 4.29289Z" fill="black"/>
</svg>
