<svg width="24" height="24" viewBox="0 0 24 24" fill="none" xmlns="http://www.w3.org/2000/svg">
<path fill-rule="evenodd" clip-rule="evenodd" d="M12.7071 5.70711C13.0976 5.31658 13.0976 4.68342 12.7071 4.29289C12.3166 3.90237 11.6834 3.90237 11.2929 4.29289L4.29289 11.2929C4.10536 11.4804 4 11.7348 4 12C4 12.2652 4.10536 12.5196 4.29289 12.7071L11.2929 19.7071C11.6834 20.0976 12.3166 20.0976 12.7071 19.7071C13.0976 19.3166 13.0976 18.6834 12.7071 18.2929L6.41421 12L12.7071 5.70711ZM18.7071 5.70711C19.0976 5.31658 19.0976 4.68342 18.7071 4.29289C18.3166 3.90237 17.6834 3.90237 17.2929 4.29289L10.2929 11.2929C10.1054 11.4804 10 11.7348 10 12C10 12.2652 10.1054 12.5196 10.2929 12.7071L17.2929 19.7071C17.6834 20.0976 18.3166 20.0976 18.7071 19.7071C19.0976 19.3166 19.0976 18.6834 18.7071 18.2929L12.4142 12L18.7071 5.70711Z" fill="black"/>
</svg>
