<svg width="24" height="24" viewBox="0 0 24 24" fill="none" xmlns="http://www.w3.org/2000/svg">
<path fill-rule="evenodd" clip-rule="evenodd" d="M5.70711 5.29289C5.31658 4.90237 4.68342 4.90237 4.29289 5.29289C3.90237 5.68342 3.90237 6.31658 4.29289 6.70711L11.2929 13.7071C11.6834 14.0976 12.3166 14.0976 12.7071 13.7071L19.7071 6.70711C20.0976 6.31658 20.0976 5.68342 19.7071 5.29289C19.3166 4.90237 18.6834 4.90237 18.2929 5.29289L12 11.5858L5.70711 5.29289ZM5.70711 11.2929C5.31658 10.9024 4.68342 10.9024 4.29289 11.2929C3.90237 11.6834 3.90237 12.3166 4.29289 12.7071L11.2929 19.7071C11.6834 20.0976 12.3166 20.0976 12.7071 19.7071L19.7071 12.7071C20.0976 12.3166 20.0976 11.6834 19.7071 11.2929C19.3166 10.9024 18.6834 10.9024 18.2929 11.2929L12 17.5858L5.70711 11.2929Z" fill="black"/>
</svg>
