<svg width="24" height="24" fill="none" xmlns="http://www.w3.org/2000/svg"><path fill-rule="evenodd" clip-rule="evenodd" d="M11 3a3 3 0 00-3 3v1a3 3 0 003 3v1H9a3 3 0 00-3 3 3 3 0 00-3 3v1a3 3 0 003 3h2a3 3 0 003-3v-1a3 3 0 00-3-3 1 1 0 011-1h6a1 1 0 011 1 3 3 0 00-3 3v1a3 3 0 003 3h2a3 3 0 003-3v-1a3 3 0 00-3-3 3 3 0 00-3-3h-2v-1a3 3 0 003-3V6a3 3 0 00-3-3h-2zm6 13h-1a1 1 0 00-1 1v1a1 1 0 001 1h2a1 1 0 001-1v-1a1 1 0 00-1-1h-1zM7 16H6a1 1 0 00-1 1v1a1 1 0 001 1h2a1 1 0 001-1v-1a1 1 0 00-1-1H7zm5-8h1a1 1 0 001-1V6a1 1 0 00-1-1h-2a1 1 0 00-1 1v1a1 1 0 001 1h1z" fill="#000"/></svg>