<svg width="24" height="24" fill="none" xmlns="http://www.w3.org/2000/svg"><path fill-rule="evenodd" clip-rule="evenodd" d="M10 1a1 1 0 0 0-.707.293l-6 6A1 1 0 0 0 3 8v12a3 3 0 0 0 3 3h5a1 1 0 1 0 0-2H6a1 1 0 0 1-1-1V9h5a1 1 0 0 0 1-1V3h7a1 1 0 0 1 1 1v4a1 1 0 1 0 2 0V4a3 3 0 0 0-3-3h-8zM9 7H6.414L9 4.414V7zm4.51 4a1 1 0 0 0-.832.444l-2.51 3.75a1 1 0 0 0 .11 1.248l6 6.25a1 1 0 0 0 1.443 0l6-6.25a1 1 0 0 0 .11-1.248l-2.509-3.75a1 1 0 0 0-.831-.444h-6.982zm-1.232 4.638L14.043 13h5.914l1.765 2.638L17 20.556l-4.722-4.918z" fill="#000"/></svg>