<svg width="24" height="24" fill="none" xmlns="http://www.w3.org/2000/svg"><path fill-rule="evenodd" clip-rule="evenodd" d="M21.5 4A2.5 2.5 0 0 0 19 6.5v12a2.5 2.5 0 0 0 5 0v-12A2.5 2.5 0 0 0 21.5 4zM21 6.5a.5.5 0 0 1 1 0v12a.5.5 0 0 1-1 0v-12zM15.5 8a2.5 2.5 0 0 0-2.5 2.5v8a2.5 2.5 0 0 0 5 0v-8A2.5 2.5 0 0 0 15.5 8zm-.5 2.5a.5.5 0 0 1 1 0v8a.5.5 0 0 1-1 0v-8zm-8 4a2.5 2.5 0 0 1 5 0v4a2.5 2.5 0 0 1-5 0v-4zm2.5-.5a.5.5 0 0 0-.5.5v4a.5.5 0 0 0 1 0v-4a.5.5 0 0 0-.5-.5zm-6 2a2.5 2.5 0 1 0 0 5 2.5 2.5 0 0 0 0-5zM3 18.5a.5.5 0 1 1 1 0 .5.5 0 0 1-1 0z" fill="#000"/></svg>