<svg width="24" height="24" fill="none" xmlns="http://www.w3.org/2000/svg"><path fill-rule="evenodd" clip-rule="evenodd" d="M20.5 4A2.5 2.5 0 0018 6.5v12a2.5 2.5 0 005 0v-12A2.5 2.5 0 0020.5 4zM20 6.5a.5.5 0 011 0v12a.5.5 0 01-1 0v-12zM14.5 8a2.5 2.5 0 00-2.5 2.5v8a2.5 2.5 0 005 0v-8A2.5 2.5 0 0014.5 8zm-.5 2.5a.5.5 0 011 0v8a.5.5 0 01-1 0v-8zm-8 4a2.5 2.5 0 015 0v4a2.5 2.5 0 01-5 0v-4zm2.5-.5a.5.5 0 00-.5.5v4a.5.5 0 001 0v-4a.5.5 0 00-.5-.5zm-6 2a2.5 2.5 0 100 5 2.5 2.5 0 000-5zM2 18.5a.5.5 0 111 0 .5.5 0 01-1 0z" fill="#000"/></svg>