<svg width="24" height="24" fill="none" xmlns="http://www.w3.org/2000/svg"><path fill-rule="evenodd" clip-rule="evenodd" d="M13 3.498a1 1 0 10-2 0V4a1 1 0 102 0v-.502zm5.719 3.197a1 1 0 00-1.414-1.414l-.355.355a1 1 0 001.414 1.414l.355-.355zM6.695 5.281a1 1 0 00-1.414 1.414l.355.355A1 1 0 007.05 5.636l-.355-.355zM3.498 11a1 1 0 100 2H4a1 1 0 100-2h-.502zM20 11a1 1 0 100 2h.502a1 1 0 100-2H20zM7.05 18.364a1 1 0 10-1.414-1.414l-.355.355a1 1 0 101.414 1.414l.355-.355zm11.314-1.414a1 1 0 10-1.414 1.414l.355.355a1 1 0 101.414-1.414l-.355-.355zM13 20a1 1 0 10-2 0v.502a1 1 0 102 0V20zm-5-8a4 4 0 118 0 4 4 0 01-8 0zm4-6a6 6 0 100 12 6 6 0 000-12z" fill="#000"/></svg>