<svg width="24" height="24" fill="none" xmlns="http://www.w3.org/2000/svg"><path fill-rule="evenodd" clip-rule="evenodd" d="M13 3.498a1 1 0 1 0-2 0V4a1 1 0 1 0 2 0v-.502zm5.719 3.197a1 1 0 0 0-1.414-1.414l-.355.355a1 1 0 0 0 1.414 1.414l.355-.355zM6.695 5.281a1 1 0 0 0-1.414 1.414l.355.355A1 1 0 0 0 7.05 5.636l-.355-.355zM3.498 11a1 1 0 1 0 0 2H4a1 1 0 1 0 0-2h-.502zM20 11a1 1 0 1 0 0 2h.502a1 1 0 1 0 0-2H20zM7.05 18.364a1 1 0 1 0-1.414-1.414l-.355.355a1 1 0 1 0 1.414 1.414l.355-.355zm11.314-1.414a1 1 0 1 0-1.414 1.414l.355.355a1 1 0 1 0 1.414-1.414l-.355-.355zM13 20a1 1 0 1 0-2 0v.502a1 1 0 1 0 2 0V20zm-5-8a4 4 0 1 1 8 0 4 4 0 0 1-8 0zm4-6a6 6 0 1 0 0 12 6 6 0 0 0 0-12z" fill="#000"/></svg>