<svg width="24" height="24" fill="none" xmlns="http://www.w3.org/2000/svg"><path fill-rule="evenodd" clip-rule="evenodd" d="M1 9c0-1.605 1.246-3 2.895-3h14.21C19.755 6 21 7.395 21 9h1a2 2 0 0 1 2 2v2a2 2 0 0 1-2 2h-1c0 1.605-1.246 3-2.895 3H3.895C2.245 18 1 16.605 1 15V9zm18 0v6c0 .604-.45 1-.895 1H3.895C3.45 16 3 15.604 3 15V9c0-.604.45-1 .895-1h14.21c.444 0 .895.396.895 1zm2 2v2h1v-2h-1zm-9.007-.831a1 1 0 1 0-1.486-1.338l-2.25 2.5A1 1 0 0 0 9 13h.755l-.748.831a1 1 0 0 0 1.486 1.338l2.25-2.5A1 1 0 0 0 12 11h-.755l.748-.831z" fill="#000"/></svg>