<svg width="24" height="24" fill="none" xmlns="http://www.w3.org/2000/svg"><path fill-rule="evenodd" clip-rule="evenodd" d="M10 5a3 3 0 1 0 0 6 3 3 0 0 0 0-6zm5 3a4.985 4.985 0 0 1-1.494 3.565 8.001 8.001 0 0 1 2.085 1.085 1 1 0 0 1-1.182 1.612C13.406 13.528 11.921 13 10 13c-4.07 0-6 2.27-6 4a1 1 0 1 1-2 0c0-2.374 1.75-4.463 4.5-5.43A5 5 0 1 1 15 8zm3.293 13.293a1 1 0 0 0 1.414 1.414l3-3a1 1 0 0 0 0-1.414l-3-3a1 1 0 0 0-1.414 1.414L19.586 18H15a1 1 0 1 0 0 2h4.586l-1.293 1.293z" fill="#000"/></svg>