<svg width="24" height="24" fill="none" xmlns="http://www.w3.org/2000/svg"><path fill-rule="evenodd" clip-rule="evenodd" d="M12.447 1.106a1 1 0 0 0-.894 0l-7 3.5a1 1 0 0 0 0 1.788l2.033 1.017A5.98 5.98 0 0 0 6 10c0 1.86.847 3.523 2.176 4.623C4.984 15.746 3 18.247 3 21a1 1 0 1 0 2 0c0-2.27 2.355-5 7-5s7 2.73 7 5a1 1 0 1 0 2 0c0-2.753-1.984-5.254-5.176-6.377A5.988 5.988 0 0 0 18 10a5.98 5.98 0 0 0-.586-2.589l2.033-1.017a1 1 0 0 0 0-1.788l-7-3.5zM12 14a4 4 0 0 0 3.625-5.694l-3.178 1.588a1 1 0 0 1-.894 0L8.375 8.306A4 4 0 0 0 12 14zM8.447 6.105L7.237 5.5 12 3.118 16.764 5.5l-1.21.605L12 7.882 8.447 6.105z" fill="#000"/></svg>