<svg width="24" height="24" fill="none" xmlns="http://www.w3.org/2000/svg"><path fill-rule="evenodd" clip-rule="evenodd" d="M10 5a3 3 0 1 0 0 6 3 3 0 0 0 0-6zm3.506 6.565a5 5 0 1 0-7.007.005C3.75 12.537 2 14.626 2 17a1 1 0 1 0 2 0c0-1.73 1.93-4 6-4 1.954 0 3.455.545 4.458 1.3a1 1 0 0 0 1.202-1.6 7.966 7.966 0 0 0-2.154-1.135zm-.213 3.728a1 1 0 0 1 1.414 0L17 17.586l2.293-2.293a1 1 0 0 1 1.414 1.414L18.414 19l2.293 2.293a1 1 0 0 1-1.414 1.414L17 20.414l-2.293 2.293a1 1 0 0 1-1.414-1.414L15.586 19l-2.293-2.293a1 1 0 0 1 0-1.414z" fill="#000"/></svg>