<svg width="24" height="24" fill="none" xmlns="http://www.w3.org/2000/svg"><path fill-rule="evenodd" clip-rule="evenodd" d="M10 5a3 3 0 1 0 0 6 3 3 0 0 0 0-6zm3.506 6.565a5 5 0 1 0-7.007.005C3.75 12.537 2 14.626 2 17a1 1 0 1 0 2 0c0-1.73 1.93-4 6-4 1.081 0 2.025.167 2.822.444a1 1 0 0 0 .684-1.879zm3.981 3.165c.195-.356.737-.73 1.515-.73 1.11 0 1.608.683 1.608 1.083 0 .4-.499 1.084-1.608 1.084a1 1 0 0 0-1 1V18a1 1 0 0 0 1.999.043c1.401-.35 2.609-1.418 2.609-2.96 0-1.9-1.837-3.083-3.608-3.083-1.362 0-2.659.654-3.27 1.77a1 1 0 1 0 1.755.96zM19 22a1.25 1.25 0 1 0 0-2.5 1.25 1.25 0 0 0 0 2.5z" fill="#000"/></svg>