<svg width="24" height="24" fill="none" xmlns="http://www.w3.org/2000/svg"><path fill-rule="evenodd" clip-rule="evenodd" d="M18.677 5.263c-.186-.178-1.55-1.454-3.478-2.216-1.873-.74-4.38-1.022-6.783.75-1.295-.128-2.344.183-3.065.96-.747.807-.937 1.91-.95 2.822-.015.942.155 1.884.317 2.567a13.91 13.91 0 0 0 .284 1.023 6.99 6.99 0 0 0 2.815 5.444c-.656.209-1.257.465-1.796.76-1.517.827-2.65 2.017-2.991 3.384a1 1 0 1 0 1.94.486c.158-.633.776-1.442 2.009-2.115C8.187 18.468 9.894 18 12 18s3.813.469 5.021 1.128c1.233.672 1.85 1.482 2.009 2.115a1 1 0 1 0 1.94-.485c-.342-1.368-1.474-2.558-2.991-3.386-.54-.294-1.14-.55-1.796-.759A6.99 6.99 0 0 0 19 11.076l.09-.591c.26-1.673.473-3.055-.139-4.795a1.093 1.093 0 0 0-.274-.427zM17 11c0-.792-.462-1.513-1.396-2.084C14.662 8.34 13.35 8 12 8c-1.35 0-2.663.34-3.604.916-.933.57-1.395 1.29-1.396 2.082V11a5 5 0 0 0 10 0zM7.354 7.21c-.34.207-.66.446-.95.715A5.808 5.808 0 0 1 6.4 7.61c.011-.735.172-1.227.418-1.493.192-.207.62-.472 1.718-.288a1 1 0 0 0 .802-.215c1.77-1.464 3.595-1.312 5.126-.707 1.288.51 2.287 1.318 2.67 1.655.123.398.187.764.208 1.14a6.08 6.08 0 0 0-.696-.493C15.337 6.41 13.65 6 12 6c-1.65 0-3.337.41-4.646 1.21z" fill="#000"/></svg>