<svg width="24" height="24" fill="none" xmlns="http://www.w3.org/2000/svg"><path fill-rule="evenodd" clip-rule="evenodd" d="M10 5a3 3 0 1 0 0 6 3 3 0 0 0 0-6zm3.506 6.565a5 5 0 1 0-7.007.005C3.75 12.537 2 14.626 2 17a1 1 0 1 0 2 0c0-1.73 1.93-4 6-4 1.223 0 2.27.214 3.127.559a1 1 0 0 0 .746-1.856 8.765 8.765 0 0 0-.367-.138zM16 17c-.618 0-1 .452-1 .867 0 .631.399 1.393 1.161 2.231.554.61 1.22 1.172 1.839 1.651.62-.479 1.285-1.041 1.839-1.65.762-.839 1.161-1.6 1.161-2.232 0-.415-.382-.867-1-.867s-1 .452-1 .867a1 1 0 1 1-2 0c0-.415-.382-.867-1-.867zm2-1.27a3.098 3.098 0 0 0-2-.73c-1.59 0-3 1.22-3 2.867 0 1.401.83 2.64 1.681 3.577.878.965 1.946 1.789 2.728 2.362a1 1 0 0 0 1.183 0c.781-.573 1.85-1.397 2.727-2.362.852-.937 1.681-2.176 1.681-3.577C23 16.22 21.59 15 20 15c-.75 0-1.46.271-2 .73z" fill="#000"/></svg>