<svg width="24" height="24" fill="none" xmlns="http://www.w3.org/2000/svg"><path fill-rule="evenodd" clip-rule="evenodd" d="M11.951 5a5 5 0 0 0-4.95 4.972C9.37 9.36 11.114 7.509 11.95 5zM12 15a5.001 5.001 0 0 1-4.611-3.064c3.298-.803 5.558-3.382 6.539-6.55A5.001 5.001 0 0 1 12 15zm7-4.919V10a7 7 0 1 0-14 .106c-.005.837-.003 2.1-.001 3.291L5 15a1 1 0 0 0 1 1h1.483C5.326 17.082 4 18.933 4 21a1 1 0 1 0 2 0c0-1.73 1.93-4 6-4s6 2.27 6 4a1 1 0 1 0 2 0c0-2.067-1.326-3.918-3.483-5H18a1 1 0 0 0 1-1l.001-1.603v-.002c.002-1.19.004-2.452-.001-3.29v-.024z" fill="#000"/></svg>