<svg width="24" height="24" viewBox="0 0 24 24" fill="none" xmlns="http://www.w3.org/2000/svg">
<path fill-rule="evenodd" clip-rule="evenodd" d="M3 6C3 4.34315 4.34315 3 6 3H18C19.6569 3 21 4.34315 21 6V8C21 8.55228 20.5523 9 20 9V17C20 18.6569 18.6569 20 17 20H7C5.34315 20 4 18.6569 4 17V9C3.44772 9 3 8.55228 3 8V6ZM6 9V17C6 17.5523 6.44772 18 7 18H17C17.5523 18 18 17.5523 18 17V9H6ZM5 7V6C5 5.44772 5.44772 5 6 5H18C18.5523 5 19 5.44772 19 6V7H5ZM9 13C9 12.4477 9.44772 12 10 12H14C14.5523 12 15 12.4477 15 13C15 13.5523 14.5523 14 14 14H10C9.44772 14 9 13.5523 9 13Z" fill="black"/>
</svg>
