<svg width="24" height="24" viewBox="0 0 24 24" fill="none" xmlns="http://www.w3.org/2000/svg">
<path fill-rule="evenodd" clip-rule="evenodd" d="M13.2929 5.29289C13.6834 4.90237 14.3166 4.90237 14.7071 5.29289L18.7071 9.29289C19.0976 9.68342 19.0976 10.3166 18.7071 10.7071L14.7071 14.7071C14.3166 15.0976 13.6834 15.0976 13.2929 14.7071C12.9024 14.3166 12.9024 13.6834 13.2929 13.2929L15.5858 11H13C9.68629 11 7 13.6863 7 17V19C7 19.5523 6.55228 20 6 20C5.44772 20 5 19.5523 5 19V17C5 12.5817 8.58172 9 13 9H15.5858L13.2929 6.70711C12.9024 6.31658 12.9024 5.68342 13.2929 5.29289Z" fill="black"/>
</svg>
