<svg width="24" height="24" viewBox="0 0 24 24" fill="none" xmlns="http://www.w3.org/2000/svg">
<path fill-rule="evenodd" clip-rule="evenodd" d="M6 5C5.44772 5 5 5.44772 5 6V12H9C9.55228 12 10 12.4477 10 13V13.1C10 14.1493 10.8507 15 11.9 15H12.1C13.1493 15 14 14.1493 14 13.1V13C14 12.4477 14.4477 12 15 12H19V6C19 5.44772 18.5523 5 18 5H6ZM19 14H15.8956C15.4893 15.72 13.9441 17 12.1 17H11.9C10.0559 17 8.51066 15.72 8.10436 14H5V18C5 18.5523 5.44772 19 6 19H18C18.5523 19 19 18.5523 19 18V14ZM3 6C3 4.34315 4.34315 3 6 3H18C19.6569 3 21 4.34315 21 6V13V18C21 19.6569 19.6569 21 18 21H6C4.34315 21 3 19.6569 3 18V13V6Z" fill="black"/>
</svg>
