<svg width="24" height="24" viewBox="0 0 24 24" fill="none" xmlns="http://www.w3.org/2000/svg">
<path fill-rule="evenodd" clip-rule="evenodd" d="M9.41421 3C8.88378 3 8.37507 3.21071 8 3.58579L3.58579 8C3.21071 8.37507 3 8.88378 3 9.41421V14.5858C3 15.1162 3.21071 15.6249 3.58579 16L8 20.4142C8.37507 20.7893 8.88378 21 9.41421 21H14.5858C15.1162 21 15.6249 20.7893 16 20.4142L20.4142 16C20.7893 15.6249 21 15.1162 21 14.5858V9.41421C21 8.88378 20.7893 8.37507 20.4142 8L16 3.58579C15.6249 3.21071 15.1162 3 14.5858 3H9.41421ZM9.41421 5H14.5858L19 9.41421V14.5858L14.5858 19H9.41421L5 14.5858L5 9.41421L9.41421 5ZM9.87867 8.46447C9.48815 8.07394 8.85498 8.07394 8.46446 8.46447C8.07394 8.85499 8.07394 9.48816 8.46446 9.87868L10.5858 12L8.46446 14.1213C8.07394 14.5118 8.07394 15.145 8.46446 15.5355C8.85498 15.9261 9.48815 15.9261 9.87867 15.5355L12 13.4142L14.1213 15.5355C14.5118 15.9261 15.145 15.9261 15.5355 15.5355C15.9261 15.145 15.9261 14.5118 15.5355 14.1213L13.4142 12L15.5355 9.87868C15.9261 9.48815 15.9261 8.85499 15.5355 8.46447C15.145 8.07394 14.5118 8.07394 14.1213 8.46447L12 10.5858L9.87867 8.46447Z" fill="black"/>
</svg>
