<svg width="24" height="24" viewBox="0 0 24 24" fill="none" xmlns="http://www.w3.org/2000/svg">
<path fill-rule="evenodd" clip-rule="evenodd" d="M3 4C2.44772 4 2 4.44772 2 5C2 5.55228 2.44772 6 3 6H4V16C4 17.6569 5.34315 19 7 19H17C18.6569 19 20 17.6569 20 16V6H21C21.5523 6 22 5.55228 22 5C22 4.44772 21.5523 4 21 4H19C18.4477 4 18 4.44772 18 5V16C18 16.5523 17.5523 17 17 17H7C6.44772 17 6 16.5523 6 16V5C6 4.44772 5.55228 4 5 4H3ZM9.70711 7.29289C9.31658 6.90237 8.68342 6.90237 8.29289 7.29289C7.90237 7.68342 7.90237 8.31658 8.29289 8.70711L10.5858 11L8.29289 13.2929C7.90237 13.6834 7.90237 14.3166 8.29289 14.7071C8.68342 15.0976 9.31658 15.0976 9.70711 14.7071L12 12.4142L14.2929 14.7071C14.6834 15.0976 15.3166 15.0976 15.7071 14.7071C16.0976 14.3166 16.0976 13.6834 15.7071 13.2929L13.4142 11L15.7071 8.70711C16.0976 8.31658 16.0976 7.68342 15.7071 7.29289C15.3166 6.90237 14.6834 6.90237 14.2929 7.29289L12 9.58579L9.70711 7.29289Z" fill="black"/>
</svg>
