<svg width="24" height="24" viewBox="0 0 24 24" fill="none" xmlns="http://www.w3.org/2000/svg">
<path fill-rule="evenodd" clip-rule="evenodd" d="M19 1C17.3431 1 16 2.34315 16 4H8C4.68629 4 2 6.68629 2 10V17C2 18.6569 3.34315 20 5 20H13H19C20.6569 20 22 18.6569 22 17V10C22 8.32154 21.3108 6.80405 20.2 5.71509C21.2627 5.22352 22 4.14787 22 2.9C22 1.85066 21.1493 1 20.1 1H19ZM16 6H12.4722C13.4223 7.06151 14 8.46329 14 10V18H19C19.5523 18 20 17.5523 20 17V10C20 8.51944 19.1956 7.22675 18 6.53513V11C18 11.5523 17.5523 12 17 12C16.4477 12 16 11.5523 16 11V6ZM18.9 4H18C18 3.44772 18.4477 3 19 3H19.9955C19.945 3.56065 19.4738 4 18.9 4ZM4 10C4 7.79086 5.79086 6 8 6C10.2091 6 12 7.79086 12 10V18H5C4.44772 18 4 17.5523 4 17V10ZM6 10C5.44772 10 5 10.4477 5 11C5 11.5523 5.44772 12 6 12H10C10.5523 12 11 11.5523 11 11C11 10.4477 10.5523 10 10 10H6Z" fill="black"/>
</svg>
