<svg width="24" height="24" viewBox="0 0 24 24" fill="none" xmlns="http://www.w3.org/2000/svg">
<path fill-rule="evenodd" clip-rule="evenodd" d="M2.59414 5.20763C3.13938 4.47657 4.01416 4 5 4H19C19.9858 4 20.8606 4.47657 21.4059 5.20763C21.7788 5.70774 22 6.32949 22 7V16C22 17.6569 20.6569 19 19 19H5C3.34315 19 2 17.6569 2 16V7C2 6.32949 2.22116 5.70774 2.59414 5.20763ZM4.94857 6.00129L11.2698 12.7562C11.665 13.1785 12.335 13.1785 12.7302 12.7562L19.0514 6.00129C19.0344 6.00043 19.0173 6 19 6H5C4.98275 6 4.9656 6.00043 4.94857 6.00129ZM20 7.91471L14.1905 14.1228C13.0049 15.3897 10.9951 15.3897 9.80953 14.1228L4 7.91471V16C4 16.5523 4.44772 17 5 17H19C19.5523 17 20 16.5523 20 16V7.91471Z" fill="black"/>
</svg>
