<svg width="24" height="24" viewBox="0 0 24 24" fill="none" xmlns="http://www.w3.org/2000/svg">
<path fill-rule="evenodd" clip-rule="evenodd" d="M12 3C12.5523 3 13 3.44772 13 4V10.5858L15.2929 8.29289C15.6834 7.90237 16.3166 7.90237 16.7071 8.29289C17.0976 8.68342 17.0976 9.31658 16.7071 9.70711L12.7071 13.7071C12.3166 14.0976 11.6834 14.0976 11.2929 13.7071L7.29289 9.70711C6.90237 9.31658 6.90237 8.68342 7.29289 8.29289C7.68342 7.90237 8.31658 7.90237 8.70711 8.29289L11 10.5858V4C11 3.44772 11.4477 3 12 3ZM5 7C5.55228 7 6 7.44772 6 8V18C6 18.5523 6.44772 19 7 19H17C17.5523 19 18 18.5523 18 18V8C18 7.44772 18.4477 7 19 7C19.5523 7 20 7.44772 20 8V18C20 19.6569 18.6569 21 17 21H7C5.34315 21 4 19.6569 4 18V8C4 7.44772 4.44772 7 5 7Z" fill="black"/>
</svg>
