<svg width="24" height="24" viewBox="0 0 24 24" fill="none" xmlns="http://www.w3.org/2000/svg">
<path fill-rule="evenodd" clip-rule="evenodd" d="M15.2929 5.29289C15.6834 4.90237 16.3166 4.90237 16.7071 5.29289L20.7071 9.29289C21.0976 9.68342 21.0976 10.3166 20.7071 10.7071L16.7071 14.7071C16.3166 15.0976 15.6834 15.0976 15.2929 14.7071C14.9024 14.3166 14.9024 13.6834 15.2929 13.2929L17.5858 11H9.72318L12.8682 16.5039C13.0451 16.8134 13.0438 17.1936 12.8649 17.5019C12.686 17.8102 12.3565 18 12 18H4C3.44772 18 3 17.5523 3 17C3 16.4477 3.44772 16 4 16H10.2768L7.13176 10.4961C6.9549 10.1866 6.95617 9.80639 7.13509 9.49807C7.31401 9.18976 7.64353 9 8 9H17.5858L15.2929 6.70711C14.9024 6.31658 14.9024 5.68342 15.2929 5.29289Z" fill="black"/>
</svg>
