<svg width="24" height="24" viewBox="0 0 24 24" fill="none" xmlns="http://www.w3.org/2000/svg">
<path fill-rule="evenodd" clip-rule="evenodd" d="M7.70711 6.70711C8.09763 6.31658 8.09763 5.68342 7.70711 5.29289C7.31658 4.90237 6.68342 4.90237 6.29289 5.29289L2.29289 9.29289C1.90237 9.68342 1.90237 10.3166 2.29289 10.7071L6.29289 14.7071C6.68342 15.0976 7.31658 15.0976 7.70711 14.7071C8.09763 14.3166 8.09763 13.6834 7.70711 13.2929L4.41421 10L7.70711 6.70711ZM12.7071 6.70711C13.0976 6.31658 13.0976 5.68342 12.7071 5.29289C12.3166 4.90237 11.6834 4.90237 11.2929 5.29289L7.29289 9.29289C6.90237 9.68342 6.90237 10.3166 7.29289 10.7071L11.2929 14.7071C11.6834 15.0976 12.3166 15.0976 12.7071 14.7071C13.0976 14.3166 13.0976 13.6834 12.7071 13.2929L10.4142 11H13C16.3137 11 19 13.6863 19 17V19C19 19.5523 19.4477 20 20 20C20.5523 20 21 19.5523 21 19V17C21 12.5817 17.4183 9 13 9H10.4142L12.7071 6.70711Z" fill="black"/>
</svg>
