<svg width="24" height="24" viewBox="0 0 24 24" fill="none" xmlns="http://www.w3.org/2000/svg">
<path fill-rule="evenodd" clip-rule="evenodd" d="M10.7071 5.29289C11.0976 5.68342 11.0976 6.31658 10.7071 6.70711L8.41421 9H11C15.4183 9 19 12.5817 19 17V19C19 19.5523 18.5523 20 18 20C17.4477 20 17 19.5523 17 19V17C17 13.6863 14.3137 11 11 11H8.41421L10.7071 13.2929C11.0976 13.6834 11.0976 14.3166 10.7071 14.7071C10.3166 15.0976 9.68342 15.0976 9.29289 14.7071L5.29289 10.7071C4.90237 10.3166 4.90237 9.68342 5.29289 9.29289L9.29289 5.29289C9.68342 4.90237 10.3166 4.90237 10.7071 5.29289Z" fill="black"/>
</svg>
