<svg width="24" height="24" viewBox="0 0 24 24" fill="none" xmlns="http://www.w3.org/2000/svg">
<path fill-rule="evenodd" clip-rule="evenodd" d="M5 9C5 7.34315 6.34315 6 8 6H18C19.6569 6 21 7.34315 21 9V15C21 16.6569 19.6569 18 18 18H8C6.34315 18 5 16.6569 5 15H4C2.89543 15 2 14.1046 2 13V11C2 9.89543 2.89543 9 4 9H5ZM4 13H5V11H4V13ZM7 14V10V9C7 8.44772 7.44772 8 8 8H18C18.5523 8 19 8.44772 19 9V15C19 15.5523 18.5523 16 18 16H8C7.44772 16 7 15.5523 7 15V14ZM14.3575 10.0145C14.6416 9.54092 14.4881 8.92666 14.0145 8.64251C13.5409 8.35836 12.9267 8.51192 12.6425 8.9855L11.1425 11.4855C10.9571 11.7944 10.9523 12.1792 11.1298 12.4927C11.3073 12.8062 11.6397 13 12 13H12.2338L11.6425 13.9855C11.3584 14.4591 11.5119 15.0733 11.9855 15.3575C12.4591 15.6416 13.0733 15.4881 13.3575 15.0145L14.8575 12.5145C15.0429 12.2056 15.0477 11.8208 14.8702 11.5073C14.6927 11.1938 14.3603 11 14 11H13.7662L14.3575 10.0145Z" fill="black"/>
</svg>
