<svg width="24" height="24" viewBox="0 0 24 24" fill="none" xmlns="http://www.w3.org/2000/svg">
<path fill-rule="evenodd" clip-rule="evenodd" d="M9 4C9 2.89543 9.89543 2 11 2H13C14.1046 2 15 2.89543 15 4V5C16.6569 5 18 6.34315 18 8V18C18 19.6569 16.6569 21 15 21H9C7.34315 21 6 19.6569 6 18V8C6 6.34315 7.34315 5 9 5V4ZM13 4V5H11V4H13ZM9 7H10H14H15C15.5523 7 16 7.44772 16 8V18C16 18.5523 15.5523 19 15 19H9C8.44772 19 8 18.5523 8 18V8C8 7.44772 8.44772 7 9 7ZM13.8137 10.0812C14.1347 9.63183 14.0307 9.00728 13.5812 8.68627C13.1318 8.36526 12.5073 8.46935 12.1863 8.91876L9.68627 12.4188C9.46854 12.7236 9.43943 13.1245 9.61083 13.4576C9.78224 13.7907 10.1254 14 10.5 14H11.5568L10.1863 15.9188C9.86526 16.3682 9.96935 16.9927 10.4188 17.3137C10.8682 17.6347 11.4927 17.5307 11.8137 17.0812L14.3137 13.5812C14.5315 13.2764 14.5606 12.8755 14.3892 12.5424C14.2178 12.2093 13.8746 12 13.5 12H12.4432L13.8137 10.0812Z" fill="black"/>
</svg>
