<svg width="24" height="24" fill="none" xmlns="http://www.w3.org/2000/svg"><path fill-rule="evenodd" clip-rule="evenodd" d="M6.17 18H4a3 3 0 0 1-3-3V4a3 3 0 0 1 3-3h14a3 3 0 0 1 3 3v3a3 3 0 0 1 3 3v7a3 3 0 0 1-3 3h-2.046l-3.201 3.659a1 1 0 0 1-1.506 0L11.047 20H9a3.001 3.001 0 0 1-2.83-2zM19 7V4a1 1 0 0 0-1-1H4a1 1 0 0 0-1 1v11a1 1 0 0 0 1 1h2v-6a3 3 0 0 1 3-3h10zm-1.253 11.341L15 21.482l-2.747-3.14A1 1 0 0 0 11.5 18H9a1 1 0 0 1-1-1v-7a1 1 0 0 1 1-1h12a1 1 0 0 1 1 1v7a1 1 0 0 1-1 1h-2.5a1 1 0 0 0-.753.341z" fill="#000"/></svg>