<svg width="24" height="24" fill="none" xmlns="http://www.w3.org/2000/svg"><path fill-rule="evenodd" clip-rule="evenodd" d="M11.247 23.659a1 1 0 0 0 1.506 0l3.2-3.659H20a3 3 0 0 0 3-3V3a3 3 0 0 0-3-3H4a3 3 0 0 0-3 3v14a3 3 0 0 0 3 3h4.046l3.201 3.659zm3.5-5.317L12 21.482l-2.747-3.14A1 1 0 0 0 8.5 18H4a1 1 0 0 1-1-1V3a1 1 0 0 1 1-1h16a1 1 0 0 1 1 1v14a1 1 0 0 1-1 1h-4.5a1 1 0 0 0-.753.341zM8 8.476C8 7.67 8.663 7 9.5 7c.838 0 1.5.67 1.5 1.476a1 1 0 1 0 2 0C13 7.67 13.662 7 14.5 7s1.5.67 1.5 1.476c0 .985-.575 2.08-1.536 3.202-.747.872-1.647 1.668-2.464 2.331-.817-.663-1.717-1.459-2.464-2.33C8.575 10.555 8 9.46 8 8.475zM9.5 5c.976 0 1.863.399 2.5 1.043A3.505 3.505 0 0 1 14.5 5C16.424 5 18 6.547 18 8.476c0 1.712-.96 3.27-2.017 4.504-1.077 1.257-2.393 2.335-3.369 3.095a1 1 0 0 1-1.228 0c-.976-.76-2.292-1.838-3.37-3.095C6.96 11.746 6 10.188 6 8.476 6 6.547 7.576 5 9.5 5z" fill="#000"/></svg>