<svg width="24" height="24" fill="none" xmlns="http://www.w3.org/2000/svg"><path fill-rule="evenodd" clip-rule="evenodd" d="M3.735 10.105C3.286 5.517 6.813 1 12 1c5.187 0 8.714 4.517 8.265 9.105l.119-.093a1 1 0 0 1 1.232 1.576l-1.622 1.269a4.94 4.94 0 0 1-.764.491c-.133.235-.28.467-.44.695l-5.97 8.53a1 1 0 0 1-1.64 0l-5.97-8.53a8.714 8.714 0 0 1-.44-.695 4.932 4.932 0 0 1-.764-.491l-1.622-1.27a1 1 0 0 1 1.232-1.575l.119.093zm3.8 3.773l2.13 3.043.92-.921-1.292-1.293a1 1 0 0 1-.099-1.3 4.918 4.918 0 0 1-1.659.47zm2.336-.87a.998.998 0 0 1 .836.285L12 14.586l1.293-1.293a.998.998 0 0 1 .836-.285 4.965 4.965 0 0 1-.281-.212 2.925 2.925 0 0 0-3.696 0 4.975 4.975 0 0 1-.28.212zm4.935.4a1 1 0 0 1-.099 1.3L13.414 16l.92.92 2.13-3.042a4.917 4.917 0 0 1-1.658-.47zm2.973-1.622a2.925 2.925 0 0 1-2.668-.54 4.926 4.926 0 0 0-6.222 0 2.926 2.926 0 0 1-2.668.54C4.461 7.78 7.351 3 12 3s7.54 4.781 5.779 8.786zM12 20.256l-1.17-1.672 1.17-1.17 1.17 1.17L12 20.256z" fill="#000"/></svg>