<svg width="24" height="24" fill="none" xmlns="http://www.w3.org/2000/svg"><path fill-rule="evenodd" clip-rule="evenodd" d="M5.5 2a1 1 0 0 0-.961.725l.96.275-.96-.275-.002.004-.002.01-.011.037a37.466 37.466 0 0 0-.183.667c-.12.446-.282 1.068-.454 1.78-.34 1.41-.729 3.213-.882 4.673-.048.458-.08.95-.1 1.452-.156 3.8 3.06 6.652 6.71 6.652H11v3H8a1 1 0 1 0 0 2h8a1 1 0 1 0 0-2h-3v-3h1.386c3.649 0 6.865-2.852 6.709-6.652-.02-.502-.052-.994-.1-1.452-.153-1.46-.542-3.263-.882-4.673a73.332 73.332 0 0 0-.637-2.447l-.01-.038-.004-.01v-.003L18.5 3l.961-.275A1 1 0 0 0 18.5 2h-13zm.331 3.692A71.21 71.21 0 0 1 6.262 4h11.476c.115.43.269 1.02.43 1.692.337 1.395.699 3.091.837 4.412.043.405.072.854.092 1.326.103 2.513-2.042 4.57-4.711 4.57H9.614c-2.67 0-4.814-2.057-4.71-4.57.018-.472.048-.921.09-1.326.139-1.32.5-3.017.837-4.412zm10.804 2.863a1 1 0 0 1 1.359.82l.131 1.185A4 4 0 0 1 14.149 15H9.895a4 4 0 0 1-3.97-4.493l.083-.66a1 1 0 0 1 .63-.809 19.909 19.909 0 0 1 1.544-.513C9.03 8.278 10.187 8 11.167 8c.99 0 1.705.268 2.344.592.638.324 1.113.468 1.684.388.491-.068.979-.246 1.44-.425zM10 12a1 1 0 1 1-2 0 1 1 0 0 1 2 0z" fill="#000"/></svg>