<svg width="24" height="24" fill="none" xmlns="http://www.w3.org/2000/svg"><path fill-rule="evenodd" clip-rule="evenodd" d="M8 7V4.08c.37.104.853.31 1.4.72.866.65 1.257 1.265 1.436 1.669.091.205.132.365.15.46.01.048.013.08.014.092v.003a1 1 0 0 0 1.103.97l.28-.028C15.91 7.602 19 10.43 19 14c0 1.015-.403 1.99-1.121 2.707l-.586.586A1 1 0 0 0 17 18v3h-1.28l-.139-.419a3.775 3.775 0 0 0-7.162 0l-.14.419H7v-2c0-1.472-1.013-2.674-2.089-3.468A8.432 8.432 0 0 0 2 14.165v-2.547l1.447-.724a1 1 0 0 0 .523-.652C4.33 8.806 5.826 8 7 8a1 1 0 0 0 1-1zm2.6-3.8c-.974-.73-1.873-1.041-2.562-1.159A4.19 4.19 0 0 0 7.2 1.98a3.007 3.007 0 0 0-.373.036l-.012.002-.005.001h-.003v.001c-.001 0-.002 0 .193.981l-.195-.98A1 1 0 0 0 6 3v3.11c-1.517.32-3.172 1.358-3.83 3.187l-1.617.809A1 1 0 0 0 0 11v4a1 1 0 0 0 .894.994c.898.096 1.982.522 2.83 1.148C4.603 17.79 5 18.472 5 19v3a1 1 0 0 0 1 1h3a1 1 0 0 0 .949-.684l.367-1.102a1.775 1.775 0 0 1 3.368 0l.367 1.102A1 1 0 0 0 15 23h3a1 1 0 0 0 1-1v-3.586l.293-.293A5.829 5.829 0 0 0 20.913 15h.568c2.26 0 3.36-2.761 1.72-4.315l-.116-.109a1 1 0 1 0-1.375 1.452l.115.109a.5.5 0 0 1-.344.863h-.543c-.503-4.055-4.023-7.18-8.16-7.063a4.48 4.48 0 0 0-.114-.28c-.32-.722-.93-1.606-2.064-2.457zM7.5 13a1.5 1.5 0 1 0 0-3 1.5 1.5 0 0 0 0 3z" fill="#000"/></svg>