<svg width="24" height="24" fill="none" xmlns="http://www.w3.org/2000/svg"><path fill-rule="evenodd" clip-rule="evenodd" d="M2 6a3 3 0 0 1 3-3h14a3 3 0 0 1 3 3v12a3 3 0 0 1-3 3H5a3 3 0 0 1-3-3V6zm3-1a1 1 0 0 0-1 1v3.586l.172.171a11.07 11.07 0 0 0 5.14 2.912 3 3 0 0 1 5.377 0 11.07 11.07 0 0 0 5.14-2.912L20 9.586V6a1 1 0 0 0-1-1H5zm15 7.266a13.073 13.073 0 0 1-5.075 2.402 3.001 3.001 0 0 1-5.85 0A13.074 13.074 0 0 1 4 12.267V18a1 1 0 0 0 1 1h14a1 1 0 0 0 1-1v-5.734zM12 13a1 1 0 1 0 0 2 1 1 0 0 0 0-2z" fill="#000"/></svg>