<svg width="24" height="24" fill="none" xmlns="http://www.w3.org/2000/svg"><path fill-rule="evenodd" clip-rule="evenodd" d="M3.368 4.368a2.5 2.5 0 0 0 0 3.536l3.182 3.182-2.121 2.121a1 1 0 1 0 1.414 1.414l1.414-1.414 6.01 6.01a1.5 1.5 0 0 0 1.708.294l1.121 1.12a2.5 2.5 0 0 0 3.536-3.535l-1.121-1.12a1.5 1.5 0 0 0-.293-1.708l-6.01-6.01 1.413-1.415a1 1 0 1 0-1.414-1.414L10.086 7.55 6.904 4.368a2.5 2.5 0 0 0-3.536 0zm7.425 5.304l-2.121 2.12 5.717 5.718a1.5 1.5 0 0 1 1.707.293l1.414 1.415a.5.5 0 1 0 .707-.708l-1.414-1.414a1.5 1.5 0 0 1-.293-1.707l-5.717-5.717z" fill="#000"/></svg>