<svg width="24" height="24" fill="none" xmlns="http://www.w3.org/2000/svg"><path fill-rule="evenodd" clip-rule="evenodd" d="M5 4a2 2 0 0 0-1.107 3.666A1 1 0 0 1 4.18 9.04 7.283 7.283 0 0 0 3 13c0 4.322 3.928 8 9 8s9-3.678 9-8a7.283 7.283 0 0 0-1.18-3.96 1 1 0 0 1 .287-1.374 2 2 0 1 0-2.953-2.437 1 1 0 0 1-1.31.536A9.897 9.897 0 0 0 12 5c-1.379 0-2.68.275-3.843.765a1 1 0 0 1-1.31-.536A2 2 0 0 0 5 4zM1 6a4 4 0 0 1 7.208-2.39A11.974 11.974 0 0 1 12 3c1.33 0 2.608.215 3.793.61a4 4 0 1 1 6.148 5.101A9.225 9.225 0 0 1 23 13c0 5.62-5.027 10-11 10S1 18.62 1 13c0-1.537.382-2.992 1.06-4.289A3.987 3.987 0 0 1 1 6zm11 7c-2.259 0-4.172 1.063-5.168 2.555a1 1 0 0 1-1.664-1.11C6.568 12.35 9.131 11 12 11c2.869 0 5.433 1.35 6.832 3.445a1 1 0 0 1-1.664 1.11C16.172 14.063 14.258 13 12 13zm-1 2a1 1 0 0 0-.707 1.707l1 1a1 1 0 0 0 1.414 0l1-1A1 1 0 0 0 13 15h-2zm-1.5-4.879a1.5 1.5 0 1 1-3 0 1.5 1.5 0 0 1 3 0zm6.379 1.379a1.5 1.5 0 1 0 0-3 1.5 1.5 0 0 0 0 3z" fill="#000"/></svg>