<svg width="24" height="24" fill="none" xmlns="http://www.w3.org/2000/svg"><path fill-rule="evenodd" clip-rule="evenodd" d="M14 2.5a1 1 0 0 0-2 0v1.237a7.947 7.947 0 0 0-1.925.212c-1.539-.971-3.592-.846-4.932.494-1.34 1.34-1.466 3.393-.495 4.932A7.903 7.903 0 0 0 4.438 11H3a1 1 0 1 0 0 2h1.63a9.106 9.106 0 0 0 1.539 3.417l-.876.876a1 1 0 1 0 1.414 1.414l.802-.802a9.28 9.28 0 0 0 3.497 1.984A1.013 1.013 0 0 0 11 20v1a1 1 0 0 0 2 0v-.748c2.127.13 4.237-.554 5.817-2.134 1.655-1.655 2.328-3.89 2.11-6.118h.573a1 1 0 1 0 0-2h-1.01a9.303 9.303 0 0 0-1.885-3.19l.852-.853a1 1 0 1 0-1.414-1.414l-.926.926A9.136 9.136 0 0 0 14 4V2.5zM6.694 9.473A5.25 5.25 0 0 1 7.999 7.3a5.25 5.25 0 0 1 2.174-1.306c2.13-.66 4.752-.054 6.67 1.865 2.672 2.671 2.777 6.627.56 8.844-2.217 2.218-6.173 2.113-8.845-.559-1.919-1.919-2.524-4.541-1.864-6.67zm4.245 2.38a2 2 0 1 1-2.829 2.829 2 2 0 0 1 2.83-2.829zm4.243-1.414a2 2 0 1 0-2.828-2.828 2 2 0 0 0 2.828 2.828zm-.707 4.243a1.5 1.5 0 1 1-2.121 2.121 1.5 1.5 0 0 1 2.12-2.121zm2.828-.707a1.5 1.5 0 1 0-2.121-2.121 1.5 1.5 0 0 0 2.121 2.12z" fill="#000"/></svg>