<svg width="24" height="24" fill="none" xmlns="http://www.w3.org/2000/svg"><path fill-rule="evenodd" clip-rule="evenodd" d="M12.447 2.106L12 1.882l-.447.224c-.62.31-1.95 1.272-3.102 2.322-.586.535-1.166 1.128-1.608 1.713C6.438 6.677 6 7.395 6 8.143c0 .957.49 1.74 1.175 2.33-.43.479-.832.975-1.168 1.461a7.558 7.558 0 00-.695 1.207c-.173.39-.312.835-.312 1.288 0 1.479 1.002 2.644 2.246 3.384 1.028.612 2.332 1.013 3.754 1.142V21a1 1 0 102 0v-2.045c1.422-.129 2.726-.53 3.754-1.142C17.998 17.073 19 15.908 19 14.43c0-.453-.139-.898-.312-1.288-.177-.4-.42-.81-.695-1.207a14.839 14.839 0 00-1.168-1.46C17.51 9.883 18 9.1 18 8.143c0-.748-.438-1.466-.843-2.002-.442-.585-1.022-1.178-1.608-1.713-1.152-1.05-2.481-2.012-3.102-2.322zM12 17c1.508 0 2.825-.366 3.731-.905.928-.552 1.269-1.173 1.269-1.666 0-.062-.024-.216-.14-.478a5.593 5.593 0 00-.512-.88 13.764 13.764 0 00-1.308-1.583c-.9.33-1.944.512-3.04.512s-2.14-.181-3.04-.512c-.5.529-.956 1.075-1.307 1.583-.23.331-.401.629-.513.88-.116.262-.14.416-.14.478 0 .493.341 1.114 1.269 1.666.906.539 2.223.905 3.731.905zM8 8.143c0-.007.008-.078.078-.227.073-.154.191-.345.36-.57.34-.448.822-.948 1.36-1.44A19.91 19.91 0 0112 4.166a19.914 19.914 0 012.201 1.74c.54.492 1.021.992 1.36 1.44.17.225.288.416.36.57.071.15.078.22.079.226 0 .001 0 .001 0 0 0 .302-.252.81-1.168 1.264-.72.357-1.71.594-2.832.594-1.122 0-2.111-.237-2.832-.594C8.253 8.95 8 8.444 8 8.143z" fill="#000"/></svg>