<svg width="24" height="24" fill="none" xmlns="http://www.w3.org/2000/svg"><path fill-rule="evenodd" clip-rule="evenodd" d="M3.155 1.012c1.965.308 4.02 1.235 5.571 2.484A10.946 10.946 0 0112 3c1.152 0 2.261.176 3.295.502 1.587-1.227 3.548-2.189 5.54-2.489.425-.062.866.152 1.06.54.777 1.837.803 4.027.325 5.94l-.007.03c-.128.512-.294 1.176-.825 1.399.395.971.612 2.025.612 3.13 0 2.773-1.138 5.625-2.159 8.183l-.103.259c-.62 1.555-2.006 2.626-3.613 2.924l-2.27.422A2 2 0 0112 23.208a2 2 0 01-1.855.632l-2.27-.422c-1.606-.298-2.993-1.37-3.613-2.924l-.103-.26C3.139 17.678 2 14.826 2 12.054c0-1.106.217-2.16.612-3.131-.532-.224-.693-.87-.821-1.385l-.011-.045c-.457-1.827-.545-4.195.326-5.94a1.01 1.01 0 011.049-.54zm3.43 3.429a9.686 9.686 0 00-2.871 2.54 8.663 8.663 0 01-.039-3.793c1.013.292 2.005.707 2.91 1.253zm13.701 2.54a9.682 9.682 0 00-2.849-2.528 11.304 11.304 0 012.885-1.278 8.654 8.654 0 01-.036 3.806zM8.854 5.567A8.89 8.89 0 0112 5a8.89 8.89 0 013.146.567C18.056 6.667 20 9.198 20 12.053c0 2.415-1.01 4.935-1.914 7.185l-.206.515c-.35.88-1.149 1.518-2.12 1.699l-2.27.421-.578-1.283a1 1 0 00-1.824 0l-.578 1.283-2.27-.421c-.97-.18-1.769-.818-2.12-1.699l-.206-.514v-.001C5.01 16.988 4 14.468 4 12.053c0-2.855 1.945-5.386 4.854-6.486zM10.5 16a1 1 0 00-.8 1.6l1.5 2a1 1 0 001.6 0l1.5-2a1 1 0 00-.8-1.6h-3zm-.879-4.879a1.5 1.5 0 11-3 0 1.5 1.5 0 013 0zM16 12.5a1.5 1.5 0 100-3 1.5 1.5 0 000 3z" fill="#000"/></svg>