<svg width="24" height="24" fill="none" xmlns="http://www.w3.org/2000/svg"><path fill-rule="evenodd" clip-rule="evenodd" d="M12 .828l.888 1.712c1.216 2.344 2.633 3.977 3.914 5.452.187.215.371.427.551.637C18.733 10.24 20 11.88 20 14.17 20 18.518 16.395 22 12 22s-8-3.483-8-7.83c0-2.29 1.267-3.93 2.647-5.54.18-.211.364-.423.55-.638 1.282-1.475 2.7-3.108 3.915-5.452L12 .828zM8.166 9.93C6.775 11.554 6 12.688 6 14.17 6 17.367 8.663 20 12 20s6-2.633 6-5.83c0-1.482-.775-2.616-2.166-4.24-.17-.199-.348-.403-.532-.614-1.006-1.157-2.193-2.523-3.302-4.3-1.109 1.777-2.296 3.143-3.302 4.3-.184.21-.362.415-.532.614z" fill="#000"/></svg>