<svg width="24" height="24" fill="none" xmlns="http://www.w3.org/2000/svg"><path fill-rule="evenodd" clip-rule="evenodd" d="M2.553 10.106l1.59-.796a5.983 5.983 0 01-.11-.675l-1.48-.74a1 1 0 01.894-1.79l.747.374A6 6 0 0115.813 9.49l4.904-1.449L22 7.661V14.163C22 18.564 18.163 22 13.599 22h-2.865c-3.245 0-5.966-2.568-5.719-5.762a5.212 5.212 0 011.56-3.31 6.032 6.032 0 01-1.672-1.761l-1.456.727a1 1 0 11-.894-1.788zM10 4a4.001 4.001 0 00-3.956 3.404l1.403.702a1 1 0 010 1.788l-.744.372A4 4 0 1010 4zm4.505 7.963A5.985 5.985 0 0110 14a6.02 6.02 0 01-1.373-.158c-.945.584-1.539 1.527-1.618 2.55C6.865 18.262 8.484 20 10.734 20h2.865C17.21 20 20 17.313 20 14.162v-3.824l-5.495 1.625zM11 10.5a1.5 1.5 0 100-3 1.5 1.5 0 000 3z" fill="#000"/></svg>