<svg width="24" height="24" fill="none" xmlns="http://www.w3.org/2000/svg"><path fill-rule="evenodd" clip-rule="evenodd" d="M8.5 4.804a8.003 8.003 0 001.66 14.983l.02-.199c.063-.7.071-1.448-.051-1.951-.113-.462-.413-.858-.849-1.39a9.23 9.23 0 00-.032-.04c-.19-.232-.42-.512-.602-.803-.197-.315-.392-.721-.422-1.209-.045-.72.274-1.264.625-1.644.3-.326.684-.593.96-.785l.06-.042c.333-.232.51-.369.607-.489a.492.492 0 00.021-.027c-.069-.271-.21-.41-.642-.717l-.07-.05c-.424-.299-1.1-.776-1.428-1.708-.464-1.317-.174-2.851.143-3.929zm2.59-1.168l-.001.003-.01.02-.044.09a9.904 9.904 0 00-.148.328 7.977 7.977 0 016.905 2.406c-.212.134-.438.293-.648.473-.252.216-.546.518-.727.901-.35.743-.198 1.512-.124 1.888.01.047.018.088.023.123.036.21.031.282.026.309v.002a.352.352 0 01-.045.048 2.362 2.362 0 01-.15-.067c-.317-.149-1.064-.5-1.951-.081-.477.224-.764.627-.933.944-.176.33-.287.689-.36.99a7.07 7.07 0 00-.177 1.13l-.002.022v.012l.998.056-.998-.056a1 1 0 00.703 1.012l.016.005.078.027a5.377 5.377 0 011.176.599c.643.45.865.873.754 1.325-.066.268-.31.662-.803 1.15-.47.468-1.075.932-1.692 1.35-.252.17-.502.33-.74.477.025-.628.006-1.342-.144-1.959-.231-.947-.819-1.664-1.219-2.152l-.025-.031a6.765 6.765 0 01-.487-.637c-.107-.17-.12-.248-.12-.271l-.001-.002c-.002-.007-.01-.045.099-.163.144-.156.357-.307.696-.543l.02-.014c.284-.198.694-.485.993-.853.352-.432.591-1.028.416-1.75-.256-1.049-.968-1.556-1.42-1.88l-.008-.004c-.476-.34-.664-.488-.773-.796-.248-.704-.112-1.74.194-2.758.144-.48.31-.904.44-1.208l.01-.024m4.698 15.077c.163-.143.322-.29.473-.44.572-.568 1.137-1.282 1.335-2.093.417-1.702-.71-2.853-1.55-3.44a6.86 6.86 0 00-1.023-.584l.025-.111c.053-.216.116-.397.184-.523a.72.72 0 01.047-.079c.041.013.132.049.33.136.176.079.523.232.943.23.47-.003.89-.193 1.258-.512.386-.337.613-.739.698-1.181.078-.401.025-.774-.016-1.02l-.022-.128c-.083-.494-.097-.579-.04-.7l.01-.018a.601.601 0 01.042-.053c.038-.046.094-.1.167-.164.15-.128.338-.257.539-.377A7.964 7.964 0 0120 12a8 8 0 01-4.415 7.154zm4.58-12.93A9.955 9.955 0 0122 12c0 5.523-4.477 10-10 10S2 17.523 2 12 6.477 2 12 2a9.987 9.987 0 018.164 4.224zm-5.101 5.656c-.016-.004-.02-.002-.02 0l.002.004.001.001.001.003a.36.36 0 00.016-.008z" fill="#000"/></svg>