<svg width="24" height="24" fill="none" xmlns="http://www.w3.org/2000/svg"><path fill-rule="evenodd" clip-rule="evenodd" d="M11.82 1.174l.96 1.201c1.139 1.422 1.558 2.826 1.519 4.172-.038 1.309-.508 2.476-.976 3.44-.158.323-.328.648-.484.946l-.206.393a8.383 8.383 0 0 0-.477 1.054c-.103.3-.122.49-.11.611.01.09.041.182.161.302.198.198.345.254.433.27.091.018.211.013.384-.058.386-.159.856-.572 1.35-1.191.475-.595.89-1.276 1.19-1.82a16.461 16.461 0 0 0 .435-.847l.021-.047.005-.01v-.002h.001l.586-1.296 1.021.99c2.313 2.242 3.029 5.48 1.509 8.42C17.82 20.258 15.111 22 12 22c-4.395 0-8-3.483-8-7.83 0-2.29 1.267-3.93 2.647-5.54.18-.211.364-.423.55-.638 1.282-1.475 2.7-3.108 3.915-5.452l.708-1.366zm5.307 10.618c-.312.54-.718 1.178-1.19 1.769-.552.693-1.284 1.437-2.152 1.794a2.651 2.651 0 0 1-1.523.173c-.55-.106-1.042-.394-1.47-.82a2.463 2.463 0 0 1-.733-1.5c-.058-.529.054-1.036.206-1.479.153-.444.372-.894.59-1.317l.23-.443c.149-.283.294-.56.44-.858.43-.887.75-1.744.775-2.622a3.739 3.739 0 0 0-.273-1.516c-1.116 1.798-2.315 3.176-3.33 4.343-.183.21-.361.415-.531.614C6.775 11.554 6 12.688 6 14.17 6 17.367 8.663 20 12 20c2.354 0 4.382-1.315 5.365-3.217.862-1.666.74-3.47-.238-4.99z" fill="#000"/></svg>