<svg width="25" height="24" fill="none" xmlns="http://www.w3.org/2000/svg"><path fill-rule="evenodd" clip-rule="evenodd" d="M5.414 9.847C3.815 8.025 3.088 5.43 3.004 2.86c2.785-.341 5.647.106 7.682 1.795 2.214 1.837 4.037 4.937 5.414 7.78a91.722 91.722 0 001.517 3.035 1 1 0 00.541.47l3.315 1.205-1.92.96a1 1 0 00-.448.448l-.96 1.92-1.205-3.315a1.002 1.002 0 00-.47-.54 58.666 58.666 0 00-3.086-1.541 28.362 28.362 0 01-5.81-3.314c.417-.08.827-.197 1.22-.35 1.312-.508 2.525-1.453 3.112-2.904a1 1 0 10-1.854-.75c-.329.811-1.04 1.425-1.98 1.79a5.376 5.376 0 01-2.658.298zm18.928 6.213l-5.135-1.867c-.215-.418-.625-1.224-1.208-2.424.022-.557.228-1.003.519-1.302.317-.324.785-.526 1.392-.471a1 1 0 00.925-1.545C18.89 5.49 15.17 3.42 11.732 2.93 8.885.717 5.075.434 1.825 1.015A1 1 0 001 1.979c-.066 3.127.694 6.686 2.941 9.221.204 1.695.983 3.289 1.937 4.677 1.027 1.493 2.304 2.817 3.448 3.862a1 1 0 001.673-.785c-.032-.678.181-1.168.487-1.477.277-.278.7-.479 1.28-.483.885.413 1.907.94 2.426 1.211l1.868 5.137a1 1 0 001.834.105l1.851-3.702 3.702-1.85a1 1 0 00-.105-1.835zm-6.175-7.747a3.591 3.591 0 00-1.376 1.1c-.678-1.23-1.452-2.48-2.322-3.624 1.39.612 2.69 1.482 3.698 2.524zm-10.64 6.431a12.65 12.65 0 01-.62-.995 30.898 30.898 0 003.412 2.09c-.387.32-.703.725-.923 1.176a18.553 18.553 0 01-1.87-2.271zM7.5 7a1.5 1.5 0 100-3 1.5 1.5 0 000 3z" fill="#000"/></svg>