<svg width="24" height="24" fill="none" xmlns="http://www.w3.org/2000/svg"><path fill-rule="evenodd" clip-rule="evenodd" d="M4 5.5a2.5 2.5 0 114.966.413c-.39.083-.77.181-1.143.294a1.5 1.5 0 10-1.82.708c-.359.173-.703.361-1.031.564A2.496 2.496 0 014 5.5zm7 0c0 .045 0 .089-.002.133a15.034 15.034 0 012.004 0 4.5 4.5 0 117.646 3.082C22.086 10.077 23 11.83 23 13.8c0 2.391-1.348 4.465-3.345 5.903C17.657 21.14 14.948 22 12 22c-2.948 0-5.657-.859-7.655-2.297C2.348 18.265 1 16.19 1 13.8c0-1.97.914-3.724 2.352-5.084A4.5 4.5 0 1111 5.5zm8.028 1.979a11.42 11.42 0 00-1.03-.564 1.5 1.5 0 10-1.821-.708 13.68 13.68 0 00-1.143-.294 2.5 2.5 0 113.994 1.566zm-9.107.29c.666-.11 1.362-.169 2.079-.169.717 0 1.413.058 2.08.168 1.695.28 3.189.891 4.347 1.71C20.087 10.65 21 12.196 21 13.8c0 1.585-.89 3.111-2.513 4.28C16.866 19.247 14.575 20 12 20s-4.865-.753-6.487-1.92C3.89 16.91 3 15.385 3 13.8c0-1.604.913-3.149 2.573-4.322 1.158-.819 2.652-1.43 4.348-1.71zm-.98 4.893a1 1 0 00-1.89.654A3.714 3.714 0 008.1 14.76C8.88 15.43 10.116 16 12 16s3.12-.572 3.9-1.24c.452-.388.844-.88 1.049-1.444a1 1 0 00-1.89-.654c-.013.03-.132.298-.46.579-.386.33-1.15.759-2.599.759-1.45 0-2.213-.428-2.6-.76-.327-.28-.446-.547-.459-.578z" fill="#000"/></svg>