<svg width="24" height="24" fill="none" xmlns="http://www.w3.org/2000/svg"><path fill-rule="evenodd" clip-rule="evenodd" d="M4.744 5.088h.001zm.318-.026c.246-.002.58.022.996.077.945.125 2.186.395 3.496.774 1.308.379 2.655.856 3.818 1.385 1.186.54 2.09 1.093 2.588 1.591 1.893 1.893 2.166 4.651.933 6.59l-5.186-5.186a1 1 0 10-1.414 1.414l5.186 5.186c-1.939 1.233-4.697.96-6.59-.933-.498-.498-1.051-1.402-1.59-2.588-.53-1.162-1.007-2.51-1.386-3.818-.379-1.31-.65-2.55-.774-3.496a7.483 7.483 0 01-.077-.996zm11.856 13.27c-2.798 2.065-6.836 1.65-9.443-.957-.757-.758-1.43-1.928-1.997-3.175-.578-1.27-1.087-2.712-1.486-4.09-.398-1.377-.694-2.719-.836-3.79a8.663 8.663 0 01-.09-1.445c.009-.207.032-.425.085-.63.049-.188.149-.473.385-.71.236-.236.52-.335.709-.384.205-.053.423-.076.63-.085.416-.017.913.02 1.445.09 1.071.142 2.413.438 3.79.836 1.378.399 2.82.908 4.09 1.486 1.247.567 2.417 1.24 3.175 1.997 2.607 2.607 3.022 6.645.957 9.443l2.375 2.375a1 1 0 01-1.414 1.414l-2.375-2.375zM5.088 4.745z" fill="#000"/></svg>