<svg width="24" height="24" fill="none" xmlns="http://www.w3.org/2000/svg"><path fill-rule="evenodd" clip-rule="evenodd" d="M12.063 4.042c2.997-.367 5.737 1.714 6.22 4.689a1 1 0 00.534.731 3.976 3.976 0 012.153 3.077c.266 2.187-1.284 4.17-3.452 4.435a3.846 3.846 0 01-1.018-.017c-.362-.056-.566-.154-.641-.217a1 1 0 00-1.274 1.542c.475.393 1.09.57 1.604.651a5.838 5.838 0 001.572.026c3.271-.4 5.592-3.386 5.195-6.661a5.974 5.974 0 00-2.794-4.372c-.86-3.764-4.432-6.348-8.342-5.87a7.607 7.607 0 00-5.836 4.065C2.755 6.635 1 9.606 1 12.631c0 .975.334 2.501 1.491 3.798 1.186 1.329 3.13 2.297 6.117 2.297a1 1 0 100-2c-2.526 0-3.885-.8-4.625-1.63-.769-.86-.983-1.88-.983-2.464 0-1.895.85-3.47 2.22-4.18a7.675 7.675 0 00-.036 2.116 1 1 0 101.986-.241 5.638 5.638 0 01.401-2.884 5.615 5.615 0 014.492-3.4zm4.595 8.71a1 1 0 00-1.317-1.505l-3.357 2.938-2.344-1.953a1 1 0 00-1.28 1.536l2.64 2.2V22a1 1 0 102 0v-6.046l3.659-3.201z" fill="#000"/></svg>