<svg width="24" height="24" fill="none" xmlns="http://www.w3.org/2000/svg"><path fill-rule="evenodd" clip-rule="evenodd" d="M12 3a4 4 0 00-4 4v1H7c-2.195 0-3.5 1.282-3.5 2.5 0 .733.265 1.315.765 1.732C4.784 12.664 5.657 13 7 13h10c1.343 0 2.216-.336 2.735-.768.5-.417.765-.999.765-1.732C20.5 9.282 19.195 8 17 8h-1V7a4 4 0 00-4-4zM6.073 6.064a6.002 6.002 0 0111.854 0C20.352 6.398 22.5 8.03 22.5 10.5c0 1.267-.485 2.435-1.485 3.268C20.034 14.586 18.657 15 17 15H7c-1.657 0-3.034-.414-4.015-1.232-1-.833-1.485-2.001-1.485-3.268 0-2.47 2.148-4.102 4.573-4.436zM7 16.5a1 1 0 011 1v.5a1 1 0 11-2 0v-.5a1 1 0 011-1zm5 0a1 1 0 011 1v.5a1 1 0 11-2 0v-.5a1 1 0 011-1zm5 0a1 1 0 011 1v.5a1 1 0 11-2 0v-.5a1 1 0 011-1zm-11 4a1 1 0 011 1v.5a1 1 0 11-2 0v-.5a1 1 0 011-1zm5 0a1 1 0 011 1v.5a1 1 0 11-2 0v-.5a1 1 0 011-1zm5 0a1 1 0 011 1v.5a1 1 0 11-2 0v-.5a1 1 0 011-1z" fill="#000"/></svg>