<svg width="24" height="24" fill="none" xmlns="http://www.w3.org/2000/svg"><path fill-rule="evenodd" clip-rule="evenodd" d="M11.713.042a1 1 0 0 1 1.123.409l9.2 14A1 1 0 0 1 21.2 16H13v1.028h8a1 1 0 0 1 1 1c0 1.125-.581 2.002-1.341 2.64-.746.626-1.723 1.079-2.72 1.409C15.941 22.74 13.58 23 12 23c-1.58 0-3.94-.26-5.939-.922-.996-.33-1.973-.783-2.719-1.409C2.581 20.031 2 19.154 2 18.029a1 1 0 0 1 1-1h8V16H2.8a1 1 0 0 1-.805-1.593L11 2.172V1a1 1 0 0 1 .713-.958zM11 5.546L4.778 14H11V5.546zM13 14h6.346L13 4.343V14zm-8.494 5.03c.038.035.078.071.121.107.473.397 1.184.751 2.063 1.043 1.75.58 3.89.82 5.31.82 1.42 0 3.56-.24 5.31-.82.879-.292 1.59-.646 2.063-1.043.043-.036.083-.072.121-.108H4.506z" fill="#000"/></svg>