<svg width="24" height="24" fill="none" xmlns="http://www.w3.org/2000/svg"><path fill-rule="evenodd" clip-rule="evenodd" d="M12.991 2.869a1 1 0 00-1.982 0l-.002.008-.004.033-.02.137a20.328 20.328 0 01-.486 2.224c-.384 1.373-.955 2.773-1.704 3.522-.749.749-2.15 1.32-3.522 1.704a20.328 20.328 0 01-2.36.506l-.034.005H2.87h-.001a1 1 0 000 1.983l.008.002.033.004.137.02a20.328 20.328 0 012.224.486c1.373.384 2.773.955 3.522 1.704.749.749 1.32 2.15 1.704 3.522a20.325 20.325 0 01.506 2.36l.005.034v.008a1 1 0 001.983 0l.002-.008.004-.033.02-.137a20.325 20.325 0 01.486-2.224c.384-1.373.955-2.773 1.704-3.522.749-.749 2.15-1.32 3.522-1.704a20.325 20.325 0 012.36-.506l.034-.005h.008a1 1 0 000-1.983l-.008-.002-.033-.004-.137-.02a20.325 20.325 0 01-2.224-.486c-1.373-.384-2.773-.955-3.522-1.704-.749-.749-1.32-2.15-1.704-3.522a20.328 20.328 0 01-.506-2.36l-.005-.034V2.87v-.001zM16.872 12c-1.108-.407-2.27-.984-3.08-1.793-.808-.81-1.385-1.971-1.792-3.08-.407 1.109-.984 2.27-1.793 3.08-.81.81-1.971 1.386-3.08 1.793 1.109.407 2.27.984 3.08 1.793.81.81 1.386 1.971 1.793 3.08.407-1.109.984-2.27 1.793-3.08.81-.81 1.971-1.386 3.08-1.793z" fill="#000"/></svg>