<svg width="24" height="24" fill="none" xmlns="http://www.w3.org/2000/svg"><path fill-rule="evenodd" clip-rule="evenodd" d="M8 7a4 4 0 118 0v1h1c2.195 0 3.5 1.282 3.5 2.5 0 .733-.265 1.315-.765 1.732-.519.432-1.392.768-2.735.768h-4.364l1.216-1.976a1 1 0 00-1.704-1.048L10.288 13H7c-1.343 0-2.216-.336-2.735-.768-.5-.417-.765-.999-.765-1.732C3.5 9.282 4.805 8 7 8h1V7zm1.057 8H7c-1.657 0-3.034-.414-4.015-1.232-1-.833-1.485-2.001-1.485-3.268 0-2.47 2.148-4.102 4.573-4.436a6.002 6.002 0 0111.854 0C20.352 6.398 22.5 8.03 22.5 10.5c0 1.267-.485 2.435-1.485 3.268C20.034 14.586 18.657 15 17 15h-5.595l-.615 1H13a1 1 0 01.857 1.515l-3 5a1 1 0 01-1.714-1.03L11.233 18H9a1 1 0 01-.852-1.524L9.057 15z" fill="#000"/></svg>