<svg width="24" height="24" fill="none" xmlns="http://www.w3.org/2000/svg"><path fill-rule="evenodd" clip-rule="evenodd" d="M12.321 6.016a1 1 0 011.163.805l.617 3.396 1.13-1.357a1 1 0 111.537 1.28l-2.118 2.542 1.63 4.074 5.134 2.334a1 1 0 01-.828 1.82l-5.5-2.5a1 1 0 01-.14-.078l-3.418-2.278-5.357.931a1 1 0 01-.342-1.97l3.284-.571-1.668-1.112a1.007 1.007 0 01-.07-.051l-5-4a1 1 0 011.25-1.562l2.783 2.227-.384-1.73a1 1 0 111.952-.433l.913 4.108 3.416 2.277 1.07.714-.803-2.01a.994.994 0 01-.056-.193l-1-5.5a1 1 0 01.805-1.163z" fill="#000"/></svg>