<svg width="24" height="24" fill="none" xmlns="http://www.w3.org/2000/svg"><path fill-rule="evenodd" clip-rule="evenodd" d="M10.4 4.467a2 2 0 013.2 0l2.97 3.96 3.687-4.096A1 1 0 0122 5v7c0 5.523-4.477 10-10 10S2 17.523 2 12V5a1 1 0 011.743-.669L7.43 8.427l2.97-3.96zm-3.878 5.94L4 7.607V12a8 8 0 007.515 7.985c-.051-.028-.1-.06-.147-.098L12 19.11l.632.776c-.047.037-.096.07-.147.098A8 8 0 0020 12V7.606l-2.522 2.802a20.186 20.186 0 01-.15 1.414c-.143.998-.409 2.322-.916 3.45-.567 1.259-1.534 2.42-2.311 3.233a19.316 19.316 0 01-1.433 1.351l-.025.021-.008.006-.002.002-.001.001-.632-.775-.632.775h-.001l-.002-.003-.008-.006-.025-.021a10.764 10.764 0 01-.409-.356 19.32 19.32 0 01-1.024-.995c-.777-.814-1.744-1.974-2.31-3.234-.508-1.127-.774-2.451-.917-3.45a20.302 20.302 0 01-.15-1.413zm8.958-.1L12 5.667l-3.48 4.64.007.093c.022.283.06.682.126 1.14.132.932.366 2.038.759 2.91.427.95 1.21 1.915 1.934 2.674.237.248.461.467.654.649.193-.182.417-.4.654-.649.724-.759 1.507-1.724 1.934-2.673.393-.873.627-1.979.76-2.912.065-.457.103-.856.125-1.139l.007-.093z" fill="#000"/></svg>