<svg width="24" height="24" fill="none" xmlns="http://www.w3.org/2000/svg"><path fill-rule="evenodd" clip-rule="evenodd" d="M10.4 4.467a2 2 0 0 1 3.2 0l2.97 3.96 3.687-4.096A1 1 0 0 1 22 5v7c0 5.523-4.477 10-10 10S2 17.523 2 12V5a1 1 0 0 1 1.743-.669L7.43 8.427l2.97-3.96zm-3.878 5.94L4 7.607V12a8 8 0 0 0 7.515 7.985.999.999 0 0 1-.147-.098L12 19.11l.632.776a.999.999 0 0 1-.147.098A8 8 0 0 0 20 12V7.606l-2.522 2.802a20.179 20.179 0 0 1-.15 1.414c-.143.998-.409 2.322-.916 3.45-.567 1.259-1.534 2.42-2.311 3.233a19.356 19.356 0 0 1-1.433 1.351l-.025.021-.008.006-.002.002v.001h-.001L12 19.111l-.632.775h-.001l-.002-.003-.008-.006-.025-.02a10.764 10.764 0 0 1-.409-.357 19.36 19.36 0 0 1-1.024-.995c-.777-.814-1.744-1.974-2.31-3.233-.508-1.128-.774-2.452-.917-3.45a20.296 20.296 0 0 1-.15-1.414zm8.958-.1L12 5.667l-3.48 4.64.007.093c.022.283.06.682.126 1.14.132.932.366 2.038.759 2.91.427.95 1.21 1.915 1.934 2.674.237.248.461.467.654.65.193-.183.417-.402.654-.65.724-.759 1.507-1.724 1.934-2.673.393-.873.627-1.979.76-2.911.065-.458.103-.857.125-1.14l.007-.093z" fill="#000"/></svg>