<svg width="24" height="24" fill="none" xmlns="http://www.w3.org/2000/svg"><path fill-rule="evenodd" clip-rule="evenodd" d="M12 2a1 1 0 011 1v.04c2.508.197 4.89 1.133 6.719 2.688C21.794 7.492 23 9.923 23 12.5a1 1 0 01-1.997.075c-.03-.407-.256-.83-.708-1.152-.456-.326-1.09-.504-1.762-.453-.672.05-1.271.32-1.674.711-.355.343-.52.739-.53 1.109.003.07.005.14.005.21a1 1 0 01-1.997.075 3.333 3.333 0 01-.01-.223 1.88 1.88 0 00-.638-1.23 2.37 2.37 0 00-.689-.428V20a1 1 0 002 0v-1a1 1 0 112 0v1a3 3 0 01-6 0v-8.805c-.257.105-.49.25-.687.427a1.88 1.88 0 00-.639 1.23c0 .074-.003.148-.009.223A1 1 0 017.668 13c0-.07.002-.14.006-.21-.01-.37-.176-.766-.53-1.109-.404-.39-1.003-.66-1.675-.711-.673-.05-1.306.127-1.762.453-.452.322-.677.745-.708 1.152a1 1 0 01-.997.925H2a1 1 0 01-1-1c0-2.577 1.206-5.008 3.281-6.772C6.111 4.173 8.491 3.237 11 3.039V3a1 1 0 011-1zm-3.303 8.41c.088-.095.18-.187.278-.275C9.793 9.4 10.881 9.001 11.997 9h.004c1.117 0 2.207.399 3.026 1.135.097.088.19.18.278.276a4.02 4.02 0 01.162-.166c.769-.745 1.821-1.188 2.917-1.27a4.93 4.93 0 011.653.155 7.71 7.71 0 00-1.614-1.878C16.743 5.824 14.435 5 12 5s-4.743.824-6.423 2.252A7.711 7.711 0 003.962 9.13a4.93 4.93 0 011.656-.156c1.096.082 2.148.525 2.917 1.27.056.054.11.109.162.166z" fill="#000"/></svg>