<svg width="24" height="24" fill="none" xmlns="http://www.w3.org/2000/svg"><path fill-rule="evenodd" clip-rule="evenodd" d="M16.22 3.753c-1.328-4.088-7.112-4.088-8.44 0A2.438 2.438 0 015.46 5.438c-4.299 0-6.086 5.5-2.608 8.028a2.438 2.438 0 01.885 2.725c-1.328 4.088 3.351 7.488 6.83 4.961a2.438 2.438 0 012.865 0c3.478 2.527 8.157-.873 6.829-4.961a2.438 2.438 0 01.885-2.725c3.478-2.527 1.69-8.028-2.608-8.028a2.438 2.438 0 01-2.319-1.685zm-6.538.618c.73-2.246 3.907-2.246 4.636 0a4.438 4.438 0 004.22 3.067c2.362 0 3.344 3.022 1.434 4.41a4.438 4.438 0 00-1.612 4.961c.73 2.246-1.841 4.113-3.752 2.725a4.438 4.438 0 00-5.216 0c-1.91 1.388-4.481-.48-3.752-2.725a4.438 4.438 0 00-1.612-4.962c-1.91-1.387-.928-4.41 1.433-4.41a4.438 4.438 0 004.22-3.066zM10 12a2 2 0 114 0 2 2 0 01-4 0zm2-4a4 4 0 100 8 4 4 0 000-8z" fill="#000"/></svg>