<svg width="24" height="24" fill="none" xmlns="http://www.w3.org/2000/svg"><g clip-path="url(#clip0)"><path fill-rule="evenodd" clip-rule="evenodd" d="M20.748.395a1 1 0 0 1 1.414 0l.75.75.75.75a1 1 0 0 1 0 1.414l-2.353 2.353a1 1 0 0 1-1.414 0l-.043-.043-1.355 1.356c.767.97 1.33 2.11 1.628 3.361.598 2.501-.84 5.062-3.278 5.9l-.194.066a3.29 3.29 0 0 0-2.178 2.597l-.082.533c-.429 2.776-2.945 4.783-5.741 4.56a9.321 9.321 0 0 1-8.588-8.587c-.222-2.796 1.785-5.312 4.56-5.74l.534-.083a3.29 3.29 0 0 0 2.597-2.178l.067-.194c.837-2.437 3.398-3.876 5.9-3.278a8.655 8.655 0 0 1 3.36 1.629l1.356-1.356-.043-.043a1 1 0 0 1 0-1.414L20.748.395zm-6.75 8.25l1.658-1.658a6.66 6.66 0 0 0-2.4-1.11c-1.48-.353-3.033.5-3.543 1.983l-.067.194-.764-.262.764.262a5.29 5.29 0 0 1-4.183 3.505l-.533.082c-1.75.27-3.01 1.863-2.872 3.606A7.321 7.321 0 0 0 8.81 22c1.743.138 3.336-1.122 3.606-2.872l.082-.533a5.29 5.29 0 0 1 3.505-4.183l.288.84-.288-.84.194-.067c1.483-.51 2.337-2.063 1.983-3.543a6.661 6.661 0 0 0-1.11-2.4l-1.658 1.658a1 1 0 0 1-1.414-1.414zM11.5 15a2.5 2.5 0 1 0 0-5 2.5 2.5 0 0 0 0 5z" fill="#000"/></g><defs><clipPath id="clip0"><path fill="#fff" d="M0 0h24v24H0z"/></clipPath></defs></svg>