<svg width="24" height="24" fill="none" xmlns="http://www.w3.org/2000/svg"><path fill-rule="evenodd" clip-rule="evenodd" d="M6.78 6.773A1 1 0 0 1 7.754 6h8.492a1 1 0 0 1 .974.773L17.74 9H6.26l.52-2.227zM2 11h1c-.628.836-1 1.874-1 3v1c0 1.306.835 2.418 2 2.83V20a1 1 0 0 0 1 1h1a1 1 0 0 0 1-1v-2h10v2a1 1 0 0 0 1 1h1a1 1 0 0 0 1-1v-2.17A3.001 3.001 0 0 0 22 15v-1a4.978 4.978 0 0 0-1-3h1a1 1 0 1 0 0-2h-1a1 1 0 0 0-.995.904l-.031-.131-.806-3.455A3 3 0 0 0 16.246 4H7.754a3 3 0 0 0-2.922 2.318l-.806 3.455-.03.131A1 1 0 0 0 3 9H2a1 1 0 0 0 0 2zm5 0a3 3 0 0 0-3 3v1a1 1 0 0 0 1 1h14a1 1 0 0 0 1-1v-1a3 3 0 0 0-3-3H7zm-1 2.5a1.5 1.5 0 1 1 3 0 1.5 1.5 0 0 1-3 0zM16.5 12a1.5 1.5 0 1 0 0 3 1.5 1.5 0 0 0 0-3z" fill="#000"/></svg>