<svg width="24" height="24" fill="none" xmlns="http://www.w3.org/2000/svg"><path fill-rule="evenodd" clip-rule="evenodd" d="M5 9V8a1 1 0 0 1 1-1h4a1 1 0 0 1 1 1v2H6a1 1 0 0 1-1-1zm7 3H6c-.35 0-.687-.06-1-.17v7.054C5 19.554 5.5 20 6 20h12c.5 0 1-.446 1-1.116v-7.055c-.313.11-.65.171-1 .171h-6zm1-2h5a1 1 0 0 0 1-1V8a1 1 0 0 0-1-1h-4a1 1 0 0 0-1 1v2zm5.445-4.967A3.024 3.024 0 0 0 18 5h-4c-.768 0-1.47.289-2 .764A2.989 2.989 0 0 0 10 5H6c-.151 0-.3.011-.445.033.249-.316.599-.545 1.1-.708.586-.192 1.334-.28 2.264-.31.626-.021 1.28-.016 1.988-.01.35.003.714.006 1.093.006s.742-.003 1.093-.006c.707-.006 1.362-.011 1.988.01.93.03 1.678.118 2.265.31.5.163.85.392 1.099.708zM21 8v10.884C21 20.55 19.71 22 18 22h-1v1a1 1 0 1 1-2 0v-1H9v1a1 1 0 1 1-2 0v-1H6c-1.71 0-3-1.45-3-3.116V7.244c0-1.288.246-2.35.793-3.183.558-.85 1.356-1.348 2.24-1.637.86-.282 1.835-.376 2.82-.408a53.136 53.136 0 0 1 2.124-.01c.342.002.684.005 1.023.005.339 0 .681-.003 1.023-.005a53.135 53.135 0 0 1 2.124.01c.985.032 1.96.126 2.82.408.884.289 1.682.788 2.24 1.637.547.833.793 1.895.793 3.183V8zm-9 6.5a1.5 1.5 0 1 0 0 3 1.5 1.5 0 0 0 0-3z" fill="#000"/></svg>