<svg width="24" height="24" viewBox="0 0 24 24" fill="none" xmlns="http://www.w3.org/2000/svg">
<path fill-rule="evenodd" clip-rule="evenodd" d="M21.5 4C20.1193 4 19 5.11929 19 6.5V18.5C19 19.8807 20.1193 21 21.5 21C22.8807 21 24 19.8807 24 18.5V6.5C24 5.11929 22.8807 4 21.5 4ZM21 6.5C21 6.22386 21.2239 6 21.5 6C21.7761 6 22 6.22386 22 6.5V18.5C22 18.7761 21.7761 19 21.5 19C21.2239 19 21 18.7761 21 18.5V6.5ZM15.5 8C14.1193 8 13 9.11929 13 10.5V18.5C13 19.8807 14.1193 21 15.5 21C16.8807 21 18 19.8807 18 18.5V10.5C18 9.11929 16.8807 8 15.5 8ZM15 10.5C15 10.2239 15.2239 10 15.5 10C15.7761 10 16 10.2239 16 10.5V18.5C16 18.7761 15.7761 19 15.5 19C15.2239 19 15 18.7761 15 18.5V10.5ZM7 14.5C7 13.1193 8.11929 12 9.5 12C10.8807 12 12 13.1193 12 14.5V18.5C12 19.8807 10.8807 21 9.5 21C8.11929 21 7 19.8807 7 18.5V14.5ZM9.5 14C9.22386 14 9 14.2239 9 14.5V18.5C9 18.7761 9.22386 19 9.5 19C9.77614 19 10 18.7761 10 18.5V14.5C10 14.2239 9.77614 14 9.5 14ZM3.5 16C2.11929 16 1 17.1193 1 18.5C1 19.8807 2.11929 21 3.5 21C4.88071 21 6 19.8807 6 18.5C6 17.1193 4.88071 16 3.5 16ZM3 18.5C3 18.2239 3.22386 18 3.5 18C3.77614 18 4 18.2239 4 18.5C4 18.7761 3.77614 19 3.5 19C3.22386 19 3 18.7761 3 18.5Z" fill="black"/>
</svg>
