<svg width="24" height="24" viewBox="0 0 24 24" fill="none" xmlns="http://www.w3.org/2000/svg">
<path fill-rule="evenodd" clip-rule="evenodd" d="M20.5 4C19.1193 4 18 5.11929 18 6.5V18.5C18 19.8807 19.1193 21 20.5 21C21.8807 21 23 19.8807 23 18.5V6.5C23 5.11929 21.8807 4 20.5 4ZM20 6.5C20 6.22386 20.2239 6 20.5 6C20.7761 6 21 6.22386 21 6.5V18.5C21 18.7761 20.7761 19 20.5 19C20.2239 19 20 18.7761 20 18.5V6.5ZM14.5 8C13.1193 8 12 9.11929 12 10.5V18.5C12 19.8807 13.1193 21 14.5 21C15.8807 21 17 19.8807 17 18.5V10.5C17 9.11929 15.8807 8 14.5 8ZM14 10.5C14 10.2239 14.2239 10 14.5 10C14.7761 10 15 10.2239 15 10.5V18.5C15 18.7761 14.7761 19 14.5 19C14.2239 19 14 18.7761 14 18.5V10.5ZM6 14.5C6 13.1193 7.11929 12 8.5 12C9.88071 12 11 13.1193 11 14.5V18.5C11 19.8807 9.88071 21 8.5 21C7.11929 21 6 19.8807 6 18.5V14.5ZM0 18.5C0 17.1193 1.11929 16 2.5 16C3.88071 16 5 17.1193 5 18.5C5 19.8807 3.88071 21 2.5 21C1.11929 21 0 19.8807 0 18.5Z" fill="black"/>
</svg>
