<svg width="24" height="24" viewBox="0 0 24 24" fill="none" xmlns="http://www.w3.org/2000/svg">
<path fill-rule="evenodd" clip-rule="evenodd" d="M18 6.5C18 5.11929 19.1193 4 20.5 4C21.8807 4 23 5.11929 23 6.5V18.5C23 19.8807 21.8807 21 20.5 21C19.1193 21 18 19.8807 18 18.5V6.5ZM20.5 6C20.2239 6 20 6.22386 20 6.5V18.5C20 18.7761 20.2239 19 20.5 19C20.7761 19 21 18.7761 21 18.5V6.5C21 6.22386 20.7761 6 20.5 6ZM12 10.5C12 9.11929 13.1193 8 14.5 8C15.8807 8 17 9.11929 17 10.5V18.5C17 19.8807 15.8807 21 14.5 21C13.1193 21 12 19.8807 12 18.5V10.5ZM14.5 10C14.2239 10 14 10.2239 14 10.5V18.5C14 18.7761 14.2239 19 14.5 19C14.7761 19 15 18.7761 15 18.5V10.5C15 10.2239 14.7761 10 14.5 10ZM8.5 12C7.11929 12 6 13.1193 6 14.5V18.5C6 19.8807 7.11929 21 8.5 21C9.88071 21 11 19.8807 11 18.5V14.5C11 13.1193 9.88071 12 8.5 12ZM8 14.5C8 14.2239 8.22386 14 8.5 14C8.77614 14 9 14.2239 9 14.5V18.5C9 18.7761 8.77614 19 8.5 19C8.22386 19 8 18.7761 8 18.5V14.5ZM0 18.5C0 17.1193 1.11929 16 2.5 16C3.88071 16 5 17.1193 5 18.5C5 19.8807 3.88071 21 2.5 21C1.11929 21 0 19.8807 0 18.5Z" fill="black"/>
</svg>
