<svg width="24" height="24" viewBox="0 0 24 24" fill="none" xmlns="http://www.w3.org/2000/svg">
<path fill-rule="evenodd" clip-rule="evenodd" d="M1 9C1 7.39478 2.24576 6 3.89474 6H18.1053C19.7542 6 21 7.39478 21 9H22C23.1046 9 24 9.89543 24 11V13C24 14.1046 23.1046 15 22 15H21C21 16.6052 19.7542 18 18.1053 18H3.89474C2.24576 18 1 16.6052 1 15V9ZM19 9V10V14V15C19 15.6039 18.5492 16 18.1053 16H3.89474C3.45084 16 3 15.6039 3 15V9C3 8.39608 3.45084 8 3.89474 8H18.1053C18.5492 8 19 8.39608 19 9ZM21 11V13H22V11H21ZM11.9933 10.169C12.3628 9.75845 12.3295 9.12616 11.919 8.75671C11.5085 8.38725 10.8762 8.42053 10.5067 8.83104L8.25671 11.331C7.99252 11.6246 7.92584 12.0461 8.0865 12.4068C8.24716 12.7676 8.60509 13 9 13H9.75464L9.00671 13.831C8.63725 14.2415 8.67053 14.8738 9.08104 15.2433C9.49155 15.6128 10.1238 15.5795 10.4933 15.169L12.7433 12.669C13.0075 12.3754 13.0742 11.9539 12.9135 11.5932C12.7528 11.2324 12.3949 11 12 11H11.2454L11.9933 10.169Z" fill="black"/>
</svg>
