<svg width="24" height="24" viewBox="0 0 24 24" fill="none" xmlns="http://www.w3.org/2000/svg">
<path fill-rule="evenodd" clip-rule="evenodd" d="M13 2C13 1.44772 12.5523 1 12 1C11.4477 1 11 1.44772 11 2V4C11 4.55228 11.4477 5 12 5C12.5523 5 13 4.55228 13 4V2ZM7.86603 2.83972C7.58988 2.36143 6.97829 2.19755 6.5 2.4737C6.02171 2.74984 5.85783 3.36143 6.13397 3.83972L7.13332 5.57064C7.40946 6.04893 8.02105 6.2128 8.49934 5.93666C8.97764 5.66052 9.14151 5.04893 8.86537 4.57064L7.86603 2.83972ZM17.866 3.83977C18.1422 3.36148 17.9783 2.74989 17.5 2.47375C17.0217 2.1976 16.4101 2.36148 16.134 2.83977L15.1347 4.57065C14.8585 5.04894 15.0224 5.66053 15.5007 5.93667C15.979 6.21282 16.5906 6.04894 16.8667 5.57065L17.866 3.83977ZM21.1602 7.86603C21.6385 7.58988 21.8024 6.97829 21.5263 6.5C21.2501 6.02171 20.6385 5.85783 20.1602 6.13397L18.4294 7.1333C17.9511 7.40944 17.7872 8.02103 18.0633 8.49932C18.3395 8.97762 18.9511 9.14149 19.4294 8.86535L21.1602 7.86603ZM3.83972 6.13397C3.36143 5.85783 2.74984 6.02171 2.4737 6.5C2.19755 6.97829 2.36143 7.58988 2.83972 7.86603L4.57064 8.86537C5.04893 9.14151 5.66052 8.97764 5.93666 8.49934C6.2128 8.02105 6.04893 7.40946 5.57064 7.13332L3.83972 6.13397ZM2 11C1.44772 11 1 11.4477 1 12C1 12.5523 1.44772 13 2 13H4C4.55228 13 5 12.5523 5 12C5 11.4477 4.55228 11 4 11H2ZM20 11C19.4477 11 19 11.4477 19 12C19 12.5523 19.4477 13 20 13H22C22.5523 13 23 12.5523 23 12C23 11.4477 22.5523 11 22 11H20ZM5.57064 16.8667C6.04893 16.5905 6.2128 15.9789 5.93666 15.5007C5.66052 15.0224 5.04893 14.8585 4.57064 15.1346L2.83972 16.134C2.36143 16.4101 2.19755 17.0217 2.4737 17.5C2.74984 17.9783 3.36143 18.1422 3.83972 17.866L5.57064 16.8667ZM19.4293 15.1347C18.9511 14.8585 18.3395 15.0224 18.0633 15.5007C17.7872 15.979 17.9511 16.5906 18.4293 16.8667L20.1602 17.866C20.6385 18.1422 21.2501 17.9783 21.5263 17.5C21.8024 17.0217 21.6385 16.4101 21.1602 16.134L19.4293 15.1347ZM16.8667 18.4293C16.5906 17.9511 15.979 17.7872 15.5007 18.0633C15.0224 18.3395 14.8585 18.9511 15.1347 19.4293L16.134 21.1602C16.4101 21.6385 17.0217 21.8024 17.5 21.5263C17.9783 21.2501 18.1422 20.6385 17.866 20.1602L16.8667 18.4293ZM8.86537 19.4294C9.14151 18.9511 8.97764 18.3395 8.49934 18.0633C8.02105 17.7872 7.40946 17.9511 7.13332 18.4294L6.13397 20.1603C5.85783 20.6386 6.02171 21.2502 6.5 21.5263C6.97829 21.8024 7.58988 21.6386 7.86603 21.1603L8.86537 19.4294ZM13 20C13 19.4477 12.5523 19 12 19C11.4477 19 11 19.4477 11 20V22C11 22.5523 11.4477 23 12 23C12.5523 23 13 22.5523 13 22V20ZM8 12C8 9.79086 9.79086 8 12 8C14.2091 8 16 9.79086 16 12C16 14.2091 14.2091 16 12 16C9.79086 16 8 14.2091 8 12ZM12 6C8.68629 6 6 8.68629 6 12C6 15.3137 8.68629 18 12 18C15.3137 18 18 15.3137 18 12C18 8.68629 15.3137 6 12 6Z" fill="black"/>
</svg>
