<svg width="24" height="24" viewBox="0 0 24 24" fill="none" xmlns="http://www.w3.org/2000/svg">
<path fill-rule="evenodd" clip-rule="evenodd" d="M0 9.86731C0 7.10588 2.23858 4.86731 5 4.86731H19C21.7614 4.86731 24 7.10589 24 9.86731V14.0703C24 16.8317 21.7614 19.0703 19 19.0703H5C2.23858 19.0703 0 16.8317 0 14.0703V9.86731ZM5 6.86731C3.34315 6.86731 2 8.21045 2 9.86731V14.0703C2 15.7272 3.34315 17.0703 5 17.0703H19C20.6569 17.0703 22 15.7272 22 14.0703V9.86731C22 8.21046 20.6569 6.86731 19 6.86731H5ZM10 11C10 9.89543 10.8954 9 12 9C13.1046 9 14 9.89543 14 11V13C14 14.1046 13.1046 15 12 15C10.8954 15 10 14.1046 10 13V11ZM6 9C4.89543 9 4 9.89543 4 11V13C4 14.1046 4.89543 15 6 15C7.10457 15 8 14.1046 8 13V11C8 9.89543 7.10457 9 6 9Z" fill="black"/>
</svg>
