<svg width="24" height="24" viewBox="0 0 24 24" fill="none" xmlns="http://www.w3.org/2000/svg">
<path fill-rule="evenodd" clip-rule="evenodd" d="M0 10C0 7.23858 2.23858 5 5 5H19C21.7614 5 24 7.23858 24 10V14C24 16.7614 21.7614 19 19 19H5C2.23858 19 0 16.7614 0 14V10ZM5 7C3.34315 7 2 8.34315 2 10V14C2 15.6569 3.34315 17 5 17H19C20.6569 17 22 15.6569 22 14V10C22 8.34315 20.6569 7 19 7H5ZM10 11C10 9.89543 10.8954 9 12 9C13.1046 9 14 9.89543 14 11V13C14 14.1046 13.1046 15 12 15C10.8954 15 10 14.1046 10 13V11ZM6 9C4.89543 9 4 9.89543 4 11V13C4 14.1046 4.89543 15 6 15C7.10457 15 8 14.1046 8 13V11C8 9.89543 7.10457 9 6 9Z" fill="black"/>
</svg>
