<svg width="24" height="24" viewBox="0 0 24 24" fill="none" xmlns="http://www.w3.org/2000/svg">
<path fill-rule="evenodd" clip-rule="evenodd" d="M0 9.92981C0 7.16838 2.23858 4.92981 5 4.92981H19C21.7614 4.92981 24 7.16839 24 9.92981V14.1328C24 16.8942 21.7614 19.1328 19 19.1328H5C2.23858 19.1328 0 16.8942 0 14.1328V9.92981ZM5 6.92981C3.34315 6.92981 2 8.27295 2 9.92981V14.1328C2 15.7897 3.34315 17.1328 5 17.1328H19C20.6569 17.1328 22 15.7897 22 14.1328V9.92981C22 8.27296 20.6569 6.92981 19 6.92981H5Z" fill="black"/>
</svg>
