<svg width="24" height="24" viewBox="0 0 24 24" fill="none" xmlns="http://www.w3.org/2000/svg">
<path fill-rule="evenodd" clip-rule="evenodd" d="M5 4.92981C2.23858 4.92981 0 7.16838 0 9.92981V14.1328C0 16.8942 2.23858 19.1328 5 19.1328H19C21.7614 19.1328 24 16.8942 24 14.1328V9.92981C24 7.16839 21.7614 4.92981 19 4.92981H5ZM2 9.92981C2 8.27295 3.34315 6.92981 5 6.92981H19C20.6569 6.92981 22 8.27296 22 9.92981V14.1328C22 15.7897 20.6569 17.1328 19 17.1328H5C3.34315 17.1328 2 15.7897 2 14.1328V9.92981ZM6 9C4.89543 9 4 9.89543 4 11V13C4 14.1046 4.89543 15 6 15C7.10457 15 8 14.1046 8 13V11C8 9.89543 7.10457 9 6 9Z" fill="black"/>
</svg>
