<svg width="24" height="24" viewBox="0 0 24 24" fill="none" xmlns="http://www.w3.org/2000/svg">
<path fill-rule="evenodd" clip-rule="evenodd" d="M5 5C2.23858 5 0 7.23858 0 10V14C0 16.7614 2.23858 19 5 19H19C21.7614 19 24 16.7614 24 14V10C24 7.23858 21.7614 5 19 5H5ZM2 10C2 8.34315 3.34315 7 5 7H19C20.6569 7 22 8.34315 22 10V14C22 15.6569 20.6569 17 19 17H5C3.34315 17 2 15.6569 2 14V10ZM18 9C16.8954 9 16 9.89543 16 11V13C16 14.1046 16.8954 15 18 15C19.1046 15 20 14.1046 20 13V11C20 9.89543 19.1046 9 18 9ZM10 11C10 9.89543 10.8954 9 12 9C13.1046 9 14 9.89543 14 11V13C14 14.1046 13.1046 15 12 15C10.8954 15 10 14.1046 10 13V11ZM6 9C4.89543 9 4 9.89543 4 11V13C4 14.1046 4.89543 15 6 15C7.10457 15 8 14.1046 8 13V11C8 9.89543 7.10457 9 6 9Z" fill="black"/>
</svg>
