<svg width="24" height="24" viewBox="0 0 24 24" fill="none" xmlns="http://www.w3.org/2000/svg">
<path fill-rule="evenodd" clip-rule="evenodd" d="M9 2C9 0.895431 9.89543 0 11 0H13C14.1046 0 15 0.895431 15 2V3C16.6569 3 18 4.34315 18 6V20C18 21.6569 16.6569 23 15 23H9C7.34315 23 6 21.6569 6 20V6C6 4.34315 7.34315 3 9 3V2ZM13 2V3H11V2H13ZM9 5H10H14H15C15.5523 5 16 5.44772 16 6V20C16 20.5523 15.5523 21 15 21H9C8.44772 21 8 20.5523 8 20V6C8 5.44772 8.44772 5 9 5ZM13.8137 10.0812C14.1347 9.63183 14.0307 9.00728 13.5812 8.68627C13.1318 8.36526 12.5073 8.46935 12.1863 8.91876L9.68627 12.4188C9.46854 12.7236 9.43943 13.1245 9.61083 13.4576C9.78224 13.7907 10.1254 14 10.5 14H11.5568L10.1863 15.9188C9.86526 16.3682 9.96935 16.9927 10.4188 17.3137C10.8682 17.6347 11.4927 17.5307 11.8137 17.0812L14.3137 13.5812C14.5315 13.2764 14.5606 12.8755 14.3892 12.5424C14.2178 12.2093 13.8746 12 13.5 12H12.4432L13.8137 10.0812Z" fill="black"/>
</svg>
