<svg width="24" height="24" viewBox="0 0 24 24" fill="none" xmlns="http://www.w3.org/2000/svg">
<path fill-rule="evenodd" clip-rule="evenodd" d="M11 6.04029C11 4.78253 9.5451 4.08327 8.56296 4.86899L4.64922 7.99998H3C1.34315 7.99998 0 9.34312 0 11V13C0 14.6568 1.34315 16 3 16H4.64922L8.56296 19.131C9.5451 19.9167 11 19.2174 11 17.9597V6.04029ZM5.89861 9.56172L9 7.0806V16.9194L5.89861 14.4382C5.54398 14.1545 5.10336 14 4.64922 14H3C2.44772 14 2 13.5523 2 13V11C2 10.4477 2.44772 9.99998 3 9.99998H4.64922C5.10336 9.99998 5.54398 9.84542 5.89861 9.56172ZM14.2426 7.94973C13.8521 7.55921 13.2189 7.55921 12.8284 7.94973C12.4379 8.34026 12.4379 8.97342 12.8284 9.36395C14.3905 10.926 14.3905 13.4587 12.8284 15.0208C12.4379 15.4113 12.4379 16.0445 12.8284 16.435C13.2189 16.8255 13.8521 16.8255 14.2426 16.435C16.5858 14.0919 16.5858 10.2929 14.2426 7.94973Z" fill="black"/>
</svg>
