<svg width="24" height="24" viewBox="0 0 24 24" fill="none" xmlns="http://www.w3.org/2000/svg">
<path fill-rule="evenodd" clip-rule="evenodd" d="M8.56296 4.86899C9.5451 4.08327 11 4.78253 11 6.04029V17.9597C11 19.2174 9.5451 19.9167 8.56296 19.131L4.64922 16H3C1.34315 16 0 14.6568 0 13V11C0 9.34312 1.34315 7.99998 3 7.99998H4.64922L8.56296 4.86899ZM9 7.0806L5.89861 9.56172C5.54398 9.84542 5.10336 9.99998 4.64922 9.99998H3C2.44772 9.99998 2 10.4477 2 11V13C2 13.5523 2.44772 14 3 14H4.64922C5.10336 14 5.54398 14.1545 5.89861 14.4382L9 16.9194V7.0806Z" fill="black"/>
</svg>
