<svg width="24" height="24" viewBox="0 0 24 24" fill="none" xmlns="http://www.w3.org/2000/svg">
<path fill-rule="evenodd" clip-rule="evenodd" d="M5.63557 13.636C9.15029 10.1213 14.8488 10.1213 18.3635 13.636C18.754 14.0266 19.3872 14.0266 19.7777 13.636C20.1682 13.2455 20.1682 12.6123 19.7777 12.2218C15.4819 7.92606 8.51713 7.92606 4.22136 12.2218C3.83084 12.6123 3.83084 13.2455 4.22136 13.636C4.61188 14.0266 5.24505 14.0266 5.63557 13.636ZM8.464 16.4645C10.4166 14.5118 13.5824 14.5118 15.5351 16.4645C15.9256 16.855 16.5588 16.855 16.9493 16.4645C17.3398 16.0739 17.3398 15.4408 16.9493 15.0503C14.2156 12.3166 9.78346 12.3166 7.04979 15.0503C6.65926 15.4408 6.65926 16.0739 7.04979 16.4645C7.44031 16.855 8.07348 16.855 8.464 16.4645ZM9.87804 17.8787C11.0496 16.7071 12.9491 16.7071 14.1207 17.8787C14.5112 18.2692 14.5112 18.9024 14.1207 19.2929L12.7065 20.7071C12.3159 21.0976 11.6828 21.0976 11.2923 20.7071L9.87804 19.2929C9.48752 18.9024 9.48752 18.2692 9.87804 17.8787Z" fill="black"/>
</svg>
