<svg width="24" height="24" viewBox="0 0 24 24" fill="none" xmlns="http://www.w3.org/2000/svg">
<path fill-rule="evenodd" clip-rule="evenodd" d="M3.52392 10.1421L11.9994 18.9996L20.4753 10.1421C15.613 5.95264 8.38617 5.95265 3.52392 10.1421ZM1.39299 9.3934C7.25086 3.53553 16.7483 3.53553 22.6062 9.3934C22.9907 9.77786 22.9975 10.399 22.6216 10.7919L13.429 20.3985L13.4136 20.4142C12.6326 21.1953 11.3663 21.1953 10.5852 20.4142L10.5698 20.3985L1.37758 10.7919C1.00169 10.399 1.00854 9.77785 1.39299 9.3934ZM13.25 15.5C13.25 16.1904 12.6904 16.75 12 16.75C11.3096 16.75 10.75 16.1904 10.75 15.5C10.75 14.8096 11.3096 14.25 12 14.25C12.6904 14.25 13.25 14.8096 13.25 15.5ZM13 9C13 8.44772 12.5523 8 12 8C11.4477 8 11 8.44772 11 9V12C11 12.5523 11.4477 13 12 13C12.5523 13 13 12.5523 13 12V9Z" fill="black"/>
</svg>
