<svg width="24" height="24" viewBox="0 0 24 24" fill="none" xmlns="http://www.w3.org/2000/svg">
<path fill-rule="evenodd" clip-rule="evenodd" d="M8.46406 16.4645C10.4167 14.5118 13.5825 14.5118 15.5351 16.4645C15.9257 16.855 16.5588 16.855 16.9493 16.4645C17.3399 16.0739 17.3399 15.4408 16.9493 15.0503C14.2157 12.3166 9.78352 12.3166 7.04985 15.0503C6.65933 15.4408 6.65933 16.0739 7.04985 16.4645C7.44038 16.855 8.07354 16.855 8.46406 16.4645ZM9.87811 17.8787C11.0497 16.7071 12.9492 16.7071 14.1207 17.8787C14.5113 18.2692 14.5113 18.9024 14.1207 19.2929L12.7065 20.7071C12.316 21.0976 11.6828 21.0976 11.2923 20.7071L9.87811 19.2929C9.48758 18.9024 9.48758 18.2692 9.87811 17.8787Z" fill="black"/>
</svg>
