<svg width="24" height="24" fill="none" xmlns="http://www.w3.org/2000/svg"><g clip-path="url(#clip0)"><path fill-rule="evenodd" clip-rule="evenodd" d="M3.037 2.495a1 1 0 0 1 1.11-.464 13.455 13.455 0 0 1 4.884 2.334A9.562 9.562 0 0 1 12 3.895c1.033 0 2.03.164 2.969.47a13.455 13.455 0 0 1 4.883-2.334 1 1 0 0 1 1.111.464c.65 1.112.719 2.35.58 3.461-.119.94-.395 1.86-.667 2.65A10.883 10.883 0 0 1 22 13.448c0 .633-.053 1.231-.157 1.795l.93-.216a1 1 0 1 1 .453 1.948l-2.128.494a7.269 7.269 0 0 1-1.146 1.634l.676.6a1 1 0 1 1-1.327 1.496l-.912-.81C16.609 21.51 14.358 22 12 22c-2.358 0-4.608-.49-6.389-1.612l-.912.81A1 1 0 0 1 3.372 19.7l.676-.6a7.266 7.266 0 0 1-1.146-1.633l-2.128-.494a1 1 0 0 1 .452-1.948l.93.216A9.964 9.964 0 0 1 2 13.447c0-1.742.405-3.39 1.124-4.84-.272-.79-.548-1.712-.666-2.65-.14-1.112-.072-2.35.579-3.462zM19.656 15.75l-3.264.758a1 1 0 0 0-.437 1.723l.854.757C15.51 19.657 13.86 20 12 20c-1.86 0-3.509-.343-4.81-1.012l.855-.757a1 1 0 0 0-.437-1.723l-3.264-.758C4.122 15.08 4 14.316 4 13.447c0-1.565.397-3.026 1.087-4.28a1 1 0 0 0 .066-.82c-.308-.858-.6-1.765-.71-2.64-.07-.554-.061-1.054.043-1.496C5.859 4.663 7.06 5.327 8.22 6.27a1 1 0 0 0 .997.154A7.562 7.562 0 0 1 12 5.895c.98 0 1.917.186 2.783.528a1 1 0 0 0 .997-.154c1.16-.942 2.36-1.606 3.734-2.058.104.442.114.942.044 1.496-.11.875-.403 1.782-.71 2.64a1 1 0 0 0 .065.82A8.862 8.862 0 0 1 20 13.446c0 .869-.122 1.633-.344 2.303zM16 13.5a1.5 1.5 0 1 0 0-3 1.5 1.5 0 0 0 0 3zm-7.879.121a1.5 1.5 0 1 0 0-3 1.5 1.5 0 0 0 0 3zM11 15a1 1 0 0 0-.707 1.707l1 1a1 1 0 0 0 1.414 0l1-1A1 1 0 0 0 13 15h-2z" fill="#000"/></g><defs><clipPath id="clip0"><path fill="#fff" d="M0 0h24v24H0z"/></clipPath></defs></svg>