<svg width="24" height="24" fill="none" xmlns="http://www.w3.org/2000/svg"><path fill-rule="evenodd" clip-rule="evenodd" d="M5 4a2 2 0 0 0-1.107 3.666A1 1 0 0 1 4.18 9.04 7.283 7.283 0 0 0 3 13c0 4.322 3.928 8 9 8s9-3.678 9-8a7.283 7.283 0 0 0-1.18-3.96 1 1 0 0 1 .287-1.374 2 2 0 1 0-2.953-2.437 1 1 0 0 1-1.31.536A9.897 9.897 0 0 0 12 5c-1.379 0-2.68.275-3.843.765a1 1 0 0 1-1.31-.536A2 2 0 0 0 5 4zM1 6a4 4 0 0 1 7.208-2.39A11.974 11.974 0 0 1 12 3c1.33 0 2.608.215 3.793.61a4 4 0 1 1 6.148 5.101A9.225 9.225 0 0 1 23 13c0 5.62-5.027 10-11 10S1 18.62 1 13c0-1.537.382-2.992 1.06-4.289A3.987 3.987 0 0 1 1 6zm11 7c-2.361 0-4.307.92-5.286 2.13a1 1 0 0 1-1.555-1.26c.554-.683 1.275-1.264 2.113-1.722A2.473 2.473 0 0 1 7 11c0-1.105.672-2 1.5-2s1.5.895 1.5 2c0 .064-.002.127-.007.189A10.67 10.67 0 0 1 12 11c.688 0 1.36.065 2.007.189A2.669 2.669 0 0 1 14 11c0-1.105.672-2 1.5-2s1.5.895 1.5 2c0 .427-.1.823-.272 1.148.838.458 1.56 1.04 2.113 1.723a1 1 0 1 1-1.555 1.258C16.307 13.92 14.361 13 12 13zm-1 2a1 1 0 0 0-.707 1.707l1 1a1 1 0 0 0 1.414 0l1-1A1 1 0 0 0 13 15h-2z" fill="#000"/></svg>