<svg width="24" height="24" fill="none" xmlns="http://www.w3.org/2000/svg"><path fill-rule="evenodd" clip-rule="evenodd" d="M12 1C9.762 1 8.109 2.647 7.772 4.599c-1.846-.678-4.085-.042-5.196 1.906-1.105 1.937-.534 4.22.978 5.495-1.512 1.275-2.083 3.558-.978 5.495 1.111 1.948 3.35 2.584 5.196 1.906C8.11 21.353 9.762 23 12 23c2.238 0 3.891-1.647 4.228-3.599 1.846.678 4.085.042 5.196-1.906 1.105-1.937.534-4.22-.977-5.495 1.511-1.275 2.082-3.558.977-5.495-1.111-1.948-3.35-2.584-5.196-1.906C15.89 2.647 14.238 1 12 1zM9.63 7.863l.017-.01a1 1 0 0 0 .374-1.362C9.129 4.92 10.26 3 12 3c1.74 0 2.87 1.921 1.98 3.49a1 1 0 0 0 .372 1.363l.017.01a1 1 0 0 0 1.365-.371 2.266 2.266 0 0 1 3.952.003c.894 1.568-.233 3.492-1.973 3.495a1 1 0 0 0-.998 1.002v.016a1 1 0 0 0 .998 1.002c1.74.003 2.867 1.927 1.973 3.495a2.266 2.266 0 0 1-3.952.003 1 1 0 0 0-1.365-.37l-.017.01a1 1 0 0 0-.373 1.361C14.871 19.08 13.74 21 12 21c-1.74 0-2.87-1.922-1.98-3.49a1 1 0 0 0-.373-1.363l-.016-.01a1 1 0 0 0-1.365.371 2.266 2.266 0 0 1-3.952-.003c-.894-1.568.233-3.492 1.973-3.495a1 1 0 0 0 .998-1.002v-.016a1 1 0 0 0-.998-1.002c-1.74-.003-2.867-1.927-1.973-3.495a2.266 2.266 0 0 1 3.952-.003 1 1 0 0 0 1.365.37zM12 15a3 3 0 1 0 0-6 3 3 0 0 0 0 6z" fill="#000"/></svg>