<svg width="24" height="24" fill="none" xmlns="http://www.w3.org/2000/svg"><path fill-rule="evenodd" clip-rule="evenodd" d="M3 2l.153-.988a1 1 0 0 0-1.047.54L3 2zm18 0l.895-.447v.003l.003.003.003.008.01.02.027.06c.02.046.047.11.077.19.06.159.133.382.205.67.144.577.28 1.409.28 2.493 0 1.084-.136 1.916-.28 2.493a6.208 6.208 0 0 1-.205.67 3.86 3.86 0 0 1-.104.25l-.01.02-.003.008-.002.003v.002h-.001L21 8l.894.447a.996.996 0 0 1-.506.475c.395.971.612 2.025.612 3.13 0 1.253-.363 2.83-.804 4.31a50.573 50.573 0 0 1-1.458 4.132c-.62 1.555-2.006 2.626-3.613 2.924l-2.27.422A2 2 0 0 1 12 23.208a2 2 0 0 1-1.855.632l-2.27-.422c-1.607-.298-2.993-1.37-3.613-2.924a50.577 50.577 0 0 1-1.458-4.132C2.363 14.882 2 13.305 2 12.052c0-1.105.217-2.159.612-3.13a.996.996 0 0 1-.506-.475L3 8c-.894.447-.895.447-.895.446v-.002l-.003-.003-.003-.008-.01-.02a3.844 3.844 0 0 1-.103-.25 6.208 6.208 0 0 1-.206-.67C1.636 6.916 1.5 6.084 1.5 5c0-1.084.136-1.916.28-2.493.072-.288.146-.511.206-.67a3.843 3.843 0 0 1 .103-.25l.01-.02.003-.008.002-.003v-.002h.001L3 2l.153-.988h.004l.006.001.017.003a4.332 4.332 0 0 1 .254.05c.166.034.4.089.69.17.58.162 1.382.43 2.299.858.927.432 1.611.877 2.072 1.223.085.063.162.123.231.18A10.945 10.945 0 0 1 12 3c1.152 0 2.26.176 3.294.503a14.065 14.065 0 0 1 2.26-1.398 12.663 12.663 0 0 1 2.297-.875 10.428 10.428 0 0 1 .984-.217l.019-.002.006-.001h.004L21 2zm0 0l-.135-.99a1 1 0 0 1 1.03.543L21 2zM5.577 3.906c.39.182.725.364 1.008.535L3.5 5c0-.786.084-1.39.175-1.812.485.14 1.147.366 1.902.718zm1.008.535L3.5 5c0 .897.11 1.557.214 1.981a9.686 9.686 0 0 1 2.87-2.54zm11.86-.546c-.383.19-.72.381-1.008.559a9.68 9.68 0 0 1 2.85 2.527c.103-.424.213-1.084.213-1.981 0-.794-.086-1.402-.178-1.825-.492.136-1.156.362-1.877.72zM8.854 5.567A8.89 8.89 0 0 1 12 5a8.89 8.89 0 0 1 3.146.567C18.056 6.667 20 9.198 20 12.053c0 .945-.289 2.289-.72 3.738a48.565 48.565 0 0 1-1.4 3.962c-.351.88-1.149 1.518-2.12 1.699l-2.27.421-.578-1.283a1 1 0 0 0-.91-.59 1 1 0 0 0 .798-.4l1.5-2a1 1 0 0 0-.8-1.6h-3a1 1 0 0 0-.8 1.6l1.5 2a1 1 0 0 0 .798.4 1 1 0 0 0-.91.59l-.578 1.283-2.27-.421c-.971-.18-1.769-.818-2.12-1.699a48.588 48.588 0 0 1-1.4-3.962C4.29 14.342 4 12.998 4 12.053c0-2.855 1.945-5.386 4.854-6.486zm.767 5.554a1.5 1.5 0 1 1-3 0 1.5 1.5 0 0 1 3 0zM16 12.5a1.5 1.5 0 1 0 0-3 1.5 1.5 0 0 0 0 3z" fill="#000"/></svg>