<svg width="24" height="24" fill="none" xmlns="http://www.w3.org/2000/svg"><g clip-path="url(#clip0)"><path fill-rule="evenodd" clip-rule="evenodd" d="M4.414 9.847C2.815 8.025 2.088 5.43 2.004 2.86c2.785-.341 5.647.106 7.682 1.795 2.214 1.837 4.037 4.937 5.414 7.78a135.09 135.09 0 0 0 1.415 2.84l.075.144.02.037.005.01.001.002v.001h.001L17.5 15l-.883.47a1 1 0 0 0 .541.47l3.315 1.205-1.92.96a1 1 0 0 0-.448.448l-.96 1.92-1.205-3.315a1 1 0 0 0-.47-.54L15 17.5l.47-.883h-.002l-.004-.003-.015-.008-.057-.03a84.26 84.26 0 0 0-.942-.49 55.919 55.919 0 0 0-2.066-1.01 28.362 28.362 0 0 1-5.81-3.313c.417-.08.827-.197 1.22-.35 1.312-.508 2.525-1.453 3.112-2.904a1 1 0 1 0-1.854-.75c-.329.811-1.04 1.425-1.98 1.79a5.376 5.376 0 0 1-2.658.298zm18.928 6.213l-5.135-1.867A129.567 129.567 0 0 1 17 11.77c.022-.557.228-1.003.519-1.302.317-.324.785-.526 1.392-.471a1 1 0 0 0 .925-1.545C17.89 5.49 14.17 3.42 10.732 2.93 7.885.717 4.075.434.825 1.015A1 1 0 0 0 0 1.979C-.066 5.106.694 8.665 2.941 11.2c.204 1.695.983 3.289 1.937 4.677 1.027 1.493 2.304 2.817 3.448 3.862a1 1 0 0 0 1.673-.785c-.032-.678.181-1.168.487-1.477.277-.278.7-.479 1.28-.483.594.277 1.247.604 1.773.873l.653.338 1.868 5.137a1 1 0 0 0 1.834.105l1.851-3.702 3.702-1.85a1 1 0 0 0-.105-1.835zm-7.254-6.99a3.641 3.641 0 0 0-.297.343c-.678-1.23-1.452-2.48-2.322-3.624 1.39.612 2.69 1.482 3.698 2.524a3.55 3.55 0 0 0-1.08.756zm-9.561 5.674a12.65 12.65 0 0 1-.62-.995 30.9 30.9 0 0 0 3.412 2.09 3.498 3.498 0 0 0-.923 1.176 18.553 18.553 0 0 1-1.87-2.271zM6.5 7a1.5 1.5 0 1 0 0-3 1.5 1.5 0 0 0 0 3z" fill="#000"/></g><defs><clipPath id="clip0"><path fill="#fff" d="M0 0h24v24H0z"/></clipPath></defs></svg>