<svg width="24" height="24" fill="none" xmlns="http://www.w3.org/2000/svg"><path fill-rule="evenodd" clip-rule="evenodd" d="M4 5.5a2.5 2.5 0 1 1 4.966.413c-.39.083-.77.181-1.143.294a1.5 1.5 0 1 0-1.82.708c-.359.173-.703.361-1.031.564A2.496 2.496 0 0 1 4 5.5zm7 0c0 .045 0 .089-.002.133a15.034 15.034 0 0 1 2.004 0 4.5 4.5 0 1 1 7.646 3.082C22.086 10.077 23 11.83 23 13.8c0 2.391-1.348 4.465-3.345 5.903C17.657 21.14 14.948 22 12 22c-2.948 0-5.657-.859-7.655-2.297C2.348 18.265 1 16.19 1 13.8c0-1.97.914-3.724 2.352-5.084A4.5 4.5 0 1 1 11 5.5zm8.028 1.979a11.42 11.42 0 0 0-1.03-.564 1.5 1.5 0 1 0-1.821-.708 13.68 13.68 0 0 0-1.143-.294 2.5 2.5 0 1 1 3.994 1.566zm-9.107.29c.666-.11 1.362-.169 2.079-.169.717 0 1.413.058 2.08.168 1.695.28 3.189.891 4.347 1.71C20.087 10.65 21 12.196 21 13.8c0 1.585-.89 3.111-2.513 4.28C16.866 19.247 14.575 20 12 20s-4.865-.753-6.487-1.92C3.89 16.91 3 15.385 3 13.8c0-1.604.913-3.149 2.573-4.322 1.158-.819 2.652-1.43 4.348-1.71zM7.684 12.05a1 1 0 0 1 1.257.611l.005.012c.01.02.03.062.064.117.067.11.19.277.39.45.387.33 1.15.759 2.6.759 1.45 0 2.213-.428 2.6-.76a1.92 1.92 0 0 0 .39-.449c.034-.055.054-.097.064-.117l.005-.011a1 1 0 0 1 1.89.653L16 13c.949.316.948.317.948.318v.001l-.001.003-.003.007-.005.016a1.377 1.377 0 0 1-.063.153c-.04.089-.098.204-.179.336a3.915 3.915 0 0 1-.796.925C15.12 15.43 13.884 16 12 16s-3.12-.572-3.9-1.24a3.917 3.917 0 0 1-.797-.926 3.096 3.096 0 0 1-.242-.49l-.005-.015-.003-.007v-.003l-.001-.001c0-.001 0-.002.948-.318l-.949.316a1 1 0 0 1 .633-1.265z" fill="#000"/></svg>