<svg width="24" height="24" fill="none" xmlns="http://www.w3.org/2000/svg"><path fill-rule="evenodd" clip-rule="evenodd" d="M11.705 1.045a1 1 0 0 1 1.12.39l8.2 12A1 1 0 0 1 20.2 15H13v1.03h7a1 1 0 0 1 1 1c0 2.159-1.824 3.385-3.518 4.033-1.77.677-3.898.937-5.482.937s-3.712-.26-5.482-.937C4.824 20.415 3 19.189 3 17.029a1 1 0 0 1 1-1h7V15H3.8a1 1 0 0 1-.788-1.616L11 3.156V2a1 1 0 0 1 .705-.955zM11 6.405L5.85 13H11V6.405zM13 13h5.305L13 5.236V13zm-7.616 5.03c.352.428.955.823 1.848 1.165C8.712 19.76 10.584 20 12 20s3.288-.24 4.768-.805c.893-.342 1.496-.737 1.848-1.166H5.384z" fill="#000"/></svg>