<svg width="24" height="24" fill="none" xmlns="http://www.w3.org/2000/svg"><path fill-rule="evenodd" clip-rule="evenodd" d="M12 1a1 1 0 0 1 1 1v2.062c.718.09 1.426.278 2.104.563l1.03-1.785a1 1 0 1 1 1.732 1l-1.031 1.786c.58.44 1.099.96 1.54 1.539l1.785-1.031a1 1 0 0 1 1 1.732l-1.785 1.03c.285.678.473 1.386.563 2.104H22a1 1 0 1 1 0 2h-2.062a7.995 7.995 0 0 1-.563 2.104l1.785 1.03a1 1 0 0 1-1 1.732l-1.786-1.031c-.44.58-.96 1.099-1.539 1.54l1.031 1.785a1 1 0 1 1-1.732 1l-1.03-1.785a7.995 7.995 0 0 1-2.104.563V22a1 1 0 1 1-2 0v-2.062a7.995 7.995 0 0 1-2.104-.563l-1.03 1.785a1 1 0 0 1-1.732-1l1.031-1.786a8.084 8.084 0 0 1-1.54-1.539L3.84 17.866a1 1 0 1 1-1-1.732l1.785-1.03A7.993 7.993 0 0 1 4.062 13H2a1 1 0 1 1 0-2h2.062c.09-.718.278-1.426.563-2.104L2.84 7.866a1 1 0 0 1 1-1.732l1.786 1.031c.44-.58.96-1.099 1.539-1.54L6.134 3.84a1 1 0 0 1 1.732-1l1.03 1.785A7.993 7.993 0 0 1 11 4.062V2a1 1 0 0 1 1-1zm0 5a5.993 5.993 0 0 0-6 6 5.993 5.993 0 0 0 6 6 5.993 5.993 0 0 0 6-6 5.993 5.993 0 0 0-6-6z" fill="#000"/></svg>