<svg width="24" height="24" fill="none" xmlns="http://www.w3.org/2000/svg"><path fill-rule="evenodd" clip-rule="evenodd" d="M5.367 3.226a1 1 0 0 1 1.407.14L12 9.755l5.226-6.387a1 1 0 0 1 1.548 1.266l-5.482 6.7L15.474 14H16.5a3.5 3.5 0 0 1 3.5 3.5v.5a3 3 0 1 1-6 0v-2.643l-2-2.444-2 2.444V18a3 3 0 1 1-6 0v-.5A3.5 3.5 0 0 1 7.5 14h1.026l2.182-2.667-5.482-6.7a1 1 0 0 1 .14-1.407zM8 16h-.5A1.5 1.5 0 0 0 6 17.5v.5a1 1 0 1 0 2 0v-2zm8 0v2a1 1 0 1 0 2 0v-.5a1.5 1.5 0 0 0-1.5-1.5H16z" fill="#000"/></svg>