<svg width="24" height="24" fill="none" xmlns="http://www.w3.org/2000/svg"><path fill-rule="evenodd" clip-rule="evenodd" d="M3 5a1 1 0 011-1h6a3 3 0 013 3v3a3 3 0 01-3 3h-.17c.11.313.17.65.17 1v3a3 3 0 01-3 3H4a1 1 0 110-2h3a1 1 0 001-1v-3a1 1 0 00-1-1H4a1 1 0 110-2h6a1 1 0 001-1V7a1 1 0 00-1-1H4a1 1 0 01-1-1zm11.707 8.293a1 1 0 00-1.414 1.414l1.793 1.793-1.793 1.793a1 1 0 001.414 1.414l1.793-1.793 1.793 1.793a1 1 0 001.414-1.414L17.914 16.5l1.793-1.793a1 1 0 00-1.414-1.414L16.5 15.086l-1.793-1.793z" fill="#000"/></svg>