<svg width="24" height="24" fill="none" xmlns="http://www.w3.org/2000/svg"><path fill-rule="evenodd" clip-rule="evenodd" d="M8 6a1 1 0 01.91.586l3.637 8 1.363 3a1 1 0 01-1.82.828L10.992 16H5.008L3.91 18.414a1 1 0 01-1.82-.828l1.363-3 3.637-8A1 1 0 018 6zm-2.083 8h4.166L8 9.417 5.917 14zm10.79 1.355c-.448.29-.644.605-.685.8-.043.205-.014.31.007.36a.477.477 0 00.182.2c.246.171.675.285 1.124.285.581 0 1.134-.164 1.548-.422.417-.261.624-.57.68-.836.034-.158-.005-.323-.187-.49-.196-.18-.57-.355-1.125-.355-.556 0-1.113.18-1.544.458zm-1.086-1.68a4.913 4.913 0 012.63-.778c.619 0 1.206.126 1.713.369l.035-.367c-.012-.122-.092-.314-.379-.515-.31-.218-.79-.384-1.369-.384-1.012 0-1.591.475-1.715.772A1 1 0 0114.69 12c.546-1.306 2.075-2 3.56-2 .94 0 1.833.266 2.519.747.682.48 1.23 1.236 1.23 2.184a.993.993 0 01-.005.095l-.458 4.827a1 1 0 01-1.777.529 5.012 5.012 0 01-2.425.618c-.697 0-1.572-.161-2.264-.64a2.466 2.466 0 01-.886-1.07c-.2-.476-.235-1.002-.12-1.548.189-.892.838-1.602 1.556-2.067z" fill="#000"/></svg>