<svg width="24" height="24" fill="none" xmlns="http://www.w3.org/2000/svg"><path fill-rule="evenodd" clip-rule="evenodd" d="M12.182 4.5h.075c2.395 0 3.803 1.2 4.41 1.77a1 1 0 11-1.37 1.458c-.457-.43-1.393-1.228-3.04-1.228h-.075a2.108 2.108 0 00-.662 4.11l1.178.39H19a1 1 0 110 2H5a1 1 0 110-2h3.842a4.107 4.107 0 013.34-6.5zM14.3 14h2.336a4.683 4.683 0 01-4.32 6.49h-.592c-1.877 0-3.18-.614-4.41-1.77a1 1 0 111.37-1.457c.898.843 1.724 1.228 3.04 1.228h.592A2.683 2.683 0 0014.301 14z" fill="#000"/></svg>