<svg width="24" height="24" fill="none" xmlns="http://www.w3.org/2000/svg"><path fill-rule="evenodd" clip-rule="evenodd" d="M12 4a1 1 0 011 1v6h6a1 1 0 110 2h-6v6a1 1 0 11-2 0v-6H5a1 1 0 110-2h6V5a1 1 0 011-1zM6 5a1 1 0 11-2 0 1 1 0 012 0zm2 1a1 1 0 100-2 1 1 0 000 2zm9-1a1 1 0 11-2 0 1 1 0 012 0zm2 1a1 1 0 100-2 1 1 0 000 2zm1 2a1 1 0 11-2 0 1 1 0 012 0zm-1 9a1 1 0 100-2 1 1 0 000 2zm1 2a1 1 0 11-2 0 1 1 0 012 0zm-4 1a1 1 0 100-2 1 1 0 000 2zm-7-1a1 1 0 11-2 0 1 1 0 012 0zm-4 1a1 1 0 100-2 1 1 0 000 2zm1-4a1 1 0 11-2 0 1 1 0 012 0zM5 9a1 1 0 100-2 1 1 0 000 2z" fill="#000"/></svg>