<svg width="24" height="24" fill="none" xmlns="http://www.w3.org/2000/svg"><path fill-rule="evenodd" clip-rule="evenodd" d="M5 4a1 1 0 011 1v14a1 1 0 11-2 0V5a1 1 0 011-1zm8 1a1 1 0 11-2 0 1 1 0 012 0zM8 6a1 1 0 100-2 1 1 0 000 2zm1 6a1 1 0 11-2 0 1 1 0 012 0zm7 1a1 1 0 100-2 1 1 0 000 2zm1-8a1 1 0 11-2 0 1 1 0 012 0zm2 1a1 1 0 100-2 1 1 0 000 2zm1 2a1 1 0 11-2 0 1 1 0 012 0zm-1 5a1 1 0 100-2 1 1 0 000 2zm1 3a1 1 0 11-2 0 1 1 0 012 0zm-1 4a1 1 0 100-2 1 1 0 000 2zm-2-1a1 1 0 11-2 0 1 1 0 012 0zm-9 1a1 1 0 100-2 1 1 0 000 2zm5-1a1 1 0 11-2 0 1 1 0 012 0zm-1-2a1 1 0 100-2 1 1 0 000 2zm1-5a1 1 0 11-2 0 1 1 0 012 0zm-1-3a1 1 0 100-2 1 1 0 000 2z" fill="#000"/></svg>