<svg width="24" height="24" fill="none" xmlns="http://www.w3.org/2000/svg"><path fill-rule="evenodd" clip-rule="evenodd" d="M12 4a8 8 0 100 16 8 8 0 000-16zM2 12C2 6.477 6.477 2 12 2s10 4.477 10 10-4.477 10-10 10S2 17.523 2 12zm7.247 3.319C9.555 14.876 10.39 14 12 14s2.445.876 2.752 1.319c.13.185.201.371.245.515.045.148.137.472.164.776a1.5 1.5 0 01-.1.723 1.114 1.114 0 01-.53.56c-.294.145-.58.125-.774.077-1.047-.262-1.409-.345-1.757-.345-.348 0-.71.083-1.758.345-.193.049-.479.068-.773-.077a1.114 1.114 0 01-.531-.56 1.5 1.5 0 01-.099-.723 4.08 4.08 0 01.164-.776 1.82 1.82 0 01.244-.515zM9 13.5a1.5 1.5 0 00.99-2.627l.139.056a1 1 0 00.742-1.857l-2.5-1a1 1 0 00-.742 1.856l1.431.573L9 10.5a1.5 1.5 0 000 3zm7.5-1.5a1.5 1.5 0 11-2.49-1.127l-.139.056a1 1 0 01-.742-1.857l2.5-1a1 1 0 01.742 1.856l-1.431.573.06-.001a1.5 1.5 0 011.5 1.5z" fill="#000"/></svg>