<svg width="24" height="24" fill="none" xmlns="http://www.w3.org/2000/svg"><path fill-rule="evenodd" clip-rule="evenodd" d="M12.64 1.232a1 1 0 0 0-1.28 1.536c.04.033.115.115.202.241A10.004 10.004 0 0 0 2.747 9.2a4.001 4.001 0 0 0 0 7.6A10.003 10.003 0 0 0 12 23c4.18 0 7.757-2.563 9.253-6.2a4.001 4.001 0 0 0 0-7.6 10.015 10.015 0 0 0-7.44-6.036c-.274-.947-.793-1.616-1.173-1.932zM11.956 5c-.126.712-.492 1.145-.596 1.232a1 1 0 1 0 1.28 1.536c.455-.38 1.111-1.266 1.304-2.53a8.017 8.017 0 0 1 5.614 5.132l.195.56.583.098a2 2 0 0 1 0 3.944l-.583.098-.195.56a8.004 8.004 0 0 1-15.116 0l-.195-.56-.583-.098a2 2 0 0 1 0-3.944l.583-.098.195-.56A8.004 8.004 0 0 1 11.956 5zM9.553 16.106a1 1 0 0 1 1.341.447c.092.183.457.447 1.106.447s1.014-.264 1.106-.447a1 1 0 1 1 1.788.894C14.32 18.597 13.018 19 12 19c-1.018 0-2.32-.403-2.894-1.553a1 1 0 0 1 .447-1.341zM15 14.5a1.5 1.5 0 1 0 0-3 1.5 1.5 0 0 0 0 3zM10.5 13a1.5 1.5 0 1 1-3 0 1.5 1.5 0 0 1 3 0z" fill="#000"/></svg>