<svg width="24" height="24" fill="none" xmlns="http://www.w3.org/2000/svg"><path fill-rule="evenodd" clip-rule="evenodd" d="M5.78 7.969c.202-.013.412-.05.627-.117C7.674 7.464 8.843 6.87 9.96 6.2A2.99 2.99 0 0 0 12 7a2.99 2.99 0 0 0 2.04-.8c1.117.67 2.286 1.264 3.553 1.652.215.066.425.104.628.117a7.985 7.985 0 0 1 1.337 2.401l.195.56.583.098a2 2 0 0 1 0 3.944l-.583.098-.195.56a8.004 8.004 0 0 1-15.116 0l-.195-.56-.583-.098a2 2 0 0 1 0-3.944l.583-.098.195-.56A7.984 7.984 0 0 1 5.78 7.97zm-1.933-.76A2.99 2.99 0 0 1 3 5.143V2.857C3 1.19 4.497-.437 6.407.147c1.267.389 2.436.983 3.553 1.654A2.99 2.99 0 0 1 12 1a2.99 2.99 0 0 1 2.04.8c1.117-.67 2.286-1.264 3.553-1.652C19.503-.437 21 1.19 21 2.857v2.286a2.99 2.99 0 0 1-.847 2.066 9.978 9.978 0 0 1 1.1 1.991 4 4 0 0 1 0 7.6A10.003 10.003 0 0 1 12 23c-4.18 0-7.757-2.563-9.253-6.2a4.001 4.001 0 0 1 0-7.6 9.982 9.982 0 0 1 1.1-1.991zM9.03 3.576C7.956 2.923 6.913 2.393 5.82 2.06a.53.53 0 0 0-.529.114.902.902 0 0 0-.292.683v2.286c0 .298.128.542.292.683a.53.53 0 0 0 .53.114c1.09-.334 2.134-.864 3.208-1.516a3.025 3.025 0 0 1 0-.849zm9.149 2.364c-1.092-.334-2.135-.864-3.209-1.516a3.032 3.032 0 0 0 0-.849c1.074-.65 2.117-1.18 3.209-1.515a.53.53 0 0 1 .529.114.902.902 0 0 1 .292.683v2.286a.902.902 0 0 1-.292.683.53.53 0 0 1-.53.114zM11 4a1 1 0 1 1 2 0 1 1 0 0 1-2 0zm-.106 12.553a1 1 0 1 0-1.788.894C9.68 18.597 10.982 19 12 19c1.018 0 2.32-.403 2.894-1.553a1 1 0 1 0-1.788-.894c-.092.183-.457.447-1.106.447s-1.014-.264-1.106-.447zM16.5 13a1.5 1.5 0 1 1-3 0 1.5 1.5 0 0 1 3 0zM9 14.5a1.5 1.5 0 1 0 0-3 1.5 1.5 0 0 0 0 3z" fill="#000"/></svg>