<svg width="24" height="24" fill="none" xmlns="http://www.w3.org/2000/svg"><path fill-rule="evenodd" clip-rule="evenodd" d="M5.07 8A7.997 7.997 0 0112 4a7.997 7.997 0 016.93 4H5.07zm-.911 2.406a8 8 0 1015.683 0C19.412 12.293 18.121 14 16 14c-2.268 0-3.59-1.967-3.91-4h-.18c-.32 2.033-1.642 4-3.91 4-2.123 0-3.413-1.708-3.841-3.594zM12 2C6.477 2 2 6.477 2 12s4.477 10 10 10 10-4.477 10-10S17.523 2 12 2zM8.757 15.03a1 1 0 011.21.714C10.227 16.614 11.16 17 12 17c.84 0 1.772-.385 2.033-1.256a1 1 0 011.937.496C15.452 17.988 13.785 19 12 19c-1.717 0-3.531-1.001-3.97-2.758a1 1 0 01.727-1.212z" fill="#000"/></svg>