<svg width="24" height="24" fill="none" xmlns="http://www.w3.org/2000/svg"><path fill-rule="evenodd" clip-rule="evenodd" d="M4 12a8 8 0 1 1 16 0 8 8 0 0 1-16 0zm8-10C6.477 2 2 6.477 2 12s4.477 10 10 10 10-4.477 10-10S17.523 2 12 2zm0 17a3 3 0 1 0 0-6 3 3 0 0 0 0 6zm1.293-10.707a1 1 0 0 1 1.414 0l.793.793.793-.793a1 1 0 1 1 1.414 1.414l-.793.793.793.793a1 1 0 0 1-1.414 1.414l-.793-.793-.793.793a1 1 0 0 1-1.414-1.414l.793-.793-.793-.793a1 1 0 0 1 0-1.414zm-2.586 1.414a1 1 0 0 0-1.414-1.414l-.793.793-.793-.793a1 1 0 0 0-1.414 1.414l.793.793-.793.793a1 1 0 1 0 1.414 1.414l.793-.793.793.793a1 1 0 0 0 1.414-1.414l-.793-.793.793-.793z" fill="#000"/></svg>