<svg width="24" height="24" fill="none" xmlns="http://www.w3.org/2000/svg"><path fill-rule="evenodd" clip-rule="evenodd" d="M4 12a8 8 0 1 1 16 0 8 8 0 0 1-16 0zm8-10C6.477 2 2 6.477 2 12s4.477 10 10 10 10-4.477 10-10S17.523 2 12 2zM8.03 15.242A1.012 1.012 0 0 1 9 14h6c.633 0 1.126.617.97 1.24C15.452 16.988 13.785 18 12 18c-1.717 0-3.531-1.001-3.97-2.758zm.436-5.774c-.079-.45-1.03-1.433-1.8-1.298-.923.163-1.335.955-1.182 1.822.14.789.74 1.437 1.39 1.938.659.508 1.428.91 2 1.192.153.075.341.042.458-.08.442-.461 1.027-1.102 1.473-1.805.438-.693.782-1.508.643-2.296-.153-.868-.815-1.47-1.738-1.307-.768.135-1.32 1.405-1.244 1.834zm5.82-1.835c.769.136 1.327 1.386 1.248 1.835.075-.429 1.028-1.434 1.796-1.298.923.163 1.339.955 1.186 1.822-.14.789-.74 1.437-1.39 1.938-.659.508-1.428.91-2 1.192a.398.398 0 0 1-.458-.08c-.442-.461-1.027-1.102-1.473-1.805-.438-.693-.782-1.508-.643-2.296.153-.868.811-1.47 1.734-1.308z" fill="#000"/></svg>