<svg width="24" height="24" fill="none" xmlns="http://www.w3.org/2000/svg"><path fill-rule="evenodd" clip-rule="evenodd" d="M22.71 5.794c-.285-.312-2.44-2.614-5.384-4.029-1.481-.712-3.22-1.228-5.058-1.105-1.72.115-3.457.787-5.077 2.254-2.054-.372-3.633.013-4.697 1.108-1.089 1.12-1.398 2.752-1.431 4.205-.034 1.49.218 3.016.468 4.146a23.85 23.85 0 0 0 .47 1.786C2.086 19.61 6.531 24 12 24c5.235 0 9.53-4.023 9.964-9.146l1.023-8.185a1.092 1.092 0 0 0-.277-.875zM4.99 7.373a8.367 8.367 0 0 0-1.877 2.25c-.04-.45-.06-.905-.05-1.35.029-1.297.313-2.29.865-2.857.485-.499 1.411-.897 3.343-.443a1 1 0 0 0 .936-.266c1.406-1.405 2.837-1.96 4.194-2.051 1.384-.093 2.772.293 4.059.912 2.129 1.023 3.82 2.602 4.489 3.278l-.298 2.389a8.413 8.413 0 0 0-1.64-1.862C17.171 5.817 14.68 5 12 5c-2.682 0-5.172.817-7.01 2.373zM20 14c0 .219-.009.436-.026.65l-.088.701A8 8 0 0 1 4 14c0-2.192.878-3.912 2.282-5.1C7.702 7.697 9.712 7 12 7c2.289 0 4.298.698 5.718 1.9C19.122 10.087 20 11.807 20 14zM8.03 17.243A1.013 1.013 0 0 1 9 16h6c.633 0 1.126.617.97 1.24C15.452 18.988 13.785 20 12 20c-1.717 0-3.531-1.001-3.97-2.757zM16.5 12a1.5 1.5 0 1 1-3 0 1.5 1.5 0 0 1 3 0zM9 13.5a1.5 1.5 0 1 0 0-3 1.5 1.5 0 0 0 0 3z" fill="#000"/></svg>