<svg width="24" height="24" fill="none" xmlns="http://www.w3.org/2000/svg"><path fill-rule="evenodd" clip-rule="evenodd" d="M5 2.038a1 1 0 0 0-1.707-.745l-2 2a1 1 0 0 0 1.414 1.414l.196-.195-.402 10.45a1 1 0 0 0 1.998.076l.5-13zM18.083 1c-1.364 0-2.362.96-2.961 2.01-.615 1.076-.955 2.464-.955 3.841 0 1.601.304 2.997.896 4.03.6 1.047 1.56 1.8 2.796 1.8 1.406 0 2.477-.809 3.15-1.899.663-1.073.99-2.475.99-3.931 0-1.603-.317-2.874-.808-3.837a1 1 0 1 0-1.782.908c.325.638.59 1.588.59 2.929 0 1.186-.27 2.2-.692 2.88-.41.665-.909.95-1.448.95-.318 0-.704-.172-1.06-.795-.366-.636-.632-1.655-.632-3.035 0-1.077.272-2.114.692-2.85.435-.763.896-1.001 1.224-1.001a1 1 0 1 0 0-2zm2.749 15.644c-4.597-.741-9.76-.493-13.454 1.018a1 1 0 1 1-.757-1.852c4.143-1.694 9.706-1.918 14.53-1.14a1 1 0 1 1-.32 1.974zm-8.446 3.597c-3.109.439-5.869 1.305-7.69 2.312a1 1 0 1 1-.968-1.75c2.095-1.158 5.107-2.08 8.378-2.543 3.28-.463 6.896-.475 10.21.248a1 1 0 0 1-.427 1.954c-3.031-.662-6.402-.66-9.503-.221zM7.22 3.056C7.92 1.854 9.003 1 10.5 1c.775 0 1.44.273 1.963.748.502.456.834 1.06 1.057 1.682.441 1.232.539 2.777.48 4.192-.077 1.807-.575 3.42-1.369 4.566-.781 1.128-2.002 1.976-3.445 1.681-1.169-.24-2.064-1.07-2.601-2.194-.533-1.116-.74-2.555-.58-4.192.166-1.704.538-3.263 1.215-4.427zM8.95 4.062c-.469.805-.8 2.036-.954 3.615-.134 1.379.058 2.431.394 3.135.333.696.778 1.012 1.199 1.098.339.07.854-.075 1.4-.861.532-.77.95-1.993 1.013-3.51.055-1.314-.05-2.559-.364-3.435-.155-.432-.338-.712-.519-.875A.858.858 0 0 0 10.5 3c-.598 0-1.104.294-1.551 1.062z" fill="#000"/></svg>