<svg width="24" height="24" fill="none" xmlns="http://www.w3.org/2000/svg"><path fill-rule="evenodd" clip-rule="evenodd" d="M10.307 1a1 1 0 0 0-.857 1.516c.299.496.354 1.082.255 1.428a.436.436 0 0 1-.084.179.413.413 0 0 1-.153-.02c-1.758-.462-3.205.484-3.883 1.518a3.573 3.573 0 0 0-.473 2.852 3.998 3.998 0 0 0-1.794 5.091A4.5 4.5 0 0 0 5.5 22h13a4.5 4.5 0 0 0 2.182-8.436 3.999 3.999 0 0 0-1.892-5.142c.445-1.402.207-3.105-.97-4.3C15.733 2.005 13.108 1 10.306 1zm-.673 3.119s-.003.002-.01.003c.006-.003.01-.004.01-.003zm1.994.375c.123-.431.152-.908.093-1.387 1.743.272 3.337 1.062 4.674 2.418.777.79.77 2.113.184 2.903a1 1 0 0 0 .677 1.588 2 2 0 0 1 1.195 3.36 1 1 0 0 0 .533 1.67A2.501 2.501 0 0 1 18.5 20h-13a2.5 2.5 0 0 1-.484-4.953 1 1 0 0 0 .533-1.67 2 2 0 0 1 1.082-3.343 1 1 0 0 0 .644-1.547 1.606 1.606 0 0 1-.019-1.768c.328-.499.97-.874 1.703-.681.613.16 1.232.103 1.752-.237.5-.326.78-.826.917-1.307zM8.03 16.242A1.012 1.012 0 0 1 9 15h6c.633 0 1.126.617.97 1.24C15.452 17.988 13.785 19 12 19c-1.717 0-3.531-1.001-3.97-2.758zM16.5 12a1.5 1.5 0 1 1-3 0 1.5 1.5 0 0 1 3 0zM9 13.5a1.5 1.5 0 1 0 0-3 1.5 1.5 0 0 0 0 3z" fill="#000"/></svg>