<svg width="24" height="24" fill="none" xmlns="http://www.w3.org/2000/svg"><path fill-rule="evenodd" clip-rule="evenodd" d="M4.1 13.27A8.004 8.004 0 0118.05 6.764c.188-.038.386-.076.59-.112a15.953 15.953 0 011.668-.219C17.614 2.4 12.306.823 7.774 2.937 3.24 5.05 1.037 10.13 2.394 14.787c.384-.399.831-.796 1.24-1.138.16-.132.316-.26.465-.379zm3.892 5.654a3.552 3.552 0 01-1.297 1.554 9.991 9.991 0 009.531.585 9.992 9.992 0 005.68-7.68c-.643.19-1.343.2-2.025-.004a7.99 7.99 0 01-4.5 5.871 7.99 7.99 0 01-7.389-.326zm1.78-2.307a1.013 1.013 0 01.354-1.537l5.438-2.536c.574-.267 1.281.084 1.404.715.269 1.803-.814 3.424-2.432 4.179-1.556.725-3.624.585-4.764-.821zM21.607 8.01a2.071 2.071 0 11-1.416 3.893c-1.075-.392-3.184-3.363-3.184-3.363s3.526-.92 4.6-.53zm-17.6 11.441a2.07 2.07 0 002.654-1.237c.391-1.076-.53-4.603-.53-4.603s-2.971 2.11-3.363 3.185a2.073 2.073 0 001.239 2.655zM15.432 6.596a1 1 0 00-1.405.162l-2.085 2.627a1 1 0 00.756 1.621l3.353.092a1 1 0 00.055-2l-1.354-.036L15.594 8a1 1 0 00-.162-1.405zm-8.75 3.587a1 1 0 10-.056 2l1.354.037-.842 1.06a1 1 0 101.567 1.243l2.085-2.627a1 1 0 00-.756-1.621l-3.353-.092z" fill="#000"/></svg>