<svg width="24" height="24" fill="none" xmlns="http://www.w3.org/2000/svg"><path fill-rule="evenodd" clip-rule="evenodd" d="M12 2c1.356 0 2.65.27 3.83.76a2.494 2.494 0 0 0-.168 2.126 8 8 0 1 0 3.94 4.615H21c.23-.001.451-.032.662-.09.22.826.338 1.694.338 2.589 0 5.523-4.477 10-10 10S2 17.523 2 12 6.477 2 12 2zm0 16a2 2 0 1 0 0-4 2 2 0 0 0 0 4zm-5.6-7.8a1 1 0 0 1 1.4.2.875.875 0 0 0 1.4 0 1 1 0 0 1 1.6 1.2 2.875 2.875 0 0 1-4.6 0 1 1 0 0 1 .2-1.4zm8.4.2a1 1 0 0 0-1.6 1.2 2.875 2.875 0 0 0 4.6 0 1 1 0 0 0-1.6-1.2.875.875 0 0 1-1.4 0zM17 4a1 1 0 0 0 1 1h.586l-1.293 1.293A1 1 0 0 0 18 8h3a1 1 0 1 0 0-2h-.586l1.293-1.293A1 1 0 0 0 21 3h-3a1 1 0 0 0-1 1z" fill="#000"/></svg>