<svg width="24" height="24" fill="none" xmlns="http://www.w3.org/2000/svg"><path fill-rule="evenodd" clip-rule="evenodd" d="M4.303 9.812a8.004 8.004 0 0115.394 0c.186.045.381.094.582.147.515.137 1.088.308 1.604.507C21.145 5.671 17.001 2 12 2c-5.001 0-9.145 3.672-9.883 8.467.516-.2 1.089-.37 1.604-.508.2-.053.396-.102.582-.147zm1.138 6.77c-.531.473-1.17.76-1.832.86A9.992 9.992 0 0012 22a9.992 9.992 0 008.392-4.56 3.554 3.554 0 01-1.832-.86A7.99 7.99 0 0112 20a7.99 7.99 0 01-6.559-3.418zm2.589-1.34A1.012 1.012 0 019 14h6c.633 0 1.126.617.97 1.24C15.452 16.988 13.785 18 12 18c-1.717 0-3.531-1.001-3.97-2.758zm14.363-2.798a2.071 2.071 0 11-2.928 2.93C18.655 14.563 18 10.98 18 10.98s3.585.656 4.393 1.464zM1.607 15.375c.808.81 2.12.81 2.929 0C5.344 14.566 6 10.98 6 10.98s-3.585.656-4.393 1.465a2.073 2.073 0 000 2.93zm9.185-4.476a1 1 0 01-1.382.299c-.344-.222-.827-.33-1.62-.05a1 1 0 11-.667-1.886c1.251-.443 2.404-.369 3.371.255a1 1 0 01.298 1.382zm3.798.299a1 1 0 11-1.084-1.681c.967-.624 2.12-.698 3.37-.255a1 1 0 01-.666 1.885c-.793-.28-1.276-.171-1.62.05z" fill="#000"/></svg>