<svg width="24" height="24" fill="none" xmlns="http://www.w3.org/2000/svg"><path fill-rule="evenodd" clip-rule="evenodd" d="M16 1c.863 0 1.567.43 2 .771.433-.34 1.137-.771 2-.771 1.59 0 3 1.22 3 2.867 0 1.401-.83 2.64-1.681 3.577-.878.965-1.946 1.789-2.727 2.362a1 1 0 01-1.183 0c-.782-.573-1.85-1.397-2.728-2.362C13.83 6.507 13 5.268 13 3.867 13 2.22 14.41 1 16 1zm0 2c-.618 0-1 .452-1 .867 0 .631.399 1.393 1.161 2.231.554.61 1.22 1.172 1.839 1.651.62-.479 1.285-1.041 1.839-1.65C20.601 5.26 21 4.498 21 3.866 21 3.452 20.618 3 20 3c-.468 0-.933.433-1.209.778a1 1 0 01-1.582.002v-.002C16.931 3.432 16.466 3 16 3zM3 12.467C3 11.113 4.11 10 5.5 10S8 11.113 8 12.467a1 1 0 102 0C10 11.113 11.11 10 12.5 10s2.5 1.113 2.5 2.467c0 1.524-.882 3.15-2.246 4.743-1.146 1.337-2.538 2.543-3.754 3.516-1.216-.973-2.608-2.18-3.754-3.516C3.882 15.617 3 13.99 3 12.467zM5.5 8c1.41 0 2.674.646 3.5 1.659A4.508 4.508 0 0112.5 8c2.476 0 4.5 1.99 4.5 4.467 0 2.251-1.268 4.34-2.727 6.044-1.481 1.729-3.297 3.218-4.659 4.278a1 1 0 01-1.228 0c-1.362-1.06-3.178-2.55-4.659-4.278C2.267 16.807 1 14.718 1 12.467 1 9.99 3.024 8 5.5 8z" fill="#000"/></svg>