<svg width="24" height="24" fill="none" xmlns="http://www.w3.org/2000/svg"><path fill-rule="evenodd" clip-rule="evenodd" d="M14.636.368a1 1 0 00-1.568.41l-.226.581a8.668 8.668 0 00-1.709-.357c-.8-.09-1.65-.098-2.3.012a1 1 0 00-.814 1.18l.49 2.475c-.13.07-.255.142-.376.218L2.555 1.168A1 1 0 001.26 2.673l4.467 4.913c-.21.376-.393.746-.557 1.084l-.084.174c-.31.638-.54 1.113-.8 1.464-.844 1.139-1.962 3.038-2.742 4.41a3.877 3.877 0 00.477 4.479 3.939 3.939 0 005.199.636l2.249-1.557c-.21.493-.439 1.038-.67 1.605-.525 1.29-.055 2.53.809 3.273a3.22 3.22 0 003.333.527c2.175-.9 4.66-1.75 6.803-2.285 1.527-.38 2.92-1.598 3.11-3.352.395-3.667-.177-6.638-1.244-9.142-1.271-2.986-3.12-5.358-6.974-8.534zm-3.73 2.621c.46.053.878.137 1.21.238l-.277.71a8.172 8.172 0 00-1.416.102l-.218-1.102c.223.008.46.025.702.052zm1.23 14.179l.004-.009c.72.032 1.427-.05 2.096-.289 1.112-.398 2.015-1.198 2.65-2.405a1 1 0 00-1.771-.93c-.426.81-.962 1.24-1.554 1.452-.618.222-1.4.241-2.35.036a1 1 0 00-.78.155l-4.35 3.01c-.808.56-1.909.426-2.558-.313a1.877 1.877 0 01-.24-2.168c.787-1.384 1.849-3.18 2.61-4.209.38-.51.695-1.164.979-1.754l.097-.2c.33-.682.66-1.327 1.09-1.893.42-.553.921-1.009 1.581-1.31.66-.302 1.547-.48 2.785-.374a1 1 0 001.018-.634l.98-2.523c2.955 2.581 4.351 4.537 5.347 6.875.934 2.193 1.454 4.821 1.095 8.144-.08.739-.699 1.4-1.605 1.627-2.256.562-4.836 1.446-7.085 2.377a1.22 1.22 0 01-1.264-.196c-.305-.262-.416-.617-.26-1.002a110.122 110.122 0 011.485-3.467zm-1.143-5.67a1.574 1.574 0 000-3.15c-.868.001-1.572.706-1.572 1.576 0 .87.704 1.575 1.572 1.575z" fill="#000"/></svg>