<svg width="24" height="24" fill="none" xmlns="http://www.w3.org/2000/svg"><path fill-rule="evenodd" clip-rule="evenodd" d="M12 3C6.37 3 2.032 7.616 2 13.616c-.01 2.041.4 4.104 2.008 6.384H5.27a9.2 9.2 0 0 1-2.257-4.835 1.001 1.001 0 0 1 .847-1.157l.004-.001c4.58-.939 7.794-4.147 9.186-8.323a1 1 0 0 1 1.077-.676.997.997 0 0 1 .418.035C18.286 6.173 21 9.686 21 13.83c0 2.371-.89 4.538-2.352 6.169h1.321c1.237-1.922 2.041-4.424 2.03-6.384C21.97 7.616 17.63 3 12 3zm2.627 4.194c-1.636 4.096-4.908 7.326-9.453 8.557C6 18.787 8.734 21 11.959 21 15.833 21 19 17.805 19 13.83c0-3.004-1.813-5.568-4.373-6.636zM3.5 22H7.85c1.232.64 2.628 1 4.11 1a8.899 8.899 0 0 0 4.135-1.012c.05.008.103.012.156.012h4.25a1 1 0 0 0 .815-.42c1.603-2.257 2.699-5.39 2.685-7.974C23.963 6.634 18.856 1 12 1S.037 6.634 0 13.606c-.013 2.53.551 5.159 2.703 7.998A1 1 0 0 0 3.5 22zm6.5-6c-.634 0-1.126.62-.97 1.242C9.469 19 11 20 12 20c.922 0 2.453-1.012 2.97-2.76.156-.623-.337-1.24-.97-1.24h-4zm5-2.5a1.5 1.5 0 1 0 0-3 1.5 1.5 0 0 0 0 3z" fill="#000"/></svg>