<svg width="24" height="24" fill="none" xmlns="http://www.w3.org/2000/svg"><path fill-rule="evenodd" clip-rule="evenodd" d="M12.52 3.046a3 3 0 00-2.13 5.486 1 1 0 01.306 1.38l-3.922 6.163a2 2 0 11-1.688-1.073l3.44-5.405a5 5 0 118.398-2.728 1 1 0 11-1.97-.348 3 3 0 00-2.433-3.475zM10 6a2 2 0 113.774.925l3.44 5.405a5 5 0 11-1.427 8.5 1 1 0 011.285-1.532 3 3 0 10.317-4.83 1 1 0 01-1.38-.307l-3.923-6.163A2 2 0 0110 6zm-5.428 6.9a1 1 0 01-.598 1.281A3 3 0 108.001 17a1 1 0 011-1h8.266a2 2 0 110 2H9.9a5 5 0 11-6.61-5.698 1 1 0 011.282.597z" fill="#000"/></svg>