<svg width="24" height="24" fill="none" xmlns="http://www.w3.org/2000/svg"><path fill-rule="evenodd" clip-rule="evenodd" d="M14 4c0 .08-.005.158-.014.234.622.161 1.17.402 1.65.715L14.17 6.416C13.64 6.166 12.94 6 12 6c-1.328 0-2.175.329-2.739.762-.57.438-.947 1.057-1.196 1.804-.252.755-.358 1.593-.412 2.407-.022.327-.035.637-.047.936l-.01.216c-.014.32-.03.645-.063.928l-2.568 2.568c.238-.72.42-1.6.575-2.754.027-.199.043-.468.058-.829l.009-.202c.012-.3.027-.642.05-.997.059-.873.179-1.91.51-2.905.335-1.003.9-2.009 1.876-2.758a5.427 5.427 0 0 1 1.97-.942A2 2 0 1 1 14 4zm-2 19a2 2 0 0 0 1.732-3H20a1 1 0 0 0 .707-1.707c-.673-.673-1.125-1.318-1.463-2.119-.346-.82-.589-1.845-.784-3.307a10.176 10.176 0 0 1-.058-.829l-.009-.202c-.012-.3-.027-.642-.05-.997-.033-.489-.085-1.03-.183-1.585l-1.807 1.807c.018.295.03.576.041.848l.01.216c.015.35.033.707.073 1.008.206 1.538.479 2.763.924 3.818.157.373.334.72.532 1.049H9.414l-2 2h2.854A2 2 0 0 0 12 23zm7.707-17.293a1 1 0 0 0-1.414-1.414l-16 16a1 1 0 1 0 1.414 1.414l16-16z" fill="#000"/></svg>