<svg width="24" height="24" fill="none" xmlns="http://www.w3.org/2000/svg"><path fill-rule="evenodd" clip-rule="evenodd" d="M8.043 5.176a5.427 5.427 0 011.97-.942 2 2 0 113.973 0 5.427 5.427 0 011.971.942c.976.75 1.541 1.755 1.875 2.758.332.995.452 2.032.51 2.905.024.355.039.696.051.997l.009.203c.015.36.031.63.058.828.195 1.462.438 2.487.784 3.307.338.801.79 1.446 1.463 2.119A1 1 0 0120 20h-6.268a2 2 0 11-3.465 0H4a1 1 0 01-.707-1.707c.674-.674 1.126-1.314 1.463-2.112.344-.817.587-1.842.784-3.314.027-.199.043-.468.058-.829l.009-.202c.012-.3.027-.642.05-.997.059-.873.179-1.91.51-2.905.335-1.003.9-2.009 1.876-2.758zM6.069 18c.197-.326.372-.67.529-1.041.445-1.053.718-2.279.925-3.826a11.9 11.9 0 00.073-1.007l.01-.216c.012-.3.025-.61.047-.937.054-.814.16-1.652.412-2.407.25-.747.626-1.366 1.196-1.804C9.825 6.329 10.672 6 12 6c1.328 0 2.175.329 2.739.762.57.438.947 1.057 1.196 1.804.252.755.358 1.593.412 2.407.022.327.035.637.047.936l.01.216c.015.35.033.707.073 1.008.206 1.538.479 2.763.924 3.818.157.373.334.72.532 1.049H6.07z" fill="#000"/></svg>