<svg width="24" height="24" fill="none" xmlns="http://www.w3.org/2000/svg"><path fill-rule="evenodd" clip-rule="evenodd" d="M11 15.646a4 4 0 11-2.442-6.607 4 4 0 116.885 0A4 4 0 1113 15.646V19h.999a1 1 0 110 2h-4a1 1 0 110-2h1v-3.354zm-.377-5.532c-.236.41-3.155.958-3.155.958a2.001 2.001 0 101.986 3.302S11.5 12 12 12c.5 0 2.552 2.38 2.552 2.38A2.004 2.004 0 0016 15a2 2 0 00.532-3.928s-2.933-.572-3.155-.958c-.11-.192.045-.694.228-1.286C13.789 8.235 14 7.553 14 7a2 2 0 10-4 0c0 .546.21 1.213.393 1.797.188.599.349 1.11.23 1.317z" fill="#000"/></svg>