<svg width="24" height="24" fill="none" xmlns="http://www.w3.org/2000/svg"><path fill-rule="evenodd" clip-rule="evenodd" d="M6.301 15.577C4.778 14.268 3.691 12.773 3.18 12c.51-.773 1.598-2.268 3.121-3.577C7.874 7.072 9.816 6 12 6c2.184 0 4.126 1.072 5.699 2.423 1.523 1.309 2.61 2.804 3.121 3.577-.51.773-1.598 2.268-3.121 3.577C16.126 16.928 14.184 18 12 18c-2.184 0-4.126-1.072-5.699-2.423zM12 4C9.148 4 6.757 5.395 4.998 6.906c-1.765 1.517-2.99 3.232-3.534 4.064a1.876 1.876 0 0 0 0 2.06c.544.832 1.769 2.547 3.534 4.064C6.758 18.605 9.148 20 12 20c2.852 0 5.243-1.395 7.002-2.906 1.765-1.517 2.99-3.232 3.534-4.064.411-.628.411-1.431 0-2.06-.544-.832-1.769-2.547-3.534-4.064C17.242 5.395 14.852 4 12 4zm-2 8a2 2 0 1 1 4 0 2 2 0 0 1-4 0zm2-4a4 4 0 1 0 0 8 4 4 0 0 0 0-8z" fill="#000"/></svg>