<svg width="24" height="24" fill="none" xmlns="http://www.w3.org/2000/svg"><path fill-rule="evenodd" clip-rule="evenodd" d="M12.625 5.22c-1.583-1.267-3.442-1.228-4.769-.949-.808.17-1.63.45-2.352.86A1 1 0 0 0 5 6v14a1 1 0 1 0 2 0v-5.37c1.376-.58 3.124-.85 4.375.15 1.583 1.267 3.442 1.228 4.768.949a9.006 9.006 0 0 0 2.152-.754c.392-.198.705-.502.705-.975V6a1 1 0 0 0-1.495-.869c-1.439.786-3.504 1.19-4.88.088zM7 6.63v5.869c1.881-.602 4.021-.563 5.625.72.917.734 2.058.773 3.107.553A7.07 7.07 0 0 0 17 13.37V7.5a8.686 8.686 0 0 1-.857.228c-1.326.279-3.185.318-4.768-.948C10.124 5.78 8.376 6.049 7 6.629z" fill="#000"/></svg>