<svg width="24" height="24" fill="none" xmlns="http://www.w3.org/2000/svg"><path fill-rule="evenodd" clip-rule="evenodd" d="M8.5 7C7.11 7 6 8.113 6 9.467c0 1.524.882 3.15 2.246 4.743 1.146 1.337 2.538 2.543 3.754 3.516 1.216-.973 2.608-2.18 3.754-3.516C17.118 12.617 18 10.99 18 9.467 18 8.113 16.89 7 15.5 7S13 8.113 13 9.467a1 1 0 11-2 0C11 8.113 9.89 7 8.5 7zm3.5-.341A4.508 4.508 0 008.5 5C6.024 5 4 6.99 4 9.467c0 2.251 1.267 4.34 2.727 6.044 1.481 1.729 3.297 3.218 4.659 4.278a1 1 0 001.228 0c1.362-1.06 3.178-2.55 4.659-4.278C18.733 13.807 20 11.718 20 9.467 20 6.99 17.976 5 15.5 5c-1.41 0-2.674.646-3.5 1.659z" fill="#000"/></svg>