<svg width="24" height="24" fill="none" xmlns="http://www.w3.org/2000/svg"><path fill-rule="evenodd" clip-rule="evenodd" d="M13.986 4.234a2 2 0 10-3.973 0 5.427 5.427 0 00-1.97.942c-.976.75-1.541 1.755-1.875 2.758-.332.995-.452 2.032-.51 2.905-.017.25-.025.5-.033.75-.014.428-.028.856-.085 1.278-.197 1.472-.44 2.497-.784 3.314-.337.798-.79 1.438-1.463 2.112A1 1 0 004 20h6.268a2 2 0 103.465 0H20a1 1 0 00.707-1.707c-.672-.673-1.125-1.318-1.463-2.119-.346-.82-.589-1.845-.784-3.307-.057-.422-.07-.85-.085-1.278-.008-.25-.016-.501-.032-.75-.059-.873-.179-1.91-.51-2.905-.335-1.003-.9-2.009-1.876-2.758a5.427 5.427 0 00-1.97-.942z" fill="#000"/></svg>