<svg width="24" height="24" fill="none" xmlns="http://www.w3.org/2000/svg"><path fill-rule="evenodd" clip-rule="evenodd" d="M11 16.29a4.74 4.74 0 01-2.5.71C6.101 17 4 15.202 4 12.8c0-1.44.887-2.442 1.738-3.19.352-.31.743-.614 1.115-.902l.246-.192a14.51 14.51 0 001.259-1.074c1.18-1.163 2.268-3.005 2.763-3.918a1 1 0 011.758 0c.495.913 1.584 2.755 2.763 3.918.378.372.803.717 1.259 1.074l.246.192c.372.288.763.592 1.115.901.851.75 1.738 1.75 1.738 3.191 0 2.402-2.101 4.2-4.5 4.2a4.74 4.74 0 01-2.5-.71V19h1a1 1 0 110 2h-4a1 1 0 110-2h1v-2.71z" fill="#000"/></svg>