<svg width="24" height="24" fill="none" xmlns="http://www.w3.org/2000/svg"><path fill-rule="evenodd" clip-rule="evenodd" d="M9 20a1 1 0 001 1h4a1 1 0 100-2h-1v-2.71a4.74 4.74 0 002.5.71c2.399 0 4.5-1.798 4.5-4.2 0-1.44-.887-2.442-1.738-3.19-.352-.31-.743-.614-1.115-.902a97.963 97.963 0 01-.246-.192 14.51 14.51 0 01-1.259-1.074c-1.18-1.163-2.268-3.005-2.763-3.918a1 1 0 00-1.758 0c-.495.913-1.584 2.755-2.763 3.918a14.51 14.51 0 01-1.259 1.074l-.246.192c-.372.288-.763.592-1.115.901C4.887 10.36 4 11.36 4 12.8 4 15.202 6.101 17 8.5 17a4.74 4.74 0 002.5-.71V19h-1a1 1 0 00-1 1zm2-7.2c0 1.133-1.033 2.2-2.5 2.2S6 13.933 6 12.8c0-.532.301-1.023 1.059-1.689.301-.265.633-.522 1-.808l.272-.212c.464-.363.967-.767 1.431-1.225.859-.847 1.643-1.948 2.238-2.89.595.942 1.38 2.043 2.238 2.89.464.458.967.862 1.43 1.225l.272.212c.368.286.7.543 1.001.808C17.7 11.777 18 12.268 18 12.8c0 1.133-1.033 2.2-2.5 2.2S13 13.933 13 12.8a1 1 0 10-2 0z" fill="#000"/></svg>