<svg width="24" height="24" fill="none" xmlns="http://www.w3.org/2000/svg"><path fill-rule="evenodd" clip-rule="evenodd" d="M8.414 1A2 2 0 0 0 7 1.586L1.586 7A2 2 0 0 0 1 8.414v7.172A2 2 0 0 0 1.586 17L7 22.414A2 2 0 0 0 8.414 23h7.172A2 2 0 0 0 17 22.414L22.414 17A2 2 0 0 0 23 15.586V8.414A2 2 0 0 0 22.414 7L17 1.586A2 2 0 0 0 15.586 1H8.414zm0 2h7.172L21 8.414v7.172L15.586 21H8.414L3 15.586V8.414L8.414 3zm.758 4.757a1 1 0 0 0-1.415 1.415L10.586 12l-2.829 2.828a1 1 0 1 0 1.415 1.415L12 13.414l2.829 2.829a1 1 0 1 0 1.414-1.415L13.414 12l2.829-2.828a1 1 0 0 0-1.414-1.415L12 10.586 9.172 7.757z" fill="#000"/></svg>