<svg width="24" height="24" viewBox="0 0 24 24" fill="none" xmlns="http://www.w3.org/2000/svg">
<path fill-rule="evenodd" clip-rule="evenodd" d="M6.95241 3.99892C4.9031 3.90133 4.09035 4.0041 3.44432 4.65013C3.24959 4.84486 3.11126 5.17553 3.04045 5.62668C2.98102 6.00527 2.98343 6.35666 2.98538 6.64134C2.98572 6.68996 2.98604 6.73664 2.98603 6.78117C2.98601 7.05512 2.99749 7.43367 3.11176 7.72577C3.16322 7.85732 3.21547 7.91597 3.24771 7.94126C3.26667 7.95613 3.32582 8.00003 3.5 8.00003C3.62915 8.00003 3.67423 7.96554 3.70281 7.94013C3.75203 7.89638 3.81703 7.80657 3.87615 7.64893C3.93371 7.49544 3.96687 7.32768 3.98426 7.18851C3.99264 7.12153 3.99662 7.06721 3.99848 7.03249C3.9994 7.01527 3.99978 7.00331 3.99992 6.99752L3.99998 6.99867L3.99998 6.99746L3.99992 6.99752L3.99999 6.99436C4.00305 6.44469 4.44959 6.00005 4.99998 6.00005H16.1496C16.1678 5.6982 16.1364 5.50892 16.1055 5.44726C15.9777 5.19156 15.8767 5.0923 15.4855 4.85754C15.0709 4.60876 14.7407 4.5947 14.2492 4.67599C14.1373 4.69449 13.9993 4.72355 13.8411 4.75685C13.3575 4.85866 12.686 5.00005 12 5.00005C11.0332 5.00005 10.0524 4.72509 9.22643 4.49082L9.16552 4.47354C8.30795 4.23023 7.60165 4.02983 6.95241 3.99892ZM16 8.00005H5.99998V20C5.99998 20.5523 6.44769 21 6.99998 21H15C15.5523 21 16 20.5523 16 20V18V9.00005V8.00005ZM3.99998 9.95047C3.84184 9.98291 3.67501 10 3.49995 10C2.92413 10 2.41903 9.83305 2.0135 9.51501C1.62125 9.20739 1.38874 8.81107 1.24921 8.45441C0.985687 7.78078 0.985935 7.06201 0.986028 6.79346L0.986031 6.781C0.986034 6.7522 0.985692 6.71736 0.985297 6.67718C0.982584 6.40096 0.977393 5.87237 1.06464 5.31654C1.16334 4.68775 1.40058 3.86544 2.03011 3.23592C3.38421 1.88181 5.11878 1.90933 7.04754 2.00118C7.93431 2.04341 8.84472 2.30267 9.62354 2.52445L9.77216 2.56672C10.6416 2.8133 11.3566 3.00005 12 3.00005C12.4655 3.00005 12.8092 2.92695 13.2222 2.83914C13.4301 2.79494 13.6555 2.747 13.9229 2.70279C14.6837 2.57697 15.5484 2.56291 16.5145 3.14256C17.0704 3.47609 17.5283 3.82058 17.8944 4.55284C18.2078 5.17971 18.1711 5.93529 18.1254 6.36723C18.0993 6.61379 18.0606 6.83131 18.0287 6.98689C18.0183 7.03717 18.0086 7.08168 18 7.11937V8.00005H19C20.6568 8.00005 22 9.34319 22 11V16C22 17.6569 20.6568 19 19 19H18V20C18 21.6569 16.6568 23 15 23H6.99998C5.34312 23 3.99998 21.6569 3.99998 20V9.95047ZM18 17H19C19.5523 17 20 16.5523 20 16V11C20 10.4478 19.5523 10 19 10H18V17ZM13 12C13 12.5523 12.5523 13 12 13C11.4477 13 11 12.5523 11 12C11 11.4477 11.4477 11 12 11C12.5523 11 13 11.4477 13 12ZM8.49998 12C9.3284 12 9.99998 11.3284 9.99998 10.5C9.99998 9.67157 9.3284 9 8.49998 9C7.67155 9 6.99998 9.67157 6.99998 10.5C6.99998 11.3284 7.67155 12 8.49998 12ZM9.99998 15C9.99998 15.5523 9.55226 16 8.99998 16C8.44769 16 7.99998 15.5523 7.99998 15C7.99998 14.4477 8.44769 14 8.99998 14C9.55226 14 9.99998 14.4477 9.99998 15ZM13 18C13.5523 18 14 17.5523 14 17C14 16.4477 13.5523 16 13 16C12.4477 16 12 16.4477 12 17C12 17.5523 12.4477 18 13 18Z" fill="black"/>
</svg>
