<svg width="24" height="24" viewBox="0 0 24 24" fill="none" xmlns="http://www.w3.org/2000/svg">
<g clip-path="url(#clip0)">
<path fill-rule="evenodd" clip-rule="evenodd" d="M13.9999 3.125C13.9999 4.16053 13.1044 5 11.9999 5C10.8953 5 9.99988 4.16053 9.99988 3.125C9.99988 2.08947 11.9999 0 11.9999 0C11.9999 0 13.9999 2.08947 13.9999 3.125ZM0.460826 13.6423L2.31939 14.8317L4.02549 22.2249C4.1302 22.6786 4.53422 23 4.99988 23H18.9999C19.4655 23 19.8696 22.6786 19.9743 22.2249L21.6804 14.8317L23.5389 13.6423C24.0041 13.3446 24.1399 12.7261 23.8421 12.2609C23.5444 11.7958 22.926 11.66 22.4608 11.9577L21.9256 12.3003C21.5906 9.92302 19.5498 8 16.9717 8H12.9999V7C12.9999 6.44772 12.5522 6 11.9999 6C11.4476 6 10.9999 6.44772 10.9999 7V8H7.02808C4.44994 8 2.40918 9.92302 2.0742 12.3003L1.53893 11.9577C1.07376 11.66 0.455319 11.7958 0.157608 12.2609C-0.140103 12.7261 -0.0043478 13.3446 0.460826 13.6423ZM5.79539 21L4.65309 16.05C6.02133 16.4189 7.50983 16.1952 8.72873 15.3826L10.3358 14.3113C11.3435 13.6395 12.6563 13.6395 13.664 14.3113L15.271 15.3826C16.4899 16.1952 17.9784 16.4189 19.3467 16.05L18.2044 21H5.79539ZM16.9717 10C18.8713 10 20.2847 11.74 19.9135 13.588L19.6617 13.7492C18.6588 14.391 17.3712 14.379 16.3804 13.7185L14.7734 12.6472C13.0939 11.5275 10.9059 11.5275 9.22638 12.6472L7.61933 13.7185C6.62859 14.379 5.34099 14.391 4.33807 13.7492L4.08623 13.588C3.71509 11.74 5.12847 10 7.02808 10H11.9999H16.9717ZM8.99993 18C8.99993 17.4477 8.55221 17 7.99993 17C7.44764 17 6.99993 17.4477 6.99993 18V19C6.99993 19.5523 7.44764 20 7.99993 20C8.55221 20 8.99993 19.5523 8.99993 19V18ZM12.9999 18C12.9999 17.4477 12.5522 17 11.9999 17C11.4476 17 10.9999 17.4477 10.9999 18V19C10.9999 19.5523 11.4476 20 11.9999 20C12.5522 20 12.9999 19.5523 12.9999 19V18ZM16.9999 18C16.9999 17.4477 16.5522 17 15.9999 17C15.4476 17 14.9999 17.4477 14.9999 18V19C14.9999 19.5523 15.4476 20 15.9999 20C16.5522 20 16.9999 19.5523 16.9999 19V18Z" fill="black"/>
</g>
<defs>
<clipPath id="clip0">
<rect width="24" height="24" fill="white"/>
</clipPath>
</defs>
</svg>
