<svg width="24" height="24" viewBox="0 0 24 24" fill="none" xmlns="http://www.w3.org/2000/svg">
<path fill-rule="evenodd" clip-rule="evenodd" d="M17.5 4C18.3284 4 19 3.32843 19 2.5C19 1.67157 18.3284 1 17.5 1C16.9836 1 16.5281 1.26099 16.2583 1.65827C13.4725 2.17102 11.0725 3.63115 9.31768 5.26894C8.31754 6.20241 7.50463 7.21374 6.93534 8.17981C6.56733 8.8043 6.27578 9.45295 6.12132 10.077C3.77891 10.4922 2 12.5384 2 15C2 17.7614 4.23858 20 7 20C8.38939 20 9.64641 19.4333 10.5525 18.5184C11.5045 20.5741 13.5857 22 16 22C19.3137 22 22 19.3137 22 16C22 12.6863 19.3137 10 16 10C15.9482 10 15.8965 10.0007 15.8449 10.002C15.7582 9.32614 15.7322 8.56531 15.8078 7.78382C15.9456 6.36086 16.4056 4.99969 17.3222 3.98957C17.3805 3.99646 17.4398 4 17.5 4ZM17 12.5C17 12.3663 16.9825 12.2368 16.9497 12.1134C18.7004 12.5397 20 14.1181 20 16C20 18.2091 18.2091 20 16 20C13.7909 20 12 18.2091 12 16C12 14.5193 12.8046 13.2265 14.0004 12.5349C14.0189 13.3472 14.6832 14 15.5 14C16.3284 14 17 13.3284 17 12.5ZM13.8172 7.59118C13.7239 8.55431 13.757 9.51385 13.8786 10.3858C12.8255 10.784 11.9137 11.4699 11.2393 12.3477C10.5588 11.2622 9.47295 10.4568 8.19393 10.1434C8.29899 9.86607 8.45069 9.5477 8.65841 9.19519C9.12037 8.41126 9.80746 7.54759 10.6823 6.73106C11.8125 5.67618 13.219 4.73339 14.8033 4.13485C14.2235 5.23786 13.9279 6.44719 13.8172 7.59118ZM7.9863 12.1659C7.90727 12.6392 7.49577 13 7 13C6.50423 13 6.09273 12.6392 6.0137 12.1659C4.84136 12.5738 4 13.6887 4 15C4 16.6569 5.34315 18 7 18C8.65685 18 10 16.6569 10 15C10 13.6887 9.15864 12.5738 7.9863 12.1659Z" fill="black"/>
</svg>
