<svg width="24" height="24" viewBox="0 0 24 24" fill="none" xmlns="http://www.w3.org/2000/svg">
<path fill-rule="evenodd" clip-rule="evenodd" d="M16.2425 0.0298499C16.7783 0.163799 17.1041 0.706733 16.9701 1.24253L16.2714 4.0375C16.5135 4.10579 16.7246 4.26405 16.8575 4.4855L19 8.05634L21.1425 4.4855C21.4267 4.01192 22.0409 3.85835 22.5145 4.1425C22.9881 4.42665 23.1416 5.04091 22.8575 5.51449L19.9513 10.3582L18.1332 20.3578C17.9603 21.3087 17.132 22 16.1654 22H7.83457C6.868 22 6.03974 21.3087 5.86683 20.3578L4.04873 10.3582L1.14251 5.51449C0.858357 5.04091 1.01192 4.42665 1.4855 4.1425C1.95908 3.85835 2.57334 4.01192 2.85749 4.4855L5 8.05634L7.14251 4.4855C7.32323 4.18429 7.64874 3.99999 8 3.99999H11V0.999992C11 0.447708 11.4477 -7.57904e-06 12 -7.57904e-06C12.5523 -7.57904e-06 13 0.447708 13 0.999992V3.99999H14.2192L15.0299 0.757457C15.1638 0.221662 15.7067 -0.104099 16.2425 0.0298499ZM15.4338 5.99999H15H12H8.56619L6.76619 8.99999H17.2338L15.4338 5.99999ZM17.8018 11H6.19821L7.83457 20L16.1654 20L17.8018 11Z" fill="black"/>
</svg>
