<svg width="24" height="24" viewBox="0 0 24 24" fill="none" xmlns="http://www.w3.org/2000/svg">
<path fill-rule="evenodd" clip-rule="evenodd" d="M9 2C8.44772 2 8 2.44772 8 3C8 3.55228 8.44772 4 9 4V6.58579L7.17157 8.41421C6.42143 9.16436 6 10.1818 6 11.2426V18C6 20.2091 7.79086 22 10 22H14C16.2091 22 18 20.2091 18 18V11.2426C18 10.1818 17.5786 9.16436 16.8284 8.41421L15 6.58579V4C15.5523 4 16 3.55228 16 3C16 2.44772 15.5523 2 15 2H9ZM13 4H11V6.58579C11 7.11622 10.7893 7.62493 10.4142 8L8.58579 9.82843C8.21071 10.2035 8 10.7122 8 11.2426V18C8 19.1046 8.89543 20 10 20H14C15.1046 20 16 19.1046 16 18V11.2426C16 10.7122 15.7893 10.2035 15.4142 9.82843L13.5858 8C13.2107 7.62493 13 7.11622 13 6.58579V4Z" fill="black"/>
</svg>
