<svg width="24" height="24" viewBox="0 0 24 24" fill="none" xmlns="http://www.w3.org/2000/svg">
<path fill-rule="evenodd" clip-rule="evenodd" d="M9 2C8.44771 2 8 2.44772 8 3C8 3.55228 8.44771 4 9 4V6.58579L7.17157 8.41421C6.42142 9.16436 6 10.1818 6 11.2426V15.3421L8 13.485V11.2426C8 10.7122 8.21071 10.2035 8.58578 9.82843L10.4142 8C10.7893 7.62493 11 7.11622 11 6.58579V4H13V6.58579C13 7.11622 13.2107 7.62493 13.5858 8L13.7404 8.15462L15.207 6.79279L15 6.58579V4C15.5523 4 16 3.55228 16 3C16 2.44772 15.5523 2 15 2H9ZM10 22C8.60065 22 7.36913 21.2814 6.6543 20.1931L8.16302 18.7922C8.46985 19.5027 9.17685 20 10 20H14C15.1046 20 16 19.1046 16 18V11.515L17.7607 9.88001C17.9176 10.3128 18 10.7735 18 11.2426V18C18 20.2091 16.2091 22 14 22H10ZM19.6804 6.73279C20.0852 6.35699 20.1086 5.72426 19.7328 5.31955C19.357 4.91484 18.7243 4.8914 18.3195 5.26721L4.31955 18.2672C3.91483 18.643 3.8914 19.2757 4.2672 19.6805C4.64301 20.0852 5.27574 20.1086 5.68045 19.7328L19.6804 6.73279Z" fill="black"/>
</svg>
