<svg width="24" height="24" viewBox="0 0 24 24" fill="none" xmlns="http://www.w3.org/2000/svg">
<path fill-rule="evenodd" clip-rule="evenodd" d="M6 13C6 11.0005 6.71821 8.68784 7.88856 6.88836C9.0793 5.05751 10.5651 4 12 4C13.2795 4 14.5996 4.84093 15.7148 6.32128L17.1861 4.95509C15.8738 3.28248 14.0912 2 12 2C9.56888 2 7.55472 3.73335 6.21196 5.79793C4.8488 7.89388 4 10.5812 4 13C4 14.2614 4.23497 15.4766 4.66276 16.5839L6.26986 15.0916C6.09498 14.4363 6 13.7349 6 13ZM12 20C10.671 20 9.40877 19.4794 8.38797 18.5833L6.91356 19.9524C8.27979 21.2241 10.0392 22 12 22C16.5395 22 20 17.841 20 13C20 11.5593 19.6989 10.0234 19.1673 8.57391L17.5552 10.0709C17.8426 11.0594 18 12.064 18 13C18 16.9956 15.1925 20 12 20ZM10.5 9.99988C11.3284 9.99988 12 9.32831 12 8.49988C12 7.67145 11.3284 6.99988 10.5 6.99988C9.67158 6.99988 9 7.67145 9 8.49988C9 9.32831 9.67158 9.99988 10.5 9.99988ZM19.6805 6.73279C20.0852 6.35699 20.1086 5.72426 19.7328 5.31955C19.357 4.91484 18.7243 4.8914 18.3196 5.26721L4.31955 18.2672C3.91484 18.643 3.89141 19.2757 4.26721 19.6805C4.64301 20.0852 5.27574 20.1086 5.68046 19.7328L19.6805 6.73279Z" fill="black"/>
</svg>
