<svg width="24" height="24" viewBox="0 0 24 24" fill="none" xmlns="http://www.w3.org/2000/svg">
<path fill-rule="evenodd" clip-rule="evenodd" d="M6 13C6 11.0005 6.7182 8.68784 7.88855 6.88836C9.07929 5.05751 10.5651 4 12 4C13.4349 4 14.9207 5.05751 16.1114 6.88836C17.2818 8.68784 18 11.0005 18 13C18 16.9956 15.1925 20 12 20C8.80754 20 6 16.9956 6 13ZM12 2C9.56888 2 7.55471 3.73335 6.21195 5.79793C4.8488 7.89388 4 10.5812 4 13C4 17.841 7.46047 22 12 22C16.5395 22 20 17.841 20 13C20 10.5812 19.1512 7.89388 17.788 5.79793C16.4453 3.73335 14.4311 2 12 2ZM10.5 9.99988C11.3284 9.99988 12 9.32831 12 8.49988C12 7.67145 11.3284 6.99988 10.5 6.99988C9.67157 6.99988 9 7.67145 9 8.49988C9 9.32831 9.67157 9.99988 10.5 9.99988Z" fill="black"/>
</svg>
