<svg width="24" height="24" viewBox="0 0 24 24" fill="none" xmlns="http://www.w3.org/2000/svg">
<path fill-rule="evenodd" clip-rule="evenodd" d="M13 3C13 2.44772 12.5523 2 12 2C11.4477 2 11 2.44772 11 3V6.52779C10.1738 5.78835 9.14157 5.27448 8 5.08296V5C8 4.44772 7.55228 4 7 4C6.44772 4 6 4.44772 6 5V7V10V12V13C6 15.973 8.16229 18.441 11 18.917V21C11 21.5523 11.4477 22 12 22C12.5523 22 13 21.5523 13 21V18.917C15.8377 18.441 18 15.973 18 13V12V10V7V5C18 4.44772 17.5523 4 17 4C16.4477 4 16 4.44772 16 5V5.08296C14.8584 5.27448 13.8262 5.78835 13 6.52779V3ZM16 10.083V7.12602C14.2748 7.57006 13 9.13616 13 11V11.5278C13.8262 10.7884 14.8584 10.2745 16 10.083ZM13 16V16.874C14.7252 16.4299 16 14.8638 16 13V12.126C14.2748 12.5701 13 14.1362 13 16ZM11 16.874V16C11 14.1362 9.72523 12.5701 8 12.126V13C8 14.8638 9.27477 16.4299 11 16.874ZM8 10.083C9.14157 10.2745 10.1738 10.7884 11 11.5278V11C11 9.13616 9.72523 7.57006 8 7.12602V10.083Z" fill="black"/>
</svg>
