<svg width="24" height="24" viewBox="0 0 24 24" fill="none" xmlns="http://www.w3.org/2000/svg">
<path fill-rule="evenodd" clip-rule="evenodd" d="M8.30465 2.30114C11.3057 1.10073 14.728 1.70994 17.1305 3.87219L17.9637 4.62213L19.2926 3.29309C19.6831 2.90254 20.3163 2.9025 20.7068 3.293C21.0974 3.6835 21.0974 4.31667 20.7069 4.70722L19.1927 6.2216L20.8171 9.87679C21.5426 10.5181 22 11.4556 22 12.5C22 14.2771 20.6757 15.7448 18.9601 15.9701C18.9864 16.1429 19 16.3199 19 16.5C19 18.433 17.433 20 15.5 20C14.7434 20 14.0429 19.76 13.4705 19.3519C12.8522 20.3416 11.753 21 10.5 21C9.74343 21 9.04293 20.76 8.47051 20.3519C7.85219 21.3416 6.75299 22 5.5 22C3.567 22 2 20.433 2 18.5C2 16.9429 3.01686 15.6233 4.42276 15.1689C4.15315 14.6729 4 14.1043 4 13.5C4 12.2471 4.65833 11.148 5.64795 10.5296C5.27884 10.012 5.04623 9.38755 5.00605 8.70603C4.91228 7.11524 5.89628 5.71008 7.32591 5.20191C7.20859 4.85174 7.12225 4.48326 7.07095 4.09852C6.97388 3.37054 7.38351 2.66959 8.06541 2.39683L8.30465 2.30114ZM13.4198 13.685C13.4065 13.6949 13.3932 13.7048 13.3801 13.7149C13.1329 13.8942 12.8288 14 12.5 14C11.6716 14 11 13.3285 11 12.5C11 11.6716 11.6716 11 12.5 11C12.8209 11 13.1183 11.1008 13.3622 11.2724C13.3863 11.291 13.4107 11.3093 13.4353 11.3273C13.7795 11.6021 14 12.0253 14 12.5C14 12.9818 13.7728 13.4106 13.4198 13.685ZM17 12.5C17 12.02 17.2255 11.5927 17.5763 11.3181C17.5932 11.3056 17.6101 11.293 17.6269 11.2802C17.8728 11.1038 18.1743 11 18.5 11C18.8293 11 19.1338 11.1061 19.3812 11.286C19.3929 11.2952 19.4048 11.3042 19.4169 11.3128C19.7716 11.5871 20 12.0169 20 12.5C20 13.3285 19.3284 14 18.5 14C18.1712 14 17.8671 13.8942 17.6199 13.7149C17.6068 13.7048 17.5935 13.6949 17.5802 13.685C17.2272 13.4106 17 12.9818 17 12.5ZM15.6886 8.42817L16.825 7.79686C17.016 8.157 17.0604 8.59326 16.9117 9.00713C16.8122 9.28401 16.6397 9.51364 16.4237 9.68211C16.4087 9.69317 16.3938 9.70435 16.379 9.71564C15.9914 9.99544 15.4768 10.0855 14.9929 9.9117C14.8594 9.86375 14.7369 9.79883 14.627 9.72025C14.6085 9.70611 14.59 9.69216 14.5712 9.67839C14.3557 9.50858 14.1936 9.28422 14.098 9.03339C14.6369 8.91459 15.1719 8.71524 15.6886 8.42817ZM14.5802 15.315C14.2272 15.5895 14 16.0182 14 16.5C14 17.3285 14.6716 18 15.5 18C16.3284 18 17 17.3285 17 16.5C17 16.0182 16.7729 15.5895 16.4198 15.3151C16.4065 15.3052 16.3932 15.2952 16.38 15.2852C16.1329 15.1058 15.8288 15 15.5 15C15.1712 15 14.8671 15.1058 14.6199 15.2852C14.6068 15.2952 14.5935 15.3052 14.5802 15.315ZM9.61994 16.2852C9.60677 16.2952 9.59352 16.3052 9.5802 16.3151C9.22715 16.5895 9 17.0182 9 17.5C9 18.3285 9.67157 19 10.5 19C11.3284 19 12 18.3285 12 17.5C12 16.6716 11.3284 16 10.5 16C10.1712 16 9.86713 16.1058 9.61994 16.2852ZM9 13.5C9 13.9818 8.77285 14.4106 8.4198 14.685C8.40648 14.6949 8.39324 14.7048 8.38006 14.7149C8.13287 14.8942 7.82879 15 7.5 15C6.67157 15 6 14.3285 6 13.5C6 12.6716 6.67157 12 7.5 12C8.32843 12 9 12.6716 9 13.5ZM8.3227 7.01054C7.53994 7.10298 6.9556 7.79129 7.00259 8.58834C7.05134 9.41533 7.76126 10.0462 8.58826 9.99748C9.41415 9.94879 10.0445 9.24069 9.99758 8.41511C9.36154 8.05849 8.7906 7.58394 8.3227 7.01054ZM16.2898 5.8063L14.7174 6.67985C12.4442 7.9427 9.63421 6.62258 9.10535 4.13525C11.3849 3.2486 13.9719 3.72016 15.7925 5.35876L16.2898 5.8063ZM4 18.5C4 17.6716 4.67157 17 5.5 17C6.32843 17 7 17.6716 7 18.5C7 19.3285 6.32843 20 5.5 20C4.67157 20 4 19.3285 4 18.5Z" fill="black"/>
</svg>
