<svg width="24" height="24" viewBox="0 0 24 24" fill="none" xmlns="http://www.w3.org/2000/svg">
<path fill-rule="evenodd" clip-rule="evenodd" d="M3.87447 8.48895C3.67833 4.10406 7.13384 0 12 0C16.8663 0 20.3218 4.10425 20.1255 8.48925C20.847 8.89205 21.3635 9.60473 21.4897 10.4841C21.641 11.5252 21.2508 12.4658 20.4345 13.0638C19.8243 13.5108 19.0428 13.7215 18.1956 13.7297L15.3522 18.9427L12.8779 23.4789C12.7027 23.8001 12.3659 24 12 24C11.6341 24 11.2973 23.8001 11.1221 23.4789L8.64794 18.9429L5.80374 13.7285C4.9581 13.719 4.17783 13.5085 3.56823 13.0624C2.75226 12.4654 2.36129 11.5264 2.51007 10.4855C2.63614 9.60351 3.15297 8.89129 3.87447 8.48895ZM5.86645 8.18707C6.25965 8.26168 6.60512 8.39708 6.8911 8.52005C7.04324 8.58547 7.17636 8.64529 7.29631 8.69919C7.65214 8.85909 7.89206 8.96691 8.16897 9.01438L8.1734 9.01515C8.64991 9.09904 8.93888 9.02985 9.47247 8.88068C9.48615 8.87685 9.49992 8.873 9.51379 8.86912C10.0875 8.70854 10.8325 8.5 12 8.5C13.1683 8.5 13.9143 8.70813 14.489 8.86849C14.5022 8.87217 14.5153 8.87583 14.5283 8.87945C15.0637 9.02865 15.353 9.09788 15.8279 9.01492C16.1044 8.96663 16.3436 8.85918 16.6966 8.70064C16.8185 8.64593 16.9538 8.58512 17.109 8.51857C17.3953 8.39573 17.7407 8.26089 18.1336 8.18665C18.1648 4.95731 15.5799 2 12 2C8.41992 2 5.83502 4.95756 5.86645 8.18707ZM8.22504 13.9909L9.6396 16.5843L10.8626 14.8721C10.1877 14.7286 9.55815 14.4886 9.01481 14.2814C8.94952 14.2565 8.88548 14.2321 8.82276 14.2084C8.6122 14.1288 8.41373 14.0557 8.22504 13.9909ZM13.1377 14.8721C13.8127 14.7285 14.4424 14.4885 14.9859 14.2813C15.0511 14.2565 15.1151 14.2321 15.1777 14.2084C15.388 14.1289 15.5863 14.0559 15.7748 13.9912L14.3605 16.5841L13.1377 14.8721ZM13.2963 18.5351L12.0001 16.7205L10.7038 18.5353L12 20.9117L13.2963 18.5351ZM17.6566 10.4643C17.2668 10.6415 16.7228 10.8889 16.1721 10.9851C15.2312 11.1494 14.5749 10.9687 13.9914 10.806C13.9799 10.8028 13.9685 10.7996 13.957 10.7964C13.4295 10.6493 12.8942 10.5 12 10.5C11.1075 10.5 10.5739 10.6493 10.0473 10.7967C10.0352 10.8 10.0231 10.8034 10.011 10.8068C9.42717 10.97 8.77106 11.1507 7.82868 10.9852C7.27424 10.8897 6.7288 10.6414 6.33868 10.4638C6.25109 10.4239 6.17133 10.3876 6.10105 10.3574C5.6422 10.1601 5.36987 10.0988 5.11393 10.1433C4.76351 10.2043 4.53647 10.443 4.48995 10.7685C4.44248 11.1006 4.54765 11.3008 4.74927 11.4484C4.99524 11.6283 5.48921 11.7911 6.2738 11.7059C7.49045 11.5737 8.62958 11.9971 9.53015 12.3376C9.56004 12.349 9.58971 12.3602 9.61916 12.3713C10.5605 12.7276 11.2805 13 12 13C12.7197 13 13.4402 12.7274 14.382 12.3711C14.4113 12.36 14.4407 12.3489 14.4704 12.3377C15.371 11.9972 16.5102 11.5737 17.7262 11.7059L17.7285 11.7061C18.5132 11.7932 19.007 11.6303 19.2526 11.4504C19.4539 11.3029 19.5587 11.1025 19.5105 10.7712L19.5101 10.7687C19.4637 10.4443 19.2356 10.2042 18.8861 10.1433C18.6293 10.0986 18.3558 10.1599 17.8975 10.3566C17.8264 10.3871 17.7455 10.4239 17.6566 10.4643Z" fill="black"/>
</svg>
