<svg width="24" height="24" viewBox="0 0 24 24" fill="none" xmlns="http://www.w3.org/2000/svg">
<path fill-rule="evenodd" clip-rule="evenodd" d="M3.7348 10.1051C3.28629 5.51662 6.81274 1 12 1C17.1873 1 20.7138 5.51664 20.2652 10.1052L20.3839 10.0123C20.8189 9.67207 21.4474 9.74887 21.7877 10.1839C22.128 10.6189 22.0512 11.2474 21.6162 11.5877L19.9937 12.8568C19.7512 13.0465 19.4954 13.2103 19.23 13.3484C19.0968 13.5829 18.9505 13.8146 18.7908 14.0427L12.8192 22.5735C12.6321 22.8408 12.3263 23 12 23C11.6737 23 11.3679 22.8408 11.1808 22.5735L5.20926 14.0427C5.04956 13.8146 4.90327 13.5829 4.77003 13.3483C4.50463 13.2103 4.24887 13.0465 4.00636 12.8568L2.38392 11.5877C1.94892 11.2474 1.87212 10.6189 2.21239 10.1839C2.55266 9.74887 3.18115 9.67207 3.61616 10.0123L3.7348 10.1051ZM7.53517 13.8779L9.66514 16.9207L10.5858 16L9.29291 14.7071C8.93866 14.3529 8.90575 13.7989 9.19421 13.4076C8.6677 13.6637 8.10551 13.8205 7.53517 13.8779ZM9.87143 13.0083C10.1683 12.97 10.4791 13.0649 10.7071 13.2929L12 14.5858L13.2929 13.2929C13.521 13.0648 13.8318 12.97 14.1287 13.0083C14.0332 12.9411 13.9395 12.8703 13.8479 12.7956C12.772 11.9189 11.2281 11.9189 10.1522 12.7956C10.0606 12.8703 9.9669 12.9411 9.87143 13.0083ZM14.8058 13.4076C15.0943 13.7989 15.0614 14.3528 14.7071 14.7071L13.4142 16L14.3349 16.9207L16.4649 13.8778C15.8945 13.8205 15.3323 13.6636 14.8058 13.4076ZM17.7786 11.7858C16.8762 12.0488 15.8751 11.8675 15.1113 11.2451C13.2997 9.76907 10.7004 9.76907 8.88883 11.2451C8.12502 11.8675 7.12387 12.0488 6.22138 11.7858C4.46061 7.78101 7.3513 3 12 3C16.6487 3 19.5394 7.78103 17.7786 11.7858ZM12 20.2562L10.8298 18.5844L12 17.4142L13.1702 18.5844L12 20.2562Z" fill="black"/>
</svg>
