<svg width="24" height="24" viewBox="0 0 24 24" fill="none" xmlns="http://www.w3.org/2000/svg">
<path fill-rule="evenodd" clip-rule="evenodd" d="M16.7071 1.70711C17.0976 1.31658 17.0976 0.683417 16.7071 0.292893C16.3166 -0.0976311 15.6834 -0.0976311 15.2929 0.292893L13.2929 2.29289C13.1054 2.48043 13 2.73478 13 3V4H5.5H4C3.44772 4 3 4.44772 3 5C3 5.55228 3.44772 6 4 6H4.61075L6.50685 22.1168C6.5661 22.6205 6.99291 23 7.5 23H16.5C17.0071 23 17.4339 22.6205 17.4932 22.1168L19.3892 6H20C20.5523 6 21 5.55228 21 5C21 4.44772 20.5523 4 20 4H18.5H15V3.41421L16.7071 1.70711ZM14 6H6.62454L7.31722 11.8878C10.0331 9.75216 13.5867 8.597 17.1281 8.10244L17.3755 6H14ZM8.28305 20.0973L7.60083 14.2985C9.88074 12.0481 13.256 10.7393 16.886 10.1607L16.602 12.5743C13.0248 13.6331 9.94299 16.1542 8.28305 20.0973ZM10.0738 21H15.6108L16.3435 14.7712C13.6416 15.8014 11.3534 17.8673 10.0738 21Z" fill="black"/>
</svg>
