<svg width="24" height="24" viewBox="0 0 24 24" fill="none" xmlns="http://www.w3.org/2000/svg">
<path fill-rule="evenodd" clip-rule="evenodd" d="M7.5 4.20573C5.56566 5.32252 4.85134 7.61813 6.0359 9.66983C6.38397 10.2727 6.86005 10.6249 7.54765 11.1297C8.02029 11.4767 8.5738 11.885 9.08149 12.4807L7.61428 13.8431C7.26718 13.4168 6.85327 13.101 6.36413 12.7419L6.27874 12.6794C5.6495 12.2186 4.86748 11.6461 4.30385 10.6698C2.54288 7.61975 3.65141 4.11832 6.5 2.47368C9.34859 0.829048 12.9352 1.61975 14.6962 4.66983C15.0933 5.35764 15.2626 6.03914 15.3576 6.65294L13.5486 8.33269C13.5173 8.11448 13.4942 7.90598 13.4725 7.70898C13.3792 6.86113 13.3122 6.27271 12.9641 5.66983C11.7795 3.61813 9.43434 3.08894 7.5 4.20573ZM10.7193 10.9599L11.9781 9.79096C11.8821 9.33896 11.4806 8.99988 11 8.99988C10.4477 8.99988 10 9.44759 10 9.99988C10 10.4547 10.3036 10.8386 10.7193 10.9599ZM8.82111 18.1811L10.5585 16.5678C10.6395 17.2715 10.727 17.7951 11.0359 18.3301C12.2205 20.3818 14.5657 20.911 16.5 19.7942C18.4343 18.6774 19.1487 16.3818 17.9641 14.3301C17.616 13.7272 17.1399 13.375 16.4523 12.8702C16.1341 12.6366 15.7793 12.3752 15.4264 12.0475L16.8979 10.6812C17.1222 10.8773 17.3677 11.0612 17.6359 11.258L17.7213 11.3206C18.3505 11.7813 19.1325 12.3538 19.6962 13.3301C21.4571 16.3802 20.3486 19.8816 17.5 21.5262C14.6514 23.1709 11.0648 22.3802 9.30385 19.3301C9.07942 18.9414 8.92773 18.5547 8.82111 18.1811ZM9 8.99988C9 9.55216 8.55228 9.99988 8 9.99988C7.44772 9.99988 7 9.55216 7 8.99988C7 8.44759 7.44772 7.99988 8 7.99988C8.55228 7.99988 9 8.44759 9 8.99988ZM8 6.99988C8.55228 6.99988 9 6.55216 9 5.99988C9 5.44759 8.55228 4.99988 8 4.99988C7.44772 4.99988 7 5.44759 7 5.99988C7 6.55216 7.44772 6.99988 8 6.99988ZM14 18.9999C14.5523 18.9999 15 18.5522 15 17.9999C15 17.4476 14.5523 16.9999 14 16.9999C13.4477 16.9999 13 17.4476 13 17.9999C13 18.5522 13.4477 18.9999 14 18.9999ZM19.6804 6.73274C20.0852 6.35694 20.1086 5.72421 19.7328 5.3195C19.357 4.91479 18.7243 4.89135 18.3195 5.26716L4.31954 18.2672C3.91483 18.643 3.8914 19.2757 4.2672 19.6804C4.643 20.0851 5.27574 20.1085 5.68045 19.7327L19.6804 6.73274Z" fill="black"/>
</svg>
