<svg width="24" height="24" viewBox="0 0 24 24" fill="none" xmlns="http://www.w3.org/2000/svg">
<path fill-rule="evenodd" clip-rule="evenodd" d="M7.5 4.20573C5.56566 5.32252 4.85134 7.61813 6.0359 9.66983C6.38397 10.2727 6.86005 10.6249 7.54765 11.1297C8.21809 11.6219 9.05126 12.2376 9.68554 13.3362C10.3198 14.4348 10.4365 15.4642 10.5275 16.2909C10.6208 17.1388 10.6878 17.7272 11.0359 18.3301C12.2205 20.3818 14.5657 20.911 16.5 19.7942C18.4343 18.6774 19.1487 16.3818 17.9641 14.3301C17.616 13.7272 17.1399 13.375 16.4523 12.8702C15.7819 12.3781 14.9487 11.7623 14.3145 10.6637C13.6802 9.56509 13.5635 8.53568 13.4725 7.70898C13.3792 6.86113 13.3122 6.27271 12.9641 5.66983C11.7795 3.61813 9.43434 3.08894 7.5 4.20573ZM4.30385 10.6698C2.54288 7.61975 3.65141 4.11832 6.5 2.47368C9.34859 0.829048 12.9352 1.61975 14.6962 4.66983C15.2598 5.64608 15.3646 6.60961 15.449 7.3849L15.4605 7.49014C15.5501 8.30368 15.6398 8.95931 16.0465 9.66371C16.4532 10.3681 16.9761 10.7737 17.6359 11.258L17.7213 11.3206C18.3505 11.7813 19.1325 12.3538 19.6962 13.3301C21.4571 16.3802 20.3486 19.8816 17.5 21.5262C14.6514 23.1709 11.0648 22.3802 9.30385 19.3301C8.74021 18.3538 8.63536 17.3903 8.551 16.615L8.5395 16.5098C8.44995 15.6962 8.36018 15.0406 7.95349 14.3362C7.54681 13.6318 7.0239 13.2263 6.36413 12.7419L6.27874 12.6794C5.6495 12.2186 4.86748 11.6461 4.30385 10.6698ZM9 8.99988C9 9.55216 8.55228 9.99988 8 9.99988C7.44772 9.99988 7 9.55216 7 8.99988C7 8.44759 7.44772 7.99988 8 7.99988C8.55228 7.99988 9 8.44759 9 8.99988ZM8 6.99988C8.55228 6.99988 9 6.55216 9 5.99988C9 5.44759 8.55228 4.99988 8 4.99988C7.44772 4.99988 7 5.44759 7 5.99988C7 6.55216 7.44772 6.99988 8 6.99988ZM12 9.99988C12 10.5522 11.5523 10.9999 11 10.9999C10.4477 10.9999 10 10.5522 10 9.99988C10 9.44759 10.4477 8.99988 11 8.99988C11.5523 8.99988 12 9.44759 12 9.99988ZM14 18.9999C14.5523 18.9999 15 18.5522 15 17.9999C15 17.4476 14.5523 16.9999 14 16.9999C13.4477 16.9999 13 17.4476 13 17.9999C13 18.5522 13.4477 18.9999 14 18.9999Z" fill="black"/>
</svg>
