<svg width="24" height="24" viewBox="0 0 24 24" fill="none" xmlns="http://www.w3.org/2000/svg">
<path fill-rule="evenodd" clip-rule="evenodd" d="M11.0267 7.23101C10.9367 7.79959 10.924 8.39299 10.9999 9C12.9701 9.24627 14.7969 8.55968 16.097 7.3236C17.8557 8.59516 19 10.6639 19 13C19 16.866 15.866 20 12 20C8.13401 20 5 16.866 5 13C5 9.47355 7.60766 6.55616 10.9999 6.0709V7C10.9999 7.07951 11.0092 7.15686 11.0267 7.23101ZM21 13C21 10.0157 19.5475 7.37069 17.3109 5.73328C17.898 4.63937 18.1691 3.35351 17.9999 2C16.0783 1.7598 14.2931 2.40702 12.9999 3.58597V3C12.9999 2.44771 12.5522 2 11.9999 2C11.4476 2 10.9999 2.44771 10.9999 3V4.05493C6.5 4.55242 3 8.36747 3 13C3 17.9706 7.02944 22 12 22C16.9706 22 21 17.9706 21 13ZM8 12C8.55228 12 9 11.5523 9 11C9 10.4477 8.55228 10 8 10C7.44772 10 7 10.4477 7 11C7 11.5523 7.44772 12 8 12Z" fill="black"/>
</svg>
