<svg width="24" height="24" viewBox="0 0 24 24" fill="none" xmlns="http://www.w3.org/2000/svg">
<path fill-rule="evenodd" clip-rule="evenodd" d="M4 12C4 7.58172 7.58172 4 12 4C16.4183 4 20 7.58172 20 12C20 16.4183 16.4183 20 12 20C11.1558 20 10.3422 19.8692 9.57822 19.6269C9.63415 19.3492 9.70113 19.0861 9.77791 18.8346C9.9006 18.8344 10.025 18.8227 10.1498 18.799L11.7255 18.4988C16.3455 17.6188 18.8006 12.5241 16.6102 8.36223L15.7747 6.77494C15.3236 5.91771 14.3229 5.50705 13.3996 5.80023L11.943 6.26276C8.51395 7.35162 6.4687 10.8626 7.21298 14.3826L7.81887 17.248C7.85991 17.4421 7.92787 17.6237 8.01804 17.7897C7.90755 18.0976 7.80852 18.4207 7.72338 18.7622C5.48555 17.3439 4 14.8454 4 12ZM12 2C6.47715 2 2 6.47715 2 12C2 17.5228 6.47715 22 12 22C17.5228 22 22 17.5228 22 12C22 6.47715 17.5228 2 12 2ZM10.9627 16.3958C10.9103 16.4761 10.8588 16.5567 10.8082 16.6376L11.3513 16.5342C14.6513 15.9056 16.4049 12.2665 14.8403 9.29373L14.0049 7.70644L12.5483 8.16896C10.099 8.94672 8.63809 11.4546 9.16972 13.9688L9.41201 15.1147C9.66303 14.7391 9.92721 14.3694 10.1839 14.0101L10.1842 14.0097C10.2897 13.862 10.394 13.716 10.4957 13.572C10.8949 13.0066 11.2769 12.4405 11.6258 11.8119C11.8938 11.3291 12.5025 11.1549 12.9854 11.4229C13.4683 11.6909 13.6425 12.2996 13.3745 12.7825C12.9733 13.5053 12.5427 14.1403 12.1294 14.7256C12.0132 14.8903 11.8999 15.0489 11.7892 15.2038C11.4979 15.6116 11.2247 15.9939 10.9627 16.3958Z" fill="black"/>
</svg>
