<svg width="24" height="24" viewBox="0 0 24 24" fill="none" xmlns="http://www.w3.org/2000/svg">
<path fill-rule="evenodd" clip-rule="evenodd" d="M13 4.5C13 4.67532 12.9699 4.84361 12.9146 5H13C13 4.17157 13.6716 3.5 14.5 3.5C15.3284 3.5 16 4.17157 16 5L15.9999 5.01446C16.1208 5.02147 16.2409 5.031 16.3603 5.043C16.5263 4.72055 16.8624 4.5 17.25 4.5C17.787 4.5 18.2251 4.92325 18.249 5.45435C21.5943 6.59707 24 9.7676 24 13.5V16C24 18.2091 22.2091 20 20 20H5.33333C2.38781 20 0 17.6122 0 14.6667V14C0 10.661 1.81827 7.74674 4.51866 6.19327C4.50642 6.13074 4.5 6.06612 4.5 6C4.5 5.44772 4.94772 5 5.5 5C5.83151 5 6.12535 5.16132 6.30729 5.40973C6.5396 5.33699 6.77595 5.27341 7.01593 5.21942C7.00544 5.1478 7 5.07453 7 5C7 4.17157 7.67157 3.5 8.5 3.5C9.32843 3.5 10 4.17157 10 5H10.0854C10.0301 4.84361 10 4.67532 10 4.5C10 3.67157 10.6716 3 11.5 3C12.3284 3 13 3.67157 13 4.5ZM9 7C5.13401 7 2 10.134 2 14V14.6667C2 16.5076 3.49238 18 5.33333 18H16.5351C16.1948 17.4117 16 16.7286 16 16V13.6471C16 9.97599 13.024 7 9.35294 7H9ZM14.8839 7C16.7881 8.58616 18 10.9751 18 13.6471V15V16C18 17.1046 18.8954 18 20 18C21.1046 18 22 17.1046 22 16V13.5C22 13.3749 21.9965 13.2507 21.9895 13.1274C21.7254 13.3593 21.3791 13.5 21 13.5C20.1716 13.5 19.5 12.8284 19.5 12C19.5 11.1716 20.1716 10.5 21 10.5C21.0962 10.5 21.1903 10.5091 21.2815 10.5264C20.9459 9.87521 20.5035 9.28807 19.9775 8.78808C19.9922 8.85638 20 8.92729 20 9C20 9.55228 19.5523 10 19 10C18.4477 10 18 9.55228 18 9C18 8.45891 18.4298 8.01819 18.9666 8.00055C17.9632 7.36678 16.7745 7 15.5 7H14.8839ZM18 15C18 14.4477 18.4477 14 19 14C19.5523 14 20 14.4477 20 15C20 15.5523 19.5523 16 19 16C18.4477 16 18 15.5523 18 15Z" fill="black"/>
</svg>
