<svg width="24" height="24" viewBox="0 0 24 24" fill="none" xmlns="http://www.w3.org/2000/svg">
<path fill-rule="evenodd" clip-rule="evenodd" d="M5.49994 2C5.05372 2 4.66149 2.29564 4.53861 2.7246L5.49994 3C4.53861 2.7246 4.53859 2.72467 4.53856 2.72476L4.53849 2.725L4.53827 2.72579L4.53749 2.72851L4.53464 2.73849L4.52397 2.77614C4.5147 2.80894 4.50122 2.85689 4.48404 2.91862C4.44969 3.04207 4.40052 3.2207 4.34072 3.44343C4.22119 3.88864 4.05879 4.51138 3.88708 5.22261C3.54659 6.63288 3.15824 8.43631 3.00538 9.89583C2.95741 10.3538 2.92535 10.8465 2.90483 11.3478C2.7493 15.1479 5.96542 18 9.61411 18H10.9999V21H7.99994C7.44765 21 6.99994 21.4477 6.99994 22C6.99994 22.5523 7.44765 23 7.99994 23H11.9999H15.9999C16.5522 23 16.9999 22.5523 16.9999 22C16.9999 21.4477 16.5522 21 15.9999 21H12.9999V18H14.3858C18.0345 18 21.2506 15.1479 21.095 11.3478C21.0745 10.8465 21.0425 10.3538 20.9945 9.89583C20.8416 8.43631 20.4533 6.63288 20.1128 5.22261C19.9411 4.51138 19.7787 3.88864 19.6592 3.44343C19.5994 3.2207 19.5502 3.04207 19.5158 2.91862C19.4987 2.85689 19.4852 2.80894 19.4759 2.77614L19.4652 2.73849L19.4624 2.72851L19.4616 2.72579L19.4614 2.725L19.4613 2.72476C19.4613 2.72467 19.4613 2.7246 18.4999 3L19.4613 2.7246C19.3384 2.29564 18.9462 2 18.4999 2H5.49994ZM5.83122 5.692C5.99327 5.02077 6.14696 4.42997 6.26213 4H17.7377C17.8529 4.42997 18.0066 5.02077 18.1687 5.692C18.5054 7.0866 18.867 8.78317 19.0054 10.1042C19.0478 10.5089 19.0774 10.9576 19.0967 11.4296C19.1996 13.9425 17.0553 16 14.3858 16H11.9999H9.61411C6.94453 16 4.80031 13.9425 4.90316 11.4296C4.92248 10.9576 4.95211 10.5089 4.9945 10.1042C5.13285 8.78317 5.49451 7.0866 5.83122 5.692ZM16.6347 8.55454C16.9244 8.44087 17.2505 8.46854 17.5169 8.62939C17.7833 8.79027 17.9596 9.06602 17.9939 9.37536L18.125 10.5597C18.3874 12.9287 16.5328 15 14.1494 15H9.89526C7.49069 15 5.62958 12.8937 5.92571 10.5074L6.00757 9.84773C6.05292 9.48228 6.29545 9.17133 6.63886 9.03835C7.14504 8.845 7.66151 8.67658 8.18165 8.52525C9.03006 8.27841 10.1866 8 11.1666 8C12.1571 8 12.8717 8.26842 13.5105 8.59224C14.1494 8.91605 14.6242 9.05992 15.1954 8.98042C15.6863 8.91211 16.1737 8.73359 16.6347 8.55454ZM9.99996 12C9.99996 12.5523 9.55225 13 8.99996 13C8.44768 13 7.99996 12.5523 7.99996 12C7.99996 11.4477 8.44768 11 8.99996 11C9.55225 11 9.99996 11.4477 9.99996 12Z" fill="black"/>
</svg>
