<svg width="24" height="24" viewBox="0 0 24 24" fill="none" xmlns="http://www.w3.org/2000/svg">
<path fill-rule="evenodd" clip-rule="evenodd" d="M4.53864 2.7246C4.66153 2.29564 5.05375 2 5.49997 2H18.5C18.9462 2 19.3384 2.29564 19.4613 2.7246C19.5292 2.96368 19.5947 3.20341 19.6592 3.44343C19.7787 3.88864 19.9411 4.51138 20.1128 5.22261C20.4533 6.63288 20.8417 8.43631 20.9945 9.89583C21.0425 10.3538 21.0746 10.8465 21.0951 11.3478C21.2506 15.1479 18.0345 18 14.3858 18H13V21H16C16.5523 21 17 21.4477 17 22C17 22.5523 16.5523 23 16 23H7.99997C7.44769 23 6.99997 22.5523 6.99997 22C6.99997 21.4477 7.44769 21 7.99997 21H11V18H9.61415C5.96546 18 2.74934 15.1479 2.90487 11.3478C2.92539 10.8465 2.95745 10.3538 3.00542 9.89583C3.15828 8.43631 3.54663 6.63288 3.88711 5.22261C4.05883 4.51138 4.22122 3.88864 4.34076 3.44343C4.4052 3.20341 4.47076 2.96368 4.53864 2.7246ZM5.83125 5.692C5.99331 5.02077 6.147 4.42997 6.26217 4H17.7378C17.853 4.42997 18.0066 5.02077 18.1687 5.692C18.5054 7.0866 18.8671 8.78317 19.0054 10.1042C19.0478 10.5089 19.0774 10.9576 19.0968 11.4296C19.1996 13.9425 17.0554 16 14.3858 16H9.61415C6.94457 16 4.80035 13.9425 4.9032 11.4296C4.92252 10.9576 4.95215 10.5089 4.99453 10.1042C5.13289 8.78317 5.49455 7.0866 5.83125 5.692ZM16.6347 8.55454C16.9244 8.44087 17.2505 8.46854 17.5169 8.62939C17.7833 8.79027 17.9597 9.06602 17.9939 9.37536L18.1251 10.5597C18.3875 12.9287 16.5329 15 14.1494 15H9.8953C7.49073 15 5.62962 12.8937 5.92574 10.5074L6.00761 9.84773C6.05296 9.48228 6.29549 9.17133 6.63889 9.03835C7.14508 8.84499 7.66155 8.67658 8.18169 8.52525C9.0301 8.27841 10.1866 8 11.1667 8C12.1571 8 12.8717 8.26842 13.5105 8.59224C14.1494 8.91605 14.6242 9.05992 15.1955 8.98042C15.6864 8.91211 16.1737 8.73359 16.6347 8.55454ZM10 12C10 12.5523 9.55228 13 9 13C8.44772 13 8 12.5523 8 12C8 11.4477 8.44772 11 9 11C9.55228 11 10 11.4477 10 12Z" fill="black"/>
</svg>
