<svg width="24" height="24" fill="none" xmlns="http://www.w3.org/2000/svg"><path fill-rule="evenodd" clip-rule="evenodd" d="M10.853 4.131c.435-1.003 1.859-1.003 2.294 0l1.98 4.566 4.954.472c1.088.103 1.528 1.457.708 2.181l-3.73 3.294 1.082 4.857c.238 1.068-.914 1.904-1.856 1.348L12 18.32l-4.285 2.53c-.942.556-2.094-.28-1.856-1.348l1.082-4.857-3.73-3.294c-.82-.724-.38-2.078.709-2.181l4.953-.472 1.98-4.566zM12 6.514l-1.527 3.52-.234.542-.588.056-3.82.364 2.876 2.54.443.39-.128.576-.835 3.746 3.305-1.951.508-.3.508.3 3.305 1.95-.835-3.745-.128-.576.443-.39 2.876-2.54-3.82-.364-.588-.056-.234-.542L12 6.514z" fill="#000"/></svg>