<svg width="24" height="24" viewBox="0 0 24 24" fill="none" xmlns="http://www.w3.org/2000/svg">
<path fill-rule="evenodd" clip-rule="evenodd" d="M5 3C5 2.44772 5.44772 2 6 2H18C18.5523 2 19 2.44772 19 3V21C19 21.5523 18.5523 22 18 22H6C5.44771 22 5 21.5523 5 21V3ZM6 0C4.34315 0 3 1.34315 3 3V21C3 22.6569 4.34315 24 6 24H18C19.6569 24 21 22.6569 21 21V3C21 1.34314 19.6569 0 18 0H6ZM10.2975 14.0556C10.7393 14.0556 11.1602 13.9302 11.5128 13.7109V15.0278H11.0267C10.7582 15.0278 10.5405 15.2455 10.5405 15.514C10.5405 15.7824 10.7582 16.0001 11.0267 16.0001H12.9711C13.2396 16.0001 13.4572 15.7824 13.4572 15.514C13.4572 15.2455 13.2396 15.0278 12.9711 15.0278H12.485V13.7109C12.8376 13.9302 13.2585 14.0556 13.7003 14.0556C14.8665 14.0556 15.8878 13.1816 15.8878 12.0139C15.8878 11.3139 15.4569 10.827 15.0429 10.4629C14.872 10.3127 14.6818 10.1649 14.5012 10.0246L14.5012 10.0246L14.5011 10.0246L14.5011 10.0245L14.5011 10.0245L14.501 10.0244L14.5005 10.0241L14.4993 10.0232C14.4594 9.99211 14.4199 9.96144 14.3812 9.9312C14.1598 9.75805 13.9528 9.59026 13.7693 9.40926C13.1961 8.84383 12.6668 7.94843 12.4263 7.50459C12.3414 7.34772 12.1773 7.25 11.9989 7.25C11.8205 7.25 11.6564 7.34772 11.5715 7.50459C11.3311 7.94843 10.8017 8.84383 10.2285 9.40926C10.045 9.59026 9.83801 9.75805 9.61658 9.9312C9.57733 9.96189 9.53725 9.99303 9.4967 10.0245L9.49669 10.0245C9.31611 10.1648 9.12586 10.3126 8.95494 10.4629C8.54094 10.827 8.10999 11.3139 8.10999 12.0139C8.10999 13.1816 9.13129 14.0556 10.2975 14.0556ZM8 3.5C8.18939 3.5 8.36252 3.607 8.44721 3.77639L9.44721 5.77639L9.94721 6.77639C10.0707 7.02338 9.9706 7.32372 9.72361 7.44721C9.47662 7.57071 9.17628 7.4706 9.05279 7.22361L8.69098 6.5H7.30902L6.94721 7.22361C6.82372 7.4706 6.52338 7.57071 6.27639 7.44721C6.0294 7.32372 5.92929 7.02338 6.05279 6.77639L6.55279 5.77639L7.55279 3.77639C7.63748 3.607 7.81061 3.5 8 3.5ZM8.19098 5.5L8 5.11803L7.80902 5.5H8.19098ZM16.4472 16.7764C16.3625 16.607 16.1894 16.5 16 16.5C15.8106 16.5 15.6375 16.607 15.5528 16.7764L14.5528 18.7764L14.0528 19.7764C13.9293 20.0234 14.0294 20.3237 14.2764 20.4472C14.5234 20.5707 14.8237 20.4706 14.9472 20.2236L15.309 19.5H16.691L17.0528 20.2236C17.1763 20.4706 17.4766 20.5707 17.7236 20.4472C17.9706 20.3237 18.0707 20.0234 17.9472 19.7764L17.4472 18.7764L16.4472 16.7764ZM16 18.118L16.191 18.5H15.809L16 18.118Z" fill="black"/>
</svg>
