<svg width="24" height="24" viewBox="0 0 24 24" fill="none" xmlns="http://www.w3.org/2000/svg">
<path fill-rule="evenodd" clip-rule="evenodd" d="M4 5C4 4.44772 4.44772 4 5 4H19C19.5523 4 20 4.44772 20 5V13V19C20 19.1865 19.949 19.361 19.8601 19.5104L16 6L12.9779 16.5773C12.8386 15.2509 12.0511 14.1177 10.938 13.5C12.1677 12.8176 13 11.506 13 10C13 7.79086 11.2091 6 9 6C6.79086 6 5 7.79086 5 10C5 11.506 5.83229 12.8176 7.062 13.5C5.83229 14.1824 5 15.494 5 17C5 18.1947 5.52375 19.2671 6.35418 20H5C4.44772 20 4 19.5523 4 19V5ZM5 2C3.34315 2 2 3.34315 2 5V19C2 20.6569 3.34315 22 5 22H19C20.6569 22 22 20.6569 22 19V13V5C22 3.34315 20.6569 2 19 2H5ZM9 15C7.89543 15 7 15.8954 7 17C7 18.1046 7.89543 19 9 19C10.1046 19 11 18.1046 11 17C11 15.8954 10.1046 15 9 15ZM7 10C7 8.89543 7.89543 8 9 8C10.1046 8 11 8.89543 11 10C11 11.1046 10.1046 12 9 12C7.89543 12 7 11.1046 7 10Z" fill="black"/>
</svg>
