<svg width="24" height="24" viewBox="0 0 24 24" fill="none" xmlns="http://www.w3.org/2000/svg">
<path fill-rule="evenodd" clip-rule="evenodd" d="M12 0C12.5523 0 13 0.447715 13 1V2H14C14.5523 2 15 2.44772 15 3C15 3.55228 14.5523 4 14 4H13L13 6.13426C14.1873 6.46304 15.1164 7.36761 15.6095 8.53557C16.7887 7.70672 18.0146 7.33092 19.1893 7.38765C20.8173 7.46629 22.1801 8.37142 22.9824 9.70379C24.5267 12.2682 23.9536 16.1461 20.2565 19.277L21.1708 21.1056C21.8357 22.4354 20.8688 24 19.382 24H4.61805C3.13129 24 2.1643 22.4354 2.82919 21.1056L3.74347 19.277C0.0464058 16.1461 -0.526611 12.2682 1.01767 9.70378C1.82002 8.37141 3.18278 7.46628 4.8108 7.38766C5.9855 7.33093 7.21132 7.70675 8.3906 8.5356C8.88363 7.36763 9.81271 6.46305 11 6.13427L11 4H10C9.44771 4 9 3.55228 9 3C9 2.44772 9.44771 2 10 2H11V1C11 0.447715 11.4477 0 12 0ZM8.01285 10.8098C6.84088 9.69153 5.74956 9.34466 4.90727 9.38533C4.0034 9.42898 3.2202 9.92317 2.73099 10.7355C1.80208 12.2781 1.87787 15.2648 5.34014 18H10.4437C10.1872 17.422 9.88055 16.7115 9.57338 15.9543C9.19326 15.0173 8.80704 13.9956 8.51427 13.0583C8.27053 12.2779 8.06505 11.476 8.01285 10.8098ZM13.5564 18H18.6599C22.1222 15.2648 22.198 12.2781 21.2691 10.7355C20.7799 9.92318 19.9967 9.42898 19.0928 9.38533C18.2505 9.34464 17.1592 9.6915 15.9872 10.8097C15.935 11.4759 15.7296 12.2779 15.4858 13.0583C15.193 13.9956 14.8068 15.0173 14.4267 15.9543C14.1195 16.7115 13.8129 17.422 13.5564 18ZM18.382 20H12H5.61804L4.61805 22H19.382L18.382 20ZM12 16.5687C12.1822 16.1478 12.3779 15.6844 12.5734 15.2025C12.9433 14.2907 13.307 13.3255 13.5768 12.462C13.8564 11.5668 14 10.8867 14 10.5C14 10.4699 13.9996 10.4401 13.9989 10.4105C13.959 8.87922 12.9603 8 12 8C11.0398 8 10.0411 8.87924 10.0012 10.4105C10.0004 10.4401 10 10.47 10 10.5C10 10.8867 10.1437 11.5668 10.4233 12.462C10.693 13.3255 11.0568 14.2907 11.4267 15.2025C11.6222 15.6844 11.8179 16.1478 12 16.5687Z" fill="black"/>
</svg>
