<svg width="24" height="24" viewBox="0 0 24 24" fill="none" xmlns="http://www.w3.org/2000/svg">
<path fill-rule="evenodd" clip-rule="evenodd" d="M16 2C16 1.44772 16.4477 1 17 1H18H19C19.5523 1 20 1.44772 20 2C20 2.55228 19.5523 3 19 3V5C20.6569 5 22 6.34315 22 8V20C22 21.6569 20.6569 23 19 23H5C3.34315 23 2 21.6569 2 20V8C2 6.34315 3.34315 5 5 5V4C4.44772 4 4 3.55228 4 3C4 2.44772 4.44772 2 5 2H6H7C7.55228 2 8 2.44772 8 3C8 3.55228 7.55228 4 7 4V5H17V3C16.4477 3 16 2.55228 16 2ZM6 7H18H19C19.5523 7 20 7.44772 20 8V20C20 20.5523 19.5523 21 19 21H5C4.44772 21 4 20.5523 4 20V8C4 7.44772 4.44772 7 5 7H6ZM12 8C12.5523 8 13 8.44771 13 9V13.4648L15.5547 15.1679C16.0142 15.4743 16.1384 16.0952 15.8321 16.5547C15.5257 17.0142 14.9048 17.1384 14.4453 16.8321L11.4453 14.8321C11.1671 14.6466 11 14.3344 11 14V9C11 8.44771 11.4477 8 12 8ZM7 15C7.55228 15 8 14.5523 8 14C8 13.4477 7.55228 13 7 13C6.44772 13 6 13.4477 6 14C6 14.5523 6.44772 15 7 15ZM18 14C18 14.5523 17.5523 15 17 15C16.4477 15 16 14.5523 16 14C16 13.4477 16.4477 13 17 13C17.5523 13 18 13.4477 18 14ZM12 20C12.5523 20 13 19.5523 13 19C13 18.4477 12.5523 18 12 18C11.4477 18 11 18.4477 11 19C11 19.5523 11.4477 20 12 20Z" fill="black"/>
</svg>
