<svg width="24" height="24" viewBox="0 0 24 24" fill="none" xmlns="http://www.w3.org/2000/svg">
<path fill-rule="evenodd" clip-rule="evenodd" d="M11 3C11 2.44772 11.4477 2 12 2C12.5523 2 13 2.44772 13 3C13 3.50677 12.6221 3.9269 12.1332 3.99133C12.09 3.99701 12.0456 4 12 4C11.9546 4 11.9104 3.99704 11.8675 3.99142C11.3782 3.92728 11 3.50701 11 3ZM12 0C10.3431 0 9 1.34315 9 3C9 3.99415 9.48318 4.87477 10.2276 5.42055C9.53562 6.30053 8.69368 7.05536 7.81125 7.84648L7.81124 7.8465C7.50553 8.12057 7.19496 8.399 6.88409 8.68851C5.45031 10.0237 4 11.6255 4 14C4 16.1254 5.20673 17.8626 6.27152 18.9949L6.27629 19H5C4.66565 19 4.35342 19.1671 4.16795 19.4453L2.16795 22.4453C1.96338 22.7522 1.94431 23.1467 2.11833 23.4719C2.29235 23.797 2.63121 24 3 24L10 24C10.3344 24 10.6466 23.8329 10.8321 23.5547L12 21.8028L13.168 23.5547C13.3534 23.8329 13.6656 24 14 24L21 24C21.3688 24 21.7077 23.797 21.8817 23.4719C22.0557 23.1467 22.0366 22.7522 21.8321 22.4453L19.8321 19.4453C19.6466 19.1671 19.3344 19 19 19H17.7864C18.8488 17.8739 20 16.1625 20 14C20 11.4029 18.5767 9.79747 17.1013 8.48024C16.7509 8.16747 16.4037 7.87346 16.0648 7.58658L16.0648 7.58655C15.2262 6.87651 14.4392 6.21018 13.7849 5.41135C14.5222 4.8649 15 3.98858 15 3C15 1.34315 13.6569 0 12 0ZM9.04255 9.43241C10.0139 8.56521 11.1184 7.57916 12.0068 6.38165C12.881 7.52471 13.9635 8.43699 14.9124 9.23675C15.2154 9.49208 15.5047 9.73595 15.7693 9.97219C17.1264 11.1837 18 12.2837 18 14C18 15.4619 17.1988 16.7249 16.2787 17.6831C15.8277 18.1528 15.3738 18.5217 15.0324 18.7729C14.906 18.8659 14.7962 18.9419 14.7092 19L12 19L9.30688 19C9.21978 18.9382 9.11096 18.8586 8.98624 18.7622C8.64145 18.496 8.18344 18.1086 7.72848 17.6248C6.79327 16.6303 6 15.3675 6 14C6 12.5396 6.84755 11.4555 8.24709 10.1521C8.49575 9.92057 8.76365 9.6814 9.04252 9.43244L9.04255 9.43241ZM9 21H10.1315L9.46482 22L4.86852 22L5.53519 21H9ZM15 21H13.8685L14.5352 22L19.1315 22L18.4648 21H15ZM13 11C13 10.4477 12.5523 10 12 10C11.4477 10 11 10.4477 11 11V12H10C9.44772 12 9 12.4477 9 13C9 13.5523 9.44772 14 10 14H11V16C11 16.5523 11.4477 17 12 17C12.5523 17 13 16.5523 13 16V14H14C14.5523 14 15 13.5523 15 13C15 12.4477 14.5523 12 14 12H13V11Z" fill="black"/>
</svg>
