<svg width="24" height="24" viewBox="0 0 24 24" fill="none" xmlns="http://www.w3.org/2000/svg">
<g clip-path="url(#clip0)">
<path fill-rule="evenodd" clip-rule="evenodd" d="M11.741 1.15609C11.4317 0.97613 11.0498 0.975177 10.7396 1.15359C10.4294 1.33201 10.2381 1.66259 10.2381 2.02045V3.66965C9.42946 3.72609 8.75085 3.89045 8.17166 4.16316C7.34428 4.55272 6.80904 5.12139 6.4045 5.71436C6.16706 6.0624 5.93214 6.49502 5.72542 6.8757L5.72542 6.87571C5.62366 7.06312 5.52873 7.23793 5.4437 7.38387C5.14772 7.89188 4.82695 8.34202 4.35936 8.73219C3.55078 9.4069 2.54177 10.2899 1.73963 10.9999C1.33753 11.3558 0.985507 11.6699 0.733956 11.8951C0.608159 12.0077 0.507433 12.0981 0.438071 12.1604L0.358322 12.2322L0.337556 12.2509L0.332207 12.2557L0.330823 12.2569L0.330458 12.2573L0.330358 12.2574L1.00004 13L0.330312 12.2574C-0.00347821 12.5584 -0.0954013 13.0452 0.105615 13.4472L1.60562 16.4472C1.81729 16.8706 2.29679 17.0875 2.75454 16.9671L8.76931 15.3842L7.32301 19H6.00004C5.56961 19 5.18747 19.2754 5.05136 19.6838L4.27928 22H4.00004C3.44776 22 3.00004 22.4477 3.00004 23C3.00004 23.5523 3.44776 24 4.00004 24H5.00004H21H22C22.5523 24 23 23.5523 23 23C23 22.4477 22.5523 22 22 22H21.7208L20.9487 19.6838C20.8126 19.2754 20.4305 19 20.0001 19H20H19.9999H19.9994H19.9974H19.9897H19.9591L19.8419 19L19.4115 19L19.0423 19C19.1365 17.8621 19.3753 16.7852 19.6254 15.6572L19.6254 15.657C19.6979 15.3302 19.7713 14.9991 19.8424 14.661C20.2213 12.8599 20.5122 10.9255 19.9702 8.7574C19.4251 6.57722 18.4083 5.25894 16.9475 4.18033C16.2461 3.66245 15.4489 3.20407 14.5936 2.73469C14.3581 2.60546 14.1182 2.47537 13.8727 2.34223L13.8724 2.34208C13.2105 1.98319 12.5077 1.60213 11.741 1.15609ZM3.03117 14.8262L2.23567 13.2352C2.46442 13.0308 2.74925 12.7771 3.06518 12.4975C3.86461 11.7899 4.8556 10.9229 5.64073 10.2678C6.35749 9.6697 6.81639 9.0007 7.1718 8.3907C7.3304 8.11847 7.45341 7.8895 7.56448 7.68275L7.56448 7.68275L7.56449 7.68274C7.72908 7.37637 7.86746 7.11879 8.05664 6.8415C8.32327 6.45067 8.60729 6.16865 9.02364 5.97261C9.45703 5.76855 10.1203 5.6175 11.2058 5.65258C11.4765 5.66133 11.7392 5.55992 11.9337 5.37154C12.1283 5.18316 12.2381 4.92392 12.2381 4.6531V3.72992C12.4803 3.86243 12.7149 3.98961 12.941 4.11222L12.9416 4.11256L12.942 4.1128C13.1816 4.24269 13.4117 4.36746 13.6314 4.48801C14.4794 4.9534 15.1745 5.35732 15.7595 5.78929C16.8716 6.6104 17.6048 7.54209 18.0299 9.24247C18.458 10.955 18.2489 12.5205 17.8853 14.2493C17.8234 14.5436 17.7561 14.8451 17.6874 15.1537C17.424 16.3351 17.1375 17.6202 17.0372 19L11.6541 19L9.47708 19L10.9285 15.3714C11.0036 15.1837 11.0178 14.9867 10.9804 14.8024L12.2545 14.4671C12.7886 14.3265 13.1077 13.7796 12.9671 13.2455C12.8266 12.7114 12.2796 12.3924 11.7455 12.5329L3.03117 14.8262ZM8.00004 21V20L8.00012 21H8.00034H8.00121H8.00471H8.01855H8.07292H8.28252L9.05783 21L11.6541 21L18 21L19.2793 21L19.6126 22H6.38747L6.7208 21H8.00004ZM9.50006 11C10.3285 11 11.0001 10.3284 11.0001 9.5C11.0001 8.67157 10.3285 8 9.50006 8C8.67163 8 8.00006 8.67157 8.00006 9.5C8.00006 10.3284 8.67163 11 9.50006 11Z" fill="black"/>
</g>
<defs>
<clipPath id="clip0">
<rect width="24" height="24" fill="white"/>
</clipPath>
</defs>
</svg>
