<svg width="24" height="24" viewBox="0 0 24 24" fill="none" xmlns="http://www.w3.org/2000/svg">
<path fill-rule="evenodd" clip-rule="evenodd" d="M11.5029 1.15609C11.1935 0.97613 10.8116 0.975177 10.5014 1.15359C10.1912 1.33201 9.99999 1.66259 9.99999 2.02045V3.68226C9.33341 3.75004 8.75596 3.91675 8.24793 4.18005C7.49272 4.57147 6.97917 5.13114 6.57499 5.69604C6.37548 5.97487 6.19574 6.26503 6.02967 6.53881C5.9929 6.59944 5.95694 6.65901 5.92146 6.71778C5.79158 6.93296 5.66811 7.13749 5.53425 7.34475C5.20051 7.8615 4.843 8.32858 4.3593 8.73219C3.23043 9.67416 1.70728 11.0252 0.899071 11.7473C0.224632 12.3499 0.0446075 13.3253 0.445745 14.1276L1.24226 15.7206C1.66561 16.5673 2.62461 17.0013 3.5401 16.7603L8.76926 15.3842L7.32295 19H5.99999C5.56956 19 5.18742 19.2754 5.0513 19.6838L4.27923 22H3.99999C3.4477 22 2.99999 22.4477 2.99999 23C2.99999 23.5523 3.4477 24 3.99999 24H4.99999H21H22C22.5523 24 23 23.5523 23 23C23 22.4477 22.5523 22 22 22H21.7207L20.9487 19.6838C20.8126 19.2754 20.4304 19 20 19H20H19.9998H19.9994H19.9974H19.9896H19.9591L19.8418 19L19.4114 19L19.0422 19C19.1364 17.8621 19.3752 16.7852 19.6253 15.6572L19.6254 15.657C19.6978 15.3302 19.7712 14.9991 19.8424 14.661C20.2212 12.8599 20.5121 10.9255 19.9701 8.7574C19.4192 6.5535 18.3248 5.23608 16.811 4.16777C16.0823 3.65354 15.2573 3.19699 14.3831 2.72953C14.2107 2.63732 14.036 2.54449 13.8587 2.45031L13.8587 2.4503C13.1238 2.05985 12.3449 1.64601 11.5029 1.15609ZM10.9285 15.3714C11.0035 15.1837 11.0177 14.9867 10.9804 14.8024L12.2545 14.4671C12.7886 14.3265 13.1076 13.7796 12.9671 13.2455C12.8265 12.7114 12.2796 12.3924 11.7455 12.5329L3.03111 14.8262L2.23561 13.2352C3.04532 12.5118 4.54252 11.1841 5.64067 10.2678C6.34133 9.68314 6.82599 9.03109 7.21432 8.42982C7.36635 8.19443 7.50998 7.95641 7.64172 7.73812L7.64174 7.73808L7.73968 7.57607C7.90234 7.3079 8.04907 7.07288 8.20152 6.85983C8.50124 6.44093 8.79357 6.14991 9.16824 5.95573C9.54299 5.7615 10.0884 5.61894 10.9617 5.65237C11.2334 5.66277 11.4976 5.56212 11.6934 5.3736C11.8893 5.18509 12 4.92495 12 4.6531V3.72468C12.3235 3.89947 12.635 4.06497 12.933 4.22327L12.9332 4.22336L12.9332 4.2234C13.1069 4.31563 13.2759 4.40542 13.44 4.49317C14.3138 4.96048 15.0405 5.36622 15.6578 5.80185C16.836 6.63326 17.6107 7.56581 18.0298 9.24247C18.458 10.955 18.2489 12.5205 17.8852 14.2493C17.8233 14.5436 17.7561 14.8451 17.6873 15.1537C17.424 16.3351 17.1375 17.6202 17.0372 19L11.6541 19L9.47702 19L10.9285 15.3714ZM7.99999 21V20L8.00006 21H8.00028H8.00116H8.00465H8.01849H8.07286H8.28247L9.05777 21L11.6541 21L18 21L19.2792 21L19.6126 22H6.38741L6.72075 21H7.99999ZM9.5 11C10.3284 11 11 10.3284 11 9.5C11 8.67157 10.3284 8 9.5 8C8.67157 8 8 8.67157 8 9.5C8 10.3284 8.67157 11 9.5 11Z" fill="black"/>
</svg>
