<svg width="24" height="24" viewBox="0 0 24 24" fill="none" xmlns="http://www.w3.org/2000/svg">
<path fill-rule="evenodd" clip-rule="evenodd" d="M2 4C2 3.44772 2.44772 3 3 3H7C7.55228 3 8 3.44772 8 4V5.5C8 5.77614 8.22386 6 8.5 6C8.77614 6 9 5.77614 9 5.5V4C9 3.44772 9.44772 3 10 3H14C14.5523 3 15 3.44772 15 4V5.5C15 5.77614 15.2239 6 15.5 6C15.7761 6 16 5.77614 16 5.5V4C16 3.44772 16.4477 3 17 3H21C21.5523 3 22 3.44772 22 4V7C22 8.86384 20.7252 10.4299 19 10.874V19H20C20.4304 19 20.8126 19.2754 20.9487 19.6838L21.7208 22H22C22.5523 22 23 22.4477 23 23C23 23.5523 22.5523 24 22 24H21H3H2C1.44772 24 1 23.5523 1 23C1 22.4477 1.44772 22 2 22H2.27924L3.05132 19.6838C3.18743 19.2754 3.56957 19 4 19H5V10.874C3.27477 10.4299 2 8.86384 2 7V4ZM7 11V19H17V11H7ZM4.38743 22H19.6126L19.2792 21H18H6H4.72076L4.38743 22ZM4 5V7C4 8.10457 4.89543 9 6 9H18C19.1046 9 20 8.10457 20 7V5H18V5.5C18 6.88071 16.8807 8 15.5 8C14.1193 8 13 6.88071 13 5.5V5H11V5.5C11 6.88071 9.88071 8 8.5 8C7.11929 8 6 6.88071 6 5.5V5H4Z" fill="black"/>
</svg>
