<svg width="24" height="24" viewBox="0 0 24 24" fill="none" xmlns="http://www.w3.org/2000/svg">
<path fill-rule="evenodd" clip-rule="evenodd" d="M10.5014 1.15359C10.8116 0.975177 11.1935 0.97613 11.5029 1.15609C12.3449 1.64601 13.1238 2.05985 13.8587 2.4503L13.8587 2.45031C14.036 2.54449 14.2107 2.63732 14.3831 2.72953C15.2573 3.19699 16.0823 3.65354 16.811 4.16777C18.3248 5.23608 19.4192 6.5535 19.9701 8.7574C20.5121 10.9255 20.2212 12.8599 19.8424 14.661C19.7713 14.999 19.6979 15.33 19.6254 15.6567L19.6254 15.657L19.6253 15.6572C19.3752 16.7852 19.1364 17.8621 19.0422 19L19.4114 19L19.8418 19L19.9591 19H19.9896H19.9974H19.9994H19.9998H20H20C20.4304 19 20.8126 19.2754 20.9487 19.6838L21.7207 22H22C22.5523 22 23 22.4477 23 23C23 23.5523 22.5523 24 22 24H21H4.99999H3.99999C3.4477 24 2.99999 23.5523 2.99999 23C2.99999 22.4477 3.4477 22 3.99999 22H4.27923L5.0513 19.6838C5.18742 19.2754 5.56956 19 5.99999 19H7.32295L8.76926 15.3842L3.5401 16.7603C2.62461 17.0013 1.66561 16.5673 1.24226 15.7206L0.445745 14.1276C0.0446075 13.3253 0.224632 12.3499 0.899071 11.7473C1.70728 11.0252 3.23043 9.67416 4.3593 8.73219C4.843 8.32858 5.20051 7.8615 5.53425 7.34475C5.66811 7.13749 5.79158 6.93296 5.92146 6.71778C5.95694 6.65901 5.9929 6.59944 6.02967 6.53881C6.19574 6.26503 6.37548 5.97487 6.57499 5.69604C6.97917 5.13114 7.49272 4.57147 8.24793 4.18005C8.75596 3.91675 9.33341 3.75004 9.99999 3.68226V2.02045C9.99999 1.66259 10.1912 1.33201 10.5014 1.15359ZM10.9804 14.8024C11.0177 14.9867 11.0035 15.1837 10.9285 15.3714L9.47702 19L11.6541 19L17.0372 19C17.1375 17.6202 17.424 16.3351 17.6873 15.1537C17.7561 14.8451 17.8233 14.5436 17.8852 14.2493C18.2489 12.5205 18.458 10.955 18.0298 9.24247C17.6107 7.56581 16.836 6.63326 15.6578 5.80185C15.0405 5.36622 14.3138 4.96048 13.44 4.49317C13.2759 4.40542 13.1069 4.31563 12.9332 4.2234L12.9332 4.22336L12.933 4.22327L12.9325 4.22299C12.6347 4.06478 12.3233 3.89937 12 3.72468V4.6531C12 4.92495 11.8893 5.18509 11.6934 5.3736C11.4976 5.56212 11.2334 5.66277 10.9617 5.65237C10.0884 5.61894 9.54299 5.7615 9.16824 5.95573C8.79357 6.14991 8.50124 6.44093 8.20152 6.85983C8.04907 7.07288 7.90234 7.3079 7.73968 7.57607L7.64174 7.73808L7.64172 7.73812C7.50998 7.95641 7.36635 8.19443 7.21432 8.42982C6.82599 9.03109 6.34133 9.68314 5.64067 10.2678C4.54252 11.1841 3.04532 12.5118 2.23561 13.2352L3.03111 14.8262L11.7455 12.5329C12.2796 12.3924 12.8265 12.7114 12.9671 13.2455C13.1076 13.7796 12.7886 14.3265 12.2545 14.4671L10.9804 14.8024ZM7 21H9L9.05777 21L11.6541 21L18 21L19.2792 21L19.6126 22H6.38741L6.72075 21L7 21ZM9.5 11C10.3284 11 11 10.3284 11 9.5C11 8.67157 10.3284 8 9.5 8C8.67157 8 8 8.67157 8 9.5C8 10.3284 8.67157 11 9.5 11Z" fill="black"/>
</svg>
