<svg width="24" height="24" viewBox="0 0 24 24" fill="none" xmlns="http://www.w3.org/2000/svg">
<path fill-rule="evenodd" clip-rule="evenodd" d="M7.32437 4L2.6577 12L3.05307 12.6778C3.08047 12.5974 3.11863 12.5193 3.16795 12.4453L5.16795 9.4453C5.33413 9.19602 5.60333 9.03439 5.90146 9.00487C6.1996 8.97535 6.49526 9.08105 6.70711 9.29289L7.91672 10.5025L11.1588 5.45924C11.3381 5.18031 11.6441 5.00841 11.9755 5.0003C12.307 4.99219 12.621 5.14893 12.8137 5.41876L16.4099 10.4534L17.2 9.4C17.3889 9.14819 17.6852 9 18 9C18.3148 9 18.6111 9.14819 18.8 9.4L21.0832 12.4442L21.3423 12L16.6756 4L7.32437 4ZM15.151 12.1319L12.0436 7.78147L8.34118 13.5408C8.04253 14.0053 7.42381 14.1398 6.95924 13.8412C6.49467 13.5425 6.36017 12.9238 6.65882 12.4592L6.8101 12.2239C6.80432 12.2184 6.79858 12.2128 6.79289 12.2071L6.15543 11.5696L4.83205 13.5547C4.60261 13.8989 4.19676 14.0549 3.81439 13.9829L7.32437 20H16.6756L19.9894 14.3192L18 11.6667L15.8 14.6C15.4686 15.0418 14.8418 15.1314 14.4 14.8C13.9582 14.4686 13.8686 13.8418 14.2 13.4L15.151 12.1319ZM6.75 2H17.25C17.6057 2 17.9346 2.18891 18.1138 2.49613L23.3638 11.4961C23.5454 11.8075 23.5454 12.1925 23.3638 12.5039L18.1138 21.5039C17.9346 21.8111 17.6057 22 17.25 22H6.75C6.39433 22 6.06543 21.8111 5.88622 21.5039L0.636221 12.5039C0.454593 12.1925 0.454593 11.8075 0.636221 11.4961L5.88622 2.49613C6.06543 2.18891 6.39433 2 6.75 2ZM12.8 13.4C12.6111 13.1482 12.3148 13 12 13C11.6852 13 11.3889 13.1482 11.2 13.4L8.2 17.4C7.86863 17.8418 7.95817 18.4686 8.4 18.8C8.84183 19.1314 9.46863 19.0418 9.8 18.6L12 15.6667L14.2 18.6C14.5314 19.0418 15.1582 19.1314 15.6 18.8C16.0418 18.4686 16.1314 17.8418 15.8 17.4L12.8 13.4Z" fill="black"/>
</svg>
