<svg width="24" height="24" viewBox="0 0 24 24" fill="none" xmlns="http://www.w3.org/2000/svg">
<path fill-rule="evenodd" clip-rule="evenodd" d="M2 6C2 4.34315 3.34315 3 5 3H19C20.6569 3 22 4.34315 22 6V8C22 8.55228 21.5523 9 21 9V18C21 19.6569 19.6569 21 18 21H6C4.34315 21 3 19.6569 3 18V9C2.44772 9 2 8.55228 2 8V6ZM5 9V18C5 18.5523 5.44772 19 6 19H18C18.5523 19 19 18.5523 19 18V9H5ZM4 7V6C4 5.44772 4.44772 5 5 5H19C19.5523 5 20 5.44772 20 6V7H4ZM8 13C8 12.4477 8.44772 12 9 12H15C15.5523 12 16 12.4477 16 13C16 13.5523 15.5523 14 15 14H9C8.44772 14 8 13.5523 8 13Z" fill="black"/>
</svg>
