<svg width="24" height="24" viewBox="0 0 24 24" fill="none" xmlns="http://www.w3.org/2000/svg">
<path fill-rule="evenodd" clip-rule="evenodd" d="M18.3121 23.3511C17.4463 23.0228 16.7081 22.5979 16.1267 22.1995C14.8513 22.7159 13.4578 23 12 23C5.92488 23 1.00002 18.0751 1.00002 12C1.00002 5.92487 5.92488 1 12 1C18.0751 1 23 5.92487 23 12C23 14.2788 22.306 16.3983 21.1179 18.1551C21.0425 19.6077 21.8054 20.9202 22.5972 22.0816C23.2907 23.0987 23.1167 23.9184 21.8236 23.9917C21.244 24.0245 19.9904 23.9874 18.3121 23.3511ZM3.00002 12C3.00002 7.02944 7.02945 3 12 3C16.9706 3 21 7.02944 21 12C21 13.9503 20.3808 15.7531 19.3281 17.2262C18.8622 17.8782 19.1018 19.0998 19.2616 19.8011C19.4167 20.4818 19.7533 21.2051 20.0856 21.8123C19.7674 21.7356 19.4111 21.6288 19.0212 21.481C18.1239 21.1407 17.3824 20.6624 16.8594 20.261C16.5626 20.0332 16.1635 19.9902 15.825 20.1494C14.6654 20.6947 13.3697 21 12 21C7.02945 21 3.00002 16.9706 3.00002 12ZM16.8 8.6C17.1314 8.15817 17.0418 7.53137 16.6 7.2C16.1582 6.86863 15.5314 6.95817 15.2 7.4L9.89182 14.4776L7.70712 12.2929C7.3166 11.9024 6.68343 11.9024 6.29291 12.2929C5.90238 12.6834 5.90238 13.3166 6.29291 13.7071L9.29291 16.7071C9.49789 16.9121 9.78174 17.018 10.0709 16.9975C10.3601 16.9769 10.6261 16.8319 10.8 16.6L16.8 8.6Z" fill="black"/>
</svg>
