<svg width="24" height="24" viewBox="0 0 24 24" fill="none" xmlns="http://www.w3.org/2000/svg">
<path fill-rule="evenodd" clip-rule="evenodd" d="M18.3121 23.3511C17.4463 23.0228 16.7081 22.5979 16.1267 22.1995C14.8513 22.7159 13.4578 23 12 23C5.92488 23 1.00001 18.0751 1.00001 12C1.00001 5.92487 5.92488 1 12 1C18.0751 1 23 5.92487 23 12C23 14.2788 22.306 16.3983 21.1179 18.1551C21.0425 19.6077 21.8054 20.9202 22.5972 22.0816C23.2907 23.0987 23.1167 23.9184 21.8236 23.9917C21.244 24.0245 19.9904 23.9874 18.3121 23.3511ZM3.00001 12C3.00001 7.02944 7.02944 3 12 3C16.9706 3 21 7.02944 21 12C21 13.9503 20.3808 15.7531 19.3281 17.2262C18.8622 17.8782 19.1018 19.0998 19.2616 19.8011C19.4167 20.4818 19.7532 21.2051 20.0856 21.8123C19.7674 21.7356 19.4111 21.6288 19.0212 21.481C18.1239 21.1407 17.3824 20.6624 16.8594 20.261C16.5626 20.0332 16.1635 19.9902 15.825 20.1494C14.6654 20.6947 13.3697 21 12 21C7.02944 21 3.00001 16.9706 3.00001 12ZM8 10.4762C8 9.66991 8.66253 9 9.5 9C10.3375 9 11 9.66991 11 10.4762C11 11.0285 11.4477 11.4762 12 11.4762C12.5523 11.4762 13 11.0285 13 10.4762C13 9.66991 13.6625 9 14.5 9C15.3375 9 16 9.66991 16 10.4762C16 11.4609 15.4254 12.5565 14.4643 13.6783C13.7174 14.5501 12.8171 15.3462 12 16.0091C11.1829 15.3462 10.2826 14.5501 9.53573 13.6783C8.57464 12.5565 8 11.4609 8 10.4762ZM9.5 7C10.4765 7 11.3633 7.39858 12 8.04333C12.6367 7.39858 13.5235 7 14.5 7C16.424 7 18 8.54734 18 10.4762C18 12.1884 17.0396 13.7464 15.9831 14.9796C14.9059 16.2369 13.5897 17.3155 12.6143 18.0748C12.253 18.356 11.747 18.356 11.3857 18.0748C10.4103 17.3155 9.09408 16.2369 8.0169 14.9796C6.96045 13.7464 6 12.1884 6 10.4762C6 8.54734 7.57605 7 9.5 7Z" fill="black"/>
</svg>
