<svg width="24" height="24" viewBox="0 0 24 24" fill="none" xmlns="http://www.w3.org/2000/svg">
<path fill-rule="evenodd" clip-rule="evenodd" d="M18.3121 23.3511C17.4463 23.0228 16.7081 22.5979 16.1266 22.1995C14.8513 22.7159 13.4578 23 12 23C5.92487 23 1 18.0751 1 12C1 5.92487 5.92487 1 12 1C18.0751 1 23 5.92487 23 12C23 14.2788 22.306 16.3983 21.1179 18.1551C21.0425 19.6077 21.8054 20.9202 22.5972 22.0816C23.2907 23.0987 23.1167 23.9184 21.8236 23.9917C21.244 24.0245 19.9903 23.9874 18.3121 23.3511ZM3 12C3 7.02944 7.02944 3 12 3C16.9706 3 21 7.02944 21 12C21 13.9503 20.3808 15.7531 19.328 17.2262C18.8622 17.8782 19.1018 19.0998 19.2616 19.8011C19.4167 20.4818 19.7532 21.2051 20.0856 21.8123C19.7674 21.7356 19.4111 21.6288 19.0212 21.481C18.1239 21.1407 17.3824 20.6624 16.8594 20.261C16.5626 20.0332 16.1635 19.9902 15.825 20.1494C14.6654 20.6947 13.3697 21 12 21C7.02944 21 3 16.9706 3 12ZM7 13.5C7.82843 13.5 8.5 12.8284 8.5 12C8.5 11.1716 7.82843 10.5 7 10.5C6.17157 10.5 5.5 11.1716 5.5 12C5.5 12.8284 6.17157 13.5 7 13.5ZM13.5 12C13.5 12.8284 12.8284 13.5 12 13.5C11.1716 13.5 10.5 12.8284 10.5 12C10.5 11.1716 11.1716 10.5 12 10.5C12.8284 10.5 13.5 11.1716 13.5 12ZM17 13.5C17.8284 13.5 18.5 12.8284 18.5 12C18.5 11.1716 17.8284 10.5 17 10.5C16.1716 10.5 15.5 11.1716 15.5 12C15.5 12.8284 16.1716 13.5 17 13.5Z" fill="black"/>
</svg>
