<svg width="24" height="24" viewBox="0 0 24 24" fill="none" xmlns="http://www.w3.org/2000/svg">
<path fill-rule="evenodd" clip-rule="evenodd" d="M18.3121 23.3511C17.4463 23.0228 16.7081 22.5979 16.1266 22.1995C14.8513 22.7159 13.4578 23 12 23C5.92487 23 1 18.0751 1 12C1 5.92487 5.92487 1 12 1C18.0751 1 23 5.92487 23 12C23 14.2788 22.306 16.3983 21.1179 18.1551C21.0425 19.6077 21.8054 20.9202 22.5972 22.0816C23.2907 23.0987 23.1167 23.9184 21.8236 23.9917C21.244 24.0245 19.9903 23.9874 18.3121 23.3511ZM3 12C3 7.02944 7.02944 3 12 3C16.9706 3 21 7.02944 21 12C21 13.9503 20.3808 15.7531 19.328 17.2262C18.8622 17.8782 19.1018 19.0998 19.2616 19.8011C19.4167 20.4818 19.7532 21.2051 20.0856 21.8123C19.7674 21.7356 19.4111 21.6288 19.0212 21.481C18.1239 21.1407 17.3824 20.6624 16.8594 20.261C16.5626 20.0332 16.1635 19.9902 15.825 20.1494C14.6654 20.6947 13.3697 21 12 21C7.02944 21 3 16.9706 3 12ZM9.1716 7.75736C8.78107 7.36684 8.14791 7.36684 7.75738 7.75736C7.36686 8.14788 7.36686 8.78105 7.75738 9.17157L10.5858 12L7.75738 14.8284C7.36686 15.219 7.36686 15.8521 7.75738 16.2426C8.14791 16.6332 8.78107 16.6332 9.1716 16.2426L12 13.4142L14.8285 16.2426C15.219 16.6332 15.8521 16.6332 16.2427 16.2426C16.6332 15.8521 16.6332 15.219 16.2427 14.8284L13.4142 12L16.2427 9.17157C16.6332 8.78105 16.6332 8.14788 16.2427 7.75736C15.8521 7.36684 15.219 7.36683 14.8285 7.75736L12 10.5858L9.1716 7.75736Z" fill="black"/>
</svg>
