<svg width="24" height="24" viewBox="0 0 24 24" fill="none" xmlns="http://www.w3.org/2000/svg">
<path fill-rule="evenodd" clip-rule="evenodd" d="M18.3121 23.3511C17.4463 23.0228 16.7081 22.5979 16.1266 22.1995C14.8513 22.7159 13.4578 23 12 23C5.92487 23 1 18.0751 1 12C1 5.92487 5.92487 1 12 1C18.0751 1 23 5.92487 23 12C23 14.2788 22.306 16.3983 21.1179 18.1551C21.0425 19.6077 21.8054 20.9202 22.5972 22.0816C23.2907 23.0987 23.1167 23.9184 21.8236 23.9917C21.244 24.0245 19.9903 23.9874 18.3121 23.3511ZM3 12C3 7.02944 7.02944 3 12 3C16.9706 3 21 7.02944 21 12C21 13.9503 20.3808 15.7531 19.328 17.2262C18.8622 17.8782 19.1018 19.0998 19.2616 19.8011C19.4167 20.4818 19.7532 21.2051 20.0856 21.8123C19.7674 21.7356 19.4111 21.6288 19.0212 21.481C18.1239 21.1407 17.3824 20.6624 16.8594 20.261C16.5626 20.0332 16.1635 19.9902 15.825 20.1494C14.6654 20.6947 13.3697 21 12 21C7.02944 21 3 16.9706 3 12ZM7 9C6.44772 9 6 9.44771 6 10C6 10.5523 6.44772 11 7 11H17C17.5523 11 18 10.5523 18 10C18 9.44771 17.5523 9 17 9H7ZM7 13C6.44772 13 6 13.4477 6 14C6 14.5523 6.44772 15 7 15H17C17.5523 15 18 14.5523 18 14C18 13.4477 17.5523 13 17 13H7Z" fill="black"/>
</svg>
