<svg width="24" height="24" viewBox="0 0 24 24" fill="none" xmlns="http://www.w3.org/2000/svg">
<path fill-rule="evenodd" clip-rule="evenodd" d="M16.1267 22.1995C16.7081 22.5979 17.4463 23.0228 18.3121 23.3511C19.9904 23.9874 21.244 24.0245 21.8236 23.9917C23.1167 23.9184 23.2907 23.0987 22.5972 22.0816C21.8054 20.9202 21.0425 19.6077 21.1179 18.1551C22.306 16.3983 23 14.2788 23 12C23 5.92487 18.0751 1 12 1C5.92488 1 1.00001 5.92487 1.00001 12C1.00001 18.0751 5.92488 23 12 23C13.4578 23 14.8513 22.7159 16.1267 22.1995ZM12 3C7.02945 3 3.00001 7.02944 3.00001 12C3.00001 16.9706 7.02945 21 12 21C13.3697 21 14.6654 20.6947 15.825 20.1494C16.1635 19.9902 16.5626 20.0332 16.8594 20.261C17.3824 20.6624 18.1239 21.1407 19.0212 21.481C19.4111 21.6288 19.7674 21.7356 20.0856 21.8123C19.7533 21.2051 19.4167 20.4818 19.2616 19.8011C19.1018 19.0998 18.8622 17.8782 19.3281 17.2262C20.3808 15.7531 21 13.9503 21 12C21 7.02944 16.9706 3 12 3ZM12 14C9.76094 14 8.4671 15.169 8.10992 16.3009C7.94372 16.8276 7.38202 17.1198 6.85534 16.9536C6.32866 16.7874 6.03643 16.2257 6.20263 15.6991C6.61242 14.4005 7.59994 13.2939 8.9933 12.6382C8.37493 11.934 8.00001 11.0108 8.00001 10C8.00001 7.79086 9.79087 6 12 6C14.2092 6 16 7.79086 16 10C16 11.0108 15.6251 11.934 15.0067 12.6382C16.4001 13.2939 17.3876 14.4005 17.7974 15.6991C17.9636 16.2257 17.6714 16.7874 17.1447 16.9536C16.618 17.1198 16.0563 16.8276 15.8901 16.3009C15.5329 15.169 14.2391 14 12 14ZM10 10C10 8.89543 10.8954 8 12 8C13.1046 8 14 8.89543 14 10C14 11.1046 13.1046 12 12 12C10.8954 12 10 11.1046 10 10Z" fill="black"/>
</svg>
