<svg width="24" height="24" viewBox="0 0 24 24" fill="none" xmlns="http://www.w3.org/2000/svg">
<path fill-rule="evenodd" clip-rule="evenodd" d="M14.2929 3.29286C13.9024 3.68339 13.9024 4.31655 14.2929 4.70708L17.5858 7.99997H12C7.58172 7.99997 4 11.5817 4 16V20C4 20.5523 4.44771 21 5 21C5.55229 21 6 20.5523 6 20V16C6 12.6863 8.68629 9.99997 12 9.99997H17.5858L14.2929 13.2929C13.9024 13.6834 13.9024 14.3166 14.2929 14.7071C14.6834 15.0976 15.3166 15.0976 15.7071 14.7071L20.7071 9.70708C21.0976 9.31655 21.0976 8.68339 20.7071 8.29286L15.7071 3.29286C15.3166 2.90234 14.6834 2.90234 14.2929 3.29286Z" fill="black"/>
</svg>
