<svg width="24" height="24" viewBox="0 0 24 24" fill="none" xmlns="http://www.w3.org/2000/svg">
<path fill-rule="evenodd" clip-rule="evenodd" d="M2 3C2 2.44772 2.44772 2 3 2H17C17.5523 2 18 2.44772 18 3V10H13C12.4477 10 12 10.4477 12 11V11.1C12 12.1493 11.1493 13 10.1 13H9.9C8.85066 13 8 12.1493 8 11.1V11C8 10.4477 7.55228 10 7 10H2V3ZM19 13C18.4477 13 18 12.5523 18 12H13.8956C13.4893 13.72 11.9441 15 10.1 15H9.9C8.05585 15 6.51066 13.72 6.10436 12H2V17C2 17.5523 2.44772 18 3 18H12C12.5523 18 13 18.4477 13 19C13 19.5523 12.5523 20 12 20H3C1.34315 20 0 18.6569 0 17V11V3C0 1.34315 1.34315 0 3 0H17C18.6569 0 20 1.34315 20 3V11V12C20 12.5523 19.5523 13 19 13ZM20 15.5C20 14.9477 19.5523 14.5 19 14.5C18.4477 14.5 18 14.9477 18 15.5V18H15.5C14.9477 18 14.5 18.4477 14.5 19C14.5 19.5523 14.9477 20 15.5 20H18V22.5C18 23.0523 18.4477 23.5 19 23.5C19.5523 23.5 20 23.0523 20 22.5V20H22.5C23.0523 20 23.5 19.5523 23.5 19C23.5 18.4477 23.0523 18 22.5 18H20V15.5Z" fill="black"/>
</svg>
