<svg width="24" height="24" viewBox="0 0 24 24" fill="none" xmlns="http://www.w3.org/2000/svg">
<path fill-rule="evenodd" clip-rule="evenodd" d="M2 3C2 2.44772 2.44772 2 3 2H17C17.5523 2 18 2.44772 18 3V10H13C12.4477 10 12 10.4477 12 11V11.1C12 12.1493 11.1493 13 10.1 13H9.9C8.85066 13 8 12.1493 8 11.1V11C8 10.4477 7.55228 10 7 10H2V3ZM19 13C18.4477 13 18 12.5523 18 12H13.8956C13.4893 13.72 11.9441 15 10.1 15H9.9C8.05585 15 6.51066 13.72 6.10436 12H2V17C2 17.5523 2.44772 18 3 18H11C11.5523 18 12 18.4477 12 19C12 19.5523 11.5523 20 11 20H3C1.34315 20 0 18.6569 0 17V11V3C0 1.34315 1.34315 0 3 0H17C18.6569 0 20 1.34315 20 3V11V12C20 12.5523 19.5523 13 19 13ZM22.7894 15.6139C23.1284 15.178 23.0499 14.5497 22.6139 14.2106C22.178 13.8716 21.5497 13.9501 21.2106 14.3861L17.2268 19.5081L15.6941 18.0302C15.2966 17.6468 14.6635 17.6583 14.2802 18.0559C13.8968 18.4534 13.9083 19.0865 14.3059 19.4698L16.6392 21.7198C16.8434 21.9167 17.1216 22.0177 17.4045 21.9975C17.6875 21.9773 17.9485 21.8379 18.1227 21.6139L22.7894 15.6139Z" fill="black"/>
</svg>
