<svg width="24" height="24" viewBox="0 0 24 24" fill="none" xmlns="http://www.w3.org/2000/svg">
<path fill-rule="evenodd" clip-rule="evenodd" d="M5 4C4.44772 4 4 4.44772 4 5V12H9C9.55228 12 10 12.4477 10 13V13.1C10 14.1493 10.8507 15 11.9 15H12.1C13.1493 15 14 14.1493 14 13.1V13C14 12.4477 14.4477 12 15 12H20V5C20 4.44772 19.5523 4 19 4H5ZM20 14H15.8956C15.4893 15.72 13.9441 17 12.1 17H11.9C10.0559 17 8.51066 15.72 8.10436 14H4V19C4 19.5523 4.44772 20 5 20H19C19.5523 20 20 19.5523 20 19V14ZM2 5C2 3.34315 3.34315 2 5 2H19C20.6569 2 22 3.34315 22 5V13V19C22 20.6569 20.6569 22 19 22H5C3.34315 22 2 20.6569 2 19V13V5Z" fill="black"/>
</svg>
