<svg width="24" height="24" viewBox="0 0 24 24" fill="none" xmlns="http://www.w3.org/2000/svg">
<path fill-rule="evenodd" clip-rule="evenodd" d="M2 3C2 2.44772 2.44772 2 3 2H17C17.5523 2 18 2.44772 18 3V10H13C12.4477 10 12 10.4477 12 11V11.1C12 12.1493 11.1493 13 10.1 13H9.9C8.85066 13 8 12.1493 8 11.1V11C8 10.4477 7.55228 10 7 10H2V3ZM19 13C18.4477 13 18 12.5523 18 12H13.8956C13.4893 13.72 11.9441 15 10.1 15H9.9C8.05585 15 6.51066 13.72 6.10436 12H2V17C2 17.5523 2.44772 18 3 18H12C12.5523 18 13 18.4477 13 19C13 19.5523 12.5523 20 12 20H3C1.34315 20 0 18.6569 0 17V11V3C0 1.34315 1.34315 0 3 0H17C18.6569 0 20 1.34315 20 3V11V12C20 12.5523 19.5523 13 19 13ZM16.7071 14.2929C16.3166 13.9024 15.6834 13.9024 15.2929 14.2929C14.9024 14.6834 14.9024 15.3166 15.2929 15.7071L17.5858 18L15.2929 20.2929C14.9024 20.6834 14.9024 21.3166 15.2929 21.7071C15.6834 22.0976 16.3166 22.0976 16.7071 21.7071L19 19.4142L21.2929 21.7071C21.6834 22.0976 22.3166 22.0976 22.7071 21.7071C23.0976 21.3166 23.0976 20.6834 22.7071 20.2929L20.4142 18L22.7071 15.7071C23.0976 15.3166 23.0976 14.6834 22.7071 14.2929C22.3166 13.9024 21.6834 13.9024 21.2929 14.2929L19 16.5858L16.7071 14.2929Z" fill="black"/>
</svg>
