<svg width="24" height="24" viewBox="0 0 24 24" fill="none" xmlns="http://www.w3.org/2000/svg">
<path fill-rule="evenodd" clip-rule="evenodd" d="M2 4C1.44772 4 1 4.44772 1 5C1 5.55228 1.44772 6 2 6H3V17C3 18.6569 4.34315 20 6 20H18C19.6569 20 21 18.6569 21 17V6H22C22.5523 6 23 5.55228 23 5C23 4.44772 22.5523 4 22 4H20C19.4477 4 19 4.44772 19 5V17C19 17.5523 18.5523 18 18 18H6C5.44772 18 5 17.5523 5 17V5C5 4.44772 4.55228 4 4 4H2ZM9.1716 6.75736C8.78107 6.36684 8.14791 6.36684 7.75738 6.75736C7.36686 7.14788 7.36686 7.78105 7.75738 8.17157L10.5858 11L7.75738 13.8284C7.36686 14.219 7.36686 14.8521 7.75738 15.2426C8.14791 15.6332 8.78107 15.6332 9.1716 15.2426L12 12.4142L14.8285 15.2426C15.219 15.6332 15.8521 15.6332 16.2427 15.2426C16.6332 14.8521 16.6332 14.219 16.2427 13.8284L13.4142 11L16.2427 8.17157C16.6332 7.78105 16.6332 7.14788 16.2427 6.75736C15.8521 6.36684 15.219 6.36683 14.8285 6.75736L12 9.58579L9.1716 6.75736Z" fill="black"/>
</svg>
