<svg width="24" height="24" viewBox="0 0 24 24" fill="none" xmlns="http://www.w3.org/2000/svg">
<path fill-rule="evenodd" clip-rule="evenodd" d="M2.8 3C1.86451 3 1.0468 3.46923 0.544325 4.16792C0.20074 4.64567 0 5.23499 0 5.86667V16.1333C0 17.682 1.21964 19 2.8 19H12.2C12.7523 19 13.2 18.5523 13.2 18C13.2 17.4477 12.7523 17 12.2 17H2.8C2.39214 17 2 16.6466 2 16.1333V6.94766L7.77948 13.3096C8.96986 14.6199 11.0301 14.6199 12.2205 13.3096L18 6.94766V11.1333C18 11.6856 18.4477 12.1333 19 12.1333C19.5523 12.1333 20 11.6856 20 11.1333V5.86667C20 5.235 19.7993 4.64567 19.4557 4.16792C18.9532 3.46923 18.1355 3 17.2 3H2.8ZM9.25983 11.9647L2.9327 5H17.0673L10.7402 11.9647C10.3434 12.4015 9.65662 12.4015 9.25983 11.9647ZM20 14.5C20 13.9477 19.5523 13.5 19 13.5C18.4477 13.5 18 13.9477 18 14.5V17H15.5C14.9477 17 14.5 17.4477 14.5 18C14.5 18.5523 14.9477 19 15.5 19H18V21.5C18 22.0523 18.4477 22.5 19 22.5C19.5523 22.5 20 22.0523 20 21.5V19H22.5C23.0523 19 23.5 18.5523 23.5 18C23.5 17.4477 23.0523 17 22.5 17H20V14.5Z" fill="black"/>
</svg>
