<svg width="24" height="24" viewBox="0 0 24 24" fill="none" xmlns="http://www.w3.org/2000/svg">
<path fill-rule="evenodd" clip-rule="evenodd" d="M2.8 4C1.86451 4 1.0468 4.46923 0.544325 5.16792C0.20074 5.64567 0 6.23499 0 6.86667V17.1333C0 18.682 1.21964 20 2.8 20H12.2C12.7523 20 13.2 19.5523 13.2 19C13.2 18.4477 12.7523 18 12.2 18H2.8C2.39214 18 2 17.6466 2 17.1333V7.94766L7.77948 14.3096C8.96986 15.6199 11.0301 15.6199 12.2205 14.3096L18 7.94766V12.1333C18 12.6856 18.4477 13.1333 19 13.1333C19.5523 13.1333 20 12.6856 20 12.1333V6.86667C20 6.235 19.7993 5.64567 19.4557 5.16792C18.9532 4.46923 18.1355 4 17.2 4H2.8ZM9.25983 12.9647L2.9327 6H17.0673L10.7402 12.9647C10.3434 13.4015 9.65662 13.4015 9.25983 12.9647ZM16.7071 15.2929C16.3166 14.9024 15.6834 14.9024 15.2929 15.2929C14.9024 15.6834 14.9024 16.3166 15.2929 16.7071L17.5858 19L15.2929 21.2929C14.9024 21.6834 14.9024 22.3166 15.2929 22.7071C15.6834 23.0976 16.3166 23.0976 16.7071 22.7071L19 20.4142L21.2929 22.7071C21.6834 23.0976 22.3166 23.0976 22.7071 22.7071C23.0976 22.3166 23.0976 21.6834 22.7071 21.2929L20.4142 19L22.7071 16.7071C23.0976 16.3166 23.0976 15.6834 22.7071 15.2929C22.3166 14.9024 21.6834 14.9024 21.2929 15.2929L19 17.5858L16.7071 15.2929Z" fill="black"/>
</svg>
