<svg width="24" height="24" viewBox="0 0 24 24" fill="none" xmlns="http://www.w3.org/2000/svg">
<path fill-rule="evenodd" clip-rule="evenodd" d="M2.8 3C1.86451 3 1.0468 3.46923 0.544325 4.16792C0.20074 4.64567 0 5.23499 0 5.86667V16.1333C0 17.682 1.21964 19 2.8 19H10.2C10.7523 19 11.2 18.5523 11.2 18C11.2 17.4477 10.7523 17 10.2 17H2.8C2.39214 17 2 16.6466 2 16.1333V6.94766L7.77948 13.3096C8.96986 14.6199 11.0301 14.6199 12.2205 13.3096L18 6.94766V11.1333C18 11.6856 18.4477 12.1333 19 12.1333C19.5523 12.1333 20 11.6856 20 11.1333V5.86667C20 5.235 19.7993 4.64567 19.4557 4.16792C18.9532 3.46923 18.1355 3 17.2 3H2.8ZM9.25983 11.9647L2.9327 5H17.0673L10.7402 11.9647C10.3434 12.4015 9.65662 12.4015 9.25983 11.9647ZM18.2929 20.2929C17.9024 20.6834 17.9024 21.3166 18.2929 21.7071C18.6834 22.0976 19.3166 22.0976 19.7071 21.7071L22.7071 18.7071C23.0976 18.3166 23.0976 17.6834 22.7071 17.2929L19.7071 14.2929C19.3166 13.9024 18.6834 13.9024 18.2929 14.2929C17.9024 14.6834 17.9024 15.3166 18.2929 15.7071L19.5858 17H15C14.4477 17 14 17.4477 14 18C14 18.5523 14.4477 19 15 19H19.5858L18.2929 20.2929Z" fill="black"/>
</svg>
