<svg width="24" height="24" viewBox="0 0 24 24" fill="none" xmlns="http://www.w3.org/2000/svg">
<path fill-rule="evenodd" clip-rule="evenodd" d="M2.8 3C1.86451 3 1.0468 3.46923 0.544325 4.16792C0.20074 4.64567 0 5.23499 0 5.86667V16.1333C0 17.682 1.21964 19 2.8 19H11.2C11.7523 19 12.2 18.5523 12.2 18C12.2 17.4477 11.7523 17 11.2 17H2.8C2.39214 17 2 16.6466 2 16.1333V6.94766L7.77948 13.3096C8.96986 14.6199 11.0301 14.6199 12.2205 13.3096L18 6.94766V12.1333C18 12.6856 18.4477 13.1333 19 13.1333C19.5523 13.1333 20 12.6856 20 12.1333V5.86667C20 5.235 19.7993 4.64567 19.4557 4.16792C18.9532 3.46923 18.1355 3 17.2 3H2.8ZM9.25983 11.9647L2.9327 5H17.0673L10.7402 11.9647C10.3434 12.4015 9.65662 12.4015 9.25983 11.9647ZM22.7894 15.6139C23.1284 15.178 23.0499 14.5497 22.6139 14.2106C22.178 13.8716 21.5497 13.9501 21.2106 14.3861L17.2268 19.5081L15.6941 18.0302C15.2966 17.6468 14.6635 17.6583 14.2802 18.0559C13.8968 18.4534 13.9083 19.0865 14.3059 19.4698L16.6392 21.7198C16.8434 21.9167 17.1216 22.0177 17.4045 21.9975C17.6875 21.9773 17.9485 21.8379 18.1227 21.6139L22.7894 15.6139Z" fill="black"/>
</svg>
