<svg width="24" height="24" viewBox="0 0 24 24" fill="none" xmlns="http://www.w3.org/2000/svg">
<path fill-rule="evenodd" clip-rule="evenodd" d="M2.8 4C1.86451 4 1.0468 4.46923 0.544325 5.16792C0.20074 5.64567 0 6.23499 0 6.86667V17.1333C0 18.682 1.21964 20 2.8 20H10.2C10.7523 20 11.2 19.5523 11.2 19C11.2 18.4477 10.7523 18 10.2 18H2.8C2.39214 18 2 17.6466 2 17.1333V7.94766L7.77948 14.3096C8.96986 15.6199 11.0301 15.6199 12.2205 14.3096L18 7.94766V12.1333C18 12.6856 18.4477 13.1333 19 13.1333C19.5523 13.1333 20 12.6856 20 12.1333V6.86667C20 6.235 19.7993 5.64567 19.4557 5.16792C18.9532 4.46923 18.1355 4 17.2 4H2.8ZM9.25983 12.9647L2.9327 6H17.0673L10.7402 12.9647C10.3434 13.4015 9.65662 13.4015 9.25983 12.9647ZM15 17.8667C15 17.4519 15.3816 17 16 17C16.6184 17 17 17.4519 17 17.8667C17 18.419 17.4477 18.8667 18 18.8667C18.5523 18.8667 19 18.419 19 17.8667C19 17.4519 19.3816 17 20 17C20.6184 17 21 17.4519 21 17.8667C21 18.4983 20.6012 19.2601 19.839 20.0984C19.285 20.7078 18.6199 21.27 18 21.7492C17.3801 21.27 16.715 20.7078 16.161 20.0984C15.3988 19.2601 15 18.4983 15 17.8667ZM16 15C16.7499 15 17.4594 15.271 18 15.73C18.5406 15.271 19.2501 15 20 15C21.5908 15 23 16.2196 23 17.8667C23 19.2681 22.1707 20.5068 21.3189 21.4438C20.4411 22.4092 19.3734 23.2328 18.5915 23.8063C18.2394 24.0646 17.7606 24.0646 17.4085 23.8063C16.6266 23.2328 15.5589 22.4092 14.6811 21.4438C13.8293 20.5068 13 19.2681 13 17.8667C13 16.2196 14.4092 15 16 15Z" fill="black"/>
</svg>
