<svg width="24" height="24" viewBox="0 0 24 24" fill="none" xmlns="http://www.w3.org/2000/svg">
<path fill-rule="evenodd" clip-rule="evenodd" d="M2.8 3C1.86451 3 1.0468 3.46923 0.544325 4.16792C0.20074 4.64567 0 5.23499 0 5.86667V16.1333C0 17.682 1.21964 19 2.8 19H10.2C10.7523 19 11.2 18.5523 11.2 18C11.2 17.4477 10.7523 17 10.2 17H2.8C2.39214 17 2 16.6466 2 16.1333V6.94766L7.77948 13.3096C8.96986 14.6199 11.0301 14.6199 12.2205 13.3096L18 6.94766V11.1333C18 11.6856 18.4477 12.1333 19 12.1333C19.5523 12.1333 20 11.6856 20 11.1333V5.86667C20 5.235 19.7993 4.64567 19.4557 4.16792C18.9532 3.46923 18.1355 3 17.2 3H2.8ZM9.25983 11.9647L2.9327 5H17.0673L10.7402 11.9647C10.3434 12.4015 9.65662 12.4015 9.25983 11.9647ZM15 16.8667C15 16.4519 15.3816 16 16 16C16.6184 16 17 16.4519 17 16.8667C17 17.419 17.4477 17.8667 18 17.8667C18.5523 17.8667 19 17.419 19 16.8667C19 16.4519 19.3816 16 20 16C20.6184 16 21 16.4519 21 16.8667C21 17.4983 20.6012 18.2601 19.839 19.0984C19.285 19.7078 18.6199 20.27 18 20.7492C17.3801 20.27 16.715 19.7078 16.161 19.0984C15.3988 18.2601 15 17.4983 15 16.8667ZM16 14C16.7499 14 17.4594 14.271 18 14.73C18.5406 14.271 19.2501 14 20 14C21.5908 14 23 15.2196 23 16.8667C23 18.2681 22.1707 19.5068 21.3189 20.4438C20.4411 21.4092 19.3734 22.2328 18.5915 22.8063C18.2394 23.0646 17.7606 23.0646 17.4085 22.8063C16.6266 22.2328 15.5589 21.4092 14.6811 20.4438C13.8293 19.5068 13 18.2681 13 16.8667C13 15.2196 14.4092 14 16 14Z" fill="black"/>
</svg>
