<svg width="24" height="24" viewBox="0 0 24 24" fill="none" xmlns="http://www.w3.org/2000/svg">
<path fill-rule="evenodd" clip-rule="evenodd" d="M2.8 3C1.86451 3 1.0468 3.46923 0.544325 4.16792C0.20074 4.64567 0 5.23499 0 5.86667V16.1333C0 17.682 1.21964 19 2.8 19H12.2C12.7523 19 13.2 18.5523 13.2 18C13.2 17.4477 12.7523 17 12.2 17H2.8C2.39214 17 2 16.6466 2 16.1333V6.94766L7.77948 13.3096C8.96986 14.6199 11.0301 14.6199 12.2205 13.3096L18 6.94766V11.1333C18 11.6856 18.4477 12.1333 19 12.1333C19.5523 12.1333 20 11.6856 20 11.1333V5.86667C20 5.235 19.7993 4.64567 19.4557 4.16792C18.9532 3.46923 18.1355 3 17.2 3H2.8ZM9.25983 11.9647L2.9327 5H17.0673L10.7402 11.9647C10.3434 12.4015 9.65662 12.4015 9.25983 11.9647ZM16.7071 14.2929C16.3166 13.9024 15.6834 13.9024 15.2929 14.2929C14.9024 14.6834 14.9024 15.3166 15.2929 15.7071L17.5858 18L15.2929 20.2929C14.9024 20.6834 14.9024 21.3166 15.2929 21.7071C15.6834 22.0976 16.3166 22.0976 16.7071 21.7071L19 19.4142L21.2929 21.7071C21.6834 22.0976 22.3166 22.0976 22.7071 21.7071C23.0976 21.3166 23.0976 20.6834 22.7071 20.2929L20.4142 18L22.7071 15.7071C23.0976 15.3166 23.0976 14.6834 22.7071 14.2929C22.3166 13.9024 21.6834 13.9024 21.2929 14.2929L19 16.5858L16.7071 14.2929Z" fill="black"/>
</svg>
