<svg width="24" height="24" viewBox="0 0 24 24" fill="none" xmlns="http://www.w3.org/2000/svg">
<path fill-rule="evenodd" clip-rule="evenodd" d="M12 2C12.5523 2 13 2.44772 13 3V12.5858L15.2929 10.2929C15.6834 9.90237 16.3166 9.90237 16.7071 10.2929C17.0976 10.6834 17.0976 11.3166 16.7071 11.7071L12.7071 15.7071C12.3166 16.0976 11.6834 16.0976 11.2929 15.7071L7.29289 11.7071C6.90237 11.3166 6.90237 10.6834 7.29289 10.2929C7.68342 9.90237 8.31658 9.90237 8.70711 10.2929L11 12.5858V3C11 2.44772 11.4477 2 12 2ZM1 5C1 4.44772 1.44772 4 2 4H4C4.55228 4 5 4.44772 5 5V17C5 17.5523 5.44772 18 6 18H18C18.5523 18 19 17.5523 19 17V5C19 4.44772 19.4477 4 20 4H22C22.5523 4 23 4.44772 23 5C23 5.55228 22.5523 6 22 6H21V17C21 18.6569 19.6569 20 18 20H6C4.34315 20 3 18.6569 3 17V6H2C1.44772 6 1 5.55228 1 5Z" fill="black"/>
</svg>
