<svg width="24" height="24" viewBox="0 0 24 24" fill="none" xmlns="http://www.w3.org/2000/svg">
<path fill-rule="evenodd" clip-rule="evenodd" d="M4 2C2.89543 2 2 2.89543 2 4V10C2 10.7684 2.28885 11.4692 2.7639 12C2.28885 12.5308 2 13.2316 2 14V19C2 20.6569 3.34315 22 5 22H19C20.6569 22 22 20.6569 22 19V14C22 13.2316 21.7111 12.5308 21.2361 12C21.7111 11.4692 22 10.7684 22 10V4C22 2.89543 21.1046 2 20 2H15C14.4477 2 14 2.44772 14 3V3.1C14 4.14934 13.1493 5 12.1 5H11.9C10.8507 5 10 4.14934 10 3.1V3C10 2.44772 9.55228 2 9 2H4ZM5 11H9H15H19C19.5523 11 20 10.5523 20 10V4H15.8956C15.4893 5.72002 13.9441 7 12.1 7H11.9C10.0559 7 8.51066 5.72002 8.10436 4H4V10C4 10.5523 4.44772 11 5 11ZM14 13H10V13.1C10 14.1493 10.8507 15 11.9 15H12.1C13.1493 15 14 14.1493 14 13.1V13ZM8 13H5C4.44772 13 4 13.4477 4 14V19C4 19.5523 4.44772 20 5 20H19C19.5523 20 20 19.5523 20 19V14C20 13.4477 19.5523 13 19 13H16V13.1C16 15.2539 14.2539 17 12.1 17H11.9C9.74609 17 8 15.2539 8 13.1V13Z" fill="black"/>
</svg>
