<svg width="24" height="24" viewBox="0 0 24 24" fill="none" xmlns="http://www.w3.org/2000/svg">
<path fill-rule="evenodd" clip-rule="evenodd" d="M19 20C19.5523 20 20 19.5523 20 19V11.2268L19.6644 11.5252L13.9931 16.5663C12.8564 17.5767 11.1436 17.5767 10.0069 16.5663L4.33564 11.5252L4 11.2268V19C4 19.5523 4.44772 20 5 20H19ZM6 10.3287L11.3356 15.0715C11.7145 15.4083 12.2855 15.4083 12.6644 15.0715L18 10.3287V7.33333V5.99999H16.2H7.8H6V7.33333V10.3287ZM20 6.86495L21.6402 8.23177C21.8682 8.42177 22 8.70322 22 8.99999V19C22 20.6568 20.6569 22 19 22H5C3.34315 22 2 20.6568 2 19V8.99999C2 8.70322 2.13182 8.42177 2.35982 8.23177L4 6.86495V4.99999C4 4.44771 4.44772 3.99999 5 3.99999H7.43795L10.0794 1.79875C11.192 0.871632 12.808 0.871632 13.9206 1.79875L16.562 3.99999H19C19.5523 3.99999 20 4.44771 20 4.99999V6.86495ZM13.438 3.99999L12.6402 3.33519C12.2693 3.02615 11.7307 3.02615 11.3598 3.33519L10.562 3.99999H13.438Z" fill="black"/>
</svg>
