<svg width="24" height="24" viewBox="0 0 24 24" fill="none" xmlns="http://www.w3.org/2000/svg">
<path fill-rule="evenodd" clip-rule="evenodd" d="M16.2929 3.29286C16.6834 2.90234 17.3166 2.90234 17.7071 3.29286L22.7071 8.29286C23.0976 8.68339 23.0976 9.31655 22.7071 9.70708L17.7071 14.7071C17.3166 15.0976 16.6834 15.0976 16.2929 14.7071C15.9024 14.3166 15.9024 13.6834 16.2929 13.2929L19.5858 9.99997H8.76619L13.8575 18.4855C14.0429 18.7944 14.0477 19.1792 13.8702 19.4927C13.6927 19.8062 13.3603 20 13 20H2C1.44772 20 1 19.5523 1 19C1 18.4477 1.44772 18 2 18H11.2338L6.14251 9.51447C5.95715 9.20553 5.95229 8.82078 6.1298 8.50727C6.30731 8.19376 6.63973 7.99997 7 7.99997H19.5858L16.2929 4.70708C15.9024 4.31655 15.9024 3.68339 16.2929 3.29286Z" fill="black"/>
</svg>
