<svg width="24" height="24" viewBox="0 0 24 24" fill="none" xmlns="http://www.w3.org/2000/svg">
<path fill-rule="evenodd" clip-rule="evenodd" d="M8.70711 4.70709C9.09763 4.31657 9.09763 3.6834 8.70711 3.29288C8.31658 2.90235 7.68342 2.90235 7.29289 3.29288L2.29289 8.29288C1.90237 8.6834 1.90237 9.31657 2.29289 9.70709L7.29289 14.7071C7.68342 15.0976 8.31658 15.0976 8.70711 14.7071C9.09763 14.3166 9.09763 13.6834 8.70711 13.2929L4.41421 8.99998L8.70711 4.70709ZM13.7071 4.70709C14.0976 4.31657 14.0976 3.6834 13.7071 3.29288C13.3166 2.90235 12.6834 2.90235 12.2929 3.29288L7.29289 8.29288C6.90237 8.6834 6.90237 9.31657 7.29289 9.70709L12.2929 14.7071C12.6834 15.0976 13.3166 15.0976 13.7071 14.7071C14.0976 14.3166 14.0976 13.6834 13.7071 13.2929L10.4142 9.99998H14C17.3137 9.99998 20 12.6863 20 16V20C20 20.5523 20.4477 21 21 21C21.5523 21 22 20.5523 22 20V16C22 11.5817 18.4183 7.99998 14 7.99998H10.4142L13.7071 4.70709Z" fill="black"/>
</svg>
