<svg width="24" height="24" viewBox="0 0 24 24" fill="none" xmlns="http://www.w3.org/2000/svg">
<path fill-rule="evenodd" clip-rule="evenodd" d="M9.7071 3.29286C10.0976 3.68339 10.0976 4.31655 9.7071 4.70708L6.41421 7.99997H12C16.4183 7.99997 20 11.5817 20 16V20C20 20.5523 19.5523 21 19 21C18.4477 21 18 20.5523 18 20V16C18 12.6863 15.3137 9.99997 12 9.99997H6.41421L9.7071 13.2929C10.0976 13.6834 10.0976 14.3166 9.7071 14.7071C9.31658 15.0976 8.68342 15.0976 8.29289 14.7071L3.29289 9.70708C2.90237 9.31655 2.90237 8.68339 3.29289 8.29286L8.29289 3.29286C8.68342 2.90234 9.31658 2.90234 9.7071 3.29286Z" fill="black"/>
</svg>
