<svg width="24" height="24" viewBox="0 0 24 24" fill="none" xmlns="http://www.w3.org/2000/svg">
<path fill-rule="evenodd" clip-rule="evenodd" d="M11.2474 23.6585C11.4373 23.8755 11.7116 24 12 24C12.2884 24 12.5627 23.8755 12.7526 23.6585L15.9538 20H20C21.6569 20 23 18.6569 23 17V3C23 1.34315 21.6569 0 20 0H4C2.34315 0 1 1.34315 1 3V17C1 18.6569 2.34315 20 4 20H8.04623L11.2474 23.6585ZM14.7474 18.3415L12 21.4814L9.25258 18.3415C9.06269 18.1245 8.78836 18 8.5 18H4C3.44772 18 3 17.5523 3 17V3C3 2.44772 3.44772 2 4 2H20C20.5523 2 21 2.44772 21 3V17C21 17.5523 20.5523 18 20 18H15.5C15.2116 18 14.9373 18.1245 14.7474 18.3415ZM7 7C6.44772 7 6 7.44772 6 8C6 8.55229 6.44772 9 7 9H17C17.5523 9 18 8.55229 18 8C18 7.44772 17.5523 7 17 7H7ZM7 11C6.44772 11 6 11.4477 6 12C6 12.5523 6.44772 13 7 13H17C17.5523 13 18 12.5523 18 12C18 11.4477 17.5523 11 17 11H7Z" fill="black"/>
</svg>
