<svg width="24" height="24" viewBox="0 0 24 24" fill="none" xmlns="http://www.w3.org/2000/svg">
<path fill-rule="evenodd" clip-rule="evenodd" d="M6.17071 18H4C2.34315 18 1 16.6569 1 15V4C1 2.34315 2.34315 1 4 1H18C19.6569 1 21 2.34315 21 4V7C22.6569 7 24 8.34315 24 10V17C24 18.6569 22.6569 20 21 20H18.9538L15.7526 23.6585C15.5627 23.8755 15.2884 24 15 24C14.7116 24 14.4373 23.8755 14.2474 23.6585L11.0462 20H9C7.69378 20 6.58254 19.1652 6.17071 18ZM19 7V4C19 3.44771 18.5523 3 18 3H4C3.44772 3 3 3.44771 3 4V15C3 15.5523 3.44772 16 4 16H6V10C6 8.34315 7.34315 7 9 7H19ZM17.7474 18.3415L15 21.4814L12.2526 18.3415C12.0627 18.1245 11.7884 18 11.5 18H9C8.44772 18 8 17.5523 8 17V10C8 9.44772 8.44772 9 9 9H21C21.5523 9 22 9.44772 22 10V17C22 17.5523 21.5523 18 21 18H18.5C18.2116 18 17.9373 18.1245 17.7474 18.3415Z" fill="black"/>
</svg>
