<svg width="24" height="24" viewBox="0 0 24 24" fill="none" xmlns="http://www.w3.org/2000/svg">
<path fill-rule="evenodd" clip-rule="evenodd" d="M11.2474 23.6585C11.4373 23.8755 11.7116 24 12 24C12.2884 24 12.5627 23.8755 12.7526 23.6585L15.9538 20H20C21.6569 20 23 18.6569 23 17V3C23 1.34315 21.6569 0 20 0H4C2.34315 0 1 1.34315 1 3V17C1 18.6569 2.34315 20 4 20H8.04623L11.2474 23.6585ZM14.7474 18.3415L12 21.4814L9.25258 18.3415C9.06269 18.1245 8.78836 18 8.5 18H4C3.44772 18 3 17.5523 3 17V3C3 2.44772 3.44772 2 4 2H20C20.5523 2 21 2.44772 21 3V17C21 17.5523 20.5523 18 20 18H15.5C15.2116 18 14.9373 18.1245 14.7474 18.3415ZM8 8.47619C8 7.66991 8.66253 7 9.5 7C10.3375 7 11 7.66991 11 8.47619C11 9.02847 11.4477 9.47619 12 9.47619C12.5523 9.47619 13 9.02847 13 8.47619C13 7.66991 13.6625 7 14.5 7C15.3375 7 16 7.66991 16 8.47619C16 9.46092 15.4254 10.5565 14.4643 11.6783C13.7174 12.5501 12.8171 13.3462 12 14.0091C11.1829 13.3462 10.2826 12.5501 9.53573 11.6783C8.57464 10.5565 8 9.46092 8 8.47619ZM9.5 5C10.4765 5 11.3633 5.39858 12 6.04333C12.6367 5.39858 13.5235 5 14.5 5C16.424 5 18 6.54734 18 8.47619C18 10.1884 17.0396 11.7464 15.9831 12.9796C14.9059 14.2369 13.5897 15.3155 12.6143 16.0748C12.253 16.356 11.747 16.356 11.3857 16.0748C10.4103 15.3155 9.09408 14.2369 8.0169 12.9796C6.96045 11.7464 6 10.1884 6 8.47619C6 6.54734 7.57605 5 9.5 5Z" fill="black"/>
</svg>
