<svg width="24" height="24" viewBox="0 0 24 24" fill="none" xmlns="http://www.w3.org/2000/svg">
<path fill-rule="evenodd" clip-rule="evenodd" d="M12 24C11.7116 24 11.4373 23.8755 11.2474 23.6585L8.04623 20H4C2.34315 20 1 18.6569 1 17V3C1 1.34315 2.34315 0 4 0H20C21.6569 0 23 1.34315 23 3V17C23 18.6569 21.6569 20 20 20H15.9538L12.7526 23.6585C12.5627 23.8755 12.2884 24 12 24ZM12 21.4814L14.7474 18.3415C14.9373 18.1245 15.2116 18 15.5 18H20C20.5523 18 21 17.5523 21 17V3C21 2.44772 20.5523 2 20 2H4C3.44772 2 3 2.44772 3 3V17C3 17.5523 3.44772 18 4 18H8.5C8.78836 18 9.06269 18.1245 9.25258 18.3415L12 21.4814Z" fill="black"/>
</svg>
