<svg width="24" height="24" viewBox="0 0 24 24" fill="none" xmlns="http://www.w3.org/2000/svg">
<path fill-rule="evenodd" clip-rule="evenodd" d="M12 24C11.7116 24 11.4373 23.8755 11.2474 23.6585L8.04623 20H4C2.34315 20 1 18.6569 1 17V3C1 1.34315 2.34315 0 4 0H20C21.6569 0 23 1.34315 23 3V17C23 18.6569 21.6569 20 20 20H15.9538L12.7526 23.6585C12.5627 23.8755 12.2884 24 12 24ZM12 21.4814L14.7474 18.3415C14.9373 18.1245 15.2116 18 15.5 18H20C20.5523 18 21 17.5523 21 17V3C21 2.44772 20.5523 2 20 2H4C3.44772 2 3 2.44772 3 3V17C3 17.5523 3.44772 18 4 18H8.5C8.78836 18 9.06269 18.1245 9.25258 18.3415L12 21.4814ZM12 12C9.76095 12 8.46711 13.169 8.10992 14.3009C7.94372 14.8276 7.38203 15.1198 6.85534 14.9536C6.32866 14.7874 6.03643 14.2257 6.20264 13.6991C6.61243 12.4005 7.59994 11.2939 8.99329 10.6382C8.37492 9.93402 8 9.0108 8 8C8 5.79086 9.79086 4 12 4C14.2091 4 16 5.79086 16 8C16 9.01079 15.6251 9.93401 15.0067 10.6382C16.4001 11.2939 17.3876 12.4005 17.7974 13.6991C17.9636 14.2257 17.6714 14.7874 17.1447 14.9536C16.618 15.1198 16.0563 14.8276 15.8901 14.3009C15.5329 13.169 14.2391 12 12 12ZM10 8C10 6.89543 10.8954 6 12 6C13.1046 6 14 6.89543 14 8C14 9.10457 13.1046 10 12 10C10.8954 10 10 9.10457 10 8Z" fill="black"/>
</svg>
