<svg width="24" height="24" viewBox="0 0 24 24" fill="none" xmlns="http://www.w3.org/2000/svg">
<path fill-rule="evenodd" clip-rule="evenodd" d="M20.5 8C21.8807 8 23 6.88071 23 5.5C23 4.11929 21.8807 3 20.5 3C19.1193 3 18 4.11929 18 5.5C18 6.88071 19.1193 8 20.5 8ZM22 17.1333V9.74394C21.5308 9.90977 21.026 10 20.5 10C20.331 10 20.1642 9.99068 20 9.97254V17.1333C20 17.6466 19.6079 18 19.2 18H4.8C4.39214 18 4 17.6466 4 17.1333V7.94766L9.77948 14.3096C10.9699 15.6199 13.0301 15.6199 14.2205 14.3096L18.5418 9.55276C17.9305 9.25683 17.3962 8.82665 16.9774 8.3005L12.7402 12.9647C12.3434 13.4015 11.6566 13.4015 11.2598 12.9647L4.9327 6H16.0275C16.0093 5.83583 16 5.669 16 5.5C16 4.97405 16.0902 4.46917 16.2561 4H4.8C3.86451 4 3.0468 4.46923 2.54433 5.16792C2.20074 5.64567 2 6.23499 2 6.86667V17.1333C2 18.682 3.21964 20 4.8 20H19.2C20.7804 20 22 18.682 22 17.1333Z" fill="black"/>
</svg>
