<svg width="24" height="24" fill="none" xmlns="http://www.w3.org/2000/svg"><path fill-rule="evenodd" clip-rule="evenodd" d="M11.207 4.18c-.116.174-.207.468-.207.82v7a1 1 0 01-1.986.164l-1-5.998a1.002 1.002 0 01-.006-.04c-.046-.361-.19-.713-.368-.936-.17-.215-.264-.198-.272-.197l-.014.002a.308.308 0 00-.16.055.396.396 0 00-.111.15c-.09.186-.141.504-.092.894l.002.013.513 4.497.014.09c.035.238.07.538.109.887l.034.305.001.005.33 2.996v.004a1 1 0 01-1.988.222v-.004L5.538 11H5.5c-.112 0-.197.035-.293.18-.116.174-.207.468-.207.82v4c0 1.033.7 2.14 2.055 3.043 1.33.887 3.133 1.455 4.936 1.457 1.752-.034 3.142-.511 4.137-1.29.986-.773 1.653-1.893 1.883-3.358l.894-6.277.006-.035c.093-.52.11-.997.047-1.324a1.368 1.368 0 00-.03-.126 1.49 1.49 0 00-.042.048c-.21.246-.438.67-.665 1.232-.22.544-.408 1.14-.567 1.676l-.125.428c-.102.349-.196.673-.268.87a1 1 0 01-1.931-.465c.234-1.923.46-3.846.676-5.771l.002-.01c.048-.392-.003-.71-.093-.898a.399.399 0 00-.11-.151.31.31 0 00-.162-.056c-.082-.01-.17-.001-.308.18-.159.209-.293.558-.343.952a1.033 1.033 0 01-.006.04l-1 6A1 1 0 0112 12V5c0-.352-.09-.646-.207-.82-.096-.145-.18-.18-.293-.18-.112 0-.197.035-.293.18zm7.84 3.809s-.007.005-.018.008c.012-.008.018-.01.018-.008zm-.166-.014c-.01-.007-.014-.013-.014-.015.001 0 .006.003.014.015zM5.311 9.007L5.007 6.34c-.081-.641-.031-1.371.271-2.004.325-.678.94-1.222 1.842-1.328.9-.113 1.601.355 2.04.883.088-.288.214-.567.383-.82C9.947 2.464 10.613 2 11.5 2c.888 0 1.553.465 1.957 1.07.162.244.284.51.371.786.454-.541 1.15-.955 2.049-.85.905.107 1.52.654 1.844 1.333.293.615.348 1.321.278 1.947a1.79 1.79 0 011.458-.22c.967.268 1.34 1.12 1.465 1.772.127.66.073 1.402-.039 2.036l-.893 6.267-.002.013c-.301 1.929-1.209 3.52-2.626 4.63-1.408 1.103-3.25 1.677-5.343 1.716H12c-2.194 0-4.388-.681-6.055-1.793C4.3 19.61 3 17.967 3 16v-4c0-.648.16-1.354.543-1.93.374-.561.974-1.002 1.768-1.063z" fill="#000"/></svg>