<svg width="24" height="24" fill="none" xmlns="http://www.w3.org/2000/svg"><path fill-rule="evenodd" clip-rule="evenodd" d="M11.207 3.68c-.116.174-.207.468-.207.82V11a1 1 0 11-2 0V6c0-.352-.09-.646-.207-.82C8.697 5.035 8.613 5 8.5 5c-.112 0-.197.035-.293.18C8.091 5.354 8 5.648 8 6v9a1 1 0 11-2 0v-3c0-.352-.09-.646-.207-.82-.096-.145-.18-.18-.293-.18-.112 0-.197.035-.293.18-.116.174-.207.468-.207.82v4c0 1.033.7 2.14 2.055 3.043C8.387 19.932 10.194 20.5 12 20.5c3.668 0 6-2.249 6-4.5V9c0-.352-.09-.646-.207-.82-.096-.145-.18-.18-.293-.18-.112 0-.197.035-.293.18-.116.174-.207.468-.207.82v3a1 1 0 11-2 0V6c0-.352-.09-.646-.207-.82-.096-.145-.18-.18-.293-.18-.112 0-.197.035-.293.18-.116.174-.207.468-.207.82v5a1 1 0 11-2 0V4.5c0-.352-.09-.646-.207-.82-.096-.145-.18-.18-.293-.18-.112 0-.197.035-.293.18zm2.538-.558c.23-.078.482-.122.755-.122.888 0 1.553.465 1.957 1.07.384.576.543 1.282.543 1.93v.052c.158-.034.325-.052.5-.052.888 0 1.553.465 1.957 1.07.384.576.543 1.282.543 1.93v7c0 3.749-3.668 6.5-8 6.5-2.194 0-4.388-.681-6.055-1.793C4.3 19.61 3 17.967 3 16v-4c0-.648.16-1.354.543-1.93C3.947 9.465 4.613 9 5.5 9c.175 0 .342.018.5.052V6c0-.648.16-1.354.543-1.93C6.947 3.465 7.613 3 8.5 3c.273 0 .525.044.755.122.077-.192.172-.378.288-.552.404-.605 1.07-1.07 1.957-1.07.888 0 1.553.465 1.957 1.07.116.174.211.36.288.552z" fill="#000"/></svg>