<svg width="24" height="24" fill="none" xmlns="http://www.w3.org/2000/svg"><path fill-rule="evenodd" clip-rule="evenodd" d="M8.207 5.18C8.091 5.354 8 5.648 8 6v9a1 1 0 11-2 0v-3c0-.352-.09-.646-.207-.82-.096-.145-.18-.18-.293-.18-.112 0-.197.035-.293.18-.116.174-.207.468-.207.82v4c0 1.033.7 2.14 2.055 3.043C8.387 19.932 10.194 20.5 12 20.5c3.668 0 6-2.249 6-4.5v-4c0-.352-.09-.646-.207-.82-.096-.145-.18-.18-.293-.18-.112 0-.197.035-.293.18-.116.174-.207.468-.207.82a1 1 0 11-2 0v-1c0-.352-.09-.646-.207-.82-.096-.145-.18-.18-.293-.18-.112 0-.197.035-.293.18-.116.174-.207.468-.207.82v.5a1 1 0 11-2 0v-1c0-.352-.09-.646-.207-.82-.096-.145-.18-.18-.293-.18-.112 0-.197.035-.293.18-.116.174-.207.468-.207.82v.5a1 1 0 11-2 0V6c0-.352-.09-.646-.207-.82C8.697 5.035 8.613 5 8.5 5c-.112 0-.197.035-.293.18zM11 7.552V6c0-.648-.16-1.354-.543-1.93C10.053 3.465 9.387 3 8.5 3c-.888 0-1.553.465-1.957 1.07C6.159 4.646 6 5.352 6 6v3.052A2.382 2.382 0 005.5 9c-.888 0-1.553.465-1.957 1.07C3.159 10.646 3 11.352 3 12v4c0 1.967 1.3 3.61 2.945 4.707C7.612 21.818 9.806 22.5 12 22.5c4.332 0 8-2.751 8-6.5v-4c0-.648-.16-1.354-.543-1.93C19.053 9.465 18.387 9 17.5 9a2.29 2.29 0 00-.96.204 2.884 2.884 0 00-.083-.134C16.053 8.465 15.387 8 14.5 8c-.469 0-.876.13-1.214.34A2.282 2.282 0 0011.5 7.5c-.175 0-.342.018-.5.052z" fill="#000"/></svg>