<svg width="24" height="24" fill="none" xmlns="http://www.w3.org/2000/svg"><path fill-rule="evenodd" clip-rule="evenodd" d="M7.626 5.165c-.14-.177-.232-.191-.329-.18-.073.008-.098.028-.11.038a.42.42 0 00-.103.164c-.093.227-.136.6-.085 1.046l.494 4.296.027.166c.035.237.07.537.109.886l.034.305.001.005.33 2.995v.005a1 1 0 01-1.987.223l-.001-.005L5.534 11H5.5c-.112 0-.197.035-.293.18-.116.174-.207.468-.207.82v4c0 1.033.7 2.14 2.055 3.043C8.387 19.932 10.194 20.5 12 20.5c3.668 0 6-2.249 6-4.5V8c0-.352-.09-.646-.207-.82-.096-.145-.18-.18-.293-.18-.112 0-.197.035-.293.18-.116.174-.207.468-.207.82v3a1 1 0 11-2 0c0-.352-.09-.646-.207-.82-.096-.145-.18-.18-.293-.18-.112 0-.197.035-.293.18-.116.174-.207.468-.207.82v.5a1 1 0 11-2 0v-1c0-.352-.09-.646-.207-.82-.096-.145-.18-.18-.293-.18-.112 0-.197.035-.293.18-.116.174-.207.468-.207.82v.5a1 1 0 01-1.98.196l-1-4.999a1.002 1.002 0 01-.005-.025c-.077-.44-.225-.798-.39-1.007zm5.66 3.176C13.623 8.13 14.03 8 14.5 8c.175 0 .342.018.5.052V8c0-.648.16-1.354.543-1.93C15.947 5.465 16.613 5 17.5 5c.888 0 1.553.465 1.957 1.07.384.576.543 1.282.543 1.93v8c0 3.749-3.668 6.5-8 6.5-2.194 0-4.388-.681-6.055-1.793C4.3 19.61 3 17.967 3 16v-4c0-.648.16-1.354.543-1.93.373-.56.971-1 1.762-1.062L5.012 6.46c-.072-.636-.046-1.381.221-2.032.287-.7.88-1.322 1.837-1.431.943-.108 1.666.344 2.128.931.434.552.673 1.253.785 1.888l.394 1.97c.32-.18.696-.287 1.123-.287.772 0 1.376.351 1.786.841z" fill="#000"/></svg>