<svg width="24" height="24" fill="none" xmlns="http://www.w3.org/2000/svg"><path fill-rule="evenodd" clip-rule="evenodd" d="M11.207 4.18c-.116.174-.207.468-.207.82v7a1 1 0 0 1-1.986.164l-1-5.998a1.002 1.002 0 0 1-.006-.04c-.046-.361-.19-.713-.368-.936-.17-.215-.264-.198-.272-.197l-.014.002a.308.308 0 0 0-.16.055.395.395 0 0 0-.111.15c-.09.186-.141.504-.092.894l.002.013.512 4.497a8.5 8.5 0 0 1 .015.09c.035.238.07.538.109.887l.034.305.001.005.33 2.996v.004a1 1 0 0 1-1.988.222v-.004L5.538 11H5.5c-.112 0-.197.035-.293.18-.116.174-.207.468-.207.82v4c0 1.033.7 2.14 2.055 3.043C8.387 19.932 10.194 20.5 12 20.5c3.668 0 6-2.249 6-4.5v-3-.041c.017-.39-.034-.669-.105-.83-.052-.12-.089-.129-.11-.133l-.005-.001c-.005-.002-.068-.021-.188.097-.134.132-.327.44-.4 1.03a1 1 0 0 1-1.985-.24v-.004l.8-6.775v-.006c.049-.39-.002-.71-.092-.897a.399.399 0 0 0-.11-.151.31.31 0 0 0-.162-.056c-.082-.01-.17-.001-.308.18-.159.209-.293.558-.343.952a.863.863 0 0 1-.006.04l-1 6A1 1 0 0 1 12 12V5c0-.352-.09-.646-.207-.82-.096-.145-.18-.18-.293-.18-.112 0-.197.035-.293.18zm6.354 5.822c.227-.022.46-.007.695.05.746.182 1.219.698 1.471 1.274.235.537.294 1.144.273 1.694V16c0 3.749-3.668 6.5-8 6.5-2.194 0-4.388-.681-6.055-1.793C4.3 19.61 3 17.967 3 16v-4c0-.648.16-1.354.543-1.93.374-.561.974-1.002 1.768-1.063L5.007 6.34c-.081-.641-.031-1.371.271-2.004.325-.678.94-1.222 1.842-1.328.9-.113 1.6.355 2.04.883.088-.288.214-.567.383-.82C9.947 2.464 10.613 2 11.5 2c.888 0 1.553.465 1.957 1.07.162.244.284.51.371.786.454-.541 1.15-.955 2.049-.85.905.107 1.52.654 1.844 1.333.301.633.35 1.362.272 2l-.432 3.663z" fill="#000"/></svg>