<svg width="24" height="24" fill="none" xmlns="http://www.w3.org/2000/svg"><path fill-rule="evenodd" clip-rule="evenodd" d="M10.973 4.944c-.2 1.013-.536 2.533-1.766 3.763-.112.112-.235.23-.365.356C7.7 10.164 6 11.804 6 14.5c0 1.463.63 2.85 1.601 3.875C8.578 19.406 9.829 20 11 20h5c.352 0 .646-.09.82-.207.145-.096.18-.18.18-.293 0-.112-.035-.197-.18-.293-.174-.116-.468-.207-.82-.207h-1a1 1 0 110-2h1.5c.352 0 .646-.09.82-.207.145-.096.18-.18.18-.293 0-.112-.035-.197-.18-.293-.174-.116-.468-.207-.82-.207h-1a1 1 0 110-2H17c.352 0 .646-.09.82-.207.145-.096.18-.18.18-.293 0-.112-.035-.197-.18-.293-.174-.116-.468-.207-.82-.207h-1a1 1 0 110-2h1c.352 0 .646-.09.82-.207.145-.096.18-.18.18-.293 0-.112-.035-.197-.18-.293-.174-.116-.468-.207-.82-.207h-4.5a1 1 0 01-.947-1.322v-.001l.004-.01.013-.04.053-.17c.044-.15.105-.367.168-.628a9.866 9.866 0 00.278-1.866c.026-.685-.065-1.21-.248-1.53-.108-.19-.271-.361-.65-.415-.048.164-.092.388-.156.716l-.042.21zM13.803 8c.122-.558.238-1.253.265-1.963.03-.815-.05-1.79-.51-2.595C13.048 2.546 12.146 2 10.9 2c-.382 0-.74.126-1.03.38-.263.23-.413.516-.506.746-.148.367-.24.843-.317 1.245l-.036.185c-.194.987-.448 1.967-1.218 2.737-.088.088-.195.19-.317.305C6.353 8.662 4 10.893 4 14.5c0 2.037.87 3.9 2.149 5.25C7.422 21.094 9.171 22 11 22h5c.648 0 1.354-.16 1.93-.543.605-.404 1.07-1.07 1.07-1.957 0-.469-.13-.875-.34-1.215.489-.41.84-1.013.84-1.785 0-.469-.13-.876-.34-1.214.489-.41.84-1.014.84-1.786 0-.609-.218-1.113-.551-1.5.332-.387.551-.891.551-1.5 0-.888-.465-1.553-1.07-1.957C18.354 8.159 17.648 8 17 8h-3.197z" fill="#000"/></svg>