<svg width="24" height="24" fill="none" xmlns="http://www.w3.org/2000/svg"><path fill-rule="evenodd" clip-rule="evenodd" d="M7.18 4.207c-.145.096-.18.18-.18.293 0 .112.035.197.18.293.174.116.468.207.82.207h1a1 1 0 010 2H7.5c-.352 0-.646.09-.82.207-.145.096-.18.18-.18.293 0 .112.035.197.18.293.174.116.468.207.82.207h1a1 1 0 010 2H7c-.352 0-.646.09-.82.207-.145.096-.18.18-.18.293 0 .112.035.197.18.293.174.116.468.207.82.207h1a1 1 0 110 2H7c-.352 0-.646.09-.82.207-.145.096-.18.18-.18.293 0 .112.035.197.18.293.174.116.468.207.82.207h4.5a1 1 0 01.947 1.322v.001l-.004.01-.013.04-.053.17c-.044.15-.105.367-.168.628a9.867 9.867 0 00-.278 1.867c-.026.684.065 1.208.248 1.529.108.19.271.361.65.415.048-.164.092-.388.156-.716l.042-.21c.2-1.013.536-2.533 1.766-3.763.112-.112.235-.23.365-.356C16.3 13.836 18 12.196 18 9.5c0-1.463-.63-2.85-1.601-3.875C15.422 4.594 14.171 4 13 4H8c-.352 0-.646.09-.82.207zm5.578 15.968l.001-.002v.002zM10.197 16a11.408 11.408 0 00-.265 1.962c-.03.816.05 1.792.51 2.596.51.896 1.412 1.442 2.658 1.442.382 0 .74-.126 1.03-.38.263-.23.413-.516.506-.746.148-.367.24-.843.317-1.245l.036-.185c.194-.987.448-1.967 1.218-2.737.088-.088.195-.19.317-.305C17.647 15.337 20 13.107 20 9.5c0-2.037-.87-3.9-2.149-5.25C16.578 2.906 14.829 2 13 2H8c-.648 0-1.354.16-1.93.543C5.465 2.947 5 3.613 5 4.5c0 .469.13.875.34 1.214-.489.41-.84 1.014-.84 1.786 0 .469.13.875.34 1.214C4.352 9.124 4 9.728 4 10.5c0 .609.219 1.113.551 1.5A2.26 2.26 0 004 13.5c0 .888.465 1.553 1.07 1.957.576.384 1.282.543 1.93.543h3.197z" fill="#000"/></svg>