<svg width="24" height="24" fill="none" xmlns="http://www.w3.org/2000/svg"><path fill-rule="evenodd" clip-rule="evenodd" d="M7.339 3.992a.713.713 0 0 0-.252.093.188.188 0 0 0-.068.075c-.041.08-.091.283-.03.692l.006.049 1 10a1 1 0 0 1-1.989.208l-.33-2.995v-.002l-.038-.335c-.038-.334-.066-.58-.095-.777H5.5c-.112 0-.197.035-.293.18-.116.174-.207.468-.207.82v4c0 1.033.7 2.14 2.055 3.043C8.387 19.932 10.194 20.5 12 20.5c3.668 0 6-2.249 6-4.5v-4c0-.243 0-.444-.005-.612l-.117.252a35.35 35.35 0 0 1-.381.803 1 1 0 0 1-1.793-.886c.372-.755.403-1.262.347-1.516-.04-.18-.107-.231-.23-.257-.175-.027-.237.008-.259.021-.042.026-.13.1-.24.31-.235.453-.38 1.156-.537 2.056a1 1 0 0 1-1.97-.34v-.002l1.2-6.998a.836.836 0 0 1 .004-.027c.064-.32.01-.557-.056-.677a.249.249 0 0 0-.08-.093.265.265 0 0 0-.134-.035h-.009c-.1-.007-.18.008-.313.18-.165.212-.322.571-.46 1.077l-1.799 6.993a1 1 0 0 1-1.954-.08L8.015 5.174c-.093-.51-.218-.85-.356-1.037a.355.355 0 0 0-.131-.122.384.384 0 0 0-.19-.023zm8.2 3.787a2.7 2.7 0 0 1 .652.04c.74.143 1.304.589 1.613 1.217l.028-.002c.405-.036.797.079 1.12.196.765.279.934 1.034.987 1.38.061.393.061.88.061 1.333V16c0 3.749-3.668 6.5-8 6.5-2.194 0-4.388-.681-6.055-1.793C4.3 19.61 3 17.967 3 16v-4c0-.648.16-1.354.543-1.93.388-.581 1.017-1.033 1.852-1.068l-.388-3.88c-.085-.585-.08-1.27.236-1.882.352-.678.988-1.08 1.778-1.224a1 1 0 0 1 .077-.01c.96-.1 1.696.3 2.17.942.42.568.609 1.285.716 1.873l.002.01.41 2.392.635-2.472.004-.014c.161-.59.403-1.258.813-1.786.441-.568 1.11-1.002 2.008-.95a2.21 2.21 0 0 1 1.858 1.16c.339.613.402 1.345.27 2.02l-.446 2.598z" fill="#000"/></svg>