<svg width="24" height="24" fill="none" xmlns="http://www.w3.org/2000/svg"><path fill-rule="evenodd" clip-rule="evenodd" d="M6 5.5a.5.5 0 0 0-1 0v2a.5.5 0 0 0 1 0v-2zm-.75 5.767a.366.366 0 0 1 .462.564l-1.316 1.315A.5.5 0 0 0 4.75 14H6.5a.5.5 0 0 0 0-1h-.543l.462-.462a1.366 1.366 0 0 0-1.723-2.103l-.223.149a.5.5 0 1 0 .554.832l.223-.149zm-.5 4.233a.5.5 0 0 0 0 1h.543l-.647.646A.5.5 0 0 0 5 18h.75a.25.25 0 1 1 0 .5h-1a.5.5 0 0 0 0 1h1a1.25 1.25 0 0 0 .394-2.437l.71-.71A.5.5 0 0 0 6.5 15.5H4.75zM9 6a1 1 0 0 0 0 2h10a1 1 0 1 0 0-2H9zm0 5a1 1 0 1 0 0 2h10a1 1 0 1 0 0-2H9zm0 5a1 1 0 1 0 0 2h10a1 1 0 1 0 0-2H9z" fill="#000"/></svg>