<svg width="24" height="24" fill="none" xmlns="http://www.w3.org/2000/svg"><path fill-rule="evenodd" clip-rule="evenodd" d="M4.743 5.331a1 1 0 0 0-1.486 1.338L7.155 11l-3.898 4.331a1 1 0 0 0 1.486 1.338L8.5 12.495l3.757 4.174a1 1 0 1 0 1.486-1.338L9.845 11l3.898-4.331a1 1 0 1 0-1.486-1.338L8.5 9.505 4.743 5.331zm12.575 8.717a.693.693 0 0 1 .99.968l-3.044 3.307A1 1 0 0 0 16 20h4a1 1 0 1 0 0-2h-1.72l1.5-1.63a2.693 2.693 0 0 0-3.851-3.76l-.624.602a1 1 0 0 0 1.39 1.438l.623-.602z" fill="#000"/></svg>