<svg width="24" height="24" fill="none" xmlns="http://www.w3.org/2000/svg"><path d="M4.743 5.331a1 1 0 1 0-1.486 1.338l1.486-1.338zm7.514 11.338a1 1 0 1 0 1.486-1.338l-1.486 1.338zm1.486-10a1 1 0 1 0-1.486-1.338l1.486 1.338zM3.257 15.331a1 1 0 0 0 1.486 1.338l-1.486-1.338zm0-8.662l9 10 1.486-1.338-9-10-1.486 1.338zm9-1.338l-9 10 1.486 1.338 9-10-1.486-1.338z" fill="#000"/><path d="M20 19h-4l3.044-3.307a1.693 1.693 0 0 0 .107-2.165v0a1.693 1.693 0 0 0-2.527-.199l-.624.602" stroke="#000" stroke-width="2" stroke-linecap="round" stroke-linejoin="round"/></svg>