<svg width="24" height="24" fill="none" xmlns="http://www.w3.org/2000/svg"><path fill-rule="evenodd" clip-rule="evenodd" d="M4 5a1 1 0 0 1 1-1h14a1 1 0 1 1 0 2H5a1 1 0 0 1-1-1zm2 7a1 1 0 1 1-2 0 1 1 0 0 1 2 0zm2 1a1 1 0 1 0 0-2 1 1 0 0 0 0 2zm5-1a1 1 0 1 1-2 0 1 1 0 0 1 2 0zm-1-3a1 1 0 1 0 0-2 1 1 0 0 0 0 2zm1 7a1 1 0 1 1-2 0 1 1 0 0 1 2 0zm3-3a1 1 0 1 0 0-2 1 1 0 0 0 0 2zm4-1a1 1 0 1 1-2 0 1 1 0 0 1 2 0zm-1-3a1 1 0 1 0 0-2 1 1 0 0 0 0 2zm1 7a1 1 0 1 1-2 0 1 1 0 0 1 2 0zm-1 4a1 1 0 1 0 0-2 1 1 0 0 0 0 2zm-2-1a1 1 0 1 1-2 0 1 1 0 0 1 2 0zm-5 1a1 1 0 1 0 0-2 1 1 0 0 0 0 2zm-3-1a1 1 0 1 1-2 0 1 1 0 0 1 2 0zm-4 1a1 1 0 1 0 0-2 1 1 0 0 0 0 2zm1-4a1 1 0 1 1-2 0 1 1 0 0 1 2 0zM5 9a1 1 0 1 0 0-2 1 1 0 0 0 0 2z" fill="#000"/></svg>