<svg width="24" height="24" fill="none" xmlns="http://www.w3.org/2000/svg"><path fill-rule="evenodd" clip-rule="evenodd" d="M5 3a1 1 0 0 1 1 1v6a1 1 0 0 0 1 1h3a1 1 0 0 0 1-1V4a1 1 0 1 1 2 0v3a1 1 0 0 0 1 1h3a1 1 0 0 0 1-1V4a1 1 0 1 1 2 0v3a3 3 0 0 1-3 3h-3c-.35 0-.687-.06-1-.17V10a3 3 0 0 1-3 3H7a3 3 0 0 1-3-3V4a1 1 0 0 1 1-1zm11.5 12.086l-1.793-1.793a1 1 0 0 0-1.414 1.414l1.793 1.793-1.793 1.793a1 1 0 0 0 1.414 1.414l1.793-1.793 1.793 1.793a1 1 0 0 0 1.414-1.414L17.914 16.5l1.793-1.793a1 1 0 0 0-1.414-1.414L16.5 15.086z" fill="#000"/></svg>