<svg width="24" height="24" fill="none" xmlns="http://www.w3.org/2000/svg"><path fill-rule="evenodd" clip-rule="evenodd" d="M4 4a3 3 0 0 0-3 3v10a3 3 0 0 0 3 3h16a3 3 0 0 0 3-3V7a3 3 0 0 0-3-3H4zM3 7a1 1 0 0 1 1-1h16a1 1 0 0 1 1 1v4h-3.586l1.293-1.293a1 1 0 0 0-1.414-1.414l-3 3a1 1 0 0 0 0 1.414l3 3a1 1 0 0 0 1.414-1.414L17.414 13H21v4a1 1 0 0 1-1 1H4a1 1 0 0 1-1-1v-4h3.586l-1.293 1.293a1 1 0 1 0 1.414 1.414l3-3a1 1 0 0 0 0-1.414l-3-3a1 1 0 0 0-1.414 1.414L6.586 11H3V7zm9 2a1 1 0 1 0 0-2 1 1 0 0 0 0 2zm1 3a1 1 0 1 1-2 0 1 1 0 0 1 2 0zm-1 5a1 1 0 1 0 0-2 1 1 0 0 0 0 2z" fill="#000"/></svg>