<svg width="24" height="24" viewBox="0 0 24 24" fill="none" xmlns="http://www.w3.org/2000/svg">
<path fill-rule="evenodd" clip-rule="evenodd" d="M3.5 12C3.5 7.30558 7.30558 3.5 12 3.5C16.6944 3.5 20.5 7.30558 20.5 12C20.5 16.6944 16.6944 20.5 12 20.5C7.30558 20.5 3.5 16.6944 3.5 12ZM12 1.5C6.20101 1.5 1.5 6.20101 1.5 12C1.5 17.799 6.20101 22.5 12 22.5C17.799 22.5 22.5 17.799 22.5 12C22.5 6.20101 17.799 1.5 12 1.5ZM13 7C13 6.44772 12.5523 6 12 6C11.4477 6 11 6.44772 11 7V7.10002C8.71776 7.56329 7 9.58104 7 12C7 14.419 8.71776 16.4367 11 16.9V17C11 17.5523 11.4477 18 12 18C12.5523 18 13 17.5523 13 17V16.8999C14.0862 16.6792 15.0447 16.1063 15.7497 15.3076C16.1152 14.8935 16.0758 14.2616 15.6617 13.8961C15.2477 13.5306 14.6157 13.57 14.2503 13.9841C13.9149 14.3641 13.4861 14.6578 13 14.8295V9.17047C13.4861 9.3422 13.9149 9.63591 14.2503 10.0159C14.6157 10.43 15.2477 10.4694 15.6617 10.1039C16.0758 9.73845 16.1152 9.10651 15.7497 8.69244C15.0447 7.89369 14.0862 7.32084 13 7.10014V7ZM9 12C9 10.6938 9.83481 9.58254 11 9.17071V14.8293C9.83481 14.4175 9 13.3062 9 12Z" fill="black"/>
</svg>
