<svg width="24" height="24" viewBox="0 0 24 24" fill="none" xmlns="http://www.w3.org/2000/svg">
<path fill-rule="evenodd" clip-rule="evenodd" d="M3 7.5C3 6.11929 4.11929 5 5.5 5H11.5C12.8807 5 14 6.11929 14 7.5V8.5C14 8.81262 13.9426 9.11184 13.8378 9.38769C14.0806 9.54181 14.2951 9.73665 14.4715 9.9626C14.6809 9.63089 14.9716 9.34372 15.3349 9.13397L16.201 8.63397C17.3967 7.94362 18.9257 8.35331 19.616 9.54904L22.616 14.7452C23.3064 15.9409 22.8967 17.4699 21.701 18.1603L20.8349 18.6603C19.6392 19.3506 18.1102 18.9409 17.4199 17.7452L14.8634 13.3172C14.7778 13.5647 14.6544 13.7946 14.5002 14C14.814 14.4178 15 14.9372 15 15.5V16.5C15 17.8807 13.8807 19 12.5 19H6.5C5.11929 19 4 17.8807 4 16.5V15.5C4 14.9372 4.18597 14.4178 4.49982 14C4.18597 13.5822 4 13.0628 4 12.5V11.5C4 11.1874 4.05738 10.8882 4.16218 10.6123C3.46363 10.169 3 9.38862 3 8.5V7.5ZM12 8.5C12 8.77614 11.7761 9 11.5 9H6.5H5.5C5.22386 9 5 8.77614 5 8.5V7.5C5 7.22386 5.22386 7 5.5 7H11.5C11.7761 7 12 7.22386 12 7.5V8.5ZM6 11.5C6 11.2239 6.22386 11 6.5 11H11.5H12.5C12.7761 11 13 11.2239 13 11.5V12.5C13 12.7761 12.7761 13 12.5 13H6.5C6.22386 13 6 12.7761 6 12.5V11.5ZM6.5 15C6.22386 15 6 15.2239 6 15.5V16.5C6 16.7761 6.22386 17 6.5 17H12.5C12.7761 17 13 16.7761 13 16.5V15.5C13 15.2239 12.7761 15 12.5 15H6.5ZM17.201 10.366C17.4401 10.228 17.7459 10.3099 17.884 10.549L20.884 15.7452C21.022 15.9843 20.9401 16.2901 20.701 16.4282L19.8349 16.9282C19.5958 17.0663 19.29 16.9843 19.1519 16.7452L16.1519 11.549C16.0139 11.3099 16.0958 11.0041 16.3349 10.866L17.201 10.366Z" fill="black"/>
</svg>
