<svg width="24" height="24" viewBox="0 0 24 24" fill="none" xmlns="http://www.w3.org/2000/svg">
<path fill-rule="evenodd" clip-rule="evenodd" d="M3.66339 9.04066C3.74943 8.99493 3.83653 8.95094 3.92438 8.90921C4.37771 8.69389 4.93068 8.5 5.5 8.5C6.94823 8.5 7.95481 9.40524 8.53087 10.1253C8.55872 10.1601 8.58589 10.1949 8.61238 10.2295C8.67022 10.1677 8.73041 10.1054 8.79289 10.0429C9.47284 9.36295 10.5928 8.5 12 8.5C13.4072 8.5 14.5272 9.36295 15.2071 10.0429C15.2696 10.1054 15.3298 10.1677 15.3876 10.2295C15.4141 10.1949 15.4413 10.1601 15.4691 10.1253C16.0452 9.40524 17.0518 8.5 18.5 8.5C19.0693 8.5 19.6223 8.69389 20.0756 8.90921C20.1635 8.95094 20.2506 8.99493 20.3366 9.04066C19.8595 8.12963 19.1395 7.24051 18.2242 6.45594C16.4973 4.97569 14.221 4 12 4C9.77898 4 7.50267 4.97569 5.77581 6.45594C4.86053 7.24051 4.14053 8.12963 3.66339 9.04066ZM20.5056 11.5403C20.4091 11.4657 20.3069 11.389 20.2004 11.3127C19.8797 11.0828 19.5398 10.8688 19.2175 10.7158C18.8814 10.5561 18.6414 10.5 18.5 10.5C17.9482 10.5 17.4548 10.8448 17.0309 11.3747C16.8295 11.6264 16.6746 11.8835 16.5699 12.08C16.5181 12.177 16.4802 12.2562 16.4563 12.3083C16.4445 12.3343 16.4362 12.3534 16.4315 12.3644L16.4284 12.3717L14.5523 17.196L20.5056 11.5403ZM12 18.241L14.3761 12.131C14.2292 11.9361 14.0309 11.6951 13.7929 11.4571C13.2228 10.8871 12.5928 10.5 12 10.5C11.4072 10.5 10.7772 10.8871 10.2071 11.4571C9.96907 11.6951 9.77079 11.9361 9.62389 12.131L12 18.241ZM7.57161 12.3717L7.5685 12.3644C7.56383 12.3534 7.55554 12.3343 7.54365 12.3083C7.5198 12.2562 7.4819 12.177 7.43015 12.08C7.32536 11.8835 7.17049 11.6264 6.96913 11.3747C6.54519 10.8448 6.05177 10.5 5.5 10.5C5.35856 10.5 5.11864 10.5561 4.78245 10.7158C4.46024 10.8688 4.12027 11.0828 3.79965 11.3127C3.69314 11.389 3.59086 11.4657 3.49436 11.5403L9.44772 17.196L7.57161 12.3717ZM16.4272 12.3746C16.427 12.3752 16.427 12.3751 16.4272 12.3745L16.4272 12.3746ZM4.47419 4.93746C6.49733 3.20324 9.22102 2 12 2C14.779 2 17.5027 3.20324 19.5258 4.93746C21.5345 6.6593 23 9.03827 23 11.5C23 11.7741 22.8875 12.0362 22.6887 12.225L12.6887 21.725C12.3028 22.0917 11.6972 22.0917 11.3113 21.725L1.31125 12.225C1.11252 12.0362 1 11.7741 1 11.5C1 9.03827 2.46549 6.6593 4.47419 4.93746Z" fill="black"/>
</svg>
