<svg width="24" height="24" viewBox="0 0 24 24" fill="none" xmlns="http://www.w3.org/2000/svg">
<path fill-rule="evenodd" clip-rule="evenodd" d="M8 7V4.08013C8.37093 4.18365 8.85331 4.38998 9.4 4.8C10.2657 5.44928 10.6566 6.06453 10.8362 6.46864C10.9275 6.67407 10.9683 6.83428 10.9864 6.9293C10.9955 6.97694 10.9989 7.00842 11 7.02116L11.0003 7.02445C11.007 7.29857 11.126 7.55837 11.3302 7.74252C11.5404 7.93214 11.8211 8.02378 12.1027 7.99471L12.3838 7.96568C15.9098 7.60168 19 10.4298 19 14C19 15.0154 18.5966 15.9891 17.8787 16.7071L17.2929 17.2929C17.1054 17.4804 17 17.7348 17 18V21H15.7208L15.5811 20.5811C15.0673 19.0397 13.6248 18 12 18C10.3752 18 8.93267 19.0397 8.41886 20.5811L8.27924 21H7V19C7 17.528 5.9872 16.3259 4.91119 15.5322C4.0569 14.902 3.01875 14.4166 2 14.1651V11.618L3.44721 10.8944C3.70832 10.7639 3.89934 10.5257 3.97014 10.2425C4.32962 8.80462 5.8262 8 7 8C7.55228 8 8 7.55228 8 7ZM10.6 3.2C9.62642 2.46982 8.72715 2.15901 8.03761 2.04112C7.69556 1.98264 7.41067 1.97253 7.19994 1.97932C7.0946 1.98272 7.00771 1.99034 6.94133 1.99827C6.90812 2.00223 6.88001 2.00628 6.85723 2.00992C6.84584 2.01174 6.83579 2.01347 6.82709 2.01503L6.81506 2.01724L6.80982 2.01825L6.80739 2.01872L6.80623 2.01895C6.80566 2.01906 6.8051 2.01918 7 3L6.8051 2.01918C6.3371 2.11217 6 2.52285 6 3V6.10918C4.48297 6.43064 2.82817 7.46779 2.1697 9.29711L0.552786 10.1056C0.214002 10.275 0 10.6212 0 11V15C0 15.5114 0.385774 15.9403 0.894261 15.9944C1.79215 16.0899 2.87618 16.5163 3.72396 17.1417C4.6029 17.79 5 18.472 5 19V22C5 22.5523 5.44772 23 6 23H9C9.43043 23 9.81257 22.7246 9.94868 22.3162L10.3162 21.2136C10.5578 20.4888 11.236 20 12 20C12.764 20 13.4422 20.4888 13.6838 21.2136L14.0513 22.3162C14.1874 22.7246 14.5696 23 15 23H18C18.5523 23 19 22.5523 19 22V18.4142L19.2929 18.1213C20.1473 17.2669 20.709 16.1746 20.9136 15H21.4814C23.7416 15 24.8415 12.2389 23.2003 10.6847L23.0855 10.576C22.6845 10.1962 22.0515 10.2135 21.6718 10.6145C21.2921 11.0155 21.3093 11.6485 21.7103 12.0282L21.8252 12.1369C22.1534 12.4478 21.9334 13 21.4814 13H20.9384C20.4352 8.94453 16.9151 5.8203 12.7776 5.93688C12.7448 5.84734 12.7071 5.75365 12.6638 5.65636C12.3434 4.93547 11.7343 4.05072 10.6 3.2ZM7.5 13C8.32843 13 9 12.3284 9 11.5C9 10.6716 8.32843 10 7.5 10C6.67157 10 6 10.6716 6 11.5C6 12.3284 6.67157 13 7.5 13Z" fill="black"/>
</svg>
