<svg width="24" height="24" viewBox="0 0 24 24" fill="none" xmlns="http://www.w3.org/2000/svg">
<path fill-rule="evenodd" clip-rule="evenodd" d="M12.7776 5.93687C16.9151 5.82029 20.4352 8.94452 20.9384 13H21.4814C21.9334 13 22.1534 12.4478 21.8252 12.1369L21.7103 12.0282C21.3093 11.6484 21.2921 11.0155 21.6718 10.6145C22.0515 10.2135 22.6845 10.1962 23.0855 10.576L23.2003 10.6847C24.8415 12.2388 23.7416 15 21.4814 15H20.9136C20.6767 16.3603 19.9579 17.4563 19 18.4142V22C19 22.5523 18.5523 23 18 23H15C14.5696 23 14.1874 22.7246 14.0513 22.3162L13.6838 21.2136C13.4422 20.4888 12.764 20 12 20C11.236 20 10.5578 20.4888 10.3162 21.2136L9.94868 22.3162C9.81257 22.7246 9.43043 23 9 23H6C5.44772 23 5 22.5523 5 22V19C5 18.472 4.6029 17.79 3.72396 17.1417C2.87618 16.5163 1.79215 16.0899 0.894261 15.9944C0.385774 15.9403 0 15.5113 0 15V11C0 10.6212 0.214002 10.275 0.552786 10.1056L2.1697 9.2971C2.82817 7.46778 4.48297 6.43063 6 6.10917V2.99999C6 2.52284 6.3371 2.11216 6.8051 2.01917C6.91109 2.02105 7.0175 2.02143 7.12408 2.02181C7.4166 2.02284 7.71035 2.02388 8 2.05617C10.0315 2.28263 12.0854 4.05167 12.7776 5.93687ZM8 6.99999V4.08012C9.23101 4.42367 10.8815 5.61581 11.0003 7.02443C11.0143 7.59888 11.5309 8.05373 12.1027 7.9947L12.3838 7.96567C15.9098 7.60166 19 10.4298 19 14C19 15.0153 18.5966 15.9891 17.8787 16.7071C17.8159 16.7699 17.7487 16.8326 17.6804 16.8962C17.3523 17.2022 17 17.5308 17 18V21H15.7208L15.5811 20.5811C15.0673 19.0397 13.6248 18 12 18C10.3752 18 8.93267 19.0397 8.41886 20.5811L8.27924 21H7V19C7 17.528 5.9872 16.3259 4.91119 15.5322C4.0569 14.902 3.01875 14.4166 2 14.1651V11.618L3.44721 10.8944C3.70832 10.7639 3.89934 10.5257 3.97014 10.2425C4.32962 8.80461 5.8262 7.99999 7 7.99999C7.55228 7.99999 8 7.55227 8 6.99999ZM7.5 13C8.32843 13 9 12.3284 9 11.5C9 10.6716 8.32843 10 7.5 10C6.67157 10 6 10.6716 6 11.5C6 12.3284 6.67157 13 7.5 13Z" fill="black"/>
</svg>
