<svg width="24" height="24" viewBox="0 0 24 24" fill="none" xmlns="http://www.w3.org/2000/svg">
<path fill-rule="evenodd" clip-rule="evenodd" d="M2 6C2 4.34315 3.34315 3 5 3H12H19C20.6569 3 22 4.34315 22 6V10V18C22 19.6569 20.6569 21 19 21H5C3.34315 21 2 19.6569 2 18V10V6ZM5 5C4.44772 5 4 5.44772 4 6V9.58579L4.17157 9.75736C5.60135 11.1871 7.38196 12.1855 9.3111 12.6685C9.80164 11.6795 10.8212 11 12 11C13.1788 11 14.1984 11.6795 14.6889 12.6685C16.618 12.1855 18.3987 11.1871 19.8284 9.75736L20 9.58579V6C20 5.44772 19.5523 5 19 5H12H5ZM20 12.266C18.4987 13.4279 16.7658 14.2458 14.9252 14.6685C14.6214 16.0036 13.4271 17 12 17C10.5729 17 9.37859 16.0036 9.07476 14.6685C7.23421 14.2458 5.50129 13.4279 4 12.266V18C4 18.5523 4.44772 19 5 19H19C19.5523 19 20 18.5523 20 18V12.266ZM12 13C11.4761 13 11.0454 13.4036 11.0034 13.9161C11.0012 13.9435 11 13.9715 11 14C11 14.5523 11.4477 15 12 15C12.5523 15 13 14.5523 13 14C13 13.9715 12.9988 13.9435 12.9966 13.9161C12.9546 13.4036 12.5239 13 12 13Z" fill="black"/>
</svg>
