<svg width="24" height="24" viewBox="0 0 24 24" fill="none" xmlns="http://www.w3.org/2000/svg">
<path fill-rule="evenodd" clip-rule="evenodd" d="M11.9999 3C10.3431 3 8.99994 4.34315 8.99994 6H14.9999C14.9999 4.34315 13.6568 3 11.9999 3ZM16.9999 6C16.9999 3.23858 14.7614 1 11.9999 1C9.23852 1 6.99994 3.23858 6.99994 6H5.10493C3.92168 6 2.99712 7.02164 3.11486 8.19901L3.99002 16.9506L3.25859 20.6078C3.01107 21.8454 3.95765 23 5.21975 23H18.7801C20.0422 23 20.9888 21.8454 20.7413 20.6078L20.0099 16.9506L20.885 8.19901C21.0028 7.02164 20.0782 6 18.895 6H16.9999ZM7.99994 8L5.10493 8L5.99498 16.9005L6.00987 17.0494L5.98052 17.1961L5.21975 21H18.7801L18.0194 17.1961L17.99 17.0494L18.0049 16.9005L18.895 8L19.89 8.09951L18.895 8H15.9999H7.99994ZM6.99994 17C6.99994 16.4477 7.44766 16 7.99994 16H15.9999C16.5522 16 16.9999 16.4477 16.9999 17C16.9999 17.5523 16.5522 18 15.9999 18H7.99994C7.44766 18 6.99994 17.5523 6.99994 17Z" fill="black"/>
</svg>
