<svg width="24" height="24" fill="none" xmlns="http://www.w3.org/2000/svg"><path fill-rule="evenodd" clip-rule="evenodd" d="M4 12a8 8 0 0 1 8-8 1 1 0 1 0 0-2C6.477 2 2 6.477 2 12s4.477 10 10 10a9.972 9.972 0 0 0 7.071-2.929 1 1 0 0 0-1.414-1.414A8 8 0 0 1 4 12zm9-6a1 1 0 1 0-2 0v6a1 1 0 0 0 .293.707l3 3a1 1 0 0 0 1.414-1.414L13 11.586V6zm8.748 9.167a1.25 1.25 0 1 1-2.377-.772 1.25 1.25 0 0 1 2.377.772zm-.663-3.34a1.25 1.25 0 1 0-.391-2.47 1.25 1.25 0 0 0 .39 2.47zm-.793-5.852a1.25 1.25 0 1 1-2.022 1.47 1.25 1.25 0 0 1 2.022-1.47zM17.2 4.548a1.25 1.25 0 1 0-2.228-1.134A1.25 1.25 0 0 0 17.2 4.548z" fill="#000"/></svg>