<svg width="24" height="24" fill="none" xmlns="http://www.w3.org/2000/svg"><path fill-rule="evenodd" clip-rule="evenodd" d="M12 4a8 8 0 1 0 0 16 1 1 0 1 1 0 2C6.477 22 2 17.523 2 12S6.477 2 12 2s10 4.477 10 10a1 1 0 1 1-2 0 8 8 0 0 0-8-8zm0 1a1 1 0 0 1 1 1v5.586l.707.707a1 1 0 0 1-1.414 1.414l-1-1A1 1 0 0 1 11 12V6a1 1 0 0 1 1-1zm4.707 10.293a1 1 0 0 0-1.414 1.414L17.586 19l-2.293 2.293a1 1 0 0 0 1.414 1.414L19 20.414l2.293 2.293a1 1 0 0 0 1.414-1.414L20.414 19l2.293-2.293a1 1 0 0 0-1.414-1.414L19 17.586l-2.293-2.293z" fill="#000"/></svg>