<svg width="24" height="24" fill="none" xmlns="http://www.w3.org/2000/svg"><path fill-rule="evenodd" clip-rule="evenodd" d="M7.5 5.385A9.965 9.965 0 0 1 10 12a9.965 9.965 0 0 1-2.5 6.615A7.96 7.96 0 0 0 12 20a7.96 7.96 0 0 0 4.5-1.385A9.965 9.965 0 0 1 14 12c0-2.536.945-4.853 2.5-6.615A7.959 7.959 0 0 0 12 4a7.96 7.96 0 0 0-4.5 1.385zM18 6.708A7.967 7.967 0 0 0 16 12c0 2.029.754 3.88 2 5.292A7.966 7.966 0 0 0 20 12c0-2.029-.754-3.88-2-5.292zM6 17.292A7.966 7.966 0 0 0 8 12c0-2.029-.754-3.88-2-5.292A7.967 7.967 0 0 0 4 12c0 2.029.754 3.88 2 5.292zM5.333 4.547A9.966 9.966 0 0 1 12 2c2.56 0 4.898.964 6.667 2.547A9.978 9.978 0 0 1 22 12a9.978 9.978 0 0 1-3.333 7.453A9.967 9.967 0 0 1 12 22a9.967 9.967 0 0 1-6.667-2.547A9.978 9.978 0 0 1 2 12a9.978 9.978 0 0 1 3.333-7.453z" fill="#000"/></svg>