<svg width="24" height="24" viewBox="0 0 24 24" fill="none" xmlns="http://www.w3.org/2000/svg">
<path fill-rule="evenodd" clip-rule="evenodd" d="M5 4C5 3.44772 4.55228 3 4 3C3.44772 3 3 3.44772 3 4V6V18C3 19.6569 4.34315 21 6 21H18C19.6569 21 21 19.6569 21 18V6V4C21 3.44772 20.5523 3 20 3C19.4477 3 19 3.44772 19 4V5H17V4C17 3.44772 16.5523 3 16 3C15.4477 3 15 3.44772 15 4V5H13V4C13 3.44772 12.5523 3 12 3C11.4477 3 11 3.44772 11 4V5H9V4C9 3.44772 8.55228 3 8 3C7.44772 3 7 3.44772 7 4V5H5V4ZM16 7H19V18C19 18.5523 18.5523 19 18 19H6C5.44772 19 5 18.5523 5 18V7H8H12H16ZM16.7682 10.6402C17.1218 10.2159 17.0645 9.58534 16.6402 9.23178C16.2159 8.87821 15.5853 8.93554 15.2318 9.35982L10.9328 14.5186L8.70711 12.2929C8.31658 11.9024 7.68342 11.9024 7.29289 12.2929C6.90237 12.6834 6.90237 13.3166 7.29289 13.7071L10.2929 16.7071C10.4916 16.9058 10.7646 17.0117 11.0453 16.999C11.326 16.9862 11.5884 16.856 11.7682 16.6402L16.7682 10.6402Z" fill="black"/>
</svg>
