<svg width="24" height="24" fill="none" xmlns="http://www.w3.org/2000/svg"><path fill-rule="evenodd" clip-rule="evenodd" d="M7.817 2.973A1.5 1.5 0 0 1 9.221 2h5.557a1.5 1.5 0 0 1 1.405.973l6 16A1.5 1.5 0 0 1 20.778 21h-3.557a1.5 1.5 0 0 1-1.404-.973L12 9.848 10.068 15h1.965a1.5 1.5 0 0 1 1.405.973l1.125 3A1.5 1.5 0 0 1 13.158 21H3.222a1.5 1.5 0 0 1-1.404-2.027l6-16zM9.567 4L3.944 19h8.494l-.75-2H8.625a1 1 0 0 1-.936-1.351l3.375-9a1 1 0 0 1 1.872 0L17.568 19h2.489L14.432 4H9.568z" fill="#000"/></svg>