<svg width="24" height="24" fill="none" xmlns="http://www.w3.org/2000/svg"><path fill-rule="evenodd" clip-rule="evenodd" d="M12 1a1 1 0 0 1 .874.514l10 18C23.238 20.17 22.75 21 22 21h-6.364a1 1 0 0 1-.85-.475l-4.407-7.139a10 10 0 0 1-.233-10.109l.98-1.763A1 1 0 0 1 12 1zm0 3.06c-1.438 2.588-1.496 5.722.08 8.276L16.195 19h4.107L12 4.06zM9.273 21a1 1 0 0 0 .911-.588c.64-1.812.533-3.77.057-5.612-.436-1.687-1.18-3.598-2.601-4.717a1.01 1.01 0 0 0-1.456.328l-5.058 9.103C.762 20.17 1.25 21 2 21h7.273zm-.969-5.7c-.318-1.235-.727-2.088-1.076-2.651L3.699 19H8.52c.133-.684.239-1.941-.216-3.7z" fill="#000"/></svg>