<svg width="24" height="24" fill="none" xmlns="http://www.w3.org/2000/svg"><path fill-rule="evenodd" clip-rule="evenodd" d="M3.5 12a8.5 8.5 0 1 1 17 0 8.5 8.5 0 0 1-17 0zM12 1.5C6.201 1.5 1.5 6.201 1.5 12S6.201 22.5 12 22.5 22.5 17.799 22.5 12 17.799 1.5 12 1.5zM11 6a1 1 0 1 0-2 0v1H8a1 1 0 0 0 0 2v6a1 1 0 1 0 0 2h1v1a1 1 0 1 0 2 0v-1h1v1a1 1 0 1 0 2 0v-1h.5a3 3 0 0 0 1.955-5.275A3 3 0 0 0 14 7V6a1 1 0 1 0-2 0v1h-1V6zm2 9h-3v-2h4.5a1 1 0 1 1 0 2H13zm0-6h-3v2h4a1 1 0 1 0 0-2h-1z" fill="#000"/></svg>