<svg width="24" height="24" fill="none" xmlns="http://www.w3.org/2000/svg"><path fill-rule="evenodd" clip-rule="evenodd" d="M16.372 2.15c1.277.234 2.559.809 3.18 1.992.64 1.22.573 2.406.041 3.405-.503.944-1.38 1.65-2.262 2.124-.89.478-1.893.778-2.772.837-.437.03-.897.002-1.316-.133-.42-.136-.883-.412-1.14-.932a1 1 0 011.744-.975.655.655 0 00.01.004c.1.032.287.06.569.04.56-.037 1.288-.243 1.958-.603.677-.363 1.19-.826 1.444-1.303.225-.421.282-.908-.046-1.534-.2-.382-.738-.766-1.77-.955-.998-.183-2.265-.14-3.565.13-1.297.27-2.563.753-3.567 1.397-1.014.65-1.675 1.406-1.929 2.19-.274.847-.177 1.444.07 1.934.272.537.768 1.035 1.453 1.568.332.258.684.507 1.055.77l.02.014c.371.262.763.539 1.128.828.309.243.623.513.912.817 1.293-.25 2.413-.223 3.332.197 1.182.541 1.774 1.607 2.053 2.813a1 1 0 11-1.948.45c-.2-.866-.527-1.256-.937-1.444-.3-.137-.75-.216-1.418-.155.616 2.165-.46 4.126-1.776 5.237-.71.599-1.577 1.035-2.446 1.121-.907.091-1.877-.214-2.447-1.161-.502-.837-.506-1.727-.244-2.52.252-.762.75-1.448 1.296-2.016a9.823 9.823 0 012.367-1.783 25.26 25.26 0 00-1.026-.751l-.036-.026a30.08 30.08 0 01-1.113-.812c-.75-.585-1.535-1.304-2.01-2.246-.5-.99-.614-2.134-.187-3.452C5.496 5.835 6.564 4.753 7.8 3.96c1.246-.798 2.75-1.361 4.24-1.67 1.486-.31 3.02-.38 4.332-.14zm-5.65 13.94a7.727 7.727 0 00-2.226 1.583c-.43.447-.715.882-.84 1.259-.114.346-.088.613.06.861.083.137.21.234.535.201.365-.036.866-.247 1.355-.66.935-.788 1.501-2.01 1.116-3.244zm3.09-7.636h.002z" fill="#000"/></svg>