<svg width="24" height="24" fill="none" xmlns="http://www.w3.org/2000/svg"><path fill-rule="evenodd" clip-rule="evenodd" d="M5.876 5.564c2.15-1.118 4.898-2.01 7.295-2.37 2.084-.313 4.293.812 5.265 2.682 1.118 2.15 2.01 4.898 2.37 7.296.313 2.083-.812 4.292-2.682 5.264-2.15 1.118-4.898 2.01-7.295 2.37-2.084.313-4.293-.812-5.265-2.682-1.118-2.15-2.01-4.898-2.37-7.295-.313-2.084.812-4.293 2.682-5.265zm6.999-4.348C10.259 1.608 7.3 2.57 4.953 3.789 2.325 5.155.776 8.196 1.216 11.125c.392 2.616 1.353 5.575 2.573 7.922 1.366 2.628 4.407 4.177 7.336 3.738 2.616-.393 5.575-1.355 7.922-2.574 2.628-1.366 4.177-4.407 3.738-7.336-.393-2.616-1.355-5.575-2.574-7.922-1.366-2.628-4.407-4.177-7.336-3.737zM8.874 7.233a1 1 0 10-1.902.618l.618 1.902-1.902.618a1 1 0 00.618 1.902l1.902-.618.927 2.853-1.902.618a1 1 0 00.618 1.902l1.902-.618.618 1.902a1 1 0 001.902-.618l-.618-1.902 2.853-.927.618 1.902a1 1 0 001.902-.618l-.618-1.902 1.902-.618a1 1 0 10-.618-1.902l-1.902.618-.927-2.853 1.902-.618a1 1 0 00-.618-1.902l-1.902.618-.618-1.902a1 1 0 10-1.902.618l.618 1.902-2.853.927-.618-1.902zm2.163 6.657l-.927-2.853 2.853-.927.927 2.853-2.853.927z" fill="#000"/></svg>