<svg width="24" height="24" fill="none" xmlns="http://www.w3.org/2000/svg"><path fill-rule="evenodd" clip-rule="evenodd" d="M15.135 2.507a1.02 1.02 0 00-1.378-.369.98.98 0 00-.362 1.355l4.219 7.166L11.7 4.861a1.024 1.024 0 00-1.428 0 .977.977 0 000 1.4l5.994 5.879-7.246-4.103a1.02 1.02 0 00-1.378.369.98.98 0 00.363 1.354l7.432 4.209-8.174-2.149a1.012 1.012 0 00-1.231.71.988.988 0 00.703 1.22L15.3 16H7a1 1 0 100 2h10a1 1 0 00.62-1.784c.176-.13.31-.317.372-.543a.987.987 0 00-.106-.771 1.01 1.01 0 00.485-.422.98.98 0 00.107-.743c.205-.03.403-.124.561-.279a.978.978 0 00.295-.66c.21.028.43-.01.627-.122a.98.98 0 00.363-1.354l-5.19-8.815zM4 17a1 1 0 10-2 0v1a4 4 0 004 4h12a4 4 0 004-4v-1a1 1 0 10-2 0v1a2 2 0 01-2 2H6a2 2 0 01-2-2v-1z" fill="#000"/></svg>