<svg width="24" height="24" fill="none" xmlns="http://www.w3.org/2000/svg"><path fill-rule="evenodd" clip-rule="evenodd" d="M7.845 4.775c2.592-.367 5.718-.367 8.31 0 2.355.334 4.18 1.986 4.528 3.766.423 2.155.423 4.763 0 6.918-.349 1.78-2.173 3.432-4.528 3.766-2.592.367-5.719.367-8.31 0-2.355-.334-4.179-1.986-4.528-3.766-.423-2.155-.423-4.763 0-6.918.349-1.78 2.173-3.432 4.528-3.766zm8.59-1.98c-2.777-.393-6.093-.393-8.87 0-3.015.427-5.665 2.578-6.21 5.362-.473 2.409-.473 5.277 0 7.686.545 2.784 3.195 4.935 6.21 5.362 2.777.393 6.093.393 8.87 0 3.015-.427 5.665-2.578 6.21-5.362.473-2.409.473-5.277 0-7.686-.545-2.784-3.195-4.935-6.21-5.362zm-5.88 4.373A1 1 0 009 8v8a1 1 0 001.555.832l6-4a1 1 0 000-1.664l-6-4zM14.197 12L11 14.132V9.869L14.197 12z" fill="#000"/></svg>