<svg width="24" height="25" viewBox="0 0 24 25" fill="none" xmlns="http://www.w3.org/2000/svg">
<path fill-rule="evenodd" clip-rule="evenodd" d="M15.0001 1C15.0001 0.447715 14.5524 0 14.0001 0C13.4478 0 13.0001 0.447715 13.0001 1V3C13.0001 3.55228 13.4478 4 14.0001 4C14.5524 4 15.0001 3.55228 15.0001 3V1ZM10.7072 1.29289C10.3167 0.902369 9.68349 0.902369 9.29297 1.29289C8.90244 1.68342 8.90244 2.31658 9.29297 2.70711L10.293 3.70711C10.6835 4.09763 11.3167 4.09763 11.7072 3.70711C12.0977 3.31658 12.0977 2.68342 11.7072 2.29289L10.7072 1.29289ZM18.7072 2.70711C19.0977 2.31658 19.0977 1.68342 18.7072 1.29289C18.3167 0.902369 17.6835 0.902369 17.293 1.29289L16.293 2.29289C15.9024 2.68342 15.9024 3.31658 16.293 3.70711C16.6835 4.09763 17.3167 4.09763 17.7072 3.70711L18.7072 2.70711ZM9.80864 5.39611C9.35019 4.93767 8.73884 4.55126 8.06021 4.41553C7.34665 4.27282 6.54739 4.41472 5.91955 5.04256C5.7265 5.23561 5.57939 5.44487 5.47237 5.66286C5.28204 5.58105 5.0832 5.51719 4.87823 5.47619C4.16467 5.33348 3.36541 5.47538 2.73757 6.10322C2.10972 6.73107 1.96783 7.53032 2.11054 8.24388C2.15154 8.44885 2.2154 8.64769 2.29721 8.83803C2.07922 8.94504 1.86996 9.09215 1.67691 9.2852C1.04906 9.91305 0.907169 10.7123 1.04988 11.4259C1.18561 12.1045 1.57202 12.7158 2.03046 13.1743L2.06719 13.211C1.93173 13.2987 1.80097 13.4038 1.67691 13.5278C1.04906 14.1557 0.907169 14.9549 1.04988 15.6685C1.18561 16.3471 1.57202 16.9585 2.03046 17.4169L6.98021 22.3667C8.99817 24.3846 12.157 24.4841 14.8588 23.0676C16.9438 23.5374 19.2576 23.0196 21.2058 21.0713C22.9322 19.345 24.0001 16.6238 24.0001 14.3642C24.0001 12.0101 22.8954 10.0118 21.0135 8.12529L20.4277 7.52569L20.4278 7.52564L20.4196 7.51743C19.9611 7.05899 19.3498 6.67258 18.6711 6.53685C17.9576 6.39414 17.1583 6.53604 16.5305 7.16388C16.4058 7.28858 16.3 7.42003 16.2117 7.55626L16.1726 7.51743L16.1713 7.5161C15.713 7.05824 15.1021 6.67245 14.4242 6.53685C13.7106 6.39414 12.9114 6.53604 12.2835 7.16388C12.1594 7.28794 12.0544 7.4187 11.9667 7.55417L9.80864 5.39611ZM11.2228 11.053L7.68732 7.51743C7.43865 7.26877 7.29473 6.99624 7.25368 6.79099C7.21962 6.62067 7.2545 6.53604 7.33376 6.45677C7.41302 6.37751 7.49765 6.34263 7.66798 6.37669C7.87323 6.41774 8.14576 6.56167 8.39442 6.81033L12.6362 11.0521L12.6371 11.053L14.7584 13.1743C15.1489 13.5648 15.7821 13.5648 16.1726 13.1743C16.5631 12.7838 16.5631 12.1506 16.1726 11.7601L14.0513 9.63875L14.0506 9.63807C13.8024 9.38959 13.6587 9.11737 13.6176 8.91231C13.5836 8.74199 13.6185 8.65736 13.6977 8.57809C13.777 8.49883 13.8616 8.46395 14.0319 8.49801C14.2372 8.53906 14.5097 8.68299 14.7584 8.93165L14.7607 8.93397L16.8716 11.0311L17.58 11.7532L17.58 11.7533L17.5868 11.7601C18.3172 12.4905 18.6048 13.7688 18.2856 15.3647C17.9715 16.9354 17.0962 18.6147 15.819 19.8918C15.3118 20.3991 14.7707 20.8132 14.2176 21.1369C11.9736 22.4503 9.67717 22.2352 8.39442 20.9525L3.44468 16.0027C3.19601 15.7541 3.05209 15.4815 3.01104 15.2763C2.97698 15.1059 3.01186 15.0213 3.09112 14.9421C3.17038 14.8628 3.25501 14.8279 3.42534 14.862C3.63059 14.903 3.90312 15.0469 4.15178 15.2956L6.2731 17.4169C6.66363 17.8075 7.29679 17.8075 7.68732 17.4169C8.07784 17.0264 8.07784 16.3932 7.68732 16.0027L5.566 13.8814L3.44468 11.7601C3.19601 11.5114 3.05209 11.2389 3.01104 11.0336C2.97698 10.8633 3.01186 10.7787 3.09112 10.6994C3.17038 10.6202 3.25501 10.5853 3.42534 10.6193C3.63059 10.6604 3.90312 10.8043 4.15178 11.053L7.68732 14.5885C8.07784 14.979 8.71101 14.979 9.10153 14.5885C9.49205 14.198 9.49205 13.5648 9.10153 13.1743L5.566 9.63875L4.50534 8.57809C4.25667 8.32943 4.11275 8.0569 4.0717 7.85165C4.03764 7.68133 4.07252 7.5967 4.15178 7.51743C4.23104 7.43817 4.31567 7.40329 4.486 7.43735C4.69125 7.4784 4.96378 7.62233 5.21244 7.87099L6.2731 8.93165L9.80864 12.4672C10.1992 12.8577 10.8323 12.8577 11.2228 12.4672C11.6134 12.0767 11.6134 11.4435 11.2228 11.053ZM19.7916 19.6571C19.0398 20.4089 18.2461 20.8594 17.4576 21.0748C18.8876 19.5558 19.873 17.6255 20.2468 15.7569C20.6344 13.8189 20.3923 11.7403 19.0046 10.3494L18.2949 9.62592L18.2949 9.62589L18.2881 9.61909C18.0379 9.3689 17.8988 9.10223 17.8602 8.90582C17.829 8.74692 17.8598 8.66298 17.9447 8.57809C18.0239 8.49883 18.1086 8.46395 18.2789 8.49801C18.4831 8.53886 18.754 8.68156 19.0016 8.92797L19.5867 9.52674L19.5866 9.52678L19.5942 9.53435C21.2556 11.1988 22.0001 12.7199 22.0001 14.3642C22.0001 16.1046 21.135 18.3137 19.7916 19.6571Z" fill="black"/>
</svg>
