<svg width="24" height="24" viewBox="0 0 24 24" fill="none" xmlns="http://www.w3.org/2000/svg">
<path fill-rule="evenodd" clip-rule="evenodd" d="M11.2071 4.1797C11.091 4.35387 11 4.64835 11 5L11 12C11 12.5203 10.601 12.9537 10.0825 12.9966C9.56396 13.0395 9.09916 12.6776 9.01361 12.1644L8.01364 6.16556C8.01146 6.15249 8.00954 6.13937 8.00788 6.12622C7.96234 5.76499 7.81707 5.41341 7.64019 5.19032C7.46944 4.97497 7.37578 4.99153 7.36824 4.99287C7.36805 4.9929 7.36791 4.99292 7.36783 4.99293L7.35358 4.99467C7.26232 5.0051 7.2181 5.0307 7.19314 5.04963C7.16428 5.07151 7.12343 5.11411 7.08253 5.19958C6.9931 5.3865 6.94183 5.70401 6.99145 6.09409L6.9931 6.10704L6.99302 6.10705L7.50552 10.6042C7.51053 10.6351 7.5152 10.6654 7.51964 10.6949C7.5554 10.9324 7.58927 11.2318 7.62873 11.5806C7.63981 11.6785 7.65133 11.7803 7.66345 11.8857L7.66402 11.8906L7.99357 14.8868L7.994 14.8906C8.05431 15.4389 7.65938 15.9324 7.11129 15.9938C6.56319 16.0552 6.06888 15.6612 6.00643 15.1132L6.006 15.1093L5.53768 11C5.52555 11 5.513 11 5.5 11C5.38791 11 5.3034 11.0352 5.20705 11.1797C5.09094 11.3538 5 11.6483 5 12V16C5 17.0329 5.70057 18.1402 7.0547 19.0429C8.38524 19.93 10.1877 20.4981 11.9908 20.5C13.743 20.466 15.1334 19.9888 16.1285 19.2095C17.1142 18.4375 17.7806 17.3167 18.011 15.852L18.9054 9.57463C18.9071 9.56289 18.9089 9.55119 18.911 9.53951C19.0042 9.0191 19.021 8.543 18.9581 8.21582C18.9483 8.16479 18.9381 8.12336 18.9283 8.08989C18.9153 8.10389 18.9013 8.11971 18.8861 8.13756C18.6767 8.3836 18.4483 8.80822 18.2215 9.36957C18.0018 9.91351 17.8131 10.5093 17.6539 11.0455C17.6116 11.1878 17.5696 11.3328 17.5287 11.4737C17.4275 11.8228 17.3334 12.147 17.2611 12.3444C17.0862 12.8211 16.5817 13.0911 16.088 12.9722C15.5943 12.8532 15.2681 12.3831 15.3296 11.879C15.5639 9.95635 15.7892 8.03287 16.0063 6.1079L16.0075 6.09713L16.0076 6.09714C16.056 5.70622 16.0049 5.38783 15.9153 5.1998C15.8743 5.11385 15.8334 5.07095 15.8044 5.04886C15.7794 5.02976 15.735 5.00393 15.6434 4.99318C15.5608 4.98348 15.4726 4.99163 15.3348 5.17295C15.176 5.38193 15.0419 5.73084 14.9922 6.12522C14.9905 6.13832 14.9886 6.15138 14.9864 6.1644L13.9864 12.1644C13.9009 12.6776 13.436 13.0395 12.9175 12.9966C12.399 12.9537 12 12.5203 12 12L12 5C12 4.64835 11.9091 4.35387 11.793 4.1797C11.6966 4.03518 11.6121 4 11.5 4C11.3879 4 11.3034 4.03518 11.2071 4.1797ZM19.0466 7.98856C19.0465 7.98972 19.0403 7.99385 19.0287 7.99747C19.041 7.98921 19.0468 7.9874 19.0466 7.98856ZM18.8812 7.97514C18.8709 7.96784 18.8669 7.96167 18.8674 7.96041C18.868 7.95915 18.8731 7.96281 18.8812 7.97514ZM5.31057 9.00718L5.00657 6.33959C4.92603 5.69851 4.97579 4.96885 5.27841 4.33637C5.60276 3.65846 6.21771 3.11389 7.11954 3.0084C8.02032 2.89533 8.72095 3.36309 9.16095 3.89068C9.24842 3.60271 9.37389 3.32393 9.54297 3.0703C9.94662 2.46483 10.6121 2 11.5 2C12.3879 2 13.0534 2.46483 13.4571 3.0703C13.6193 3.31359 13.7413 3.58001 13.8282 3.8555C14.282 3.31495 14.9775 2.90127 15.8766 3.00682C16.7822 3.11313 17.3971 3.6602 17.7207 4.33931C18.0139 4.95442 18.0685 5.66047 17.9992 6.28568C18.3906 6.04483 18.8825 5.90837 19.4571 6.06687C20.4237 6.33353 20.7968 7.18651 20.9221 7.8381C21.0492 8.49879 20.9949 9.23991 20.883 9.87378L19.99 16.141L19.9881 16.1544L19.988 16.1544C19.6866 18.0827 18.779 19.6741 17.3616 20.7841C15.9539 21.8866 14.1129 22.4611 12.0185 22.4998L12 22.5C9.80613 22.5 7.6125 21.8185 5.9453 20.707C4.29943 19.6098 3 17.967 3 16V12C3 11.3516 3.15906 10.6461 3.54295 10.0703C3.91736 9.50867 4.51706 9.06806 5.31057 9.00718Z" fill="black"/>
</svg>
