<svg width="24" height="24" viewBox="0 0 24 24" fill="none" xmlns="http://www.w3.org/2000/svg">
<path fill-rule="evenodd" clip-rule="evenodd" d="M11.2071 5.6797C11.0909 5.85386 11 6.14834 11 6.5V7V8C11 8.55228 10.5523 9 10 9C9.44772 9 9 8.55228 9 8V7C9 6.64834 8.90906 6.35386 8.79295 6.1797C8.6966 6.03518 8.61209 6 8.5 6C8.38791 6 8.3034 6.03518 8.20705 6.1797C8.09094 6.35386 8 6.64834 8 7V10V12C8 12.5523 7.55228 13 7 13C6.44772 13 6 12.5523 6 12V10C6 9.64834 5.90906 9.35386 5.79295 9.1797C5.6966 9.03518 5.61209 9 5.5 9C5.38791 9 5.3034 9.03518 5.20705 9.1797C5.09094 9.35386 5 9.64834 5 10V14C5 15.033 5.70057 16.1402 7.0547 17.0429C8.3875 17.9315 10.1939 18.5 12 18.5C15.6675 18.5 18 16.251 18 14V8.5C18 8.14834 17.9091 7.85386 17.7929 7.6797C17.6966 7.53518 17.6121 7.5 17.5 7.5C17.3879 7.5 17.3034 7.53518 17.2071 7.6797C17.0909 7.85386 17 8.14834 17 8.5V9C17 9.55228 16.5523 10 16 10C15.4477 10 15 9.55228 15 9V8.5V7C15 6.64834 14.9091 6.35386 14.7929 6.1797C14.6966 6.03518 14.6121 6 14.5 6C14.3879 6 14.3034 6.03518 14.2071 6.1797C14.0909 6.35386 14 6.64834 14 7V8.5C14 9.05228 13.5523 9.5 13 9.5C12.4477 9.5 12 9.05228 12 8.5V7V6.5C12 6.14834 11.9091 5.85386 11.7929 5.6797C11.6966 5.53518 11.6121 5.5 11.5 5.5C11.3879 5.5 11.3034 5.53518 11.2071 5.6797ZM13.2855 4.34094C13.6245 4.12954 14.0313 4 14.5 4C15.3879 4 16.0534 4.46482 16.4571 5.0703C16.573 5.24423 16.6684 5.42998 16.7452 5.62242C16.975 5.54395 17.227 5.5 17.5 5.5C18.3879 5.5 19.0534 5.96482 19.4571 6.5703C19.8409 7.14614 20 7.85166 20 8.5V14C20 17.749 16.3325 20.5 12 20.5C9.80613 20.5 7.6125 19.8185 5.9453 18.7071C4.29943 17.6098 3 15.967 3 14V10C3 9.35166 3.15906 8.64614 3.54295 8.0703C3.9466 7.46482 4.61209 7 5.5 7C5.67545 7 5.84222 7.01815 6 7.05195V7C6 6.35166 6.15906 5.64614 6.54295 5.0703C6.9466 4.46482 7.61209 4 8.5 4C8.96874 4 9.37549 4.12954 9.71446 4.34094C10.1243 3.85131 10.7281 3.5 11.5 3.5C12.2719 3.5 12.8757 3.85131 13.2855 4.34094Z" fill="black"/>
</svg>
