<svg width="24" height="24" viewBox="0 0 24 24" fill="none" xmlns="http://www.w3.org/2000/svg">
<path fill-rule="evenodd" clip-rule="evenodd" d="M7.62566 5.16543C7.48594 4.98775 7.39449 4.97383 7.29709 4.98496C7.22411 4.9933 7.19908 5.01271 7.18685 5.02299C7.16748 5.03927 7.12639 5.08318 7.08371 5.18732C6.99081 5.41398 6.94846 5.78669 6.99926 6.23323C6.99928 6.23342 6.9993 6.23361 6.99932 6.23379L7.49285 10.529C7.50292 10.5864 7.51167 10.642 7.51964 10.6949C7.5554 10.9324 7.58927 11.2318 7.62873 11.5806C7.63981 11.6785 7.65133 11.7803 7.66345 11.8858L7.66402 11.8907L7.664 11.8907L7.99346 14.8859L7.994 14.8907C8.05429 15.4387 7.65963 15.9321 7.11175 15.9938C6.56386 16.0554 6.06947 15.6619 6.00654 15.1142L6.006 15.1094L5.53381 11C5.52289 11 5.51162 11 5.5 11C5.38791 11 5.3034 11.0352 5.20705 11.1797C5.09094 11.3539 5 11.6484 5 12V16C5 17.033 5.70057 18.1402 7.0547 19.043C8.3875 19.9315 10.1939 20.5 12 20.5C15.6675 20.5 18 18.251 18 16V8.00002C18 7.64836 17.9091 7.35388 17.7929 7.17972C17.6966 7.0352 17.6121 7.00002 17.5 7.00002C17.3879 7.00002 17.3034 7.0352 17.2071 7.17972C17.0909 7.35388 17 7.64836 17 8.00002V11C17 11.5523 16.5523 12 16 12C15.4477 12 15 11.5523 15 11C15 10.6484 14.9091 10.3539 14.7929 10.1797C14.6966 10.0352 14.6121 10 14.5 10C14.3879 10 14.3034 10.0352 14.2071 10.1797C14.0909 10.3539 14 10.6484 14 11V11.5C14 12.0523 13.5523 12.5 13 12.5C12.4477 12.5 12 12.0523 12 11.5V11V10.5C12 10.1484 11.9091 9.85388 11.7929 9.67972C11.6966 9.5352 11.6121 9.50002 11.5 9.50002C11.3879 9.50002 11.3034 9.5352 11.2071 9.67972C11.0909 9.85388 11 10.1484 11 10.5V11C11 11.5141 10.6102 11.9445 10.0986 11.9952C9.58694 12.0458 9.12027 11.7003 9.01943 11.1962L8.01945 6.19731C8.01776 6.18883 8.01617 6.18034 8.0147 6.17182C7.93847 5.73173 7.79006 5.37449 7.62566 5.16543ZM13.2855 8.34096C13.6245 8.12957 14.0313 8.00002 14.5 8.00002C14.6755 8.00002 14.8422 8.01817 15 8.05197V8.00002C15 7.35168 15.1591 6.64616 15.5429 6.07032C15.9466 5.46484 16.6121 5.00002 17.5 5.00002C18.3879 5.00002 19.0534 5.46484 19.4571 6.07032C19.8409 6.64616 20 7.35168 20 8.00002V16C20 19.749 16.3325 22.5 12 22.5C9.80613 22.5 7.6125 21.8185 5.9453 20.7071C4.29943 19.6098 3 17.9671 3 16V12C3 11.3517 3.15906 10.6462 3.54295 10.0703C3.91647 9.51004 4.51419 9.0702 5.30489 9.00766L5.01229 6.46113L5.01218 6.46017C4.93982 5.82505 4.96636 5.07964 5.23313 4.42881C5.51994 3.72905 6.1123 3.10736 7.06996 2.9979C8.01256 2.89015 8.73596 3.34186 9.19779 3.92915C9.63188 4.48117 9.87142 5.18223 9.98301 5.81707L10.377 7.78683C10.6969 7.60767 11.0727 7.50002 11.5 7.50002C12.2719 7.50002 12.8757 7.85133 13.2855 8.34096Z" fill="black"/>
</svg>
