<svg width="24" height="24" viewBox="0 0 24 24" fill="none" xmlns="http://www.w3.org/2000/svg">
<path fill-rule="evenodd" clip-rule="evenodd" d="M11.2071 4.1797C11.0909 4.35387 11 4.64835 11 5V12C11 12.5203 10.601 12.9537 10.0825 12.9966C9.56397 13.0395 9.09916 12.6776 9.01361 12.1644L8.01361 6.16556C8.01143 6.15249 8.00951 6.13937 8.00785 6.12622C7.96231 5.76499 7.81705 5.41341 7.64017 5.19032C7.46942 4.97497 7.37575 4.99153 7.36821 4.99287C7.36802 4.9929 7.36789 4.99292 7.36781 4.99293L7.35356 4.99467C7.2623 5.0051 7.21808 5.0307 7.19311 5.04963C7.16425 5.07151 7.1234 5.11411 7.08251 5.19958C6.99307 5.3865 6.94181 5.70401 6.99143 6.09409L6.99308 6.10704L6.99299 6.10705L7.50548 10.6039C7.5105 10.635 7.51519 10.6653 7.51964 10.6949C7.5554 10.9324 7.58927 11.2318 7.62873 11.5806C7.63981 11.6785 7.65133 11.7803 7.66345 11.8858L7.66402 11.8907L7.99357 14.8868L7.994 14.8907C8.05431 15.4389 7.65938 15.9324 7.11129 15.9938C6.56319 16.0552 6.06888 15.6612 6.00643 15.1132L6.006 15.1093L5.53767 11C5.52554 11 5.51299 11 5.5 11C5.38791 11 5.3034 11.0352 5.20705 11.1797C5.09094 11.3539 5 11.6483 5 12V16C5 17.033 5.70057 18.1402 7.0547 19.0429C8.3875 19.9315 10.1939 20.5 12 20.5C15.6675 20.5 18 18.251 18 16V13C18 12.9862 18.0003 12.9725 18.0009 12.9587C18.017 12.5692 17.9662 12.2904 17.8954 12.1289C17.8425 12.0082 17.8064 12.0004 17.7849 11.9958C17.7833 11.9954 17.7819 11.9951 17.7805 11.9948C17.7805 11.9948 17.7803 11.9947 17.7802 11.9947C17.7746 11.993 17.7116 11.9739 17.5919 12.0917C17.4577 12.2237 17.2651 12.5327 17.1925 13.1222C17.1252 13.6693 16.6277 14.0588 16.0803 13.9928C15.533 13.9268 15.1423 13.4303 15.2069 12.8828L15.2075 12.8779L16.0069 6.10282L16.0076 6.09714C16.056 5.70622 16.0049 5.38783 15.9153 5.1998C15.8743 5.11385 15.8334 5.07095 15.8044 5.04886C15.7794 5.02976 15.735 5.00393 15.6434 4.99318C15.5608 4.98348 15.4726 4.99163 15.3348 5.17295C15.176 5.38193 15.0419 5.73084 14.9921 6.12522C14.9905 6.13832 14.9886 6.15138 14.9864 6.1644L13.9864 12.1644C13.9009 12.6776 13.4361 13.0395 12.9175 12.9966C12.399 12.9537 12 12.5203 12 12V5C12 4.64835 11.9091 4.35387 11.7929 4.1797C11.6966 4.03518 11.6121 4 11.5 4C11.3879 4 11.3034 4.03518 11.2071 4.1797ZM17.5607 10.0017C17.7875 9.97953 18.021 9.99465 18.2555 10.052C19.0018 10.2344 19.4749 10.7503 19.7273 11.3262C19.9624 11.8627 20.0206 12.4696 20 13.0196V16C20 19.749 16.3325 22.5 12 22.5C9.80613 22.5 7.6125 21.8185 5.9453 20.7071C4.29943 19.6098 3 17.967 3 16V12C3 11.3517 3.15906 10.6461 3.54295 10.0703C3.91736 9.50868 4.51705 9.06808 5.31056 9.00719L5.00655 6.33959C4.92601 5.69851 4.97576 4.96884 5.27838 4.33637C5.60274 3.65846 6.21769 3.11389 7.11952 3.0084C8.0203 2.89533 8.72093 3.36309 9.16093 3.89068C9.2484 3.60271 9.37387 3.32393 9.54295 3.0703C9.9466 2.46483 10.6121 2 11.5 2C12.3879 2 13.0534 2.46483 13.4571 3.0703C13.6192 3.31359 13.7413 3.58001 13.8282 3.8555C14.282 3.31495 14.9775 2.90127 15.8766 3.00682C16.7821 3.11313 17.397 3.6602 17.7207 4.33931C18.0224 4.97221 18.0714 5.7014 17.9928 6.33974L17.5607 10.0017Z" fill="black"/>
</svg>
