<svg width="24" height="24" viewBox="0 0 24 24" fill="none" xmlns="http://www.w3.org/2000/svg">
<path fill-rule="evenodd" clip-rule="evenodd" d="M10.9735 4.94376C10.7734 5.95711 10.4372 7.47704 9.20711 8.70711C9.0949 8.81932 8.97211 8.93775 8.84208 9.06316C7.70025 10.1645 6 11.8044 6 14.5C6 15.9634 6.62957 17.3494 7.60095 18.3748C8.57834 19.4064 9.82928 20 11 20H16C16.3517 20 16.6461 19.9091 16.8203 19.7929C16.9648 19.6966 17 19.6121 17 19.5C17 19.3879 16.9648 19.3034 16.8203 19.2071C16.6461 19.0909 16.3517 19 16 19H15C14.4477 19 14 18.5523 14 18C14 17.4477 14.4477 17 15 17H16H16.5C16.8517 17 17.1461 16.9091 17.3203 16.7929C17.4648 16.6966 17.5 16.6121 17.5 16.5C17.5 16.3879 17.4648 16.3034 17.3203 16.2071C17.1461 16.0909 16.8517 16 16.5 16H15.5C14.9477 16 14.5 15.5523 14.5 15C14.5 14.4477 14.9477 14 15.5 14H16.5H17C17.3517 14 17.6461 13.9091 17.8203 13.7929C17.9648 13.6966 18 13.6121 18 13.5C18 13.3879 17.9648 13.3034 17.8203 13.2071C17.6461 13.0909 17.3517 13 17 13H16C15.4477 13 15 12.5523 15 12C15 11.4477 15.4477 11 16 11H17C17.3517 11 17.6461 10.9091 17.8203 10.7929C17.9648 10.6966 18 10.6121 18 10.5C18 10.3879 17.9648 10.3034 17.8203 10.2071C17.6461 10.0909 17.3517 10 17 10H12.5C12.1772 10 11.8743 9.84421 11.6866 9.58167C11.499 9.31937 11.4494 8.98272 11.5534 8.67751C11.5534 8.67751 11.5534 8.67751 11.5534 8.6775C11.5534 8.67747 11.5534 8.67745 11.5535 8.67742L11.5535 8.67716L11.5536 8.67712C11.5536 8.67697 11.5537 8.67683 11.5537 8.67668L11.5538 8.67644L11.5567 8.66782L11.5701 8.62664C11.5822 8.58889 11.6004 8.53119 11.6227 8.45641C11.6673 8.30657 11.7283 8.08979 11.791 7.82887C11.918 7.30015 12.0448 6.62105 12.0695 5.96253C12.0951 5.27836 12.0043 4.75373 11.8214 4.43325C11.7131 4.24364 11.5498 4.07173 11.1704 4.01759C11.1228 4.18202 11.079 4.40572 11.0148 4.73357C11.002 4.79932 10.9883 4.86926 10.9735 4.94376ZM13.8035 8C13.9252 7.44203 14.0414 6.74706 14.068 6.03747C14.0986 5.22164 14.0176 4.24627 13.5583 3.44175C13.0472 2.54635 12.1465 2 10.9 2C10.5185 2 10.1605 2.12626 9.87023 2.38014C9.60657 2.61078 9.45664 2.89645 9.36405 3.12621C9.21607 3.49339 9.12463 3.96912 9.04745 4.37062C9.03514 4.43463 9.0232 4.49675 9.01145 4.55624C8.81659 5.54289 8.56283 6.52296 7.79289 7.29289C7.70469 7.38109 7.59751 7.48271 7.47588 7.59801C6.35307 8.66247 4 10.8932 4 14.5C4 16.5366 4.87043 18.4006 6.14905 19.7502C7.42166 21.0936 9.17072 22 11 22H16C16.6483 22 17.3539 21.8409 17.9297 21.4571C18.5352 21.0534 19 20.3879 19 19.5C19 19.0313 18.8705 18.6245 18.6591 18.2855C19.1487 17.8757 19.5 17.2719 19.5 16.5C19.5 16.0313 19.3705 15.6245 19.1591 15.2855C19.6487 14.8757 20 14.2719 20 13.5C20 12.8912 19.7815 12.387 19.4489 12C19.7815 11.613 20 11.1088 20 10.5C20 9.61209 19.5352 8.9466 18.9297 8.54295C18.3539 8.15906 17.6483 8 17 8H13.8035Z" fill="black"/>
</svg>
