<svg width="24" height="24" viewBox="0 0 24 24" fill="none" xmlns="http://www.w3.org/2000/svg">
<path fill-rule="evenodd" clip-rule="evenodd" d="M7.1797 4.20705C7.03518 4.3034 7 4.38791 7 4.5C7 4.61209 7.03518 4.6966 7.1797 4.79295C7.35386 4.90906 7.64834 5 8 5H9C9.55228 5 10 5.44772 10 6C10 6.55228 9.55228 7 9 7H8H7.5C7.14834 7 6.85386 7.09094 6.6797 7.20705C6.53518 7.3034 6.5 7.38791 6.5 7.5C6.5 7.61209 6.53518 7.6966 6.6797 7.79295C6.85386 7.90906 7.14834 8 7.5 8H8.5C9.05228 8 9.5 8.44772 9.5 9C9.5 9.55228 9.05228 10 8.5 10H7.5H7C6.64834 10 6.35386 10.0909 6.1797 10.2071C6.03518 10.3034 6 10.3879 6 10.5C6 10.6121 6.03518 10.6966 6.1797 10.7929C6.35386 10.9091 6.64834 11 7 11H8C8.55228 11 9 11.4477 9 12C9 12.5523 8.55228 13 8 13H7C6.64834 13 6.35386 13.0909 6.1797 13.2071C6.03518 13.3034 6 13.3879 6 13.5C6 13.6121 6.03518 13.6966 6.1797 13.7929C6.35386 13.9091 6.64834 14 7 14H11.5C11.8228 14 12.1257 14.1558 12.3134 14.4183C12.501 14.6806 12.5505 15.0172 12.4466 15.3224C12.4466 15.3224 12.4466 15.3225 12.4466 15.3225C12.4466 15.3225 12.4466 15.3225 12.4465 15.3226L12.4465 15.3228L12.4464 15.3229C12.4464 15.323 12.4463 15.3232 12.4463 15.3233L12.4462 15.3236L12.4433 15.3322L12.4299 15.3734C12.4178 15.4111 12.3996 15.4688 12.3773 15.5436C12.3327 15.6934 12.2717 15.9102 12.209 16.1711C12.082 16.6999 11.9552 17.3789 11.9305 18.0375C11.9049 18.7216 11.9957 19.2463 12.1786 19.5668C12.2869 19.7564 12.4502 19.9283 12.8296 19.9824C12.8771 19.818 12.921 19.5943 12.9852 19.2664C12.998 19.2007 13.0117 19.1307 13.0265 19.0562C13.2266 18.0429 13.5628 16.523 14.7929 15.2929C14.9051 15.1807 15.0279 15.0623 15.1579 14.9368C16.2997 13.8355 18 12.1956 18 9.5C18 8.03662 17.3704 6.6506 16.399 5.62524C15.4217 4.59356 14.1707 4 13 4H8C7.64834 4 7.35386 4.09094 7.1797 4.20705ZM12.7584 20.1749C12.7584 20.1749 12.7587 20.1743 12.7593 20.1733L12.7584 20.1749ZM10.1965 16C10.0748 16.558 9.95856 17.2529 9.93195 17.9625C9.90136 18.7784 9.98244 19.7537 10.4417 20.5582C10.9528 21.4537 11.8535 22 13.1 22C13.4815 22 13.8395 21.8737 14.1298 21.6199C14.3934 21.3892 14.5434 21.1036 14.636 20.8738C14.7839 20.5066 14.8754 20.0309 14.9526 19.6294C14.9649 19.5654 14.9768 19.5033 14.9886 19.4438C15.1834 18.4571 15.4372 17.477 16.2071 16.7071C16.2953 16.6189 16.4025 16.5173 16.5241 16.402C17.6469 15.3375 20 13.1068 20 9.5C20 7.46338 19.1296 5.5994 17.851 4.24976C16.5783 2.90644 14.8293 2 13 2H8C7.35166 2 6.64614 2.15906 6.0703 2.54295C5.46482 2.9466 5 3.61209 5 4.5C5 4.96874 5.12954 5.37549 5.34094 5.71446C4.85131 6.12427 4.5 6.72808 4.5 7.5C4.5 7.96874 4.62954 8.37549 4.84094 8.71446C4.35131 9.12427 4 9.72808 4 10.5C4 11.1088 4.21853 11.613 4.55108 12C4.21853 12.387 4 12.8912 4 13.5C4 14.3879 4.46482 15.0534 5.0703 15.4571C5.64614 15.8409 6.35166 16 7 16H10.1965Z" fill="black"/>
</svg>
