<svg width="24" height="24" viewBox="0 0 24 24" fill="none" xmlns="http://www.w3.org/2000/svg">
<path fill-rule="evenodd" clip-rule="evenodd" d="M7.33869 3.99177C7.198 4.02148 7.12317 4.06055 7.08713 4.08489C7.05268 4.10817 7.03459 4.13023 7.01924 4.15986C6.97777 4.23996 6.92769 4.44337 6.98894 4.85167C6.99137 4.8679 6.9934 4.88418 6.99504 4.90051L7.99504 14.9005C8.0498 15.4481 7.65177 15.9371 7.10442 15.9945C6.55708 16.052 6.06617 15.6564 6.006 15.1093L5.67655 12.1143C5.67645 12.1134 5.67636 12.1126 5.67627 12.1118C5.66239 11.9911 5.64979 11.8799 5.63813 11.777C5.60029 11.4428 5.5724 11.1966 5.54303 11C5.52925 11 5.51492 11 5.5 11C5.38791 11 5.3034 11.0352 5.20705 11.1797C5.09094 11.3539 5 11.6483 5 12V16C5 17.033 5.70057 18.1402 7.0547 19.043C8.3875 19.9315 10.1939 20.5 12 20.5C15.6675 20.5 18 18.251 18 16V12C18 11.757 17.9994 11.5559 17.9955 11.388C17.9608 11.4615 17.9214 11.5464 17.878 11.6399C17.7722 11.8681 17.6422 12.1482 17.4965 12.4431C17.2518 12.9382 16.652 13.1412 16.1569 12.8965C15.6618 12.6518 15.4588 12.052 15.7035 11.5569C16.0765 10.8022 16.1068 10.2951 16.0509 10.0413C16.0112 9.86117 15.9436 9.80998 15.8206 9.78396C15.6455 9.75654 15.5843 9.79194 15.5624 9.80504C15.5196 9.83066 15.4311 9.9055 15.3225 10.1146C15.087 10.5682 14.9414 11.2709 14.7853 12.1709C14.691 12.7147 14.174 13.0792 13.6301 12.9855C13.0862 12.8917 12.7211 12.375 12.8144 11.831L12.8147 11.8291L14.0144 4.83105C14.0159 4.82197 14.0176 4.81292 14.0194 4.80389C14.0834 4.48382 14.0296 4.24704 13.9635 4.12739C13.9333 4.07272 13.9041 4.04705 13.8837 4.03389C13.8653 4.02205 13.8272 4.00274 13.7485 3.99868L13.7401 3.99825L13.7401 3.99821C13.6403 3.99223 13.5601 4.00741 13.4271 4.17858C13.2625 4.3905 13.1051 4.75047 12.9666 5.25634L11.1685 12.249C11.051 12.7059 10.6303 13.0185 10.1591 12.9992C9.68778 12.9799 9.29407 12.6339 9.21438 12.169L8.01526 5.17411C7.92229 4.66491 7.79741 4.32357 7.6593 4.13653C7.60041 4.05677 7.55556 4.02803 7.52783 4.01524C7.50515 4.00477 7.45123 3.98486 7.33869 3.99177ZM15.5381 7.7795C15.7426 7.76592 15.9528 7.77789 16.1665 7.81396C16.1746 7.81534 16.1828 7.81682 16.1909 7.81839C16.9311 7.96232 17.4949 8.40793 17.8043 9.0363C17.8134 9.03535 17.8226 9.03448 17.8318 9.03367C18.2368 8.99818 18.6289 9.11256 18.9524 9.23045C19.7169 9.50903 19.8858 10.2635 19.9395 10.6102C20.0002 11.0026 20.0001 11.4907 20 11.9433C20 11.9623 20 11.9812 20 12V16C20 19.749 16.3325 22.5 12 22.5C9.80613 22.5 7.6125 21.8185 5.9453 20.7071C4.29943 19.6098 3 17.9671 3 16V12C3 11.3517 3.15906 10.6461 3.54295 10.0703C3.93056 9.48889 4.55963 9.03716 5.39523 9.00219L5.00728 5.12269C4.92237 4.53658 4.92686 3.85112 5.24326 3.24015C5.59458 2.56173 6.23077 2.15984 7.02111 2.01614C7.04658 2.01151 7.07222 2.00787 7.09797 2.00523C8.05874 1.90669 8.79414 2.30649 9.2682 2.94849C9.68715 3.51586 9.87693 4.23297 9.98387 4.82112L9.98567 4.83104L9.98562 4.83105L10.3957 7.2234L11.0315 4.75097L11.0352 4.73689C11.1963 4.14633 11.4383 3.47857 11.8479 2.95144C12.2892 2.38349 12.9576 1.94915 13.8557 2.00156C14.7035 2.04667 15.3535 2.50763 15.714 3.16013C16.053 3.77353 16.1157 4.50557 15.9835 5.18143L15.5381 7.7795Z" fill="black"/>
</svg>
