<svg width="24" height="24" viewBox="0 0 24 24" fill="none" xmlns="http://www.w3.org/2000/svg">
<path fill-rule="evenodd" clip-rule="evenodd" d="M19.4423 2.60315C19.7838 2.77155 20 3.11926 20 3.50001V7.46482L20.8906 8.05856C22.2084 8.93711 23 10.4162 23 12C23 13.5838 22.2084 15.0629 20.8906 15.9415L20 16.5352V19.5C20 19.8774 19.7876 20.2226 19.4507 20.3927C19.1139 20.5627 18.7101 20.5287 18.4064 20.3048C18.4064 20.3048 18.4064 20.3048 18.4064 20.3048C18.4064 20.3048 18.4064 20.3047 18.4063 20.3047L18.4063 20.3047L18.4054 20.3041L18.4012 20.301L18.3831 20.2876L18.3098 20.2344C18.2453 20.1876 18.1506 20.1194 18.0313 20.0349C17.7926 19.8657 17.4571 19.6319 17.0712 19.3747C16.2873 18.8523 15.3391 18.2625 14.5765 17.9059C13.1878 17.2566 11.7408 16.7733 10.6322 16.4513C10.1547 16.3125 9.74373 16.2048 9.43209 16.1275C8.63487 17.4199 8.92926 19.1226 10.1451 20.0682C11.3765 21.026 10.6993 23 9.13919 23H6C5.59997 23 5.23843 22.7616 5.08085 22.3939L4.69925 21.5035C3.87957 19.5909 3.83735 17.4342 4.58156 15.491L4.62696 15.3725C2.51738 14.8594 1 12.9633 1 10.7539C1 8.12839 3.12838 6.00001 5.75387 6.00001H9C9.02628 6.00001 9.05256 6.00104 9.07876 6.00311C9.07893 6.00313 9.0791 6.00314 9.07927 6.00315C9.07943 6.00317 9.07959 6.00318 9.07974 6.00319C9.07975 6.00319 9.07975 6.00319 9.07976 6.00319L9.08164 6.00333L9.10038 6.00461C9.1185 6.00579 9.14773 6.00754 9.18726 6.00945C9.26636 6.01329 9.38647 6.01774 9.54125 6.01952C9.85127 6.02309 10.2977 6.01586 10.8305 5.97193C11.9038 5.8834 13.2878 5.64894 14.6043 5.08164C15.3591 4.75639 16.2945 4.1762 17.0738 3.64858C17.456 3.38981 17.7874 3.15279 18.023 2.98068C18.1406 2.89473 18.2339 2.82527 18.2972 2.77773L18.369 2.72362L18.3866 2.71022L18.3906 2.70716L18.3913 2.70662L18.3913 2.70658L18.3914 2.70655C18.6934 2.47485 19.1009 2.43476 19.4423 2.60315ZM8 8.00001H5.75387C4.23295 8.00001 3 9.23295 3 10.7539C3 12.1213 4.00336 13.2816 5.35646 13.4789L6.14107 13.5933L8 13.8515V8.00001ZM10 14.2079C10.3214 14.2886 10.7267 14.396 11.1901 14.5306C12.3557 14.8692 13.9087 15.3859 15.4235 16.0941C16.2629 16.4866 17.2274 17.082 18 17.5909V16V8.00001V5.43572C17.2289 5.9496 16.2582 6.54673 15.3957 6.91837C13.8127 7.6005 12.1967 7.86604 10.9949 7.96516C10.6233 7.9958 10.2876 8.01083 10 8.0169V14.2079ZM7.36806 15.7829L6.64962 15.6832L6.44927 16.2063C5.89112 17.6637 5.92278 19.2812 6.53754 20.7157L6.6594 21H8.22938C6.9697 19.5684 6.63958 17.5343 7.36806 15.7829ZM20 14.1152C20.6294 13.5985 21 12.8238 21 12C21 11.1762 20.6294 10.4015 20 9.88478V14.1152Z" fill="black"/>
</svg>
