<svg width="24" height="24" viewBox="0 0 24 24" fill="none" xmlns="http://www.w3.org/2000/svg">
<path fill-rule="evenodd" clip-rule="evenodd" d="M20.418 15.8623C21.4143 14.467 22 12.7978 22 11C22 5.92196 17.4089 2 12 2C6.59113 2 2 5.92196 2 11C2 16.078 6.59113 20 12 20C12.9429 20 13.8571 19.8825 14.7248 19.662C15.2672 20.1388 16.2751 20.9147 17.645 21.4349C18.7409 21.851 19.989 22.1505 21.17 21.9854C21.5117 21.9265 21.7984 21.6948 21.9278 21.3731C22.0594 21.0459 22.0006 20.6756 21.7951 20.3931C20.8428 19.0794 20.0274 17.5292 20.418 15.8623ZM12 4C7.46774 4 4 7.24148 4 11C4 14.7585 7.46774 18 12 18C13.1456 18 14.2224 17.7409 15.3053 17.4007C16.3407 18.5237 17.6029 19.3972 19.0826 19.8037C18.2811 18.2692 18.1274 16.6078 18.5981 14.96C19.4637 13.8027 20 12.46 20 11C20 7.24148 16.5323 4 12 4Z" fill="black"/>
</svg>
