<svg width="24" height="24" viewBox="0 0 24 24" fill="none" xmlns="http://www.w3.org/2000/svg">
<path fill-rule="evenodd" clip-rule="evenodd" d="M12 4C7.46774 4 4 7.24148 4 11C4 14.7585 7.46774 18 12 18C12.9501 18 13.8587 17.8551 14.7003 17.5908L15.3053 17.4007L15.733 17.8646L15.7333 17.8649L15.7334 17.8649L15.7373 17.8691C15.7423 17.8744 15.7515 17.884 15.7649 17.8975C15.7916 17.9246 15.8348 17.9672 15.8934 18.0221C16.0108 18.1321 16.1889 18.2899 16.4203 18.4686C16.8863 18.8284 17.5505 19.2596 18.355 19.5651C18.6151 19.6639 18.8582 19.742 19.0826 19.8037C18.8175 19.2961 18.5634 18.7166 18.4378 18.1647C18.255 17.361 18.2845 16.6064 18.3527 16.0672C18.3873 15.7943 18.4329 15.5674 18.471 15.405C18.49 15.3236 18.5074 15.2578 18.5208 15.2099C18.5274 15.1859 18.5332 15.1663 18.5376 15.1514L18.5433 15.1325L18.5454 15.1258L18.5462 15.1231L18.5466 15.122L18.5468 15.1214C18.5469 15.1212 18.547 15.1209 19.5 15.4237L18.547 15.1209L18.5981 14.96L18.6992 14.8248C19.5273 13.7177 20 12.4041 20 11C20 7.24148 16.5323 4 12 4ZM20.418 15.8623C21.4143 14.467 22 12.7978 22 11C22 5.92196 17.4089 2 12 2C6.59113 2 2 5.92196 2 11C2 16.078 6.59113 20 12 20C12.9429 20 13.8571 19.8825 14.7248 19.662C14.8562 19.7775 15.0145 19.9099 15.1978 20.0515C15.7712 20.4943 16.607 21.0407 17.645 21.4349C18.6621 21.8211 19.5079 21.9656 20.1189 22.0098C20.4239 22.0318 20.6692 22.0287 20.847 22.0187C20.9359 22.0136 21.0079 22.0068 21.062 22.0005C21.0891 21.9974 21.1117 21.9944 21.1297 21.9918L21.1533 21.9882L21.1625 21.9867L21.1665 21.986L21.1683 21.9857L21.1692 21.9856C21.1696 21.9855 21.17 21.9854 21 21L21.17 21.9854C21.5117 21.9265 21.7984 21.6948 21.9278 21.3731C22.0571 21.0515 22.0107 20.6858 21.805 20.4068L21.8049 20.4066L21.8035 20.4047L21.7951 20.3931C21.7872 20.3823 21.775 20.3653 21.7589 20.3426C21.7266 20.2972 21.679 20.2295 21.6205 20.1436C21.5031 19.9711 21.3437 19.7284 21.1761 19.4485C20.8251 18.8619 20.4996 18.2116 20.388 17.721C20.2732 17.2165 20.2872 16.7115 20.3369 16.3182C20.3613 16.1253 20.3932 15.9679 20.418 15.8623ZM20.4539 15.7239C20.4544 15.7222 20.4546 15.7215 20.4545 15.7219L20.454 15.7234L20.4539 15.7239Z" fill="black"/>
</svg>
