<svg width="24" height="24" viewBox="0 0 24 24" fill="none" xmlns="http://www.w3.org/2000/svg">
<path fill-rule="evenodd" clip-rule="evenodd" d="M12 2.5C12 3.32843 11.3284 4 10.5 4C9.67157 4 9 3.32843 9 2.5C9 1.67157 9.67157 1 10.5 1C11.3284 1 12 1.67157 12 2.5ZM12.5 8C12.5 8.69036 11.9404 9.25 11.25 9.25C10.5596 9.25 10 8.69036 10 8C10 7.30964 10.5596 6.75 11.25 6.75C11.9404 6.75 12.5 7.30964 12.5 8ZM14 6.25C14.6904 6.25 15.25 5.69036 15.25 5C15.25 4.30964 14.6904 3.75 14 3.75C13.3096 3.75 12.75 4.30964 12.75 5C12.75 5.69036 13.3096 6.25 14 6.25ZM14.25 16C14.25 16.6904 13.6904 17.25 13 17.25C12.3096 17.25 11.75 16.6904 11.75 16C11.75 15.3096 12.3096 14.75 13 14.75C13.6904 14.75 14.25 15.3096 14.25 16ZM7 4C6.44772 4 6 4.44772 6 5C6 5.55228 6.44772 6 7 6V17C7 18.2771 7.36899 19.7475 8.24434 20.925C9.14634 22.1384 10.5622 23 12.5 23C14.4378 23 15.8537 22.1384 16.7557 20.925C17.631 19.7475 18 18.2771 18 17V6C18.5523 6 19 5.55228 19 5C19 4.44772 18.5523 4 18 4H17C16.4477 4 16 4.4481 16 5.00038V11.4951C15.5545 11.7798 15.0357 12 14.5 12C14.0145 12 13.5205 11.8191 12.7945 11.5421C12.1797 11.3074 11.3739 11 10.5 11C9.94435 11 9.43418 11.1205 9 11.2806L9 5C9 4.45533 8.54467 4 8 4H7ZM14.5 14C15.0557 14 15.5658 13.8795 16 13.7194V17C16 17.932 15.7232 18.9616 15.1506 19.7318C14.6047 20.4662 13.7705 21 12.5 21C11.2295 21 10.3953 20.4662 9.84941 19.7318C9.27685 18.9616 9 17.932 9 17L9 13.5049C9.44553 13.2202 9.96432 13 10.5 13C10.9855 13 11.4795 13.1809 12.2055 13.4579C12.8203 13.6926 13.6261 14 14.5 14Z" fill="black"/>
</svg>
