<svg width="24" height="24" viewBox="0 0 24 24" fill="none" xmlns="http://www.w3.org/2000/svg">
<path fill-rule="evenodd" clip-rule="evenodd" d="M12 4.60762C10.7582 2.17506 7.11972 1.85345 5.57729 4.42159C4.85971 5.61636 4.91092 6.97014 5.48311 8.04437C4.07257 8.28933 3 9.51941 3 11V15V19C3 20.6569 4.34315 22 6 22H12H18C19.6569 22 21 20.6569 21 19V15V11C21 9.51941 19.9274 8.28933 18.5169 8.04437C19.0891 6.97014 19.1403 5.61636 18.4227 4.42159C16.8803 1.85345 13.2418 2.17506 12 4.60762ZM10.7817 7.99848L10.3788 5.98644C10.0776 4.4815 8.08206 4.1356 7.29182 5.45133C6.61989 6.5701 7.42466 7.99428 8.7297 7.99591L10.7817 7.99848ZM11 10H6C5.44772 10 5 10.4477 5 11V14H11V10ZM11 16H5V19C5 19.5523 5.44772 20 6 20H11V16ZM13 20V16H19V19C19 19.5523 18.5523 20 18 20H13ZM19 14H13V10H18C18.5523 10 19 10.4477 19 11V14ZM13.2183 7.99848L15.2703 7.99591C16.5753 7.99428 17.3801 6.5701 16.7082 5.45133C15.9179 4.1356 13.9224 4.4815 13.6212 5.98644L13.2183 7.99848Z" fill="black"/>
</svg>
