<svg width="24" height="24" viewBox="0 0 24 24" fill="none" xmlns="http://www.w3.org/2000/svg">
<path fill-rule="evenodd" clip-rule="evenodd" d="M4.06189 11H7.10002C7.4977 9.04087 9.04087 7.4977 11 7.10002V4.06189C7.38128 4.51314 4.51314 7.38128 4.06189 11ZM13 4.06189V7.10002C14.9591 7.4977 16.5023 9.04087 16.9 11H19.9381C19.4869 7.38128 16.6187 4.51314 13 4.06189ZM19.9381 13H16.9C16.5023 14.9591 14.9591 16.5023 13 16.9V19.9381C16.6187 19.4869 19.4869 16.6187 19.9381 13ZM11 19.9381V16.9C9.04087 16.5023 7.4977 14.9591 7.10002 13H4.06189C4.51314 16.6187 7.38128 19.4869 11 19.9381ZM2 12C2 6.47715 6.47715 2 12 2C17.5228 2 22 6.47715 22 12C22 17.5228 17.5228 22 12 22C6.47715 22 2 17.5228 2 12ZM12 9C10.3431 9 9 10.3431 9 12C9 13.6569 10.3431 15 12 15C13.6569 15 15 13.6569 15 12C15 10.3431 13.6569 9 12 9Z" fill="black"/>
</svg>
