<svg width="24" height="24" viewBox="0 0 24 24" fill="none" xmlns="http://www.w3.org/2000/svg">
<path fill-rule="evenodd" clip-rule="evenodd" d="M12.4472 1.10557C12.1657 0.964809 11.8343 0.964809 11.5528 1.10557L3.55279 5.10557C3.214 5.27496 3 5.62123 3 6V12C3 14.6622 3.86054 16.8913 5.40294 18.7161C6.92926 20.5218 9.08471 21.8878 11.6214 22.9255C11.864 23.0248 12.136 23.0248 12.3786 22.9255C14.9153 21.8878 17.0707 20.5218 18.5971 18.7161C20.1395 16.8913 21 14.6622 21 12V6C21 5.62123 20.786 5.27496 20.4472 5.10557L12.4472 1.10557ZM5 12V6.61803L12 3.11803L19 6.61803V12C19 14.1925 18.305 15.9635 17.0696 17.425C15.8861 18.8252 14.1721 19.9803 12 20.9156C9.82786 19.9803 8.11391 18.8252 6.93039 17.425C5.69502 15.9635 5 14.1925 5 12ZM16.7572 9.65323C17.1179 9.23507 17.0714 8.60361 16.6532 8.24284C16.2351 7.88207 15.6036 7.9286 15.2428 8.34677L10.7627 13.5396L8.70022 11.5168C8.30592 11.1301 7.67279 11.1362 7.28607 11.5305C6.89935 11.9248 6.90549 12.5579 7.29978 12.9446L10.1233 15.7139C10.3206 15.9074 10.5891 16.0106 10.8651 15.9991C11.1412 15.9876 11.4002 15.8624 11.5807 15.6532L16.7572 9.65323Z" fill="black"/>
</svg>
