<svg width="24" height="24" viewBox="0 0 24 24" fill="none" xmlns="http://www.w3.org/2000/svg">
<path fill-rule="evenodd" clip-rule="evenodd" d="M7 3C6.44772 3 6 3.44772 6 4C6 4.55228 6.44772 5 7 5H18C18.5523 5 19 5.44772 19 6V18C19 18.5523 18.5523 19 18 19H7C6.44772 19 6 19.4477 6 20C6 20.5523 6.44772 21 7 21H18C19.6569 21 21 19.6569 21 18V6C21 4.34315 19.6569 3 18 3H7ZM12.7071 7.29289C12.3166 6.90237 11.6834 6.90237 11.2929 7.29289C10.9024 7.68342 10.9024 8.31658 11.2929 8.70711L13.5858 11H4C3.44772 11 3 11.4477 3 12C3 12.5523 3.44772 13 4 13H13.5858L11.2929 15.2929C10.9024 15.6834 10.9024 16.3166 11.2929 16.7071C11.6834 17.0976 12.3166 17.0976 12.7071 16.7071L16.7071 12.7071C17.0976 12.3166 17.0976 11.6834 16.7071 11.2929L12.7071 7.29289Z" fill="black"/>
</svg>
