<svg width="24" height="24" viewBox="0 0 24 24" fill="none" xmlns="http://www.w3.org/2000/svg">
<path fill-rule="evenodd" clip-rule="evenodd" d="M5 3C5.55228 3 6 3.44772 6 4V7.05001C7.14112 7.28164 8 8.29052 8 9.5C8 10.7095 7.14112 11.7184 6 11.95V20C6 20.5523 5.55228 21 5 21C4.44772 21 4 20.5523 4 20V11.95C2.85888 11.7184 2 10.7095 2 9.5C2 8.29052 2.85888 7.28164 4 7.05001V4C4 3.44772 4.44772 3 5 3ZM4.5 9C4.22386 9 4 9.22386 4 9.5C4 9.77614 4.22386 10 4.5 10H5H5.5C5.77614 10 6 9.77614 6 9.5C6 9.22386 5.77614 9 5.5 9H5H4.5ZM19 3C19.5523 3 20 3.44772 20 4V7.05001C21.1411 7.28164 22 8.29052 22 9.5C22 10.7095 21.1411 11.7184 20 11.95V20C20 20.5523 19.5523 21 19 21C18.4477 21 18 20.5523 18 20V11.95C16.8589 11.7184 16 10.7095 16 9.5C16 8.29052 16.8589 7.28164 18 7.05001V4C18 3.44772 18.4477 3 19 3ZM18.5 9C18.2239 9 18 9.22386 18 9.5C18 9.77614 18.2239 10 18.5 10H19H19.5C19.7761 10 20 9.77614 20 9.5C20 9.22386 19.7761 9 19.5 9H19H18.5ZM13 4C13 3.44772 12.5523 3 12 3C11.4477 3 11 3.44772 11 4V12.05C9.85888 12.2816 9 13.2905 9 14.5C9 15.7095 9.85888 16.7184 11 16.95V20C11 20.5523 11.4477 21 12 21C12.5523 21 13 20.5523 13 20V16.95C14.1411 16.7184 15 15.7095 15 14.5C15 13.2905 14.1411 12.2816 13 12.05V4ZM11 14.5C11 14.2239 11.2239 14 11.5 14H12H12.5C12.7761 14 13 14.2239 13 14.5C13 14.7761 12.7761 15 12.5 15H12H11.5C11.2239 15 11 14.7761 11 14.5Z" fill="black"/>
</svg>
