<svg width="24" height="24" viewBox="0 0 24 24" fill="none" xmlns="http://www.w3.org/2000/svg">
<path fill-rule="evenodd" clip-rule="evenodd" d="M6 5C6.55228 5 7 5.44772 7 6V7.05001C8.14112 7.28164 9 8.29052 9 9.5C9 10.7095 8.14112 11.7184 7 11.95V19C7 19.5523 6.55228 20 6 20C5.44772 20 5 19.5523 5 19V11.95C3.85888 11.7184 3 10.7095 3 9.5C3 8.29052 3.85888 7.28164 5 7.05001V6C5 5.44772 5.44772 5 6 5ZM5.5 9C5.22386 9 5 9.22386 5 9.5C5 9.77614 5.22386 10 5.5 10H6H6.5C6.77614 10 7 9.77614 7 9.5C7 9.22386 6.77614 9 6.5 9H6H5.5ZM18 5C18.5523 5 19 5.44772 19 6V8.05001C20.1411 8.28164 21 9.29052 21 10.5C21 11.7095 20.1411 12.7184 19 12.95V19C19 19.5523 18.5523 20 18 20C17.4477 20 17 19.5523 17 19V12.95C15.8589 12.7184 15 11.7095 15 10.5C15 9.29052 15.8589 8.28164 17 8.05001V6C17 5.44772 17.4477 5 18 5ZM17.5 10C17.2239 10 17 10.2239 17 10.5C17 10.7761 17.2239 11 17.5 11H18H18.5C18.7761 11 19 10.7761 19 10.5C19 10.2239 18.7761 10 18.5 10H18H17.5ZM13 6C13 5.44772 12.5523 5 12 5C11.4477 5 11 5.44772 11 6V13.05C9.85888 13.2816 9 14.2905 9 15.5C9 16.7095 9.85888 17.7184 11 17.95V19C11 19.5523 11.4477 20 12 20C12.5523 20 13 19.5523 13 19V17.95C14.1411 17.7184 15 16.7095 15 15.5C15 14.2905 14.1411 13.2816 13 13.05V6ZM11 15.5C11 15.2239 11.2239 15 11.5 15H12H12.5C12.7761 15 13 15.2239 13 15.5C13 15.7761 12.7761 16 12.5 16H12H11.5C11.2239 16 11 15.7761 11 15.5Z" fill="black"/>
</svg>
