<svg width="24" height="24" viewBox="0 0 24 24" fill="none" xmlns="http://www.w3.org/2000/svg">
<g clip-path="url(#clip0)">
<path fill-rule="evenodd" clip-rule="evenodd" d="M12.5209 4.04568C10.8893 3.75797 9.33328 4.84748 9.04557 6.47916C8.82868 7.70923 9.39433 8.89857 10.3891 9.53218C10.8548 9.82879 10.992 10.4467 10.6956 10.9125L6.77379 17.0753C6.91827 17.3519 6.99997 17.6664 6.99997 18.0001C6.99997 19.1046 6.10454 20.0001 4.99997 20.0001C3.8954 20.0001 2.99997 19.1046 2.99997 18.0001C2.99997 16.8955 3.8954 16.0001 4.99997 16.0001C5.02888 16.0001 5.05764 16.0007 5.08625 16.0019L8.52602 10.5965C7.37371 9.48153 6.77615 7.83215 7.07595 6.13186C7.55547 3.41239 10.1488 1.59655 12.8682 2.07606C15.5877 2.55558 17.4035 5.14887 16.924 7.86834C16.8281 8.41224 16.3095 8.77541 15.7656 8.6795C15.2217 8.5836 14.8585 8.06494 14.9544 7.52105C15.2421 5.88937 14.1526 4.33339 12.5209 4.04568ZM9.99997 7.00008C9.99997 5.89551 10.8954 5.00008 12 5.00008C13.1045 5.00008 14 5.89551 14 7.00008C14 7.33372 13.9183 7.64827 13.7738 7.92484L17.2132 13.3296C18.8524 12.7041 20.7732 12.9609 22.2139 14.1699C24.3293 15.9449 24.6052 19.0987 22.8302 21.214C21.0552 23.3294 17.9014 23.6053 15.786 21.8303C15.363 21.4753 15.3078 20.8446 15.6628 20.4215C16.0178 19.9984 16.6485 19.9432 17.0716 20.2982C18.3408 21.3632 20.2331 21.1977 21.2981 19.9285C22.3631 18.6592 22.1976 16.767 20.9283 15.702C19.9016 14.8404 18.4647 14.7831 17.389 15.4681C17.1653 15.6105 16.8941 15.6583 16.6351 15.6007C16.3762 15.5432 16.1507 15.3852 16.0083 15.1614L12.0863 8.99825C12.0576 8.99946 12.0289 9.00008 12 9.00008C10.8954 9.00008 9.99997 8.10465 9.99997 7.00008ZM4.57163 13.8993C4.76052 14.4183 4.49294 14.9921 3.97396 15.181C2.41702 15.7477 1.61426 17.4692 2.18094 19.0261C2.74762 20.5831 4.46914 21.3858 6.02608 20.8192C7.24278 20.3763 8.00101 19.2269 8.00111 18C8.00115 17.4477 8.44885 17.0001 9.00111 17.0001H17.2675C17.6133 16.4023 18.2597 16.0001 19 16.0001C20.1045 16.0001 21 16.8955 21 18.0001C21 19.1046 20.1045 20.0001 19 20.0001C18.2597 20.0001 17.6133 19.5979 17.2675 19.0001H9.89946C9.5623 20.6444 8.40509 22.0816 6.71012 22.6985C4.11523 23.643 1.24602 22.3051 0.301555 19.7102C-0.642908 17.1153 0.695028 14.2461 3.28992 13.3016C3.8089 13.1127 4.38274 13.3803 4.57163 13.8993Z" fill="black"/>
</g>
<defs>
<clipPath id="clip0">
<rect width="24" height="24" fill="white"/>
</clipPath>
</defs>
</svg>
