<svg width="25" height="24" viewBox="0 0 25 24" fill="none" xmlns="http://www.w3.org/2000/svg">
<path fill-rule="evenodd" clip-rule="evenodd" d="M13.5209 4.04568C11.8893 3.75797 10.3333 4.84748 10.0456 6.47916C9.82868 7.70923 10.3943 8.89857 11.3891 9.53218C11.8548 9.82879 11.992 10.4467 11.6956 10.9125L7.77379 17.0753C7.91827 17.3519 7.99997 17.6664 7.99997 18.0001C7.99997 19.1046 7.10454 20.0001 5.99997 20.0001C4.8954 20.0001 3.99997 19.1046 3.99997 18.0001C3.99997 16.8955 4.8954 16.0001 5.99997 16.0001C6.02888 16.0001 6.05764 16.0007 6.08625 16.0019L9.52602 10.5965C8.37371 9.48153 7.77615 7.83215 8.07595 6.13186C8.55547 3.41239 11.1488 1.59655 13.8682 2.07606C16.5877 2.55558 18.4035 5.14887 17.924 7.86834C17.8281 8.41224 17.3095 8.77541 16.7656 8.6795C16.2217 8.5836 15.8585 8.06494 15.9544 7.52105C16.2421 5.88937 15.1526 4.33339 13.5209 4.04568ZM11 7.00008C11 5.89551 11.8954 5.00008 13 5.00008C14.1045 5.00008 15 5.89551 15 7.00008C15 7.33372 14.9183 7.64827 14.7738 7.92484L18.2132 13.3296C19.8524 12.7041 21.7732 12.9609 23.2139 14.1699C25.3293 15.9449 25.6052 19.0987 23.8302 21.214C22.0552 23.3294 18.9014 23.6053 16.786 21.8303C16.363 21.4753 16.3078 20.8446 16.6628 20.4215C17.0178 19.9984 17.6485 19.9432 18.0716 20.2982C19.3408 21.3632 21.2331 21.1977 22.2981 19.9285C23.3631 18.6592 23.1976 16.767 21.9283 15.702C20.9016 14.8404 19.4647 14.7831 18.389 15.4681C18.1653 15.6105 17.8941 15.6583 17.6351 15.6007C17.3762 15.5432 17.1507 15.3852 17.0083 15.1614L13.0863 8.99825C13.0576 8.99946 13.0289 9.00008 13 9.00008C11.8954 9.00008 11 8.10465 11 7.00008ZM5.57163 13.8993C5.76052 14.4183 5.49294 14.9921 4.97396 15.181C3.41702 15.7477 2.61426 17.4692 3.18094 19.0261C3.74762 20.5831 5.46914 21.3858 7.02608 20.8192C8.24278 20.3763 9.00101 19.2269 9.00111 18C9.00115 17.4477 9.44885 17.0001 10.0011 17.0001H18.2675C18.6133 16.4023 19.2597 16.0001 20 16.0001C21.1045 16.0001 22 16.8955 22 18.0001C22 19.1046 21.1045 20.0001 20 20.0001C19.2597 20.0001 18.6133 19.5979 18.2675 19.0001H10.8995C10.5623 20.6444 9.40509 22.0816 7.71012 22.6985C5.11523 23.643 2.24602 22.3051 1.30155 19.7102C0.357092 17.1153 1.69503 14.2461 4.28992 13.3016C4.8089 13.1127 5.38274 13.3803 5.57163 13.8993Z" fill="black"/>
</svg>
