<svg width="25" height="24" viewBox="0 0 25 24" fill="none" xmlns="http://www.w3.org/2000/svg">
<path fill-rule="evenodd" clip-rule="evenodd" d="M13.5209 3.04568C11.8893 2.75797 10.3333 3.84748 10.0456 5.47916C9.82868 6.70923 10.3943 7.89857 11.3891 8.53218C11.8548 8.82879 11.992 9.44669 11.6956 9.9125L7.77379 16.0753C7.91827 16.3519 7.99997 16.6664 7.99997 17.0001C7.99997 18.1046 7.10454 19.0001 5.99997 19.0001C4.8954 19.0001 3.99997 18.1046 3.99997 17.0001C3.99997 15.8955 4.8954 15.0001 5.99997 15.0001C6.02888 15.0001 6.05764 15.0007 6.08625 15.0019L9.52602 9.59655C8.37371 8.48153 7.77615 6.83215 8.07595 5.13186C8.55547 2.41239 11.1488 0.596549 13.8682 1.07606C16.5877 1.55558 18.4035 4.14887 17.924 6.86834C17.8281 7.41224 17.3095 7.77541 16.7656 7.6795C16.2217 7.5836 15.8585 7.06494 15.9544 6.52105C16.2421 4.88937 15.1526 3.33339 13.5209 3.04568ZM11 6.00008C11 4.89551 11.8954 4.00008 13 4.00008C14.1045 4.00008 15 4.89551 15 6.00008C15 6.33372 14.9183 6.64827 14.7738 6.92484L18.2132 12.3296C19.8524 11.7041 21.7732 11.9609 23.2139 13.1699C25.3293 14.9449 25.6052 18.0987 23.8302 20.214C22.0552 22.3294 18.9014 22.6053 16.786 20.8303C16.363 20.4753 16.3078 19.8446 16.6628 19.4215C17.0178 18.9984 17.6485 18.9432 18.0716 19.2982C19.3408 20.3632 21.2331 20.1977 22.2981 18.9285C23.3631 17.6592 23.1976 15.767 21.9283 14.702C20.9016 13.8404 19.4647 13.7831 18.389 14.4681C18.1653 14.6105 17.8941 14.6583 17.6351 14.6007C17.3762 14.5432 17.1507 14.3852 17.0083 14.1614L13.0863 7.99825C13.0576 7.99946 13.0289 8.00008 13 8.00008C11.8954 8.00008 11 7.10465 11 6.00008ZM5.57163 12.8993C5.76052 13.4183 5.49294 13.9921 4.97396 14.181C3.41702 14.7477 2.61426 16.4692 3.18094 18.0261C3.74762 19.5831 5.46914 20.3858 7.02608 19.8192C8.24278 19.3763 9.00101 18.2269 9.00111 17C9.00115 16.4477 9.44885 16.0001 10.0011 16.0001H18.2675C18.6133 15.4023 19.2597 15.0001 20 15.0001C21.1045 15.0001 22 15.8955 22 17.0001C22 18.1046 21.1045 19.0001 20 19.0001C19.2597 19.0001 18.6133 18.5979 18.2675 18.0001H10.8995C10.5623 19.6444 9.40509 21.0816 7.71012 21.6985C5.11523 22.643 2.24602 21.3051 1.30155 18.7102C0.357092 16.1153 1.69503 13.2461 4.28992 12.3016C4.8089 12.1127 5.38274 12.3803 5.57163 12.8993Z" fill="black"/>
</svg>
