<svg width="24" height="24" fill="none" xmlns="http://www.w3.org/2000/svg"><path fill-rule="evenodd" clip-rule="evenodd" d="M14 2a1 1 0 10-2 0v6.586L9.707 6.293a1 1 0 00-1.414 1.414l4 4a1 1 0 001.414 0l4-4a1 1 0 00-1.414-1.414L14 8.586V2zM1 3a1 1 0 011-1h.472a3 3 0 012.895 2.21l.416 1.527L7.763 13h10.473l1.98-7.263a1 1 0 111.929.526l-1.98 7.263A2 2 0 0118.237 15H8v1a1 1 0 001 1h9a1 1 0 01.822 1.57 2.5 2.5 0 11-4.771.43h-3.101a2.5 2.5 0 11-4.32-1.16A2.987 2.987 0 016 16v-1.866l-2.147-7.87-.416-1.527A1 1 0 002.472 4H2a1 1 0 01-1-1zm15 16.5a.5.5 0 111 0 .5.5 0 01-1 0zm-8 0a.5.5 0 111 0 .5.5 0 01-1 0z" fill="#000"/></svg>