<svg width="24" height="24" fill="none" xmlns="http://www.w3.org/2000/svg"><path fill-rule="evenodd" clip-rule="evenodd" d="M12 4a3.556 3.556 0 0 0-3.389 2.48L7.811 9h8.378l-.8-2.52A3.556 3.556 0 0 0 12 4zm6.287 5l-.992-3.125a5.555 5.555 0 0 0-10.59 0L5.713 9H3.348a2 2 0 0 0-1.914 2.58l1.124 3.71 1.388 4.58A3 3 0 0 0 6.817 22h10.366a3 3 0 0 0 2.87-2.13l1.389-4.58 1.124-3.71A2 2 0 0 0 20.652 9h-2.365zM6.444 11H3.348l.909 3h3.78l-.41-3H6.444zm3.202 0l.409 3h3.89l.41-3h-4.71zm6.727 0l-.41 3h3.78l.909-3h-4.279zm2.764 5H15.69l-.545 4h2.037a1 1 0 0 0 .957-.71l.997-3.29zm-6.01 4l.545-4h-3.345l.546 4h2.254zm-4.273 0l-.545-4H4.863l.997 3.29a1 1 0 0 0 .957.71h2.037z" fill="#000"/></svg>