<svg width="24" height="24" fill="none" xmlns="http://www.w3.org/2000/svg"><path fill-rule="evenodd" clip-rule="evenodd" d="M2 2a1 1 0 000 2h.472a1 1 0 01.965.737l.416 1.526L6 14.133V16c0 .694.235 1.332.63 1.84A2.5 2.5 0 1010.95 19h3.1a2.5 2.5 0 104.771-.43A1 1 0 0018 17H9.001a1 1 0 01-1-1v-1h10.236a2 2 0 001.93-1.474l1.635-6A2 2 0 0019.87 5H5.582l-.215-.79A3 3 0 002.472 2H2zm14.5 17a.5.5 0 100 1 .5.5 0 000-1zm1.736-6H7.764L6.127 7h13.744l-1.635 6zM8.5 19a.5.5 0 100 1 .5.5 0 000-1z" fill="#000"/></svg>