<svg width="24" height="24" fill="none" xmlns="http://www.w3.org/2000/svg"><path fill-rule="evenodd" clip-rule="evenodd" d="M3 7.5A2.5 2.5 0 015.5 5h6A2.5 2.5 0 0114 7.5v1c0 .313-.057.612-.162.888.243.154.457.349.634.575.209-.332.5-.62.863-.829l.866-.5a2.5 2.5 0 013.415.915l3 5.196a2.5 2.5 0 01-.915 3.415l-.866.5a2.5 2.5 0 01-3.415-.915l-2.557-4.428A2.497 2.497 0 0114.5 14c.314.418.5.937.5 1.5v1a2.5 2.5 0 01-2.5 2.5h-6A2.5 2.5 0 014 16.5v-1c0-.563.186-1.082.5-1.5a2.489 2.489 0 01-.5-1.5v-1c0-.313.057-.612.162-.888A2.498 2.498 0 013 8.5v-1zm9 1a.5.5 0 01-.5.5h-6a.5.5 0 01-.5-.5v-1a.5.5 0 01.5-.5h6a.5.5 0 01.5.5v1zm-6 3a.5.5 0 01.5-.5h6a.5.5 0 01.5.5v1a.5.5 0 01-.5.5h-6a.5.5 0 01-.5-.5v-1zm.5 3.5a.5.5 0 00-.5.5v1a.5.5 0 00.5.5h6a.5.5 0 00.5-.5v-1a.5.5 0 00-.5-.5h-6zm10.701-4.634a.5.5 0 01.683.183l3 5.196a.5.5 0 01-.183.683l-.866.5a.5.5 0 01-.683-.183l-3-5.196a.5.5 0 01.183-.683l.866-.5z" fill="#000"/></svg>