<svg width="24" height="24" fill="none" xmlns="http://www.w3.org/2000/svg"><path fill-rule="evenodd" clip-rule="evenodd" d="M11.553 1.106a1 1 0 01.894 0l10 5A1 1 0 0122 8H2a1 1 0 01-.447-1.894l10-5zM6.236 6h11.528L12 3.118 6.236 6zM6 9a1 1 0 011 1v5a1 1 0 11-2 0v-5a1 1 0 011-1zm4 0a1 1 0 011 1v5a1 1 0 11-2 0v-5a1 1 0 011-1zm4 0a1 1 0 011 1v5a1 1 0 11-2 0v-5a1 1 0 011-1zm4 0a1 1 0 011 1v5a1 1 0 11-2 0v-5a1 1 0 011-1zM3 18a1 1 0 011-1h16a1 1 0 110 2H4a1 1 0 01-1-1zm-2 3a1 1 0 011-1h20a1 1 0 110 2H2a1 1 0 01-1-1z" fill="#000"/></svg>