<svg width="24" height="24" fill="none" xmlns="http://www.w3.org/2000/svg"><path fill-rule="evenodd" clip-rule="evenodd" d="M3.663 9.04a6.49 6.49 0 01.261-.13c.454-.216 1.007-.41 1.576-.41 1.448 0 2.455.905 3.03 1.625.029.035.056.07.082.104.058-.061.118-.124.18-.186.68-.68 1.8-1.543 3.208-1.543 1.407 0 2.527.863 3.207 1.543.063.062.123.125.18.187l.082-.105c.576-.72 1.583-1.625 3.031-1.625.57 0 1.122.194 1.576.41.087.04.175.085.26.13-.476-.91-1.196-1.8-2.112-2.584C16.497 4.976 14.221 4 12 4s-4.497.976-6.224 2.456C4.86 7.24 4.14 8.13 3.663 9.04zm16.843 2.5a10.466 10.466 0 00-.306-.227 6.63 6.63 0 00-.982-.597c-.337-.16-.577-.216-.718-.216-.552 0-1.045.345-1.47.875a4.637 4.637 0 00-.599.99l-.003.007-1.876 4.824 5.954-5.656zM12 18.241l2.376-6.11a6.476 6.476 0 00-.583-.674c-.57-.57-1.2-.957-1.793-.957s-1.223.387-1.793.957a6.473 6.473 0 00-.583.674L12 18.241zm-4.428-5.87l-.003-.007a4.235 4.235 0 00-.138-.284 4.648 4.648 0 00-.462-.705c-.424-.53-.917-.875-1.469-.875-.141 0-.381.056-.718.216a6.63 6.63 0 00-.982.597 10.46 10.46 0 00-.306.227l5.954 5.656-1.876-4.824zm8.855.004zM4.474 4.937C6.497 3.203 9.221 2 12 2s5.503 1.203 7.526 2.937C21.535 6.66 23 9.038 23 11.5a1 1 0 01-.311.725l-10 9.5a1 1 0 01-1.378 0l-10-9.5A1 1 0 011 11.5c0-2.462 1.465-4.84 3.474-6.563z" fill="#000"/></svg>