<svg width="24" height="24" fill="none" xmlns="http://www.w3.org/2000/svg"><g clip-path="url(#clip0)"><path fill-rule="evenodd" clip-rule="evenodd" d="M14.293 1.293a1 1 0 0 1 1.414 0l8 8a1 1 0 0 1 0 1.414L18 16.414V19a3 3 0 0 1-3 3H5a5 5 0 0 1-5-5V8a4 4 0 0 1 4-4h7.586l2.707-2.707zM9.586 6H4a2 2 0 0 0-2 2v9a3 3 0 0 0 3 3h10a1 1 0 0 0 1-1v-8a1 1 0 0 0-1-1H5a2 2 0 0 1-2-2v-.5a1 1 0 0 1 2 0V8h2.586l2-2zm.828 2H15a3 3 0 0 1 3 3v2.586L21.586 10 15 3.414l-2.293 2.293L10.414 8z" fill="#000"/></g><defs><clipPath id="clip0"><path fill="#fff" d="M0 0h24v24H0z"/></clipPath></defs></svg>