<svg width="24" height="24" viewBox="0 0 24 24" fill="none" xmlns="http://www.w3.org/2000/svg">
<path fill-rule="evenodd" clip-rule="evenodd" d="M3 4C3 3.44772 2.55228 3 2 3C1.44772 3 1 3.44772 1 4V14V17V20C1 20.5523 1.44772 21 2 21C2.55228 21 3 20.5523 3 20V18H21V20C21 20.5523 21.4477 21 22 21C22.5523 21 23 20.5523 23 20V17V14V11C23 8.23858 20.7614 6 18 6H12C11.4477 6 11 6.44772 11 7V9.5C11 7.567 9.433 6 7.5 6C5.567 6 4 7.567 4 9.5C4 11.433 5.567 13 7.5 13H3V4ZM7.5 13C9.433 13 11 11.433 11 9.5V13H7.5ZM21 15V16H3V15H12H21ZM21 11V13H13V8H18C19.6569 8 21 9.34315 21 11ZM6 9.5C6 8.67157 6.67157 8 7.5 8C8.32843 8 9 8.67157 9 9.5C9 10.3284 8.32843 11 7.5 11C6.67157 11 6 10.3284 6 9.5Z" fill="black"/>
</svg>
