<svg width="24" height="24" viewBox="0 0 24 24" fill="none" xmlns="http://www.w3.org/2000/svg">
<path fill-rule="evenodd" clip-rule="evenodd" d="M3 7.29412V8V11C3 10.4477 2.55228 10 2 10C1.44772 10 1 10.4477 1 11V13C1 13.5523 1.44772 14 2 14C2.55228 14 3 13.5523 3 13V14V16V17.8824C3 18.7868 3.37964 19.6274 4 20.2073V22C4 22.5523 4.44772 23 5 23H6C6.55228 23 7 22.5523 7 22V21H17V22C17 22.5523 17.4477 23 18 23H19C19.5523 23 20 22.5523 20 22V20.2073C20.6204 19.6274 21 18.7868 21 17.8824V16V14V13C21 13.5523 21.4477 14 22 14C22.5523 14 23 13.5523 23 13V11C23 10.4477 22.5523 10 22 10C21.4477 10 21 10.4477 21 11V8V7.29412C21 5.99868 20.7518 4.90271 20.2417 4.00093C19.727 3.091 18.9841 2.44733 18.1114 2.00201C16.4263 1.14214 14.2016 1 12 1C9.79836 1 7.57368 1.14214 5.88861 2.00201C5.01594 2.44733 4.27305 3.091 3.7583 4.00093C3.24816 4.90271 3 5.99868 3 7.29412ZM18 19C18.4992 19 19 18.5542 19 17.8824V16V14C19 13.4477 18.5523 13 18 13H6C5.44772 13 5 13.4477 5 14V16V17.8824C5 18.5542 5.5008 19 6 19H18ZM18 7C18.5523 7 19 7.44772 19 8V11.1707C18.6872 11.0602 18.3506 11 18 11H6C5.64936 11 5.31278 11.0602 5 11.1707V8C5 7.44772 5.44772 7 6 7H18ZM18.5009 4.98568C18.5124 5.006 18.5238 5.02663 18.535 5.04757C18.3614 5.01632 18.1826 5 18 5H6C5.8174 5 5.63862 5.01631 5.46502 5.04756C5.47622 5.02663 5.48757 5.006 5.49906 4.98568C5.79396 4.46439 6.22263 4.07691 6.79768 3.78347C8.00804 3.16583 9.78336 3 12 3C14.2166 3 15.992 3.16583 17.2023 3.78347C17.7774 4.07691 18.206 4.46439 18.5009 4.98568ZM6 15.5C6 14.6716 6.67157 14 7.5 14C8.32843 14 9 14.6716 9 15.5C9 16.3284 8.32843 17 7.5 17C6.67157 17 6 16.3284 6 15.5ZM16.5 14C15.6716 14 15 14.6716 15 15.5C15 16.3284 15.6716 17 16.5 17C17.3284 17 18 16.3284 18 15.5C18 14.6716 17.3284 14 16.5 14Z" fill="black"/>
</svg>
