<svg width="24" height="24" viewBox="0 0 24 24" fill="none" xmlns="http://www.w3.org/2000/svg">
<path fill-rule="evenodd" clip-rule="evenodd" d="M13 2C13 1.44772 12.5523 1 12 1C11.4477 1 11 1.44772 11 2V4.08296C8.16229 4.55904 6 7.027 6 10V10.2676C5.4022 10.6134 5 11.2597 5 12H4C2.34315 12 1 13.3431 1 15V19C1 20.1046 1.89543 21 3 21H6C6 21.5523 6.44771 22 7 22H17C17.5523 22 18 21.5523 18 21H21C22.1046 21 23 20.1046 23 19V15C23 13.3431 21.6569 12 20 12H19C19 11.2597 18.5978 10.6134 18 10.2676V10C18 7.027 15.8377 4.55904 13 4.08296V2ZM12 6C9.79086 6 8 7.79086 8 10H16C16 7.79086 14.2091 6 12 6ZM7 13V12H8H16H17V13H7ZM6 15C5.44772 15 5 14.5523 5 14H4C3.44772 14 3 14.4477 3 15V19H6V15ZM16 15V20H15V17.25C15 16.5596 14.5523 16 14 16C13.4477 16 13 16.5596 13 17.25V20H11V17.25C11 16.5596 10.5523 16 10 16C9.44772 16 9 16.5596 9 17.25V20H8V15H16ZM18 15V19H21V15C21 14.4477 20.5523 14 20 14H19C19 14.5523 18.5523 15 18 15Z" fill="black"/>
</svg>
