<svg width="24" height="24" viewBox="0 0 24 24" fill="none" xmlns="http://www.w3.org/2000/svg">
<path fill-rule="evenodd" clip-rule="evenodd" d="M10.3541 7C9.59656 7 8.90403 7.428 8.56525 8.10557L7.67082 9.89443C7.33204 10.572 6.63951 11 5.88197 11H5C3.89543 11 3 11.8954 3 13V15H6.5H13H17.5H21V13C21 11.8954 20.1046 11 19 11H17H14C13.4477 11 13 10.5523 13 10C13 9.44772 13.4477 9 14 9H15.382L14.9348 8.10557C14.596 7.428 13.9034 7 13.1459 7H10.3541ZM19.95 17H21C22.1046 17 23 16.1046 23 15V13C23 10.7909 21.2091 9 19 9H17.618L16.7236 7.21115C16.046 5.85601 14.661 5 13.1459 5H10.3541C8.83901 5 7.45396 5.85601 6.77639 7.21115L5.88197 9H5C2.79086 9 1 10.7909 1 13V15C1 16.1046 1.89543 17 3 17H4.05001C4.01722 17.1616 4 17.3288 4 17.5C4 18.8807 5.11929 20 6.5 20C7.88071 20 9 18.8807 9 17.5C9 17.3288 8.98278 17.1616 8.94999 17H13H15.05C15.0172 17.1616 15 17.3288 15 17.5C15 18.8807 16.1193 20 17.5 20C18.8807 20 20 18.8807 20 17.5C20 17.3288 19.9828 17.1616 19.95 17ZM17.5 17C17.2239 17 17 17.2239 17 17.5C17 17.7761 17.2239 18 17.5 18C17.7761 18 18 17.7761 18 17.5C18 17.2239 17.7761 17 17.5 17ZM6 17.5C6 17.2239 6.22386 17 6.5 17C6.77614 17 7 17.2239 7 17.5C7 17.7761 6.77614 18 6.5 18C6.22386 18 6 17.7761 6 17.5Z" fill="black"/>
</svg>
