<svg width="24" height="24" viewBox="0 0 24 24" fill="none" xmlns="http://www.w3.org/2000/svg">
<path fill-rule="evenodd" clip-rule="evenodd" d="M6.77988 6.77277C6.88549 6.32018 7.28898 6 7.75372 6H16.2463C16.711 6 17.1145 6.32018 17.2201 6.77277L17.7398 9H17H7H6.26019L6.77988 6.77277ZM2 11H2.99963C2.37194 11.8357 2 12.8744 2 14V15C2 16.3062 2.83481 17.4175 4 17.8293V20C4 20.5523 4.44772 21 5 21H6C6.55228 21 7 20.5523 7 20V18H17V20C17 20.5523 17.4477 21 18 21H19C19.5523 21 20 20.5523 20 20V17.8293C21.1652 17.4175 22 16.3062 22 15V14C22 12.8744 21.6281 11.8357 21.0004 11H22C22.5523 11 23 10.5523 23 10C23 9.44772 22.5523 9 22 9H21C20.48 9 20.0527 9.39689 20.0045 9.90427L19.9738 9.77277L19.1678 6.31831C18.851 4.96054 17.6405 4 16.2463 4H7.75372C6.35949 4 5.14901 4.96054 4.8322 6.31831L4.02616 9.77277L3.99548 9.90426C3.94729 9.39689 3.51999 9 3 9H2C1.44772 9 1 9.44772 1 10C1 10.5523 1.44772 11 2 11ZM7 11C5.34315 11 4 12.3431 4 14V15C4 15.5523 4.44772 16 5 16H6H18H19C19.5523 16 20 15.5523 20 15V14C20 12.3431 18.6569 11 17 11H7ZM6 13.5C6 12.6716 6.67157 12 7.5 12C8.32843 12 9 12.6716 9 13.5C9 14.3284 8.32843 15 7.5 15C6.67157 15 6 14.3284 6 13.5ZM16.5 12C15.6716 12 15 12.6716 15 13.5C15 14.3284 15.6716 15 16.5 15C17.3284 15 18 14.3284 18 13.5C18 12.6716 17.3284 12 16.5 12Z" fill="black"/>
</svg>
