<svg width="24" height="24" viewBox="0 0 24 24" fill="none" xmlns="http://www.w3.org/2000/svg">
<path fill-rule="evenodd" clip-rule="evenodd" d="M13 3C13 2.44772 12.5523 2 12 2C11.4477 2 11 2.44772 11 3V4H10C9.44771 4 9 4.44772 9 5C9 5.55228 9.44771 6 10 6H11V6.92806L2.99298 11.6381C2.51695 11.9181 2.35805 12.531 2.63807 13.007C2.91671 13.4807 3.52498 13.6404 4 13.366V20C4 21.1046 4.89543 22 6 22H18C19.1046 22 20 21.1046 20 20V13.366C20.475 13.6404 21.0833 13.4807 21.3619 13.007C21.642 12.531 21.4831 11.9181 21.007 11.6381L13 6.92805V6H14C14.5523 6 15 5.55228 15 5C15 4.44772 14.5523 4 14 4H13V3ZM6 20V12.1896L12 8.66018L18 12.1896V20H6Z" fill="black"/>
<path d="M10 21V17C10 15.8954 10.8954 15 12 15C13.1046 15 14 15.8954 14 17V21H10Z" stroke="black" stroke-width="2"/>
</svg>
