<svg width="24" height="24" viewBox="0 0 24 24" fill="none" xmlns="http://www.w3.org/2000/svg">
<path fill-rule="evenodd" clip-rule="evenodd" d="M12 2C12.5523 2 13 2.44772 13 3V4H14C14.5523 4 15 4.44772 15 5C15 5.55228 14.5523 6 14 6H13V6.92805L21.007 11.6381C21.4831 11.9181 21.642 12.531 21.3619 13.007C21.0833 13.4807 20.475 13.6404 20 13.366V20C20 21.1046 19.1046 22 18 22H15H14H10H9H6C4.89543 22 4 21.1046 4 20V13.366C3.52498 13.6404 2.91671 13.4807 2.63807 13.007C2.35805 12.531 2.51695 11.9181 2.99298 11.6381L11 6.92806V6H10C9.44771 6 9 5.55228 9 5C9 4.44772 9.44771 4 10 4H11V3C11 2.44772 11.4477 2 12 2ZM11 20H13V17C13 16.4477 12.5523 16 12 16C11.4477 16 11 16.4477 11 17V20ZM15 20V17C15 15.3431 13.6569 14 12 14C10.3431 14 9 15.3431 9 17V20H6V12.1896L12 8.66018L18 12.1896V20H15Z" fill="black"/>
</svg>
