<svg width="24" height="24" viewBox="0 0 24 24" fill="none" xmlns="http://www.w3.org/2000/svg">
<path fill-rule="evenodd" clip-rule="evenodd" d="M10.5858 3.8284C11.3668 3.04735 12.6332 3.04735 13.4142 3.8284L20.1716 10.5858C20.9526 11.3668 20.9526 12.6331 20.1716 13.4142L13.4142 20.1715C12.6332 20.9526 11.3668 20.9526 10.5858 20.1715L3.82843 13.4142C3.04738 12.6331 3.04738 11.3668 3.82843 10.5858L10.5858 3.8284ZM14.8284 2.41419C13.2663 0.852092 10.7337 0.852088 9.17158 2.41419L2.41422 9.17154C0.852123 10.7336 0.852119 13.2663 2.41422 14.8284L9.17157 21.5858C10.7337 23.1479 13.2663 23.1479 14.8284 21.5858L21.5858 14.8284C23.1479 13.2663 23.1479 10.7336 21.5858 9.17155L14.8284 2.41419ZM14.7071 7.29289C14.3166 6.90237 13.6834 6.90237 13.2929 7.29289C12.9024 7.68342 12.9024 8.31658 13.2929 8.70711L14.5858 10H12.9C10.1938 10 8 12.1938 8 14.9V15C8 15.5523 8.44772 16 9 16C9.55229 16 10 15.5523 10 15V14.9C10 13.2984 11.2984 12 12.9 12H14.5858L13.2929 13.2929C12.9024 13.6834 12.9024 14.3166 13.2929 14.7071C13.6834 15.0976 14.3166 15.0976 14.7071 14.7071L17.7071 11.7071C18.0976 11.3166 18.0976 10.6834 17.7071 10.2929L14.7071 7.29289Z" fill="black"/>
</svg>
