<svg width="24" height="24" viewBox="0 0 24 24" fill="none" xmlns="http://www.w3.org/2000/svg">
<path fill-rule="evenodd" clip-rule="evenodd" d="M5 2C3.34315 2 2 3.34315 2 5V11V20C1.44772 20 1 20.4477 1 21C1 21.5523 1.44772 22 2 22H3H14H15C15.5523 22 16 21.5523 16 21C16 20.4477 15.5523 20 15 20V12C15.5523 12 16 12.4477 16 13V17.5C16 18.8807 17.1193 20 18.5 20C19.8807 20 21 18.8807 21 17.5V14H21.5C22.8807 14 24 12.8807 24 11.5C24 10.1193 22.8807 9 21.5 9H21V8C21 7.77293 20.9227 7.55262 20.7809 7.37531L18.7809 4.8753C18.4359 4.44404 17.8066 4.37412 17.3753 4.71913C16.944 5.06414 16.8741 5.69343 17.2191 6.12469L19 8.35078V10V13V17.5C19 17.7761 18.7761 18 18.5 18C18.2239 18 18 17.7761 18 17.5V13C18 11.3431 16.6569 10 15 10V5C15 3.34315 13.6569 2 12 2H5ZM13 12.653V20H4V12.653C5.39151 13.2257 6.96044 13.5 8.5 13.5C10.0396 13.5 11.6085 13.2257 13 12.653ZM8.5 11.5C6.85166 11.5 5.24864 11.1308 4 10.4387V5C4 4.44772 4.44772 4 5 4H12C12.5523 4 13 4.44772 13 5V10.4387C11.7514 11.1308 10.1483 11.5 8.5 11.5ZM21.5 12H21V11H21.5C21.7761 11 22 11.2239 22 11.5C22 11.7761 21.7761 12 21.5 12Z" fill="black"/>
</svg>
