<svg width="24" height="24" viewBox="0 0 24 24" fill="none" xmlns="http://www.w3.org/2000/svg">
<path fill-rule="evenodd" clip-rule="evenodd" d="M2.77025 2.02676C3.22042 1.92049 3.68455 2.13682 3.89277 2.54949L3.89278 2.54952L3.89302 2.54997L3.89993 2.56311C3.90732 2.57696 3.9202 2.60065 3.93856 2.63277C3.97535 2.69716 4.03366 2.7946 4.1133 2.91406C4.2737 3.15465 4.51432 3.47511 4.83211 3.7929C5.47311 4.4339 6.35876 5.00001 7.5 5.00001C8.64124 5.00001 9.52689 4.4339 10.1679 3.7929C10.4857 3.47511 10.7263 3.15465 10.8867 2.91406C10.9663 2.7946 11.0247 2.69716 11.0614 2.63277C11.0798 2.60065 11.0927 2.57696 11.1001 2.56311L11.1068 2.55041H11.1068C11.1068 2.55043 11.1067 2.55046 11.1067 2.55048L11.1068 2.55041L12.8933 2.55063H12.8934L12.8999 2.56311C12.9073 2.57696 12.9202 2.60065 12.9386 2.63277C12.9753 2.69716 13.0337 2.7946 13.1133 2.91406C13.2737 3.15465 13.5143 3.47511 13.8321 3.7929C14.4731 4.4339 15.3588 5.00001 16.5 5.00001C17.6412 5.00001 18.5269 4.4339 19.1679 3.7929C19.4857 3.47511 19.7263 3.15465 19.8867 2.91406C19.9663 2.7946 20.0247 2.69716 20.0614 2.63277C20.0798 2.60065 20.0927 2.57696 20.1001 2.56311L20.1062 2.55153L12.8934 2.55063L12.893 2.54997L12.8929 2.54976L20.107 2.54997L20.1073 2.54941C20.1075 2.54901 20.1075 2.54897 20.1073 2.54932M20.1073 2.54941C20.3155 2.1368 20.7796 1.92049 21.2298 2.02676C21.6811 2.13331 22 2.53623 22 3.00001V12V13C22 14.6717 21.5798 16.1263 20.7615 17.3165C19.9444 18.5051 18.7732 19.3678 17.3714 19.9285C16.1342 20.4233 15.0603 20.903 14.2461 21.3682C13.3803 21.863 12.9989 22.2383 12.8944 22.4472C12.725 22.786 12.3788 23 12 23C11.6212 23 11.275 22.786 11.1056 22.4472C11.0011 22.2383 10.6197 21.863 9.75386 21.3682C8.93972 20.903 7.86576 20.4233 6.62861 19.9285C5.22678 19.3678 4.05558 18.5051 3.23846 17.3165C2.42016 16.1263 2 14.6717 2 13V12V3.00001C2 2.53623 2.31888 2.13331 2.77025 2.02676M4 13C4 14.3283 4.32984 15.3737 4.88654 16.1835C5.44442 16.9949 6.27322 17.6323 7.37139 18.0715C8.63424 18.5767 9.81028 19.097 10.7461 19.6318C11.1868 19.8836 11.6237 20.1651 12 20.4821C12.3763 20.1651 12.8132 19.8836 13.2539 19.6318C14.1897 19.097 15.3658 18.5767 16.6286 18.0715C17.7268 17.6323 18.5556 16.9949 19.1135 16.1835C19.6702 15.3737 20 14.3283 20 13H4ZM20 11H4V5.72835C4.84806 6.4052 6.01659 7.00001 7.5 7.00001C9.35876 7.00001 10.7231 6.06611 11.5821 5.20711C11.7352 5.05402 11.8745 4.90126 12 4.75349C12.1255 4.90126 12.2648 5.05402 12.4179 5.20711C13.2769 6.06611 14.6412 7.00001 16.5 7.00001C17.9834 7.00001 19.1519 6.4052 20 5.72835V11ZM12.8929 2.54976L11.1071 2.5497C11.2771 2.21271 11.6224 2.00001 12 2.00001C12.3775 2.00001 12.7228 2.21262 12.8928 2.54949L12.8929 2.54976ZM11.1071 2.5497L3.89278 2.54952L11.1068 2.55041L11.107 2.54997L11.1068 2.55041C11.1069 2.55018 11.107 2.54994 11.1071 2.5497ZM11.1067 2.55048C11.1065 2.55103 11.1062 2.55158 11.1059 2.55213L11.1062 2.55153L11.1067 2.55053L11.1067 2.55048Z" fill="black"/>
</svg>
