<svg width="24" height="24" viewBox="0 0 24 24" fill="none" xmlns="http://www.w3.org/2000/svg">
<path fill-rule="evenodd" clip-rule="evenodd" d="M2.61732 2.07613C2.99017 1.92168 3.41923 2.00653 3.70523 2.29103L3.70583 2.29162L3.7156 2.30108C3.72574 2.31082 3.74303 2.3272 3.76709 2.34929C3.81528 2.39353 3.89026 2.46029 3.98913 2.54211C4.18772 2.70646 4.47789 2.92761 4.8366 3.14835C5.5682 3.59857 6.50815 4.00001 7.5 4.00001C8.49185 4.00001 9.4318 3.59857 10.1634 3.14835C10.5221 2.92761 10.8123 2.70646 11.0109 2.54211C11.1097 2.46029 11.1847 2.39353 11.2329 2.34929C11.257 2.3272 11.2743 2.31082 11.2844 2.30108L11.2942 2.29162L11.2937 2.29213L11.2933 2.29249C11.6832 1.90302 12.3146 1.90251 12.7052 2.29097L12.7058 2.29162L12.7156 2.30108C12.7257 2.31082 12.743 2.3272 12.7671 2.34929C12.8153 2.39353 12.8903 2.46029 12.9891 2.54211C13.1877 2.70646 13.4779 2.92761 13.8366 3.14835C14.5682 3.59857 15.5082 4.00001 16.5 4.00001C17.4918 4.00001 18.4318 3.59857 19.1634 3.14835C19.5221 2.92761 19.8123 2.70646 20.0109 2.54211C20.1097 2.46029 20.1847 2.39353 20.2329 2.34929C20.257 2.3272 20.2743 2.31082 20.2844 2.30108L20.2933 2.29249C20.5793 2.00682 21.0092 1.92142 21.3827 2.07613C21.7564 2.23091 22 2.59554 22 3.00001V12V13C22 14.7816 21.6631 16.1686 21.0222 17.2783C20.3796 18.3908 19.4817 19.137 18.5135 19.7164C17.7578 20.1687 16.908 20.5461 16.0929 20.9081L16.0929 20.9081C15.8947 20.9961 15.6985 21.0833 15.5063 21.1703C14.4909 21.6301 13.5098 22.1177 12.6 22.8C12.2444 23.0667 11.7556 23.0667 11.4 22.8C10.4902 22.1177 9.50908 21.6301 8.49372 21.1703C8.30145 21.0833 8.10529 20.9961 7.90707 20.9081C7.09197 20.5461 6.24222 20.1687 5.48651 19.7164C4.51828 19.137 3.6204 18.3908 2.97781 17.2783C2.33688 16.1686 2 14.7816 2 13V12V3.00001C2 2.59554 2.24364 2.23091 2.61732 2.07613ZM4 13C4 14.5295 4.28812 15.5481 4.70969 16.278C5.1296 17.005 5.73172 17.5324 6.51349 18.0002C7.1548 18.384 7.86163 18.6984 8.66359 19.0552C8.87518 19.1493 9.0934 19.2464 9.31878 19.3484C10.1752 19.7363 11.0964 20.1813 12 20.778C12.9036 20.1813 13.8248 19.7363 14.6812 19.3484C14.9066 19.2464 15.1248 19.1493 15.3364 19.0552L15.3364 19.0552C16.1384 18.6984 16.8452 18.384 17.4865 18.0002C18.2683 17.5324 18.8704 17.005 19.2903 16.278C19.7119 15.5481 20 14.5295 20 13H4ZM20 11H4V4.97803C4.88279 5.48927 6.10688 6.00001 7.5 6.00001C9.00815 6.00001 10.3182 5.40144 11.2116 4.85166C11.5164 4.66411 11.7816 4.47674 12 4.31009C12.2184 4.47674 12.4836 4.66411 12.7884 4.85166C13.6818 5.40144 14.9918 6.00001 16.5 6.00001C17.8931 6.00001 19.1172 5.48927 20 4.97803V11Z" fill="black"/>
</svg>
