<svg width="24" height="24" viewBox="0 0 24 24" fill="none" xmlns="http://www.w3.org/2000/svg">
<path fill-rule="evenodd" clip-rule="evenodd" d="M2.61732 2.07606C2.99017 1.92162 3.41923 2.00646 3.70523 2.29096L3.70583 2.29155L3.7156 2.30101C3.72574 2.31075 3.74303 2.32713 3.76709 2.34922C3.81528 2.39346 3.89026 2.46022 3.98913 2.54204C4.18772 2.70639 4.47789 2.92754 4.8366 3.14828C5.5682 3.5985 6.50815 3.99994 7.5 3.99994C8.49185 3.99994 9.4318 3.5985 10.1634 3.14828C10.5221 2.92754 10.8123 2.70639 11.0109 2.54204C11.1097 2.46022 11.1847 2.39346 11.2329 2.34922C11.257 2.32713 11.2743 2.31075 11.2844 2.30101L11.2942 2.29155L11.2937 2.29206L11.2933 2.29242C11.6832 1.90295 12.3146 1.90244 12.7052 2.29091L12.7058 2.29155L12.7156 2.30101C12.7257 2.31075 12.743 2.32713 12.7671 2.34922C12.8153 2.39346 12.8903 2.46022 12.9891 2.54204C13.1877 2.70639 13.4779 2.92754 13.8366 3.14828C14.5682 3.5985 15.5082 3.99994 16.5 3.99994C17.4918 3.99994 18.4318 3.5985 19.1634 3.14828C19.5221 2.92754 19.8123 2.70639 20.0109 2.54204C20.1097 2.46022 20.1847 2.39346 20.2329 2.34922C20.257 2.32713 20.2743 2.31075 20.2844 2.30101L20.2933 2.29242C20.5793 2.00675 21.0092 1.92135 21.3827 2.07606C21.7564 2.23084 22 2.59548 22 2.99994V11.9999V12.9999C22 14.7815 21.6631 16.1685 21.0222 17.2782C20.3796 18.3908 19.4817 19.137 18.5135 19.7164C17.7578 20.1686 16.908 20.546 16.0929 20.908L16.0929 20.908C15.8947 20.9961 15.6985 21.0832 15.5063 21.1703C14.4909 21.6301 13.5098 22.1176 12.6 22.7999C12.2444 23.0666 11.7556 23.0666 11.4 22.7999C10.4902 22.1176 9.50908 21.6301 8.49372 21.1703C8.30145 21.0832 8.10529 20.9961 7.90707 20.908C7.09197 20.546 6.24222 20.1686 5.48651 19.7164C4.51828 19.137 3.6204 18.3908 2.97781 17.2782C2.33688 16.1685 2 14.7815 2 12.9999V11.9999V2.99994C2 2.59548 2.24364 2.23084 2.61732 2.07606ZM4 12.9999C4 14.5295 4.28812 15.548 4.70969 16.2779C5.1296 17.0049 5.73172 17.5324 6.51349 18.0002C7.1548 18.3839 7.86163 18.6984 8.66359 19.0551C8.87518 19.1492 9.0934 19.2463 9.31878 19.3484C10.1752 19.7362 11.0964 20.1813 12 20.7779C12.9036 20.1813 13.8248 19.7362 14.6812 19.3484C14.9066 19.2463 15.1248 19.1492 15.3364 19.0551L15.3364 19.0551C16.1384 18.6984 16.8452 18.3839 17.4865 18.0002C18.2683 17.5324 18.8704 17.0049 19.2903 16.2779C19.7119 15.548 20 14.5295 20 12.9999H4ZM20 10.9999H4V4.97796C4.88279 5.4892 6.10688 5.99994 7.5 5.99994C9.00815 5.99994 10.3182 5.40138 11.2116 4.8516C11.5164 4.66404 11.7816 4.47667 12 4.31002C12.2184 4.47667 12.4836 4.66404 12.7884 4.8516C13.6818 5.40138 14.9918 5.99994 16.5 5.99994C17.8931 5.99994 19.1172 5.4892 20 4.97796V10.9999Z" fill="black"/>
</svg>
