<svg width="24" height="24" viewBox="0 0 24 24" fill="none" xmlns="http://www.w3.org/2000/svg">
<path fill-rule="evenodd" clip-rule="evenodd" d="M9 4C8.44772 4 8 4.44772 8 5V7H6.5C6.04114 7 5.64115 7.3123 5.52986 7.75746L4.21923 13H1C0.668181 13 0.357967 13.1646 0.171937 13.4394C-0.0140925 13.7141 -0.0517083 14.0633 0.071528 14.3714L2.07153 19.3714C2.22339 19.751 2.5911 20 3 20H20C20.4 20 20.7616 19.7616 20.9191 19.3939L23.9191 12.3939C24.0516 12.085 24.0199 11.7301 23.8348 11.4495C23.6498 11.1689 23.3361 11 23 11H19.8828L19.4923 7.87597C19.4297 7.37554 19.0043 7 18.5 7H15V5C15 4.44772 14.5523 4 14 4H9ZM11.382 13H6.28078L7.28078 9H17.6172L17.8672 11H14.2361C13.0997 11 12.061 11.642 11.5528 12.6584L11.382 13ZM13.3416 13.5528C13.511 13.214 13.8573 13 14.2361 13H19H21.4835L19.3406 18H3.67704L2.47704 15H5H11.382C12.1395 15 12.832 14.572 13.1708 13.8944L13.3416 13.5528Z" fill="black"/>
</svg>
