<svg width="24" height="24" viewBox="0 0 24 24" fill="none" xmlns="http://www.w3.org/2000/svg">
<path fill-rule="evenodd" clip-rule="evenodd" d="M10 1C8.89543 1 8 1.89543 8 3V6H6C4.89543 6 4 6.89543 4 8V13C4 13.0335 4.00164 13.0666 4.00486 13.0993C3.72437 13.0809 3.43557 13.0509 3.13755 13.0095C2.78898 12.9611 2.44062 13.0995 2.22027 13.3739C1.99992 13.6483 1.94003 14.0183 2.06256 14.3482L4.53315 20.9998L4.49998 21C3.45179 21 2.99998 20.3556 2.99998 20C2.99998 19.4477 2.55227 19 1.99998 19C1.4477 19 0.999985 19.4477 0.999985 20C0.999985 21.8536 2.78675 23 4.49998 23C5.40393 23 6.32835 22.6808 6.99999 22.1071C7.67162 22.6808 8.59604 23 9.49998 23C10.4039 23 11.3283 22.6808 12 22.1071C12.6716 22.6808 13.596 23 14.5 23C15.4039 23 16.3283 22.6808 17 22.1071C17.6716 22.6808 18.596 23 19.5 23C21.2132 23 23 21.8536 23 20C23 19.4477 22.5523 19 22 19C21.4477 19 21 19.4477 21 20C21 20.3556 20.5482 21 19.5 21L19.4668 20.9998L21.9374 14.3482C22.0599 14.0183 22 13.6483 21.7797 13.3739C21.5594 13.0995 21.211 12.9611 20.8624 13.0095C20.5644 13.0509 20.2756 13.0809 19.9951 13.0993C19.9984 13.0666 20 13.0335 20 13V8C20 6.89543 19.1046 6 18 6H16V3C16 1.89543 15.1046 1 14 1H10ZM14 6V3H10V6H14ZM9 8H6V13L5.99997 13.0079C6.50436 12.9192 6.98319 12.7776 7.44451 12.5804C8.70387 12.0423 9.92703 11.05 11.2082 9.3892C11.3975 9.14376 11.69 9 12 9C12.31 9 12.6024 9.14376 12.7918 9.3892C14.0729 11.05 15.2961 12.0423 16.5555 12.5804C17.0168 12.7776 17.4956 12.9192 18 13.0079L18 13V8H15H9ZM17.8807 19.526L19.5174 15.1195C18.2039 15.1386 16.9623 14.9293 15.7695 14.4196C14.4111 13.839 13.1782 12.8954 12 11.5693C10.8218 12.8954 9.5889 13.839 8.23046 14.4196C7.03765 14.9293 5.79609 15.1386 4.48254 15.1195L6.11925 19.526C6.28815 19.2128 6.61922 19 6.99998 19C7.55227 19 7.99998 19.4477 7.99998 20C7.99998 20.3556 8.45179 21 9.49998 21C10.5482 21 11 20.3556 11 20C11 19.4477 11.4477 19 12 19C12.5523 19 13 19.4477 13 20C13 20.3556 13.4518 21 14.5 21C15.5482 21 16 20.3556 16 20C16 19.4477 16.4477 19 17 19C17.3808 19 17.7118 19.2128 17.8807 19.526Z" fill="black"/>
</svg>
