<svg width="24" height="24" viewBox="0 0 24 24" fill="none" xmlns="http://www.w3.org/2000/svg">
<path fill-rule="evenodd" clip-rule="evenodd" d="M5 8.99998V7.99998C5 7.4477 5.44772 6.99998 6 6.99998H10C10.5523 6.99998 11 7.4477 11 7.99998V9.99998H6C5.44772 9.99998 5 9.55227 5 8.99998ZM12 12H6C5.64936 12 5.31278 11.9398 5 11.8293V18.8837C5 19.5542 5.50023 20 6 20H18C18.4998 20 19 19.5542 19 18.8837V11.8293C18.6872 11.9398 18.3506 12 18 12H12ZM13 9.99998H18C18.5523 9.99998 19 9.55227 19 8.99998V7.99998C19 7.4477 18.5523 6.99998 18 6.99998H14C13.4477 6.99998 13 7.4477 13 7.99998V9.99998ZM18.4446 5.0327C18.2995 5.01115 18.1511 4.99998 18 4.99998H14C13.2316 4.99998 12.5308 5.28884 12 5.76388C11.4692 5.28884 10.7684 4.99998 10 4.99998H6C5.84894 4.99998 5.70048 5.01115 5.55541 5.0327C5.80367 4.71676 6.15396 4.4884 6.65416 4.32471C7.2412 4.1326 7.98947 4.0452 8.91899 4.01455C9.54492 3.99391 10.1999 3.99937 10.9068 4.00525H10.9068L10.9069 4.00525C11.2575 4.00817 11.621 4.0112 12 4.0112C12.379 4.0112 12.7425 4.00817 13.0931 4.00525L13.0932 4.00525H13.0932C13.8001 3.99937 14.4551 3.99391 15.081 4.01455C16.0105 4.0452 16.7588 4.1326 17.3458 4.32471C17.846 4.4884 18.1963 4.71676 18.4446 5.0327ZM21 7.99998V8.99998V11V18.8837C21 20.5507 19.7094 22 18 22H17V23C17 23.5523 16.5523 24 16 24C15.4477 24 15 23.5523 15 23V22H9V23C9 23.5523 8.55228 24 8 24C7.44772 24 7 23.5523 7 23V22H6C4.29063 22 3 20.5507 3 18.8837V10.8182V8.99998V7.99998V7.24385C3 5.95627 3.24556 4.89387 3.793 4.06091C4.35119 3.21159 5.14912 2.71286 6.03213 2.4239C6.8928 2.14225 7.86839 2.0481 8.85309 2.01564C9.52005 1.99365 10.2453 1.99959 10.9774 2.00559L10.9774 2.00559L10.9774 2.00559C11.3186 2.00839 11.6611 2.0112 12 2.0112C12.3389 2.0112 12.6814 2.00839 13.0226 2.00559L13.0226 2.00559C13.7547 1.99959 14.4799 1.99365 15.1469 2.01564C16.1316 2.0481 17.1072 2.14225 17.9679 2.4239C18.8509 2.71286 19.6488 3.21159 20.207 4.0609C20.7544 4.89387 21 5.95627 21 7.24385V7.99998ZM12 14.5C11.1716 14.5 10.5 15.1716 10.5 16C10.5 16.8284 11.1716 17.5 12 17.5C12.8284 17.5 13.5 16.8284 13.5 16C13.5 15.1716 12.8284 14.5 12 14.5Z" fill="black"/>
</svg>
