<svg width="24" height="24" fill="none" xmlns="http://www.w3.org/2000/svg"><path fill-rule="evenodd" clip-rule="evenodd" d="M13.707 1.293a1 1 0 0 0-1.414 0l-3 3a1 1 0 0 0 0 1.414l3 3a1 1 0 1 0 1.414-1.414L12.414 6H14a4 4 0 0 1 4 4v6.17a3.001 3.001 0 1 0 2 0V10a6 6 0 0 0-6-6h-1.586l1.293-1.293a1 1 0 0 0 0-1.414zM19 18a1 1 0 1 0 0 2 1 1 0 0 0 0-2zM5 6a1 1 0 1 0 0-2 1 1 0 0 0 0 2zm1 1.83a3.001 3.001 0 1 0-2 0V14a6 6 0 0 0 6 6h1.586l-1.293 1.293a1 1 0 1 0 1.414 1.414l3-3a1 1 0 0 0 0-1.414l-3-3a1 1 0 0 0-1.414 1.414L11.586 18H10a4 4 0 0 1-4-4V7.83z" fill="#000"/></svg>