<svg width="24" height="24" fill="none" xmlns="http://www.w3.org/2000/svg"><path fill-rule="evenodd" clip-rule="evenodd" d="M12 4a8 8 0 1 0 3.36 15.262 1 1 0 0 1 .842 1.815A9.966 9.966 0 0 1 12 22C6.477 22 2 17.523 2 12S6.477 2 12 2s10 4.477 10 10v.019c-.042 2.19-.74 3.665-1.767 4.58-1.004.894-2.193 1.138-3.023 1.138-1.192 0-2.239-.62-2.838-1.554-2.076 1.835-5.07 2.239-6.918.185-1.926-2.14-1.389-5.713.666-7.996 2.063-2.292 5.456-2.987 7.479-.74.067.075.134.153.2.234a1 1 0 0 1 1.9.619l-.962-.274-.86-.245.86.245.962.274-.001.003-.003.01-.01.036-.04.14-.144.503-.448 1.57c-.333 1.17-.692 2.424-.786 2.749a21.133 21.133 0 0 0-.312.966c-.03.1-.053.184-.07.25a1.37 1.37 0 0 0 1.325 1.025c.48 0 1.148-.146 1.693-.631.52-.463 1.062-1.354 1.097-3.115A8 8 0 0 0 12 4zm2.353 8.914c.07-.24.253-.881.467-1.628.233-.82-.07-1.606-.708-2.316-.92-1.021-2.892-1.053-4.505.74-1.623 1.802-1.682 4.191-.666 5.32.919 1.021 2.891 1.053 4.505-.74.409-.454.7-.834.848-1.2l.046-.138.013-.038z" fill="#000"/></svg>