<svg width="24" height="24" fill="none" xmlns="http://www.w3.org/2000/svg"><path fill-rule="evenodd" clip-rule="evenodd" d="M3.293 3.293a1 1 0 0 1 1.414 0L8 6.586V4a1 1 0 0 1 2 0v5a1 1 0 0 1-1 1H4a1 1 0 0 1 0-2h2.586L3.293 4.707a1 1 0 0 1 0-1.414zm16 0a1 1 0 1 1 1.414 1.414L17.414 8H20a1 1 0 1 1 0 2h-5a1 1 0 0 1-1-1V4a1 1 0 1 1 2 0v2.586l3.293-3.293zM4 14h5a1 1 0 0 1 1 1v5a1 1 0 1 1-2 0v-2.586l-3.293 3.293a1 1 0 0 1-1.414-1.414L6.586 16H4a1 1 0 1 1 0-2zm10 1a1 1 0 0 1 1-1h5a1 1 0 1 1 0 2h-2.586l3.293 3.293a1 1 0 0 1-1.414 1.414L16 17.414V20a1 1 0 1 1-2 0v-5z" fill="#000"/></svg>