<svg width="24" height="24" fill="none" xmlns="http://www.w3.org/2000/svg"><path fill-rule="evenodd" clip-rule="evenodd" d="M4.293 4.293a1 1 0 0 1 1.414 0L9 7.586V5a1 1 0 0 1 2 0v5a1 1 0 0 1-1 1H5a1 1 0 1 1 0-2h2.586L4.293 5.707a1 1 0 0 1 0-1.414zm14 0a1 1 0 1 1 1.414 1.414L16.414 9H19a1 1 0 1 1 0 2h-5a1 1 0 0 1-1-1V5a1 1 0 1 1 2 0v2.586l3.293-3.293zM5 13h5a1 1 0 0 1 1 1v5a1 1 0 1 1-2 0v-2.586l-3.293 3.293a1 1 0 0 1-1.414-1.414L7.586 15H5a1 1 0 1 1 0-2zm8 1a1 1 0 0 1 1-1h5a1 1 0 1 1 0 2h-2.586l3.293 3.293a1 1 0 0 1-1.414 1.414L15 16.414V19a1 1 0 1 1-2 0v-5z" fill="#000"/></svg>