<svg width="24" height="24" fill="none" xmlns="http://www.w3.org/2000/svg"><path fill-rule="evenodd" clip-rule="evenodd" d="M4 5a1 1 0 0 1 1-1h4a1 1 0 0 1 0 2H7.414l3.293 3.293a1 1 0 0 1-1.414 1.414L6 7.414V9a1 1 0 0 1-2 0V5zm11-1h4a1 1 0 0 1 1 1v4a1 1 0 1 1-2 0V7.414l-3.293 3.293a1 1 0 0 1-1.414-1.414L16.586 6H15a1 1 0 1 1 0-2zm-4.293 9.293a1 1 0 0 1 0 1.414L7.414 18H9a1 1 0 1 1 0 2H5a1 1 0 0 1-1-1v-4a1 1 0 1 1 2 0v1.586l3.293-3.293a1 1 0 0 1 1.414 0zm2.586 0a1 1 0 0 1 1.414 0L18 16.586V15a1 1 0 1 1 2 0v4a1 1 0 0 1-1 1h-4a1 1 0 1 1 0-2h1.586l-3.293-3.293a1 1 0 0 1 0-1.414z" fill="#000"/></svg>