<svg width="24" height="24" fill="none" xmlns="http://www.w3.org/2000/svg"><path fill-rule="evenodd" clip-rule="evenodd" d="M4 14c0-4.446 3.58-8 8-8s8 3.554 8 8c0 .942-.332 2.038-.802 2.893-.234.424-.476.742-.684.938a.946.946 0 0 1-.22.165c-.174-.018-.414-.1-.774-.298-.268-.147-.528-.315-.832-.51-.159-.102-.33-.212-.52-.331-.784-.49-1.755-1.037-2.945-1.275a1.997 1.997 0 0 0 .71-2.1l3.017-3.018a1 1 0 1 0-1.414-1.414l-3.018 3.018a2 2 0 0 0-1.741 3.515c-1.19.237-2.161.784-2.945 1.274-.19.119-.361.229-.52.33-.304.196-.564.364-.832.511-.36.199-.6.28-.774.298a.945.945 0 0 1-.22-.165c-.208-.196-.45-.514-.684-.938C4.332 16.038 4 14.942 4 14zm8-10C6.48 4 2 8.446 2 14c0 1.346.453 2.772 1.05 3.857.3.546.662 1.05 1.066 1.43.376.354.94.74 1.625.711.644-.026 1.223-.283 1.705-.548.327-.18.684-.41 1.022-.627.146-.094.289-.186.424-.27.966-.604 1.929-1.092 3.108-1.092 1.18 0 2.142.488 3.108 1.092.135.084.278.176.424.27.338.217.695.447 1.022.627.482.265 1.061.522 1.705.548.685.028 1.249-.357 1.625-.71.404-.38.766-.885 1.066-1.43C21.547 16.771 22 15.345 22 14c0-5.554-4.48-10-10-10zM6 15a1 1 0 1 0 0-2 1 1 0 0 0 0 2zm13-1a1 1 0 1 1-2 0 1 1 0 0 1 2 0zm-7-5a1 1 0 1 0 0-2 1 1 0 0 0 0 2z" fill="#000"/></svg>