<svg width="24" height="24" fill="none" xmlns="http://www.w3.org/2000/svg"><path fill-rule="evenodd" clip-rule="evenodd" d="M3 14c0-4.968 4.03-9 9-9s9 4.032 9 9c0 1.053-.33 2.38-.929 3.42-.607 1.054-1.333 1.57-2.052 1.58-.484-.024-.84-.233-1.504-.62-.144-.084-.302-.176-.478-.276C15.087 17.564 13.87 17 12 17s-3.087.563-4.037 1.104c-.176.1-.334.192-.478.276-.664.387-1.02.596-1.504.62-.72-.01-1.445-.526-2.052-1.58C3.33 16.38 3 15.053 3 14zm9-11C5.925 3 1 7.928 1 14c0 1.398.42 3.07 1.196 4.418C2.959 19.743 4.225 21 6 21h.04c1.041-.042 1.896-.553 2.572-.958.119-.07.232-.139.34-.2C9.728 19.401 10.599 19 12 19s2.272.4 3.048.842c.108.061.22.13.34.2.676.404 1.53.916 2.572.957l.02.001H18c1.775 0 3.041-1.257 3.804-2.582C22.58 17.071 23 15.398 23 14c0-6.072-4.925-11-11-11zm4.95 7.464a1 1 0 1 0-1.414-1.414l-3.018 3.018a2 2 0 1 0 1.414 1.414l3.018-3.018zM5 15a1 1 0 1 0 0-2 1 1 0 0 0 0 2zm15-1a1 1 0 1 1-2 0 1 1 0 0 1 2 0zm-8-6a1 1 0 1 0 0-2 1 1 0 0 0 0 2z" fill="#000"/></svg>