<svg width="24" height="24" fill="none" xmlns="http://www.w3.org/2000/svg"><path fill-rule="evenodd" clip-rule="evenodd" d="M9.03 1.885a3.02 3.02 0 0 1 4.272 0l1.669 1.668a3.947 3.947 0 1 1 5.476 5.476l1.668 1.669a3.02 3.02 0 0 1 0 4.271l-1.686 1.687c-.477.477-1.101.426-1.478.267-.373-.157-.77-.519-.861-1.072a1.947 1.947 0 1 0-2.239 2.239c.553.09.915.488 1.073.86.159.378.209 1.002-.268 1.478l-1.687 1.687a3.02 3.02 0 0 1-4.271 0l-1.669-1.668a3.947 3.947 0 1 1-5.476-5.476l-1.668-1.669.707-.707-.707.707a3.02 3.02 0 0 1 0-4.271l1.687-1.687c.476-.477 1.1-.427 1.477-.268.373.158.771.52.862 1.073A1.947 1.947 0 1 0 8.15 5.91c-.554-.09-.916-.488-1.074-.861-.159-.377-.209-1 .268-1.477L9.03 1.885zm2.858 1.414a1.02 1.02 0 0 0-1.443 0l-.952.951A3.947 3.947 0 1 1 4.25 9.493l-.951.952a1.02 1.02 0 0 0 0 1.443l2.74 2.74a1 1 0 0 1-.567 1.696 1.947 1.947 0 1 0 2.204 2.204 1 1 0 0 1 1.697-.566l2.74 2.74a1.02 1.02 0 0 0 1.442 0l.952-.953a3.947 3.947 0 1 1 5.243-5.243l.951-.95a1.02 1.02 0 0 0 0-1.444l-2.74-2.74a1 1 0 0 1 .567-1.696 1.947 1.947 0 1 0-2.204-2.204 1 1 0 0 1-1.697.566l-2.74-2.74z" fill="#000"/></svg>