<svg width="24" height="24" fill="none" xmlns="http://www.w3.org/2000/svg"><path d="M15.293 9.707a1 1 0 0 0 1.414-1.414l-1.414 1.414zM12 5l.707-.707a1 1 0 0 0-1.414 0L12 5zM7.293 8.293a1 1 0 0 0 1.414 1.414L7.293 8.293zm9.414 0l-4-4-1.414 1.414 4 4 1.414-1.414zm-5.414-4l-4 4 1.414 1.414 4-4-1.414-1.414zM8.707 14.293a1 1 0 0 0-1.414 1.414l1.414-1.414zM12 19l-.707.707a1 1 0 0 0 1.414 0L12 19zm4.707-3.293a1 1 0 0 0-1.414-1.414l1.414 1.414zm-9.414 0l4 4 1.414-1.414-4-4-1.414 1.414zm5.414 4l4-4-1.414-1.414-4 4 1.414 1.414z" fill="#000"/></svg>