<svg width="24" height="24" fill="none" xmlns="http://www.w3.org/2000/svg"><path fill-rule="evenodd" clip-rule="evenodd" d="M12 4c-4.532 0-8 3.241-8 7 0 3.758 3.468 7 8 7 .95 0 1.859-.145 2.7-.41l.605-.19.428.465.004.004.028.029a7.32 7.32 0 0 0 .655.571c.466.36 1.13.79 1.935 1.096.26.099.503.177.728.239-.265-.508-.52-1.087-.645-1.64a6.106 6.106 0 0 1-.085-2.097 6.501 6.501 0 0 1 .168-.857l.017-.059.005-.018.002-.007.001-.003v-.001s.001-.001.954.302l-.953-.303.051-.161.101-.135C19.527 13.718 20 12.405 20 11c0-3.759-3.468-7-8-7zm8.418 11.862C21.414 14.467 22 12.798 22 11c0-5.078-4.591-9-10-9S2 5.922 2 11c0 5.078 4.591 9 10 9 .943 0 1.857-.117 2.725-.338a9.674 9.674 0 0 0 2.92 1.773c1.017.386 1.863.53 2.474.575.305.022.55.019.728.009a3.703 3.703 0 0 0 .283-.027l.023-.004.01-.001.003-.001h.003L21 21l.17.985a1 1 0 0 0 .635-1.578l-.002-.002-.008-.012a14.42 14.42 0 0 1-.619-.945c-.35-.586-.676-1.236-.788-1.727a4.11 4.11 0 0 1-.051-1.403c.024-.193.056-.35.081-.456zm.036-.138v-.002.001z" fill="#000"/></svg>