<svg width="24" height="24" fill="none" xmlns="http://www.w3.org/2000/svg"><path fill-rule="evenodd" clip-rule="evenodd" d="M12 2.5a1.5 1.5 0 1 1-3 0 1.5 1.5 0 0 1 3 0zm.5 5.5A1.25 1.25 0 1 1 10 8a1.25 1.25 0 0 1 2.5 0zM14 6.25a1.25 1.25 0 1 0 0-2.5 1.25 1.25 0 0 0 0 2.5zm.25 9.75a1.25 1.25 0 1 1-2.5 0 1.25 1.25 0 0 1 2.5 0zM7 4a1 1 0 0 0 0 2v11c0 1.277.369 2.747 1.244 3.925C9.146 22.138 10.562 23 12.5 23c1.938 0 3.354-.862 4.256-2.075C17.63 19.747 18 18.277 18 17V6a1 1 0 1 0 0-2h-1a1 1 0 0 0-1 1h1-1V11.496a3.898 3.898 0 0 1-.217.13c-.374.206-.829.375-1.283.375-.472 0-.954-.171-1.644-.434l-.062-.024C12.18 11.307 11.374 11 10.5 11c-.556 0-1.066.12-1.5.28V5.002L8 5h1a1 1 0 0 0-1-1H7zm7.5 10c.556 0 1.066-.12 1.5-.28V17c0 .932-.277 1.962-.85 2.732-.545.734-1.38 1.268-2.65 1.268s-2.105-.534-2.65-1.268C9.276 18.962 9 17.932 9 17v-3.495c.065-.042.138-.086.217-.13.375-.206.829-.375 1.283-.375.472 0 .954.171 1.644.434l.062.024c.614.235 1.42.542 2.294.542zm-5.838-.25H8.66h.002zm7.676-2.5a.041.041 0 0 0 .002 0h-.002zm.002 0c0-.001 0-.001 0 0z" fill="#000"/></svg>