<svg width="24" height="24" fill="none" xmlns="http://www.w3.org/2000/svg"><path fill-rule="evenodd" clip-rule="evenodd" d="M6 5a1 1 0 0 1 1 1v1.05a2.5 2.5 0 0 1 0 4.9V19a1 1 0 1 1-2 0v-7.05a2.5 2.5 0 0 1 0-4.9V6a1 1 0 0 1 1-1zm-.5 4a.5.5 0 0 0 0 1h1a.5.5 0 0 0 0-1h-1zM18 5a1 1 0 0 1 1 1v2.05a2.5 2.5 0 0 1 0 4.9V19a1 1 0 1 1-2 0v-6.05a2.5 2.5 0 0 1 0-4.9V6a1 1 0 0 1 1-1zm-.5 5a.5.5 0 0 0 0 1h1a.5.5 0 0 0 0-1h-1zM13 6a1 1 0 1 0-2 0v7.05a2.5 2.5 0 0 0 0 4.9V19a1 1 0 1 0 2 0v-1.05a2.5 2.5 0 0 0 0-4.9V6zm-2 9.5a.5.5 0 0 1 .5-.5h1a.5.5 0 0 1 0 1h-1a.5.5 0 0 1-.5-.5z" fill="#000"/></svg>