<svg width="24" height="24" fill="none" xmlns="http://www.w3.org/2000/svg"><path fill-rule="evenodd" clip-rule="evenodd" d="M3 5a3 3 0 0 1 3-3h13a3 3 0 0 1 3 3v2c0 .768-.289 1.47-.764 2 .475.53.764 1.232.764 2v2c0 .768-.289 1.47-.764 2 .475.53.764 1.232.764 2v2a3 3 0 0 1-3 3H6a3 3 0 0 1-3-3v-2c0-.768.289-1.47.764-2A2.989 2.989 0 0 1 3 13v-2c0-.768.289-1.47.764-2A2.989 2.989 0 0 1 3 7V5zm16 3H6a1 1 0 0 1-1-1V5a1 1 0 0 1 1-1h13a1 1 0 0 1 1 1v2a1 1 0 0 1-1 1zM5 11a1 1 0 0 1 1-1h13a1 1 0 0 1 1 1v2a1 1 0 0 1-1 1H6a1 1 0 0 1-1-1v-2zm0 6a1 1 0 0 1 1-1h13a1 1 0 0 1 1 1v2a1 1 0 0 1-1 1H6a1 1 0 0 1-1-1v-2zm11.5 2.25a1.25 1.25 0 1 0 0-2.5 1.25 1.25 0 0 0 0 2.5zm0-6a1.25 1.25 0 1 0 0-2.5 1.25 1.25 0 0 0 0 2.5zm0-6a1.25 1.25 0 1 0 0-2.5 1.25 1.25 0 0 0 0 2.5z" fill="#000"/></svg>