<svg width="24" height="24" fill="none" xmlns="http://www.w3.org/2000/svg"><path fill-rule="evenodd" clip-rule="evenodd" d="M7.856 4.271c1.327-.279 3.186-.318 4.769.948.917.734 2.058.773 3.107.552a7.073 7.073 0 0 0 1.753-.63l.02-.01a.039.039 0 0 1 .001 0h-.001A1 1 0 0 1 19 6v8a1 1 0 0 1-.504.868L18 14c.496.868.496.868.495.869l-.002.001-.005.003-.012.007a4.549 4.549 0 0 1-.18.095 9.072 9.072 0 0 1-2.152.754c-1.327.279-3.186.318-4.769-.948-.917-.734-2.058-.773-3.106-.553A7.07 7.07 0 0 0 7 14.63V20a1 1 0 1 1-2 0V6a1 1 0 0 1 .504-.868L6 6c-.496-.868-.496-.868-.495-.869l.002-.001.004-.003.013-.007a3.634 3.634 0 0 1 .18-.095 9.072 9.072 0 0 1 2.152-.754zM7 6.63v5.87c.261-.084.549-.163.856-.228 1.327-.279 3.186-.318 4.769.948.917.734 2.058.773 3.107.553A7.07 7.07 0 0 0 17 13.37V7.5a8.686 8.686 0 0 1-.857.228c-1.326.279-3.185.318-4.768-.948-.917-.734-2.058-.773-3.106-.552a7.064 7.064 0 0 0-1.269.4z" fill="#000"/></svg>