<svg width="24" height="24" viewBox="0 0 24 24" fill="none" xmlns="http://www.w3.org/2000/svg">
<path fill-rule="evenodd" clip-rule="evenodd" d="M10.9965 4.00001C11.4368 3.99846 11.8263 4.28508 11.9558 4.70591L15.1231 14.9997L18.0715 7.62861C18.1964 7.31651 18.4697 7.08801 18.7989 7.02042C19.1282 6.95284 19.4694 7.0552 19.7071 7.29289L22.7071 10.2929C23.0976 10.6834 23.0976 11.3166 22.7071 11.7071C22.3166 12.0976 21.6834 12.0976 21.2929 11.7071L19.3652 9.77946L15.9285 18.3714C15.771 18.765 15.3826 19.0165 14.959 18.9992C14.5355 18.9818 14.1689 18.6992 14.0442 18.2941L11.0121 8.43973L8.95782 15.2873C8.84938 15.6488 8.54667 15.9185 8.17511 15.9845C7.80355 16.0506 7.42643 15.9019 7.2 15.6L5 12.6667L2.8 15.6C2.46863 16.0418 1.84183 16.1314 1.4 15.8C0.95817 15.4686 0.868627 14.8418 1.2 14.4L4.2 10.4C4.38885 10.1482 4.68524 10 5 10C5.31475 10 5.61114 10.1482 5.8 10.4L7.6114 12.8152L10.0422 4.71265C10.1687 4.29092 10.5562 4.00156 10.9965 4.00001Z" fill="black"/>
</svg>
