<svg width="24" height="24" viewBox="0 0 24 24" fill="none" xmlns="http://www.w3.org/2000/svg">
<path fill-rule="evenodd" clip-rule="evenodd" d="M5 4C5 3.44772 4.55228 3 4 3C3.44772 3 3 3.44772 3 4V6V18C3 19.6569 4.34315 21 6 21H18C19.6569 21 21 19.6569 21 18V6V4C21 3.44772 20.5523 3 20 3C19.4477 3 19 3.44772 19 4V5H17V4C17 3.44772 16.5523 3 16 3C15.4477 3 15 3.44772 15 4V5H13V4C13 3.44772 12.5523 3 12 3C11.4477 3 11 3.44772 11 4V5H9V4C9 3.44772 8.55228 3 8 3C7.44772 3 7 3.44772 7 4V5H5V4ZM16 7H19V18C19 18.5523 18.5523 19 18 19H6C5.44772 19 5 18.5523 5 18V7H8H12H16ZM12 11.5858L9.70711 9.29289C9.31658 8.90237 8.68342 8.90237 8.29289 9.29289C7.90237 9.68342 7.90237 10.3166 8.29289 10.7071L10.5858 13L8.29289 15.2929C7.90237 15.6834 7.90237 16.3166 8.29289 16.7071C8.68342 17.0976 9.31658 17.0976 9.70711 16.7071L12 14.4142L14.2929 16.7071C14.6834 17.0976 15.3166 17.0976 15.7071 16.7071C16.0976 16.3166 16.0976 15.6834 15.7071 15.2929L13.4142 13L15.7071 10.7071C16.0976 10.3166 16.0976 9.68342 15.7071 9.29289C15.3166 8.90237 14.6834 8.90237 14.2929 9.29289L12 11.5858Z" fill="black"/>
</svg>
