<svg width="24" height="24" viewBox="0 0 24 24" fill="none" xmlns="http://www.w3.org/2000/svg">
<path fill-rule="evenodd" clip-rule="evenodd" d="M4 2C2.89543 2 2 2.89543 2 4V19C2 20.1046 2.89543 21 4 21H11.382L11.1056 21.5528C10.8586 22.0468 11.0588 22.6474 11.5528 22.8944C12.0468 23.1414 12.6474 22.9412 12.8944 22.4472L13.618 21H14.382L15.1056 22.4472C15.3526 22.9412 15.9532 23.1414 16.4472 22.8944C16.9412 22.6474 17.1414 22.0468 16.8944 21.5528L16.618 21H20C21.1046 21 22 20.1046 22 19V4C22 2.89543 21.1046 2 20 2H4ZM16.8946 19C17.0789 18.6856 17.1588 18.2952 17.0714 17.8597C17.0221 17.6138 17.2035 17.3822 17.4503 17.3765C19.0947 17.3378 19.5989 15.0908 18.1338 14.3303C17.914 14.2162 17.8492 13.9275 17.9986 13.7277C18.9942 12.3959 17.5815 10.5939 16.0834 11.2848C15.8586 11.3885 15.5963 11.26 15.5359 11.0166C15.1329 9.39453 12.8671 9.39453 12.4641 11.0166C12.4036 11.26 12.1414 11.3885 11.9166 11.2848C10.4185 10.5939 9.00579 12.3959 10.0014 13.7277C10.1507 13.9275 10.086 14.2162 9.86614 14.3303C8.40105 15.0908 8.90523 17.3378 10.5497 17.3765C10.7964 17.3822 10.9779 17.6138 10.9285 17.8597C10.8412 18.2952 10.9211 18.6856 11.1054 19H4V4H20V19H16.8946ZM7 6C6.44772 6 6 6.44772 6 7C6 7.55228 6.44772 8 7 8H12C12.5523 8 13 7.55228 13 7C13 6.44772 12.5523 6 12 6H7ZM16 6C15.4477 6 15 6.44772 15 7C15 7.55228 15.4477 8 16 8H17C17.5523 8 18 7.55228 18 7C18 6.44772 17.5523 6 17 6H16ZM16.5 15C16.5 16.3807 15.3807 17.5 14 17.5C12.6193 17.5 11.5 16.3807 11.5 15C11.5 13.6193 12.6193 12.5 14 12.5C15.3807 12.5 16.5 13.6193 16.5 15Z" fill="black"/>
</svg>
