<svg width="24" height="24" viewBox="0 0 24 24" fill="none" xmlns="http://www.w3.org/2000/svg">
<path fill-rule="evenodd" clip-rule="evenodd" d="M3 12C3 7.02944 7.02944 3 12 3C16.9706 3 21 7.02944 21 12C21 16.9706 16.9706 21 12 21C7.02944 21 3 16.9706 3 12ZM12 1C5.92487 1 1 5.92487 1 12C1 18.0751 5.92487 23 12 23C18.0751 23 23 18.0751 23 12C23 5.92487 18.0751 1 12 1ZM13 5C13 4.44772 12.5523 4 12 4C11.4477 4 11 4.44772 11 5V12C11 12.3513 11.1843 12.6768 11.4855 12.8575L16.4855 15.8575C16.9591 16.1416 17.5733 15.9881 17.8575 15.5145C18.1416 15.0409 17.9881 14.4267 17.5145 14.1425L13 11.4338V5Z" fill="black"/>
</svg>
