<svg width="24" height="24" viewBox="0 0 24 24" fill="none" xmlns="http://www.w3.org/2000/svg">
<path d="M7.70711 8.29289C7.31658 7.90237 6.68342 7.90237 6.29289 8.29289C5.90237 8.68342 5.90237 9.31658 6.29289 9.70711L7.70711 8.29289ZM12 14L11.2929 14.7071C11.6834 15.0976 12.3166 15.0976 12.7071 14.7071L12 14ZM17.7071 9.70711C18.0976 9.31658 18.0976 8.68342 17.7071 8.29289C17.3166 7.90237 16.6834 7.90237 16.2929 8.29289L17.7071 9.70711ZM6.29289 9.70711L11.2929 14.7071L12.7071 13.2929L7.70711 8.29289L6.29289 9.70711ZM12.7071 14.7071L17.7071 9.70711L16.2929 8.29289L11.2929 13.2929L12.7071 14.7071Z" fill="black"/>
</svg>
