<svg width="24" height="24" viewBox="0 0 24 24" fill="none" xmlns="http://www.w3.org/2000/svg">
<path fill-rule="evenodd" clip-rule="evenodd" d="M4.29289 4.29289C4.68342 3.90237 5.31658 3.90237 5.70711 4.29289L9 7.58579V5C9 4.44772 9.44772 4 10 4C10.5523 4 11 4.44772 11 5V10C11 10.5523 10.5523 11 10 11H5C4.44772 11 4 10.5523 4 10C4 9.44772 4.44772 9 5 9H7.58579L4.29289 5.70711C3.90237 5.31658 3.90237 4.68342 4.29289 4.29289ZM18.2929 4.29289C18.6834 3.90237 19.3166 3.90237 19.7071 4.29289C20.0976 4.68342 20.0976 5.31658 19.7071 5.70711L16.4142 9H19C19.5523 9 20 9.44772 20 10C20 10.5523 19.5523 11 19 11H14C13.4477 11 13 10.5523 13 10V5C13 4.44772 13.4477 4 14 4C14.5523 4 15 4.44772 15 5V7.58579L18.2929 4.29289ZM5 13H10C10.5523 13 11 13.4477 11 14V19C11 19.5523 10.5523 20 10 20C9.44772 20 9 19.5523 9 19V16.4142L5.70711 19.7071C5.31658 20.0976 4.68342 20.0976 4.29289 19.7071C3.90237 19.3166 3.90237 18.6834 4.29289 18.2929L7.58579 15H5C4.44772 15 4 14.5523 4 14C4 13.4477 4.44772 13 5 13ZM13 14C13 13.4477 13.4477 13 14 13H19C19.5523 13 20 13.4477 20 14C20 14.5523 19.5523 15 19 15H16.4142L19.7071 18.2929C20.0976 18.6834 20.0976 19.3166 19.7071 19.7071C19.3166 20.0976 18.6834 20.0976 18.2929 19.7071L15 16.4142V19C15 19.5523 14.5523 20 14 20C13.4477 20 13 19.5523 13 19V14Z" fill="black"/>
</svg>
