<svg width="24" height="24" viewBox="0 0 24 24" fill="none" xmlns="http://www.w3.org/2000/svg">
<path fill-rule="evenodd" clip-rule="evenodd" d="M3.29289 3.29289C3.68342 2.90237 4.31658 2.90237 4.70711 3.29289L8 6.58579V4C8 3.44772 8.44772 3 9 3C9.55228 3 10 3.44772 10 4V9C10 9.55228 9.55228 10 9 10H4C3.44772 10 3 9.55228 3 9C3 8.44772 3.44772 8 4 8H6.58579L3.29289 4.70711C2.90237 4.31658 2.90237 3.68342 3.29289 3.29289ZM19.2929 3.29289C19.6834 2.90237 20.3166 2.90237 20.7071 3.29289C21.0976 3.68342 21.0976 4.31658 20.7071 4.70711L17.4142 8H20C20.5523 8 21 8.44772 21 9C21 9.55228 20.5523 10 20 10H15C14.4477 10 14 9.55228 14 9V4C14 3.44772 14.4477 3 15 3C15.5523 3 16 3.44772 16 4V6.58579L19.2929 3.29289ZM4 14H9C9.55228 14 10 14.4477 10 15V20C10 20.5523 9.55228 21 9 21C8.44772 21 8 20.5523 8 20V17.4142L4.70711 20.7071C4.31658 21.0976 3.68342 21.0976 3.29289 20.7071C2.90237 20.3166 2.90237 19.6834 3.29289 19.2929L6.58579 16H4C3.44772 16 3 15.5523 3 15C3 14.4477 3.44772 14 4 14ZM14 15C14 14.4477 14.4477 14 15 14H20C20.5523 14 21 14.4477 21 15C21 15.5523 20.5523 16 20 16H17.4142L20.7071 19.2929C21.0976 19.6834 21.0976 20.3166 20.7071 20.7071C20.3166 21.0976 19.6834 21.0976 19.2929 20.7071L16 17.4142V20C16 20.5523 15.5523 21 15 21C14.4477 21 14 20.5523 14 20V15Z" fill="black"/>
</svg>
