<svg width="24" height="24" viewBox="0 0 24 24" fill="none" xmlns="http://www.w3.org/2000/svg">
<path fill-rule="evenodd" clip-rule="evenodd" d="M7 4C6.44772 4 6 4.44772 6 5C6 5.55228 6.44772 6 7 6C7.55228 6 8 5.55228 8 5C8 4.44772 7.55228 4 7 4ZM8 7.82929C9.16519 7.41746 10 6.30622 10 5C10 3.34315 8.65685 2 7 2C5.34315 2 4 3.34315 4 5C4 6.30622 4.83481 7.41746 6 7.82929V16.1707C4.83481 16.5825 4 17.6938 4 19C4 20.6569 5.34315 22 7 22C8.65685 22 10 20.6569 10 19C10 17.6938 9.16519 16.5825 8 16.1707V7.82929ZM7 18C6.44772 18 6 18.4477 6 19C6 19.5523 6.44772 20 7 20C7.55228 20 8 19.5523 8 19C8 18.4477 7.55228 18 7 18ZM16 5C16 4.44772 16.4477 4 17 4C17.5523 4 18 4.44772 18 5C18 5.55228 17.5523 6 17 6C16.4477 6 16 5.55228 16 5ZM18 7.82929C19.1652 7.41746 20 6.30622 20 5C20 3.34315 18.6569 2 17 2C15.3431 2 14 3.34315 14 5C14 6.30622 14.8348 7.41746 16 7.82929V16.1707C14.8348 16.5825 14 17.6938 14 19C14 20.6569 15.3431 22 17 22C18.6569 22 20 20.6569 20 19C20 17.6938 19.1652 16.5825 18 16.1707V7.82929ZM17 18C16.4477 18 16 18.4477 16 19C16 19.5523 16.4477 20 17 20C17.5523 20 18 19.5523 18 19C18 18.4477 17.5523 18 17 18Z" fill="black"/>
</svg>
