<svg width="24" height="24" viewBox="0 0 24 24" fill="none" xmlns="http://www.w3.org/2000/svg">
<path fill-rule="evenodd" clip-rule="evenodd" d="M12 4C11.4477 4 11 4.44772 11 5C11 5.55228 11.4477 6 12 6C12.5523 6 13 5.55228 13 5C13 4.44772 12.5523 4 12 4ZM13 7.82929C14.1652 7.41746 15 6.30622 15 5C15 3.34315 13.6569 2 12 2C10.3431 2 9 3.34315 9 5C9 6.30622 9.83481 7.41746 11 7.82929V16.1707C9.83481 16.5825 9 17.6938 9 19C9 20.6569 10.3431 22 12 22C13.6569 22 15 20.6569 15 19C15 17.6938 14.1652 16.5825 13 16.1707V7.82929ZM12 18C11.4477 18 11 18.4477 11 19C11 19.5523 11.4477 20 12 20C12.5523 20 13 19.5523 13 19C13 18.4477 12.5523 18 12 18Z" fill="black"/>
</svg>
