<svg width="24" height="24" viewBox="0 0 24 24" fill="none" xmlns="http://www.w3.org/2000/svg">
<path fill-rule="evenodd" clip-rule="evenodd" d="M4 5C4 4.44772 4.44772 4 5 4H9C9.55228 4 10 4.44772 10 5C10 5.55228 9.55228 6 9 6H7.41421L10.7071 9.29289C11.0976 9.68342 11.0976 10.3166 10.7071 10.7071C10.3166 11.0976 9.68342 11.0976 9.29289 10.7071L6 7.41421V9C6 9.55228 5.55228 10 5 10C4.44772 10 4 9.55228 4 9V5ZM15 4H19C19.5523 4 20 4.44772 20 5V9C20 9.55228 19.5523 10 19 10C18.4477 10 18 9.55228 18 9V7.41421L14.7071 10.7071C14.3166 11.0976 13.6834 11.0976 13.2929 10.7071C12.9024 10.3166 12.9024 9.68342 13.2929 9.29289L16.5858 6H15C14.4477 6 14 5.55228 14 5C14 4.44772 14.4477 4 15 4ZM10.7071 13.2929C11.0976 13.6834 11.0976 14.3166 10.7071 14.7071L7.41421 18H9C9.55228 18 10 18.4477 10 19C10 19.5523 9.55228 20 9 20H5C4.44772 20 4 19.5523 4 19V15C4 14.4477 4.44772 14 5 14C5.55228 14 6 14.4477 6 15V16.5858L9.29289 13.2929C9.68342 12.9024 10.3166 12.9024 10.7071 13.2929ZM13.2929 13.2929C13.6834 12.9024 14.3166 12.9024 14.7071 13.2929L18 16.5858V15C18 14.4477 18.4477 14 19 14C19.5523 14 20 14.4477 20 15V19C20 19.5523 19.5523 20 19 20H15C14.4477 20 14 19.5523 14 19C14 18.4477 14.4477 18 15 18H16.5858L13.2929 14.7071C12.9024 14.3166 12.9024 13.6834 13.2929 13.2929Z" fill="black"/>
</svg>
