<svg width="24" height="24" viewBox="0 0 24 24" fill="none" xmlns="http://www.w3.org/2000/svg">
<path fill-rule="evenodd" clip-rule="evenodd" d="M11.5842 3.09053C11.8483 2.96982 12.1517 2.96982 12.4158 3.09053L22.4158 7.66195C22.7717 7.82467 23 8.18006 23 8.57143C23 8.96279 22.7717 9.31819 22.4158 9.4809L20 10.5853V16.4469C20 16.648 19.9495 16.8682 19.8221 17.0728C19.4914 17.6042 17.1726 21 12 21C6.82744 21 4.50856 17.6042 4.17785 17.0728C4.0505 16.8682 4 16.648 4 16.4469V10.5853L1.58424 9.4809C1.2283 9.31819 1 8.96279 1 8.57143C1 8.18006 1.2283 7.82467 1.58424 7.66195L11.5842 3.09053ZM6 11.4995V16.1994C6.48987 16.8789 8.31354 19 12 19C15.6865 19 17.5101 16.8789 18 16.1994V11.4995L12.4158 14.0523C12.1517 14.173 11.8483 14.173 11.5842 14.0523L6 11.4995ZM4.40524 8.57143L5.41576 9.03338L12 12.0433L18.5842 9.03338L19.5948 8.57143L12 5.09954L4.40524 8.57143ZM23.5 11.5C23.5 12.3284 22.8284 13 22 13C21.1716 13 20.5 12.3284 20.5 11.5C20.5 10.6716 21.1716 10 22 10C22.8284 10 23.5 10.6716 23.5 11.5ZM23 14.5C23 13.9477 22.5523 13.5 22 13.5C21.4477 13.5 21 13.9477 21 14.5V20C21 20.5523 21.4477 21 22 21C22.5523 21 23 20.5523 23 20V14.5Z" fill="black"/>
</svg>
