<svg width="24" height="24" viewBox="0 0 24 24" fill="none" xmlns="http://www.w3.org/2000/svg">
<path fill-rule="evenodd" clip-rule="evenodd" d="M4 14C4 9.55442 7.57959 6 12 6C16.4204 6 20 9.55442 20 14C20 14.942 19.668 16.0385 19.1978 16.8926C18.9644 17.3167 18.7217 17.6352 18.5138 17.8306C18.3963 17.9411 18.3232 17.9823 18.2943 17.9964C18.1202 17.9784 17.8796 17.8966 17.5195 17.6982C17.2523 17.5509 16.9921 17.3834 16.6883 17.1879L16.6883 17.1879L16.6882 17.1878C16.5292 17.0855 16.3583 16.9755 16.1683 16.8567C15.3842 16.3666 14.4128 15.8202 13.2233 15.5824C13.6958 15.2166 14 14.6438 14 14C14 13.8208 13.9764 13.6472 13.9323 13.4819L16.9498 10.4644C17.3403 10.0739 17.3403 9.44074 16.9497 9.05022C16.5592 8.65969 15.9261 8.65969 15.5355 9.05022L12.518 12.0677C12.3528 12.0236 12.1792 12 12 12C10.8954 12 10 12.8954 10 14C10 14.6438 10.3042 15.2166 10.7767 15.5824C9.58723 15.8202 8.61583 16.3666 7.83171 16.8567C7.64162 16.9755 7.4707 17.0855 7.31171 17.1879C7.00795 17.3834 6.74772 17.5509 6.4805 17.6982C6.12036 17.8966 5.8798 17.9784 5.70571 17.9964C5.67675 17.9823 5.60374 17.9411 5.48622 17.8306C5.27833 17.6352 5.03563 17.3167 4.8022 16.8926C4.33204 16.0385 4 14.942 4 14ZM12 4C6.47929 4 2 8.44558 2 14C2 15.3459 2.45284 16.7721 3.05012 17.8571C3.35041 18.4026 3.71207 18.9078 4.11639 19.2878C4.49233 19.6412 5.05604 20.0263 5.74099 19.9982C6.38473 19.9718 6.96399 19.7153 7.44567 19.4499C7.77268 19.2697 8.12964 19.0402 8.46801 18.8227L8.46803 18.8227L8.46805 18.8226C8.61404 18.7288 8.75657 18.6372 8.89174 18.5527C9.85756 17.949 10.8209 17.4609 12 17.4609C13.1791 17.4609 14.1424 17.949 15.1083 18.5527C15.2434 18.6372 15.386 18.7288 15.532 18.8226L15.532 18.8227C15.8703 19.0402 16.2273 19.2697 16.5543 19.4499C17.036 19.7153 17.6153 19.9718 18.259 19.9982C18.944 20.0263 19.5077 19.6412 19.8836 19.2878C20.2879 18.9078 20.6496 18.4026 20.9499 17.8571C21.5472 16.7721 22 15.3459 22 14C22 8.44558 17.5207 4 12 4ZM6 15C6.55228 15 7 14.5523 7 14C7 13.4477 6.55228 13 6 13C5.44772 13 5 13.4477 5 14C5 14.5523 5.44772 15 6 15ZM19 14C19 14.5523 18.5523 15 18 15C17.4477 15 17 14.5523 17 14C17 13.4477 17.4477 13 18 13C18.5523 13 19 13.4477 19 14ZM12 9C12.5523 9 13 8.55228 13 8C13 7.44772 12.5523 7 12 7C11.4477 7 11 7.44772 11 8C11 8.55228 11.4477 9 12 9Z" fill="black"/>
</svg>
