<svg width="24" height="24" viewBox="0 0 24 24" fill="none" xmlns="http://www.w3.org/2000/svg">
<path fill-rule="evenodd" clip-rule="evenodd" d="M3 14C3 9.0321 7.02962 5 12 5C16.9704 5 21 9.0321 21 14C21 15.0533 20.6696 16.3808 20.071 17.4201C19.4642 18.4736 18.7381 18.9907 18.0194 18.9999C17.5352 18.9755 17.1787 18.7675 16.5146 18.3799C16.3712 18.2962 16.2135 18.2041 16.037 18.1037C15.0868 17.5632 13.8698 17 12 17C10.1302 17 8.9132 17.5632 7.963 18.1037C7.78656 18.2041 7.62885 18.2962 7.48548 18.3798L7.48542 18.3799L7.48541 18.3799C6.82126 18.7675 6.46482 18.9755 5.98061 18.9999C5.26192 18.9907 4.53581 18.4736 3.92903 17.4201C3.33035 16.3808 3 15.0533 3 14ZM12 3C5.92468 3 1 7.9279 1 14C1 15.3981 1.41965 17.0706 2.19597 18.4184C2.95873 19.7426 4.22501 21 6 21H6.01977L6.03953 20.9992C7.08114 20.958 7.93628 20.4465 8.61228 20.0421C8.73102 19.9711 8.84423 19.9034 8.95195 19.8421C9.72783 19.4007 10.5986 19 12 19C13.4014 19 14.2722 19.4007 15.0481 19.8421C15.1557 19.9034 15.2689 19.9711 15.3876 20.0421L15.3877 20.0421L15.3877 20.0421C16.0637 20.4465 16.9189 20.958 17.9605 20.9992L17.9802 21H18C19.775 21 21.0413 19.7426 21.804 18.4184C22.5804 17.0706 23 15.3981 23 14C23 7.9279 18.0753 3 12 3ZM16.9498 10.4644C17.3403 10.0739 17.3403 9.44074 16.9497 9.05022C16.5592 8.65969 15.9261 8.65969 15.5355 9.05022L12.518 12.0677C12.3528 12.0236 12.1792 12 12 12C10.8954 12 10 12.8954 10 14C10 15.1046 10.8954 16 12 16C13.1046 16 14 15.1046 14 14C14 13.8208 13.9764 13.6472 13.9323 13.4819L16.9498 10.4644ZM5 15C5.55228 15 6 14.5523 6 14C6 13.4477 5.55228 13 5 13C4.44772 13 4 13.4477 4 14C4 14.5523 4.44772 15 5 15ZM20 14C20 14.5523 19.5523 15 19 15C18.4477 15 18 14.5523 18 14C18 13.4477 18.4477 13 19 13C19.5523 13 20 13.4477 20 14ZM12 8C12.5523 8 13 7.55228 13 7C13 6.44772 12.5523 6 12 6C11.4477 6 11 6.44772 11 7C11 7.55228 11.4477 8 12 8Z" fill="black"/>
</svg>
