<svg width="24" height="24" viewBox="0 0 24 24" fill="none" xmlns="http://www.w3.org/2000/svg">
<path fill-rule="evenodd" clip-rule="evenodd" d="M4 5C4 4.44772 4.44772 4 5 4H19C19.5523 4 20 4.44772 20 5V19C20 19.5523 19.5523 20 19 20H5C4.44772 20 4 19.5523 4 19V5ZM5 2C3.34315 2 2 3.34315 2 5V19C2 20.6569 3.34315 22 5 22H19C20.6569 22 22 20.6569 22 19V5C22 3.34315 20.6569 2 19 2H5ZM12 8C10.8954 8 10 8.89543 10 10C10 11.1046 10.8954 12 12 12C13.1046 12 14 11.1046 14 10C14 8.89543 13.1046 8 12 8ZM16 10C16 11.0119 15.6243 11.936 15.0048 12.6404C16.8571 13.5122 18 15.1742 18 17C18 17.5523 17.5523 18 17 18C16.4477 18 16 17.5523 16 17C16 15.6758 14.7049 14 12 14C9.29509 14 8 15.6758 8 17C8 17.5523 7.55228 18 7 18C6.44772 18 6 17.5523 6 17C6 15.1742 7.14292 13.5122 8.99524 12.6404C8.37571 11.936 8 11.0119 8 10C8 7.79086 9.79086 6 12 6C14.2091 6 16 7.79086 16 10Z" fill="black"/>
</svg>
