<svg width="24" height="24" viewBox="0 0 24 24" fill="none" xmlns="http://www.w3.org/2000/svg">
<path fill-rule="evenodd" clip-rule="evenodd" d="M3.22133 10.7782C3.23918 7.13286 6.21158 4.1605 9.85688 4.14266C13.4945 4.12485 16.4261 7.05637 16.4083 10.6941C16.4055 11.2744 16.328 11.8364 16.1855 12.3715C16.093 12.7184 16.1937 13.0882 16.4492 13.3405L17.4948 14.3729L15.4701 16.3977L13.6635 18.2043L13.4582 18.4095L12.4147 17.3659C12.1624 17.1136 11.7948 17.0149 11.4501 17.1067C10.915 17.2493 10.353 17.3268 9.77275 17.3296C6.1351 17.3474 3.20353 14.4159 3.22133 10.7782ZM12.2075 19.9792C12.7344 20.4047 13.4148 20.516 14.0221 20.3347L15.7169 21.8121L15.9952 22.0628C17.0259 22.9916 18.494 23.2556 19.7837 22.7441C20.7156 22.3746 21.4542 21.6358 21.8266 20.7076C22.347 19.4104 22.0866 17.9239 21.1481 16.8833L20.4161 16.0716L19.4211 14.9347C19.6016 14.3278 19.4902 13.648 19.0651 13.1216C19.0415 13.0925 19.0164 13.0646 18.9897 13.0383L18.2508 12.3087C18.3516 11.7881 18.4056 11.2515 18.4083 10.7039C18.4315 5.95394 14.5969 2.11943 9.84709 2.14268C5.10488 2.1659 1.24457 6.02614 1.22136 10.7684C1.19811 15.5183 5.03269 19.3528 9.78254 19.3296C10.3317 19.3269 10.8696 19.2726 11.3916 19.1712L12.1287 19.9083C12.1537 19.9333 12.18 19.957 12.2075 19.9792ZM19.0464 20.885C18.6337 21.0487 18.1806 21.0366 17.7858 20.8667L19.7322 18.3048C20.1001 18.7703 20.1944 19.4046 19.9704 19.963C19.8014 20.3841 19.466 20.7186 19.0464 20.885ZM15.5714 19.0747L16.5158 19.9139L18.6403 16.9775L17.8275 16.0464L15.5714 19.0747Z" fill="black"/>
</svg>
