<svg width="24" height="24" viewBox="0 0 24 24" fill="none" xmlns="http://www.w3.org/2000/svg">
<path fill-rule="evenodd" clip-rule="evenodd" d="M3 12C3 7.02944 7.02944 3 12 3C16.9706 3 21 7.02944 21 12C21 16.9706 16.9706 21 12 21C7.02944 21 3 16.9706 3 12ZM12 1C5.92487 1 1 5.92487 1 12C1 18.0751 5.92487 23 12 23C18.0751 23 23 18.0751 23 12C23 5.92487 18.0751 1 12 1ZM10 8.5C10 7.39543 10.8954 6.5 12 6.5C13.1046 6.5 14 7.39543 14 8.5C14 9.60457 13.1046 10.5 12 10.5C10.8954 10.5 10 9.60457 10 8.5ZM12 4.5C9.79086 4.5 8 6.29086 8 8.5C8 8.96234 8.07844 9.40635 8.22274 9.81947C6.37017 10.169 4.96887 11.7958 4.96887 13.75C4.96887 15.9591 6.75973 17.75 8.96887 17.75C10.1806 17.75 11.2665 17.2112 12 16.3601C12.7335 17.2112 13.8194 17.75 15.0311 17.75C17.2403 17.75 19.0311 15.9591 19.0311 13.75C19.0311 11.7958 17.6298 10.169 15.7773 9.81947C15.9216 9.40635 16 8.96234 16 8.5C16 6.29086 14.2091 4.5 12 4.5ZM15.0311 11.75C13.9266 11.75 13.0311 12.6454 13.0311 13.75C13.0311 14.8546 13.9266 15.75 15.0311 15.75C16.1357 15.75 17.0311 14.8546 17.0311 13.75C17.0311 12.6454 16.1357 11.75 15.0311 11.75ZM6.96887 13.75C6.96887 12.6454 7.8643 11.75 8.96887 11.75C10.0734 11.75 10.9689 12.6454 10.9689 13.75C10.9689 14.8546 10.0734 15.75 8.96887 15.75C7.8643 15.75 6.96887 14.8546 6.96887 13.75Z" fill="black"/>
</svg>
