<svg width="24" height="24" viewBox="0 0 24 24" fill="none" xmlns="http://www.w3.org/2000/svg">
<path fill-rule="evenodd" clip-rule="evenodd" d="M13.75 5C13.75 5.9665 12.9665 6.75 12 6.75C11.0335 6.75 10.25 5.9665 10.25 5C10.25 4.0335 11.0335 3.25 12 3.25C12.9665 3.25 13.75 4.0335 13.75 5ZM13.75 19C13.75 19.9665 12.9665 20.75 12 20.75C11.0335 20.75 10.25 19.9665 10.25 19C10.25 18.0335 11.0335 17.25 12 17.25C12.9665 17.25 13.75 18.0335 13.75 19ZM12 13.75C12.9665 13.75 13.75 12.9665 13.75 12C13.75 11.0335 12.9665 10.25 12 10.25C11.0335 10.25 10.25 11.0335 10.25 12C10.25 12.9665 11.0335 13.75 12 13.75Z" fill="black"/>
</svg>
