<svg width="24" height="24" viewBox="0 0 24 24" fill="none" xmlns="http://www.w3.org/2000/svg">
<path fill-rule="evenodd" clip-rule="evenodd" d="M9.20711 14.7929C11.5251 17.111 13.6781 18.4033 15.2802 19.121C16.6787 19.7475 18.3296 19.2562 19.6167 17.9691L19.9114 17.6744L16.3752 15.4241C15.7026 16.4048 14.4319 16.979 13.1632 16.4434C12.2017 16.0376 10.9302 15.3445 9.7929 14.2071C8.65557 13.0698 7.96243 11.7983 7.55659 10.8369C7.02105 9.56817 7.59528 8.29741 8.57591 7.62479L6.32562 4.08863L6.0309 4.38335C4.74381 5.67044 4.25256 7.32131 4.87905 8.71986C5.59671 10.322 6.88908 12.4749 9.20711 14.7929ZM14.4626 20.9462C12.6479 20.1334 10.2905 18.7047 7.7929 16.2071C5.29532 13.7096 3.86668 11.3521 3.05381 9.53748C1.9781 7.13609 2.95955 4.62627 4.61669 2.96913L4.91141 2.67441C5.81615 1.76967 7.32602 1.93541 8.01294 3.01488L10.8437 7.46315C10.9957 7.70201 11.0393 7.99411 10.9637 8.26696C10.8881 8.53981 10.7005 8.76784 10.4472 8.89446L9.81354 9.2113C9.38171 9.42721 9.2931 9.80786 9.39916 10.0591C9.73804 10.8619 10.3046 11.8904 11.2071 12.7929C12.1097 13.6955 13.1381 14.262 13.9409 14.6009C14.1922 14.7069 14.5728 14.6183 14.7887 14.1865L15.1056 13.5528C15.2322 13.2996 15.4602 13.1119 15.7331 13.0363C16.0059 12.9607 16.298 13.0044 16.5369 13.1564L20.9852 15.9871C22.0646 16.674 22.2304 18.1839 21.3256 19.0886L21.0309 19.3833C19.3738 21.0405 16.8639 22.0219 14.4626 20.9462Z" fill="black"/>
</svg>
