<svg width="24" height="24" viewBox="0 0 24 24" fill="none" xmlns="http://www.w3.org/2000/svg">
<path fill-rule="evenodd" clip-rule="evenodd" d="M9.03065 1.88465C10.2102 0.705118 12.1226 0.705114 13.3021 1.88465L14.9706 3.55314C15.1117 3.34254 15.2752 3.14261 15.461 2.95684C17.0025 1.41535 19.5017 1.41535 21.0432 2.95684C22.5847 4.49833 22.5847 6.99759 21.0432 8.53908C20.8574 8.72486 20.6575 8.88833 20.4469 9.02944L22.1153 10.6979C23.2949 11.8774 23.2949 13.7898 22.1153 14.9693L20.4286 16.6561C19.9519 17.1328 19.3279 17.0824 18.9512 16.9234C18.5782 16.766 18.1803 16.4042 18.0897 15.8508C18.0262 15.4628 17.8455 15.0915 17.5451 14.7911C16.7847 14.0306 15.5518 14.0306 14.7913 14.7911C14.0309 15.5515 14.0309 16.7844 14.7913 17.5449C15.0917 17.8453 15.4631 18.0259 15.8511 18.0895C16.4044 18.1801 16.7662 18.578 16.9237 18.9509C17.0827 19.3276 17.133 19.9517 16.6563 20.4284L14.9693 22.1153C13.7898 23.2949 11.8774 23.2949 10.6979 22.1153L9.02946 20.4469C8.88837 20.6575 8.72492 20.8574 8.53918 21.0431C6.99768 22.5846 4.49843 22.5846 2.95694 21.0431C1.41544 19.5016 1.41544 17.0024 2.95694 15.4609C3.14268 15.2751 3.34256 15.1117 3.55312 14.9706L1.88465 13.3021L2.59176 12.595L1.88465 13.3021C0.705116 12.1226 0.705116 10.2102 1.88465 9.03065L3.5716 7.3437C4.04836 6.86695 4.67244 6.91735 5.04911 7.07637C5.42205 7.23383 5.81998 7.59567 5.91057 8.14903C5.9741 8.53705 6.15475 8.90846 6.45515 9.20886C7.21559 9.96931 8.44851 9.96931 9.20896 9.20886C9.96941 8.44842 9.96941 7.21549 9.20896 6.45505C8.90856 6.15465 8.53715 5.974 8.14912 5.91048C7.59577 5.81989 7.23392 5.42196 7.07647 5.04902C6.91745 4.67234 6.86705 4.04826 7.3438 3.57151L9.03065 1.88465ZM11.8879 3.29886C11.4894 2.90038 10.8434 2.90038 10.4449 3.29887L9.49329 4.25044C9.90274 4.4403 10.2863 4.70391 10.6232 5.04083C12.1647 6.58233 12.1647 9.08158 10.6232 10.6231C9.08168 12.1646 6.58243 12.1646 5.04093 10.6231C4.70401 10.2862 4.4404 9.90264 4.25054 9.4932L3.29887 10.4449C2.90038 10.8434 2.90038 11.4894 3.29887 11.8879L6.03809 14.6271C6.30601 14.8951 6.3995 15.2914 6.27956 15.6508C6.15962 16.0102 5.84685 16.271 5.47173 16.3243C5.06889 16.3816 4.68191 16.5643 4.37115 16.8751C3.6107 17.6355 3.6107 18.8685 4.37115 19.6289C5.13159 20.3894 6.36452 20.3894 7.12496 19.6289C7.43573 19.3181 7.6185 18.9312 7.67577 18.5283C7.72909 18.1532 7.98985 17.8404 8.34926 17.7205C8.70867 17.6006 9.105 17.6941 9.37292 17.962L12.1121 20.7011C12.5106 21.0996 13.1566 21.0996 13.5551 20.7011L14.5068 19.7494C14.0974 19.5596 13.714 19.296 13.3771 18.9591C11.8356 17.4176 11.8356 14.9184 13.3771 13.3769C14.9186 11.8354 17.4179 11.8354 18.9593 13.3769C19.2962 13.7137 19.5598 14.0972 19.7497 14.5066L20.7011 13.5551C21.0996 13.1566 21.0996 12.5106 20.7011 12.1121L17.9619 9.37285C17.694 9.10492 17.6005 8.70858 17.7204 8.34916C17.8404 7.98974 18.1532 7.72899 18.5283 7.67569C18.9312 7.61844 19.3182 7.43566 19.629 7.12487C20.3895 6.36442 20.3895 5.1315 19.629 4.37105C18.8686 3.61061 17.6356 3.61061 16.8752 4.37105C16.5644 4.68184 16.3816 5.06887 16.3244 5.47174C16.2711 5.84688 16.0103 6.15967 15.6509 6.27962C15.2915 6.39957 14.8951 6.30609 14.6272 6.03816L11.8879 3.29886Z" fill="black"/>
</svg>
