<svg width="24" height="24" viewBox="0 0 24 24" fill="none" xmlns="http://www.w3.org/2000/svg">
<path d="M15.2929 9.70711C15.6834 10.0976 16.3166 10.0976 16.7071 9.70711C17.0976 9.31658 17.0976 8.68342 16.7071 8.29289L15.2929 9.70711ZM12 5L12.7071 4.29289C12.3166 3.90237 11.6834 3.90237 11.2929 4.29289L12 5ZM7.29289 8.29289C6.90237 8.68342 6.90237 9.31658 7.29289 9.70711C7.68342 10.0976 8.31658 10.0976 8.70711 9.70711L7.29289 8.29289ZM16.7071 8.29289L12.7071 4.29289L11.2929 5.70711L15.2929 9.70711L16.7071 8.29289ZM11.2929 4.29289L7.29289 8.29289L8.70711 9.70711L12.7071 5.70711L11.2929 4.29289Z" fill="black"/>
<path d="M8.70711 14.2929C8.31658 13.9024 7.68342 13.9024 7.29289 14.2929C6.90237 14.6834 6.90237 15.3166 7.29289 15.7071L8.70711 14.2929ZM12 19L11.2929 19.7071C11.6834 20.0976 12.3166 20.0976 12.7071 19.7071L12 19ZM16.7071 15.7071C17.0976 15.3166 17.0976 14.6834 16.7071 14.2929C16.3166 13.9024 15.6834 13.9024 15.2929 14.2929L16.7071 15.7071ZM7.29289 15.7071L11.2929 19.7071L12.7071 18.2929L8.70711 14.2929L7.29289 15.7071ZM12.7071 19.7071L16.7071 15.7071L15.2929 14.2929L11.2929 18.2929L12.7071 19.7071Z" fill="black"/>
</svg>
