<svg width="24" height="24" viewBox="0 0 24 24" fill="none" xmlns="http://www.w3.org/2000/svg">
<path fill-rule="evenodd" clip-rule="evenodd" d="M4 5C4 4.44772 4.44772 4 5 4H11.1716C11.4368 4 11.6911 4.10536 11.8787 4.29289L19.8787 12.2929C20.2692 12.6834 20.2692 13.3166 19.8787 13.7071L13.7071 19.8787C13.3166 20.2692 12.6834 20.2692 12.2929 19.8787L4.29289 11.8787C4.10536 11.6911 4 11.4368 4 11.1716V5ZM5 2C3.34315 2 2 3.34315 2 5L2 11.1716C2 11.9672 2.31607 12.7303 2.87868 13.2929L10.8787 21.2929C12.0503 22.4645 13.9497 22.4645 15.1213 21.2929L21.2929 15.1213C22.4645 13.9497 22.4645 12.0503 21.2929 10.8787L13.2929 2.87868C12.7303 2.31607 11.9672 2 11.1716 2H5ZM8 10C9.10457 10 10 9.10457 10 8C10 6.89543 9.10457 6 8 6C6.89543 6 6 6.89543 6 8C6 9.10457 6.89543 10 8 10Z" fill="black"/>
</svg>
