<svg width="24" height="24" viewBox="0 0 24 24" fill="none" xmlns="http://www.w3.org/2000/svg">
<path fill-rule="evenodd" clip-rule="evenodd" d="M7 5C6.44772 5 6 5.44772 6 6V7H9V6C9 5.44772 8.55228 5 8 5H7ZM11 7V6C11 4.34315 9.65685 3 8 3H7C5.34315 3 4 4.34315 4 6V7.17071C2.83481 7.58254 2 8.69378 2 10V17C2 18.6569 3.34315 20 5 20H19C20.6569 20 22 18.6569 22 17V10C22 8.69378 21.1652 7.58254 20 7.17071V6C20 4.34315 18.6569 3 17 3H16C14.3431 3 13 4.34315 13 6V7H11ZM15 7H18V6C18 5.44772 17.5523 5 17 5H16C15.4477 5 15 5.44772 15 6V7ZM5 9C4.44772 9 4 9.44772 4 10V17C4 17.5523 4.44772 18 5 18H19C19.5523 18 20 17.5523 20 17V10C20 9.44772 19.5523 9 19 9H14H10H5Z" fill="black"/>
</svg>
