<svg width="24" height="24" fill="none" xmlns="http://www.w3.org/2000/svg"><path fill-rule="evenodd" clip-rule="evenodd" d="M7.066 6.574C5.713 7.53 5 8.755 5 10c0 .813.301 1.611.885 2.335A3.992 3.992 0 0 1 7.5 12c1.682 0 3.434 1.104 3.498 2.898.485.067.987.102 1.502.102 2.165 0 4.083-.621 5.434-1.574C19.287 12.47 20 11.245 20 10s-.713-2.47-2.066-3.426C16.584 5.621 14.665 5 12.5 5s-4.083.621-5.434 1.574zm3.229 10.238c.709.123 1.447.188 2.205.188 2.529 0 4.861-.722 6.587-1.94C20.811 13.843 22 12.069 22 10c0-2.069-1.19-3.843-2.913-5.06C17.361 3.722 15.03 3 12.5 3s-4.861.722-6.587 1.94C4.189 6.157 3 7.931 3 10c0 1.367.522 2.61 1.373 3.645A2.656 2.656 0 0 0 4 15c0 1.81 1.703 2.945 3.378 2.998-.223.093-.525.18-.934.245-2.317.363-3.58 1.141-4.134 2.15a2.448 2.448 0 0 0-.306 1.331 2.296 2.296 0 0 0 .127.625l.008.019.003.008.002.004v.002s.001.002.925-.382l-.924.384a1 1 0 0 0 1.863-.729.45.45 0 0 1 .055-.3c.112-.204.614-.81 2.69-1.136 1.674-.263 2.636-.952 3.056-1.855a2.467 2.467 0 0 0 .218-1.283c.095-.084.184-.174.268-.269zM7.5 14c-.489 0-.895.162-1.158.379-.25.206-.342.43-.342.621 0 .356.452 1 1.5 1 .352 0 .665-.085.912-.216.275-.146.444-.335.524-.507A.647.647 0 0 0 9 15c0-.356-.452-1-1.5-1z" fill="#000"/></svg>