<svg width="24" height="24" fill="none" xmlns="http://www.w3.org/2000/svg"><path fill-rule="evenodd" clip-rule="evenodd" d="M18.264 11.646l-7.072-7.071L9.446 6.32l7.07 7.072 1.748-1.747zm-14.85.707l4.618-4.617 7.07 7.07-4.617 4.618-7.07-7.07zm13.81 3.16l2.17-2.17.046.095.616 1.26c-.225.965-.465 1.607-.659 2.126-.23.619-.397 1.064-.397 1.676 0 1.173.5 2 1.5 2s1.5-.5 1.5-2c0-.612-.166-1.057-.397-1.676-.15-.402-.329-.879-.506-1.522l.236-2.196c.166-1.54.1-3.114-.902-4.263-.49-.563-.873-.783-1.404-1.087-.177-.101-.37-.212-.59-.348-.98-.609-2.8-1.862-6.606-5.017a1 1 0 0 0-1.346.063l-3.16 3.16-6.032 6.032a1 1 0 0 0 0 1.414l8.485 8.486a1 1 0 0 0 1.414 0l6.032-6.032z" fill="#000"/></svg>