<svg width="24" height="24" fill="none" xmlns="http://www.w3.org/2000/svg"><path fill-rule="evenodd" clip-rule="evenodd" d="M4.896 3.082a1 1 0 0 0-1.103.211l-1.5 1.5a1 1 0 0 0-.211 1.103m2.814-2.814C5.645 3.4 6.4 3.707 7.158 4c1.302.504 2.878 1.07 4.085 1.372 1.247.312 2.534.46 3.787.804 1.264.347 2.47.91 3.677 2.116 1.706 1.706 1.964 3.928 1.851 5.586a11.39 11.39 0 0 1-.417 2.348l.609.609a2 2 0 0 1 0 2.828L18.414 22a2 2 0 0 1-2.828 0l-.846-.846a9.544 9.544 0 0 1-2.105.404c-1.566.116-3.65-.158-5.342-1.85-1.207-1.207-1.769-2.414-2.116-3.678-.342-1.246-.49-2.535-.804-3.787-.302-1.207-.868-2.783-1.372-4.085a73.13 73.13 0 0 0-.92-2.262M14.6 19.084a1 1 0 0 1 1.108.209L17 20.586l2.336-2.336-1.043-1.043a1 1 0 0 1-.225-1.07c.287-.76.44-1.588.495-2.394.094-1.385-.147-2.913-1.27-4.036-.915-.915-1.794-1.327-2.793-1.601-1.23-.338-2.505-.483-3.742-.793-1.423-.355-3.226-1.017-4.577-1.546l4.526 4.526a3 3 0 1 1-1.414 1.414L4.766 7.18c.53 1.351 1.192 3.154 1.547 4.577.31 1.237.455 2.512.793 3.743.274.998.686 1.877 1.601 2.792 1.136 1.136 2.553 1.361 3.78 1.27a6.928 6.928 0 0 0 2.112-.48zM12 12A1 1 0 1 0 11.999 14 1 1 0 0 0 12 12z" fill="#000"/></svg>