<svg width="24" height="24" viewBox="0 0 24 24" fill="none" xmlns="http://www.w3.org/2000/svg">
<path fill-rule="evenodd" clip-rule="evenodd" d="M4 3C4.55228 3 5 3.44772 5 4V20C5 20.5523 4.55228 21 4 21C3.44772 21 3 20.5523 3 20V4C3 3.44772 3.44772 3 4 3ZM10 15C9.44772 15 9 15.4477 9 16C9 16.5523 9.44772 17 10 17H12C12.5523 17 13 16.5523 13 16C13 15.4477 12.5523 15 12 15H10ZM7 16C7 14.3431 8.34315 13 10 13H12C13.6569 13 15 14.3431 15 16C15 17.6569 13.6569 19 12 19H10C8.34315 19 7 17.6569 7 16ZM9 8C9 7.44772 9.44772 7 10 7H18C18.5523 7 19 7.44772 19 8C19 8.55228 18.5523 9 18 9H10C9.44772 9 9 8.55228 9 8ZM10 5C8.34315 5 7 6.34315 7 8C7 9.65685 8.34315 11 10 11H18C19.6569 11 21 9.65685 21 8C21 6.34315 19.6569 5 18 5H10Z" fill="black"/>
</svg>
