<svg width="24" height="24" viewBox="0 0 24 24" fill="none" xmlns="http://www.w3.org/2000/svg">
<path fill-rule="evenodd" clip-rule="evenodd" d="M12 3C12.5523 3 13 3.44772 13 4V5H17C18.6569 5 20 6.34315 20 8C20 9.65685 18.6569 11 17 11H13V13H14C15.6569 13 17 14.3431 17 16C17 17.6569 15.6569 19 14 19H13V20C13 20.5523 12.5523 21 12 21C11.4477 21 11 20.5523 11 20V19H10C8.34315 19 7 17.6569 7 16C7 14.3431 8.34315 13 10 13H11V11H7C5.34315 11 4 9.65685 4 8C4 6.34315 5.34315 5 7 5H11V4C11 3.44772 11.4477 3 12 3ZM7 7C6.44772 7 6 7.44772 6 8C6 8.55228 6.44772 9 7 9H12H17C17.5523 9 18 8.55228 18 8C18 7.44772 17.5523 7 17 7H12H7ZM10 15C9.44772 15 9 15.4477 9 16C9 16.5523 9.44772 17 10 17H12H14C14.5523 17 15 16.5523 15 16C15 15.4477 14.5523 15 14 15H12H10Z" fill="black"/>
</svg>
