<svg width="24" height="24" viewBox="0 0 24 24" fill="none" xmlns="http://www.w3.org/2000/svg">
<path fill-rule="evenodd" clip-rule="evenodd" d="M5 6C5 4.34315 6.34315 3 8 3C9.65685 3 11 4.34315 11 6V14C11 15.6569 9.65685 17 8 17C6.34315 17 5 15.6569 5 14V6ZM8 5C7.44772 5 7 5.44772 7 6V14C7 14.5523 7.44772 15 8 15C8.55228 15 9 14.5523 9 14V6C9 5.44772 8.55228 5 8 5ZM3 20C3 19.4477 3.44772 19 4 19H20C20.5523 19 21 19.4477 21 20C21 20.5523 20.5523 21 20 21H4C3.44772 21 3 20.5523 3 20ZM16 9C14.3431 9 13 10.3431 13 12V14C13 15.6569 14.3431 17 16 17C17.6569 17 19 15.6569 19 14V12C19 10.3431 17.6569 9 16 9ZM15 12C15 11.4477 15.4477 11 16 11C16.5523 11 17 11.4477 17 12V14C17 14.5523 16.5523 15 16 15C15.4477 15 15 14.5523 15 14V12Z" fill="black"/>
</svg>
