<svg width="24" height="24" viewBox="0 0 24 24" fill="none" xmlns="http://www.w3.org/2000/svg">
<path fill-rule="evenodd" clip-rule="evenodd" d="M5 7C5 5.34315 6.34315 4 8 4C9.65685 4 11 5.34315 11 7V11H13V10C13 8.34315 14.3431 7 16 7C17.6569 7 19 8.34315 19 10V11H20C20.5523 11 21 11.4477 21 12C21 12.5523 20.5523 13 20 13H19V14C19 15.6569 17.6569 17 16 17C14.3431 17 13 15.6569 13 14V13H11V17C11 18.6569 9.65685 20 8 20C6.34315 20 5 18.6569 5 17V13H4C3.44772 13 3 12.5523 3 12C3 11.4477 3.44772 11 4 11H5V7ZM8 6C7.44772 6 7 6.44772 7 7V12V17C7 17.5523 7.44772 18 8 18C8.55228 18 9 17.5523 9 17V12V7C9 6.44772 8.55228 6 8 6ZM16 9C15.4477 9 15 9.44772 15 10V12V14C15 14.5523 15.4477 15 16 15C16.5523 15 17 14.5523 17 14V12V10C17 9.44772 16.5523 9 16 9Z" fill="black"/>
</svg>
