<svg width="24" height="24" viewBox="0 0 24 24" fill="none" xmlns="http://www.w3.org/2000/svg">
<path fill-rule="evenodd" clip-rule="evenodd" d="M20 3C20.5523 3 21 3.44772 21 4V20C21 20.5523 20.5523 21 20 21C19.4477 21 19 20.5523 19 20V4C19 3.44772 19.4477 3 20 3ZM12 15C11.4477 15 11 15.4477 11 16C11 16.5523 11.4477 17 12 17H14C14.5523 17 15 16.5523 15 16C15 15.4477 14.5523 15 14 15H12ZM9 16C9 14.3431 10.3431 13 12 13H14C15.6569 13 17 14.3431 17 16C17 17.6569 15.6569 19 14 19H12C10.3431 19 9 17.6569 9 16ZM5 8C5 7.44772 5.44772 7 6 7H14C14.5523 7 15 7.44772 15 8C15 8.55228 14.5523 9 14 9H6C5.44772 9 5 8.55228 5 8ZM6 5C4.34315 5 3 6.34315 3 8C3 9.65685 4.34315 11 6 11H14C15.6569 11 17 9.65685 17 8C17 6.34315 15.6569 5 14 5H6Z" fill="black"/>
</svg>
