<svg width="24" height="24" viewBox="0 0 24 24" fill="none" xmlns="http://www.w3.org/2000/svg">
<path fill-rule="evenodd" clip-rule="evenodd" d="M3 4C3 3.44772 3.44772 3 4 3H20C20.5523 3 21 3.44772 21 4C21 4.55228 20.5523 5 20 5H4C3.44772 5 3 4.55228 3 4ZM13 10C13 8.34315 14.3431 7 16 7C17.6569 7 19 8.34315 19 10V12C19 13.6569 17.6569 15 16 15C14.3431 15 13 13.6569 13 12V10ZM16 9C15.4477 9 15 9.44772 15 10V12C15 12.5523 15.4477 13 16 13C16.5523 13 17 12.5523 17 12V10C17 9.44772 16.5523 9 16 9ZM8 7C6.34315 7 5 8.34315 5 10V18C5 19.6569 6.34315 21 8 21C9.65685 21 11 19.6569 11 18V10C11 8.34315 9.65685 7 8 7ZM7 10C7 9.44772 7.44772 9 8 9C8.55228 9 9 9.44772 9 10V18C9 18.5523 8.55228 19 8 19C7.44772 19 7 18.5523 7 18V10Z" fill="black"/>
</svg>
