<svg width="24" height="24" viewBox="0 0 24 24" fill="none" xmlns="http://www.w3.org/2000/svg">
<path fill-rule="evenodd" clip-rule="evenodd" d="M18 5C17.4477 5 17 5.44772 17 6C17 6.55228 17.4477 7 18 7C18.5523 7 19 6.55228 19 6C19 5.44772 18.5523 5 18 5ZM15.1466 5.07115C15.5376 3.86894 16.6673 3 18 3C19.6569 3 21 4.34315 21 6C21 7.65685 19.6569 9 18 9C16.7244 9 15.6347 8.20384 15.2008 7.08132C10.9961 7.67896 7.67896 10.9961 7.08132 15.2008C8.20384 15.6347 9 16.7244 9 18C9 19.6569 7.65685 21 6 21C4.34315 21 3 19.6569 3 18C3 16.6673 3.86894 15.5376 5.07115 15.1466C5.71346 9.87853 9.87853 5.71347 15.1466 5.07115ZM6 17C5.44772 17 5 17.4477 5 18C5 18.5523 5.44772 19 6 19C6.55228 19 7 18.5523 7 18C7 17.4477 6.55228 17 6 17Z" fill="black"/>
</svg>
