<svg width="24" height="24" viewBox="0 0 24 24" fill="none" xmlns="http://www.w3.org/2000/svg">
<path fill-rule="evenodd" clip-rule="evenodd" d="M13 2C12.4477 2 12 2.44772 12 3C12 3.55228 12.4477 4 13 4H13.5C15.5185 4 17.339 5.21369 18.1154 7.07692L18.1886 7.25274L16.3511 6.56367C15.834 6.36975 15.2576 6.63176 15.0637 7.14888C14.8698 7.666 15.1318 8.24241 15.6489 8.43633L19.6489 9.93633C20.166 10.1302 20.7424 9.86824 20.9363 9.35112L22.4363 5.35112C22.6302 4.834 22.3682 4.25759 21.8511 4.06367C21.334 3.86975 20.7576 4.13176 20.5637 4.64888L19.951 6.2826C18.8583 3.68827 16.3168 2 13.5 2H13ZM2 8C2 6.89543 2.89543 6 4 6H12C12.5523 6 13 6.44772 13 7C13 7.55228 12.5523 8 12 8H4V16C4 16.5523 3.55228 17 3 17C2.44772 17 2 16.5523 2 16V8ZM6 12C6 10.8954 6.89543 10 8 10H16C17.1046 10 18 10.8954 18 12V20C18 21.1046 17.1046 22 16 22H8C6.89543 22 6 21.1046 6 20V12ZM16 12H8V20H16V12Z" fill="black"/>
</svg>
