<svg width="24" height="24" viewBox="0 0 24 24" fill="none" xmlns="http://www.w3.org/2000/svg">
<path fill-rule="evenodd" clip-rule="evenodd" d="M3.27742 2.95051C3.61521 2.70316 4.07132 2.69242 4.42038 2.92359C6.31168 4.17613 7.78416 4.64776 9.89618 4.64776C12.3444 4.64776 14.697 5.16992 16.4208 6.89368C17.0068 7.47968 17.4736 8.26387 17.8439 9.04722C18.2194 9.84167 18.5239 10.6967 18.7621 11.4722C19.0011 12.2502 19.1783 12.9647 19.2958 13.4843C19.354 13.7418 19.3979 13.9527 19.4276 14.1014L21.8491 17.2591C22.4597 18.0554 22.3858 19.1809 21.6763 19.8904L19.8608 21.7059C19.1257 22.441 17.95 22.4904 17.1559 21.8195L14.221 19.3401C14.0759 19.3227 13.8863 19.2983 13.662 19.2654C13.1328 19.188 12.404 19.0631 11.6073 18.8726C10.0785 18.5071 8.05907 17.8477 6.85187 16.6405C4.97789 14.7665 4.31299 12.5616 3.9451 10.3867C3.82041 9.64964 3.72534 8.8826 3.63258 8.13432C3.59115 7.80007 3.55018 7.46956 3.50725 7.14715C3.36482 6.07762 3.19499 5.04126 2.90669 4.032C2.79169 3.62944 2.93964 3.19785 3.27742 2.95051ZM16.1094 18.3172L18.4465 20.2917L20.262 18.4762L18.3907 16.0359L16.1094 18.3172ZM17.4042 14.194C17.3868 14.1126 17.367 14.0227 17.345 13.9255C17.2354 13.4407 17.0706 12.777 16.8502 12.0594C16.6291 11.3393 16.3568 10.5813 16.0357 9.9019C15.7093 9.21141 15.3596 8.6609 15.0066 8.30789C13.8216 7.12289 12.102 6.64776 9.89618 6.64776C8.15648 6.64776 6.74004 6.36263 5.3184 5.71849C5.38314 6.11144 5.43878 6.50037 5.48975 6.88314C5.53805 7.2459 5.58165 7.59799 5.62436 7.94286C5.71409 8.66746 5.79987 9.36022 5.91708 10.0531C6.25593 12.0563 6.81945 13.7796 8.26608 15.2263C9.04222 16.0024 10.5599 16.5659 12.0724 16.9275C12.7963 17.1005 13.4642 17.2152 13.9515 17.2865C14.0683 17.3036 14.1743 17.3181 14.2679 17.3303L17.4042 14.194Z" fill="black"/>
</svg>
