<svg width="24" height="24" viewBox="0 0 24 24" fill="none" xmlns="http://www.w3.org/2000/svg">
<path fill-rule="evenodd" clip-rule="evenodd" d="M12 3C11.7348 3 11.4804 3.10536 11.2929 3.29289C11.1054 3.48043 11 3.73478 11 4C11 4.11094 11.0184 4.21997 11.0536 4.32302C11.0656 4.34992 11.0764 4.37755 11.0861 4.40585C11.1354 4.51707 11.2052 4.6194 11.2929 4.70711C11.4804 4.89464 11.7348 5 12 5C12.2652 5 12.5196 4.89464 12.7071 4.70711C12.7948 4.6194 12.8646 4.51707 12.9139 4.40585C12.9236 4.37755 12.9344 4.34992 12.9464 4.32302C12.9816 4.21997 13 4.11094 13 4C13 3.73478 12.8946 3.48043 12.7071 3.29289C12.5196 3.10536 12.2652 3 12 3ZM14.9997 4.04218C14.9999 4.02813 15 4.01407 15 4C15 3.20435 14.6839 2.44129 14.1213 1.87868C13.5587 1.31607 12.7956 1 12 1C11.2044 1 10.4413 1.31607 9.87868 1.87868C9.31607 2.44129 9 3.20435 9 4C9 4.01407 9.0001 4.02813 9.0003 4.04218C7.8721 4.46716 6.84369 5.12865 5.98617 5.98617C5.12865 6.84369 4.46716 7.8721 4.04218 9.0003C4.02813 9.0001 4.01407 9 4 9C3.20435 9 2.44129 9.31607 1.87868 9.87868C1.31607 10.4413 1 11.2044 1 12C1 12.7956 1.31607 13.5587 1.87868 14.1213C2.44129 14.6839 3.20435 15 4 15C4.01407 15 4.02813 14.9999 4.04218 14.9997C4.46716 16.1279 5.12865 17.1563 5.98617 18.0138C6.84369 18.8713 7.8721 19.5328 9.0003 19.9578C9.0001 19.9719 9 19.9859 9 20C9 20.7957 9.31607 21.5587 9.87868 22.1213C10.4413 22.6839 11.2043 23 12 23C12.7957 23 13.5587 22.6839 14.1213 22.1213C14.6839 21.5587 15 20.7957 15 20C15 19.9859 14.9999 19.9719 14.9997 19.9578C16.1279 19.5328 17.1563 18.8713 18.0138 18.0138C18.8713 17.1563 19.5328 16.1279 19.9578 14.9997C19.9719 14.9999 19.9859 15 20 15C20.7957 15 21.5587 14.6839 22.1213 14.1213C22.6839 13.5587 23 12.7957 23 12C23 11.2043 22.6839 10.4413 22.1213 9.87868C21.5587 9.31607 20.7957 9 20 9C19.9859 9 19.9719 9.0001 19.9578 9.0003C19.5328 7.8721 18.8713 6.84369 18.0138 5.98617C17.1563 5.12865 16.1279 4.46716 14.9997 4.04218ZM14.3066 5.91829C14.2482 5.98847 14.1864 6.05624 14.1213 6.12132C13.5587 6.68393 12.7956 7 12 7C11.2044 7 10.4413 6.68393 9.87868 6.12132C9.8136 6.05624 9.75182 5.98847 9.69344 5.91829C8.83535 6.24343 8.05312 6.74764 7.40038 7.40038C6.74764 8.05312 6.24343 8.83535 5.91829 9.69344C5.98847 9.75182 6.05624 9.8136 6.12132 9.87868C6.68393 10.4413 7 11.2044 7 12C7 12.7956 6.68393 13.5587 6.12132 14.1213C6.05624 14.1864 5.98848 14.2482 5.91829 14.3066C6.24343 15.1646 6.74764 15.9469 7.40038 16.5996C8.05312 17.2524 8.83535 17.7566 9.69344 18.0817C9.75182 18.0115 9.8136 17.9438 9.87868 17.8787C10.4413 17.3161 11.2043 17 12 17C12.7957 17 13.5587 17.3161 14.1213 17.8787C14.1864 17.9438 14.2482 18.0115 14.3066 18.0817C15.1646 17.7566 15.9469 17.2524 16.5996 16.5996C17.2524 15.9469 17.7566 15.1646 18.0817 14.3066C18.0115 14.2482 17.9438 14.1864 17.8787 14.1213C17.3161 13.5587 17 12.7957 17 12C17 11.2043 17.3161 10.4413 17.8787 9.87868C17.9438 9.8136 18.0115 9.75182 18.0817 9.69344C17.7566 8.83535 17.2524 8.05312 16.5996 7.40038C15.9469 6.74764 15.1646 6.24343 14.3066 5.91829ZM19.5942 11.0861C19.4829 11.1354 19.3806 11.2052 19.2929 11.2929C19.1054 11.4804 19 11.7348 19 12C19 12.2652 19.1054 12.5196 19.2929 12.7071C19.3806 12.7948 19.4829 12.8646 19.5942 12.9139C19.6225 12.9236 19.6501 12.9344 19.677 12.9464C19.78 12.9816 19.8891 13 20 13C20.2652 13 20.5196 12.8946 20.7071 12.7071C20.8946 12.5196 21 12.2652 21 12C21 11.7348 20.8946 11.4804 20.7071 11.2929C20.5196 11.1054 20.2652 11 20 11C19.8891 11 19.78 11.0184 19.677 11.0536C19.6501 11.0656 19.6225 11.0764 19.5942 11.0861ZM12.9139 19.5942C12.8646 19.4829 12.7948 19.3806 12.7071 19.2929C12.5196 19.1054 12.2652 19 12 19C11.7348 19 11.4804 19.1054 11.2929 19.2929C11.2052 19.3806 11.1354 19.4829 11.0861 19.5942C11.0764 19.6225 11.0656 19.6501 11.0536 19.677C11.0184 19.78 11 19.8891 11 20C11 20.2652 11.1054 20.5196 11.2929 20.7071C11.4804 20.8946 11.7348 21 12 21C12.2652 21 12.5196 20.8946 12.7071 20.7071C12.8946 20.5196 13 20.2652 13 20C13 19.8891 12.9816 19.78 12.9464 19.677C12.9344 19.6501 12.9236 19.6225 12.9139 19.5942ZM4.40585 12.9139C4.51707 12.8646 4.6194 12.7948 4.70711 12.7071C4.89464 12.5196 5 12.2652 5 12C5 11.7348 4.89464 11.4804 4.70711 11.2929C4.6194 11.2052 4.51707 11.1354 4.40585 11.0861C4.37755 11.0764 4.34992 11.0656 4.32302 11.0536C4.21998 11.0184 4.11094 11 4 11C3.73478 11 3.48043 11.1054 3.29289 11.2929C3.10536 11.4804 3 11.7348 3 12C3 12.2652 3.10536 12.5196 3.29289 12.7071C3.48043 12.8946 3.73478 13 4 13C4.11094 13 4.21998 12.9816 4.32302 12.9464C4.34992 12.9344 4.37755 12.9236 4.40585 12.9139Z" fill="black"/>
</svg>
