<svg width="24" height="24" viewBox="0 0 24 24" fill="none" xmlns="http://www.w3.org/2000/svg">
<path fill-rule="evenodd" clip-rule="evenodd" d="M7 2C7.55228 2 8 2.44772 8 3V6H15C16.6569 6 18 7.34315 18 9V16H21C21.5523 16 22 16.4477 22 17C22 17.5523 21.5523 18 21 18H18V21C18 21.5523 17.5523 22 17 22C16.4477 22 16 21.5523 16 21V18H9C7.34315 18 6 16.6569 6 15V8H3C2.44772 8 2 7.55228 2 7C2 6.44772 2.44772 6 3 6H6V3C6 2.44772 6.44772 2 7 2ZM8 8V15C8 15.5523 8.44772 16 9 16H16V9C16 8.44772 15.5523 8 15 8H8Z" fill="black"/>
</svg>
