<svg width="24" height="24" viewBox="0 0 24 24" fill="none" xmlns="http://www.w3.org/2000/svg">
<path fill-rule="evenodd" clip-rule="evenodd" d="M5 3C5.55228 3 6 3.44772 6 4V20C6 20.5523 5.55228 21 5 21C4.44772 21 4 20.5523 4 20V4C4 3.44772 4.44772 3 5 3ZM19 3C19.5523 3 20 3.44772 20 4V20C20 20.5523 19.5523 21 19 21C18.4477 21 18 20.5523 18 20V4C18 3.44772 18.4477 3 19 3ZM12 7C10.3431 7 9 8.34315 9 10V14C9 15.6569 10.3431 17 12 17C13.6569 17 15 15.6569 15 14V10C15 8.34315 13.6569 7 12 7ZM11 10C11 9.44772 11.4477 9 12 9C12.5523 9 13 9.44772 13 10V14C13 14.5523 12.5523 15 12 15C11.4477 15 11 14.5523 11 14V10Z" fill="black"/>
</svg>
