<svg width="24" height="24" viewBox="0 0 24 24" fill="none" xmlns="http://www.w3.org/2000/svg">
<path fill-rule="evenodd" clip-rule="evenodd" d="M6.44721 2.10557C6.13723 1.95058 5.76909 1.96714 5.47427 2.14935C5.17945 2.33156 5 2.65342 5 3V10C5 10.5523 5.44772 11 6 11H20C20.4638 11 20.8667 10.6811 20.9732 10.2298C21.0798 9.77838 20.862 9.31298 20.4472 9.10557L6.44721 2.10557ZM7 9V4.61804L15.7639 9H7ZM5 14C5 13.4477 5.44772 13 6 13H20C20.4638 13 20.8667 13.3189 20.9732 13.7702C21.0798 14.2216 20.862 14.687 20.4472 14.8944L6.44721 21.8944C6.13723 22.0494 5.76909 22.0329 5.47427 21.8507C5.17945 21.6684 5 21.3466 5 21V14Z" fill="black"/>
</svg>
