<svg width="24" height="24" viewBox="0 0 24 24" fill="none" xmlns="http://www.w3.org/2000/svg">
<path fill-rule="evenodd" clip-rule="evenodd" d="M2.14935 19.5257C2.33156 19.8205 2.65342 20 3 20H10C10.5523 20 11 19.5523 11 19V4.99998C11 4.5362 10.6811 4.13328 10.2298 4.02673C9.77838 3.92017 9.31298 4.13795 9.10557 4.55276L2.10557 18.5528C1.95058 18.8628 1.96714 19.2309 2.14935 19.5257ZM4.61804 18L9 9.23604V18H4.61804ZM13 19C13 19.5523 13.4477 20 14 20H21C21.3466 20 21.6684 19.8205 21.8507 19.5257C22.0329 19.2309 22.0494 18.8628 21.8944 18.5528L14.8944 4.55276C14.687 4.13795 14.2216 3.92017 13.7702 4.02673C13.3189 4.13328 13 4.5362 13 4.99998V19Z" fill="black"/>
</svg>
