<svg width="24" height="24" viewBox="0 0 24 24" fill="none" xmlns="http://www.w3.org/2000/svg">
<path fill-rule="evenodd" clip-rule="evenodd" d="M7.06625 6.57433C5.71326 7.52938 4.99998 8.75523 4.99998 10C4.99998 10.8126 5.30124 11.6111 5.88503 12.3351C6.37586 12.1176 6.9275 12 7.49998 12C9.18156 12 10.934 13.1045 10.9982 14.898C11.4827 14.9648 11.9849 15 12.5 15C14.6654 15 16.5833 14.3789 17.9337 13.4257C19.2867 12.4706 20 11.2448 20 10C20 8.75523 19.2867 7.52938 17.9337 6.57433C16.5833 5.62113 14.6654 5 12.5 5C10.3346 5 8.41662 5.62113 7.06625 6.57433ZM10.2949 16.8124C11.0036 16.9352 11.7421 17 12.5 17C15.029 17 17.361 16.278 19.0871 15.0596C20.8105 13.8431 22 12.0689 22 10C22 7.93106 20.8105 6.15691 19.0871 4.94039C17.361 3.72202 15.029 3 12.5 3C9.97095 3 7.63892 3.72202 5.91289 4.94039C4.18948 6.15691 2.99998 7.93106 2.99998 10C2.99998 11.3665 3.5217 12.6101 4.37326 13.6452C4.14015 14.0417 3.99998 14.4998 3.99998 15C3.99998 16.8095 5.70284 17.9451 7.37774 17.9981C7.15485 18.0908 6.85286 18.1787 6.44366 18.2429C4.12709 18.6063 2.86414 19.384 2.30987 20.3921C2.03611 20.8899 1.98284 21.3664 2.00424 21.724C2.01482 21.9007 2.04344 22.0488 2.07197 22.1593C2.08631 22.2148 2.10088 22.2618 2.11364 22.2992C2.12004 22.318 2.12602 22.3345 2.13134 22.3485L2.13883 22.3678L2.14216 22.3761L2.14371 22.3799L2.14446 22.3817C2.14483 22.3826 2.14519 22.3835 3.06874 22L2.14519 22.3835C2.35697 22.8935 2.94215 23.1353 3.45221 22.9236C3.94933 22.7171 4.19164 22.1561 4.00754 21.6555C4.00558 21.6469 4.00214 21.629 4.00067 21.6045C3.99744 21.5506 4.00288 21.464 4.06241 21.3557C4.17472 21.1514 4.67673 20.5446 6.75367 20.2187C8.42679 19.9562 9.3892 19.2667 9.8091 18.3641C10.0053 17.9424 10.0459 17.5458 10.0381 17.2566C10.0364 17.1937 10.0324 17.1351 10.027 17.0814C10.1215 16.9971 10.2111 16.9074 10.2949 16.8124ZM7.49998 14C7.01129 14 6.60471 14.1624 6.34224 14.3786C6.09209 14.5846 5.99998 14.8092 5.99998 15C5.99998 15.3556 6.45178 16 7.49998 16C7.85216 16 8.16531 15.9153 8.41214 15.7841C8.68697 15.6381 8.85613 15.4487 8.93637 15.2772C8.97948 15.185 8.99998 15.0929 8.99998 15C8.99998 14.6444 8.54817 14 7.49998 14Z" fill="black"/>
</svg>
