<svg width="24" height="24" viewBox="0 0 24 24" fill="none" xmlns="http://www.w3.org/2000/svg">
<path fill-rule="evenodd" clip-rule="evenodd" d="M4.56681 3.09871C4.91328 2.93219 5.32452 2.979 5.6247 3.21914L10.4679 7.09367L17.2747 9.03849C17.4381 9.08517 17.5869 9.17273 17.7071 9.2929L20.7071 12.2929C21.0976 12.6834 21.0976 13.3166 20.7071 13.7071C20.3166 14.0976 19.6834 14.0976 19.2929 13.7071L17 11.4142L10.4142 18L12.7071 20.2929C13.0976 20.6834 13.0976 21.3166 12.7071 21.7071C12.3166 22.0977 11.6834 22.0977 11.2929 21.7071L8.29289 18.7071C8.17272 18.5869 8.08516 18.4381 8.03848 18.2747L6.10966 11.5239L4.2929 9.70713C4.10537 9.51959 4.00001 9.26524 4.00001 9.00002L4 4.00001C4 3.61561 4.22034 3.26523 4.56681 3.09871ZM8.12317 11.2911L9.49463 16.0912L15.0912 10.4946L10.291 9.12318L8.12317 11.2911ZM8.50287 8.08293L6 6.08064L6.00001 8.58581L7 9.5858L8.50287 8.08293Z" fill="black"/>
</svg>
