<svg width="24" height="24" viewBox="0 0 24 24" fill="none" xmlns="http://www.w3.org/2000/svg">
<path fill-rule="evenodd" clip-rule="evenodd" d="M18.2635 11.646L11.1924 4.57492L9.44588 6.32143L16.5169 13.3925L18.2635 11.646ZM3.41421 12.3531L8.03167 7.73565L15.1027 14.8067L10.4853 19.4242L3.41421 12.3531ZM17.2241 15.5138L19.3941 13.3438L19.4404 13.4385L20.0558 14.6984C19.831 15.6632 19.5913 16.3048 19.3973 16.8243C19.1664 17.4427 19 17.8882 19 18.5C19 19.6734 19.5 20.5 20.5 20.5C21.5 20.5 22 20 22 18.5C22 17.8882 21.8336 17.4427 21.6027 16.8243C21.4522 16.4215 21.2744 15.9453 21.0973 15.3019L21.3332 13.1064C21.4987 11.5654 21.4334 9.99227 20.4314 8.84284C19.9406 8.27981 19.5579 8.06042 19.0274 7.75634L19.0273 7.7563C18.8504 7.65487 18.657 7.54401 18.4376 7.40784C17.4574 6.79921 15.6368 5.54617 11.8306 2.39085C11.4332 2.06139 10.8503 2.08858 10.4853 2.4536L7.32456 5.61433L1.29289 11.646C0.902369 12.0365 0.902369 12.6697 1.29289 13.0602L9.77817 21.5455C10.1687 21.936 10.8019 21.936 11.1924 21.5455L17.2241 15.5138Z" fill="black"/>
</svg>
