<svg width="24" height="24" viewBox="0 0 24 24" fill="none" xmlns="http://www.w3.org/2000/svg">
<path fill-rule="evenodd" clip-rule="evenodd" d="M4.89612 3.08188C4.51987 2.91958 4.08267 3.00323 3.79292 3.29298L2.29292 4.79298C2.00317 5.08273 1.91951 5.51992 2.08181 5.89617C2.40095 6.6449 2.70688 7.39927 3.00084 8.15822C3.50512 9.46013 4.07142 11.0362 4.37303 12.2426C4.6862 13.4953 4.83493 14.7845 5.17697 16.0301C5.52398 17.2937 6.08637 18.5006 7.29292 19.7072C8.98533 21.3996 11.0688 21.6741 12.6346 21.558C13.5078 21.4933 14.249 21.3074 14.7402 21.1545L15.5858 22.0001C16.3669 22.7811 17.6332 22.7811 18.4142 22.0001L20.75 19.6643C21.5311 18.8833 21.5311 17.6169 20.75 16.8359L20.1407 16.2265C20.2945 15.6934 20.4917 14.8581 20.5584 13.8787C20.6712 12.2208 20.4129 9.99879 18.7071 8.29298C17.5006 7.08643 16.2937 6.52404 15.03 6.17704C13.7769 5.83292 12.4897 5.68488 11.2426 5.37311C10.0361 5.0715 8.46007 4.50519 7.15816 4.00091C6.3992 3.70694 5.64484 3.40101 4.89612 3.08188ZM14.5993 19.0839C14.9764 18.919 15.4161 19.0019 15.7071 19.293L17 20.5859L19.3358 18.2501L18.2929 17.2072C18.0124 16.9267 17.9243 16.507 18.0681 16.1375L18.0686 16.1362C18.3546 15.3768 18.5081 14.5491 18.563 13.7428C18.6573 12.3578 18.4155 10.8298 17.2929 9.7072C16.3782 8.79243 15.4993 8.37995 14.5004 8.10564C13.2704 7.76787 11.995 7.62276 10.7575 7.31339C9.3345 6.95764 7.53226 6.29575 6.18071 5.76656L10.7068 10.2926C11.0985 10.1053 11.5373 10.0001 12 10.0001C13.6569 10.0001 15 11.3432 15 13.0001C15 14.6569 13.6569 16.0001 12 16.0001C10.3432 16.0001 9.00003 14.6569 9.00003 13.0001C9.00003 12.5373 9.10522 12.0985 9.29259 11.7069L4.76649 7.18076C5.29568 8.53231 5.95757 10.3346 6.31332 11.7576C6.62269 12.9951 6.76779 14.2704 7.10557 15.5005C7.37988 16.4994 7.79237 17.3782 8.70714 18.293C9.84316 19.429 11.2597 19.6545 12.4867 19.5635C13.2022 19.5104 13.9335 19.3587 14.5993 19.0839ZM11 13.0001C11 13.5524 11.4477 14.0001 12 14.0001C12.5523 14.0001 13 13.5524 13 13.0001C13 12.4478 12.5523 12.0001 12 12.0001C11.4472 12.0001 11 12.4473 11 13.0001Z" fill="black"/>
</svg>
