<svg width="24" height="24" viewBox="0 0 24 24" fill="none" xmlns="http://www.w3.org/2000/svg">
<path fill-rule="evenodd" clip-rule="evenodd" d="M3.29185 3.294C3.58094 3.00403 4.0176 2.91959 4.39395 3.08088L10.6939 5.78088L18.3939 9.08088C18.5109 9.131 18.6172 9.20297 18.7071 9.29292L21.7071 12.2929C22.0977 12.6834 22.0977 13.3166 21.7071 13.7071C21.3166 14.0977 20.6834 14.0977 20.2929 13.7071L18.0063 11.4205L11.4839 18.0585L13.7089 20.2947C14.0985 20.6862 14.0969 21.3194 13.7054 21.7089C13.3139 22.0985 12.6807 22.0969 12.2911 21.7054L9.36877 18.7683C9.28036 18.6794 9.20944 18.5747 9.15971 18.4597L5.79793 10.6809L3.08209 4.39674C2.91965 4.02088 3.00276 3.58397 3.29185 3.294ZM10.406 16.302L16.2613 10.3428L10.5284 7.88587L7.90329 10.511L10.406 16.302ZM7.04978 8.53607L8.5485 7.03734L5.91414 5.90833L7.04978 8.53607Z" fill="black"/>
</svg>
