<svg width="24" height="24" viewBox="0 0 24 24" fill="none" xmlns="http://www.w3.org/2000/svg">
<path fill-rule="evenodd" clip-rule="evenodd" d="M6 5C5.44772 5 5 5.44772 5 6C5 6.55228 5.44772 7 6 7C6.55228 7 7 6.55228 7 6C7 5.44772 6.55228 5 6 5ZM3 6C3 4.34315 4.34315 3 6 3C7.30622 3 8.41746 3.83481 8.82929 5H15.1707C15.5825 3.83481 16.6938 3 18 3C19.6569 3 21 4.34315 21 6C21 7.30622 20.1652 8.41746 19 8.82929V15.1707C20.1652 15.5825 21 16.6938 21 18C21 19.6569 19.6569 21 18 21C16.6938 21 15.5825 20.1652 15.1707 19H8.82929C8.41746 20.1652 7.30622 21 6 21C4.34315 21 3 19.6569 3 18C3 16.6938 3.83481 15.5825 5 15.1707V8.82929C3.83481 8.41746 3 7.30622 3 6ZM7 8.82929V15.1707C7.85241 15.472 8.52801 16.1476 8.82929 17H15.1707C15.472 16.1476 16.1476 15.472 17 15.1707V8.82929C16.1476 8.52801 15.472 7.85241 15.1707 7H8.82929C8.52801 7.85241 7.85241 8.52801 7 8.82929ZM18 5C17.4477 5 17 5.44772 17 6C17 6.55228 17.4477 7 18 7C18.5523 7 19 6.55228 19 6C19 5.44772 18.5523 5 18 5ZM6 17C5.44772 17 5 17.4477 5 18C5 18.5523 5.44772 19 6 19C6.55228 19 7 18.5523 7 18C7 17.4477 6.55228 17 6 17ZM18 17C17.4477 17 17 17.4477 17 18C17 18.5523 17.4477 19 18 19C18.5523 19 19 18.5523 19 18C19 17.4477 18.5523 17 18 17Z" fill="black"/>
</svg>
