<svg width="24" height="24" viewBox="0 0 24 24" fill="none" xmlns="http://www.w3.org/2000/svg">
<path fill-rule="evenodd" clip-rule="evenodd" d="M15.9323 9.48196C15.9764 9.64718 16 9.82084 16 10V19C16 20.1046 15.1046 21 14 21H5C3.89543 21 3 20.1046 3 19V10C3 8.89543 3.89543 8 5 8H14C14.1792 8 14.3528 8.02356 14.518 8.06774L17.5858 5H16C15.4477 5 15 4.55228 15 4C15 3.44772 15.4477 3 16 3H20C20.5523 3 21 3.44772 21 4V8C21 8.55228 20.5523 9 20 9C19.4477 9 19 8.55228 19 8V6.41421L15.9323 9.48196ZM14 19H5V10H14V19Z" fill="black"/>
</svg>
