<svg width="24" height="24" viewBox="0 0 24 24" fill="none" xmlns="http://www.w3.org/2000/svg">
<path fill-rule="evenodd" clip-rule="evenodd" d="M18.3137 0.918778C18.6347 1.36819 18.5307 1.99274 18.0812 2.31375L16.4248 3.49692L17.2572 3.67529C20.0236 4.26809 22 6.71287 22 9.5421V10C22 10.5523 21.5523 11 21 11C20.4477 11 20 10.5523 20 10V9.5421C20 7.65595 18.6824 6.02609 16.8381 5.63089L15.9784 5.44667L16.8682 7.00388C17.1423 7.48339 16.9757 8.09425 16.4961 8.36826C16.0166 8.64227 15.4058 8.47567 15.1318 7.99616L13.1318 4.49616C12.8771 4.05058 13.0012 3.48458 13.4188 3.18629L16.9188 0.686284C17.3682 0.365274 17.9927 0.469365 18.3137 0.918778ZM6 12C6 10.8954 6.89543 10 8 10H16C17.1046 10 18 10.8954 18 12V20C18 21.1046 17.1046 22 16 22H8C6.89543 22 6 21.1046 6 20V12ZM16 20V12H8V20H16ZM4 6.00002C2.89543 6.00002 2 6.89545 2 8.00002V16C2 16.5523 2.44772 17 3 17C3.55228 17 4 16.5523 4 16V8.00002H12C12.5523 8.00002 13 7.5523 13 7.00002C13 6.44773 12.5523 6.00002 12 6.00002H4Z" fill="black"/>
</svg>
