<svg width="24" height="24" viewBox="0 0 24 24" fill="none" xmlns="http://www.w3.org/2000/svg">
<path fill-rule="evenodd" clip-rule="evenodd" d="M19.3137 0.918778C19.6347 1.36819 19.5307 1.99274 19.0812 2.31375L17.4248 3.49692L18.2572 3.67529C21.0236 4.26809 23 6.71287 23 9.5421V10C23 10.5523 22.5523 11 22 11C21.4477 11 21 10.5523 21 10V9.5421C21 7.65595 19.6824 6.02609 17.8381 5.63089L16.9784 5.44667L17.8682 7.00388C18.1423 7.48339 17.9757 8.09425 17.4961 8.36826C17.0166 8.64227 16.4058 8.47567 16.1318 7.99616L14.1318 4.49616C13.8771 4.05058 14.0012 3.48458 14.4188 3.18629L17.9188 0.686284C18.3682 0.365274 18.9927 0.469365 19.3137 0.918778ZM7 12C7 10.8954 7.89543 10 9 10H17C18.1046 10 19 10.8954 19 12V20C19 21.1046 18.1046 22 17 22H9C7.89543 22 7 21.1046 7 20V12ZM17 20V12H9V20H17ZM5 6.00002C3.89543 6.00002 3 6.89545 3 8.00002V16C3 16.5523 3.44772 17 4 17C4.55228 17 5 16.5523 5 16V8.00002H13C13.5523 8.00002 14 7.5523 14 7.00002C14 6.44773 13.5523 6.00002 13 6.00002H5Z" fill="black"/>
</svg>
