<svg width="24" height="24" viewBox="0 0 24 24" fill="none" xmlns="http://www.w3.org/2000/svg">
<path fill-rule="evenodd" clip-rule="evenodd" d="M12.2929 9.29289C11.9024 9.68342 11.9024 10.3166 12.2929 10.7071C12.6834 11.0976 13.3166 11.0976 13.7071 10.7071L16.7071 7.70711C17.0976 7.31658 17.0976 6.68342 16.7071 6.29289L13.7071 3.29289C13.3166 2.90237 12.6834 2.90237 12.2929 3.29289C11.9024 3.68342 11.9024 4.31658 12.2929 4.70711L13.5858 6H5.99999C5.4477 6 4.99999 6.44772 4.99999 7C4.99999 7.55228 5.4477 8 5.99999 8H13.5858L12.2929 9.29289ZM15.4197 21C16.1374 21 16.8001 20.6154 17.1562 19.9923L20.0133 14.9923C20.7752 13.659 19.8125 12 18.2768 12H8.58031C7.8626 12 7.19991 12.3846 6.84383 13.0077L3.98668 18.0077C3.22479 19.341 4.18752 21 5.72317 21H15.4197ZM15.4197 19H5.72317L8.58031 14H18.2768L15.4197 19Z" fill="black"/>
</svg>
