<svg width="24" height="24" viewBox="0 0 24 24" fill="none" xmlns="http://www.w3.org/2000/svg">
<path fill-rule="evenodd" clip-rule="evenodd" d="M17.7162 3C17.9839 3.0005 18.2402 3.1083 18.4278 3.29929L22.7135 7.66293C23.0983 8.05473 23.0951 8.68352 22.7064 9.07145L18.5565 13.2132L19.4213 14.0813C19.6091 14.2698 19.714 14.5253 19.7128 14.7914C19.7117 15.0575 19.6045 15.3121 19.4151 15.4989L14.1309 20.7119C13.9438 20.8965 13.6915 21 13.4286 21L2.00003 21C1.5975 21 1.23422 20.7587 1.0782 20.3876C0.922181 20.0165 1.00385 19.5881 1.28543 19.3005L12.1426 8.20955L12.1463 8.20575L12.1463 8.20576L17.0035 3.29666C17.1917 3.10637 17.4485 2.99951 17.7162 3ZM17.1449 11.7963L20.5915 8.35659L17.7117 5.42445L14.2663 8.90668L17.1449 11.7963ZM12.8634 10.3322L4.37834 19L13.0184 19L17.2952 14.7809L16.4344 13.9169L12.8634 10.3322Z" fill="black"/>
</svg>
