<svg width="24" height="24" fill="none" xmlns="http://www.w3.org/2000/svg"><path fill-rule="evenodd" clip-rule="evenodd" d="M9.414 3A2 2 0 008 3.586L3.586 8A2 2 0 003 9.414v5.172A2 2 0 003.586 16L8 20.414A2 2 0 009.414 21h5.172A2 2 0 0016 20.414L20.414 16A2 2 0 0021 14.586V9.414A2 2 0 0020.414 8L16 3.586A2 2 0 0014.586 3H9.414zm0 2h5.172L19 9.414v5.172L14.586 19H9.414L5 14.586V9.414L9.414 5zm.465 3.464A1 1 0 108.464 9.88L10.586 12l-2.122 2.121a1 1 0 101.415 1.415L12 13.414l2.121 2.122a1 1 0 101.415-1.415L13.414 12l2.122-2.121a1 1 0 10-1.415-1.415L12 10.586 9.879 8.464z" fill="#000"/></svg>