<svg width="24" height="24" fill="none" xmlns="http://www.w3.org/2000/svg"><path fill-rule="evenodd" clip-rule="evenodd" d="M19 1a3 3 0 0 0-3 3H8a6 6 0 0 0-6 6v7a3 3 0 0 0 3 3h14a3 3 0 0 0 3-3v-7c0-1.678-.69-3.196-1.8-4.285A3.1 3.1 0 0 0 22 2.9 1.9 1.9 0 0 0 20.1 1H19zm-3 5h-3.528A5.978 5.978 0 0 1 14 10v8h5a1 1 0 0 0 1-1v-7c0-1.48-.804-2.773-2-3.465V11a1 1 0 1 1-2 0V6zm2.9-2H18a1 1 0 0 1 1-1h.995A1.1 1.1 0 0 1 18.9 4zM4 10a4 4 0 1 1 8 0v8H5a1 1 0 0 1-1-1v-7zm2 0a1 1 0 1 0 0 2h4a1 1 0 1 0 0-2H6z" fill="#000"/></svg>