<svg width="24" height="24" fill="none" xmlns="http://www.w3.org/2000/svg"><path fill-rule="evenodd" clip-rule="evenodd" d="M18.312 23.351a10.443 10.443 0 0 1-2.185-1.151c-1.276.516-2.67.8-4.127.8-6.075 0-11-4.925-11-11S5.925 1 12 1s11 4.925 11 11c0 2.279-.694 4.398-1.882 6.155-.075 1.453.687 2.765 1.48 3.927.693 1.017.519 1.836-.774 1.91-.58.032-1.834-.005-3.512-.64zM3 12a9 9 0 1 1 18 0c0 1.95-.62 3.753-1.672 5.226-.466.652-.226 1.874-.066 2.575.155.68.491 1.404.824 2.011a8.87 8.87 0 0 1-1.065-.331 8.636 8.636 0 0 1-2.162-1.22 1 1 0 0 0-1.034-.112A8.962 8.962 0 0 1 12 21a9 9 0 0 1-9-9zm5-1.524C8 9.67 8.663 9 9.5 9c.838 0 1.5.67 1.5 1.476a1 1 0 1 0 2 0C13 9.67 13.662 9 14.5 9s1.5.67 1.5 1.476c0 .985-.575 2.08-1.536 3.202-.747.872-1.647 1.668-2.464 2.331-.817-.663-1.717-1.459-2.464-2.33C8.575 12.555 8 11.46 8 10.475zM9.5 7c.976 0 1.863.399 2.5 1.043A3.505 3.505 0 0 1 14.5 7c1.924 0 3.5 1.547 3.5 3.476 0 1.712-.96 3.27-2.017 4.504-1.077 1.257-2.393 2.335-3.369 3.095a1 1 0 0 1-1.228 0c-.976-.76-2.292-1.838-3.37-3.095C6.96 13.746 6 12.188 6 10.476 6 8.547 7.576 7 9.5 7z" fill="#000"/></svg>