<svg width="24" height="24" fill="none" xmlns="http://www.w3.org/2000/svg"><path fill-rule="evenodd" clip-rule="evenodd" d="M16.127 22.2c.581.398 1.32.823 2.185 1.151 1.678.636 2.932.674 3.512.64 1.293-.073 1.467-.892.773-1.91-.792-1.16-1.555-2.473-1.48-3.926A10.953 10.953 0 0 0 23 12c0-6.075-4.925-11-11-11S1 5.925 1 12s4.925 11 11 11c1.458 0 2.851-.284 4.127-.8zM12 3a9 9 0 0 0 0 18c1.37 0 2.665-.305 3.825-.85a1 1 0 0 1 1.034.111c.523.401 1.265.88 2.162 1.22.39.148.746.255 1.065.331-.333-.607-.67-1.33-.824-2.01-.16-.702-.4-1.924.066-2.576A8.954 8.954 0 0 0 21 12a9 9 0 0 0-9-9zm-2 8a1 1 0 0 1 1-1h1a1 1 0 0 1 1 1v6a1 1 0 1 1-2 0v-5a1 1 0 0 1-1-1zm2-2.5A1.25 1.25 0 1 0 12 6a1.25 1.25 0 0 0 0 2.5z" fill="#000"/></svg>