<svg width="24" height="24" fill="none" xmlns="http://www.w3.org/2000/svg"><path fill-rule="evenodd" clip-rule="evenodd" d="M18.312 23.351a10.443 10.443 0 0 1-2.185-1.151c-1.276.516-2.67.8-4.127.8-6.075 0-11-4.925-11-11S5.925 1 12 1s11 4.925 11 11c0 2.279-.694 4.398-1.882 6.155-.075 1.453.687 2.765 1.48 3.927.693 1.017.519 1.836-.774 1.91-.58.032-1.834-.005-3.512-.64zM3 12a9 9 0 1 1 18 0c0 1.95-.62 3.753-1.672 5.226-.466.652-.226 1.874-.066 2.575.155.68.491 1.404.824 2.011a8.87 8.87 0 0 1-1.065-.331 8.636 8.636 0 0 1-2.162-1.22 1 1 0 0 0-1.034-.112A8.962 8.962 0 0 1 12 21a9 9 0 0 1-9-9zm13.8-3.4a1 1 0 1 0-1.6-1.2l-5.308 7.078-2.185-2.185a1 1 0 0 0-1.414 1.414l3 3A1 1 0 0 0 10.8 16.6l6-8z" fill="#000"/></svg>