<svg width="24" height="24" fill="none" xmlns="http://www.w3.org/2000/svg"><path fill-rule="evenodd" clip-rule="evenodd" d="M2 3a1 1 0 0 1 1-1h14a1 1 0 0 1 1 1v7h-5a1 1 0 0 0-1 1v.1a1.9 1.9 0 0 1-1.9 1.9h-.2A1.9 1.9 0 0 1 8 11.1V11a1 1 0 0 0-1-1H2V3zm17 10a1 1 0 0 1-1-1h-4.104a3.902 3.902 0 0 1-3.796 3h-.2a3.902 3.902 0 0 1-3.796-3H2v5a1 1 0 0 0 1 1h8a1 1 0 1 1 0 2H3a3 3 0 0 1-3-3V3a3 3 0 0 1 3-3h14a3 3 0 0 1 3 3v9a1 1 0 0 1-1 1zm3.79 2.614a1 1 0 0 0-1.58-1.228l-3.983 5.122-1.533-1.478a1 1 0 1 0-1.388 1.44l2.333 2.25a1 1 0 0 0 1.484-.106l4.666-6z" fill="#000"/></svg>