<svg width="24" height="24" fill="none" xmlns="http://www.w3.org/2000/svg"><path fill-rule="evenodd" clip-rule="evenodd" d="M4 2a2 2 0 0 0-2 2v6c0 .768.289 1.47.764 2A2.989 2.989 0 0 0 2 14v5a3 3 0 0 0 3 3h14a3 3 0 0 0 3-3v-5c0-.768-.289-1.47-.764-2 .475-.53.764-1.232.764-2V4a2 2 0 0 0-2-2h-5a1 1 0 0 0-1 1v.1A1.9 1.9 0 0 1 12.1 5h-.2A1.9 1.9 0 0 1 10 3.1V3a1 1 0 0 0-1-1H4zm1 9h14a1 1 0 0 0 1-1V4h-4.104A3.902 3.902 0 0 1 12.1 7h-.2a3.902 3.902 0 0 1-3.796-3H4v6a1 1 0 0 0 1 1zm9 2h-4v.1c0 1.05.85 1.9 1.9 1.9h.2a1.9 1.9 0 0 0 1.9-1.9V13zm-6 0H5a1 1 0 0 0-1 1v5a1 1 0 0 0 1 1h14a1 1 0 0 0 1-1v-5a1 1 0 0 0-1-1h-3v.1a3.9 3.9 0 0 1-3.9 3.9h-.2A3.9 3.9 0 0 1 8 13.1V13z" fill="#000"/></svg>