<svg width="24" height="24" fill="none" xmlns="http://www.w3.org/2000/svg"><path fill-rule="evenodd" clip-rule="evenodd" d="M2 3a1 1 0 0 1 1-1h14a1 1 0 0 1 1 1v7h-5a1 1 0 0 0-1 1v.1a1.9 1.9 0 0 1-1.9 1.9h-.2A1.9 1.9 0 0 1 8 11.1V11a1 1 0 0 0-1-1H2V3zm17 10a1 1 0 0 1-1-1h-4.104a3.902 3.902 0 0 1-3.796 3h-.2a3.902 3.902 0 0 1-3.796-3H2v5a1 1 0 0 0 1 1h9a1 1 0 1 1 0 2H3a3 3 0 0 1-3-3V3a3 3 0 0 1 3-3h14a3 3 0 0 1 3 3v9a1 1 0 0 1-1 1zm1 2.5a1 1 0 1 0-2 0V18h-2.5a1 1 0 1 0 0 2H18v2.5a1 1 0 1 0 2 0V20h2.5a1 1 0 1 0 0-2H20v-2.5z" fill="#000"/></svg>