<svg width="24" height="24" fill="none" xmlns="http://www.w3.org/2000/svg"><path fill-rule="evenodd" clip-rule="evenodd" d="M2.8 4c-.935 0-1.753.47-2.256 1.168A2.904 2.904 0 0 0 0 6.867v10.266C0 18.682 1.22 20 2.8 20h7.4a1 1 0 1 0 0-2H2.8c-.408 0-.8-.353-.8-.867V7.948l5.78 6.362a3 3 0 0 0 4.44 0L18 7.948v4.185a1 1 0 1 0 2 0V6.867c0-.632-.2-1.221-.544-1.7A2.777 2.777 0 0 0 17.2 4H2.8zm6.46 8.965L2.933 6h14.134l-6.327 6.965a1 1 0 0 1-1.48 0zM15 17.867c0-.415.382-.867 1-.867s1 .452 1 .867a1 1 0 1 0 2 0c0-.415.382-.867 1-.867s1 .452 1 .867c0 .631-.399 1.393-1.161 2.231-.554.61-1.22 1.172-1.839 1.651-.62-.479-1.285-1.041-1.839-1.65-.762-.839-1.161-1.6-1.161-2.232zM16 15c.75 0 1.46.271 2 .73.54-.459 1.25-.73 2-.73 1.59 0 3 1.22 3 2.867 0 1.401-.83 2.64-1.681 3.577-.878.965-1.946 1.789-2.727 2.362a1 1 0 0 1-1.183 0c-.782-.573-1.85-1.397-2.728-2.362C13.83 20.507 13 19.268 13 17.867 13 16.22 14.41 15 16 15z" fill="#000"/></svg>