<svg width="24" height="24" fill="none" xmlns="http://www.w3.org/2000/svg"><path fill-rule="evenodd" clip-rule="evenodd" d="M2.8 4c-.935 0-1.753.47-2.256 1.168A2.904 2.904 0 0 0 0 6.867v10.266C0 18.682 1.22 20 2.8 20h8.4a1 1 0 1 0 0-2H2.8c-.408 0-.8-.353-.8-.867V7.948l5.78 6.362a3 3 0 0 0 4.44 0L18 7.948v5.185a1 1 0 1 0 2 0V6.867c0-.632-.2-1.221-.544-1.7A2.777 2.777 0 0 0 17.2 4H2.8zm6.46 8.965L2.933 6h14.134l-6.327 6.965a1 1 0 0 1-1.48 0zm13.53 3.649a1 1 0 0 0-1.58-1.228l-3.983 5.122-1.533-1.478a1 1 0 1 0-1.388 1.44l2.333 2.25a1 1 0 0 0 1.484-.106l4.666-6z" fill="#000"/></svg>