<svg width="24" height="24" fill="none" xmlns="http://www.w3.org/2000/svg"><path fill-rule="evenodd" clip-rule="evenodd" d="M2.8 3c-.935 0-1.753.47-2.256 1.168A2.904 2.904 0 0 0 0 5.867v10.266C0 17.682 1.22 19 2.8 19h7.4a1 1 0 1 0 0-2H2.8c-.408 0-.8-.353-.8-.867V6.948l5.78 6.362a3 3 0 0 0 4.44 0L18 6.948v4.185a1 1 0 1 0 2 0V5.867c0-.632-.2-1.221-.544-1.7A2.777 2.777 0 0 0 17.2 3H2.8zm6.46 8.965L2.933 5h14.134l-6.327 6.965a1 1 0 0 1-1.48 0zm9.033 8.328a1 1 0 0 0 1.414 1.414l3-3a1 1 0 0 0 0-1.414l-3-3a1 1 0 0 0-1.414 1.414L19.586 17H15a1 1 0 1 0 0 2h4.586l-1.293 1.293z" fill="#000"/></svg>