<svg width="24" height="24" fill="none" xmlns="http://www.w3.org/2000/svg"><path fill-rule="evenodd" clip-rule="evenodd" d="M19 0a3 3 0 0 0-3 3H7a6 6 0 0 0-6 6v9a3 3 0 0 0 3 3h16a3 3 0 0 0 3-3V9a5.988 5.988 0 0 0-2.204-4.647A3.095 3.095 0 0 0 22 1.9 1.9 1.9 0 0 0 20.1 0H19zm-3 5v5a1 1 0 1 0 2 0V5.126c1.725.444 3 2.01 3 3.874v9a1 1 0 0 1-1 1h-7V9a5.978 5.978 0 0 0-1.528-4H16zm2.9-2H18a1 1 0 0 1 1-1h.995A1.1 1.1 0 0 1 18.9 3zM3 9a4 4 0 1 1 8 0v10H4a1 1 0 0 1-1-1V9zm2 0a1 1 0 0 0 0 2h4a1 1 0 1 0 0-2H5z" fill="#000"/></svg>