<svg width="24" height="24" fill="none" xmlns="http://www.w3.org/2000/svg"><path fill-rule="evenodd" clip-rule="evenodd" d="M19 20a1 1 0 0 0 1-1v-7.773l-.336.298-5.67 5.041a3 3 0 0 1-3.987 0l-5.671-5.04-.336-.3V19a1 1 0 0 0 1 1h14zM6 10.329l5.336 4.742a1 1 0 0 0 1.328 0L18 10.33V6H6v4.329zm14-3.464l1.64 1.367A1 1 0 0 1 22 9v10a3 3 0 0 1-3 3H5a3 3 0 0 1-3-3V9a1 1 0 0 1 .36-.768L4 6.865V5a1 1 0 0 1 1-1h2.438l2.641-2.201a3 3 0 0 1 3.842 0L16.562 4H19a1 1 0 0 1 1 1v1.865zM13.438 4l-.798-.665a1 1 0 0 0-1.28 0L10.562 4h2.876z" fill="#000"/></svg>