<svg width="24" height="24" fill="none" xmlns="http://www.w3.org/2000/svg"><path fill-rule="evenodd" clip-rule="evenodd" d="M12 24a1 1 0 0 1-.753-.341L8.047 20H4a3 3 0 0 1-3-3V3a3 3 0 0 1 3-3h16a3 3 0 0 1 3 3v14a3 3 0 0 1-3 3h-4.046l-3.201 3.659A1 1 0 0 1 12 24zm0-2.519l2.747-3.14A1 1 0 0 1 15.5 18H20a1 1 0 0 0 1-1V3a1 1 0 0 0-1-1H4a1 1 0 0 0-1 1v14a1 1 0 0 0 1 1h4.5a1 1 0 0 1 .753.341L12 21.482zM12 12c-2.24 0-3.533 1.169-3.89 2.3a1 1 0 0 1-1.907-.6c.41-1.3 1.397-2.406 2.79-3.062a4 4 0 1 1 6.013 0c1.394.656 2.382 1.762 2.791 3.061a1 1 0 1 1-1.907.602C15.533 13.169 14.24 12 12 12zm-2-4a2 2 0 1 1 4 0 2 2 0 0 1-4 0z" fill="#000"/></svg>