<svg width="24" height="24" fill="none" xmlns="http://www.w3.org/2000/svg"><path fill-rule="evenodd" clip-rule="evenodd" d="M20.5 8a2.5 2.5 0 1 0 0-5 2.5 2.5 0 0 0 0 5zm1.5 9.133v-7.39a4.493 4.493 0 0 1-2 .23v7.16c0 .514-.392.867-.8.867H4.8c-.408 0-.8-.353-.8-.867V7.948l5.78 6.362a3 3 0 0 0 4.44 0l4.322-4.757A4.517 4.517 0 0 1 16.977 8.3l-4.237 4.665a1 1 0 0 1-1.48 0L4.933 6h11.095a4.537 4.537 0 0 1 .228-2H4.8c-.935 0-1.753.47-2.256 1.168A2.904 2.904 0 0 0 2 6.867v10.266C2 18.682 3.22 20 4.8 20h14.4c1.58 0 2.8-1.318 2.8-2.867z" fill="#000"/></svg>