<svg width="24" height="24" fill="none" xmlns="http://www.w3.org/2000/svg"><path fill-rule="evenodd" clip-rule="evenodd" d="M15.953 2.076a3.872 3.872 0 1 1 5.471 5.47l-6.13 5.62c-.127.117-.26.224-.4.322-.69.489-3.444 2.443-5.105 3.748-.94.74-2.248 1.872-3.331 2.83-.43.381-.823.732-1.14 1.016l.318.317a1 1 0 1 1-1.414 1.415l-1.06-1.061-1.415-1.414-1.06-1.06A1 1 0 1 1 2.1 17.863l.317.317c.284-.316.635-.708 1.016-1.139.959-1.084 2.09-2.39 2.83-3.331 1.305-1.661 3.26-4.415 3.748-5.106a4.03 4.03 0 0 1 .321-.398l5.62-6.131zM3.834 19.597l.069.069c.331-.299.758-.68 1.23-1.098 1.084-.96 2.43-2.125 3.42-2.905 1.708-1.341 4.504-3.325 5.187-3.808.072-.05.138-.104.202-.162l6.131-5.62a1.872 1.872 0 1 0-2.646-2.646l-5.62 6.131c-.058.064-.112.13-.162.202-.483.683-2.467 3.479-3.808 5.186-.78.992-1.946 2.337-2.905 3.421-.418.472-.8.899-1.098 1.23z" fill="#000"/></svg>