<svg width="24" height="24" fill="none" xmlns="http://www.w3.org/2000/svg"><path fill-rule="evenodd" clip-rule="evenodd" d="M4 19.826v-4.142l.046-.032C4.77 15.152 6.98 14 12 14s7.23 1.153 7.954 1.652l.046.032v4.142a.053.053 0 01-.006.01.253.253 0 01-.09.074c-.116.062-.213.043-.247.025A16.195 16.195 0 0012 18a16.195 16.195 0 00-7.657 1.935c-.034.018-.13.037-.248-.025a.254.254 0 01-.09-.074.059.059 0 01-.005-.01zm16.483-6.192a8.921 8.921 0 00-.651-.32l-2.204-6.98a6.99 6.99 0 012.825 4.72l.247 1.81a.997.997 0 01-.217.77zM14 3.013a9 9 0 018.434 7.771l.247 1.81a2.986 2.986 0 01-.713 2.379 1 1 0 01.032.25v4.603c0 .878-.55 1.527-1.158 1.85-.604.32-1.416.407-2.134.02A14.196 14.196 0 0012 20c-2.929 0-5.253.912-6.708 1.696-.718.387-1.53.3-2.134-.02C2.549 21.353 2 20.705 2 19.826v-4.604a1 1 0 01.032-.25 2.986 2.986 0 01-.713-2.377l.247-1.811A9 9 0 0110 3.013V3a1 1 0 011-1h2a1 1 0 011 1v.013zM6.372 6.334l-2.204 6.98a8.906 8.906 0 00-.65.32.997.997 0 01-.218-.77l.247-1.81a6.99 6.99 0 012.825-4.72zm.134 6.218l1.868-5.916a2 2 0 011.66-1.382l1.718-.215a2 2 0 01.496 0l1.719.215a2 2 0 011.659 1.382l1.868 5.916C16.102 12.23 14.304 12 12 12c-2.303 0-4.102.23-5.494.552zM4 19.826z" fill="#000"/></svg>