<svg width="24" height="24" fill="none" xmlns="http://www.w3.org/2000/svg"><path fill-rule="evenodd" clip-rule="evenodd" d="M7.5 5.385A9.963 9.963 0 019.95 11h4.1a9.963 9.963 0 012.45-5.615A7.959 7.959 0 0012 4a7.96 7.96 0 00-4.5 1.385zM18 6.708A7.964 7.964 0 0016.062 11h3.876A7.964 7.964 0 0018 6.708zM19.938 13h-3.876A7.964 7.964 0 0018 17.292 7.964 7.964 0 0019.938 13zM16.5 18.615A9.963 9.963 0 0114.05 13h-4.1a9.963 9.963 0 01-2.45 5.615A7.96 7.96 0 0012 20a7.96 7.96 0 004.5-1.385zM6 17.292A7.964 7.964 0 007.938 13H4.062A7.964 7.964 0 006 17.292zM4.062 11h3.876A7.965 7.965 0 006 6.708 7.965 7.965 0 004.062 11zm1.271-6.453A9.966 9.966 0 0112 2c2.56 0 4.898.964 6.667 2.547A9.978 9.978 0 0122 12a9.978 9.978 0 01-3.333 7.453A9.967 9.967 0 0112 22a9.967 9.967 0 01-6.667-2.547A9.978 9.978 0 012 12a9.978 9.978 0 013.333-7.453z" fill="#000"/></svg>