<svg width="24" height="24" fill="none" xmlns="http://www.w3.org/2000/svg"><path fill-rule="evenodd" clip-rule="evenodd" d="M7 2a2 2 0 00-2 2v4a2 2 0 00-2 2v9a3 3 0 003 3h12a3 3 0 003-3v-8.667c0-1.175-.87-2.148-2-2.31V4a2 2 0 00-2-2h-1a2 2 0 00-2 2 2 2 0 11-4 0 2 2 0 00-2-2H7zm0 2h1a4 4 0 108 0h1v4.333c0 .92.746 1.667 1.667 1.667.184 0 .333.15.333.333V19a1 1 0 01-1 1H6a1 1 0 01-1-1v-9a2 2 0 002-2V4zm6.646 10.763c1.152-.974 1.065-2.505.446-3.495a2.818 2.818 0 00-1.461-1.179c-.654-.226-1.389-.2-2.125.111l-.896.379a1 1 0 00.78 1.842l.895-.379c.319-.135.543-.114.692-.063a.822.822 0 01.42.35c.242.387.152.742-.043.908a3.147 3.147 0 01-.424.276c-.103.06-.213.12-.335.188l-.016.009c-.115.063-.238.132-.362.202-.472.27-1.15.68-1.555 1.263l-.021.03c-.297.464-.458.87-.545 1.185a2.858 2.858 0 00-.093.525 1.5 1.5 0 00-.002.049v.02L9 16.991V17L10 17H9a1 1 0 001 1h4a1 1 0 100-2h-2.35c.144-.103.329-.219.56-.351l.342-.192.013-.007c.12-.066.245-.136.365-.205.23-.133.495-.295.716-.482z" fill="#000"/></svg>