<svg width="24" height="24" fill="none" xmlns="http://www.w3.org/2000/svg"><path fill-rule="evenodd" clip-rule="evenodd" d="M12 0C8.252 0 5.27 1.342 3.22 3.12 1.21 4.861 0 7.115 0 9v5a3 3 0 0 0 3 3h2.289l.667 4.445A3 3 0 0 0 8.922 24h6.156a3 3 0 0 0 2.966-2.555L18.711 17H21a3 3 0 0 0 3-3V9c0-1.884-1.209-4.138-3.22-5.88C18.73 1.341 15.748 0 12 0zM5.242 14.347A1 1 0 0 1 6 14V8a2 2 0 0 1 2-2h8a2 2 0 0 1 2 2v6a1 1 0 0 1 1 1h2a1 1 0 0 0 1-1V9c0-1.116-.791-2.862-2.53-4.37C17.77 3.159 15.252 2 12 2S6.23 3.158 4.53 4.63C2.79 6.139 2 7.885 2 9v5a1 1 0 0 0 1 1h2a1 1 0 0 1 .242-.653zM16 8v6H8V8h8zM7.761 20l.172 1.148a1 1 0 0 0 .99.852h.444l-.25-2H7.761zm-.3-2h1.406l-.25-2H7.161l.3 2zm3.172-2l.25 2h2.234l.25-2h-2.734zm4.75 0l-.25 2h1.406l.3-2h-1.456zm.856 4h-1.356l-.25 2h.445a1 1 0 0 0 .989-.852L16.239 20zm-3.622 2l.25-2h-1.734l.25 2h1.234z" fill="#000"/></svg>