<svg width="24" height="24" fill="none" xmlns="http://www.w3.org/2000/svg"><path fill-rule="evenodd" clip-rule="evenodd" d="M7.5 5.385A9.963 9.963 0 0 1 9.95 11h4.1a9.963 9.963 0 0 1 2.45-5.615A7.959 7.959 0 0 0 12 4a7.96 7.96 0 0 0-4.5 1.385zM18 6.708A7.964 7.964 0 0 0 16.062 11h3.876A7.964 7.964 0 0 0 18 6.708zM19.938 13h-3.876A7.964 7.964 0 0 0 18 17.292 7.964 7.964 0 0 0 19.938 13zM16.5 18.615A9.963 9.963 0 0 1 14.05 13h-4.1a9.963 9.963 0 0 1-2.45 5.615A7.96 7.96 0 0 0 12 20a7.96 7.96 0 0 0 4.5-1.385zM6 17.292A7.964 7.964 0 0 0 7.938 13H4.062A7.964 7.964 0 0 0 6 17.292zM4.062 11h3.876A7.965 7.965 0 0 0 6 6.708 7.965 7.965 0 0 0 4.062 11zm1.271-6.453A9.966 9.966 0 0 1 12 2c2.56 0 4.898.964 6.667 2.547A9.978 9.978 0 0 1 22 12a9.978 9.978 0 0 1-3.333 7.453A9.967 9.967 0 0 1 12 22a9.967 9.967 0 0 1-6.667-2.547A9.978 9.978 0 0 1 2 12a9.978 9.978 0 0 1 3.333-7.453z" fill="#000"/></svg>