<svg width="24" height="24" fill="none" xmlns="http://www.w3.org/2000/svg"><path fill-rule="evenodd" clip-rule="evenodd" d="M5 2a1 1 0 00-.447.106L1.106 3.829A2 2 0 000 5.618v3.764a2 2 0 002.894 1.789L4 10.618V19a3 3 0 003 3h10a3 3 0 003-3v-8.382l1.106.553A2 2 0 0024 9.382V5.618a2 2 0 00-1.106-1.789l-3.447-1.723A1 1 0 0019 2h-3a2 2 0 00-2 2 2 2 0 11-4 0 2 2 0 00-2-2H5zM4 4.618v3.764l-2 1V5.618l2-1zM8 4H6v15a1 1 0 001 1h10a1 1 0 001-1V4h-2a4 4 0 01-8 0zm14 1.618l-2-1v3.764l2 1V5.618zM10 12.5a.5.5 0 011 0v2a.5.5 0 01-1 0v-2zm.5-2.5A2.5 2.5 0 008 12.5v2a2.5 2.5 0 005 0v-2a2.5 2.5 0 00-2.5-2.5zm3.5 0a1 1 0 100 2v4a1 1 0 102 0v-5a1 1 0 00-1-1h-1z" fill="#000"/></svg>