<svg width="24" height="24" fill="none" xmlns="http://www.w3.org/2000/svg"><path fill-rule="evenodd" clip-rule="evenodd" d="M5.97 8.178c1.292.48 2.46 1.45 3.006 2.656a1 1 0 0 1-.105 1.005 4.535 4.535 0 0 0-.113.161H11.268a2 2 0 1 1 1.25 2.941l-2.026 2.43c-.017.39-.06.752-.135 1.087A4.48 4.48 0 0 0 12.5 19a4.488 4.488 0 0 0 3.472-1.637 1 1 0 0 1 .77-.363h2.503A8 8 0 1 0 5.97 8.178zM9.45 20.24c.91.484 1.948.759 3.051.759a6.484 6.484 0 0 0 4.69-2h2.518a1 1 0 0 0 .745-.333A9.967 9.967 0 0 0 23 12c0-5.523-4.477-10-10-10-4.3 0-7.964 2.714-9.377 6.52a1 1 0 0 0 .845 1.343c.93.086 1.891.657 2.42 1.356-.146.25-.277.51-.39.781H2.5a1 1 0 0 0-.914.593c-.313.704-.504 1.677-.596 2.565-.093.89-.103 1.845.028 2.53.212 1.108.63 2.078.986 2.76a10.947 10.947 0 0 0 .623 1.049l.045.064.014.02.004.006.002.002v.001L3.5 21l-.807.59A1 1 0 0 0 3.5 22v-1 1h.03a7.92 7.92 0 0 0 .343-.009c.225-.008.54-.024.905-.058.716-.065 1.68-.198 2.538-.484.726-.242 1.52-.565 2.133-1.208zm-2.321-2.08c.208.305.442.591.698.856-.249.192-.605.355-1.142.534-.642.214-1.429.33-2.087.39-.21.02-.402.033-.564.041a9.325 9.325 0 0 1-.744-1.566l3.839-.256zm1.157-2.082l.721-.048L10.698 14H8.027a4.56 4.56 0 0 0 .258 2.079zM6.019 14a6.58 6.58 0 0 0 .21 2.216l-3.31.22c.001-.322.02-.688.06-1.07.053-.504.136-.979.237-1.366H6.019z" fill="#000"/></svg>