<svg width="24" height="24" fill="none" xmlns="http://www.w3.org/2000/svg"><path fill-rule="evenodd" clip-rule="evenodd" d="M6.456 6.456c2.127-2.126 5.073-2.878 7.82-3.015 2.539-.128 4.787.275 5.794.489.214 1.007.616 3.256.489 5.794-.138 2.748-.89 5.694-3.015 7.82-2.126 2.125-5.072 2.877-7.82 3.015-2.538.127-4.787-.275-5.794-.489-.214-1.008-.617-3.255-.49-5.793.138-2.748.89-5.694 3.016-7.82zm14.261-4.432c-.94-.21-3.542-.731-6.54-.58-2.987.149-6.51.974-9.135 3.598-2.624 2.624-3.449 6.148-3.599 9.135-.15 2.998.371 5.6.58 6.54.057.252.17.564.433.827.263.264.575.376.827.432.94.21 3.542.731 6.541.58 2.987-.15 6.51-.975 9.134-3.598 2.623-2.623 3.448-6.147 3.598-9.134.151-2.999-.37-5.6-.58-6.541a1.648 1.648 0 0 0-.432-.827 1.648 1.648 0 0 0-.827-.432zm-4.51 7.183a1 1 0 0 0-1.414-1.414L13.5 9.086l-.793-.793a1 1 0 1 0-1.414 1.414l.793.793-1.586 1.586-.793-.793a1 1 0 0 0-1.414 1.414l.793.793-1.293 1.293a1 1 0 1 0 1.414 1.414l1.293-1.293.793.793a1 1 0 1 0 1.414-1.414l-.793-.793 1.586-1.586.793.793a1 1 0 1 0 1.414-1.414l-.793-.793 1.293-1.293z" fill="#000"/></svg>