<svg width="24" height="24" fill="none" xmlns="http://www.w3.org/2000/svg"><path fill-rule="evenodd" clip-rule="evenodd" d="M11.205 4.039a7.993 7.993 0 0 0-5.702 3.292l.399.107 1 1.732-.732 2.732-1.732 1-.399-.107a7.993 7.993 0 0 0 3.292 5.702l.107-.399 1.732-1 2.732.732 1 1.732-.107.399a7.993 7.993 0 0 0 5.702-3.292l-.399-.107-1-1.732.732-2.732 1.732-1 .399.107a7.993 7.993 0 0 0-3.292-5.702l-.107.399-1.732 1-2.732-.732-1-1.732.107-.399zM12 2C6.477 2 2 6.477 2 12s4.477 10 10 10 10-4.477 10-10S17.523 2 12 2zM9.634 9.902l-.732 2.732 1 1.732 2.732.732 1.732-1 .732-2.732-1-1.732-2.732-.732-1.732 1z" fill="#000"/></svg>