<svg width="24" height="24" fill="none" xmlns="http://www.w3.org/2000/svg"><path fill-rule="evenodd" clip-rule="evenodd" d="M14 5a1 1 0 011-1h4a1 1 0 011 1v4a1 1 0 11-2 0V6h-3a1 1 0 01-1-1zm-9.707 8.293a1 1 0 011.414 0L7.5 15.086l1.793-1.793a1 1 0 011.414 1.414L8.914 16.5l1.793 1.793a1 1 0 01-1.414 1.414L7.5 17.914l-1.793 1.793a1 1 0 01-1.414-1.414L6.086 16.5l-1.793-1.793a1 1 0 010-1.414zM6 7.5a1.5 1.5 0 113 0 1.5 1.5 0 01-3 0zM7.5 4a3.5 3.5 0 100 7 3.5 3.5 0 000-7zm9 11a1.5 1.5 0 100 3 1.5 1.5 0 000-3zM13 16.5a3.5 3.5 0 117 0 3.5 3.5 0 01-7 0zm1-5.5a1 1 0 100-2 1 1 0 000 2zm-1 1a1 1 0 11-2 0 1 1 0 012 0zm3-3a1 1 0 100-2 1 1 0 000 2z" fill="#000"/></svg>