<svg width="24" height="24" fill="none" xmlns="http://www.w3.org/2000/svg"><path fill-rule="evenodd" clip-rule="evenodd" d="M3 4a2 2 0 0 1 2-2h14a2 2 0 0 1 2 2v15a3 3 0 0 1-3 3H6a3 3 0 0 1-3-3V4zm16 0H5v15a1 1 0 0 0 1 1h12a1 1 0 0 0 1-1V4zm-6 7a1 1 0 1 1-2 0 1 1 0 0 1 2 0zm-5 1a1 1 0 1 0 0-2 1 1 0 0 0 0 2zm9-1a1 1 0 1 1-2 0 1 1 0 0 1 2 0zm-9 4a1 1 0 1 0 0-2 1 1 0 0 0 0 2zm5-1a1 1 0 1 1-2 0 1 1 0 0 1 2 0zm3 1a1 1 0 1 0 0-2 1 1 0 0 0 0 2zm-7 2a1 1 0 1 1-2 0 1 1 0 0 1 2 0zm3 1a1 1 0 1 0 0-2 1 1 0 0 0 0 2zm5-1a1 1 0 1 1-2 0 1 1 0 0 1 2 0zM8 6a1 1 0 0 0 0 2h8a1 1 0 1 0 0-2H8z" fill="#000"/></svg>