<svg width="24" height="24" fill="none" xmlns="http://www.w3.org/2000/svg"><path fill-rule="evenodd" clip-rule="evenodd" d="M12.778 5.937c4.137-.117 7.657 3.008 8.16 7.063h.543a.5.5 0 0 0 .344-.863l-.115-.109a1 1 0 0 1 1.375-1.452l.115.109c1.642 1.554.542 4.315-1.719 4.315h-.567c-.237 1.36-.956 2.456-1.914 3.414V22a1 1 0 0 1-1 1h-3a1 1 0 0 1-.949-.684l-.367-1.102a1.775 1.775 0 0 0-3.368 0l-.367 1.102A1 1 0 0 1 9 23H6a1 1 0 0 1-1-1v-3c0-.528-.397-1.21-1.276-1.858-.848-.626-1.932-1.052-2.83-1.148A1 1 0 0 1 0 15v-4a1 1 0 0 1 .553-.894l1.617-.809C2.828 7.467 4.483 6.431 6 6.11V3a1 1 0 0 1 .805-.98l.32.002c.292 0 .585.002.875.034 2.031.227 4.085 1.996 4.778 3.88zM8 7V4.08c1.231.344 2.882 1.536 3 2.944a1.01 1.01 0 0 0 1.103.97l.28-.028C15.91 7.602 19 10.43 19 14c0 1.015-.403 1.99-1.121 2.707a7.78 7.78 0 0 1-.199.19c-.328.305-.68.634-.68 1.103v3h-1.28l-.139-.419a3.775 3.775 0 0 0-7.162 0l-.14.419H7v-2c0-1.472-1.013-2.674-2.089-3.468A8.432 8.432 0 0 0 2 14.165v-2.547l1.447-.724a1 1 0 0 0 .523-.652C4.33 8.806 5.826 8 7 8a1 1 0 0 0 1-1zm-.5 6a1.5 1.5 0 1 0 0-3 1.5 1.5 0 0 0 0 3z" fill="#000"/></svg>