<svg width="24" height="24" fill="none" xmlns="http://www.w3.org/2000/svg"><path fill-rule="evenodd" clip-rule="evenodd" d="M10.232 1.057a1 1 0 0 0-1.414 0L1.04 8.835a1 1 0 0 0 0 1.414l.707.708 12.02 12.02a1 1 0 0 0 1.415 0l.7-.699.007-.008.008-.008 6.349-6.348.007-.008.008-.007.7-.7a1 1 0 0 0 0-1.414l-.7-.7-.008-.007-.007-.007-11.3-11.3a3.437 3.437 0 0 0-.007-.007l-.006-.006-.7-.7zM8.111 4.593L4.575 8.128a2 2 0 0 1 0 2.829l4.243 4.242 4.243 4.243a2 2 0 0 1 2.828 0l3.536-3.536a2 2 0 0 1 0-2.828l-4.236-4.235c1.652 1.66 1.288 4.354-.36 6.003-1.652 1.65-4.35 2.014-6.011.353-1.66-1.66-1.298-4.359.354-6.01 1.648-1.649 4.341-2.013 6.003-.361l-4.236-4.235a2 2 0 0 1-2.828 0zm2.475 6.01c1.082-1.082 2.5-1.036 3.182-.354.682.683.729 2.1-.354 3.182-1.082 1.083-2.499 1.037-3.182.354-.682-.683-.729-2.1.354-3.182z" fill="#000"/></svg>