<svg width="24" height="24" viewBox="0 0 24 24" fill="none" xmlns="http://www.w3.org/2000/svg">
<path fill-rule="evenodd" clip-rule="evenodd" d="M14.2792 3C15.1401 3 15.9044 3.55086 16.1766 4.36754L16.7208 6H19C20.6569 6 22 7.34315 22 9V17C22 18.6569 20.6569 20 19 20H5C3.34315 20 2 18.6569 2 17V9C2 7.34315 3.34315 6 5 6H7.27924L7.82339 4.36754C8.09562 3.55086 8.8599 3 9.72076 3H14.2792ZM14.2792 5H9.72076L9.17661 6.63246C8.90438 7.44914 8.1401 8 7.27924 8H5C4.44772 8 4 8.44772 4 9V17C4 17.5523 4.44772 18 5 18H19C19.5523 18 20 17.5523 20 17V9C20 8.44772 19.5523 8 19 8H16.7208C15.8599 8 15.0956 7.44914 14.8234 6.63246L14.2792 5ZM9.5 12.5C9.5 11.1193 10.6193 10 12 10C13.3807 10 14.5 11.1193 14.5 12.5C14.5 13.8807 13.3807 15 12 15C10.6193 15 9.5 13.8807 9.5 12.5ZM12 8C9.51472 8 7.5 10.0147 7.5 12.5C7.5 14.9853 9.51472 17 12 17C14.4853 17 16.5 14.9853 16.5 12.5C16.5 10.0147 14.4853 8 12 8Z" fill="black"/>
</svg>
