<svg width="24" height="24" viewBox="0 0 24 24" fill="none" xmlns="http://www.w3.org/2000/svg">
<path fill-rule="evenodd" clip-rule="evenodd" d="M14.2942 3C15.1405 3 15.8952 3.53262 16.1787 4.32998L16.7058 5.8125H19C20.6569 5.8125 22 7.15565 22 8.8125V17C22 18.6569 20.6569 20 19 20H5C3.34315 20 2 18.6569 2 17V8.8125C2 7.15565 3.34315 5.8125 5 5.8125L7.29423 5.8125L7.82134 4.32998C8.10485 3.53262 8.85951 3 9.70577 3H14.2942ZM14.2942 5L9.70577 5L9.17866 6.48252C8.89515 7.27988 8.14049 7.8125 7.29423 7.8125H5C4.44772 7.8125 4 8.26022 4 8.8125V17C4 17.5523 4.44772 18 5 18H19C19.5523 18 20 17.5523 20 17V8.8125C20 8.26022 19.5523 7.8125 19 7.8125H16.7058C15.8595 7.8125 15.1048 7.27988 14.8213 6.48252L14.2942 5ZM9.5 12.5C9.5 11.1193 10.6193 10 12 10C13.3807 10 14.5 11.1193 14.5 12.5C14.5 13.8807 13.3807 15 12 15C10.6193 15 9.5 13.8807 9.5 12.5ZM12 8C9.51472 8 7.5 10.0147 7.5 12.5C7.5 14.9853 9.51472 17 12 17C14.4853 17 16.5 14.9853 16.5 12.5C16.5 10.0147 14.4853 8 12 8Z" fill="black"/>
</svg>
