<svg width="24" height="24" viewBox="0 0 24 24" fill="none" xmlns="http://www.w3.org/2000/svg">
<path fill-rule="evenodd" clip-rule="evenodd" d="M12 5C8.68629 5 6 7.68629 6 11C6 11.7216 6.12697 12.412 6.35946 13.0512C6.56832 13.0175 6.78231 13 7 13H8C8.55228 13 9 13.4477 9 14V20C9 20.5523 8.55228 21 8 21H7C4.79086 21 3 19.2091 3 17C3 15.7241 3.5973 14.589 4.52561 13.8572C4.18592 12.969 4 12.0054 4 11C4 6.58172 7.58172 3 12 3C16.4183 3 20 6.58172 20 11C20 12.0054 19.8141 12.969 19.4744 13.8572C20.4027 14.589 21 15.7241 21 17C21 19.2091 19.2091 21 17 21H16C15.4477 21 15 20.5523 15 20V14C15 13.4477 15.4477 13 16 13H17C17.2177 13 17.4317 13.0175 17.6405 13.0512C17.873 12.412 18 11.7216 18 11C18 7.68629 15.3137 5 12 5ZM7 15C6.71338 15 6.44333 15.0597 6.19951 15.1664C5.49151 15.4761 5 16.1818 5 17C5 18.1046 5.89543 19 7 19V15ZM17 15V19C18.1046 19 19 18.1046 19 17C19 16.1818 18.5085 15.4761 17.8005 15.1664C17.5567 15.0597 17.2866 15 17 15Z" fill="black"/>
</svg>
