<svg width="24" height="24" viewBox="0 0 24 24" fill="none" xmlns="http://www.w3.org/2000/svg">
<path fill-rule="evenodd" clip-rule="evenodd" d="M8 3C8 1.89543 8.89543 1 10 1H14C15.1046 1 16 1.89543 16 3V10C16 11.6569 14.6569 13 13 13V14H17C16.4477 14 16 13.5523 16 13C16 12.4477 16.4477 12 17 12H19C19.5523 12 20 12.4477 20 13C20 13.5523 19.5523 14 19 14C20.6569 14 22 15.3431 22 17V19C22 20.6569 20.6569 22 19 22H5C3.34315 22 2 20.6569 2 19V17C2 15.3431 3.34315 14 5 14H11V13C9.34315 13 8 11.6569 8 10V3ZM5 16H12H19C19.5523 16 20 16.4477 20 17V19C20 19.5523 19.5523 20 19 20H5C4.44772 20 4 19.5523 4 19V17C4 16.4477 4.44772 16 5 16ZM14 3H10V10C10 10.5523 10.4477 11 11 11H12H13C13.5523 11 14 10.5523 14 10V3Z" fill="black"/>
</svg>
