<svg width="24" height="24" viewBox="0 0 24 24" fill="none" xmlns="http://www.w3.org/2000/svg">
<path fill-rule="evenodd" clip-rule="evenodd" d="M2 6C2 4.34315 3.34315 3 5 3H19C20.6569 3 22 4.34315 22 6V16H23V17V18C23 19.6569 21.6569 21 20 21H4C2.34315 21 1 19.6569 1 18V17V16H2V6ZM20 6V16H4V6C4 5.44772 4.44772 5 5 5H19C19.5523 5 20 5.44772 20 6ZM4 19C3.44772 19 3 18.5523 3 18H21C21 18.5523 20.5523 19 20 19H4ZM5.5 6C5.22386 6 5 6.22386 5 6.5V14.5C5 14.7761 5.22386 15 5.5 15H18.5C18.7761 15 19 14.7761 19 14.5V6.5C19 6.22386 18.7761 6 18.5 6H5.5Z" fill="black"/>
</svg>
