<svg width="24" height="24" viewBox="0 0 24 24" fill="none" xmlns="http://www.w3.org/2000/svg">
<path fill-rule="evenodd" clip-rule="evenodd" d="M1 5C1 3.34315 2.34315 2 4 2H20C21.6569 2 23 3.34315 23 5V16C23 17.6569 21.6569 19 20 19H17V21H18C18.5523 21 19 21.4477 19 22C19 22.5523 18.5523 23 18 23H16H8H6C5.44772 23 5 22.5523 5 22C5 21.4477 5.44772 21 6 21H7V19H4C2.34315 19 1 17.6569 1 16V5ZM15 21V19H9V21H15ZM20 17H16H8H4C3.44772 17 3 16.5523 3 16V5C3 4.44772 3.44772 4 4 4H20C20.5523 4 21 4.44772 21 5V16C21 16.5523 20.5523 17 20 17ZM4.5 5C4.22386 5 4 5.22386 4 5.5V14.5C4 14.7761 4.22386 15 4.5 15H19.5C19.7761 15 20 14.7761 20 14.5V5.5C20 5.22386 19.7761 5 19.5 5H4.5Z" fill="black"/>
</svg>
