<svg width="24" height="24" viewBox="0 0 24 24" fill="none" xmlns="http://www.w3.org/2000/svg">
<path fill-rule="evenodd" clip-rule="evenodd" d="M6 1C4.34315 1 3 2.34315 3 4V17C3 18.3062 3.83481 19.4175 5 19.8293V22C5 22.5523 5.44772 23 6 23H18C18.5523 23 19 22.5523 19 22V19.8293C20.1652 19.4175 21 18.3062 21 17V4C21 2.34315 19.6569 1 18 1H6ZM17 20H7V21H17V20ZM6 18H18C18.5523 18 19 17.5523 19 17V4C19 3.44772 18.5523 3 18 3H6C5.44772 3 5 3.44772 5 4V17C5 17.5523 5.44772 18 6 18ZM7 5.75C7 5.33579 7.33579 5 7.75 5H16.25C16.6642 5 17 5.33579 17 5.75V12.25C17 12.6642 16.6642 13 16.25 13H7.75C7.33579 13 7 12.6642 7 12.25V5.75ZM16 16C16.5523 16 17 15.5523 17 15C17 14.4477 16.5523 14 16 14C15.4477 14 15 14.4477 15 15C15 15.5523 15.4477 16 16 16Z" fill="black"/>
</svg>
