<svg width="24" height="24" viewBox="0 0 24 24" fill="none" xmlns="http://www.w3.org/2000/svg">
<path fill-rule="evenodd" clip-rule="evenodd" d="M10.4179 5.0915C10.7727 5.25469 11 5.60948 11 6.00001V18C11 18.3905 10.7727 18.7453 10.4179 18.9085C10.0631 19.0717 9.64572 19.0134 9.34921 18.7593L2.34921 12.7593C2.12756 12.5693 2 12.2919 2 12C2 11.7081 2.12756 11.4307 2.34921 11.2408L9.34921 5.24076C9.64572 4.9866 10.0631 4.92832 10.4179 5.0915ZM20.4179 5.0915C20.7727 5.25469 21 5.60948 21 6.00001V18C21 18.3905 20.7727 18.7453 20.4179 18.9085C20.0631 19.0717 19.6457 19.0134 19.3492 18.7593L12.3492 12.7593C12.1276 12.5693 12 12.2919 12 12C12 11.7081 12.1276 11.4307 12.3492 11.2408L19.3492 5.24076C19.6457 4.9866 20.0631 4.92832 20.4179 5.0915ZM4.53659 12L9 15.8258V8.17423L4.53659 12ZM14.5366 12L19 15.8258V8.17423L14.5366 12Z" fill="black"/>
</svg>
